<svg width="120" height="120" viewBox="0 0 120 120" fill="none" xmlns="http://www.w3.org/2000/svg">
<path d="M35.627 110.588L39.616 102.049H40.1895L44.1786 110.588H42.8022L39.9219 103.986L37.0034 110.588H35.627ZM37.6279 108.549V107.465H42.3561V108.549H37.6279Z" fill="#495366"/>
<path d="M49.8245 110.588L49.8117 106.803C49.8117 106.25 49.6885 105.83 49.4421 105.541C49.2042 105.252 48.8346 105.108 48.3333 105.108C47.9935 105.108 47.6536 105.235 47.3138 105.49C46.9824 105.736 46.6893 106.025 46.4344 106.357V105.222C46.5703 105.052 46.7445 104.883 46.9569 104.713C47.1693 104.534 47.4072 104.386 47.6706 104.267C47.9425 104.148 48.2229 104.088 48.5118 104.088C48.9451 104.088 49.3402 104.186 49.697 104.381C50.0539 104.568 50.3385 104.857 50.5509 105.248C50.7633 105.63 50.8695 106.115 50.8695 106.701V110.588H49.8245ZM45.3893 110.588V104.216H46.4344V110.588H45.3893Z" fill="#495366"/>
<path d="M55.3684 110.779C54.8246 110.779 54.3276 110.643 53.8773 110.371C53.427 110.091 53.0659 109.704 52.794 109.211C52.5306 108.719 52.3989 108.149 52.3989 107.504C52.3989 106.798 52.5306 106.191 52.794 105.681C53.0659 105.171 53.4354 104.781 53.9028 104.509C54.3701 104.228 54.8926 104.088 55.4703 104.088C55.8357 104.088 56.2053 104.177 56.5791 104.356C56.9615 104.526 57.2886 104.764 57.5605 105.069V101.412H58.6055V110.588H57.5605V109.505C57.3396 109.844 57.0379 110.142 56.6556 110.397C56.2817 110.652 55.8527 110.779 55.3684 110.779ZM55.5341 109.759C55.9249 109.759 56.2733 109.658 56.5791 109.454C56.885 109.25 57.1271 108.969 57.3056 108.612C57.484 108.247 57.569 107.839 57.5605 107.389L57.5477 106.166C57.2843 105.834 56.9997 105.579 56.6938 105.401C56.3965 105.222 56.0523 105.133 55.6615 105.133C55.2027 105.133 54.8119 105.248 54.489 105.477C54.1661 105.698 53.9155 105.987 53.7371 106.344C53.5671 106.701 53.4822 107.087 53.4822 107.504C53.4822 107.912 53.5671 108.29 53.7371 108.638C53.907 108.978 54.1449 109.25 54.4508 109.454C54.7651 109.658 55.1262 109.759 55.5341 109.759Z" fill="#495366"/>
<path d="M60.7721 110.588V104.216H61.8172V110.588H60.7721ZM61.8172 106.739V105.49C62.0636 105.065 62.3609 104.725 62.7093 104.47C63.0576 104.216 63.4145 104.088 63.7798 104.088C64.0262 104.088 64.2471 104.131 64.4426 104.216V105.426C64.3151 105.35 64.1834 105.29 64.0475 105.248C63.9115 105.205 63.7713 105.184 63.6269 105.184C63.1936 105.184 62.841 105.337 62.5691 105.643C62.3057 105.949 62.0551 106.314 61.8172 106.739Z" fill="#495366"/>
<path d="M68.661 110.779C68.1767 110.779 67.7307 110.694 67.3228 110.524C66.9235 110.346 66.5709 110.104 66.265 109.798C65.9677 109.483 65.7383 109.127 65.5768 108.727C65.4154 108.319 65.3347 107.89 65.3347 107.44C65.3347 106.99 65.4154 106.565 65.5768 106.166C65.7383 105.758 65.9677 105.401 66.265 105.095C66.5709 104.781 66.9235 104.534 67.3228 104.356C67.7307 104.177 68.1767 104.088 68.661 104.088C69.1453 104.088 69.5871 104.177 69.9865 104.356C70.3943 104.534 70.7469 104.781 71.0443 105.095C71.3501 105.401 71.5838 105.758 71.7452 106.166C71.9067 106.565 71.9874 106.99 71.9874 107.44C71.9874 107.89 71.9067 108.319 71.7452 108.727C71.5838 109.127 71.3501 109.483 71.0443 109.798C70.7469 110.104 70.3943 110.346 69.9865 110.524C69.5871 110.694 69.1453 110.779 68.661 110.779ZM68.661 109.759C69.1198 109.759 69.5149 109.653 69.8463 109.441C70.1861 109.22 70.4453 108.935 70.6237 108.587C70.8106 108.23 70.9041 107.848 70.9041 107.44C70.9041 107.024 70.8106 106.641 70.6237 106.293C70.4453 105.936 70.1861 105.651 69.8463 105.439C69.5149 105.218 69.1198 105.108 68.661 105.108C68.2107 105.108 67.8156 105.218 67.4758 105.439C67.1359 105.651 66.8725 105.936 66.6856 106.293C66.5072 106.641 66.418 107.024 66.418 107.44C66.418 107.848 66.5072 108.23 66.6856 108.587C66.8725 108.935 67.1359 109.22 67.4758 109.441C67.8156 109.653 68.2107 109.759 68.661 109.759Z" fill="#495366"/>
<path d="M74.7275 102.89C74.4811 102.89 74.2729 102.801 74.103 102.622C73.9416 102.444 73.8608 102.244 73.8608 102.023C73.8608 101.794 73.9416 101.594 74.103 101.425C74.2729 101.246 74.4811 101.157 74.7275 101.157C74.8889 101.157 75.0333 101.199 75.1608 101.284C75.2967 101.361 75.4029 101.467 75.4794 101.603C75.5559 101.73 75.5941 101.871 75.5941 102.023C75.5941 102.168 75.5559 102.308 75.4794 102.444C75.4029 102.58 75.2967 102.69 75.1608 102.775C75.0333 102.852 74.8889 102.89 74.7275 102.89ZM74.3324 110.588V104.216H75.3775V110.588H74.3324ZM73.3256 105.197V104.216H75.3775V105.197H73.3256Z" fill="#495366"/>
<path d="M80.1567 110.779C79.6129 110.779 79.1159 110.643 78.6656 110.371C78.2153 110.091 77.8542 109.704 77.5823 109.211C77.3189 108.719 77.1872 108.149 77.1872 107.504C77.1872 106.798 77.3189 106.191 77.5823 105.681C77.8542 105.171 78.2238 104.781 78.6911 104.509C79.1584 104.228 79.6809 104.088 80.2586 104.088C80.624 104.088 80.9936 104.177 81.3674 104.356C81.7498 104.526 82.0769 104.764 82.3488 105.069V101.412H83.3938V110.588H82.3488V109.505C82.1279 109.844 81.8262 110.142 81.4439 110.397C81.0701 110.652 80.641 110.779 80.1567 110.779ZM80.3224 109.759C80.7132 109.759 81.0616 109.658 81.3674 109.454C81.6733 109.25 81.9154 108.969 82.0939 108.612C82.2723 108.247 82.3573 107.839 82.3488 107.389L82.336 106.166C82.0726 105.834 81.788 105.579 81.4821 105.401C81.1848 105.222 80.8407 105.133 80.4498 105.133C79.991 105.133 79.6002 105.248 79.2773 105.477C78.9544 105.698 78.7038 105.987 78.5254 106.344C78.3555 106.701 78.2705 107.087 78.2705 107.504C78.2705 107.912 78.3555 108.29 78.5254 108.638C78.6953 108.978 78.9332 109.25 79.2391 109.454C79.5534 109.658 79.9145 109.759 80.3224 109.759Z" fill="#495366"/>
<path d="M70.871 66.5787C69.7863 66.5787 68.904 65.6957 68.904 64.611C68.904 63.5263 69.7863 62.644 70.871 62.644C71.9559 62.644 72.8382 63.5261 72.8382 64.611C72.8382 65.6957 71.9559 66.5787 70.871 66.5787ZM49.1278 66.5787C48.0431 66.5787 47.1607 65.6957 47.1607 64.611C47.1607 63.5263 48.0429 62.644 49.1278 62.644C50.2125 62.644 51.0948 63.5261 51.0948 64.611C51.0948 65.6957 50.2126 66.5787 49.1278 66.5787ZM71.5766 54.729L75.5081 47.9198C75.6163 47.7319 75.6456 47.5087 75.5895 47.2993C75.5333 47.0898 75.3964 46.9112 75.2087 46.8025C75.0208 46.6944 74.7976 46.6651 74.5882 46.7213C74.3787 46.7774 74.2001 46.9143 74.0914 47.1019L70.1107 53.9972C67.0664 52.6081 63.6476 51.8341 59.9994 51.8341C56.3512 51.8341 52.9324 52.6081 49.8882 53.9972L45.9073 47.1019C45.7987 46.9143 45.62 46.7774 45.4106 46.7213C45.2012 46.6651 44.978 46.6944 44.7901 46.8025C44.6023 46.9111 44.4653 47.0897 44.4091 47.2992C44.353 47.5087 44.3823 47.7319 44.4907 47.9198L48.4222 54.729C41.6712 58.4008 37.0539 65.2353 36.3784 73.31H83.6204C82.9443 65.2355 78.327 58.401 71.5766 54.729Z" fill="#495366"/>
</svg>
