<svg width="120" height="120" viewBox="0 0 120 120" fill="none" xmlns="http://www.w3.org/2000/svg">
<path d="M18.1011 102.89C17.8547 102.89 17.6466 102.801 17.4766 102.623C17.3152 102.444 17.2345 102.245 17.2345 102.024C17.2345 101.794 17.3152 101.595 17.4766 101.425C17.6466 101.246 17.8547 101.157 18.1011 101.157C18.2626 101.157 18.407 101.2 18.5344 101.285C18.6704 101.361 18.7766 101.467 18.8531 101.603C18.9295 101.731 18.9678 101.871 18.9678 102.024C18.9678 102.168 18.9295 102.308 18.8531 102.444C18.7766 102.58 18.6704 102.691 18.5344 102.776C18.407 102.852 18.2626 102.89 18.1011 102.89ZM17.706 110.588V104.216H18.7511V110.588H17.706ZM16.6992 105.197V104.216H18.7511V105.197H16.6992Z" fill="#495366"/>
<path d="M21.3255 110.588V102.049H24.7283C25.0937 102.049 25.4505 102.122 25.7989 102.266C26.1557 102.402 26.4743 102.602 26.7547 102.865C27.0436 103.12 27.273 103.43 27.4429 103.795C27.6129 104.152 27.6978 104.552 27.6978 104.993C27.6978 105.58 27.5576 106.094 27.2773 106.535C26.9969 106.969 26.6145 107.309 26.1302 107.555C25.6544 107.801 25.1234 107.925 24.5372 107.925C24.0444 107.925 23.6026 107.869 23.2117 107.759C22.8294 107.648 22.532 107.538 22.3196 107.428V106.382C22.5235 106.493 22.8294 106.603 23.2372 106.714C23.645 106.816 24.0656 106.867 24.4989 106.867C25.1447 106.867 25.6417 106.705 25.9901 106.382C26.3469 106.06 26.5253 105.597 26.5253 104.993C26.5253 104.628 26.4234 104.309 26.2195 104.037C26.024 103.757 25.7649 103.536 25.442 103.375C25.1192 103.213 24.7751 103.133 24.4097 103.133H22.4725V110.588H21.3255Z" fill="#495366"/>
<path d="M33.8535 110.588L33.8407 106.803C33.8407 106.251 33.7175 105.83 33.4712 105.541C33.2333 105.252 32.8637 105.108 32.3624 105.108C32.0225 105.108 31.6827 105.235 31.3428 105.49C31.0114 105.737 30.7183 106.026 30.4634 106.357V105.223C30.5994 105.053 30.7735 104.883 30.9859 104.713C31.1984 104.535 31.4363 104.386 31.6996 104.267C31.9715 104.148 32.2519 104.088 32.5408 104.088C32.9741 104.088 33.3692 104.186 33.726 104.382C34.0829 104.568 34.3675 104.857 34.5799 105.248C34.7923 105.631 34.8986 106.115 34.8986 106.701V110.588H33.8535ZM29.4184 110.588V101.412H30.4634V110.588H29.4184Z" fill="#495366"/>
<path d="M39.7543 110.779C39.27 110.779 38.8239 110.694 38.4161 110.524C38.0167 110.346 37.6641 110.104 37.3583 109.798C37.0609 109.484 36.8315 109.127 36.6701 108.727C36.5086 108.32 36.4279 107.891 36.4279 107.44C36.4279 106.99 36.5086 106.565 36.6701 106.166C36.8315 105.758 37.0609 105.401 37.3583 105.095C37.6641 104.781 38.0167 104.535 38.4161 104.356C38.8239 104.178 39.27 104.088 39.7543 104.088C40.2385 104.088 40.6804 104.178 41.0797 104.356C41.4875 104.535 41.8401 104.781 42.1375 105.095C42.4434 105.401 42.677 105.758 42.8385 106.166C42.9999 106.565 43.0806 106.99 43.0806 107.44C43.0806 107.891 42.9999 108.32 42.8385 108.727C42.677 109.127 42.4434 109.484 42.1375 109.798C41.8401 110.104 41.4875 110.346 41.0797 110.524C40.6804 110.694 40.2385 110.779 39.7543 110.779ZM39.7543 109.76C40.2131 109.76 40.6081 109.654 40.9395 109.441C41.2794 109.22 41.5385 108.936 41.7169 108.587C41.9038 108.23 41.9973 107.848 41.9973 107.44C41.9973 107.024 41.9038 106.642 41.7169 106.293C41.5385 105.936 41.2794 105.652 40.9395 105.439C40.6081 105.218 40.2131 105.108 39.7543 105.108C39.3039 105.108 38.9089 105.218 38.569 105.439C38.2291 105.652 37.9658 105.936 37.7788 106.293C37.6004 106.642 37.5112 107.024 37.5112 107.44C37.5112 107.848 37.6004 108.23 37.7788 108.587C37.9658 108.936 38.2291 109.22 38.569 109.441C38.9089 109.654 39.3039 109.76 39.7543 109.76Z" fill="#495366"/>
<path d="M49.2363 110.588L49.2235 106.803C49.2235 106.251 49.1003 105.83 48.8539 105.541C48.616 105.252 48.2464 105.108 47.7451 105.108C47.4053 105.108 47.0654 105.235 46.7256 105.49C46.3942 105.737 46.1011 106.026 45.8462 106.357V105.223C45.9821 105.053 46.1563 104.883 46.3687 104.713C46.5811 104.535 46.819 104.386 47.0824 104.267C47.3543 104.148 47.6347 104.088 47.9236 104.088C48.3569 104.088 48.752 104.186 49.1088 104.382C49.4657 104.568 49.7503 104.857 49.9627 105.248C50.1751 105.631 50.2813 106.115 50.2813 106.701V110.588H49.2363ZM44.8011 110.588V104.216H45.8462V110.588H44.8011Z" fill="#495366"/>
<path d="M55.137 110.779C54.6527 110.779 54.2067 110.694 53.7988 110.524C53.3995 110.346 53.0469 110.104 52.741 109.798C52.4437 109.484 52.2143 109.127 52.0528 108.727C51.8914 108.32 51.8107 107.891 51.8107 107.44C51.8107 106.837 51.9424 106.281 52.2058 105.771C52.4691 105.261 52.8302 104.853 53.2891 104.547C53.7564 104.241 54.2874 104.088 54.8821 104.088C55.5364 104.088 56.0801 104.224 56.5134 104.496C56.9468 104.768 57.2696 105.138 57.482 105.605C57.7029 106.072 57.8134 106.599 57.8134 107.185V107.81H52.792V106.918H56.7811C56.7386 106.501 56.6196 106.162 56.4242 105.898C56.2373 105.635 56.0079 105.439 55.736 105.312C55.4641 105.176 55.1795 105.108 54.8821 105.108C54.4743 105.108 54.1217 105.218 53.8243 105.439C53.527 105.652 53.2975 105.936 53.1361 106.293C52.9747 106.642 52.894 107.024 52.894 107.44C52.894 107.848 52.9832 108.23 53.1616 108.587C53.3485 108.936 53.6119 109.22 53.9518 109.441C54.2916 109.654 54.6867 109.76 55.137 109.76C55.5958 109.76 56.0206 109.645 56.4115 109.416C56.8108 109.178 57.1464 108.919 57.4183 108.638V109.773C57.2994 109.917 57.1209 110.07 56.883 110.231C56.6536 110.384 56.386 110.512 56.0801 110.614C55.7827 110.724 55.4684 110.779 55.137 110.779Z" fill="#495366"/>
<path d="M65.7151 110.779C65.1543 110.779 64.6615 110.677 64.2367 110.474C63.8204 110.27 63.4932 109.993 63.2553 109.645C63.0259 109.288 62.9112 108.88 62.9112 108.422C62.9112 107.98 63.0175 107.61 63.2299 107.313C63.4508 107.015 63.7311 106.761 64.071 106.548C64.4109 106.327 64.772 106.132 65.1543 105.962C65.5366 105.783 65.8977 105.605 66.2376 105.427C66.5775 105.24 66.8536 105.032 67.066 104.802C67.2869 104.564 67.3974 104.275 67.3974 103.936C67.3974 103.715 67.3379 103.536 67.2189 103.4C67.1085 103.256 66.9683 103.15 66.7984 103.082C66.6284 103.014 66.4627 102.98 66.3013 102.98C66.0464 102.98 65.8043 103.06 65.5749 103.222C65.3455 103.383 65.2308 103.664 65.2308 104.063C65.2308 104.301 65.2945 104.53 65.4219 104.751C65.5494 104.964 65.7108 105.18 65.9062 105.401C66.1101 105.622 66.3141 105.851 66.518 106.089C67.1722 106.829 67.8349 107.559 68.5061 108.281C69.1774 108.995 69.8996 109.764 70.6727 110.588H69.2581C68.8502 110.18 68.4509 109.768 68.0601 109.352C67.6692 108.936 67.2742 108.511 66.8748 108.078C66.484 107.636 66.0804 107.181 65.6641 106.714C65.4092 106.425 65.1501 106.149 64.8867 105.885C64.6318 105.622 64.4151 105.342 64.2367 105.044C64.0583 104.747 63.969 104.403 63.969 104.012C63.969 103.528 64.0795 103.128 64.3004 102.814C64.5298 102.491 64.8229 102.253 65.1798 102.1C65.5366 101.939 65.9105 101.858 66.3013 101.858C66.6837 101.858 67.0532 101.939 67.4101 102.1C67.7754 102.262 68.0728 102.495 68.3022 102.801C68.5401 103.107 68.6591 103.485 68.6591 103.936C68.6591 104.19 68.6166 104.424 68.5316 104.636C68.4467 104.84 68.332 105.027 68.1875 105.197C68.0431 105.359 67.8732 105.512 67.6777 105.656C67.4908 105.8 67.2911 105.941 67.0787 106.077C66.7814 106.264 66.4627 106.438 66.1229 106.599C65.7915 106.761 65.4772 106.926 65.1798 107.096C64.8824 107.258 64.6403 107.445 64.4533 107.657C64.2664 107.869 64.173 108.124 64.173 108.422C64.173 108.812 64.3217 109.118 64.619 109.339C64.9164 109.552 65.2945 109.658 65.7533 109.658C66.1186 109.658 66.4203 109.603 66.6582 109.492C66.8961 109.373 67.1 109.22 67.2699 109.033C67.4483 108.846 67.6225 108.643 67.7924 108.422C68.0303 108.116 68.2555 107.784 68.4679 107.428C68.6888 107.071 68.9437 106.637 69.2326 106.128H70.4816C70.1672 106.688 69.8613 107.211 69.5639 107.695C69.2666 108.179 68.9819 108.609 68.7101 108.982C68.4637 109.331 68.196 109.641 67.9071 109.913C67.6183 110.185 67.2954 110.397 66.9385 110.55C66.5817 110.703 66.1739 110.779 65.7151 110.779Z" fill="#495366"/>
<path d="M77.2362 102.89C76.9898 102.89 76.7817 102.801 76.6117 102.623C76.4503 102.444 76.3696 102.245 76.3696 102.024C76.3696 101.794 76.4503 101.595 76.6117 101.425C76.7817 101.246 76.9898 101.157 77.2362 101.157C77.3976 101.157 77.5421 101.2 77.6695 101.285C77.8055 101.361 77.9117 101.467 77.9881 101.603C78.0646 101.731 78.1028 101.871 78.1028 102.024C78.1028 102.168 78.0646 102.308 77.9881 102.444C77.9117 102.58 77.8055 102.691 77.6695 102.776C77.5421 102.852 77.3976 102.89 77.2362 102.89ZM76.8411 110.588V104.216H77.8862V110.588H76.8411ZM75.8343 105.197V104.216H77.8862V105.197H75.8343Z" fill="#495366"/>
<path d="M80.4606 110.588V102.049H83.8634C84.2288 102.049 84.5856 102.122 84.934 102.266C85.2908 102.402 85.6094 102.602 85.8898 102.865C86.1787 103.12 86.4081 103.43 86.578 103.795C86.748 104.152 86.8329 104.552 86.8329 104.993C86.8329 105.58 86.6927 106.094 86.4123 106.535C86.132 106.969 85.7496 107.309 85.2653 107.555C84.7895 107.801 84.2585 107.925 83.6722 107.925C83.1795 107.925 82.7376 107.869 82.3468 107.759C81.9645 107.648 81.6671 107.538 81.4547 107.428V106.382C81.6586 106.493 81.9645 106.603 82.3723 106.714C82.7801 106.816 83.2007 106.867 83.634 106.867C84.2797 106.867 84.7768 106.705 85.1251 106.382C85.482 106.06 85.6604 105.597 85.6604 104.993C85.6604 104.628 85.5585 104.309 85.3545 104.037C85.1591 103.757 84.9 103.536 84.5771 103.375C84.2543 103.213 83.9101 103.133 83.5448 103.133H81.6076V110.588H80.4606Z" fill="#495366"/>
<path d="M91.0769 110.779C90.5331 110.779 90.0361 110.643 89.5858 110.372C89.1355 110.091 88.7743 109.705 88.5025 109.212C88.2391 108.719 88.1074 108.15 88.1074 107.504C88.1074 106.799 88.2391 106.191 88.5025 105.682C88.7743 105.172 89.1439 104.781 89.6112 104.509C90.0785 104.229 90.6011 104.088 91.1788 104.088C91.5442 104.088 91.9138 104.178 92.2876 104.356C92.67 104.526 92.9971 104.764 93.269 105.07V104.216H94.314V110.588H93.269V109.505C93.0481 109.845 92.7464 110.142 92.3641 110.397C91.9902 110.652 91.5612 110.779 91.0769 110.779ZM91.2426 109.76C91.6334 109.76 91.9817 109.658 92.2876 109.454C92.5935 109.25 92.8356 108.97 93.0141 108.613C93.1925 108.247 93.2775 107.84 93.269 107.389L93.2562 106.166C92.9928 105.834 92.7082 105.575 92.4023 105.388C92.1049 105.201 91.7608 105.108 91.37 105.108C90.9112 105.108 90.5204 105.223 90.1975 105.452C89.8746 105.682 89.624 105.979 89.4456 106.344C89.2756 106.701 89.1907 107.088 89.1907 107.504C89.1907 107.912 89.2756 108.29 89.4456 108.638C89.6155 108.978 89.8534 109.25 90.1593 109.454C90.4736 109.658 90.8347 109.76 91.2426 109.76Z" fill="#495366"/>
<path d="M99.004 110.779C98.4603 110.779 97.9632 110.643 97.5129 110.372C97.0626 110.091 96.7015 109.705 96.4296 109.212C96.1662 108.719 96.0345 108.15 96.0345 107.504C96.0345 106.799 96.1662 106.191 96.4296 105.682C96.7015 105.172 97.0711 104.781 97.5384 104.509C98.0057 104.229 98.5282 104.088 99.106 104.088C99.4713 104.088 99.8409 104.178 100.215 104.356C100.597 104.526 100.924 104.764 101.196 105.07V101.412H102.241V110.588H101.196V109.505C100.975 109.845 100.674 110.142 100.291 110.397C99.9174 110.652 99.4883 110.779 99.004 110.779ZM99.1697 109.76C99.5606 109.76 99.9089 109.658 100.215 109.454C100.521 109.25 100.763 108.97 100.941 108.613C101.12 108.247 101.205 107.84 101.196 107.389L101.183 106.166C100.92 105.834 100.635 105.58 100.329 105.401C100.032 105.223 99.688 105.134 99.2972 105.134C98.8384 105.134 98.4475 105.248 98.1247 105.478C97.8018 105.699 97.5511 105.987 97.3727 106.344C97.2028 106.701 97.1178 107.088 97.1178 107.504C97.1178 107.912 97.2028 108.29 97.3727 108.638C97.5426 108.978 97.7805 109.25 98.0864 109.454C98.4008 109.658 98.7619 109.76 99.1697 109.76Z" fill="#495366"/>
<path d="M35.345 71.8811H39.4608V54.4622H35.345V71.8811ZM37.3946 52.1779C38.6839 52.1779 39.6922 51.1919 39.6922 49.9595C39.6922 48.7106 38.6839 47.7246 37.3946 47.7246C36.1219 47.7246 35.1137 48.7106 35.1137 49.9595C35.1137 51.192 36.1219 52.1779 37.3946 52.1779ZM53.164 47.7738C46.2054 47.7738 41.8415 52.4901 41.8415 60.0329C41.8415 67.5758 46.2049 72.2757 53.164 72.2757C60.106 72.2757 64.4699 67.5758 64.4699 60.0329C64.4699 52.4901 60.1065 47.7738 53.164 47.7738ZM53.164 51.3891C57.4119 51.3891 60.1226 54.7414 60.1226 60.0328C60.1226 65.3078 57.4118 68.6602 53.164 68.6602C48.8995 68.6602 46.2054 65.3079 46.2054 60.0328C46.2054 54.7415 48.8996 51.3891 53.164 51.3891ZM66.2061 65.2094C66.3879 69.5807 69.9912 72.2756 75.4789 72.2756C81.2476 72.2756 84.8841 69.4491 84.8841 64.9464C84.8841 61.4134 82.8345 59.425 77.9915 58.324L75.2477 57.6996C72.322 57.0094 71.1154 56.0891 71.1154 54.5116C71.1154 52.5396 72.9336 51.225 75.6278 51.225C78.3551 51.225 80.2227 52.5561 80.4212 54.7745H84.4873C84.3882 50.6005 80.9171 47.7739 75.661 47.7739C70.4707 47.7739 66.7847 50.6168 66.7847 54.8237C66.7847 58.2089 68.8674 60.3124 73.2639 61.3149L76.3548 62.038C79.3631 62.7446 80.5863 63.7305 80.5863 65.4396C80.5863 67.4115 78.5862 68.8248 75.7104 68.8248C72.8013 68.8248 70.603 67.3951 70.3386 65.2095L66.2061 65.2094Z" fill="#495366"/>
</svg>
