<svg width="120" height="120" viewBox="0 0 120 120" fill="none" xmlns="http://www.w3.org/2000/svg">
<path d="M32.9024 110.587V102.048H33.2593L36.9043 105.961L40.4855 102.048H40.8424V110.587H39.6953V104.406L37.0572 107.222H36.7513L34.0495 104.406V110.587H32.9024Z" fill="#495366"/>
<path d="M45.851 110.778C45.3072 110.778 44.8102 110.642 44.3599 110.37C43.9096 110.09 43.5485 109.703 43.2766 109.211C43.0132 108.718 42.8815 108.149 42.8815 107.503C42.8815 106.798 43.0132 106.19 43.2766 105.68C43.5485 105.171 43.9181 104.78 44.3854 104.508C44.8527 104.227 45.3752 104.087 45.953 104.087C46.3183 104.087 46.6879 104.177 47.0617 104.355C47.4441 104.525 47.7712 104.763 48.0431 105.069V104.215H49.0881V110.587H48.0431V109.504C47.8222 109.844 47.5205 110.141 47.1382 110.396C46.7644 110.651 46.3353 110.778 45.851 110.778ZM46.0167 109.759C46.4075 109.759 46.7559 109.657 47.0617 109.453C47.3676 109.249 47.6098 108.968 47.7882 108.612C47.9666 108.246 48.0516 107.838 48.0431 107.388L48.0303 106.165C47.7669 105.833 47.4823 105.574 47.1764 105.387C46.8791 105.2 46.535 105.107 46.1441 105.107C45.6853 105.107 45.2945 105.222 44.9716 105.451C44.6488 105.68 44.3981 105.978 44.2197 106.343C44.0498 106.7 43.9648 107.087 43.9648 107.503C43.9648 107.911 44.0498 108.289 44.2197 108.637C44.3896 108.977 44.6275 109.249 44.9334 109.453C45.2477 109.657 45.6088 109.759 46.0167 109.759Z" fill="#495366"/>
<path d="M54.135 110.778C53.6507 110.778 53.2046 110.693 52.7968 110.523C52.3975 110.345 52.0449 110.103 51.739 109.797C51.4416 109.483 51.2122 109.126 51.0508 108.726C50.8894 108.319 50.8087 107.889 50.8087 107.439C50.8087 106.989 50.8894 106.564 51.0508 106.165C51.2122 105.757 51.4416 105.4 51.739 105.094C52.0449 104.78 52.3975 104.533 52.7968 104.355C53.2046 104.177 53.6507 104.087 54.135 104.087C54.6023 104.087 55.0059 104.164 55.3457 104.317C55.6856 104.461 55.9193 104.593 56.0467 104.712V105.77C55.8088 105.591 55.5369 105.438 55.231 105.311C54.9252 105.175 54.5598 105.107 54.135 105.107C53.6847 105.107 53.2896 105.217 52.9498 105.438C52.6099 105.651 52.3465 105.935 52.1596 106.292C51.9812 106.64 51.8919 107.023 51.8919 107.439C51.8919 107.847 51.9812 108.229 52.1596 108.586C52.3465 108.934 52.6099 109.219 52.9498 109.44C53.2896 109.652 53.6847 109.759 54.135 109.759C54.5598 109.759 54.9252 109.695 55.231 109.567C55.5369 109.432 55.8088 109.274 56.0467 109.096V110.154C55.9193 110.281 55.6856 110.417 55.3457 110.562C55.0059 110.706 54.6023 110.778 54.135 110.778Z" fill="#495366"/>
<path d="M61.1955 110.715C60.8472 110.715 60.4818 110.698 60.0995 110.664C59.7256 110.638 59.3645 110.604 59.0162 110.562C58.6678 110.511 58.3577 110.455 58.0858 110.396V102.163C58.5277 102.061 59.0077 101.984 59.526 101.933C60.0528 101.874 60.5753 101.844 61.0936 101.844C61.7223 101.844 62.2661 101.95 62.7249 102.163C63.1922 102.367 63.5533 102.647 63.8082 103.004C64.0631 103.361 64.1905 103.773 64.1905 104.24C64.1905 104.657 64.0716 105.039 63.8337 105.387C63.5958 105.727 63.2984 105.982 62.9415 106.152C63.1964 106.203 63.4471 106.309 63.6935 106.471C63.9399 106.632 64.1438 106.853 64.3052 107.133C64.4751 107.414 64.5601 107.762 64.5601 108.178C64.5601 108.654 64.4242 109.083 64.1523 109.466C63.8804 109.848 63.4896 110.154 62.9798 110.383C62.4785 110.604 61.8837 110.715 61.1955 110.715ZM61.17 109.631C61.8073 109.631 62.334 109.5 62.7504 109.236C63.1752 108.973 63.3876 108.62 63.3876 108.178C63.3876 107.711 63.1794 107.363 62.7631 107.133C62.3553 106.895 61.854 106.776 61.2593 106.776H59.0289V105.757H61.2338C61.8115 105.757 62.2533 105.612 62.5592 105.324C62.8651 105.026 63.018 104.682 63.018 104.291C63.018 103.985 62.9246 103.735 62.7376 103.539C62.5507 103.335 62.3043 103.182 61.9984 103.08C61.7011 102.979 61.374 102.928 61.0171 102.928C60.6603 102.928 60.3374 102.94 60.0485 102.966C59.7681 102.991 59.4962 103.029 59.2329 103.08V109.478C59.4368 109.512 59.6577 109.542 59.8956 109.567C60.142 109.593 60.3756 109.61 60.5965 109.618C60.8259 109.627 61.0171 109.631 61.17 109.631Z" fill="#495366"/>
<path d="M69.0972 110.778C68.6129 110.778 68.1668 110.693 67.759 110.523C67.3597 110.345 67.0071 110.103 66.7012 109.797C66.4038 109.483 66.1744 109.126 66.013 108.726C65.8516 108.319 65.7709 107.889 65.7709 107.439C65.7709 106.989 65.8516 106.564 66.013 106.165C66.1744 105.757 66.4038 105.4 66.7012 105.094C67.0071 104.78 67.3597 104.533 67.759 104.355C68.1668 104.177 68.6129 104.087 69.0972 104.087C69.5815 104.087 70.0233 104.177 70.4226 104.355C70.8305 104.533 71.1831 104.78 71.4804 105.094C71.7863 105.4 72.02 105.757 72.1814 106.165C72.3428 106.564 72.4235 106.989 72.4235 107.439C72.4235 107.889 72.3428 108.319 72.1814 108.726C72.02 109.126 71.7863 109.483 71.4804 109.797C71.1831 110.103 70.8305 110.345 70.4226 110.523C70.0233 110.693 69.5815 110.778 69.0972 110.778ZM69.0972 109.759C69.556 109.759 69.9511 109.652 70.2825 109.44C70.6223 109.219 70.8814 108.934 71.0599 108.586C71.2468 108.229 71.3403 107.847 71.3403 107.439C71.3403 107.023 71.2468 106.64 71.0599 106.292C70.8814 105.935 70.6223 105.651 70.2825 105.438C69.9511 105.217 69.556 105.107 69.0972 105.107C68.6469 105.107 68.2518 105.217 67.9119 105.438C67.5721 105.651 67.3087 105.935 67.1218 106.292C66.9434 106.64 66.8541 107.023 66.8541 107.439C66.8541 107.847 66.9434 108.229 67.1218 108.586C67.3087 108.934 67.5721 109.219 67.9119 109.44C68.2518 109.652 68.6469 109.759 69.0972 109.759Z" fill="#495366"/>
<path d="M77.0244 110.778C76.5401 110.778 76.094 110.693 75.6862 110.523C75.2868 110.345 74.9342 110.103 74.6284 109.797C74.331 109.483 74.1016 109.126 73.9402 108.726C73.7787 108.319 73.698 107.889 73.698 107.439C73.698 106.989 73.7787 106.564 73.9402 106.165C74.1016 105.757 74.331 105.4 74.6284 105.094C74.9342 104.78 75.2868 104.533 75.6862 104.355C76.094 104.177 76.5401 104.087 77.0244 104.087C77.5087 104.087 77.9505 104.177 78.3498 104.355C78.7576 104.533 79.1102 104.78 79.4076 105.094C79.7135 105.4 79.9471 105.757 80.1086 106.165C80.27 106.564 80.3507 106.989 80.3507 107.439C80.3507 107.889 80.27 108.319 80.1086 108.726C79.9471 109.126 79.7135 109.483 79.4076 109.797C79.1102 110.103 78.7576 110.345 78.3498 110.523C77.9505 110.693 77.5087 110.778 77.0244 110.778ZM77.0244 109.759C77.4832 109.759 77.8782 109.652 78.2096 109.44C78.5495 109.219 78.8086 108.934 78.987 108.586C79.174 108.229 79.2674 107.847 79.2674 107.439C79.2674 107.023 79.174 106.64 78.987 106.292C78.8086 105.935 78.5495 105.651 78.2096 105.438C77.8782 105.217 77.4832 105.107 77.0244 105.107C76.574 105.107 76.179 105.217 75.8391 105.438C75.4993 105.651 75.2359 105.935 75.0489 106.292C74.8705 106.64 74.7813 107.023 74.7813 107.439C74.7813 107.847 74.8705 108.229 75.0489 108.586C75.2359 108.934 75.4993 109.219 75.8391 109.44C76.179 109.652 76.574 109.759 77.0244 109.759Z" fill="#495366"/>
<path d="M82.8104 108.816V107.618L86.2897 104.215H87.7044L82.8104 108.816ZM82.0712 110.587V101.411H83.1163V110.587H82.0712ZM86.5446 110.587L83.6388 107.235L84.327 106.496L87.87 110.587H86.5446Z" fill="#495366"/>
<path d="M34.8664 43.0665H85.1356V74.9058H34.8664V43.0665Z" fill="#3B4350" fill-opacity="0.5"/>
<path d="M34.977 41.1816H85.0253C85.3808 41.1835 85.7212 41.3258 85.9723 41.5774C86.2235 41.829 86.3651 42.1696 86.3663 42.5251V76.3753H33.6384V42.5251C33.6386 42.1696 33.7795 41.8288 34.0304 41.577C34.2812 41.3252 34.6216 41.1831 34.977 41.1816ZM34.8664 74.9058H85.1356V43.0665H34.8664V74.9058Z" fill="#495366"/>
<path d="M27.1016 78.9354C27.1016 79.0017 27.1147 79.0673 27.1401 79.1285C27.1656 79.1897 27.2029 79.2453 27.2499 79.292C27.2969 79.3387 27.3527 79.3757 27.4141 79.4008C27.4754 79.4259 27.5411 79.4386 27.6074 79.4382H92.3978C92.4638 79.4383 92.5292 79.4254 92.5902 79.4001C92.6512 79.3748 92.7066 79.3378 92.7532 79.2911C92.7998 79.2443 92.8367 79.1888 92.8618 79.1278C92.8869 79.0668 92.8998 79.0014 92.8995 78.9354V77.4986C92.8994 77.4328 92.8864 77.3677 92.8611 77.3069C92.8359 77.2461 92.7989 77.1909 92.7523 77.1444C92.7057 77.098 92.6505 77.0611 92.5896 77.036C92.5288 77.0109 92.4636 76.998 92.3978 76.9981H27.6074C27.5413 76.9977 27.4758 77.0103 27.4146 77.0353C27.3534 77.0602 27.2977 77.097 27.2508 77.1435C27.2038 77.19 27.1664 77.2452 27.1408 77.3062C27.1152 77.3671 27.1019 77.4325 27.1016 77.4986V78.9354Z" fill="#495366"/>
<path d="M59.6723 42.1204C59.6729 42.1852 59.6927 42.2483 59.7291 42.3019C59.7655 42.3555 59.8169 42.397 59.8769 42.4214C59.9369 42.4458 60.0028 42.4518 60.0662 42.4388C60.1297 42.4259 60.1878 42.3944 60.2334 42.3484C60.279 42.3024 60.3099 42.2439 60.3224 42.1804C60.3348 42.1168 60.3281 42.051 60.3032 41.9912C60.2783 41.9315 60.2362 41.8804 60.1823 41.8445C60.1285 41.8086 60.0652 41.7894 60.0004 41.7894C59.9571 41.7895 59.9142 41.7981 59.8742 41.8148C59.8343 41.8315 59.798 41.856 59.7675 41.8867C59.7371 41.9175 59.7129 41.954 59.6966 41.9941C59.6802 42.0342 59.672 42.0771 59.6723 42.1204Z" fill="#74829D"/>
<path d="M65.0558 76.9961V77.3864C65.055 77.5193 65.0017 77.6465 64.9075 77.7403C64.8133 77.834 64.6858 77.8868 64.5529 77.8869H55.4472C55.3146 77.8861 55.1876 77.8332 55.0937 77.7395C54.9999 77.6459 54.9466 77.519 54.9455 77.3864V76.9961H65.0558Z" fill="#3B4350"/>
</svg>
