<svg width="120" height="120" viewBox="0 0 120 120" fill="none" xmlns="http://www.w3.org/2000/svg">
<path d="M45.4017 110.587V102.049H45.7585L49.4035 105.961L52.9847 102.049H53.3416V110.587H52.1946V104.406L49.5564 107.223H49.2506L46.5487 104.406V110.587H45.4017Z" fill="#495366"/>
<path d="M58.7071 110.779C58.2228 110.779 57.7767 110.694 57.3689 110.524C56.9696 110.345 56.617 110.103 56.3111 109.797C56.0137 109.483 55.7843 109.126 55.6229 108.727C55.4614 108.319 55.3807 107.89 55.3807 107.44C55.3807 106.836 55.5124 106.28 55.7758 105.77C56.0392 105.26 56.4003 104.852 56.8591 104.547C57.3264 104.241 57.8574 104.088 58.4522 104.088C59.1064 104.088 59.6502 104.224 60.0835 104.496C60.5168 104.767 60.8397 105.137 61.0521 105.604C61.273 106.072 61.3835 106.598 61.3835 107.185V107.809H56.3621V106.917H60.3511C60.3087 106.501 60.1897 106.161 59.9943 105.897C59.8074 105.634 59.578 105.439 59.3061 105.311C59.0342 105.175 58.7496 105.107 58.4522 105.107C58.0444 105.107 57.6918 105.218 57.3944 105.439C57.097 105.651 56.8676 105.936 56.7062 106.293C56.5447 106.641 56.464 107.023 56.464 107.44C56.464 107.847 56.5532 108.23 56.7317 108.587C56.9186 108.935 57.182 109.22 57.5218 109.44C57.8617 109.653 58.2568 109.759 58.7071 109.759C59.1659 109.759 59.5907 109.644 59.9815 109.415C60.3809 109.177 60.7165 108.918 60.9884 108.638V109.772C60.8694 109.916 60.691 110.069 60.4531 110.231C60.2237 110.384 59.9561 110.511 59.6502 110.613C59.3528 110.723 59.0384 110.779 58.7071 110.779Z" fill="#495366"/>
<path d="M65.5764 110.779C65.2196 110.779 64.9095 110.706 64.6461 110.562C64.3827 110.409 64.1788 110.197 64.0343 109.925C63.8899 109.653 63.8177 109.339 63.8177 108.982V105.197H62.5942V104.891C63.0105 104.704 63.3589 104.398 63.6393 103.973C63.9196 103.54 64.166 103.009 64.3784 102.38H64.8627V104.215H66.9146V105.197H64.8627V108.931C64.8627 109.194 64.9477 109.402 65.1176 109.555C65.2961 109.708 65.5255 109.785 65.8058 109.785C66.0607 109.785 66.2901 109.755 66.494 109.695C66.7065 109.627 66.8764 109.555 67.0038 109.479V110.396C66.8339 110.532 66.6342 110.63 66.4048 110.689C66.1754 110.749 65.8993 110.779 65.5764 110.779Z" fill="#495366"/>
<path d="M71.3752 110.779C70.8315 110.779 70.3344 110.643 69.8841 110.371C69.4338 110.09 69.0727 109.704 68.8008 109.211C68.5374 108.718 68.4057 108.149 68.4057 107.503C68.4057 106.798 68.5374 106.191 68.8008 105.681C69.0727 105.171 69.4423 104.78 69.9096 104.508C70.3769 104.228 70.8994 104.088 71.4772 104.088C71.8425 104.088 72.2121 104.177 72.586 104.355C72.9683 104.525 73.2954 104.763 73.5673 105.069V104.215H74.6124V110.587H73.5673V109.504C73.3464 109.844 73.0448 110.141 72.6624 110.396C72.2886 110.651 71.8595 110.779 71.3752 110.779ZM71.5409 109.759C71.9318 109.759 72.2801 109.657 72.586 109.453C72.8919 109.249 73.134 108.969 73.3124 108.612C73.4909 108.247 73.5758 107.839 73.5673 107.389L73.5546 106.165C73.2912 105.834 73.0066 105.575 72.7007 105.388C72.4033 105.201 72.0592 105.107 71.6684 105.107C71.2096 105.107 70.8187 105.222 70.4959 105.451C70.173 105.681 69.9224 105.978 69.7439 106.344C69.574 106.7 69.489 107.087 69.489 107.503C69.489 107.911 69.574 108.289 69.7439 108.638C69.9139 108.977 70.1518 109.249 70.4576 109.453C70.772 109.657 71.1331 109.759 71.5409 109.759Z" fill="#495366"/>
<path d="M39.7205 65.413C39.7205 56.9709 43.9415 48.1619 48.8967 48.1619C51.6495 48.1619 53.8518 49.8136 57.3387 54.7687C54.0353 59.9073 52.0165 63.0272 52.0165 63.0272C47.612 70.0011 46.1438 71.4692 43.758 71.4692C41.3722 71.6528 39.7205 69.4505 39.7205 65.413ZM68.5336 62.2931L65.4137 57.1545C64.6796 55.8698 63.762 54.5852 63.0279 53.484C65.7807 49.263 67.983 47.0607 70.7359 47.0607C76.2415 47.0607 80.6461 55.3192 80.6461 65.5965C80.6461 69.4505 79.3614 71.6528 76.7921 71.6528C74.2228 71.6528 73.3052 70.0011 68.5336 62.2931ZM60.6421 49.8136C56.6046 44.4914 53.1177 42.4727 49.0802 42.4727C40.6381 42.4727 34.2148 53.6675 34.2148 65.413C34.2148 72.7539 37.7018 77.342 43.5745 77.342C47.7955 77.342 50.7319 75.3232 56.2376 65.78C56.2376 65.78 58.4398 61.7425 60.0915 58.9897C60.6421 59.9073 61.1927 60.8249 61.7432 61.9261L64.3126 66.3306C69.2677 74.7726 72.0205 77.5255 76.9756 77.5255C82.6648 77.5255 85.7847 72.7539 85.7847 65.2295C85.6012 52.7499 78.9944 42.4727 71.1029 42.4727C66.8819 42.4727 63.5785 45.7761 60.6421 49.8136Z" fill="#495366"/>
</svg>
