<svg width="120" height="120" viewBox="0 0 120 120" fill="none" xmlns="http://www.w3.org/2000/svg">
<path d="M47.9016 110.587V102.049H51.3043C51.6696 102.049 52.0265 102.121 52.3748 102.265C52.7316 102.401 53.0502 102.601 53.3306 102.864C53.6195 103.119 53.8489 103.429 54.0188 103.795C54.1887 104.152 54.2737 104.551 54.2737 104.993C54.2737 105.579 54.1335 106.093 53.8531 106.535C53.5727 106.968 53.1904 107.308 52.7061 107.554C52.2304 107.801 51.6994 107.924 51.1131 107.924C50.6204 107.924 50.1786 107.869 49.7877 107.758C49.4054 107.648 49.108 107.537 48.8956 107.427V106.382C49.0996 106.492 49.4054 106.603 49.8132 106.713C50.221 106.815 50.6416 106.866 51.0749 106.866C51.7206 106.866 52.2176 106.705 52.566 106.382C52.9228 106.059 53.1012 105.596 53.1012 104.993C53.1012 104.627 52.9993 104.309 52.7954 104.037C52.5999 103.757 52.3408 103.536 52.018 103.374C51.6951 103.213 51.351 103.132 50.9857 103.132H49.0486V110.587H47.9016Z" fill="#495366"/>
<path d="M57.0137 102.89C56.7673 102.89 56.5591 102.801 56.3892 102.622C56.2278 102.444 56.1471 102.244 56.1471 102.023C56.1471 101.794 56.2278 101.594 56.3892 101.424C56.5591 101.246 56.7673 101.157 57.0137 101.157C57.1751 101.157 57.3195 101.199 57.447 101.284C57.5829 101.361 57.6891 101.467 57.7656 101.603C57.842 101.73 57.8803 101.87 57.8803 102.023C57.8803 102.168 57.842 102.308 57.7656 102.444C57.6891 102.58 57.5829 102.69 57.447 102.775C57.3195 102.852 57.1751 102.89 57.0137 102.89ZM56.6186 110.587V104.215H57.6636V110.587H56.6186ZM55.6118 105.197V104.215H57.6636V105.197H55.6118Z" fill="#495366"/>
<path d="M62.7995 110.779C62.3152 110.779 61.8692 110.694 61.4614 110.524C61.0621 110.345 60.7095 110.103 60.4036 109.797C60.1062 109.483 59.8768 109.126 59.7154 108.727C59.554 108.319 59.4733 107.89 59.4733 107.44C59.4733 106.989 59.554 106.564 59.7154 106.165C59.8768 105.757 60.1062 105.401 60.4036 105.095C60.7095 104.78 61.0621 104.534 61.4614 104.355C61.8692 104.177 62.3152 104.088 62.7995 104.088C63.2668 104.088 63.6704 104.164 64.0102 104.317C64.35 104.462 64.5837 104.593 64.7111 104.712V105.77C64.4732 105.592 64.2014 105.439 63.8955 105.311C63.5896 105.175 63.2243 105.107 62.7995 105.107C62.3492 105.107 61.9541 105.218 61.6143 105.439C61.2745 105.651 61.0111 105.936 60.8242 106.293C60.6457 106.641 60.5565 107.023 60.5565 107.44C60.5565 107.847 60.6457 108.23 60.8242 108.587C61.0111 108.935 61.2745 109.22 61.6143 109.44C61.9541 109.653 62.3492 109.759 62.7995 109.759C63.2243 109.759 63.5896 109.695 63.8955 109.568C64.2014 109.432 64.4732 109.275 64.7111 109.096V110.154C64.5837 110.282 64.35 110.417 64.0102 110.562C63.6704 110.706 63.2668 110.779 62.7995 110.779Z" fill="#495366"/>
<path d="M69.3118 110.779C68.8275 110.779 68.3814 110.694 67.9736 110.524C67.5743 110.345 67.2217 110.103 66.9159 109.797C66.6185 109.483 66.3891 109.126 66.2277 108.727C66.0663 108.319 65.9855 107.89 65.9855 107.44C65.9855 106.989 66.0663 106.564 66.2277 106.165C66.3891 105.757 66.6185 105.401 66.9159 105.095C67.2217 104.78 67.5743 104.534 67.9736 104.355C68.3814 104.177 68.8275 104.088 69.3118 104.088C69.796 104.088 70.2378 104.177 70.6372 104.355C71.045 104.534 71.3976 104.78 71.6949 105.095C72.0008 105.401 72.2344 105.757 72.3958 106.165C72.5573 106.564 72.638 106.989 72.638 107.44C72.638 107.89 72.5573 108.319 72.3958 108.727C72.2344 109.126 72.0008 109.483 71.6949 109.797C71.3976 110.103 71.045 110.345 70.6372 110.524C70.2378 110.694 69.796 110.779 69.3118 110.779ZM69.3118 109.759C69.7706 109.759 70.1656 109.653 70.497 109.44C70.8368 109.22 71.0959 108.935 71.2744 108.587C71.4613 108.23 71.5547 107.847 71.5547 107.44C71.5547 107.023 71.4613 106.641 71.2744 106.293C71.0959 105.936 70.8368 105.651 70.497 105.439C70.1656 105.218 69.7706 105.107 69.3118 105.107C68.8615 105.107 68.4664 105.218 68.1266 105.439C67.7867 105.651 67.5233 105.936 67.3364 106.293C67.158 106.641 67.0688 107.023 67.0688 107.44C67.0688 107.847 67.158 108.23 67.3364 108.587C67.5233 108.935 67.7867 109.22 68.1266 109.44C68.4664 109.653 68.8615 109.759 69.3118 109.759Z" fill="#495366"/>
<path fill-rule="evenodd" clip-rule="evenodd" d="M56.6424 39.306C56.404 39.3501 56.1487 39.3973 55.899 39.4427C55.1499 39.5787 53.9581 39.9018 53.2601 40.1398C52.5621 40.3779 51.4385 40.837 50.7916 41.1601C50.1446 41.4831 48.8337 42.2653 47.9144 42.8944C46.927 43.5406 45.7182 44.5608 45.0202 45.292C44.3562 46.0061 43.4539 47.0774 43.0283 47.6725C42.5857 48.2846 41.9217 49.3559 41.5472 50.053C41.1726 50.7502 40.6619 51.8214 40.4235 52.4336C40.1852 53.0457 39.8277 54.1849 39.6404 54.9841C39.4361 55.7833 39.1978 57.2286 39.1126 58.2148C39.0275 59.3541 39.0275 60.6804 39.1297 61.8706C39.2318 62.9079 39.5042 64.4722 39.7426 65.3564C39.9809 66.2406 40.3895 67.4989 40.6619 68.162C40.9343 68.8252 41.5642 69.9984 42.0409 70.7976C42.5176 71.5968 43.4199 72.8551 44.0498 73.6032C44.6797 74.3514 45.8033 75.4567 46.5524 76.0518C47.2845 76.6469 48.2719 77.3951 48.7486 77.6841C49.2083 77.9902 50.0936 78.4833 50.7064 78.7894C51.3193 79.0955 52.2387 79.5036 52.7494 79.6736C53.2601 79.8606 54.2305 80.1497 54.8775 80.3367C55.5244 80.5068 57.0566 80.7448 58.2824 80.8639C60.2062 81.0339 60.768 81.0339 62.6237 80.7618C63.8495 80.5918 65.4668 80.2347 66.4543 79.9116C67.3906 79.5886 68.6504 79.0955 69.2633 78.7894C69.8762 78.4833 71.0169 77.8202 71.817 77.2931C72.6172 76.7659 73.877 75.7117 74.6261 74.9635C75.3752 74.2154 76.3967 73.0591 76.8904 72.413C77.3671 71.7498 78.2013 70.3895 78.712 69.3523C79.2228 68.3321 79.8697 66.6827 80.1591 65.6965C80.4315 64.7103 80.7379 63.0439 80.8401 61.9557C80.9933 60.5103 80.9763 59.5071 80.8401 58.1298C80.7379 57.1096 80.5336 55.8003 80.4145 55.2392C80.2783 54.678 79.9889 53.6918 79.7675 53.0287C79.5462 52.3825 79.0866 51.3113 78.7631 50.6482C78.4226 50.002 77.7927 48.9308 77.35 48.2676C76.9074 47.6215 76.0391 46.5162 75.4092 45.8191C74.7963 45.1219 73.5876 44.0167 72.7534 43.3705C71.834 42.6734 70.387 41.7892 69.1782 41.1941C68.0205 40.6329 66.4372 40.0208 65.5179 39.7827C64.6326 39.5447 63.2536 39.2726 62.4535 39.1706C61.6533 39.0856 60.3594 39.0176 59.5593 39.0176C58.7591 39.0346 57.9249 39.0856 57.6866 39.1196C57.5277 39.1423 57.1191 39.2178 56.6424 39.306ZM57.2608 43.1674C56.5117 43.3205 55.4051 43.5925 54.7922 43.7796C54.1793 43.9836 53.1238 44.4257 52.4258 44.7658C51.7278 45.1059 50.502 45.888 49.7018 46.5002C48.9017 47.1123 47.71 48.2175 47.08 48.9657C46.4501 49.6969 45.9224 50.36 45.9394 50.445C45.9394 50.5131 46.0415 50.5641 46.1607 50.5641C46.2629 50.5811 46.5523 50.428 46.7906 50.241C47.029 50.071 47.71 49.7479 48.3228 49.5438C48.9357 49.3398 50.0764 49.0677 50.8765 48.9487C51.9321 48.7787 52.7152 48.7617 53.7707 48.8807C54.5709 48.9827 55.7797 49.2378 56.4606 49.4588C57.1246 49.6969 58.095 50.088 58.5717 50.326C59.0654 50.5811 60.0869 51.1932 60.836 51.7203C61.5851 52.2304 62.9641 53.3867 63.9004 54.2709C64.8368 55.1551 66.3009 56.4474 67.1351 57.1105C67.9693 57.7907 69.2121 58.6919 69.8591 59.134C70.506 59.5931 71.6637 60.2392 72.4128 60.5963C73.1618 60.9534 74.1152 61.3615 74.5408 61.4975C74.9665 61.6335 75.6474 61.8036 76.0731 61.8716L76.8392 61.9906C77.0264 60.9704 77.0945 60.3412 77.0945 59.9161C77.0945 59.491 76.9754 58.4198 76.8562 57.5356C76.72 56.6514 76.3965 55.3081 76.1582 54.5599C75.9028 53.8118 75.3921 52.6215 75.0175 51.9244C74.643 51.2272 74.0131 50.224 73.6045 49.7139C73.2129 49.2038 72.4298 48.3366 71.885 47.8095C71.3232 47.2653 70.4549 46.5172 69.9442 46.1431C69.4334 45.752 68.3098 45.1059 67.4756 44.6808C66.6414 44.2727 65.1773 43.7456 64.2409 43.5075C63.0832 43.2014 61.9256 43.0484 60.5806 42.9974C59.2697 42.9464 58.1801 42.9974 57.2608 43.1674ZM50.4509 53.0466C49.8891 53.1826 49.0379 53.4887 48.5782 53.7268C48.1015 53.9648 47.2673 54.4919 46.7055 54.883C46.1437 55.2911 45.1563 56.1753 44.5093 56.8725C43.8624 57.5696 43.2325 58.3518 43.0793 58.6409C42.8579 59.083 42.8579 59.44 43.0282 61.1914C43.1303 62.3137 43.3516 63.759 43.5389 64.4221C43.7092 65.0853 44.1007 66.1905 44.3902 66.8877C44.6966 67.5848 45.2925 68.6901 45.7181 69.3532C46.1437 70.0164 47.0119 71.0706 47.6248 71.7167C48.2377 72.3629 49.123 73.1621 49.5997 73.5021C50.0764 73.8422 50.8765 74.3863 51.3873 74.6924C51.898 75.0155 52.9365 75.5086 53.6856 75.8147C54.4347 76.1207 55.6605 76.5118 56.4096 76.6818C57.397 76.9029 58.4525 77.0049 60.2401 77.0049C62.2831 77.0049 62.9641 76.9369 64.1558 76.6138C64.9559 76.4098 66.3349 75.8827 67.2202 75.4576C68.1055 75.0325 69.2972 74.3523 69.8591 73.9612C70.4209 73.5532 71.4083 72.703 72.0552 72.0568C72.6852 71.4107 73.6215 70.2714 74.1152 69.5233C74.6089 68.7751 75.2218 67.7039 75.4602 67.1427C75.7155 66.5816 75.9028 66.0715 75.9028 66.0035C75.9028 65.9185 75.7666 65.8675 75.5964 65.8675C75.4431 65.8675 74.6089 65.6804 73.7747 65.4254C72.9405 65.1873 71.6296 64.6942 70.8805 64.3371C70.1314 63.98 68.7184 63.1639 67.731 62.5177C66.7435 61.8716 65.2113 60.7153 64.326 59.9671C63.4408 59.219 61.9766 57.9437 61.0913 57.1105C60.2061 56.2943 59.0484 55.3251 58.5376 54.985C58.0269 54.628 57.1076 54.1008 56.4947 53.7948C55.8818 53.4887 54.8944 53.1316 54.2815 53.0126C53.6686 52.8766 52.7833 52.7916 52.3236 52.7916C51.847 52.7916 51.0127 52.9106 50.4509 53.0466Z" fill="#495366"/>
</svg>
