<svg width="120" height="120" viewBox="0 0 120 120" fill="none" xmlns="http://www.w3.org/2000/svg">
<path d="M14.8594 110.589V102.05H18.2622C18.6275 102.05 18.9844 102.122 19.3327 102.266C19.6896 102.402 20.0082 102.602 20.2886 102.865C20.5775 103.12 20.8069 103.43 20.9768 103.796C21.1467 104.153 21.2317 104.552 21.2317 104.994C21.2317 105.58 21.0915 106.094 20.8111 106.536C20.5307 106.969 20.1484 107.309 19.6641 107.555C19.1883 107.802 18.6573 107.925 18.071 107.925C17.5782 107.925 17.1364 107.87 16.7456 107.759C16.3632 107.649 16.0659 107.538 15.8535 107.428V106.383C16.0574 106.493 16.3632 106.604 16.7711 106.714C17.1789 106.816 17.5995 106.867 18.0328 106.867C18.6785 106.867 19.1756 106.706 19.5239 106.383C19.8808 106.06 20.0592 105.597 20.0592 104.994C20.0592 104.628 19.9572 104.31 19.7533 104.038C19.5579 103.757 19.2988 103.537 18.9759 103.375C18.653 103.214 18.3089 103.133 17.9436 103.133H16.0064V110.589H14.8594Z" fill="#495366"/>
<path d="M22.9522 110.589V101.412H23.9973V110.589H22.9522Z" fill="#495366"/>
<path d="M28.6873 110.78C28.1435 110.78 27.6465 110.644 27.1962 110.372C26.7459 110.091 26.3848 109.705 26.1129 109.212C25.8495 108.719 25.7178 108.15 25.7178 107.504C25.7178 106.799 25.8495 106.192 26.1129 105.682C26.3848 105.172 26.7544 104.781 27.2217 104.509C27.689 104.229 28.2115 104.089 28.7893 104.089C29.1546 104.089 29.5242 104.178 29.898 104.356C30.2804 104.526 30.6075 104.764 30.8794 105.07V104.216H31.9244V110.589H30.8794V109.505C30.6585 109.845 30.3568 110.142 29.9745 110.397C29.6007 110.652 29.1716 110.78 28.6873 110.78ZM28.853 109.76C29.2438 109.76 29.5922 109.658 29.898 109.454C30.2039 109.25 30.4461 108.97 30.6245 108.613C30.8029 108.248 30.8879 107.84 30.8794 107.39L30.8666 106.166C30.6032 105.835 30.3186 105.576 30.0127 105.389C29.7154 105.202 29.3713 105.108 28.9804 105.108C28.5216 105.108 28.1308 105.223 27.8079 105.452C27.4851 105.682 27.2344 105.979 27.056 106.345C26.8861 106.701 26.8011 107.088 26.8011 107.504C26.8011 107.912 26.8861 108.29 27.056 108.639C27.2259 108.978 27.4638 109.25 27.7697 109.454C28.0841 109.658 28.4452 109.76 28.853 109.76Z" fill="#495366"/>
<path d="M34.193 113.647L36.4743 109.352L38.8448 104.216H40.0937L35.4037 113.647H34.193ZM36.0537 110.283L33.1989 104.216H34.4479L36.9713 109.518L36.0537 110.283Z" fill="#495366"/>
<path d="M43.3819 110.716C42.8891 110.716 42.4345 110.631 42.0182 110.461C41.6019 110.291 41.2408 110.1 40.9349 109.888V108.702C41.2662 108.932 41.6443 109.14 42.0692 109.327C42.5025 109.505 42.991 109.594 43.5348 109.594C43.9596 109.594 44.3335 109.488 44.6563 109.276C44.9792 109.063 45.1406 108.77 45.1406 108.396C45.1406 108.184 45.0726 108.001 44.9367 107.848C44.8093 107.696 44.6521 107.564 44.4652 107.453C44.2782 107.343 44.0956 107.249 43.9171 107.173L42.5025 106.536C42.0946 106.349 41.776 106.145 41.5466 105.924C41.3172 105.703 41.1558 105.461 41.0623 105.198C40.9689 104.926 40.9221 104.633 40.9221 104.318C40.9221 103.868 41.0496 103.464 41.3045 103.107C41.5679 102.742 41.9162 102.453 42.3495 102.241C42.7829 102.028 43.2502 101.922 43.7515 101.922C44.2527 101.922 44.6648 101.994 44.9877 102.139C45.319 102.283 45.6079 102.436 45.8543 102.598V103.783C45.6164 103.604 45.3275 103.439 44.9877 103.286C44.6478 103.124 44.2782 103.044 43.8789 103.044C43.624 103.044 43.3564 103.09 43.076 103.184C42.8041 103.269 42.5747 103.409 42.3878 103.604C42.2009 103.8 42.1074 104.051 42.1074 104.356C42.1074 104.696 42.2306 104.955 42.477 105.134C42.7234 105.312 43.0208 105.482 43.3691 105.644L44.5416 106.179C45.1279 106.442 45.5697 106.735 45.8671 107.058C46.1644 107.381 46.3131 107.81 46.3131 108.345C46.3131 108.813 46.1772 109.225 45.9053 109.582C45.6334 109.93 45.2766 110.206 44.8347 110.41C44.3929 110.614 43.9086 110.716 43.3819 110.716Z" fill="#495366"/>
<path d="M50.5061 110.78C50.1493 110.78 49.8391 110.707 49.5757 110.563C49.3124 110.41 49.1084 110.198 48.964 109.926C48.8196 109.654 48.7473 109.34 48.7473 108.983V105.198H47.5239V104.892C47.9402 104.705 48.2885 104.399 48.5689 103.974C48.8493 103.541 49.0957 103.01 49.3081 102.381H49.7924V104.216H51.8443V105.198H49.7924V108.932C49.7924 109.195 49.8774 109.403 50.0473 109.556C50.2257 109.709 50.4551 109.786 50.7355 109.786C50.9904 109.786 51.2198 109.756 51.4237 109.696C51.6361 109.628 51.8061 109.556 51.9335 109.48V110.397C51.7636 110.533 51.5639 110.631 51.3345 110.69C51.1051 110.75 50.829 110.78 50.5061 110.78Z" fill="#495366"/>
<path d="M56.3049 110.78C55.7611 110.78 55.2641 110.644 54.8138 110.372C54.3635 110.091 54.0024 109.705 53.7305 109.212C53.4671 108.719 53.3354 108.15 53.3354 107.504C53.3354 106.799 53.4671 106.192 53.7305 105.682C54.0024 105.172 54.372 104.781 54.8393 104.509C55.3066 104.229 55.8291 104.089 56.4069 104.089C56.7722 104.089 57.1418 104.178 57.5157 104.356C57.898 104.526 58.2251 104.764 58.497 105.07V104.216H59.542V110.589H58.497V109.505C58.2761 109.845 57.9745 110.142 57.5921 110.397C57.2183 110.652 56.7892 110.78 56.3049 110.78ZM56.4706 109.76C56.8614 109.76 57.2098 109.658 57.5157 109.454C57.8215 109.25 58.0637 108.97 58.2421 108.613C58.4205 108.248 58.5055 107.84 58.497 107.39L58.4842 106.166C58.2209 105.835 57.9362 105.576 57.6304 105.389C57.333 105.202 56.9889 105.108 56.598 105.108C56.1392 105.108 55.7484 105.223 55.4255 105.452C55.1027 105.682 54.852 105.979 54.6736 106.345C54.5037 106.701 54.4187 107.088 54.4187 107.504C54.4187 107.912 54.5037 108.29 54.6736 108.639C54.8435 108.978 55.0814 109.25 55.3873 109.454C55.7017 109.658 56.0628 109.76 56.4706 109.76Z" fill="#495366"/>
<path d="M64.1811 110.78C63.8242 110.78 63.5141 110.707 63.2507 110.563C62.9873 110.41 62.7834 110.198 62.639 109.926C62.4946 109.654 62.4223 109.34 62.4223 108.983V105.198H61.1989V104.892C61.6152 104.705 61.9635 104.399 62.2439 103.974C62.5243 103.541 62.7707 103.01 62.9831 102.381H63.4674V104.216H65.5193V105.198H63.4674V108.932C63.4674 109.195 63.5524 109.403 63.7223 109.556C63.9007 109.709 64.1301 109.786 64.4105 109.786C64.6654 109.786 64.8948 109.756 65.0987 109.696C65.3111 109.628 65.481 109.556 65.6085 109.48V110.397C65.4386 110.533 65.2389 110.631 65.0095 110.69C64.7801 110.75 64.504 110.78 64.1811 110.78Z" fill="#495366"/>
<path d="M68.476 102.891C68.2296 102.891 68.0215 102.802 67.8515 102.623C67.6901 102.445 67.6094 102.245 67.6094 102.024C67.6094 101.795 67.6901 101.595 67.8515 101.425C68.0215 101.247 68.2296 101.158 68.476 101.158C68.6375 101.158 68.7819 101.2 68.9094 101.285C69.0453 101.361 69.1515 101.468 69.228 101.604C69.3044 101.731 69.3427 101.871 69.3427 102.024C69.3427 102.169 69.3044 102.309 69.228 102.445C69.1515 102.581 69.0453 102.691 68.9094 102.776C68.7819 102.853 68.6375 102.891 68.476 102.891ZM68.0809 110.589V104.216H69.126V110.589H68.0809ZM67.0741 105.198V104.216H69.126V105.198H67.0741Z" fill="#495366"/>
<path d="M74.2621 110.78C73.7778 110.78 73.3317 110.695 72.9239 110.525C72.5246 110.346 72.172 110.104 71.8661 109.798C71.5687 109.484 71.3393 109.127 71.1779 108.728C71.0165 108.32 70.9357 107.891 70.9357 107.441C70.9357 106.99 71.0165 106.565 71.1779 106.166C71.3393 105.758 71.5687 105.401 71.8661 105.096C72.172 104.781 72.5246 104.535 72.9239 104.356C73.3317 104.178 73.7778 104.089 74.2621 104.089C74.7464 104.089 75.1882 104.178 75.5875 104.356C75.9954 104.535 76.348 104.781 76.6453 105.096C76.9512 105.401 77.1849 105.758 77.3463 106.166C77.5077 106.565 77.5884 106.99 77.5884 107.441C77.5884 107.891 77.5077 108.32 77.3463 108.728C77.1849 109.127 76.9512 109.484 76.6453 109.798C76.348 110.104 75.9954 110.346 75.5875 110.525C75.1882 110.695 74.7464 110.78 74.2621 110.78ZM74.2621 109.76C74.7209 109.76 75.116 109.654 75.4473 109.442C75.7872 109.221 76.0463 108.936 76.2248 108.588C76.4117 108.231 76.5051 107.848 76.5051 107.441C76.5051 107.024 76.4117 106.642 76.2248 106.294C76.0463 105.937 75.7872 105.652 75.4473 105.44C75.116 105.219 74.7209 105.108 74.2621 105.108C73.8118 105.108 73.4167 105.219 73.0768 105.44C72.737 105.652 72.4736 105.937 72.2867 106.294C72.1083 106.642 72.019 107.024 72.019 107.441C72.019 107.848 72.1083 108.231 72.2867 108.588C72.4736 108.936 72.737 109.221 73.0768 109.442C73.4167 109.654 73.8118 109.76 74.2621 109.76Z" fill="#495366"/>
<path d="M83.7441 110.589L83.7314 106.803C83.7314 106.251 83.6082 105.831 83.3618 105.542C83.1239 105.253 82.7543 105.108 82.253 105.108C81.9131 105.108 81.5733 105.236 81.2334 105.491C80.902 105.737 80.6089 106.026 80.354 106.357V105.223C80.49 105.053 80.6641 104.883 80.8766 104.713C81.089 104.535 81.3269 104.386 81.5903 104.267C81.8621 104.148 82.1425 104.089 82.4314 104.089C82.8647 104.089 83.2598 104.186 83.6167 104.382C83.9735 104.569 84.2581 104.858 84.4705 105.249C84.683 105.631 84.7892 106.115 84.7892 106.701V110.589H83.7441ZM79.309 110.589V104.216H80.354V110.589H79.309Z" fill="#495366"/>
<path d="M93.6212 110.589L89.6321 102.05H91.0085L93.8888 108.651L96.8073 102.05H98.1838L94.1947 110.589H93.6212Z" fill="#495366"/>
<path d="M99.7131 110.589V102.05H102.988C103.354 102.05 103.711 102.101 104.059 102.203C104.416 102.305 104.735 102.462 105.015 102.674C105.304 102.878 105.533 103.141 105.703 103.464C105.873 103.787 105.958 104.169 105.958 104.611C105.958 105.138 105.805 105.584 105.499 105.949C105.202 106.315 104.819 106.591 104.352 106.778C103.893 106.956 103.418 107.046 102.925 107.046C102.789 107.046 102.619 107.037 102.415 107.02C102.22 107.003 102.016 106.986 101.803 106.969C101.591 106.944 101.391 106.918 101.204 106.893C101.017 106.859 100.873 106.829 100.771 106.803V105.848C101.06 105.932 101.378 106 101.727 106.051C102.075 106.094 102.419 106.115 102.759 106.115C103.405 106.115 103.902 105.979 104.25 105.707C104.607 105.435 104.785 105.07 104.785 104.611C104.785 104.136 104.59 103.77 104.199 103.515C103.817 103.26 103.35 103.133 102.797 103.133H100.86V110.589H99.7131ZM104.531 110.589L100.643 106.803L101.561 106.332L106.289 110.589H104.531Z" fill="#495366"/>
<path fill-rule="evenodd" clip-rule="evenodd" d="M86.5844 70.969C85.5267 72.2889 82.9364 73.2301 82.9364 73.2301L63.6653 80.0785V75.0282L77.8474 70.0288C79.4568 69.4581 79.704 68.6518 78.3958 68.2283C77.0902 67.8036 74.7257 67.9254 73.1152 68.4985L63.6653 71.7912V66.5497L64.2101 66.3674C64.2101 66.3674 66.9406 65.4113 70.7805 64.9905C74.6202 64.572 79.3215 65.0475 83.0124 66.4318C87.1719 67.7322 87.6405 69.6491 86.5844 70.969ZM65.4999 62.369V49.4532C65.4999 47.9364 65.217 46.5402 63.7784 46.1448C62.6767 45.7956 61.9933 46.8074 61.9933 48.3231V80.6676L53.1767 77.899V39.334C56.9253 40.0223 62.3869 41.65 65.3228 42.6292C72.7893 45.1654 75.3208 48.3221 75.3208 55.4344C75.3208 62.3666 70.9957 64.994 65.4999 62.369ZM36.9991 74.5003C32.7289 73.3105 32.0184 70.8316 33.9646 69.4035C35.7635 68.0849 38.8226 67.0923 38.8226 67.0923L51.464 62.6452V67.7152L42.367 70.936C40.76 71.5064 40.5129 72.314 41.8188 72.7373C43.1256 73.1606 45.4912 73.0403 47.1006 72.4685L51.464 70.9019V75.4377C51.1873 75.4864 50.879 75.5351 50.5935 75.5824C46.2288 76.2881 41.5802 75.9938 36.9991 74.5003ZM83.776 76.5085C84.3282 76.5085 84.8457 76.72 85.2355 77.1106C85.4279 77.2995 85.5803 77.5243 85.6841 77.772C85.788 78.0196 85.841 78.2852 85.8403 78.5533C85.8412 78.8214 85.7883 79.0871 85.6845 79.3348C85.5806 79.5825 85.428 79.8072 85.2355 79.996C85.0448 80.1869 84.8174 80.3383 84.5668 80.4413C84.3162 80.5442 84.0473 80.5967 83.776 80.5956C83.5047 80.5966 83.2359 80.544 82.9853 80.4411C82.7348 80.3381 82.5075 80.1868 82.3167 79.996C82.1243 79.8072 81.9719 79.5824 81.8682 79.3347C81.7646 79.087 81.7118 78.8214 81.713 78.5533C81.713 77.4268 82.6376 76.5085 83.776 76.5085ZM82.0597 78.5533C82.0597 79.0069 82.2379 79.434 82.5627 79.7526C82.7212 79.9114 82.9102 80.0373 83.1185 80.123C83.3268 80.2086 83.5504 80.2523 83.776 80.2513C84.2311 80.2512 84.6676 80.0723 84.9895 79.7538C85.3114 79.4354 85.4923 79.0036 85.4925 78.5533C85.4925 78.0984 85.3154 77.6716 84.9895 77.3513C84.8309 77.1926 84.6418 77.0669 84.4335 76.9815C84.2251 76.8961 84.0015 76.8527 83.776 76.8539C83.5504 76.8527 83.3268 76.8961 83.1184 76.9816C82.91 77.0671 82.721 77.1929 82.5624 77.3516C82.4023 77.5089 82.2754 77.6962 82.1891 77.9025C82.1028 78.1088 82.0588 78.33 82.0597 78.5533ZM84.3993 77.4525C84.6256 77.5509 84.7399 77.7408 84.7399 78.0107C84.7399 78.1495 84.7104 78.2661 84.6502 78.3575C84.607 78.4232 84.5458 78.4765 84.4769 78.5227C84.531 78.5544 84.5789 78.5923 84.6144 78.6361C84.6636 78.6991 84.6921 78.8002 84.6956 78.9376L84.7066 79.2284C84.7104 79.3063 84.7153 79.3658 84.7276 79.4023C84.7399 79.4559 84.7631 79.4899 84.7929 79.5008L84.8236 79.5154V79.6479H84.3785L84.3637 79.6225C84.3504 79.5942 84.3405 79.5644 84.3342 79.5338C84.3251 79.4749 84.3198 79.4156 84.3184 79.3561L84.2998 78.9947C84.2948 78.8695 84.2519 78.7919 84.1707 78.7502C84.1201 78.7272 84.0368 78.7164 83.9236 78.7164H83.2975V79.6479H82.8981V77.3746H83.9654C84.1398 77.3746 84.2864 77.4 84.3993 77.4525ZM83.2975 78.3683H83.9345C84.0625 78.3683 84.1644 78.3453 84.2372 78.298C84.3036 78.2504 84.3356 78.1641 84.3356 78.0386C84.3356 77.9025 84.2899 77.8136 84.194 77.7662C84.1412 77.7408 84.0674 77.7262 83.9739 77.7262H83.2978L83.2975 78.3683Z" fill="#495366"/>
</svg>
