<svg width="120" height="120" viewBox="0 0 120 120" fill="none" xmlns="http://www.w3.org/2000/svg">
<path fill-rule="evenodd" clip-rule="evenodd" d="M53.6072 44.1869C44.252 44.619 38.5284 46.342 35.1171 49.753C32.8068 52.0631 31.7187 54.6889 31.3957 58.733C30.7141 67.269 35.4089 74.5719 42.3707 75.805C43.558 76.0153 45.9522 75.9628 47.2336 75.6984C49.522 75.2261 51.3491 74.3235 54.91 71.9065C58.045 69.7786 58.9386 69.3896 60.3833 69.5245C61.4895 69.6278 62.3746 70.0784 65.2528 72.0036C70.1731 75.2947 72.2887 76.0503 76.1661 75.9015C78.1236 75.8264 79.1687 75.5762 80.7261 74.8105C83.9497 73.2252 86.4687 70.1666 87.77 66.2579C89.174 62.0407 88.9109 56.3027 87.1539 52.829C85.9956 50.5388 83.854 48.4669 81.2963 47.1621C78.7813 45.8791 75.0022 44.9399 70.5428 44.4895C66.4505 44.0762 58.9174 43.9416 53.6072 44.1869Z" fill="#3B4350" fill-opacity="0.5"/>
<path d="M32.5846 110.587L28.627 102.116H29.9925L32.8501 108.665L35.7457 102.116H37.1112L33.1536 110.587H32.5846Z" fill="#495366"/>
<path d="M39.324 102.95C39.0795 102.95 38.873 102.862 38.7044 102.685C38.5443 102.508 38.4642 102.309 38.4642 102.09C38.4642 101.863 38.5443 101.665 38.7044 101.496C38.873 101.319 39.0795 101.23 39.324 101.23C39.4841 101.23 39.6274 101.273 39.7539 101.357C39.8888 101.433 39.9941 101.538 40.07 101.673C40.1459 101.799 40.1838 101.939 40.1838 102.09C40.1838 102.234 40.1459 102.373 40.07 102.508C39.9941 102.642 39.8888 102.752 39.7539 102.836C39.6274 102.912 39.4841 102.95 39.324 102.95ZM38.932 110.587V104.265H39.9688V110.587H38.932ZM37.9331 105.239V104.265H39.9688V105.239H37.9331Z" fill="#495366"/>
<path d="M43.7115 110.777C43.4671 110.777 43.21 110.743 42.9402 110.676C42.6789 110.617 42.4429 110.545 42.2322 110.461C42.0214 110.368 41.8655 110.288 41.7643 110.221V109.108C41.8823 109.192 42.0467 109.289 42.2574 109.399C42.4766 109.5 42.7084 109.588 42.9529 109.664C43.1973 109.732 43.4249 109.765 43.6357 109.765C44.0319 109.765 44.3437 109.677 44.5713 109.5C44.8074 109.323 44.9254 109.104 44.9254 108.842C44.9254 108.64 44.8453 108.48 44.6851 108.362C44.5334 108.244 44.31 108.13 44.015 108.02L43.0793 107.679C42.5904 107.494 42.2659 107.262 42.1057 106.984C41.9456 106.697 41.8655 106.372 41.8655 106.01C41.8655 105.648 41.954 105.327 42.131 105.049C42.3165 104.771 42.5778 104.552 42.9149 104.392C43.2521 104.223 43.6441 104.139 44.0909 104.139C44.4618 104.139 44.8074 104.193 45.1277 104.303C45.448 104.404 45.6798 104.51 45.8231 104.619V105.732C45.6461 105.597 45.4059 105.466 45.1024 105.34C44.7989 105.213 44.487 105.15 44.1667 105.15C43.7705 105.15 43.4713 105.243 43.269 105.428C43.0751 105.614 42.9782 105.808 42.9782 106.01C42.9782 106.17 43.033 106.335 43.1425 106.503C43.2606 106.663 43.4629 106.794 43.7495 106.895L44.8116 107.274C45.2246 107.418 45.5323 107.624 45.7346 107.894C45.9369 108.164 46.0381 108.48 46.0381 108.842C46.0381 109.196 45.9369 109.521 45.7346 109.816C45.5407 110.111 45.2668 110.347 44.9127 110.524C44.5671 110.693 44.1667 110.777 43.7115 110.777Z" fill="#495366"/>
<path d="M48.6301 102.95C48.3857 102.95 48.1792 102.862 48.0106 102.685C47.8504 102.508 47.7703 102.309 47.7703 102.09C47.7703 101.863 47.8504 101.665 48.0106 101.496C48.1792 101.319 48.3857 101.23 48.6301 101.23C48.7903 101.23 48.9336 101.273 49.06 101.357C49.1949 101.433 49.3003 101.538 49.3762 101.673C49.452 101.799 49.49 101.939 49.49 102.09C49.49 102.234 49.452 102.373 49.3762 102.508C49.3003 102.642 49.1949 102.752 49.06 102.836C48.9336 102.912 48.7903 102.95 48.6301 102.95ZM48.2382 110.587V104.265H49.275V110.587H48.2382ZM47.2393 105.239V104.265H49.275V105.239H47.2393Z" fill="#495366"/>
<path d="M54.3706 110.777C53.8901 110.777 53.4476 110.693 53.043 110.524C52.6468 110.347 52.297 110.107 51.9935 109.803C51.6985 109.491 51.4709 109.137 51.3107 108.741C51.1506 108.337 51.0705 107.911 51.0705 107.464C51.0705 107.017 51.1506 106.596 51.3107 106.2C51.4709 105.795 51.6985 105.441 51.9935 105.138C52.297 104.826 52.6468 104.581 53.043 104.404C53.4476 104.227 53.8901 104.139 54.3706 104.139C54.8511 104.139 55.2894 104.227 55.6856 104.404C56.0902 104.581 56.4401 104.826 56.7351 105.138C57.0386 105.441 57.2704 105.795 57.4305 106.2C57.5907 106.596 57.6708 107.017 57.6708 107.464C57.6708 107.911 57.5907 108.337 57.4305 108.741C57.2704 109.137 57.0386 109.491 56.7351 109.803C56.4401 110.107 56.0902 110.347 55.6856 110.524C55.2894 110.693 54.8511 110.777 54.3706 110.777ZM54.3706 109.765C54.8258 109.765 55.2178 109.66 55.5465 109.449C55.8837 109.23 56.1408 108.948 56.3178 108.602C56.5033 108.248 56.596 107.869 56.596 107.464C56.596 107.051 56.5033 106.672 56.3178 106.326C56.1408 105.972 55.8837 105.69 55.5465 105.479C55.2178 105.26 54.8258 105.15 54.3706 105.15C53.9239 105.15 53.5319 105.26 53.1947 105.479C52.8575 105.69 52.5962 105.972 52.4108 106.326C52.2338 106.672 52.1452 107.051 52.1452 107.464C52.1452 107.869 52.2338 108.248 52.4108 108.602C52.5962 108.948 52.8575 109.23 53.1947 109.449C53.5319 109.66 53.9239 109.765 54.3706 109.765Z" fill="#495366"/>
<path d="M63.7779 110.587L63.7653 106.832C63.7653 106.284 63.6431 105.867 63.3986 105.58C63.1626 105.293 62.7959 105.15 62.2986 105.15C61.9614 105.15 61.6242 105.277 61.287 105.53C60.9583 105.774 60.6675 106.061 60.4146 106.389V105.264C60.5494 105.095 60.7222 104.927 60.933 104.758C61.1437 104.581 61.3797 104.434 61.6411 104.316C61.9108 104.198 62.189 104.139 62.4756 104.139C62.9055 104.139 63.2975 104.236 63.6515 104.429C64.0055 104.615 64.2879 104.902 64.4987 105.289C64.7094 105.669 64.8148 106.149 64.8148 106.731V110.587H63.7779ZM59.3777 110.587V104.265H60.4146V110.587H59.3777Z" fill="#495366"/>
<path d="M70.884 110.587V102.116H74.26C74.6225 102.116 74.9765 102.187 75.3221 102.331C75.6762 102.465 75.9923 102.663 76.2705 102.925C76.5571 103.178 76.7846 103.485 76.9532 103.848C77.1218 104.202 77.2061 104.598 77.2061 105.036C77.2061 105.618 77.067 106.128 76.7889 106.566C76.5107 106.996 76.1314 107.333 75.6509 107.578C75.1788 107.822 74.652 107.945 74.0704 107.945C73.5814 107.945 73.1431 107.89 72.7554 107.78C72.376 107.671 72.081 107.561 71.8703 107.451V106.415C72.0726 106.524 72.376 106.634 72.7806 106.743C73.1853 106.845 73.6025 106.895 74.0324 106.895C74.6731 106.895 75.1662 106.735 75.5118 106.415C75.8658 106.094 76.0429 105.635 76.0429 105.036C76.0429 104.674 75.9417 104.358 75.7394 104.088C75.5455 103.81 75.2884 103.591 74.9681 103.431C74.6478 103.27 74.3064 103.19 73.9439 103.19H72.022V110.587H70.884Z" fill="#495366"/>
<path d="M78.9131 110.587V104.265H79.9499V110.587H78.9131ZM79.9499 106.769V105.53C80.1944 105.108 80.4894 104.771 80.835 104.518C81.1806 104.265 81.5347 104.139 81.8971 104.139C82.1416 104.139 82.3608 104.181 82.5546 104.265V105.466C82.4282 105.39 82.2975 105.331 82.1627 105.289C82.0278 105.247 81.8887 105.226 81.7454 105.226C81.3155 105.226 80.9657 105.378 80.6959 105.681C80.4346 105.985 80.186 106.347 79.9499 106.769Z" fill="#495366"/>
<path d="M86.7399 110.777C86.2594 110.777 85.8169 110.693 85.4122 110.524C85.0161 110.347 84.6662 110.107 84.3628 109.803C84.0677 109.491 83.8401 109.137 83.68 108.741C83.5198 108.337 83.4397 107.911 83.4397 107.464C83.4397 107.017 83.5198 106.596 83.68 106.2C83.8401 105.795 84.0677 105.441 84.3628 105.138C84.6662 104.826 85.0161 104.581 85.4122 104.404C85.8169 104.227 86.2594 104.139 86.7399 104.139C87.2204 104.139 87.6587 104.227 88.0549 104.404C88.4595 104.581 88.8093 104.826 89.1044 105.138C89.4078 105.441 89.6396 105.795 89.7998 106.2C89.9599 106.596 90.04 107.017 90.04 107.464C90.04 107.911 89.9599 108.337 89.7998 108.741C89.6396 109.137 89.4078 109.491 89.1044 109.803C88.8093 110.107 88.4595 110.347 88.0549 110.524C87.6587 110.693 87.2204 110.777 86.7399 110.777ZM86.7399 109.765C87.1951 109.765 87.587 109.66 87.9158 109.449C88.253 109.23 88.5101 108.948 88.6871 108.602C88.8725 108.248 88.9653 107.869 88.9653 107.464C88.9653 107.051 88.8725 106.672 88.6871 106.326C88.5101 105.972 88.253 105.69 87.9158 105.479C87.587 105.26 87.1951 105.15 86.7399 105.15C86.2931 105.15 85.9011 105.26 85.564 105.479C85.2268 105.69 84.9655 105.972 84.78 106.326C84.603 106.672 84.5145 107.051 84.5145 107.464C84.5145 107.869 84.603 108.248 84.78 108.602C84.9655 108.948 85.2268 109.23 85.564 109.449C85.9011 109.66 86.2931 109.765 86.7399 109.765Z" fill="#495366"/>
<path fill-rule="evenodd" clip-rule="evenodd" d="M54.039 44.0021C45.6272 44.4004 40.4902 45.6089 36.8087 48.0558C35.8067 48.7217 34.0207 50.4742 33.4077 51.3928C31.8681 53.7005 31.2105 56.0844 31.1124 59.7138C31.0567 61.7813 31.1313 62.738 31.4769 64.3844C31.9222 66.5055 32.7768 68.5526 33.9683 70.3514C34.7768 71.5722 36.394 73.2234 37.5389 73.997C39.9741 75.6426 42.2742 76.2209 45.4706 75.9911C47.8579 75.8196 49.7241 75.1788 52.2148 73.6756C52.6691 73.4014 53.9175 72.5965 54.989 71.887C56.0605 71.1775 57.3743 70.3795 57.9085 70.1138C58.8578 69.6417 58.8991 69.6299 59.7179 69.597C60.7021 69.5575 61.1991 69.6757 62.2329 70.1953C63.0086 70.5851 62.8757 70.503 65.495 72.2109C69.025 74.5129 70.6092 75.2974 72.7191 75.7887C73.4991 75.9704 76.5694 76.0445 77.6552 75.9078C79.6959 75.6511 81.6523 74.7437 83.5247 73.1852C85.412 71.6145 87.1379 68.9568 88.0203 66.2627C88.6434 64.3606 88.903 62.6003 88.9046 60.2676C88.9061 57.9729 88.6526 56.1999 88.0621 54.374C87.4774 52.5659 86.5912 51.1534 85.1135 49.6743C83.0421 47.6009 80.542 46.3101 76.78 45.3719C72.4039 44.2806 68.1207 43.9345 59.3395 43.9625C56.7063 43.971 54.3211 43.9887 54.039 44.0021ZM64.5546 45.7417C72.3348 46.0019 77.0063 46.815 80.4561 48.5096C82.6948 49.6093 84.4185 51.1411 85.5657 53.0505C87.0823 55.5748 87.5891 60.2352 86.7716 64.1399C85.7266 69.1314 82.1615 73.1982 78.0624 74.0746C77.0682 74.2871 74.1413 74.2891 73.1893 74.0781C71.2945 73.6578 69.7409 72.883 66.4354 70.7101C62.7937 68.316 61.9819 67.9337 60.2863 67.814C58.5526 67.6918 57.348 68.1997 53.8729 70.5183C49.3997 73.5029 47.8269 74.1483 44.7579 74.2589C43.2158 74.3144 42.3529 74.2147 41.2151 73.8495C39.5855 73.3264 38.2824 72.5089 36.9371 71.1656C33.7013 67.9348 32.2854 63.0249 33.0182 57.5757C33.3979 54.7525 34.2589 52.8509 35.9536 51.0926C36.9237 50.086 37.9046 49.3637 39.2043 48.6987C42.4153 47.0557 46.7066 46.1606 52.9703 45.8271C56.2911 45.6504 60.8248 45.6169 64.5546 45.7417Z" fill="#495366"/>
</svg>
