<svg width="281" height="140" viewBox="0 0 281 140" fill="none" xmlns="http://www.w3.org/2000/svg">
<path fill-rule="evenodd" clip-rule="evenodd" d="M57.3681 30.3368C51.8496 30.7126 46.6523 32.1491 41.7828 34.6444C32.2907 39.5083 25.0199 48.1805 21.9271 58.3271C20.9145 61.6491 20.3452 65.0786 20.234 68.5268C20.0808 73.278 20.6588 77.6205 22.0238 81.9714C24.5596 90.0547 29.7162 97.1728 36.7103 102.245C41.8593 105.978 47.8837 108.408 54.2587 109.322C56.3834 109.627 57.3292 109.689 59.8729 109.691C63.3318 109.693 65.3531 109.479 68.6471 108.763C74.6594 107.456 80.5521 104.554 85.3847 100.52C86.1305 99.8974 88.2122 97.9703 88.5206 97.617C88.6272 97.4949 88.9856 97.1029 89.3171 96.7459C90.0868 95.9171 91.0412 94.7637 91.829 93.7104C98.0695 85.3667 100.711 75.0208 99.294 64.4778C97.9572 54.5357 92.7187 45.351 84.7363 38.9534C80.0488 35.1966 74.5184 32.5313 68.7645 31.256C65.5071 30.534 63.1995 30.2891 59.8111 30.3055C58.6375 30.3111 57.5382 30.3252 57.3681 30.3368ZM62.3777 31.4083C68.7723 31.7902 75.0508 33.8093 80.4988 37.2358C88.2286 42.0975 94.1176 49.6983 96.8161 58.2962C98.0049 62.0841 98.5151 65.3026 98.5717 69.3698C98.6125 72.3041 98.4999 73.8807 98.0614 76.5137C96.6426 85.0328 92.3017 92.8964 85.7867 98.7491C77.6125 106.092 66.8975 109.575 55.9147 108.458C49.3724 107.792 43.004 105.399 37.6081 101.578C34.2288 99.1855 30.9805 95.9702 28.5704 92.6325C24.5746 87.0986 22.1628 80.777 21.4642 74.0062C20.566 65.3012 22.5922 56.6411 27.2416 49.3146C31.4209 42.7285 37.6394 37.4452 44.8132 34.3853C48.6519 32.748 53.2385 31.6602 57.3498 31.4121C58.5669 31.3386 61.1781 31.3367 62.3777 31.4083ZM57.6155 35.2438C50.503 35.7129 43.7586 38.3256 38.2171 42.7587C31.0625 48.4822 26.4798 56.6438 25.3651 65.6476C25.1458 67.4182 25.0987 68.422 25.1326 70.5934C25.1729 73.1726 25.3225 74.6092 25.7995 76.9956C27.6469 86.2396 33.3864 94.4872 41.5062 99.5664C48.6072 104.008 57.1994 105.727 65.5591 104.377C71.0592 103.489 76.3184 101.25 80.8152 97.884C84.5077 95.1198 87.7517 91.485 90.0526 87.5338C92.5738 83.204 94.0312 78.717 94.6105 73.5011C94.77 72.0646 94.7697 67.8517 94.61 66.4869C94.0864 62.0112 93.1077 58.5469 91.3266 54.8652C86.9354 45.7878 78.7154 38.9542 69.1032 36.39C66.6155 35.7264 64.6772 35.4066 62.1303 35.2397C61.0649 35.1698 58.7042 35.172 57.6155 35.2438ZM63.089 36.3811C67.5994 36.8238 71.4387 37.9429 75.3632 39.9588C78.5311 41.586 81.2595 43.5791 83.8126 46.131C89.1643 51.48 92.5052 58.2812 93.4477 65.7451C93.8407 68.8576 93.7738 72.5308 93.2705 75.4795C92.1547 82.016 89.4376 87.6709 85.072 92.5424C79.6546 98.5875 72.2206 102.494 64.2641 103.478C62.6671 103.675 61.7085 103.731 59.9348 103.731C58.161 103.731 57.2025 103.675 55.6055 103.478C45.3545 102.211 36.2645 96.2174 30.8167 87.1335C29.3704 84.7218 28.0103 81.4698 27.2875 78.6956C26.5524 75.8733 26.2411 73.6039 26.1847 70.6535C26.1229 67.4259 26.4 64.9188 27.1611 61.8197C29.1789 53.6029 34.3643 46.3445 41.5663 41.6555C46.453 38.4738 51.8169 36.7113 57.8938 36.2903C58.9664 36.2159 61.9353 36.2678 63.089 36.3811ZM63.8729 41.1107C62.7742 41.2488 61.6951 41.5331 59.8624 42.1674C58.4985 42.6393 57.6268 42.8433 56.9874 42.84C56.5347 42.8376 56.2277 42.7786 55.117 42.4802C53.3166 41.9964 51.9129 42.082 50.2484 42.7771C49.1482 43.2366 47.9197 44.0821 47.4621 44.6947L47.2298 45.0057H46.2974C45.2315 45.0057 44.8674 44.9354 44.1695 44.5948C43.7416 44.3859 43.4038 44.1029 42.9062 43.5363C42.6822 43.2812 42.3777 43.2619 42.151 43.4884C41.9416 43.6978 41.9501 43.9924 42.1745 44.301C42.4059 44.6193 43.0587 45.2187 43.3634 45.3926C43.497 45.4688 43.6065 45.5457 43.6067 45.5635C43.607 45.5812 43.5039 45.6508 43.3777 45.718C43.0966 45.8677 42.4132 46.4955 42.1747 46.8231C41.862 47.2526 41.9876 47.6929 42.4436 47.7659C42.6636 47.8011 42.6892 47.7844 43.1857 47.2813C44.0715 46.3839 44.6775 46.1385 46.1587 46.0774L47.1054 46.0384L47.6292 46.5574C48.0335 46.9581 48.3081 47.1631 48.8333 47.4561C49.6263 47.8985 50.418 48.2237 51.1545 48.4096C51.8941 48.5963 53.2976 48.6399 54.2193 48.5048C55.5817 48.3051 56.3463 48.0543 58.8525 46.9853C61.3346 45.9265 62.2338 45.6792 63.6147 45.6754C64.8157 45.672 65.8123 45.9448 66.6539 46.507C67.8926 47.3345 68.5296 48.4516 68.5296 49.7965C68.5296 51.5708 67.5039 52.8758 65.2065 54.0245C64.2381 54.5087 62.4365 55.1924 62.3915 55.0928C62.3811 55.0697 62.3876 54.392 62.4061 53.5867L62.4396 52.1225L62.6251 51.9268C62.7272 51.8191 62.9544 51.6669 63.1301 51.5885C63.3058 51.5101 63.4798 51.3897 63.5166 51.3207C63.6995 50.9793 63.4771 50.5711 62.9648 50.3079C62.5048 50.0716 62.3738 49.9095 62.3276 49.5196C62.2236 48.6422 61.3778 48.0188 60.1697 47.9292C59.0488 47.846 58.0559 48.2877 57.6832 49.0353C57.595 49.2123 57.5228 49.4592 57.5228 49.5839C57.5228 49.8835 57.341 50.1048 56.9609 50.2682C56.1595 50.6128 56.0488 51.3936 56.7706 51.6098C56.9092 51.6513 57.0979 51.776 57.2029 51.8956C57.4378 52.163 57.4462 52.2425 57.4897 54.6206L57.5237 56.4775L56.2399 56.8391C52.5964 57.8656 50.6595 58.7312 49.1501 60.0074C48.2815 60.742 47.4896 61.9705 47.225 62.9942C47.0847 63.5372 47.0334 64.9071 47.1306 65.5154C47.4676 67.6238 48.9137 69.2343 51.5255 70.4097C52.7174 70.9462 54.7322 71.5581 56.7254 71.9892L57.8143 72.2248L57.8533 73.343C57.8748 73.958 57.9082 75.5182 57.9277 76.8102C57.9471 78.1021 57.9747 79.2175 57.9891 79.2889C58.0128 79.407 57.9475 79.4366 57.2587 79.619C53.7092 80.559 51.6144 81.8877 50.7793 83.7285C50.0928 85.2417 50.1882 87.0799 51.019 88.347C51.9042 89.6969 53.5639 90.6607 56.378 91.4589C56.8885 91.6037 57.5177 91.7717 57.7761 91.8323L58.246 91.9424L58.2862 93.0924C58.3083 93.7249 58.3265 94.6906 58.3266 95.2386L58.3268 96.2348L57.6928 96.434C55.3366 97.1745 54.4625 98.3132 54.9927 99.9511C55.1161 100.332 55.3517 100.756 55.4777 100.824C55.8203 101.007 56.2856 100.77 56.2861 100.411C56.2864 100.154 56.4964 99.8574 56.8266 99.648C57.1514 99.4421 58.2368 99.0709 58.3674 99.121C58.43 99.145 58.4508 99.3247 58.4518 99.8503C58.4534 100.683 58.5385 100.922 58.9666 101.299C59.607 101.862 60.5006 101.794 61.0624 101.137C61.353 100.798 61.4183 100.534 61.4237 99.675C61.4262 99.271 61.4471 98.8184 61.4701 98.6693L61.5119 98.3982L62.4396 98.1651C63.5201 97.8937 64.055 97.7139 64.697 97.4061C66.0039 96.7797 66.7692 95.9998 67.1148 94.9426C67.3315 94.2793 67.3202 93.3234 67.0874 92.6458C66.8085 91.8341 66.3317 91.1938 65.5628 90.5987C64.842 90.0408 63.5387 89.4101 62.2872 89.0136L61.6518 88.8122L61.6907 86.7983C61.7121 85.6907 61.7464 84.4031 61.7667 83.9369L61.8039 83.0893L62.1217 83C62.2965 82.9509 62.9774 82.7685 63.6348 82.5947C65.6414 82.0641 66.9594 81.6007 68.315 80.9493C69.3351 80.4592 70.0817 79.9401 70.7976 79.2232C71.3588 78.6613 71.4576 78.5273 71.7377 77.9499C72.1393 77.1223 72.2736 76.4607 72.2202 75.5738C72.0667 73.0234 70.3983 71.0949 67.1399 69.7014C66.2119 69.3044 64.5112 68.7503 63.2436 68.4319C62.6653 68.2866 62.1716 68.1501 62.1464 68.1285C62.0851 68.0758 62.2637 60.3934 62.3276 60.3345C62.3552 60.3091 62.6421 60.212 62.9653 60.1186C65.3886 59.4184 68.1276 58.2906 69.7939 57.3068C72.2093 55.8809 73.7854 53.9091 74.29 51.6819C74.4442 51.0013 74.5057 49.6005 74.414 48.8594C73.9451 45.0711 71.0504 42.0881 67.0097 41.2294C66.321 41.083 64.6088 41.0183 63.8729 41.1107ZM66.9544 42.2788C68.5619 42.6302 69.8709 43.3243 71.0101 44.4292C73.635 46.9749 74.1736 50.8432 72.2899 53.6188C70.7335 55.912 67.8092 57.5481 62.3468 59.1819C59.8951 59.9152 60.0254 59.8794 58.7906 60.1583C54.5542 61.1152 51.7984 62.4044 50.8376 63.8788C50.5835 64.2687 50.3804 64.8309 50.3239 65.3005C50.2768 65.6914 50.3959 65.9766 50.6502 66.0819C51.033 66.2404 51.3999 65.9269 51.3999 65.4414C51.3999 65.3219 51.4594 65.0633 51.5322 64.8665C51.6391 64.5771 51.7696 64.4042 52.216 63.9611C52.5194 63.6599 52.782 63.4278 52.7995 63.4453C52.817 63.4628 52.7822 63.6119 52.7222 63.7765C52.645 63.9882 52.612 64.2667 52.6095 64.7264C52.6061 65.3392 52.6176 65.4004 52.8077 65.7863C53.3185 66.8235 54.6565 67.5722 56.9352 68.0962C57.3434 68.1901 57.6948 68.2837 57.716 68.3041C57.7373 68.3246 57.7734 68.9643 57.7962 69.7255L57.8378 71.1098L57.5419 71.0692C57.3791 71.0469 56.5775 70.8637 55.7606 70.6621C52.5211 69.8625 50.6615 69.0158 49.4518 67.7898C48.8833 67.2136 48.5592 66.696 48.3263 65.9923C48.18 65.5501 48.1622 65.3998 48.1578 64.5706C48.1522 63.4871 48.2292 63.1189 48.6289 62.3209C48.9187 61.7423 49.5927 60.9755 50.237 60.4914C50.7312 60.1201 51.6791 59.5883 52.4629 59.2426C53.2615 58.8905 55.6894 58.0859 56.9971 57.7401C62.0694 56.3988 63.2741 56.0357 64.7898 55.3914C66.2921 54.7528 67.2341 54.159 68.0709 53.323C69.1229 52.2719 69.5829 51.1967 69.5829 49.7892C69.5829 49.0521 69.4518 48.4581 69.1417 47.7907C68.1273 45.6068 65.6604 44.3507 62.9295 44.6275C61.5787 44.7643 60.6572 45.0533 58.1721 46.1196C55.7983 47.1381 54.6667 47.4584 53.2115 47.5239C52.3068 47.5647 51.7451 47.4858 50.8445 47.1915C49.6545 46.8026 48.1839 45.898 48.1839 45.5548C48.1839 45.3027 49.1068 44.559 50.0474 44.0532C51.8116 43.1045 53.1469 43.0025 55.389 43.6452C56.5195 43.9692 57.5426 43.9673 58.7425 43.6389C58.9882 43.5716 59.8927 43.2835 60.7525 42.9986C62.2837 42.4913 63.1456 42.2687 63.9948 42.1615C64.6825 42.0746 66.3169 42.1394 66.9544 42.2788ZM51.7855 43.8666C51.1537 44.005 50.9724 44.1453 50.969 44.4985C50.9666 44.741 51.1989 45.0062 51.4126 45.0049C51.6282 45.0037 52.6658 44.7804 52.8071 44.7048C53.069 44.5647 53.0912 44.0911 52.845 43.8975C52.6548 43.748 52.3658 43.7396 51.7855 43.8666ZM38.9378 48.7117C38.5663 48.8728 36.4653 51.3172 35.4019 52.8255C29.9652 60.5367 28.5316 70.5183 31.5575 79.5919C32.9019 83.6231 35.3509 87.6485 38.2803 90.6416C38.8513 91.225 38.956 91.3061 39.1381 91.3061C39.4248 91.3061 39.649 91.075 39.649 90.7795C39.649 90.5875 39.5867 90.4905 39.2002 90.0813C38.3013 89.1299 38.1634 88.9749 37.5492 88.2252C32.2576 81.7675 30.0695 73.3825 31.4894 65.0033C32.4188 59.5188 35.0027 54.3907 38.9787 50.1396C39.5682 49.5093 39.6467 49.3996 39.6478 49.2045C39.6498 48.8506 39.2528 48.5751 38.9378 48.7117ZM80.5916 48.6965C80.3689 48.7779 80.2205 48.9853 80.2205 49.2152C80.2205 49.4184 80.2743 49.5024 80.6588 49.8998C84.7945 54.1749 87.5147 59.5722 88.4426 65.3433C88.7067 66.9858 88.7769 67.9551 88.7781 69.9795C88.7796 72.2926 88.6423 73.7925 88.2555 75.686C87.1338 81.1789 84.6032 85.9823 80.6734 90.0781C80.2793 90.4888 80.2205 90.5794 80.2205 90.7764C80.2205 91.082 80.4426 91.3061 80.7457 91.3061C80.9451 91.3061 81.025 91.2459 81.5462 90.7034C85.9631 86.1057 88.7902 80.2415 89.615 73.9666C89.9882 71.1271 89.9462 68.0059 89.4975 65.2381C88.5298 59.2681 85.9636 54.0446 81.778 49.5245C81.0542 48.7429 80.8516 48.6016 80.5916 48.6965ZM60.5446 49.0578C60.9334 49.1732 61.2103 49.4156 61.2649 49.6883L61.3052 49.8892H59.9397H58.5742V49.7357C58.5742 49.5009 58.8723 49.2152 59.255 49.0832C59.6709 48.9397 60.117 48.9309 60.5446 49.0578ZM61.2885 51.0007C61.5738 51.0334 61.8188 51.0717 61.8329 51.0858C61.8469 51.0998 61.7731 51.2456 61.6689 51.4099C61.3957 51.8405 61.3589 52.0353 61.3495 53.1036C61.3448 53.6306 61.3238 54.3806 61.3027 54.7704L61.2645 55.4789L60.8934 55.5923C60.2378 55.7927 58.6306 56.2097 58.6067 56.1857C58.5939 56.173 58.5658 55.2866 58.5442 54.2158C58.5225 53.1451 58.4756 52.1356 58.4398 51.9724C58.404 51.8092 58.2813 51.5399 58.1671 51.3739L57.9595 51.0721L58.3132 51.0332C58.5077 51.0118 58.7087 50.9853 58.7597 50.9743C58.9796 50.9271 60.8146 50.9462 61.2885 51.0007ZM133.842 53.4546C132.468 53.6767 131.432 54.1856 130.595 55.0493C129.622 56.0534 129.221 57.1543 129.279 58.6668C129.304 59.3247 129.338 59.5267 129.506 60.0237C130.084 61.7315 131.371 62.7856 133.327 63.1528C133.743 63.2309 134.093 63.2481 134.8 63.2249C135.852 63.1905 136.43 63.0666 137.166 62.7181L137.614 62.5058V61.8537C137.614 61.495 137.592 61.2016 137.564 61.2016C137.537 61.2016 137.314 61.3 137.07 61.4204C135.495 62.1959 133.476 62.0815 132.233 61.1464C131.301 60.4441 130.811 59.4172 130.811 58.1619C130.811 56.5417 131.782 55.2845 133.361 54.8599C134.431 54.5723 136.142 54.7639 137.138 55.2829C137.349 55.3928 137.542 55.4922 137.568 55.5037C137.652 55.5421 137.622 54.0523 137.537 53.9838C137.38 53.8576 136.577 53.6096 136.011 53.5126C135.48 53.4217 134.249 53.3887 133.842 53.4546ZM178.084 53.504C177.478 53.6141 177.251 53.6933 176.621 54.0156C174.943 54.8739 173.946 56.6991 174.063 58.698C174.107 59.4555 174.221 59.9086 174.53 60.5525C175.014 61.5644 175.679 62.2355 176.671 62.7144C177.54 63.1345 177.92 63.2109 179.114 63.2066C180.045 63.2033 180.183 63.1881 180.688 63.0332C182.074 62.6089 183.089 61.7686 183.683 60.5525C184.069 59.7633 184.154 59.343 184.154 58.2344C184.154 57.4028 184.135 57.215 184.009 56.8126C183.346 54.6896 181.512 53.402 179.175 53.4191C178.818 53.4218 178.327 53.46 178.084 53.504ZM234.704 53.5052C232.585 53.9074 231.048 55.2938 230.562 57.2419C230.451 57.6873 230.436 57.8913 230.46 58.6327C230.485 59.3679 230.515 59.5777 230.657 59.9962C230.923 60.7762 231.212 61.2377 231.801 61.8223C232.238 62.2562 232.437 62.4018 232.92 62.6399C233.861 63.1038 234.4 63.211 235.765 63.2066C237.053 63.2024 237.506 63.1166 238.347 62.7181L238.796 62.5058V61.8537C238.796 61.4462 238.772 61.2016 238.732 61.2016C238.697 61.2016 238.523 61.2751 238.345 61.365C236.494 62.3031 234.259 62.0682 233.013 60.8045C232.339 60.1213 231.98 59.2201 231.976 58.2035C231.967 55.8828 233.832 54.449 236.446 54.7682C237.243 54.8657 237.69 54.9872 238.239 55.2563C238.494 55.3813 238.724 55.4928 238.749 55.5042C238.775 55.5155 238.796 55.1892 238.796 54.7791V54.0334L238.539 53.9027C238.398 53.8308 238.016 53.7026 237.689 53.6179C236.93 53.421 235.444 53.3649 234.704 53.5052ZM113.556 58.3291V63.1218L114.283 63.1044L115.009 63.087L115.026 61.0316L115.042 58.9762H116.835H118.627V58.3271V57.678H116.834H115.04V56.2872V54.8963H116.834H118.627V54.2163V53.5364H116.092H113.556V58.3291ZM122.26 55.7744C119.452 61.2876 118.566 63.0396 118.566 63.0792C118.566 63.1025 118.907 63.1139 119.323 63.1043L120.081 63.087L120.761 61.7425L121.441 60.3981L123.731 60.398L126.02 60.398L126.698 61.7579L127.376 63.1179H128.166C128.6 63.1179 128.956 63.1037 128.956 63.0864C128.956 63.0579 127.031 59.2455 124.945 55.1436L124.143 53.5673L123.773 53.549L123.403 53.5308L122.26 55.7744ZM139.099 53.6588C139.099 53.7261 139.183 55.0749 139.286 56.6562C139.445 59.0906 139.497 59.6238 139.625 60.1346C140.052 61.8302 141.013 62.839 142.502 63.1552C143.202 63.3038 144.413 63.2465 145.072 63.0335C146.479 62.5785 147.373 61.4313 147.692 59.6726C147.77 59.2442 148.135 53.6586 148.09 53.5858C148.048 53.5188 146.722 53.5225 146.68 53.5897C146.662 53.619 146.577 54.7665 146.491 56.1396C146.282 59.4898 146.234 59.8155 145.853 60.5555C145.389 61.4564 144.378 61.9189 143.229 61.7559C142.13 61.6002 141.419 60.9235 141.108 59.7383C140.996 59.3093 140.934 58.5978 140.766 55.7664C140.696 54.596 140.625 53.6154 140.607 53.5874C140.59 53.5593 140.243 53.5364 139.837 53.5364C139.142 53.5364 139.099 53.5436 139.099 53.6588ZM150.198 53.6136C150.181 53.6562 150.175 55.805 150.184 58.3889L150.2 63.087H152.736H155.272V62.4688V61.8506L153.478 61.8197L151.684 61.7888L151.669 57.6626L151.653 53.5364H150.94C150.427 53.5364 150.219 53.558 150.198 53.6136ZM154.746 54.2163V54.8963H156.044H157.343L157.358 58.9916L157.374 63.087L158.101 63.1044L158.828 63.1218V59.0103V54.8988L160.142 54.8821L161.456 54.8654L161.474 54.2009L161.491 53.5364H158.119H154.746V54.2163ZM162.044 53.5678C162.044 53.5851 162.809 54.8885 163.745 56.4643L165.445 59.3293V61.2236V63.1179H166.157H166.868V61.2461V59.3742L167.321 58.6034C167.571 58.1794 168.336 56.8811 169.022 55.7182C169.708 54.5553 170.269 53.5886 170.269 53.5701C170.269 53.5515 169.915 53.5364 169.481 53.5364H168.692L167.97 54.7572C167.573 55.4287 167.022 56.3623 166.745 56.8318C166.468 57.3014 166.216 57.6769 166.186 57.6664C166.131 57.6471 165.65 56.8536 164.383 54.6954L163.703 53.5364H162.874C162.417 53.5364 162.044 53.5505 162.044 53.5678ZM185.917 58.3271V63.1179H186.659H187.401V61.047V58.9762H189.195H190.988V58.3271V57.678H189.195H187.401V56.2881V54.8982L189.179 54.8818L190.957 54.8654L190.975 54.2009L190.992 53.5364H188.455H185.917V58.3271ZM197.154 53.5798C197.138 53.6069 196.785 54.8948 196.37 56.4417C195.426 59.9639 194.643 62.8682 194.6 63.0097C194.57 63.1087 194.633 63.1179 195.343 63.1179C196.097 63.1179 196.12 63.1139 196.152 62.9788C196.17 62.9023 196.39 61.9913 196.642 60.9543C196.893 59.9173 197.231 58.5183 197.393 57.8453C197.554 57.1723 197.71 56.6444 197.737 56.6722C197.765 56.7001 198.397 58.0434 199.141 59.6576C199.885 61.2718 200.554 62.7107 200.628 62.8552L200.762 63.1179H201.122H201.482L201.856 62.2988C202.062 61.8483 202.739 60.359 203.36 58.989C203.982 57.6192 204.51 56.5204 204.535 56.5473C204.559 56.5743 204.848 57.7368 205.176 59.1307C205.504 60.5247 205.849 61.9851 205.943 62.3761L206.112 63.087L206.9 63.1043C207.507 63.1176 207.687 63.1035 207.687 63.0425C207.687 62.9989 207.509 62.2957 207.293 61.4797C206.673 59.1458 205.67 55.3823 205.415 54.4327L205.182 53.5673L204.808 53.5492L204.434 53.5311L204.039 54.3837C203.635 55.2572 202.38 57.9442 201.64 59.5175C201.413 60.0022 201.202 60.3908 201.173 60.381C201.143 60.3712 200.731 59.5434 200.257 58.5416C198.54 54.9173 198.191 54.1826 198.039 53.8776L197.884 53.5673L197.534 53.5489C197.341 53.5388 197.17 53.5527 197.154 53.5798ZM209.261 53.6136C209.245 53.6562 209.239 55.805 209.248 58.3889L209.264 63.087L212.093 63.103L214.923 63.1191V62.4702V61.8214L212.835 61.8051L210.748 61.7888L210.732 60.3825L210.715 58.9762H212.602H214.49V58.3271V57.678H212.604H210.717V56.2881V54.8981L212.588 54.8818L214.459 54.8654L214.477 54.2009L214.494 53.5364H211.892C209.868 53.5364 209.284 53.5535 209.261 53.6136ZM216.964 58.3267V63.1306L218.958 63.1005C220.688 63.0744 221.024 63.0535 221.49 62.9432C222.821 62.628 223.888 61.9898 224.555 61.11C225.819 59.4429 225.814 57.0434 224.542 55.4377C224.049 54.8158 223.236 54.256 222.386 53.9534C221.456 53.6225 221.172 53.5891 218.989 53.5547L216.964 53.5228V58.3267ZM227.23 58.3271V63.1218L227.957 63.1044L228.684 63.087V58.3271V53.5673L227.957 53.5498L227.23 53.5325V58.3271ZM240.494 53.6136C240.478 53.6562 240.472 55.805 240.48 58.3889L240.496 63.087L241.223 63.1044L241.95 63.1218V58.3291V53.5364H241.237C240.723 53.5364 240.515 53.558 240.494 53.6136ZM244.282 53.5749C244.258 53.599 244.238 55.7561 244.238 58.3684V63.1179H244.98H245.723V59.8107C245.723 57.9918 245.746 56.5035 245.775 56.5035C245.803 56.5035 246.436 57.1501 247.182 57.9403C247.927 58.7305 249.33 60.2118 250.299 61.232L252.062 63.087L252.448 63.1053L252.835 63.1235V58.328V53.5325L252.108 53.5498L251.382 53.5673L251.351 56.8965L251.32 60.2257L249.368 58.1637C248.294 57.0296 246.875 55.5315 246.214 54.8345L245.011 53.5673L244.669 53.5492C244.48 53.5393 244.306 53.5508 244.282 53.5749ZM255.123 58.3264V63.1179H257.968H260.813V62.4688V61.8197H258.71H256.608V60.3989V58.978L258.478 58.9617L260.349 58.9453V58.3271V57.709L258.478 57.6926L256.608 57.6763V56.2872V54.8981L258.478 54.8818L260.349 54.8654V54.2163V53.5673L257.736 53.5511L255.123 53.535V58.3264ZM179.809 54.7396C181.121 55.0175 182.192 56.0819 182.547 57.4617C182.674 57.9541 182.674 59.0201 182.547 59.4964C182.137 61.0348 180.859 62.0033 179.237 62.0033C178.238 62.0033 177.414 61.6687 176.718 60.98C175.263 59.5413 175.203 56.9878 176.591 55.6189C176.805 55.4078 177.124 55.1581 177.301 55.0639C178.008 54.6866 178.971 54.5621 179.809 54.7396ZM221.077 54.9534C222.414 55.3004 223.363 56.1211 223.774 57.2874C223.935 57.7452 223.997 58.7469 223.894 59.2397C223.647 60.4252 222.71 61.3329 221.349 61.7051C220.988 61.804 220.627 61.8374 219.639 61.8637L218.386 61.8971V58.3761C218.386 56.4396 218.407 54.8333 218.433 54.8065C218.458 54.7798 218.952 54.773 219.53 54.7915C220.307 54.8163 220.711 54.8586 221.077 54.9534ZM124.534 57.3685C124.959 58.2182 125.307 58.9414 125.307 58.9757C125.307 59.0159 124.748 59.038 123.73 59.038C122.712 59.038 122.153 59.0159 122.153 58.9757C122.153 58.8953 123.689 55.8236 123.73 55.8236C123.747 55.8236 124.108 56.5188 124.534 57.3685ZM61.1431 62.8861C60.9804 71.4605 60.7982 78.7207 60.7449 78.7536C60.6452 78.8152 59.132 79.1502 59.0997 79.1178C59.0833 79.1015 59.0425 77.8384 59.0089 76.3109C58.6938 61.9451 58.6849 61.437 58.7464 61.3756C58.7786 61.3434 59.1496 61.2222 59.5709 61.1062C59.9921 60.9902 60.5038 60.8416 60.7079 60.7759C60.912 60.7103 61.1029 60.6539 61.1323 60.6509C61.1621 60.6477 61.1668 61.6373 61.1431 62.8861ZM57.6615 63.6175C57.6867 64.6517 57.7006 65.8761 57.6924 66.3384L57.6774 67.1789L56.9661 66.9991C54.7003 66.4264 53.7793 65.8388 53.6481 64.8825C53.5252 63.9857 54.1861 63.1652 55.5746 62.4912C56.2652 62.156 57.4585 61.6902 57.5537 61.7187C57.5918 61.73 57.6332 62.4579 57.6615 63.6175ZM63.1787 69.515C66.3688 70.3418 68.5174 71.3579 69.7684 72.6315C70.5368 73.4137 70.9192 74.126 71.1098 75.1301C71.4605 76.9781 70.4934 78.5915 68.3305 79.7663C66.7841 80.6062 64.2043 81.4405 60.646 82.2512C56.9933 83.0836 54.5731 84.1027 53.3851 85.3087C52.8646 85.8371 52.6678 86.2618 52.6678 86.8562C52.6678 87.254 52.6963 87.3786 52.8661 87.7238C53.1209 88.2416 53.3146 88.4254 53.6052 88.4254C53.7716 88.4254 53.8651 88.3824 53.9746 88.2551C54.1699 88.0281 54.159 87.8093 53.9356 87.4735C53.6869 87.0996 53.6454 86.8468 53.7828 86.5423C53.8432 86.4084 53.9097 86.299 53.9305 86.299C53.9514 86.299 54.0163 86.4336 54.0747 86.5981C54.3766 87.4474 55.274 88.0621 57.028 88.6211C57.5212 88.7782 57.9874 88.9315 58.0639 88.9615C58.1976 89.0141 58.2031 89.0459 58.2039 89.7748C58.2044 90.192 58.2216 90.596 58.242 90.6725C58.2715 90.7824 58.2537 90.8115 58.1571 90.8115C57.9506 90.8115 55.6533 90.1518 55.0532 89.9202C53.2874 89.2385 52.2106 88.4198 51.7135 87.3807C51.4517 86.8336 51.379 86.4131 51.413 85.6416C51.4488 84.8269 51.6198 84.2867 52.0431 83.6502C53.1035 82.0559 55.416 81.0413 60.5842 79.9027C63.7312 79.2094 65.5234 78.4715 66.2686 77.5627C66.3888 77.416 66.5635 77.1311 66.6569 76.9295C66.8057 76.6079 66.8259 76.4908 66.8222 75.9757C66.8194 75.5889 66.783 75.2954 66.7155 75.116C66.6591 74.9663 66.6235 74.8332 66.6363 74.8203C66.6778 74.7788 67.2655 75.2731 67.4994 75.5462C67.8025 75.9001 67.9879 76.4074 67.9723 76.8408C67.9544 77.3399 67.9629 77.3854 68.0986 77.5211C68.2215 77.6439 68.5382 77.6857 68.7452 77.6063C69.0424 77.4923 69.1245 76.6137 68.9041 75.9049C68.6155 74.9768 67.7087 74.0836 66.3735 73.4124C65.4686 72.9575 63.8153 72.4116 62.6097 72.1696L62.0376 72.0547V70.6874C62.0376 69.9354 62.0564 69.3012 62.0795 69.2782C62.1025 69.2552 62.1652 69.2487 62.2187 69.2638C62.2721 69.279 62.7042 69.392 63.1787 69.515ZM115.782 69.392C114.344 69.6815 113.254 70.687 112.935 72.0194C112.833 72.4461 112.833 73.2491 112.936 73.6911C113.154 74.6336 113.784 75.437 114.631 75.8541C115.247 76.1578 115.817 76.2826 116.586 76.2826C117.293 76.2826 117.877 76.1678 118.361 75.9332C118.719 75.7597 118.72 75.7586 118.739 75.4581C118.769 74.9936 118.748 74.9791 118.339 75.178C117.38 75.6436 116.182 75.6622 115.254 75.226C114.915 75.0666 114.342 74.5583 114.138 74.2367C113.375 73.0278 113.673 71.363 114.793 70.5807C115.691 69.9541 117.295 69.8935 118.384 70.4449C118.543 70.5259 118.691 70.5748 118.713 70.5536C118.766 70.4999 118.759 69.8404 118.704 69.7535C118.641 69.6548 117.989 69.4427 117.51 69.365C116.988 69.2803 116.283 69.2913 115.782 69.392ZM144.677 69.577C144.458 69.7616 144.4 70.0024 144.511 70.2681C144.608 70.5016 144.767 70.5976 145.054 70.5976C145.322 70.5976 145.57 70.4067 145.625 70.1601C145.747 69.6032 145.111 69.2119 144.677 69.577ZM158.642 69.4552C158.642 69.6239 158.897 73.2997 158.925 73.5339C159.141 75.3488 160.119 76.2847 161.798 76.2847C163.252 76.2847 164.247 75.5108 164.607 74.1011C164.657 73.9031 164.727 73.3328 164.762 72.8339C164.863 71.372 164.951 69.9013 164.951 69.6533V69.4231H164.554H164.156L164.121 69.8095C164.101 70.022 164.042 70.8913 163.991 71.7412C163.939 72.5912 163.867 73.4536 163.832 73.6575C163.643 74.7309 163.008 75.3686 162.037 75.4592C161.315 75.5267 160.606 75.2255 160.242 74.6959C159.839 74.111 159.762 73.6658 159.633 71.1849C159.594 70.4369 159.549 69.7346 159.532 69.624L159.502 69.4231H159.072C158.836 69.4231 158.642 69.4375 158.642 69.4552ZM172.07 69.5094C171.53 69.8084 171.748 70.5976 172.37 70.5976C172.73 70.5976 172.929 70.3915 172.929 70.0187C172.929 69.787 172.899 69.7178 172.739 69.5832C172.53 69.408 172.299 69.3825 172.07 69.5094ZM192.556 69.4845C192.195 69.6304 192.115 70.1258 192.406 70.417C192.794 70.8051 193.4 70.5678 193.4 70.0275C193.4 69.5837 192.98 69.3135 192.556 69.4845ZM195.596 69.9786C195.494 70.0061 195.334 70.0458 195.24 70.0669L195.07 70.1055V70.9079V71.7103H194.582C194.038 71.7103 194.019 71.7254 194.019 72.1481V72.3903H194.544H195.07L195.071 73.6112C195.073 75.3747 195.209 75.8486 195.793 76.1357C196.129 76.3005 197.034 76.3229 197.451 76.1767C197.753 76.0711 197.761 76.0617 197.78 75.7986C197.809 75.3885 197.781 75.3537 197.502 75.4534C197.179 75.5683 196.591 75.5651 196.363 75.4472C196.261 75.3946 196.123 75.2624 196.057 75.1536C195.948 74.9741 195.936 74.8361 195.936 73.673L195.936 72.3903H196.801C197.768 72.3903 197.666 72.4411 197.755 71.9112L197.788 71.7103H196.862H195.936V70.814C195.936 69.8505 195.949 69.8837 195.596 69.9786ZM121.301 71.6825C120.845 71.8053 120.631 71.9274 120.262 72.2761C120.059 72.4683 119.877 72.7199 119.765 72.9638C119.609 73.3041 119.589 73.4197 119.587 73.9666C119.586 74.5162 119.605 74.6267 119.761 74.9625C119.979 75.4352 120.402 75.8555 120.885 76.0807C121.222 76.2379 121.319 76.2536 121.936 76.2521C122.497 76.2506 122.679 76.2255 122.969 76.1097C123.434 75.9243 123.875 75.5186 124.137 75.0368C124.343 74.6569 124.348 74.6279 124.348 73.9357C124.348 73.296 124.332 73.1899 124.184 72.8757C123.713 71.8704 122.487 71.3633 121.301 71.6825ZM127.62 71.6996C127.27 71.8206 126.862 72.1176 126.664 72.3953C126.593 72.4953 126.509 72.5614 126.477 72.5419C126.446 72.5225 126.42 72.3275 126.42 72.1085V71.7103H126.018H125.616V73.9666V76.2229H126.018H126.42V74.9649C126.42 73.7385 126.424 73.6995 126.576 73.4134C126.951 72.709 127.412 72.3285 127.89 72.3285C128.214 72.3285 128.343 72.3905 128.499 72.6196C128.604 72.7754 128.619 72.9571 128.647 74.4921L128.677 76.192H129.079H129.481L129.512 74.8613L129.543 73.5306L129.749 73.211C129.98 72.8516 130.369 72.4762 130.602 72.3875C131.004 72.2348 131.433 72.3733 131.631 72.7197C131.685 72.8135 131.717 73.3563 131.739 74.523L131.77 76.192H132.172H132.574L132.572 74.4921C132.57 72.5357 132.543 72.3744 132.149 71.9803C131.527 71.3582 130.54 71.5102 129.798 72.3424L129.462 72.7197L129.38 72.4483C129.271 72.0823 128.928 71.749 128.567 71.6583C128.185 71.5622 127.994 71.5705 127.62 71.6996ZM135.344 71.6728C134.684 71.888 134.258 72.2737 133.941 72.9438C133.764 73.3165 133.749 73.3998 133.749 73.9975C133.749 74.5823 133.767 74.6848 133.927 75.032C134.135 75.4824 134.573 75.9224 135.003 76.1146C135.582 76.3729 136.73 76.3221 137.282 76.0135C137.501 75.8911 137.523 75.8549 137.54 75.5877C137.563 75.2439 137.525 75.2311 137.081 75.4325C136.847 75.539 136.662 75.5697 136.254 75.5707C135.787 75.5717 135.691 75.5517 135.397 75.3898C135.054 75.2009 134.785 74.8766 134.656 74.4983C134.616 74.3827 134.584 74.2784 134.584 74.2665C134.584 74.2546 135.367 74.2448 136.323 74.2448H138.063L138.033 73.7348C137.957 72.4501 137.227 71.6557 136.077 71.6075C135.79 71.5954 135.502 71.621 135.344 71.6728ZM141.165 71.6996C140.815 71.8205 140.406 72.1176 140.209 72.3946C140.138 72.4942 140.054 72.5758 140.022 72.5758C139.99 72.5758 139.965 72.381 139.965 72.143V71.7103H139.563H139.161V73.9666V76.2229H139.563H139.965V74.9478V73.6726L140.15 73.356C140.544 72.6812 140.984 72.3285 141.431 72.3285C141.758 72.3285 141.887 72.3899 142.043 72.6196C142.149 72.7754 142.163 72.9571 142.191 74.4921L142.222 76.192H142.624H143.026V74.3993C143.026 72.6345 143.024 72.602 142.878 72.3098C142.566 71.6811 141.902 71.4448 141.165 71.6996ZM153.164 71.7089C152.541 71.9129 152.148 72.3913 152.148 72.9467C152.148 73.5436 152.499 73.9013 153.515 74.3403C154.256 74.6601 154.454 74.8332 154.424 75.1317C154.392 75.4477 154.142 75.5738 153.547 75.5738C153.087 75.5738 152.994 75.5523 152.593 75.3533L152.148 75.1328V75.5577V75.9826L152.442 76.1182C152.691 76.2329 152.845 76.2538 153.447 76.2538C154.059 76.2538 154.202 76.2339 154.468 76.1114C155.018 75.858 155.303 75.4851 155.303 75.0175C155.303 74.4574 154.974 74.11 154.004 73.6448C153.181 73.2501 153.014 73.1198 153.014 72.87C153.014 72.5967 153.111 72.4728 153.413 72.3574C153.738 72.2332 154.22 72.2706 154.715 72.4584C154.885 72.5229 155.046 72.5757 155.074 72.5757C155.101 72.5758 155.115 72.4019 155.104 72.1894L155.086 71.8031L154.839 71.7196C154.405 71.5735 153.593 71.5682 153.164 71.7089ZM168.558 71.6757C168.182 71.793 167.9 71.9847 167.582 72.3386L167.301 72.6509V72.1806V71.7103H166.899H166.497V73.9696V76.2288L166.883 76.2104L167.27 76.192L167.301 74.863C167.335 73.4131 167.314 73.4994 167.759 72.9219C168.173 72.3838 168.818 72.1728 169.179 72.457C169.485 72.6974 169.495 72.7539 169.527 74.523L169.558 76.192H169.96H170.362L170.362 74.4921C170.361 72.5374 170.334 72.3763 169.938 71.9812C169.562 71.6054 169.106 71.5044 168.558 71.6757ZM180.493 71.7108C179.976 71.8801 179.496 72.3198 179.223 72.8729C179.03 73.2653 179.021 73.3166 179.021 73.9962C179.021 74.606 179.041 74.7522 179.161 75.0126C179.39 75.5076 179.691 75.8243 180.15 76.0498C180.546 76.2449 180.596 76.2538 181.277 76.2536C181.896 76.2535 182.038 76.2332 182.36 76.099L182.732 75.9446L182.75 75.5952L182.768 75.2459L182.405 75.3927C181.68 75.6854 180.971 75.6486 180.479 75.2924C180.227 75.1096 179.957 74.7121 179.884 74.4148L179.842 74.2448H181.581H183.319V73.9178C183.319 73.2348 182.989 72.4116 182.581 72.0751C182.022 71.6148 181.216 71.4742 180.493 71.7108ZM189.001 71.7006C188.343 71.9187 187.958 72.375 187.958 72.9373C187.958 73.5361 188.313 73.9088 189.269 74.3121C190.066 74.6481 190.259 74.805 190.234 75.0969C190.203 75.4506 189.976 75.5738 189.356 75.5738C188.896 75.5738 188.803 75.5523 188.402 75.3533L187.958 75.1328V75.5577V75.9826L188.251 76.1182C188.5 76.2329 188.655 76.2538 189.256 76.2538C189.868 76.2538 190.011 76.2339 190.277 76.1114C190.827 75.858 191.112 75.4851 191.112 75.0175C191.112 74.4609 190.739 74.0707 189.782 73.6245C188.974 73.2477 188.823 73.125 188.823 72.8432C188.823 72.4104 189.291 72.2033 190.003 72.3208C190.246 72.3608 190.523 72.4345 190.62 72.4846C190.909 72.6339 190.934 72.6089 190.914 72.1894L190.895 71.8031L190.648 71.7196C190.227 71.5776 189.402 71.568 189.001 71.7006ZM186.574 71.7123C186.15 71.8392 185.76 72.2343 185.415 72.8848L185.267 73.163L185.25 72.4367L185.232 71.7103H184.801H184.369L184.385 73.9512L184.401 76.192H184.803H185.205L185.222 75.1218L185.239 74.0516L185.49 73.6554C185.933 72.9534 186.566 72.5139 187.134 72.5139C187.27 72.5139 187.277 72.4926 187.277 72.0812V71.6485L187.014 71.6538C186.87 71.6567 186.672 71.683 186.574 71.7123ZM144.603 73.9666V76.2229H145.005H145.407V73.9666V71.7103H145.005H144.603V73.9666ZM146.953 73.3681C146.953 74.6737 146.973 75.0934 147.048 75.3433C147.228 75.9517 147.674 76.2808 148.319 76.2834C148.78 76.2852 149.324 76.0162 149.697 75.6012C149.848 75.4332 149.988 75.2957 150.009 75.2957C150.029 75.2957 150.046 75.4904 150.046 75.7284V76.1611H150.448H150.85V73.9357V71.7103H150.448H150.046V72.9658V74.2212L149.825 74.5884C149.468 75.1825 149.152 75.4505 148.67 75.5661C148.429 75.624 148.092 75.4645 147.944 75.2221C147.827 75.0304 147.819 74.9134 147.819 73.3639L147.819 71.7103H147.386H146.953V73.3681ZM171.892 73.9512L171.908 76.192H172.31H172.712L172.729 73.9512L172.745 71.7103H172.31H171.876L171.892 73.9512ZM173.547 71.7351C173.547 71.7811 175.841 76.0627 175.911 76.1463C175.949 76.1919 176.062 76.2209 176.162 76.2106C176.335 76.193 176.408 76.0728 177.511 73.9975C178.153 72.7906 178.678 71.7822 178.679 71.7567C178.68 71.7312 178.479 71.711 178.232 71.7117L177.784 71.713L176.98 73.2877C176.538 74.1537 176.156 74.8625 176.132 74.8627C176.107 74.8628 175.731 74.1537 175.297 73.2868L174.506 71.7107L174.027 71.7105C173.763 71.7104 173.547 71.7215 173.547 71.7351ZM192.363 73.9512L192.38 76.192H192.782H193.184L193.2 73.9512L193.216 71.7103H192.782H192.347L192.363 73.9512ZM198.231 72.0967C198.337 72.3092 198.814 73.2136 199.289 74.1066C199.848 75.1555 200.14 75.7665 200.115 75.8329C200.093 75.8895 199.756 76.4986 199.366 77.1864C198.976 77.8742 198.657 78.4534 198.657 78.4736C198.657 78.4937 198.878 78.5101 199.148 78.5101H199.64L200.178 77.4747C200.475 76.9052 201.281 75.3741 201.97 74.0723L203.223 71.7053L202.749 71.7233L202.275 71.7412L201.476 73.3021C201.036 74.1606 200.655 74.863 200.629 74.863C200.604 74.863 200.226 74.1539 199.79 73.2871L198.997 71.7113L198.517 71.7108L198.037 71.7103L198.231 72.0967ZM122.619 72.4748C123.19 72.7407 123.523 73.2968 123.528 73.9917C123.535 75.1197 122.557 75.8614 121.526 75.5103C120.732 75.2398 120.27 74.3286 120.481 73.4489C120.703 72.5223 121.723 72.0577 122.619 72.4748ZM136.602 72.5502C136.916 72.8044 137.046 72.9902 137.15 73.3349L137.237 73.6266H135.903H134.568L134.606 73.4362C134.694 72.9974 134.964 72.6333 135.357 72.4221C135.489 72.3512 135.662 72.3283 135.956 72.3428C136.309 72.36 136.405 72.3911 136.602 72.5502ZM181.698 72.4461C181.995 72.5984 182.168 72.7879 182.324 73.1321C182.561 73.6532 182.624 73.6266 181.154 73.6266C179.89 73.6266 179.856 73.6233 179.856 73.501C179.856 73.1497 180.261 72.5808 180.629 72.4163C180.904 72.2932 181.428 72.3078 181.698 72.4461ZM62.8015 73.4428C63.6582 73.726 64.704 74.2656 65.1036 74.6307C65.6654 75.1439 65.888 75.7337 65.7413 76.3203C65.6298 76.7657 65.0806 77.2981 64.3856 77.6343C63.8522 77.8923 62.5781 78.3375 62.1357 78.4205L61.8935 78.4659L61.9347 76.6852C61.9572 75.7059 61.9757 74.5337 61.9757 74.0802C61.9757 73.1083 61.92 73.1513 62.8015 73.4428ZM113.309 83.0845V86.4844L114.53 86.4834C116.208 86.4819 116.662 86.3799 117.218 85.8782C117.699 85.4449 117.887 84.7215 117.689 84.0616C117.581 83.701 117.198 83.3049 116.756 83.0963L116.374 82.9159L116.567 82.8164C116.847 82.6717 117.179 82.2558 117.268 81.9372C117.363 81.5977 117.32 80.9551 117.184 80.6929C116.946 80.2329 116.395 79.8706 115.753 79.7519C115.553 79.7149 114.921 79.6846 114.349 79.6846H113.309V83.0845ZM131.584 79.743C131.191 79.9038 131.086 80.42 131.385 80.7186C131.872 81.2056 132.656 80.5938 132.296 80.0076C132.125 79.7296 131.859 79.6306 131.584 79.743ZM137.844 79.7232C137.77 79.7968 137.792 85.3284 137.867 85.6796C137.945 86.0427 138.171 86.3414 138.46 86.4619C138.663 86.5467 139.499 86.5787 139.681 86.5087C139.753 86.4811 139.779 86.3858 139.779 86.1493V85.8274L139.419 85.8535C139.103 85.8763 139.037 85.8606 138.878 85.7237L138.697 85.5679L138.666 82.6417L138.635 79.7155L138.261 79.6975C138.056 79.6875 137.868 79.6991 137.844 79.7232ZM127.982 80.2882L127.595 80.3753V81.1736V81.9718H127.107C126.563 81.9718 126.544 81.9869 126.544 82.4096V82.6518H127.062H127.581L127.608 84.089C127.637 85.6474 127.674 85.8378 128.011 86.1897C128.284 86.4751 128.62 86.5644 129.309 86.5346C129.72 86.5168 129.979 86.4742 130.115 86.4021C130.302 86.3035 130.316 86.2731 130.316 85.9811C130.316 85.6684 130.315 85.6666 130.146 85.71C130.053 85.734 129.749 85.7678 129.472 85.7851L128.967 85.8167L128.73 85.5991L128.492 85.3814L128.473 84.0166L128.454 82.6518H129.325C129.968 82.6518 130.203 82.6316 130.221 82.5745C130.234 82.5321 130.258 82.379 130.275 82.2345L130.305 81.9718H129.383H128.461V81.11C128.461 80.636 128.44 80.2376 128.415 80.2247C128.389 80.2117 128.194 80.2403 127.982 80.2882ZM115.752 80.5417C116.654 80.9512 116.694 82.1988 115.818 82.5964C115.619 82.6867 115.413 82.7112 114.839 82.7123L114.113 82.7136V81.57V80.4264L114.808 80.4278C115.347 80.4288 115.56 80.4545 115.752 80.5417ZM123.775 81.9387C123.562 81.987 123.228 82.1052 123.033 82.2015L122.678 82.3765L122.66 82.7895L122.642 83.2025L123 82.9867C123.666 82.586 124.351 82.479 124.738 82.7152C124.95 82.8442 125.121 83.1563 125.121 83.4134C125.121 83.5485 125.084 83.5672 124.673 83.6349C124.03 83.741 123.183 84.0398 122.794 84.2979C122.076 84.7743 121.878 85.6116 122.356 86.1549C122.631 86.468 122.86 86.5465 123.496 86.5447C124.073 86.5432 124.517 86.4114 124.927 86.1198L125.121 85.9815V86.2329V86.4844H125.554H125.987V84.9474C125.987 83.2512 125.942 82.8759 125.692 82.4707C125.38 81.9647 124.608 81.7504 123.775 81.9387ZM134.677 81.9312C134.269 82.0369 134.039 82.1639 133.799 82.4147C133.557 82.6682 133.471 82.8857 133.471 83.2456C133.471 83.8462 133.788 84.1657 134.844 84.6262C135.519 84.9208 135.759 85.118 135.759 85.3777C135.759 85.7379 135.393 85.9014 134.691 85.8551C134.349 85.8326 134.118 85.7521 133.517 85.4468C133.492 85.4338 133.471 85.6173 133.471 85.8544V86.2856L133.733 86.396C133.913 86.4713 134.212 86.5144 134.677 86.5319C135.528 86.5638 135.921 86.4413 136.305 86.0251C136.892 85.3884 136.608 84.5158 135.671 84.0808C134.587 83.5772 134.487 83.5195 134.377 83.3325C134.236 83.0921 134.312 82.8531 134.581 82.6945C134.825 82.5499 135.462 82.5584 135.954 82.7128C136.17 82.7804 136.367 82.836 136.393 82.8365C136.473 82.8378 136.445 82.1766 136.362 82.112C136.093 81.9021 135.17 81.803 134.677 81.9312ZM141.968 81.9364C141.578 82.025 141.129 82.2233 140.939 82.3904C140.859 82.4606 140.83 82.5802 140.83 82.8468C140.83 83.0456 140.842 83.2082 140.855 83.2082C140.869 83.2082 141.016 83.1163 141.183 83.004C141.868 82.5436 142.708 82.4602 143.065 82.8172C143.245 82.9967 143.405 83.4468 143.317 83.5243C143.293 83.5452 143.092 83.5958 142.871 83.6367C141.177 83.9496 140.318 84.5651 140.318 85.4653C140.318 86.1928 140.768 86.5462 141.696 86.5462C142.255 86.5462 142.753 86.4036 143.09 86.1468C143.203 86.0605 143.312 85.9899 143.331 85.9899C143.35 85.9899 143.366 86.1012 143.366 86.2371V86.4844H143.772H144.177L144.158 84.6763C144.14 82.9626 144.132 82.8552 144.006 82.6209C143.933 82.4849 143.807 82.3124 143.727 82.2375C143.376 81.9105 142.637 81.7841 141.968 81.9364ZM151.732 81.938C151.519 81.9862 151.179 82.1147 150.974 82.2237L150.602 82.4218V82.8149C150.602 83.0312 150.615 83.2082 150.63 83.2082C150.645 83.2082 150.785 83.1225 150.94 83.0177C151.644 82.5427 152.475 82.4555 152.838 82.8185C152.975 82.955 153.036 83.084 153.059 83.2823L153.09 83.5568L152.634 83.6373C151.59 83.8221 150.812 84.1642 150.418 84.6123C149.862 85.2434 149.992 86.1122 150.69 86.429C151.222 86.6703 152.312 86.5431 152.821 86.1805C153.056 86.0133 153.065 86.0155 153.088 86.2526L153.107 86.4535L153.528 86.4719L153.949 86.4902L153.93 84.6792C153.912 82.9626 153.904 82.8553 153.778 82.6209C153.705 82.4849 153.579 82.3124 153.499 82.2375C153.146 81.909 152.41 81.7841 151.732 81.938ZM121.024 81.9967C120.581 82.1575 120.208 82.5239 119.897 83.1039C119.829 83.2292 119.753 83.3318 119.727 83.3318C119.7 83.3318 119.679 83.0258 119.679 82.6518V81.9718H119.277H118.875V84.2281V86.4844H119.277H119.679V85.4262V84.3679L119.898 84.0073C120.335 83.2883 120.869 82.8772 121.443 82.8183L121.689 82.7932V82.367V81.9409L121.472 81.9267C121.353 81.9189 121.151 81.9504 121.024 81.9967ZM131.368 84.2281V86.4844H131.77H132.172V84.2281V81.9718H131.77H131.368V84.2281ZM144.765 82.1727C145.05 82.7294 146.916 86.225 146.992 86.3453C147.054 86.4428 147.139 86.4843 147.279 86.4843C147.495 86.4841 147.428 86.5991 149.52 82.6364L149.871 81.9718H149.406H148.942L148.119 83.574C147.666 84.4552 147.282 85.1663 147.264 85.1541C147.246 85.1419 146.87 84.4215 146.428 83.5531L145.624 81.9743L145.143 81.9731L144.662 81.9718L144.765 82.1727ZM60.7158 83.9963C60.6959 84.3278 60.663 85.5865 60.6427 86.7935C60.6225 88.0005 60.5962 89.2244 60.5842 89.5134C60.5722 89.8024 60.5426 91.2298 60.5182 92.6854C60.494 94.1411 60.4563 95.4191 60.4346 95.5256C60.3975 95.707 60.3663 95.7264 59.9408 95.8334C59.691 95.8963 59.4692 95.9303 59.4479 95.909C59.4042 95.8653 59.1331 83.8127 59.1747 83.7645C59.2148 83.7182 60.4382 83.4062 60.6063 83.3995L60.7522 83.3936L60.7158 83.9963ZM116.035 83.5259C116.343 83.6184 116.704 83.9201 116.811 84.1751C117.015 84.665 116.836 85.2455 116.389 85.5417C116.139 85.7071 116.105 85.7122 115.122 85.7313L114.113 85.751V84.6032V83.4554H114.956C115.42 83.4554 115.905 83.4872 116.035 83.5259ZM58.0904 84.089C58.0964 84.0976 58.1173 84.9467 58.1368 85.976L58.1721 87.8476L57.9866 87.807C57.5666 87.7154 56.3514 87.2647 55.9766 87.0617C54.9301 86.4949 54.7602 85.8761 55.4741 85.2315C55.7919 84.9446 55.9433 84.867 57.028 84.4354C57.8377 84.1132 58.0568 84.0417 58.0904 84.089ZM125.121 84.7858V85.4363L124.83 85.6211C124.471 85.8484 124.199 85.9273 123.773 85.9277C123.37 85.9281 123.122 85.8075 123.02 85.5613C122.807 85.0473 123.302 84.5924 124.41 84.2828C125.174 84.0693 125.121 84.0319 125.121 84.7858ZM143.366 84.7428C143.366 85.429 143.342 85.4733 142.809 85.7494C142.584 85.8663 142.433 85.8941 142.016 85.8955C141.527 85.8971 141.493 85.8883 141.351 85.7237C141.249 85.605 141.201 85.4749 141.201 85.3112C141.201 84.8784 141.713 84.5182 142.693 84.2618C143.411 84.0737 143.366 84.0413 143.366 84.7428ZM153.076 84.7749C153.076 85.5096 153.074 85.5137 152.498 85.7774C152.191 85.9176 152.075 85.9379 151.703 85.9169C151.32 85.8952 151.25 85.8719 151.12 85.7213C150.959 85.5331 150.93 85.24 151.053 85.0215C151.215 84.7326 151.606 84.5124 152.344 84.2942C153.127 84.0631 153.076 84.0298 153.076 84.7749ZM62.4482 90.1978C63.7382 90.6406 64.7115 91.1889 65.3464 91.8308C65.8035 92.2929 66.0351 92.7119 66.1576 93.298C66.4929 94.9037 65.561 96.0422 63.2877 96.8039C62.688 97.0049 61.1348 97.3899 59.9039 97.6427C57.8085 98.0732 57.172 98.2599 56.4216 98.6644C56.1676 98.8014 55.9469 98.9004 55.9311 98.8846C55.8624 98.8159 56.2035 98.3444 56.4498 98.1676C57.0442 97.741 57.8843 97.4439 59.9566 96.9278C62.303 96.3435 63.1198 96.0215 63.7022 95.4513C64.0883 95.0732 64.2225 94.7741 64.2529 94.2237C64.2756 93.8151 64.2594 93.7348 64.0824 93.3754C63.7943 92.7905 63.132 92.2977 62.1149 91.9113L61.6046 91.7175L61.6053 91.0636C61.6059 90.4895 61.6513 89.9461 61.6987 89.9461C61.7074 89.9461 62.0447 90.0594 62.4482 90.1978ZM62.1072 93.0616C63.3233 93.6042 63.5492 94.3612 62.6612 94.9183C62.4624 95.043 61.6685 95.3859 61.5786 95.3859C61.5302 95.3859 61.5328 93.3498 61.5815 93.1065C61.6279 92.8744 61.6779 92.8701 62.1072 93.0616ZM60.3677 99.4899C60.3677 100.399 60.3219 100.533 59.9843 100.613C59.8553 100.643 59.7814 100.616 59.6596 100.495C59.5147 100.35 59.5009 100.289 59.4903 99.7468C59.4839 99.4222 59.4769 99.0805 59.4748 98.9872C59.4713 98.8336 59.5001 98.8109 59.7802 98.7458C60.4095 98.5998 60.3677 98.5469 60.3677 99.4899Z" fill="#495366"/>
</svg>
