<?xml version="1.0" encoding="UTF-8" standalone="no"?><!DOCTYPE svg PUBLIC "-//W3C//DTD SVG 1.1//EN" "http://www.w3.org/Graphics/SVG/1.1/DTD/svg11.dtd"><svg width="100%" height="100%" viewBox="0 0 233 233" version="1.1" xmlns="http://www.w3.org/2000/svg" xmlns:xlink="http://www.w3.org/1999/xlink" xml:space="preserve" xmlns:serif="http://www.serif.com/" style="fill-rule:evenodd;clip-rule:evenodd;stroke-linejoin:round;stroke-miterlimit:2;"><g><path d="M132.65,179.192c1.175,-1.171 2.158,-2.459 3.021,-3.8l90.037,-90.038c8.78,-8.787 8.788,-23.033 0,-31.825c-8.787,-8.779 -23.029,-8.787 -31.825,0l-77.533,77.542l-77.946,-77.934c-8.787,-8.783 -23.029,-8.787 -31.821,0.001c-4.387,4.4 -6.591,10.154 -6.583,15.908c-0.008,5.758 2.196,11.517 6.592,15.9l90.429,90.442c0.862,1.345 1.854,2.629 3.037,3.804c4.492,4.491 10.4,6.654 16.292,6.55c5.883,0.108 11.808,-2.059 16.3,-6.55Z" style="fill:#919191;fill-rule:nonzero;"/></g></svg>