<svg width="834" height="834" viewBox="0 0 834 834" fill="none" xmlns="http://www.w3.org/2000/svg">
<g clip-path="url(#clip0_6257_24475)">
<path fill-rule="evenodd" clip-rule="evenodd" d="M833.333 166.667C833.333 74.681 758.653 0 666.667 0H166.667C74.681 0 0 74.681 0 166.667V666.667C0 758.653 74.681 833.333 166.667 833.333H666.667C758.653 833.333 833.333 758.653 833.333 666.667V166.667Z" fill="#F5F3F4"/>
<path fill-rule="evenodd" clip-rule="evenodd" d="M333.881 330.111V330.123C333.143 359.345 341.399 396.694 357.258 426.262C373.443 456.437 394.295 473.149 416.671 473.149C438.854 473.149 458.916 456.695 474.768 426.426C490.281 396.806 498.707 359.108 499.463 329.173C500.834 274.817 462.201 239.715 416.671 239.715C371.835 239.715 335.295 272.672 333.881 330.111ZM416.671 491.974C482.226 491.974 516.643 394.578 518.282 329.648C519.921 264.718 472.789 220.889 416.671 220.889C360.553 220.889 316.7 263.094 315.061 329.648C313.422 394.578 351.116 491.974 416.671 491.974Z" fill="#495366"/>
<path fill-rule="evenodd" clip-rule="evenodd" d="M237.826 642.571C235.329 642.571 232.935 641.579 231.17 639.812C229.405 638.046 228.413 635.654 228.413 633.158C228.413 632.025 228.37 630.538 228.318 628.729C227.823 611.7 226.517 566.685 253.036 533.187C291.33 484.816 336.79 481.343 356.101 480.677C356.209 480.673 356.317 480.671 356.426 480.671H476.907C477.015 480.671 477.123 480.673 477.231 480.677C496.543 481.343 542.003 484.816 580.294 533.187C606.815 566.685 605.511 611.7 605.015 628.729C604.961 630.538 604.919 632.025 604.919 633.158C604.919 635.654 603.928 638.046 602.161 639.812C600.398 641.579 598.003 642.571 595.507 642.571H237.826ZM586.261 623.746C586.573 604.66 585.828 570.506 565.536 544.873C532.398 503.013 493.908 500.098 476.743 499.497H356.589C339.424 500.098 300.935 503.013 267.796 544.873C247.503 570.506 246.761 604.66 247.073 623.746H586.261Z" fill="#495366"/>
<path fill-rule="evenodd" clip-rule="evenodd" d="M198.458 287.134L198.459 287.123C199.684 237.011 231.244 208.5 269.833 208.5C300.984 208.5 328.407 227.683 337.794 259.26C341.848 253.891 346.37 249.03 351.3 244.713C337.355 211.341 305.689 190.763 269.833 190.763C220.691 190.763 182.288 227.987 180.852 286.686C179.718 331.944 200.096 395.085 237.027 419.578H217.076C216.974 419.578 216.873 419.58 216.772 419.583C199.794 420.173 159.781 423.257 126.096 466.112C102.732 495.836 103.892 535.768 104.328 550.758C104.374 552.343 104.412 553.649 104.412 554.635C104.412 556.987 105.339 559.243 106.991 560.906C108.642 562.57 110.882 563.504 113.217 563.504H246.571C248.925 557.46 251.88 551.481 255.586 545.766H121.871C121.625 528.85 122.449 499.328 139.904 477.121C168.766 440.402 202.259 437.844 217.229 437.315H322.429C327.531 437.496 334.783 437.912 343.271 439.835C339.692 433.624 336.435 427.07 333.509 420.295C329.389 419.859 325.799 419.685 322.886 419.583C322.86 419.583 322.834 419.582 322.807 419.581C322.782 419.58 322.757 419.58 322.732 419.579L322.582 419.578H302.34C310.811 413.859 318.343 406.033 324.927 396.82C322.513 388.894 320.527 380.865 318.982 372.903C305.292 398.57 288.295 412.118 269.833 412.118C250.86 412.118 232.897 397.839 218.797 371.363C205.002 345.459 197.817 312.713 198.458 287.134Z" fill="#495366"/>
<path fill-rule="evenodd" clip-rule="evenodd" d="M512.473 375.752C526.332 399.414 543.523 412.118 561.623 412.118C580.628 412.118 598.098 398.082 612.069 371.517C625.719 345.564 633.144 312.488 633.811 286.239C635.011 238.934 601.307 208.5 561.623 208.5C531.278 208.5 505.231 225.737 494.561 256.962C490.414 251.938 485.811 247.375 480.824 243.314C495.356 210.272 525.644 190.763 561.623 190.763C611.328 190.763 653.069 229.418 651.615 286.686C650.469 331.944 631.19 395.085 594.503 419.578H614.973C615.073 419.578 615.178 419.58 615.282 419.583C632.448 420.173 672.919 423.257 706.986 466.112C730.615 495.836 729.444 535.768 729.003 550.758V550.76C728.957 552.344 728.919 553.65 728.919 554.635C728.919 556.987 727.978 559.243 726.311 560.906C724.64 562.57 722.373 563.504 720.011 563.504H586.761C584.407 557.46 581.453 551.481 577.744 545.766H711.261C711.507 528.851 710.673 499.328 693.023 477.121C663.832 440.402 629.957 437.844 614.819 437.315H508.422C503.622 437.483 496.938 437.855 489.117 439.455C492.546 433.318 495.677 426.849 498.506 420.167C502.136 419.823 505.323 419.674 507.961 419.583C508.063 419.58 508.165 419.578 508.267 419.578H528.444C520.286 414.227 512.924 407.031 506.415 398.58C508.786 391.026 510.807 383.368 512.473 375.752Z" fill="#495366"/>
</g>
<defs>
<clipPath id="clip0_6257_24475">
<rect width="834" height="834" fill="white"/>
</clipPath>
</defs>
</svg>
