<svg width="834" height="834" viewBox="0 0 834 834" fill="none" xmlns="http://www.w3.org/2000/svg">
<g clip-path="url(#clip0_6257_24495)">
<path fill-rule="evenodd" clip-rule="evenodd" d="M833.333 166.667C833.333 74.681 758.653 0 666.667 0H166.667C74.681 0 0 74.681 0 166.667V666.667C0 758.653 74.681 833.333 166.667 833.333H666.667C758.653 833.333 833.333 758.653 833.333 666.667V166.667Z" fill="#F5F3F4"/>
<path fill-rule="evenodd" clip-rule="evenodd" d="M469.762 448.265C469.762 408.021 437.089 375.349 396.845 375.349H221.875C181.631 375.349 148.958 408.021 148.958 448.265V623.235C148.958 663.479 181.631 696.152 221.875 696.152H396.845C437.089 696.152 469.762 663.479 469.762 623.235V448.265Z" stroke="#495366" stroke-width="20.83"/>
<path fill-rule="evenodd" clip-rule="evenodd" d="M323.973 271.897H498.943C533.461 271.897 561.442 299.879 561.442 334.397V509.367C561.442 543.885 533.461 571.868 498.943 571.868H480.178V592.702H498.943C544.967 592.702 582.275 555.389 582.275 509.367V334.397C582.275 288.373 544.967 251.064 498.943 251.064H323.973C277.949 251.064 240.64 288.373 240.64 334.397V364.941H261.473V334.397C261.473 299.879 289.455 271.897 323.973 271.897Z" fill="#495366"/>
<path fill-rule="evenodd" clip-rule="evenodd" d="M426.072 158.015H601.042C635.558 158.015 663.542 185.997 663.542 220.515V395.485C663.542 430.003 635.558 457.985 601.042 457.985H582.279V478.818H601.042C647.067 478.818 684.375 441.509 684.375 395.485V220.515C684.375 174.491 647.067 137.181 601.042 137.181H426.072C380.048 137.181 342.738 174.491 342.738 220.515V251.059H363.572V220.515C363.572 185.997 391.554 158.015 426.072 158.015Z" fill="#495366"/>
<path fill-rule="evenodd" clip-rule="evenodd" d="M459.048 335.834C459.048 360.971 438.671 381.347 413.535 381.347C388.399 381.347 368.022 360.971 368.022 335.834C368.022 310.698 388.399 290.322 413.535 290.322C438.671 290.322 459.048 310.698 459.048 335.834ZM439.413 335.834C439.413 350.127 427.827 361.713 413.535 361.713C399.243 361.713 387.656 350.127 387.656 335.834C387.656 321.542 399.243 309.956 413.535 309.956C427.827 309.956 439.413 321.542 439.413 335.834ZM460.442 576.981H467.239V506.191L475.967 523.323C479.757 530.883 487.444 539.84 499.9 539.84C506.44 539.84 512.332 536.737 516.361 533.548C520.184 530.521 524.542 525.647 525.709 519.811C527.21 512.306 525.69 505.033 522.841 499.336C522.765 499.184 522.685 499.034 522.601 498.886L471.04 407.895C465.149 397.311 455.422 387.713 441.24 387.713H417.678C430.392 391.916 441.298 400.091 448.928 410.767C450.59 412.336 452.259 414.519 453.897 417.468L453.938 417.541L505.376 508.313C506.457 510.569 506.925 513.198 506.514 515.648C506.461 515.741 506.367 515.891 506.215 516.098C505.777 516.694 505.081 517.435 504.174 518.153C503.271 518.868 502.328 519.427 501.475 519.785C500.602 520.151 500.071 520.205 499.9 520.205C498.217 520.205 495.795 519.076 493.51 514.507L493.477 514.441L466.17 460.837C464.969 458.481 462.919 456.783 460.544 455.985V573.385C460.544 574.593 460.51 575.793 460.442 576.981Z" fill="#495366"/>
<path fill-rule="evenodd" clip-rule="evenodd" d="M561.146 221.968C561.146 247.104 540.77 267.481 515.633 267.481C490.498 267.481 470.121 247.104 470.121 221.968C470.121 196.832 490.498 176.456 515.633 176.456C540.77 176.456 561.146 196.832 561.146 221.968ZM541.512 221.968C541.512 236.261 529.926 247.847 515.633 247.847C501.341 247.847 489.755 236.261 489.755 221.968C489.755 207.676 501.341 196.09 515.633 196.09C529.926 196.09 541.512 207.676 541.512 221.968ZM562.542 463.116H569.338V392.325L578.067 409.457C581.854 417.017 589.542 425.973 602 425.973C608.538 425.973 614.429 422.871 618.458 419.681C622.283 416.654 626.642 411.781 627.808 405.945C629.308 398.439 627.788 391.167 624.938 385.469C624.863 385.318 624.783 385.168 624.7 385.02L573.138 294.029C567.246 283.444 557.521 273.846 543.338 273.846H519.776C532.49 278.05 543.397 286.224 551.027 296.901C552.689 298.469 554.358 300.653 555.996 303.602L556.038 303.674L607.475 394.447C608.554 396.703 609.025 399.332 608.613 401.782C608.558 401.875 608.467 402.025 608.313 402.232C607.875 402.828 607.179 403.569 606.271 404.287C605.371 405.002 604.425 405.561 603.575 405.919C602.7 406.285 602.171 406.339 602 406.339C600.317 406.339 597.892 405.21 595.608 400.64L595.575 400.574L568.267 346.971C567.067 344.614 565.017 342.917 562.642 342.119V459.519C562.642 460.727 562.608 461.926 562.542 463.116Z" fill="#495366"/>
<path fill-rule="evenodd" clip-rule="evenodd" d="M333.388 449.719C333.388 464.011 321.801 475.597 307.509 475.597C293.217 475.597 281.631 464.011 281.631 449.719C281.631 435.427 293.217 423.84 307.509 423.84C321.801 423.84 333.388 435.427 333.388 449.719ZM353.022 449.719C353.022 474.855 332.645 495.232 307.509 495.232C282.373 495.232 261.996 474.855 261.996 449.719C261.996 424.583 282.373 404.206 307.509 404.206C332.645 404.206 353.022 424.583 353.022 449.719ZM248.776 521.779C254.667 511.195 264.393 501.597 278.576 501.597H335.214C349.396 501.597 359.123 511.195 365.014 521.779L416.575 612.769C416.615 612.84 416.653 612.911 416.69 612.978L416.715 613.024L416.768 613.128L416.815 613.219C419.664 618.919 421.185 626.19 419.684 633.694C418.516 639.532 414.158 644.407 410.335 647.432C406.306 650.619 400.415 653.724 393.875 653.724C381.418 653.724 373.731 644.765 369.941 637.207L361.213 620.074V690.869H341.579V579.178C341.579 574.64 344.691 570.69 349.105 569.632C353.518 568.574 358.083 570.678 360.144 574.719L387.451 628.324L387.485 628.39C389.769 632.961 392.191 634.09 393.875 634.09C394.045 634.09 394.576 634.036 395.449 633.669C396.302 633.311 397.245 632.753 398.148 632.036C399.055 631.319 399.751 630.578 400.19 629.982C400.342 629.778 400.435 629.624 400.488 629.532C400.899 627.082 400.431 624.453 399.35 622.199L347.912 531.425L347.871 531.353C343.646 523.747 339.22 521.231 335.214 521.231H278.576C274.57 521.231 270.143 523.747 265.918 531.353L265.878 531.425L214.44 622.199C213.359 624.453 212.89 627.082 213.302 629.532C213.355 629.624 213.448 629.778 213.6 629.982C214.039 630.578 214.734 631.319 215.642 632.036C216.544 632.753 217.488 633.311 218.34 633.669C219.214 634.036 219.745 634.09 219.915 634.09C221.599 634.09 224.02 632.961 226.305 628.39L226.338 628.324L253.646 574.719C255.706 570.678 260.271 568.574 264.685 569.632C269.099 570.69 272.21 574.64 272.21 579.178V690.869H252.576V620.074L243.849 637.207C240.059 644.765 232.371 653.724 219.915 653.724C213.375 653.724 207.483 650.619 203.455 647.432C199.631 644.407 195.273 639.532 194.106 633.694C192.605 626.19 194.126 618.919 196.975 613.219C197.05 613.069 197.13 612.919 197.214 612.769L248.776 521.779ZM308.203 690.869V672.94H305.587V690.869H285.952V666.157C285.952 661.515 288.927 653.307 297.792 653.307H315.998C324.863 653.307 327.837 661.515 327.837 666.157V690.869H308.203Z" fill="#495366"/>
</g>
<defs>
<clipPath id="clip0_6257_24495">
<rect width="834" height="834" fill="white"/>
</clipPath>
</defs>
</svg>
