<svg width="834" height="834" viewBox="0 0 834 834" fill="none" xmlns="http://www.w3.org/2000/svg">
<g clip-path="url(#clip0_6257_24531)">
<path fill-rule="evenodd" clip-rule="evenodd" d="M833.333 166.667C833.333 74.681 758.653 0 666.667 0H166.667C74.681 0 0 74.681 0 166.667V666.667C0 758.653 74.681 833.333 166.667 833.333H666.667C758.653 833.333 833.333 758.653 833.333 666.667V166.667Z" fill="#F5F3F4"/>
<path d="M324.62 514.963C322.986 514.963 321.349 516.596 321.349 519.867V704.683C321.349 712.858 315.324 718.75 308.266 722.675C301.207 726.596 288.636 729.217 278.824 722.675C272.92 718.738 267.378 711.225 267.378 704.683V379.211L223.216 465.895C218.311 475.708 210.132 483.885 198.682 483.885C187.236 483.885 174.153 472.437 172.516 464.259C170.878 456.082 172.516 447.904 175.786 441.362L259.199 294.164C267.378 279.444 278.824 269.631 293.545 269.631H385.136C399.853 269.631 411.303 279.444 419.482 294.164L502.895 441.362C506.166 447.904 507.799 456.082 506.166 464.259C504.528 472.437 491.445 483.885 479.995 483.885C468.549 483.885 460.37 475.708 455.461 465.895L411.303 379.211V704.683C411.303 711.225 405.761 718.738 399.853 722.675C390.041 729.217 377.474 726.596 370.416 722.675C363.357 718.75 357.332 712.858 357.332 704.683V519.867C357.332 516.596 355.695 514.963 354.061 514.963H324.62Z" stroke="#495366" stroke-width="20.83" stroke-linejoin="round"/>
<path d="M340.331 233.041C375.226 233.041 403.514 204.753 403.514 169.858C403.514 134.963 375.226 106.675 340.331 106.675C305.436 106.675 277.148 134.963 277.148 169.858C277.148 204.753 305.436 233.041 340.331 233.041Z" stroke="#495366" stroke-width="20.83"/>
<path d="M619.399 513.617L619.441 513.692L660.711 586.517C661.278 587.733 661.536 589.071 661.441 590.296C661.216 590.563 660.874 590.913 660.424 591.271C659.857 591.717 659.295 592.042 658.845 592.229C658.649 592.313 658.52 592.35 658.453 592.367C658.303 592.354 658.107 592.292 657.757 592.013C657.203 591.567 656.432 590.671 655.695 589.192L655.657 589.125L633.724 546.071C631.541 541.779 626.695 539.546 622.011 540.671C617.328 541.792 614.028 545.983 614.028 550.8V711.633C613.891 711.838 613.707 712.067 613.491 712.283C613.27 712.508 613.082 712.65 612.978 712.721C612.866 712.796 612.486 712.996 611.582 712.938C610.603 712.879 609.666 712.542 609.195 712.279C608.728 712.021 608.366 711.779 608.103 711.571C608.086 711.554 608.07 711.542 608.053 711.529V620.658C608.053 616.254 605.157 607.804 596.011 607.804H581.391C572.245 607.804 569.349 616.254 569.349 620.658V711.529C569.332 711.542 569.316 711.554 569.299 711.571C569.036 711.779 568.674 712.021 568.207 712.279C567.736 712.542 566.799 712.879 565.82 712.938C564.916 712.996 564.536 712.796 564.424 712.721C564.32 712.65 564.132 712.508 563.911 712.283C563.695 712.067 563.511 711.838 563.374 711.633V550.8C563.374 545.983 560.074 541.792 555.391 540.671C550.707 539.546 545.861 541.779 543.678 546.071L521.745 589.125L521.707 589.192C520.97 590.671 520.199 591.567 519.645 592.013C519.295 592.292 519.099 592.354 518.949 592.367C518.882 592.35 518.753 592.313 518.557 592.229C518.107 592.042 517.545 591.717 516.978 591.271C516.528 590.913 516.186 590.563 515.961 590.296C515.866 589.071 516.124 587.733 516.691 586.517L557.957 513.692L558.003 513.617C561.182 507.893 564.053 506.789 565.957 506.789H611.445C613.349 506.789 616.22 507.893 619.399 513.617Z" fill="#495366" stroke="#495366" stroke-width="20.83" stroke-linejoin="round"/>
<path d="M589.195 472.964C603.63 472.964 615.333 461.262 615.333 446.826C615.333 432.391 603.63 420.688 589.195 420.688C574.759 420.688 563.057 432.391 563.057 446.826C563.057 461.262 574.759 472.964 589.195 472.964Z" fill="#495366" stroke="#495366" stroke-width="20.83"/>
</g>
<defs>
<clipPath id="clip0_6257_24531">
<rect width="834" height="834" fill="white"/>
</clipPath>
</defs>
</svg>
