<svg width="834" height="834" viewBox="0 0 834 834" fill="none" xmlns="http://www.w3.org/2000/svg">
<g clip-path="url(#clip0_6257_24489)">
<path fill-rule="evenodd" clip-rule="evenodd" d="M833.333 166.667C833.333 74.681 758.653 0 666.667 0H166.667C74.681 0 0 74.681 0 166.667V666.667C0 758.653 74.681 833.333 166.667 833.333H666.667C758.653 833.333 833.333 758.653 833.333 666.667V166.667Z" fill="#F5F3F4"/>
<path d="M241.069 367.608L267.998 468.111C269.394 473.321 274.752 476.412 279.969 475.015C285.181 473.618 288.277 468.261 286.881 463.051L265.019 381.454C263.669 376.42 266.54 370.793 271.902 369.323C276.71 368.002 282.552 371.358 284.01 376.8L314.194 489.437C315.185 493.145 318.265 495.927 322.056 496.546C325.848 497.165 329.652 495.507 331.777 492.308C332.431 491.326 333.015 490.428 333.56 489.596C335.848 486.093 337.369 483.765 339.823 481.312C342.656 478.483 347.065 475.263 355.765 471.439C363.773 467.92 372.66 466.743 379.631 468.407C384.677 469.613 388.835 472.266 391.415 477.305L369.485 503.413C369.048 503.929 368.669 504.489 368.352 505.084L345.552 547.646C337.852 562.021 332.31 577.446 329.106 593.433L326.931 604.296C325.227 612.8 318.844 619.6 310.465 621.846L261.777 634.892C254.715 636.783 247.615 635.146 242.752 630.625C234.49 622.933 223.269 611.613 213.127 598.429C202.915 585.15 194.24 570.554 190.423 556.304L160.156 443.35C158.727 438.016 161.598 432.582 167.006 431.134C172.427 429.681 177.602 432.915 179.044 438.289L194.144 494.641C195.54 499.852 200.898 502.943 206.11 501.545C211.327 500.148 214.423 494.791 213.027 489.581L189.585 402.101C188.085 396.499 191.081 390.978 196.31 389.577C201.615 388.156 206.969 391.431 208.473 397.041C216.473 426.898 222.227 448.373 230.223 478.232C231.619 483.442 236.977 486.534 242.194 485.137C247.406 483.74 250.502 478.384 249.106 473.173C241.11 443.315 235.356 421.838 227.356 391.98L222.223 372.818C220.785 367.448 223.656 362.032 229.09 360.571C234.631 359.082 239.623 362.221 241.069 367.608ZM266.727 350.486C263.006 351.508 259.727 353.149 256.919 355.243L266.727 350.486ZM256.919 355.243C250.673 344.461 237.956 337.962 224.023 341.707C210.177 345.428 202.444 357.491 202.327 369.872C198.802 369.452 195.077 369.685 191.256 370.709C174.123 375.3 166.819 392.676 170.702 407.161L171.81 411.296C168.644 411.067 165.327 411.36 161.948 412.266C145.077 416.786 137.335 433.722 141.273 448.41L171.54 561.367C176.302 579.15 186.681 596.113 197.627 610.338C208.644 624.663 220.69 636.792 229.427 644.925C239.698 654.479 253.927 657.217 266.835 653.758L315.519 640.713C331.085 636.542 342.935 623.913 346.102 608.125L348.277 597.258C351.102 583.154 355.994 569.542 362.785 556.858L385.106 515.192L410.031 485.522C412.085 483.08 412.815 479.792 411.99 476.714C407.815 461.134 396.86 452.435 384.181 449.407C372.098 446.521 358.794 448.77 347.902 453.558C339.019 457.461 332.819 461.329 328.044 465.58L302.898 371.74C298.948 356.998 283.123 345.988 266.727 350.486" fill="#495366"/>
<path d="M592.265 205.108L565.335 305.611C563.94 310.821 558.581 313.912 553.365 312.515C548.152 311.118 545.056 305.761 546.452 300.551L568.315 218.954C569.665 213.92 566.794 208.293 561.431 206.823C556.623 205.502 550.781 208.858 549.323 214.3L519.14 326.937C518.148 330.645 515.069 333.427 511.277 334.046C507.485 334.665 503.681 333.007 501.556 329.808C500.902 328.826 500.319 327.928 499.773 327.096C497.485 323.593 495.965 321.265 493.51 318.812C490.677 315.983 486.269 312.763 477.569 308.939C469.56 305.42 460.673 304.243 453.702 305.907C448.656 307.113 444.498 309.766 441.919 314.805L463.848 340.913C464.285 341.429 464.665 341.989 464.981 342.584L487.781 385.147C495.481 399.52 501.023 414.948 504.227 430.932L506.402 441.797C508.106 450.298 514.49 457.1 522.869 459.346L571.556 472.391C578.619 474.284 585.719 472.647 590.581 468.125C598.844 460.435 610.065 449.112 620.206 435.929C630.419 422.648 639.094 408.053 642.91 393.805L673.177 280.85C674.606 275.516 671.735 270.082 666.327 268.634C660.906 267.181 655.731 270.415 654.29 275.789L639.19 332.141C637.794 337.352 632.435 340.443 627.223 339.045C622.006 337.648 618.91 332.291 620.306 327.081L643.748 239.601C645.248 233.999 642.252 228.478 637.023 227.077C631.719 225.656 626.365 228.931 624.86 234.541C616.86 264.398 611.106 285.873 603.11 315.732C601.715 320.942 596.356 324.034 591.14 322.637C585.927 321.24 582.831 315.884 584.227 310.673C592.223 280.815 597.977 259.338 605.977 229.48L611.11 210.318C612.548 204.948 609.677 199.532 604.244 198.071C598.702 196.582 593.71 199.721 592.265 205.108ZM566.606 187.986C570.327 189.008 573.606 190.649 576.415 192.743L566.606 187.986ZM576.415 192.743C582.66 181.96 595.377 175.462 609.315 179.207C623.156 182.928 630.89 194.991 631.006 207.372C634.531 206.952 638.256 207.185 642.077 208.209C659.21 212.8 666.515 230.176 662.631 244.661L661.523 248.796C664.694 248.567 668.006 248.86 671.385 249.766C688.256 254.286 695.998 271.222 692.06 285.91L661.794 398.865C657.031 416.648 646.652 433.611 635.706 447.838C624.69 462.161 612.644 474.293 603.906 482.425C593.635 491.98 579.406 494.718 566.498 491.259L517.815 478.214C502.248 474.043 490.398 461.412 487.231 445.624L485.056 434.758C482.231 420.654 477.34 407.042 470.548 394.36L448.227 352.691L423.302 323.022C421.248 320.58 420.519 317.292 421.344 314.214C425.519 298.634 436.473 289.935 449.152 286.907C461.235 284.021 474.54 286.27 485.431 291.058C494.315 294.961 500.515 298.829 505.29 303.08L530.435 209.24C534.385 194.498 550.21 183.488 566.606 187.986" fill="#495366"/>
</g>
<defs>
<clipPath id="clip0_6257_24489">
<rect width="834" height="834" fill="white"/>
</clipPath>
</defs>
</svg>
