<svg width="834" height="834" viewBox="0 0 834 834" fill="none" xmlns="http://www.w3.org/2000/svg">
<g clip-path="url(#clip0_6257_24483)">
<path fill-rule="evenodd" clip-rule="evenodd" d="M833.333 166.667C833.333 74.681 758.653 0 666.667 0H166.667C74.681 0 0 74.681 0 166.667V666.667C0 758.653 74.681 833.333 166.667 833.333H666.667C758.653 833.333 833.333 758.653 833.333 666.667V166.667Z" fill="#F5F3F4"/>
<path d="M416.666 245.081C465.816 243.26 555.621 256.117 584.141 261.464C600.523 265.105 638.752 272.386 640.573 283.309C642.698 296.051 642.393 359.765 640.573 390.711C639.481 409.244 609.627 439.861 584.141 448.963C580.656 450.208 493.122 450.784 485.84 448.963C473.098 445.778 451.253 418.017 442.151 412.556C433.049 407.095 423.947 405.274 416.666 405.274C409.385 405.274 400.283 407.095 391.181 412.556C382.08 418.017 360.235 445.778 347.492 448.963C340.211 450.784 252.677 450.208 249.192 448.963C223.707 439.861 193.85 409.244 192.76 390.711C190.94 359.765 190.636 296.051 192.76 283.309C194.58 272.386 232.808 265.105 249.192 261.464C277.712 256.117 367.517 243.26 416.666 245.081Z" stroke="#495366" stroke-width="20.83" stroke-linecap="round" stroke-linejoin="round"/>
<path d="M283.733 555.095C283.733 555.095 342.066 588.429 417.066 588.429C492.066 588.429 550.399 555.095 550.399 555.095" stroke="#495366" stroke-width="20.83" stroke-linecap="round" stroke-linejoin="round"/>
</g>
<defs>
<clipPath id="clip0_6257_24483">
<rect width="834" height="834" fill="white"/>
</clipPath>
</defs>
</svg>
