<svg width="834" height="834" viewBox="0 0 834 834" fill="none" xmlns="http://www.w3.org/2000/svg">
<g clip-path="url(#clip0_6257_24505)">
<path fill-rule="evenodd" clip-rule="evenodd" d="M833.333 166.667C833.333 74.681 758.653 0 666.667 0H166.667C74.681 0 0 74.681 0 166.667V666.667C0 758.653 74.681 833.333 166.667 833.333H666.667C758.653 833.333 833.333 758.653 833.333 666.667V166.667Z" fill="#F5F3F4"/>
<path fill-rule="evenodd" clip-rule="evenodd" d="M672.917 279.167C672.917 232.024 634.643 193.75 587.5 193.75H245.833C198.691 193.75 160.417 232.024 160.417 279.167V554.167C160.417 601.309 198.691 639.583 245.833 639.583H587.5C634.643 639.583 672.917 601.309 672.917 554.167V279.167Z" stroke="#495366" stroke-width="20.83"/>
<path fill-rule="evenodd" clip-rule="evenodd" d="M618.75 220.833C618.75 205.886 606.614 193.75 591.667 193.75H241.667C226.719 193.75 214.583 205.886 214.583 220.833C214.583 235.781 226.719 247.917 241.667 247.917H591.667C606.614 247.917 618.75 235.781 618.75 220.833Z" stroke="#495366" stroke-width="20.83"/>
<path d="M250 325H425" stroke="#495366" stroke-width="20.83" stroke-linecap="round" stroke-linejoin="round"/>
<path d="M250 366.667H383.333" stroke="#495366" stroke-width="20.83" stroke-linecap="round" stroke-linejoin="round"/>
<path d="M250 408.333H383.333" stroke="#495366" stroke-width="20.83" stroke-linecap="round" stroke-linejoin="round"/>
<path d="M250 450H350" stroke="#495366" stroke-width="20.83" stroke-linecap="round" stroke-linejoin="round"/>
<path d="M250 491.667H383.333" stroke="#495366" stroke-width="20.83" stroke-linecap="round" stroke-linejoin="round"/>
<path d="M515.129 433.133C515.762 421.041 531.5 416.824 538.096 426.98L555.062 453.109C558.012 457.651 563.55 459.777 568.783 458.375L598.875 450.312C610.575 447.177 619.446 460.842 611.825 470.252L592.221 494.465C588.812 498.673 588.5 504.598 591.45 509.14L608.417 535.271C615.012 545.425 604.762 558.087 593.454 553.746L564.371 542.583C559.312 540.642 553.583 542.175 550.175 546.383L530.567 570.596C522.946 580.008 507.737 574.171 508.371 562.075L510 530.962C510.283 525.554 507.054 520.58 502 518.64L472.912 507.474C461.608 503.135 462.458 486.865 474.154 483.73L504.25 475.667C509.479 474.265 513.212 469.655 513.5 464.247L515.129 433.133Z" fill="#495366"/>
</g>
<defs>
<clipPath id="clip0_6257_24505">
<rect width="834" height="834" fill="white"/>
</clipPath>
</defs>
</svg>
