<svg width="834" height="834" viewBox="0 0 834 834" fill="none" xmlns="http://www.w3.org/2000/svg">
<g clip-path="url(#clip0_6257_24517)">
<path fill-rule="evenodd" clip-rule="evenodd" d="M833.333 166.667C833.333 74.681 758.653 0 666.667 0H166.667C74.681 0 0 74.681 0 166.667V666.667C0 758.653 74.681 833.333 166.667 833.333H666.667C758.653 833.333 833.333 758.653 833.333 666.667V166.667Z" fill="#F5F3F4"/>
<path fill-rule="evenodd" clip-rule="evenodd" d="M376.937 96.3613C337.353 96.3613 305.215 128.499 305.215 168.084C305.215 207.668 337.353 239.806 376.937 239.806C416.522 239.806 448.66 207.668 448.66 168.084C448.66 128.499 416.522 96.3613 376.937 96.3613ZM376.937 117.195C405.024 117.195 427.827 139.997 427.827 168.084C427.827 196.17 405.024 218.973 376.937 218.973C348.851 218.973 326.048 196.17 326.048 168.084C326.048 139.997 348.851 117.195 376.937 117.195Z" fill="#495366"/>
<path fill-rule="evenodd" clip-rule="evenodd" d="M217.867 263.346C210.746 245.971 206.484 227.127 205.664 207.4C205.425 201.656 200.568 197.186 194.824 197.425C189.08 197.664 184.61 202.521 184.849 208.265C185.772 230.473 190.574 251.687 198.59 271.247C200.771 276.567 206.86 279.115 212.179 276.935C217.499 274.755 220.048 268.666 217.867 263.346Z" fill="#495366"/>
<path fill-rule="evenodd" clip-rule="evenodd" d="M611.942 308.089C619.063 325.464 623.325 344.308 624.145 364.035C624.384 369.78 629.241 374.249 634.986 374.01C640.73 373.772 645.199 368.914 644.961 363.17C644.037 340.962 639.236 319.749 631.219 300.188C629.039 294.869 622.95 292.32 617.63 294.5C612.31 296.68 609.762 302.769 611.942 308.089Z" fill="#495366"/>
<path fill-rule="evenodd" clip-rule="evenodd" d="M264.935 257.489C255.253 236.401 249.857 212.945 249.857 188.238C249.857 182.489 245.19 177.822 239.441 177.822C233.692 177.822 229.024 182.489 229.024 188.238C229.024 216.047 235.104 242.446 246.001 266.181C248.4 271.406 254.589 273.7 259.814 271.302C265.039 268.903 267.333 262.714 264.935 257.489Z" fill="#495366"/>
<path fill-rule="evenodd" clip-rule="evenodd" d="M564.873 313.947C574.554 335.035 579.95 358.491 579.95 383.198C579.95 388.947 584.617 393.615 590.367 393.615C596.116 393.615 600.783 388.947 600.783 383.198C600.783 355.39 594.703 328.99 583.806 305.255C581.407 300.03 575.218 297.736 569.993 300.134C564.768 302.533 562.474 308.722 564.873 313.947Z" fill="#495366"/>
<path fill-rule="evenodd" clip-rule="evenodd" d="M443.857 514.867L441.561 701.072C441.236 710.201 444.528 719.093 450.725 725.81C456.959 732.568 465.622 736.573 474.809 736.943C474.813 736.943 474.818 736.944 474.823 736.944C484.009 737.314 492.967 734.02 499.725 727.786C506.483 721.552 510.488 712.889 510.858 703.702C512.693 658.186 519.982 536.408 523.109 484.873C523.109 484.871 523.109 484.869 523.109 484.867C524.114 468.155 522.614 451.387 518.661 435.119C510.186 400.23 494.356 335.076 487.314 306.092C486.684 303.499 488.239 300.878 490.816 300.188C528.5 290.09 626.804 263.75 626.804 263.75C635.685 261.37 643.257 255.56 647.854 247.598C652.451 239.635 653.697 230.173 651.317 221.292C651.316 221.287 651.315 221.283 651.314 221.278C648.934 212.397 643.123 204.826 635.161 200.229C627.198 195.631 617.737 194.386 608.856 196.765C531.389 217.523 283.996 283.811 206.529 304.569C197.648 306.948 190.076 312.758 185.479 320.721C180.882 328.683 179.636 338.146 182.016 347.026C182.017 347.031 182.018 347.035 182.019 347.04C184.399 355.921 190.209 363.493 198.172 368.09C206.134 372.687 215.596 373.933 224.477 371.553C224.477 371.553 309.861 348.674 344.971 339.266C347.591 338.564 350.285 340.119 350.987 342.739C350.987 342.74 378.528 445.521 378.528 445.521C381.048 454.927 380.453 464.896 376.832 473.935L291.453 687.043C284.105 704.668 292.397 724.929 310.013 732.337L310.026 732.342C327.654 739.756 347.952 731.492 355.395 713.885L443.857 514.867ZM339.579 319.143C304.469 328.551 219.085 351.429 219.085 351.429C215.541 352.379 211.766 351.882 208.588 350.047C205.411 348.213 203.092 345.192 202.143 341.648C202.142 341.643 202.141 341.639 202.139 341.634C201.19 338.091 201.687 334.315 203.521 331.137C205.356 327.96 208.377 325.642 211.921 324.692C289.388 303.935 536.78 237.646 614.247 216.889C617.791 215.939 621.568 216.436 624.745 218.271C627.922 220.105 630.241 223.127 631.19 226.67C631.192 226.675 631.192 226.679 631.193 226.684C632.143 230.228 631.646 234.004 629.812 237.181C627.978 240.358 624.955 242.677 621.411 243.626C621.411 243.626 523.108 269.967 485.424 280.064C471.917 283.683 463.768 297.422 467.07 311.01C474.112 339.995 489.942 405.148 498.418 440.037C501.88 454.288 503.193 468.977 502.314 483.617C499.18 535.254 491.88 657.261 490.042 702.863C489.894 706.529 488.296 709.986 485.599 712.473C482.902 714.961 479.327 716.275 475.661 716.127C475.656 716.127 475.653 716.127 475.648 716.127C471.982 715.979 468.525 714.381 466.038 711.684C463.55 708.988 462.236 705.413 462.383 701.747C462.387 701.65 462.39 701.553 462.391 701.456C462.391 701.456 464.064 565.804 464.878 499.78C464.981 491.392 459.175 484.087 450.98 482.295C442.785 480.503 434.459 484.717 431.052 492.383C401.454 558.972 336.299 705.556 336.299 705.556C336.271 705.62 336.243 705.684 336.216 705.749C333.254 712.791 325.144 716.099 318.102 713.138C318.097 713.136 318.093 713.134 318.089 713.132C311.046 710.171 307.738 702.061 310.699 695.018C310.722 694.964 310.745 694.909 310.767 694.854C310.767 694.854 374.778 535.08 396.171 481.682C401.467 468.463 402.337 453.884 398.651 440.129C391.419 413.139 377.829 362.421 371.111 337.347C367.431 323.613 353.313 315.463 339.579 319.143Z" fill="#495366"/>
</g>
<defs>
<clipPath id="clip0_6257_24517">
<rect width="834" height="834" fill="white"/>
</clipPath>
</defs>
</svg>
