<svg width="834" height="834" viewBox="0 0 834 834" fill="none" xmlns="http://www.w3.org/2000/svg">
<g clip-path="url(#clip0_6257_24527)">
<path fill-rule="evenodd" clip-rule="evenodd" d="M833.333 166.667C833.333 74.681 758.653 0 666.667 0H166.667C74.681 0 0 74.681 0 166.667V666.667C0 758.653 74.681 833.333 166.667 833.333H666.667C758.653 833.333 833.333 758.653 833.333 666.667V166.667Z" fill="#F5F3F4"/>
<path d="M401.948 514.952C400.312 514.952 398.677 516.585 398.677 519.856V704.66C398.677 712.835 392.652 718.727 385.594 722.648C378.536 726.569 365.969 729.19 356.157 722.648C350.252 718.71 344.709 711.202 344.709 704.66V379.213L300.553 465.89C295.647 475.702 287.469 483.879 276.022 483.879C264.574 483.879 251.491 472.431 249.855 464.255C248.22 456.078 249.855 447.9 253.126 441.359L336.532 294.173C344.709 279.454 356.157 269.642 370.875 269.642H462.458C477.177 269.642 488.624 279.454 496.802 294.173L580.207 441.359C583.478 447.9 585.114 456.078 583.478 464.255C581.843 472.431 568.759 483.879 557.312 483.879C545.864 483.879 537.687 475.702 532.781 465.89L488.625 379.213V704.66C488.624 711.202 483.081 718.71 477.177 722.648C467.364 729.19 454.797 726.569 447.739 722.648C440.682 718.727 434.657 712.835 434.657 704.66V519.856C434.657 516.585 433.021 514.952 431.386 514.952H401.948ZM417.659 106.702C452.527 106.702 480.836 135.01 480.836 169.878C480.836 204.746 452.527 233.055 417.659 233.055C382.792 233.055 354.483 204.746 354.483 169.878C354.483 135.01 382.792 106.702 417.659 106.702Z" stroke="#495366" stroke-width="20.83" stroke-linejoin="round"/>
</g>
<defs>
<clipPath id="clip0_6257_24527">
<rect width="834" height="834" fill="white"/>
</clipPath>
</defs>
</svg>
