<svg width="281" height="140" viewBox="0 0 281 140" fill="none" xmlns="http://www.w3.org/2000/svg">
<g clip-path="url(#clip0_11244_283)">
<path d="M81.3252 37.3828H92.6803C96.3904 37.3828 99.3135 38.1698 101.45 39.8562C103.586 41.5426 104.71 43.5663 104.71 46.1521C104.71 48.7379 103.811 50.7616 101.899 52.1107C99.988 53.4599 97.2898 54.2468 93.8046 54.2468C92.4555 54.2468 90.8815 54.1344 89.0826 53.9096V62.6789C89.0826 64.5901 89.3075 65.8268 89.8696 66.6138C90.3193 67.2884 91.3312 67.6256 92.6803 67.6256V68.5251H81.4376V67.5132C82.7867 67.5132 83.6862 67.1759 84.2483 66.3889C84.698 65.602 85.0353 64.3653 85.0353 62.6789V43.229C85.0353 41.3178 84.8104 40.0811 84.2483 39.4065C83.7986 38.7319 82.7867 38.2822 81.4376 38.2822V37.3828H81.3252ZM92.7927 38.5071H88.9702V52.448C89.9821 52.7853 91.3312 53.0101 92.7927 53.0101C95.1537 53.0101 96.9525 52.448 98.3016 51.2113C99.6508 49.9746 100.325 48.4006 100.325 46.2645C100.325 44.016 99.6508 42.2172 98.3016 40.7556C97.065 39.2941 95.1537 38.5071 92.7927 38.5071Z" fill="#011F5B"/>
<path d="M124.271 63.4636V64.8128C123.147 66.2743 121.91 67.3986 120.674 67.9607C119.437 68.6353 117.975 68.8601 116.289 68.8601C113.254 68.8601 110.78 67.9607 108.869 66.0495C106.958 64.1382 105.946 61.7772 105.946 58.8541C105.946 55.931 106.845 53.4576 108.756 51.434C110.668 49.4103 112.916 48.3984 115.615 48.3984C117.863 48.3984 119.774 49.1854 121.461 50.647C123.147 52.1085 123.934 53.9074 123.934 56.0435V56.4932H109.768V56.718C109.768 58.8541 110.106 60.653 110.78 62.2269C111.455 63.8009 112.354 65.0376 113.591 65.937C114.828 66.8364 116.064 67.2861 117.413 67.2861C118.65 67.2861 119.774 67.0613 120.674 66.4992C121.573 66.1619 122.81 65.15 124.271 63.4636ZM109.768 55.8186H120.224V55.4813C120.224 53.7949 119.774 52.4458 118.762 51.434C117.751 50.4221 116.514 49.9724 115.052 49.9724C113.478 49.9724 112.242 50.5345 111.342 51.5464C110.443 52.4458 109.881 53.9074 109.768 55.8186Z" fill="#011F5B"/>
<path d="M132.592 48.6406V52.9128C134.391 51.3389 135.74 50.327 136.752 49.6525C137.764 49.0903 138.551 48.7531 139.225 48.7531C140.462 48.7531 141.586 49.2028 142.711 50.2146L141.249 53.5874C139.225 52.4631 137.651 51.901 136.64 51.901C135.515 51.901 134.166 52.688 132.592 54.262V64.8301C132.592 65.8419 132.817 66.6289 133.267 66.9662C133.716 67.3035 134.503 67.5283 135.853 67.5283V68.4277H125.734V67.5283C127.083 67.5283 127.983 67.3035 128.32 66.8538C128.77 66.4041 128.995 65.3922 128.995 63.8182V53.3626C128.995 52.0134 128.77 51.2264 128.32 50.7767C127.87 50.4395 126.746 50.2146 125.06 50.2146V49.3152L131.805 48.7531L132.592 48.6406Z" fill="#011F5B"/>
<path d="M163.172 63.4636V64.8128C162.047 66.2743 160.811 67.3986 159.574 67.9607C158.337 68.6353 156.876 68.8601 155.189 68.8601C152.154 68.8601 149.681 67.9607 147.769 66.0495C145.858 64.1382 144.846 61.7772 144.846 58.8541C144.846 55.931 145.746 53.4576 147.657 51.434C149.568 49.4103 151.817 48.3984 154.515 48.3984C156.763 48.3984 158.675 49.1854 160.361 50.647C162.047 52.1085 162.834 53.9074 162.834 56.0435V56.4932H148.669V56.718C148.669 58.8541 149.006 60.653 149.681 62.2269C150.355 63.8009 151.255 65.0376 152.491 65.937C153.728 66.8364 154.965 67.2861 156.314 67.2861C157.55 67.2861 158.675 67.0613 159.574 66.4992C160.474 66.1619 161.71 65.15 163.172 63.4636ZM148.669 55.8186H159.124V55.4813C159.124 53.7949 158.675 52.4458 157.663 51.434C156.651 50.4221 155.414 49.9724 153.953 49.9724C152.379 49.9724 151.142 50.5345 150.243 51.5464C149.343 52.4458 148.781 53.9074 148.669 55.8186Z" fill="#011F5B"/>
<path d="M175.312 67.5141H175.874V68.4135H165.081V67.5141H166.093C167.105 67.5141 167.779 67.2892 168.116 66.7271C168.454 66.1649 168.678 65.2655 168.678 63.9164V41.7683C168.678 40.7565 168.454 40.0819 168.116 39.7446C167.779 39.4074 167.105 39.1825 166.093 39.1825H164.856V38.1707L171.489 37.4961H172.389V64.8158C172.389 65.8277 172.613 66.6146 173.063 66.9519C173.4 67.4016 174.187 67.5141 175.312 67.5141Z" fill="#011F5B"/>
<path d="M184.869 48.6406V52.688H184.981C185.768 51.4513 186.78 50.5519 188.017 49.7649C189.254 49.0903 190.49 48.6406 191.839 48.6406C193.189 48.6406 194.425 48.9779 195.55 49.7649C196.674 50.5519 197.461 51.5637 197.911 52.9128C199.934 49.9897 202.295 48.6406 204.993 48.6406C206.905 48.6406 208.479 49.2028 209.715 50.327C210.952 51.4513 211.627 53.0253 211.627 55.049V64.7177C211.627 65.7295 211.851 66.5165 212.301 66.8538C212.751 67.1911 213.65 67.4159 214.775 67.4159V68.3153H204.544V67.5283C205.893 67.5283 206.792 67.3035 207.242 66.8538C207.579 66.4041 207.804 65.3922 207.804 63.8182V54.7117C207.804 53.475 207.467 52.4631 206.68 51.7886C205.893 51.114 204.881 50.7767 203.644 50.7767C201.621 50.7767 199.822 52.0134 198.248 54.4868V64.8301C198.248 65.9544 198.473 66.6289 198.922 66.9662C199.372 67.3035 200.271 67.5283 201.396 67.5283V68.4277H191.277V67.5283C192.739 67.5283 193.638 67.3035 193.976 66.8538C194.313 66.4041 194.538 65.3922 194.538 63.8182V54.9365C194.538 53.6998 194.2 52.688 193.413 51.901C192.626 51.114 191.727 50.7767 190.49 50.7767C189.479 50.7767 188.467 51.114 187.455 51.7886C186.443 52.4631 185.656 53.3626 184.981 54.4868V64.9425C184.981 65.9544 185.206 66.6289 185.656 66.9662C186.106 67.3035 187.005 67.5283 188.242 67.5283V68.4277H178.011V67.5283C179.473 67.5283 180.372 67.3035 180.709 66.8538C181.047 66.4041 181.271 65.6171 181.271 64.3804V53.0253C181.271 52.0134 181.047 51.3389 180.597 50.8892C180.147 50.4395 179.473 50.2146 178.573 50.2146H177.336V49.3152L183.97 48.7531H184.869V48.6406Z" fill="#011F5B"/>
<path d="M222.87 69.0853C221.409 69.0853 220.059 68.6356 219.048 67.6238C217.923 66.6119 217.474 65.3753 217.474 64.0261C217.474 62.677 217.923 61.5527 218.823 60.6533C219.722 59.7539 221.633 58.9669 224.444 58.1799C226.243 57.7302 227.48 57.2805 228.042 56.9432V55.4817C228.042 54.1326 227.704 53.0083 226.917 52.1089C226.13 51.2095 225.119 50.8722 223.77 50.8722C222.533 50.8722 221.521 51.2095 220.622 51.9965C219.722 52.7834 219.048 53.7953 218.71 55.032L217.698 54.8071C218.036 53.0083 218.935 51.5468 220.284 50.5349C221.633 49.4106 223.095 48.9609 224.894 48.9609C226.917 48.9609 228.604 49.6355 229.953 50.8722C231.19 52.1089 231.864 53.7953 231.864 56.0438V64.251C231.864 65.3753 231.977 66.1622 232.089 66.612C232.202 67.0617 232.539 67.2865 232.989 67.2865C233.326 67.2865 233.551 67.1741 233.663 66.9492C233.776 66.7244 234 66.1622 234.225 65.4877H235.125C235.012 66.7244 234.675 67.6238 234 68.2984C233.326 68.9729 232.426 69.3102 231.415 69.3102C229.841 69.3102 228.716 68.4108 228.154 66.612C227.255 67.6238 226.355 68.4108 225.568 68.7481C224.781 68.8605 223.882 69.0853 222.87 69.0853ZM228.042 64.5883V58.0675C227.48 58.2924 226.693 58.6296 225.681 58.9669C223.77 59.6415 222.533 60.316 221.971 60.8782C221.409 61.5527 221.184 62.3397 221.184 63.464C221.184 64.3634 221.521 65.2628 222.083 65.9374C222.645 66.612 223.32 66.9492 224.107 66.9492C224.781 66.9492 225.568 66.7244 226.355 66.2747C227.142 65.825 227.704 65.2628 228.042 64.5883Z" fill="#011F5B"/>
<path d="M243.443 48.6406V52.4631C245.692 49.8773 248.053 48.6406 250.414 48.6406C252.325 48.6406 253.786 49.3152 255.023 50.5519C256.26 51.7886 256.934 53.475 256.934 55.6111V64.268C256.934 65.6171 257.159 66.5165 257.609 66.8538C258.059 67.3035 258.958 67.5283 260.195 67.5283V68.4277H249.964V67.5283C251.201 67.5283 252.1 67.4159 252.55 67.0786C252.999 66.7413 253.224 66.0668 253.224 65.1674V55.049C253.224 53.6998 252.775 52.688 251.988 51.7886C251.201 50.8892 250.189 50.5519 248.952 50.5519C247.153 50.5519 245.354 51.7886 243.443 54.262V63.7058C243.443 65.2798 243.668 66.2916 244.005 66.7413C244.455 67.1911 245.242 67.4159 246.591 67.4159V68.3153H236.473V67.5283C237.934 67.5283 238.834 67.3035 239.171 66.8538C239.508 66.4041 239.621 65.3922 239.621 63.8182V52.9128C239.621 51.7886 239.396 51.0016 239.058 50.6643C238.609 50.327 237.822 50.1022 236.473 50.1022V49.2028L242.431 48.6406H243.443Z" fill="#011F5B"/>
<path d="M83.6853 94.166C83.6853 95.9648 84.135 97.314 86.0463 97.314C87.8451 97.314 88.7445 96.1897 88.7445 94.0536V90.4559C88.7445 90.2311 88.7445 90.0062 88.6321 89.7814C88.5197 89.3317 88.1824 89.1068 87.5078 89.1068V88.7695H90.5433V89.1068C89.9812 89.2192 89.5315 89.3317 89.4191 89.7814C89.4191 90.0062 89.3066 90.2311 89.3066 90.4559V94.0536C89.3066 96.8643 87.5078 97.8761 85.9338 97.8761C83.2356 97.8761 82.3362 96.527 82.3362 94.166V90.3435C82.3362 89.1068 82.3362 89.2192 81.2119 89.1068V88.7695H84.6971V89.1068C83.5729 89.2192 83.5729 89.2192 83.5729 90.3435L83.6853 94.166Z" fill="#011F5B"/>
<path d="M97.8506 97.7799C96.2766 95.8687 94.7026 93.9574 93.0162 92.0461V96.4308C93.0162 96.6556 93.0162 96.7681 93.1287 96.9929C93.1287 97.3302 93.4659 97.4426 94.1405 97.5551V97.7799H91.6671V97.5551C92.1168 97.5551 92.4541 97.3302 92.5665 96.9929C92.5665 96.8805 92.679 96.6556 92.679 96.4308V91.8213C92.4541 91.484 92.1168 91.1467 91.5547 91.1467V90.9219H93.3535C94.8151 92.7207 96.389 94.5195 97.8506 96.3184V92.271C97.8506 92.0461 97.8506 91.9337 97.7382 91.7089C97.7382 91.3716 97.4009 91.2592 96.7263 91.1467V90.9219H99.0873V91.1467C98.6376 91.1467 98.3003 91.3716 98.1879 91.7089C98.1879 91.8213 98.0754 92.0461 98.0754 92.271V97.8923L97.8506 97.7799Z" fill="#011F5B"/>
<path d="M102.799 96.5267C102.799 97.4262 102.799 97.4262 103.698 97.5386V97.7634H101V97.5386C101.899 97.4262 101.899 97.4262 101.899 96.5267V92.0297C101.899 91.1302 101.899 91.1303 101 91.0178V90.793H103.586V91.1302C102.686 91.2427 102.686 91.2427 102.686 92.1421V96.5267H102.799Z" fill="#011F5B"/>
<path d="M107.856 91.1467C107.294 91.1467 106.957 91.2592 107.294 92.271C107.632 93.3953 108.306 95.1941 108.756 96.6556C109.43 95.1941 109.993 93.6201 110.555 92.1586C110.78 91.484 110.555 91.2592 109.88 91.2592V91.0343H112.016V91.1467C111.679 91.1467 111.454 91.2592 111.229 91.7089C110.442 93.7325 109.543 95.7562 108.756 97.7799H108.194C107.632 96.0935 106.957 94.1823 106.282 92.4959C105.945 91.484 105.608 91.1467 105.158 91.1467V90.9219H107.856V91.1467Z" fill="#011F5B"/>
<path d="M113.591 97.5386C114.49 97.4262 114.49 97.4262 114.49 96.5267V92.0297C114.49 91.1302 114.49 91.1303 113.591 91.0178V90.793H117.976V92.3669H117.751C117.638 91.58 117.413 91.1302 116.739 91.1302H115.39V93.9409H116.177C116.851 93.9409 117.076 93.7161 117.076 93.0415H117.301V95.1776H117.076C117.076 94.6155 116.851 94.2782 116.177 94.2782H115.39V96.5267C115.39 97.3137 115.727 97.4262 116.626 97.4262C118.088 97.4262 117.976 96.9764 118.425 95.9646H118.65L118.313 97.7634H113.479V97.5386H113.591Z" fill="#011F5B"/>
<path d="M120.451 90.9219H123.374C124.386 90.9219 125.397 91.484 125.397 92.6083C125.397 93.6201 124.723 94.2947 124.048 94.632L125.06 96.0935C125.51 96.7681 126.072 97.5551 126.409 97.6675V97.7799H125.397C124.835 97.7799 124.498 96.6556 123.261 94.7444H122.362V96.5432C122.362 97.4426 122.362 97.4426 123.261 97.5551V97.7799H120.451V97.5551C121.35 97.4426 121.35 97.4426 121.35 96.5432V92.0461C121.35 91.1467 121.35 91.1467 120.451 90.9219ZM122.25 94.4071H123.037C123.936 94.4071 124.273 93.7325 124.273 92.6083C124.273 91.484 123.711 91.1467 122.924 91.1467H122.137L122.25 94.4071Z" fill="#011F5B"/>
<path d="M131.355 92.3669C131.242 91.6924 130.905 91.1302 130.118 91.1302C129.556 91.1302 128.994 91.4675 128.994 92.1421C128.994 92.8167 129.668 93.2664 130.68 93.9409C131.692 94.7279 132.029 95.1776 132.029 96.077C132.029 97.2013 130.793 97.8759 129.668 97.8759C128.994 97.8759 128.544 97.7634 127.982 97.5386L127.87 97.4262V95.9646H128.094C128.207 97.0889 128.881 97.5386 129.668 97.5386C130.343 97.5386 130.905 96.9764 130.905 96.3019C130.905 95.6273 130.568 95.1776 129.106 94.1658C128.544 93.8285 127.87 93.3788 127.87 92.3669C127.87 91.4675 128.881 90.793 130.006 90.793C130.455 90.793 131.018 90.793 131.355 91.0178C131.467 91.0178 131.467 91.1302 131.467 91.1302V92.4794H131.355V92.3669Z" fill="#011F5B"/>
<path d="M135.964 96.5267C135.964 97.4262 135.964 97.4262 136.864 97.5386V97.7634H134.166V97.5386C135.065 97.4262 135.065 97.4262 135.065 96.5267V92.0297C135.065 91.1302 135.065 91.1303 134.166 91.0178V90.793H136.864V91.1302C135.964 91.2427 135.964 91.2427 135.964 92.1421V96.5267Z" fill="#011F5B"/>
<path d="M141.809 96.5432C141.809 97.4426 141.809 97.4426 142.708 97.5551V97.7799H140.01V97.5551C140.909 97.4426 140.909 97.4426 140.909 96.5432V91.1467H140.01C139.111 91.1467 138.998 91.7089 138.661 92.3834H138.436L138.661 90.9219H144.17L144.395 92.3834H144.057C143.72 91.7089 143.495 91.1467 142.708 91.1467H141.809V96.5432Z" fill="#011F5B"/>
<path d="M147.206 97.5386C148.106 97.4262 148.106 97.4262 148.106 96.5267V94.9528L146.532 91.9172C146.195 91.2427 145.97 91.0178 145.52 91.0178V90.793H147.993V91.1302C147.206 91.1302 147.319 91.4675 147.544 92.0297L148.78 94.5031L150.13 92.0297C150.467 91.4675 150.13 91.1302 149.567 91.1302V90.9054H151.591V91.1302C151.366 91.1302 151.029 91.2427 150.804 91.6924L149.118 94.7279C149.005 94.9528 149.005 95.1776 149.005 95.4025V96.5267C149.005 97.4262 149.005 97.4262 149.905 97.5386V97.7634H147.206V97.5386Z" fill="#011F5B"/>
<path d="M156.648 95.402C156.648 93.7156 158.11 91.2422 160.246 91.2422C161.932 91.2422 162.27 92.3665 162.27 93.6031C162.27 95.0647 161.146 97.9878 158.672 97.9878C157.098 97.9878 156.648 96.6387 156.648 95.402ZM161.146 92.9286C161.146 91.5795 160.359 91.5795 160.134 91.5795C158.785 91.5795 157.885 94.0529 157.885 95.7393C157.885 96.4138 157.998 97.6505 158.897 97.6505C160.359 97.5381 161.146 95.1771 161.146 92.9286Z" fill="#011F5B"/>
<path d="M168.344 91.6775L168.006 91.9023H166.32C165.646 94.9379 164.634 98.9852 163.959 101.009H163.397L165.196 91.9023H163.959L164.072 91.3402H165.308C165.983 88.642 168.231 88.3047 168.793 88.3047C169.131 88.3047 169.693 88.3047 169.918 88.5295L169.805 89.429L169.468 89.5414C169.243 89.2041 168.906 88.7544 168.344 88.7544C167.557 88.7544 166.995 89.3165 166.657 90.6657L166.545 91.2278H168.456L168.344 91.6775Z" fill="#011F5B"/>
<path d="M175.986 96.1749C175.986 97.4116 175.986 97.2992 177.11 97.4116V97.7489H173.625V97.4116C174.749 97.2992 174.749 97.2992 174.749 96.1749V90.4412C174.749 89.2045 174.749 89.3169 173.625 89.2045V88.8672H176.998C179.134 88.8672 180.146 89.7666 180.146 91.2282C180.146 93.027 178.459 94.0388 176.548 93.9264V93.7015C178.122 93.7015 178.909 92.8021 178.909 91.3406C178.909 89.879 178.235 89.2045 176.773 89.2045H175.986V96.1749Z" fill="#011F5B"/>
<path d="M181.946 97.5386C182.846 97.4262 182.846 97.4262 182.846 96.5267V92.0297C182.846 91.1302 182.846 91.1303 181.946 91.0178V90.793H186.331V92.3669H186.106C185.994 91.58 185.769 91.1302 185.094 91.1302H183.745V93.9409H184.532C185.207 93.9409 185.432 93.7161 185.432 93.0415H185.656V95.1776H185.432C185.432 94.6155 185.207 94.2782 184.532 94.2782H183.745V96.5267C183.745 97.3137 184.083 97.4262 184.982 97.4262C186.443 97.4262 186.331 96.9764 186.781 95.9646H187.006L186.668 97.7634H181.834L181.946 97.5386Z" fill="#011F5B"/>
<path d="M194.875 97.7799C193.301 95.8687 191.614 93.9574 190.04 92.0461V96.4308C190.04 96.6556 190.04 96.7681 190.153 96.9929C190.153 97.3302 190.49 97.4426 191.164 97.5551V97.7799H188.691V97.5551C189.141 97.5551 189.478 97.3302 189.59 96.9929C189.59 96.8805 189.703 96.6556 189.703 96.4308V91.8213C189.478 91.484 189.141 91.1467 188.579 91.1467V90.9219H190.377C191.839 92.7207 193.413 94.5195 194.875 96.3184V92.271C194.875 92.0461 194.875 91.9337 194.762 91.7089C194.762 91.3716 194.425 91.2592 193.75 91.1467V90.9219H196.224V91.1467C195.774 91.1467 195.437 91.3716 195.324 91.7089C195.324 91.8213 195.212 92.0461 195.212 92.271V97.8923L194.875 97.7799Z" fill="#011F5B"/>
<path d="M203.869 97.7799C202.295 95.8687 200.609 93.9574 199.035 92.0461V96.4308C199.035 96.6556 199.035 96.7681 199.147 96.9929C199.147 97.3302 199.485 97.4426 200.159 97.5551V97.7799H197.686V97.5551C198.135 97.5551 198.473 97.3302 198.585 96.9929C198.585 96.8805 198.698 96.6556 198.698 96.4308V91.8213C198.473 91.484 198.135 91.1467 197.573 91.1467V90.9219H199.372C200.834 92.7207 202.408 94.5195 203.869 96.3184V92.271C203.869 92.0461 203.869 91.9337 203.869 91.7089C203.869 91.3716 203.532 91.2592 202.857 91.1467V90.9219H205.331V91.1467C204.881 91.1467 204.544 91.3716 204.431 91.7089C204.431 91.8213 204.319 92.0461 204.319 92.271V97.8923L203.869 97.7799Z" fill="#011F5B"/>
<path d="M210.277 92.3669C210.164 91.6924 209.827 91.1302 209.04 91.1302C208.478 91.1302 207.916 91.4675 207.916 92.1421C207.916 92.8167 208.59 93.2664 209.602 93.9409C210.614 94.7279 210.951 95.1776 210.951 96.077C210.951 97.2013 209.715 97.8759 208.59 97.8759C207.916 97.8759 207.466 97.7634 206.904 97.5386L206.792 97.4262V95.9646H207.016C207.129 97.0889 207.803 97.5386 208.59 97.5386C209.265 97.5386 209.827 96.9764 209.827 96.3019C209.827 95.6273 209.49 95.1776 208.028 94.1658C207.466 93.8285 206.792 93.3788 206.792 92.3669C206.792 91.4675 207.803 90.793 208.928 90.793C209.377 90.793 209.939 90.793 210.277 91.0178C210.389 91.0178 210.389 91.1302 210.389 91.1302V92.4794H210.277V92.3669Z" fill="#011F5B"/>
<path d="M214.326 97.5386C215.225 97.4262 215.225 97.4262 215.225 96.5267V94.9528L213.651 91.9172C213.314 91.2427 213.089 91.0178 212.639 91.0178V90.793H215.113V91.1302C214.326 91.1302 214.438 91.4675 214.663 92.0297L215.9 94.5031L217.249 92.0297C217.586 91.4675 217.249 91.1302 216.687 91.1302V90.9054H218.71V91.1302C218.485 91.1302 218.148 91.2427 217.923 91.6924L216.237 94.7279C216.124 94.9528 216.124 95.1776 216.124 95.4025V96.5267C216.124 97.4262 216.124 97.4262 217.024 97.5386V97.7634H214.326V97.5386Z" fill="#011F5B"/>
<path d="M220.397 97.5386C221.297 97.4262 221.297 97.4262 221.297 96.5267V92.0297C221.297 91.1302 221.297 91.1303 220.397 91.0178V90.793H223.095V91.1302C222.196 91.2427 222.196 91.2427 222.196 92.1421V96.7516C222.196 97.4262 222.533 97.5386 223.433 97.5386C224.894 97.5386 224.782 97.0889 225.231 96.077H225.456L225.119 97.8759H220.285V97.5386H220.397Z" fill="#011F5B"/>
<path d="M228.491 91.1467C227.929 91.1467 227.592 91.2592 227.929 92.271C228.266 93.3953 228.941 95.1941 229.391 96.6556C230.065 95.1941 230.627 93.6201 231.189 92.1586C231.414 91.484 231.189 91.2592 230.515 91.2592V91.0343H232.651V91.1467C232.314 91.1467 232.089 91.2592 231.864 91.7089C231.077 93.7325 230.177 95.7562 229.391 97.7799H228.941C228.379 96.0935 227.704 94.1823 227.03 92.4959C226.692 91.484 226.355 91.1467 225.905 91.1467V90.9219H228.604V91.1467H228.491Z" fill="#011F5B"/>
<path d="M234.451 95.5149L234.001 96.864C233.889 97.2013 234.113 97.5386 234.451 97.5386V97.7634H232.652V97.5386C232.877 97.5386 233.214 97.4262 233.326 97.0889C233.776 96.1895 234.9 92.9291 235.687 90.793H236.25C236.924 92.8167 237.936 95.8522 238.273 96.7516C238.498 97.3137 238.61 97.651 239.06 97.651V97.8759H236.812V97.651C237.486 97.651 237.486 97.3137 237.374 96.864L236.924 95.6273L234.451 95.5149ZM236.812 95.1776L235.8 91.9172L234.676 95.1776H236.812Z" fill="#011F5B"/>
<path d="M246.592 97.7799C245.018 95.8687 243.332 93.9574 241.758 92.0461V96.4308C241.758 96.6556 241.758 96.7681 241.87 96.9929C241.87 97.3302 242.208 97.4426 242.882 97.5551V97.7799H240.409V97.5551C240.859 97.5551 241.196 97.3302 241.308 96.9929C241.308 96.8805 241.421 96.6556 241.421 96.4308V91.8213C241.196 91.484 240.859 91.1467 240.296 91.1467V90.9219H242.095C243.557 92.7207 245.131 94.5195 246.592 96.3184V92.271C246.592 92.0461 246.592 91.9337 246.48 91.7089C246.48 91.3716 246.143 91.2592 245.468 91.1467V90.9219H247.941V91.1467C247.492 91.1467 247.154 91.3716 247.042 91.7089C247.042 91.8213 246.93 92.0461 246.93 92.271V97.8923L246.592 97.7799Z" fill="#011F5B"/>
<path d="M251.313 96.5267C251.313 97.4262 251.313 97.4262 252.212 97.5386V97.7634H249.514V97.5386C250.414 97.4262 250.414 97.4262 250.414 96.5267V92.0297C250.414 91.1302 250.414 91.1303 249.514 91.0178V90.793H252.212V91.1302C251.313 91.2427 251.313 91.2427 251.313 92.1421V96.5267Z" fill="#011F5B"/>
<path d="M255.361 95.5149L254.911 96.864C254.799 97.2013 255.024 97.5386 255.361 97.5386V97.7634H253.562V97.5386C253.787 97.5386 254.124 97.4262 254.237 97.0889C254.686 96.1895 255.811 92.9291 256.598 90.793H257.16C257.834 92.8167 258.846 95.8522 259.183 96.7516C259.408 97.3137 259.521 97.651 259.97 97.651V97.8759H257.722V97.651C258.396 97.651 258.396 97.3137 258.284 96.864L257.834 95.6273L255.361 95.5149ZM257.834 95.1776L256.822 91.9172L255.698 95.1776H257.834Z" fill="#011F5B"/>
<path d="M81.3252 84.3867H260.196V85.1737H81.3252V84.3867Z" fill="#011F5B"/>
<path d="M85.709 73.5784C85.5966 72.679 85.1469 72.0044 84.135 72.0044C83.348 72.0044 82.6735 72.3417 82.6735 73.3535C82.6735 74.2529 83.5729 74.8151 84.8096 75.7145C86.1587 76.7263 86.6084 77.4009 86.6084 78.4127C86.6084 79.9867 85.0344 80.7737 83.4605 80.7737C82.6735 80.7737 81.8865 80.6613 81.3243 80.324C81.3243 80.324 81.2119 80.2116 81.2119 80.0991V78.3003H81.5492C81.6616 79.7618 82.6735 80.324 83.5729 80.324C84.4723 80.324 85.2593 79.6494 85.2593 78.75C85.2593 77.963 84.8096 77.2885 82.8983 75.9393C82.2238 75.4896 81.3243 74.9275 81.3243 73.5784C81.3243 72.4541 82.561 71.5547 84.0226 71.5547C84.5847 71.5547 85.2593 71.6671 85.8214 71.7795C85.9338 71.7795 85.9338 71.892 85.9338 71.892V73.5784H85.709Z" fill="#011F5B"/>
<path d="M98.4139 78.4119L97.9642 79.9858C97.9642 80.3231 97.7394 80.3231 97.4021 80.4356C96.9524 80.548 96.053 80.7728 94.9287 80.7728C92.3429 80.7728 89.9819 79.5361 89.9819 76.0509C89.9819 74.0272 91.6683 71.4414 95.1536 71.4414C96.3903 71.4414 96.9524 71.6663 97.627 71.8911C97.9642 72.0035 98.0767 72.2284 98.0767 72.3408V74.0272H97.7394C97.7394 73.0154 97.0648 71.8911 95.0411 71.8911C92.6802 71.8911 91.4435 73.5775 91.4435 75.9385C91.4435 78.5243 92.5678 80.3231 95.266 80.3231C96.9524 80.3231 97.7394 79.3113 98.1891 78.2994L98.4139 78.4119Z" fill="#011F5B"/>
<path d="M103.699 79.1038C103.699 80.3405 103.699 80.228 104.823 80.3405V80.6777H101.338V80.3405C102.462 80.228 102.462 80.228 102.462 79.1038V73.37C102.462 72.1333 102.462 72.2457 101.338 72.1333V71.796H104.823V72.0209C103.699 72.1333 103.699 72.1333 103.699 73.2576V75.5061H108.196V73.2576C108.196 72.0209 108.196 72.1333 107.072 72.0209V71.6836H110.557V72.0209C109.433 72.1333 109.433 72.1333 109.433 73.2576V78.9913C109.433 80.228 109.433 80.1156 110.557 80.228V80.5653H107.072V80.228C108.196 80.1156 108.196 80.1156 108.196 78.9913V75.9558H103.699V79.1038Z" fill="#011F5B"/>
<path d="M113.704 76.389C113.704 73.5784 115.84 71.5547 118.538 71.5547C121.349 71.5547 122.923 73.9157 122.923 75.9393C122.923 78.6376 120.899 80.8861 118.089 80.8861C115.615 80.7737 113.704 78.8624 113.704 76.389ZM121.462 76.2766C121.462 73.2411 119.775 72.0044 118.201 72.0044C116.065 72.0044 115.166 73.9157 115.166 75.7145C115.166 78.8624 116.74 80.4364 118.426 80.4364C120.787 80.324 121.462 77.963 121.462 76.2766Z" fill="#011F5B"/>
<path d="M126.181 76.389C126.181 73.5784 128.317 71.5547 131.015 71.5547C133.826 71.5547 135.4 73.9157 135.4 75.9393C135.4 78.6376 133.376 80.8861 130.565 80.8861C128.092 80.7737 126.181 78.8624 126.181 76.389ZM133.938 76.2766C133.938 73.2411 132.252 72.0044 130.678 72.0044C128.542 72.0044 127.642 73.9157 127.642 75.7145C127.642 78.8624 129.216 80.4364 130.903 80.4364C133.264 80.324 133.938 77.963 133.938 76.2766Z" fill="#011F5B"/>
<path d="M138.549 80.3413C139.674 80.2289 139.674 80.2289 139.674 79.1046V73.3709C139.674 72.1342 139.674 72.2466 138.549 72.1342V71.7969H142.035V72.0217C140.91 72.1342 140.91 72.1342 140.91 73.2584V79.217C140.91 80.1165 141.36 80.2289 142.597 80.2289C144.508 80.2289 144.396 79.6668 144.958 78.3176H145.295L144.958 80.6786H138.662L138.549 80.3413Z" fill="#011F5B"/>
<path d="M153.839 76.389C153.839 73.5784 155.975 71.5547 158.673 71.5547C161.484 71.5547 163.058 73.9157 163.058 75.9393C163.058 78.6376 161.034 80.8861 158.224 80.8861C155.75 80.7737 153.839 78.8624 153.839 76.389ZM161.596 76.2766C161.596 73.2411 159.91 72.0044 158.336 72.0044C156.2 72.0044 155.3 73.9157 155.3 75.7145C155.3 78.8624 156.874 80.4364 158.561 80.4364C160.922 80.324 161.596 77.963 161.596 76.2766Z" fill="#011F5B"/>
<path d="M168.567 76.0682H169.804C170.591 76.0682 170.928 75.731 170.928 74.944H171.265V77.6422H170.928C170.928 76.8552 170.591 76.4055 169.804 76.4055H168.567V78.9913C168.567 80.228 168.567 80.1156 169.691 80.228V80.5653H166.206V80.228C167.33 80.1156 167.33 80.1156 167.33 78.9913V73.2576C167.33 72.0209 167.33 72.1333 166.206 72.0209V71.6836H171.94V73.7073H171.603C171.49 72.8079 171.265 72.0209 170.253 72.0209H168.567V76.0682Z" fill="#011F5B"/>
<path d="M182.396 73.7073V78.8789C182.396 79.1038 182.396 79.3286 182.509 79.5535C182.621 80.0032 182.958 80.228 183.633 80.228V80.5653H180.71V80.228C181.272 80.1156 181.722 80.0032 181.834 79.5535C181.834 79.3286 181.946 79.1038 181.946 78.8789V73.1451C181.722 72.583 181.047 72.0209 180.485 72.0209V71.6836H182.958L186.556 78.8789L190.266 71.6836H192.29V72.0209C191.39 72.0209 191.053 72.583 191.053 73.37V79.1038C191.053 80.3405 191.053 80.228 192.177 80.3405V80.6777H188.692V80.3405C189.816 80.228 189.816 80.228 189.816 79.1038V73.7073L186.331 80.7902H186.106L182.396 73.7073Z" fill="#011F5B"/>
<path d="M195.101 80.3413C196.225 80.2289 196.225 80.2289 196.225 79.1046V73.3709C196.225 72.1342 196.225 72.2466 195.101 72.1342V71.7969H200.835V73.8206H200.498C200.385 72.9211 200.16 72.1342 199.148 72.1342H197.462V75.8442H198.586C199.373 75.8442 199.711 75.507 199.711 74.72H200.048V77.4182H199.711C199.711 76.6312 199.373 76.1815 198.586 76.1815H197.462V79.1046C197.462 80.2289 197.912 80.2289 199.148 80.2289C201.06 80.2289 200.947 79.6668 201.509 78.3176H201.847L201.509 80.6786H195.213V80.3413H195.101Z" fill="#011F5B"/>
<path d="M204.431 71.6836H208.703C211.851 71.6836 213.425 73.2576 213.425 75.9558C213.425 78.5416 211.514 80.6777 208.366 80.6777H204.431V80.3405C205.555 80.228 205.555 80.228 205.555 79.1038V73.37C205.555 72.1333 205.555 72.2457 204.431 72.1333V71.6836ZM206.792 78.8789C206.792 80.228 207.129 80.3405 208.366 80.3405C210.39 80.3405 211.964 79.2162 211.964 76.0682C211.964 73.5949 210.615 72.2457 208.141 72.2457H206.792V78.8789Z" fill="#011F5B"/>
<path d="M218.936 79.1046C218.936 80.3413 218.936 80.2289 220.06 80.3413V80.6786H216.575V80.3413C217.699 80.2289 217.699 80.2289 217.699 79.1046V73.3709C217.699 72.1342 217.699 72.2466 216.575 72.1342V71.7969H220.06V72.0217C218.936 72.1342 218.936 72.1342 218.936 73.2584V79.1046Z" fill="#011F5B"/>
<path d="M231.751 78.4119L231.413 79.9858C231.413 80.3231 231.189 80.3231 230.851 80.4356C230.402 80.548 229.502 80.7728 228.378 80.7728C225.792 80.7728 223.431 79.5361 223.431 76.0509C223.431 74.0272 225.118 71.4414 228.603 71.4414C229.839 71.4414 230.402 71.6663 231.076 71.8911C231.413 72.0035 231.526 72.2284 231.526 72.3408V74.0272H231.189C231.189 73.0154 230.514 71.8911 228.49 71.8911C226.129 71.8911 224.893 73.5775 224.893 75.9385C224.893 78.5243 226.017 80.3231 228.715 80.3231C230.402 80.3231 231.189 79.3113 231.751 78.4119Z" fill="#011F5B"/>
<path d="M237.035 79.1046C237.035 80.3413 237.035 80.2289 238.16 80.3413V80.6786H234.674V80.3413C235.799 80.2289 235.799 80.2289 235.799 79.1046V73.3709C235.799 72.1342 235.799 72.2466 234.674 72.1342V71.7969H238.16V72.0217C237.035 72.1342 237.035 72.1342 237.035 73.2584V79.1046Z" fill="#011F5B"/>
<path d="M249.065 80.6613C247.041 78.3003 244.905 75.7145 242.769 73.2411V78.8624C242.769 79.0873 242.769 79.3121 242.881 79.537C242.994 79.9867 243.331 80.2116 244.23 80.2116V80.5488H241.082V80.2116C241.644 80.0991 242.094 79.9867 242.207 79.537C242.207 79.3121 242.319 79.0873 242.319 78.8624V72.7914C241.982 72.3417 241.532 71.892 240.857 71.892V71.5547H243.218C245.13 73.9157 247.153 76.2766 249.065 78.5252V73.2411C249.065 73.0162 249.065 72.7914 248.952 72.5665C248.84 72.1168 248.502 71.892 247.603 71.892V71.5547H250.751V72.0044C250.189 72.1168 249.739 72.2293 249.627 72.679C249.627 72.9038 249.514 73.1287 249.514 73.3535V80.5488H249.065V80.6613Z" fill="#011F5B"/>
<path d="M253.45 80.3413C254.574 80.2289 254.574 80.2289 254.574 79.1046V73.3709C254.574 72.1342 254.574 72.2466 253.45 72.1342V71.7969H259.184V73.8206H258.847C258.734 72.9211 258.509 72.1342 257.498 72.1342H255.811V75.8442H256.935C257.722 75.8442 258.06 75.507 258.06 74.72H258.397V77.4182H258.06C258.06 76.6312 257.722 76.1815 256.935 76.1815H255.811V79.1046C255.811 80.2289 256.261 80.2289 257.498 80.2289C259.409 80.2289 259.296 79.6668 259.859 78.3176H260.196L259.859 80.6786H253.563V80.3413H253.45Z" fill="#011F5B"/>
<path d="M75.5909 36.2812H20.7266V63.601C20.7266 75.5182 27.2473 84.1751 32.8687 89.2343C38.9397 94.8556 45.6853 98.116 47.9339 98.6782L48.1587 98.7906L48.3836 98.6782C50.6321 98.2284 57.3777 94.9681 63.4488 89.2343C68.9577 84.0627 75.5909 75.5182 75.5909 63.601C75.5909 63.3761 75.5909 36.2812 75.5909 36.2812Z" fill="white"/>
<path d="M22.0762 37.7578C22.0762 37.7578 22.1886 53.61 22.0762 53.61H74.2422C74.2422 46.1898 74.2422 37.7578 74.2422 37.7578H22.0762ZM36.0171 47.7638L36.242 47.9887C36.3544 48.1011 36.3544 48.2135 36.3544 48.3259C36.3544 48.4384 36.3544 48.5508 36.242 48.6632C36.1295 48.7756 36.1295 48.7756 36.0171 48.8881C35.9047 49.0005 35.7922 49.1129 35.7922 49.2254V50.2372H30.0585H24.3247V49.2254C24.3247 49.1129 24.2123 49.0005 24.0999 48.8881C23.9874 48.7756 23.9874 48.7756 23.875 48.6632C23.7626 48.5508 23.7626 48.4384 23.7626 48.3259C23.7626 48.2135 23.7626 48.1011 23.875 47.9887C23.9874 47.8762 23.9874 47.8762 24.0999 47.7638C24.2123 47.6514 24.3247 47.5389 24.3247 47.4265V44.2786C24.3247 44.1661 24.2123 44.0537 24.0999 43.9413C23.9874 43.8289 23.875 43.8289 23.875 43.7164C23.7626 43.604 23.7626 43.4916 23.7626 43.3792C23.7626 43.2667 23.7626 43.1543 23.875 43.0419C23.875 42.9294 23.9874 42.9294 24.0999 42.817C24.2123 42.7046 24.3247 42.5922 24.3247 42.4797V41.4679H24.4371C25.1117 41.4679 25.6738 41.4679 26.1235 41.243C26.236 41.1306 26.4608 41.0182 26.5732 41.0182C26.9105 40.7933 27.3602 40.5685 27.9224 40.5685C28.3721 40.5685 28.8218 40.7933 29.2715 40.9058C29.4963 41.0182 29.8336 41.1306 30.0585 41.1306H30.1709C30.3958 41.1306 30.6206 41.0182 30.9579 40.9058C31.1827 40.6809 31.6325 40.5685 32.1946 40.5685C32.7567 40.5685 33.2064 40.7933 33.5437 41.0182C33.6561 41.1306 33.881 41.243 33.9934 41.243C34.4431 41.4679 35.0053 41.4679 35.6798 41.4679H35.7922V42.4797C35.7922 42.5922 35.9047 42.7046 36.0171 42.817L36.242 43.0419C36.3544 43.1543 36.3544 43.2667 36.3544 43.3792C36.3544 43.4916 36.3544 43.604 36.242 43.7164C36.242 43.8289 36.1295 43.8289 36.0171 43.9413C35.9047 44.0537 35.7922 44.1661 35.7922 44.2786V47.4265C35.7922 47.6514 35.9047 47.6514 36.0171 47.7638ZM58.0528 49.4502C57.1533 50.9118 55.4669 51.249 55.3545 51.249C55.0172 51.3615 54.68 51.3615 54.3427 51.3615C52.5438 51.3615 50.8574 50.5745 49.171 49.6751C48.9462 49.5626 48.7213 49.4502 48.4965 49.3378C47.3722 48.7756 45.9107 47.8762 44.674 47.8762C44.3367 47.8762 43.9994 47.9887 43.6621 48.1011V48.2135C43.6621 48.3259 43.6621 48.5508 43.5497 48.6632C43.3248 49.2254 42.6503 49.7875 42.313 50.0123C41.526 50.5745 40.6266 51.1366 39.5023 51.1366C39.2775 51.1366 39.1651 51.1366 39.0526 51.0242C38.8278 50.9118 38.7153 50.7993 38.6029 50.6869C38.4905 50.5745 38.4905 50.462 38.4905 50.462C38.4905 50.3496 38.4905 50.3496 38.3781 50.2372V50.1248H38.2656C37.8159 50.0123 37.5911 49.6751 37.5911 49.3378C37.5911 49.1129 37.8159 48.8881 37.9284 48.6632C38.2656 48.3259 38.4905 47.9887 38.0408 47.6514L37.9284 47.5389C37.8159 47.5389 37.8159 47.4265 37.8159 47.4265C37.4786 47.0892 37.7035 46.1898 37.8159 45.7401C37.9284 45.178 38.1532 44.6159 38.4905 44.0537C38.9402 43.2667 39.3899 42.3673 40.0645 41.8052C40.739 41.243 40.1769 41.9176 40.2893 42.1425L40.4017 42.3673L40.6266 42.03C40.8515 41.4679 41.0763 41.1306 41.526 40.9058C41.9757 40.6809 42.4254 41.0182 42.6503 41.1306L42.7627 41.243L42.8751 41.1306C42.8751 40.9058 43.1 40.5685 43.5497 40.5685C43.9994 40.5685 44.4491 40.9058 44.5615 41.0182L44.674 41.1306L44.7864 41.0182C45.0112 40.7933 45.5734 40.4561 46.1355 40.5685C46.6976 40.6809 46.8101 41.1306 46.9225 41.243V41.3555H47.0349C47.2598 41.243 47.7095 41.1306 48.1592 41.3555C48.4965 41.5803 48.4965 41.8052 48.4965 42.03V42.1425H48.6089C48.9462 42.03 49.5083 42.03 49.958 42.3673C50.2953 42.7046 50.2953 43.0419 50.1829 43.2667V43.3792H50.2953C50.6326 43.3792 50.9699 43.3792 51.1947 43.7164C51.3072 43.9413 51.3072 44.2786 51.1947 44.391V44.5034H51.3072C51.532 44.5034 51.7569 44.6159 51.8693 44.8407C51.9817 45.0656 51.8693 45.2904 51.7569 45.6277V45.7401H51.8693C51.9817 45.8525 52.319 45.965 52.4314 46.1898C52.5438 46.5271 52.5438 46.8644 52.4314 47.2017V47.3141C52.7687 47.6514 53.2184 47.9887 53.5557 48.2135C54.3427 48.7756 55.4669 49.1129 56.3664 48.4384C56.7036 48.2135 56.8161 47.7638 56.7036 47.3141C56.5912 46.9768 56.3664 46.6395 56.0291 46.6395C55.4669 46.5271 54.9048 47.0892 54.5675 47.6514C54.5675 47.6514 54.5675 47.6514 54.4551 47.6514C54.1178 46.752 54.1178 46.0774 54.4551 45.5153C54.68 45.0656 55.2421 44.7283 55.9166 44.6159H56.0291V44.5034C56.0291 43.4916 56.2539 42.7046 56.8161 42.2549C57.1533 42.03 57.7155 41.6928 58.6149 41.8052C57.9403 43.4916 58.0528 44.0537 58.5025 45.4028C58.5025 45.5153 58.6149 45.6277 58.6149 45.7401C58.7273 47.4265 58.6149 48.5508 58.0528 49.4502ZM72.2185 47.7638C72.331 47.8762 72.331 47.8762 72.4434 47.9887C72.5558 48.1011 72.5558 48.2135 72.5558 48.3259C72.5558 48.4384 72.5558 48.5508 72.4434 48.6632C72.331 48.7756 72.331 48.7756 72.2185 48.8881C72.1061 49.0005 71.9937 49.1129 71.9937 49.2254V50.2372H66.2599H60.5262V49.2254C60.5262 49.1129 60.4137 49.0005 60.3013 48.8881C60.1889 48.7756 60.1889 48.7756 60.0764 48.6632C59.964 48.5508 59.964 48.4384 59.964 48.3259C59.964 48.2135 59.964 48.1011 60.0764 47.9887C60.1889 47.8762 60.1889 47.8762 60.3013 47.7638C60.4137 47.6514 60.5262 47.5389 60.5262 47.4265V44.2786C60.5262 44.1661 60.4137 44.0537 60.3013 43.9413C60.1889 43.8289 60.1889 43.8289 60.0764 43.7164C59.964 43.604 59.964 43.4916 59.964 43.3792C59.964 43.2667 59.964 43.1543 60.0764 43.0419C60.1889 42.9294 60.1889 42.9294 60.3013 42.817C60.4137 42.7046 60.5262 42.5922 60.5262 42.4797V41.4679H60.6386C61.3131 41.4679 61.8753 41.4679 62.325 41.243C62.4374 41.1306 62.6623 41.0182 62.7747 41.0182C63.112 40.7933 63.4492 40.5685 64.1238 40.5685C64.5735 40.5685 65.0232 40.7933 65.4729 40.9058C65.6978 41.0182 66.0351 41.1306 66.2599 41.1306H66.3723C66.5972 41.1306 66.8221 41.0182 67.1593 40.9058C67.3842 40.6809 67.8339 40.5685 68.2836 40.5685C68.8457 40.5685 69.2954 40.7933 69.6327 41.0182C69.7452 41.1306 69.97 41.243 70.0824 41.243C70.5321 41.4679 71.0943 41.4679 71.7688 41.4679H71.8813V42.4797C71.8813 42.5922 71.9937 42.7046 72.1061 42.817C72.2185 42.9294 72.2185 42.9294 72.331 43.0419C72.4434 43.1543 72.4434 43.2667 72.4434 43.3792C72.4434 43.4916 72.4434 43.604 72.331 43.7164C72.2185 43.8289 72.2185 43.8289 72.1061 43.9413C71.9937 44.0537 71.8813 44.1661 71.8813 44.2786V47.4265C71.9937 47.6514 72.1061 47.6514 72.2185 47.7638Z" fill="#990000"/>
<path d="M40.0645 47.0703C40.2894 47.0703 40.4018 47.0703 40.6266 47.2952C40.7391 47.2952 40.7391 47.4076 40.7391 47.4076C40.8515 47.52 40.8515 47.7449 40.7391 47.8573C40.6266 47.9697 40.5142 48.0822 40.4018 48.0822C40.1769 48.1946 39.8397 48.5319 39.6148 48.307C39.5024 48.1946 39.7272 48.0822 39.6148 47.6324C39.3899 47.1827 39.7272 47.0703 40.0645 47.0703Z" fill="#011F5B"/>
<path d="M54.3422 51.4561C52.5433 51.4561 50.8569 50.6691 49.1705 49.7697C48.9457 49.6572 48.7208 49.5448 48.496 49.4324C47.1469 48.6454 45.0107 47.5211 43.774 48.3081C43.774 48.533 43.774 48.6454 43.6616 48.7578C43.4368 49.32 42.7622 49.8821 42.4249 50.1069C41.6379 50.6691 40.7385 51.2312 39.6143 51.2312C39.3894 51.2312 39.277 51.2312 39.1645 51.1188C38.9397 51.0064 38.7148 50.8939 38.6024 50.7815C38.49 50.6691 38.49 50.5566 38.3776 50.4442C38.3776 50.3318 38.2651 50.2194 38.2651 50.2194C37.8154 50.1069 37.4781 49.7697 37.4781 49.32C37.4781 48.9827 37.703 48.7578 37.9279 48.533C38.2651 48.1957 38.3776 47.9708 38.0403 47.6336L37.9279 47.5211C37.8154 47.5211 37.8154 47.4087 37.703 47.4087C37.2533 46.959 37.4781 46.172 37.703 45.6099C37.9279 45.0477 38.1527 44.4856 38.3776 43.9235C38.8273 43.1365 39.277 42.2371 39.9515 41.5625H40.064C40.064 41.5625 40.1764 41.5625 40.1764 41.6749C40.1764 41.6749 40.5137 42.1246 40.7385 42.6868C41.9752 42.0122 43.6616 41.8998 43.8865 41.8998C45.0107 41.8998 46.4723 42.0122 47.8214 43.024C48.6084 43.6986 49.283 44.4856 49.9575 45.1602C50.1824 45.385 50.2948 45.6099 50.5197 45.7223C51.5315 46.8466 52.5433 47.746 53.4428 48.4205C54.2297 48.9827 55.354 49.2075 56.141 48.6454C56.3659 48.4205 56.5907 47.9708 56.4783 47.6336C56.3659 47.2963 56.141 47.0714 55.9161 46.959C55.354 46.8466 54.9043 47.4087 54.567 47.9708L54.4546 48.0833C54.3422 48.0833 54.3422 48.0833 54.3422 47.9708C54.0049 47.0714 54.0049 46.2844 54.3422 45.7223C54.6795 45.2726 55.2416 44.8229 55.9161 44.8229C55.9161 43.811 56.141 43.024 56.7031 42.4619C57.0404 42.1246 57.6026 41.8998 58.6144 42.0122C58.6144 42.0122 58.7268 42.0122 58.7268 42.1246V42.2371C58.0523 43.811 58.2771 44.4856 58.6144 45.8347C58.6144 45.9471 58.7268 46.0596 58.7268 46.172C59.0641 47.5211 58.9517 48.6454 58.3895 49.5448C57.4901 51.0064 55.6913 51.3436 55.6913 51.3436C55.0167 51.3436 54.6795 51.4561 54.3422 51.4561ZM44.7859 47.6336C46.135 47.6336 47.5966 48.4205 48.7208 49.0951L49.3954 49.4324C51.4191 50.4442 53.3303 51.3436 55.4664 51.0064C55.4664 51.0064 57.1528 50.6691 57.9398 49.32C58.502 48.533 58.502 47.4087 58.2771 46.2844C58.2771 46.172 58.1647 46.0596 58.1647 45.9471C57.8274 44.7105 57.6026 43.9235 58.2771 42.3495C57.6026 42.3495 57.1528 42.5743 56.928 42.7992C56.4783 43.2489 56.2534 43.9235 56.2534 45.0477C56.141 45.0477 56.0286 45.0477 55.9161 45.0477C55.2416 45.1602 54.6795 45.385 54.4546 45.8347C54.2297 46.2844 54.2297 46.8466 54.4546 47.5211C54.7919 47.0714 55.354 46.5093 56.0286 46.6217C56.4783 46.7341 56.8156 47.0714 56.928 47.5211C57.0404 48.0833 56.928 48.6454 56.4783 48.8702C55.5789 49.6572 54.2297 49.32 53.4428 48.6454C52.4309 47.9708 51.5315 47.0714 50.4072 45.8347C50.1824 45.6099 50.07 45.385 49.8451 45.2726C49.1705 44.4856 48.496 43.6986 47.709 43.1365C46.4723 42.1246 45.0107 42.0122 43.9989 42.0122C43.3243 42.0122 41.8628 42.2371 40.9634 42.7992C41.3007 43.3613 41.5255 44.0359 41.5255 44.598V44.9353C42.2001 44.4856 42.9871 44.8229 43.4368 45.2726C43.5492 45.385 43.6616 45.4974 43.774 45.7223C43.9989 45.9471 44.1113 46.2844 44.3362 46.5093V46.6217C44.3362 46.6217 44.3362 46.7341 44.2238 46.7341C44.2238 46.7341 43.774 47.0714 43.2119 47.5211C43.0995 47.6335 42.9871 47.6335 42.9871 47.746L43.5492 47.8584C43.9989 47.746 44.3362 47.6336 44.7859 47.6336ZM40.064 41.8998C39.5018 42.4619 39.0521 43.2489 38.7148 44.0359C38.3776 44.598 38.2651 45.1602 38.0403 45.6099C37.9279 45.9471 37.703 46.7341 38.0403 47.0714L38.1527 47.1838L38.2651 47.2963C38.8273 47.8584 38.49 48.3081 38.1527 48.6454C38.0403 48.8702 37.8154 48.9827 37.8154 49.2075C37.8154 49.6572 38.2651 49.7697 38.49 49.7697C38.6024 49.7697 38.6024 49.8821 38.6024 49.8821C38.6024 49.9945 38.6024 50.1069 38.7148 50.2194C38.7148 50.3318 38.8273 50.3318 38.8273 50.4442C38.9397 50.5566 39.0521 50.6691 39.277 50.6691C39.3894 50.6691 39.5018 50.7815 39.6143 50.7815C40.6261 50.7815 41.5255 50.2194 42.3125 49.7697C42.7622 49.4324 43.2119 48.9827 43.4368 48.533C43.4368 48.4205 43.5492 48.3081 43.5492 48.1957L42.7622 48.0833C42.6498 48.0833 42.6498 47.9708 42.6498 47.9708C42.6498 47.8584 42.7622 47.746 42.9871 47.5211C43.0995 47.5211 43.0995 47.4087 43.2119 47.4087C43.5492 47.0714 43.8865 46.8466 44.1113 46.7341C43.8865 46.5093 43.774 46.2844 43.5492 46.0596C43.4368 45.8347 43.3243 45.7223 43.2119 45.6099C42.8746 45.2726 42.2001 45.0477 41.6379 45.2726C41.4131 45.385 41.1882 45.6099 41.0758 45.7223C40.9634 45.8347 40.7385 46.0596 40.5137 46.172C40.4012 46.172 40.4012 46.172 40.2888 46.172C40.2888 46.0596 40.2888 46.0596 40.2888 45.9471C40.2888 45.9471 40.2888 45.9471 40.4012 45.8347C40.6261 45.6099 41.1882 45.0477 41.1882 44.7105C41.1882 43.9235 40.4012 42.4619 40.064 41.8998Z" fill="#011F5B"/>
<path d="M38.9376 50.2381C38.8252 50.2381 38.6003 50.2381 38.4879 50.2381C38.3755 50.2381 38.3755 50.1257 38.3755 50.0133C38.3755 49.9008 38.4879 49.9008 38.6003 49.9008C39.3873 50.0133 40.3992 49.9008 41.411 48.889C41.5234 48.7766 41.5234 48.7766 41.6359 48.889C41.7483 49.0014 41.7483 49.0014 41.6359 49.1139C40.8489 49.9008 39.9495 50.2381 38.9376 50.2381Z" fill="#011F5B"/>
<path d="M52.319 47.7318C52.2066 47.7318 52.2066 47.7318 52.319 47.7318C52.2066 47.7318 52.0941 47.6194 52.2066 47.507C52.4314 47.0573 52.4314 46.8324 52.319 46.4951C52.0941 46.1578 51.7568 46.0454 51.7568 46.0454C51.7568 46.0454 51.6444 46.0454 51.6444 45.933V45.8206C51.7568 45.7081 51.8693 45.2584 51.7568 45.0336C51.6444 44.8087 51.3071 44.8087 51.1947 44.6963C51.1947 44.6963 51.0823 44.6963 51.0823 44.5839V44.4714C51.0823 44.359 51.1947 44.0217 51.0823 43.7969C50.8574 43.4596 50.1829 43.572 50.1829 43.572H50.0704V43.4596C50.0704 43.4596 50.2953 42.8975 49.8456 42.4478C49.3959 41.998 48.4965 42.2229 48.4965 42.2229H48.384V42.1105C48.384 42.1105 48.4965 41.6608 48.1592 41.4359C47.5971 41.0986 47.0349 41.5483 47.0349 41.5483H46.9225L46.8101 41.4359C46.8101 41.4359 46.6976 40.7614 46.1355 40.6489C45.5734 40.5365 44.8988 41.2111 44.8988 41.2111H44.7864C44.7864 41.2111 44.674 41.2111 44.674 41.0986C44.674 41.0986 44.2242 40.5365 43.6621 40.5365C43.1 40.5365 42.9875 41.0986 42.9875 41.0986L42.8751 41.2111H42.7627C42.7627 41.2111 42.2006 40.7614 41.7509 40.8738C41.0763 41.0986 40.9639 41.8856 40.8514 42.2229C40.8514 42.3353 40.739 42.3353 40.6266 42.3353C40.5142 42.3353 40.5142 42.2229 40.5142 42.1105C40.6266 41.7732 40.8514 40.8738 41.6384 40.5365C42.0881 40.3116 42.6503 40.6489 42.8751 40.7614C42.9876 40.5365 43.3248 40.1992 43.7745 40.1992C44.3367 40.1992 44.674 40.5365 44.8988 40.7614C45.1237 40.5365 45.6858 40.1992 46.2479 40.1992C46.6976 40.3116 47.0349 40.6489 47.1473 40.9862C47.3722 40.8738 47.9343 40.6489 48.384 40.9862C48.4965 41.4359 48.4965 41.7732 48.4965 41.998C48.8337 41.8856 49.5083 41.8856 49.958 42.3353C50.2953 42.6726 50.2953 43.1223 50.2953 43.3472C50.6326 43.3472 51.0823 43.3472 51.3071 43.6845C51.4196 43.9093 51.4196 44.2466 51.3071 44.4714C51.532 44.5839 51.8693 44.6963 51.8693 45.0336C51.9817 45.2584 51.8693 45.7081 51.7568 45.933C51.9817 46.0454 52.2066 46.1578 52.319 46.4951C52.5438 46.8324 52.4314 47.2821 52.2066 47.7318H52.319Z" fill="#011F5B"/>
<path d="M51.5316 49.8798C51.4192 49.8798 51.4192 49.7674 51.4192 49.6549C51.5316 49.0928 51.1943 48.9804 50.8571 48.868C50.7446 48.868 50.7446 48.868 50.6322 48.7555C50.5198 48.6431 50.4074 48.4183 50.4074 48.3058C50.4074 48.081 50.4074 47.8561 50.1825 47.6313C49.8452 47.294 49.2831 47.5188 49.2831 47.5188H49.1707C49.1707 47.5188 49.0582 47.4064 49.1707 47.4064C49.1707 47.4064 49.2831 46.7319 48.9458 46.507C48.6085 46.2821 48.0464 46.2821 47.8215 46.3946H47.7091C47.7091 46.3946 47.5967 46.2821 47.7091 46.2821C47.7091 45.9449 47.5967 45.6076 47.2594 45.3827C46.9221 45.0454 46.5848 45.0454 46.36 45.1579C45.6854 45.4952 45.4606 45.4952 44.786 45.0454C44.5612 44.933 44.3363 44.8206 44.1115 44.933C43.8866 45.0454 43.6617 45.2703 43.4369 45.6076C43.4369 45.72 43.3245 45.72 43.212 45.72C43.0996 45.72 43.0996 45.6076 43.0996 45.4952C43.3245 45.0454 43.6617 44.8206 43.999 44.7082C44.3363 44.5957 44.5612 44.7082 44.8984 44.933C45.4606 45.3827 45.573 45.2703 46.1351 45.0454C46.4724 44.8206 46.9221 44.933 47.2594 45.1579C47.5967 45.3827 47.8215 45.72 47.8215 46.1697C48.1588 46.1697 48.6085 46.1697 48.9458 46.3946C49.2831 46.7319 49.2831 47.0691 49.2831 47.4064C49.5079 47.4064 49.9576 47.294 50.2949 47.6313C50.5198 47.8561 50.5198 48.1934 50.5198 48.5307V48.7555H50.6322C50.9695 48.868 51.5316 48.9804 51.4192 49.8798H51.5316Z" fill="#011F5B"/>
<path d="M36.1293 47.6172C36.0169 47.5048 35.9044 47.5048 35.9044 47.3923V44.2444C35.9044 44.132 36.0169 44.132 36.1293 44.0195C36.2417 43.9071 36.3541 43.9071 36.3541 43.7947C36.4666 43.6823 36.4666 43.5698 36.4666 43.4574C36.4666 43.345 36.4666 43.2325 36.3541 43.1201C36.2417 42.8953 36.2417 42.7828 36.1293 42.7828C36.0169 42.6704 35.9044 42.6704 35.9044 42.558V41.4337H35.6796C35.1174 41.4337 34.4429 41.4337 33.9932 41.2089C33.8807 41.0964 33.6559 41.0964 33.5435 40.984C33.2062 40.7592 32.7565 40.5343 32.0819 40.5343C31.6322 40.5343 31.0701 40.7592 30.7328 40.8716C30.5079 40.8716 30.2831 40.984 30.0582 40.984C29.8334 40.984 29.6085 40.8716 29.3837 40.7592C28.934 40.6467 28.4843 40.4219 27.9221 40.4219C27.2476 40.4219 26.9103 40.6467 26.4606 40.8716C26.3481 40.984 26.2357 41.0964 26.1233 41.2089C25.6736 41.3213 24.999 41.3213 24.4369 41.3213H24.212V42.4456C24.212 42.558 24.0996 42.558 23.9872 42.6704C23.8748 42.7828 23.7623 42.8953 23.7623 43.0077C23.6499 43.1201 23.6499 43.2325 23.6499 43.345C23.6499 43.4574 23.6499 43.5698 23.7623 43.6823C23.7623 43.7947 23.8748 43.9071 23.9872 43.9071C24.0996 44.0195 24.212 44.0195 24.212 44.132V47.2799C24.212 47.3923 24.0996 47.3923 23.9872 47.5048C23.8748 47.7296 23.7623 47.842 23.7623 47.9545C23.6499 48.0669 23.6499 48.1793 23.6499 48.2918C23.6499 48.4042 23.6499 48.5166 23.7623 48.629C23.8748 48.7415 23.8748 48.8539 23.9872 48.8539C24.0996 48.9663 24.212 48.9663 24.212 49.0787V50.0906H30.0582H35.9044V49.0787C35.9044 48.9663 36.0169 48.9663 36.1293 48.8539C36.2417 48.7415 36.3541 48.7415 36.3541 48.629C36.4666 48.5166 36.4666 48.4042 36.4666 48.2918C36.4666 48.1793 36.4666 48.0669 36.3541 47.9545C36.2417 47.842 36.2417 47.7296 36.1293 47.6172ZM30.9576 41.0964C31.2949 40.984 31.7446 40.7592 32.1943 40.7592C32.7565 40.7592 33.0938 40.984 33.431 41.2089C33.5435 41.3213 33.7683 41.4337 33.9932 41.5461C33.9932 41.5461 34.218 41.6586 34.3305 41.6586V48.4042C34.1056 48.4042 33.7683 48.4042 33.431 48.4042C32.9813 48.4042 32.4192 48.4042 31.9695 48.2918C31.8571 48.2918 31.6322 48.1793 31.5198 48.1793C31.0701 48.0669 30.6204 47.842 30.2831 47.842V41.3213C30.5079 41.3213 30.7328 41.2089 30.9576 41.0964ZM26.2357 41.5461C26.4606 41.4337 26.573 41.3213 26.7979 41.2089C27.1351 40.984 27.4724 40.7592 27.9221 40.7592C28.3718 40.7592 28.8215 40.984 29.1588 41.0964C29.3837 41.2089 29.721 41.3213 29.8334 41.3213V47.7296C29.4961 47.7296 29.0464 47.842 28.5967 48.0669C28.4843 48.0669 28.2594 48.1793 28.147 48.1793C27.5848 48.4042 27.1351 48.4042 26.6854 48.4042C26.3481 48.4042 26.0109 48.4042 25.786 48.4042V41.6586C25.8984 41.6586 26.1233 41.5461 26.2357 41.5461ZM36.1293 48.2918V48.5166C36.1293 48.629 36.0169 48.629 35.9044 48.629C35.792 48.7415 35.5671 48.8539 35.5671 49.1912V49.8657H30.0582H24.5493V49.1912C24.5493 48.9663 24.3245 48.7415 24.212 48.629C24.0996 48.629 24.0996 48.5166 23.9872 48.5166C23.9872 48.4042 23.8748 48.4042 23.9872 48.2918C23.9872 48.1793 23.9872 48.1793 23.9872 48.0669C23.9872 47.9545 24.0996 47.9545 24.212 47.9545C24.3245 47.842 24.5493 47.7296 24.5493 47.3923V44.2444C24.5493 44.0195 24.3245 43.7947 24.212 43.6823C24.0996 43.6823 24.0996 43.5698 23.9872 43.5698C23.9872 43.4574 23.8748 43.4574 23.9872 43.345C23.9872 43.2325 23.9872 43.2325 23.9872 43.1201C23.9872 43.0077 24.0996 43.0077 24.212 43.0077C24.3245 42.8953 24.5493 42.7828 24.5493 42.4456V41.771H25.3363V49.0787H29.3837C29.4961 49.3036 29.721 49.5284 30.0582 49.5284C30.3955 49.5284 30.6204 49.3036 30.7328 49.0787H34.7802V41.6586H35.5671V42.4456C35.5671 42.6704 35.792 42.8953 35.9044 43.0077C36.0169 43.0077 36.0169 43.1201 36.1293 43.1201C36.1293 43.2325 36.2417 43.2325 36.1293 43.345V43.5698C36.1293 43.6823 36.0169 43.6823 35.9044 43.6823C35.792 43.7947 35.5671 43.9071 35.5671 44.2444V47.3923C35.5671 47.6172 35.792 47.842 35.9044 47.9545C36.0169 47.9545 36.0169 48.0669 36.1293 48.0669V48.2918Z" fill="#011F5B"/>
<path d="M72.2196 47.6172C72.1072 47.6172 72.1072 47.5048 72.1072 47.3923V44.2444C72.1072 44.132 72.1072 44.0195 72.2196 43.9071C72.332 43.7947 72.4445 43.7947 72.4445 43.6823C72.5569 43.5698 72.5569 43.4574 72.5569 43.345C72.5569 43.2325 72.5569 43.1201 72.4445 43.0077C72.4445 42.8953 72.332 42.7828 72.2196 42.7828C72.1072 42.6704 72.1072 42.558 72.1072 42.4456V41.3213H71.8823C71.3202 41.3213 70.6456 41.3213 70.1959 41.0964C70.0835 40.984 69.8586 40.984 69.7462 40.8716C69.4089 40.6467 68.9592 40.4219 68.2847 40.4219C67.835 40.4219 67.2728 40.6467 66.9355 40.7592C66.7107 40.8716 66.3734 40.984 66.261 40.984C66.0361 40.984 65.8113 40.8716 65.5864 40.7592C65.1367 40.6467 64.687 40.4219 64.2373 40.4219C63.5627 40.4219 63.2255 40.6467 62.7758 40.8716C62.6633 40.984 62.4385 41.0964 62.3261 41.0964C61.8763 41.3213 61.3142 41.3213 60.6396 41.3213H60.4148V42.4456C60.4148 42.558 60.3024 42.558 60.1899 42.6704C60.0775 42.7828 59.9651 42.7828 59.9651 42.8953C59.8527 43.1201 59.7402 43.2325 59.7402 43.345C59.7402 43.4574 59.7402 43.5698 59.8527 43.6823C59.9651 43.7947 60.0775 43.9071 60.1899 43.9071C60.3024 44.0195 60.4148 44.0195 60.4148 44.132V47.2799C60.4148 47.3923 60.3024 47.3923 60.1899 47.5048C60.0775 47.6172 59.9651 47.6172 59.9651 47.7296C59.8527 47.842 59.8527 47.9545 59.8527 48.0669C59.8527 48.1793 59.8527 48.2918 59.9651 48.4042C60.0775 48.5166 60.0775 48.629 60.1899 48.629C60.3024 48.7415 60.4148 48.7415 60.4148 48.8539V49.8657H66.261H72.1072V48.8539C72.1072 48.7415 72.2196 48.7415 72.332 48.629C72.4445 48.5166 72.5569 48.5166 72.5569 48.4042C72.6693 48.2918 72.6693 48.1793 72.6693 48.0669C72.6693 47.9545 72.6693 47.842 72.5569 47.7296C72.4445 47.842 72.332 47.7296 72.2196 47.6172ZM67.048 41.0964C67.3853 40.984 67.835 40.7592 68.2847 40.7592C68.8468 40.7592 69.1841 40.984 69.5214 41.2089C69.6338 41.3213 69.8586 41.4337 70.0835 41.5461C70.1959 41.5461 70.3084 41.6586 70.5332 41.6586V48.4042C70.3084 48.4042 69.9711 48.4042 69.6338 48.4042C69.1841 48.4042 68.622 48.4042 68.1722 48.2918C68.0598 48.2918 67.835 48.1793 67.7225 48.1793C67.2728 48.0669 66.8231 47.842 66.4858 47.842V41.3213C66.5983 41.3213 66.8231 41.2089 67.048 41.0964ZM62.3261 41.5461C62.5509 41.4337 62.6633 41.3213 62.8882 41.2089C63.2255 40.984 63.5627 40.7592 64.1249 40.7592C64.5746 40.7592 65.0243 40.984 65.3616 41.0964C65.5864 41.2089 65.8113 41.3213 66.0361 41.3213V47.7296C65.6989 47.7296 65.2491 47.842 64.7994 48.0669C64.687 48.0669 64.4622 48.1793 64.3497 48.1793C63.7876 48.4042 63.2255 48.4042 62.7758 48.4042C62.4385 48.4042 62.1012 48.4042 61.8763 48.4042V41.6586C62.1012 41.6586 62.2136 41.5461 62.3261 41.5461ZM72.332 48.2918V48.5166C72.332 48.629 72.2196 48.629 72.1072 48.629C71.9948 48.7415 71.7699 48.8539 71.7699 49.1912V49.8657H66.261H60.7521V49.1912C60.7521 48.9663 60.5272 48.7415 60.4148 48.629C60.3024 48.629 60.3024 48.5166 60.1899 48.5166C60.1899 48.4042 60.0775 48.4042 60.1899 48.2918C60.1899 48.1793 60.1899 48.1793 60.1899 48.0669C60.1899 47.9545 60.3024 47.9545 60.4148 47.9545C60.5272 47.842 60.7521 47.7296 60.7521 47.3923V44.2444C60.7521 44.0195 60.5272 43.7947 60.4148 43.6823C60.3024 43.6823 60.3024 43.5698 60.1899 43.5698C60.1899 43.4574 60.0775 43.4574 60.1899 43.345C60.1899 43.2325 60.1899 43.2325 60.1899 43.1201C60.1899 43.0077 60.3024 43.0077 60.4148 43.0077C60.5272 42.8953 60.7521 42.7828 60.7521 42.4456V41.771H61.5391V49.0787H65.5864C65.6989 49.416 65.9237 49.5285 66.261 49.5285C66.5983 49.5285 66.8231 49.3036 66.9355 49.0787H70.9829V41.6586H71.7699V42.4456C71.7699 42.6704 71.9948 42.8953 72.1072 43.0077C72.2196 43.0077 72.2196 43.1201 72.332 43.1201C72.332 43.2325 72.4445 43.2325 72.332 43.345V43.5698C72.332 43.6823 72.2196 43.6823 72.1072 43.6823C71.9948 43.7947 71.7699 43.9071 71.7699 44.2444V47.3923C71.7699 47.6172 71.9948 47.842 72.1072 47.9545C72.2196 47.9545 72.2196 48.0669 72.332 48.0669C72.2196 48.1793 72.332 48.1793 72.332 48.2918Z" fill="#011F5B"/>
<path d="M74.5799 37.4023H21.7393V63.7102C21.7393 75.2902 28.1476 83.6098 33.5441 88.669C39.3903 94.0655 46.0235 97.3259 48.1596 97.7756C50.1832 97.3259 56.8164 94.0655 62.7751 88.669C68.1715 83.7222 74.5799 75.2902 74.5799 63.7102C74.5799 63.3729 74.5799 37.4023 74.5799 37.4023ZM73.7929 38.0769V53.2545H22.4138C22.4138 46.9586 22.4138 39.7633 22.4138 38.0769H73.7929ZM32.6447 78.8878C30.8458 77.089 30.8458 74.2783 32.6447 72.4795C34.4435 70.6807 37.2542 70.6807 39.053 72.4795C40.8518 74.2783 40.8518 77.089 39.053 78.8878C37.2542 80.6867 34.4435 80.6867 32.6447 78.8878ZM62.2129 88.1068C56.1419 93.7282 49.7335 96.6513 48.0471 97.101C46.3607 96.6513 40.0648 93.8406 33.8814 88.1068C33.7689 87.9944 33.5441 87.882 33.4316 87.6571L48.0471 72.1422L62.6626 87.6571C62.5502 87.7696 62.4378 87.882 62.2129 88.1068ZM43.5501 64.4972C43.5501 62.0238 45.5737 60.0001 48.0471 60.0001C50.5205 60.0001 52.5442 62.0238 52.5442 64.4972C52.5442 66.9706 50.5205 68.9943 48.0471 68.9943C45.5737 68.9943 43.5501 66.9706 43.5501 64.4972ZM63.562 78.8878C61.7632 80.6867 58.9525 80.6867 57.1537 78.8878C55.3549 77.089 55.3549 74.2783 57.1537 72.4795C58.9525 70.6807 61.7632 70.6807 63.562 72.4795C65.3609 74.2783 65.3609 77.089 63.562 78.8878ZM70.8698 76.6393L48.1596 54.6036L25.3369 76.6393C23.5381 72.9292 22.4138 68.657 22.4138 63.7102C22.4138 63.5978 22.4138 59.1007 22.4138 53.9291H73.7929V63.7102C73.7929 68.5446 72.6686 72.9292 70.8698 76.6393Z" fill="#011F5B"/>
</g>
<defs>
<clipPath id="clip0_11244_283">
<rect width="239.469" height="67.4561" fill="white" transform="translate(20.7256 36.2734)"/>
</clipPath>
</defs>
</svg>
