<svg width="512" height="512" viewBox="0 0 512 512" fill="none" xmlns="http://www.w3.org/2000/svg">
<path d="M501.303 132.766C495.416 110.736 478.068 93.3888 456.038 87.5008C416.106 76.8008 256 76.8008 256 76.8008C256 76.8008 95.893 76.8008 55.961 87.5008C33.935 93.3888 16.584 110.736 10.697 132.766C0 172.694 0 256.004 0 256.004C0 256.004 0 339.312 10.697 379.236C16.584 401.266 33.935 418.618 55.961 424.505C95.893 435.201 256 435.201 256 435.201C256 435.201 416.106 435.201 456.038 424.505C478.068 418.618 495.416 401.266 501.303 379.236C511.999 339.312 511.999 256.004 511.999 256.004C511.999 256.004 511.999 172.694 501.303 132.766ZM204.797 332.805V179.202L337.816 256.004L204.797 332.805Z" fill="#495366"/>
</svg>
