<svg width="512" height="512" viewBox="0 0 512 512" fill="none" xmlns="http://www.w3.org/2000/svg">
<g clip-path="url(#clip0_6257_24389)">
<path d="M473.304 -1.35352C494.184 -1.35352 511.189 15.1795 511.189 35.5725V473.823C511.189 494.216 494.184 510.778 473.304 510.778H36.8453C16.0063 510.778 -0.927734 494.216 -0.927734 473.823V35.5725C-0.927734 15.1795 16.0063 -1.35352 36.8453 -1.35352H473.304ZM435.475 435.035V301.001C435.475 235.179 421.263 184.574 344.355 184.574C307.4 184.574 282.616 204.837 272.488 224.05H271.448V190.639H198.637V435.035H274.503V314.157C274.503 282.274 280.534 251.384 320.057 251.384C359.038 251.384 359.525 287.845 359.525 316.186V435.035H435.475ZM150.986 190.639H74.9523V435.035H150.986V190.639ZM112.989 69.1505C88.5943 69.1505 68.9233 88.8855 68.9233 113.197C68.9233 137.515 88.5943 157.249 112.989 157.249C137.288 157.249 157.015 137.515 157.015 113.197C157.015 88.8855 137.288 69.1505 112.989 69.1505Z" fill="#495366"/>
</g>
<defs>
<clipPath id="clip0_6257_24389">
<rect width="512" height="512" fill="white"/>
</clipPath>
</defs>
</svg>
