<?xml version="1.0" encoding="UTF-8" standalone="no"?><!DOCTYPE svg PUBLIC "-//W3C//DTD SVG 1.1//EN" "http://www.w3.org/Graphics/SVG/1.1/DTD/svg11.dtd"><svg width="100%" height="100%" viewBox="0 0 453 446" version="1.1" xmlns="http://www.w3.org/2000/svg" xmlns:xlink="http://www.w3.org/1999/xlink" xml:space="preserve" xmlns:serif="http://www.serif.com/" style="fill-rule:evenodd;clip-rule:evenodd;stroke-linejoin:round;stroke-miterlimit:2;"><path d="M435.422,423.338c0,5.179 -4.208,9.375 -9.375,9.375l-400,-0c-5.167,-0 -9.375,-4.196 -9.375,-9.375c0,-5.18 4.208,-9.375 9.375,-9.375l400,-0c5.167,-0 9.375,4.195 9.375,9.375Zm-43.708,-26.5c5.166,-0 9.375,-4.2 9.375,-9.375c-0,-5.18 -4.209,-9.375 -9.375,-9.375l-331.334,-0c-5.166,-0 -9.375,4.195 -9.375,9.375c0,5.175 4.209,9.375 9.375,9.375l331.334,-0Zm-86.292,-211.5c5.208,-0 9.375,4.195 9.375,9.375l0,161.829c0,5.179 -4.167,9.375 -9.375,9.375c-5.167,-0 -9.375,-4.196 -9.375,-9.375l0,-161.829c0,-5.18 4.208,-9.375 9.375,-9.375Zm-43.292,9.375c0,-5.18 -4.208,-9.375 -9.375,-9.375c-5.166,-0 -9.375,4.195 -9.375,9.375l0,161.829c0,5.179 4.209,9.375 9.375,9.375c5.167,-0 9.375,-4.196 9.375,-9.375l0,-161.829Zm-62.041,-9.375c5.166,-0 9.375,4.195 9.375,9.375l-0,161.829c-0,5.179 -4.209,9.375 -9.375,9.375c-5.167,-0 -9.375,-4.196 -9.375,-9.375l-0,-161.829c-0,-5.18 4.208,-9.375 9.375,-9.375Zm-43.292,9.375c0,-5.18 -4.208,-9.375 -9.375,-9.375c-5.167,-0 -9.375,4.195 -9.375,9.375l0,161.829c0,5.179 4.208,9.375 9.375,9.375c5.167,-0 9.375,-4.196 9.375,-9.375l0,-161.829Zm-62.042,-9.375c5.167,-0 9.375,4.195 9.375,9.375l0,161.829c0,5.179 -4.208,9.375 -9.375,9.375c-5.166,-0 -9.375,-4.196 -9.375,-9.375l0,-161.829c0,-5.18 4.209,-9.375 9.375,-9.375Zm272.709,9.375c-0,-5.18 -4.167,-9.375 -9.375,-9.375c-5.167,-0 -9.375,4.195 -9.375,9.375l-0,161.829c-0,5.179 4.208,9.375 9.375,9.375c5.208,-0 9.375,-4.196 9.375,-9.375l-0,-161.829Zm33.625,-32.442c-0,5.175 -4.209,9.375 -9.375,9.375l-331.334,-0c-5.166,-0 -9.375,-4.2 -9.375,-9.375c0,-5.179 4.209,-9.375 9.375,-9.375l331.334,-0c5.166,-0 9.375,4.196 9.375,9.375Zm29.125,-26.854c4.333,-0 8.083,-2.963 9.125,-7.171c1,-4.208 -1,-8.567 -4.834,-10.542l-202.75,-104.166c-2.666,-1.375 -5.875,-1.384 -8.541,-0.025l-205.584,104.166c-3.875,1.963 -5.875,6.321 -4.875,10.542c1,4.221 4.792,7.196 9.125,7.196l408.334,-0Zm-369.084,-18.75l166.292,-84.267l164.042,84.267l-330.334,-0Zm194.084,-33.404c-0,15.895 -12.875,28.783 -28.792,28.783c-15.875,-0 -28.792,-12.888 -28.792,-28.783c0,-15.896 12.917,-28.784 28.792,-28.784c15.917,0 28.792,12.888 28.792,28.784Z" style="fill:#6390d6;"/><path d="M43.889,147.917c-3.352,3.836 -5.384,8.858 -5.384,14.354c0,12.075 9.82,21.875 21.875,21.875l15.225,-0c-1.737,3.131 -2.725,6.733 -2.725,10.567l0,161.829c0,3.228 0.701,6.292 1.963,9.046l-14.463,-0c-12.055,-0 -21.875,9.79 -21.875,21.875c0,5.325 1.91,10.207 5.08,14l-17.538,-0c-12.055,-0 -21.875,9.79 -21.875,21.875c0,12.084 9.82,21.875 21.875,21.875c0,-0 400,-0 400,-0c12.056,-0 21.875,-9.791 21.875,-21.875c0,-12.085 -9.819,-21.875 -21.875,-21.875l-17.538,-0c3.17,-3.793 5.08,-8.675 5.08,-14c-0,-12.085 -9.82,-21.875 -21.875,-21.875l-13.697,-0c1.253,-2.754 1.947,-5.818 1.947,-9.046c-0,-0 -0,-161.829 -0,-161.829c-0,-3.834 -0.978,-7.436 -2.705,-10.567l14.455,-0c12.055,-0 21.875,-9.8 21.875,-21.875c-0,-5.496 -2.031,-10.518 -5.384,-14.354l22.009,-0c10.086,-0 18.834,-6.872 21.259,-16.668c0.009,-0.038 0.018,-0.075 0.027,-0.113c2.329,-9.801 -2.342,-19.944 -11.269,-24.544l-202.763,-104.173c-6.21,-3.202 -13.701,-3.216 -19.928,-0.045c0.024,-0.012 -205.559,104.155 -205.559,104.155c-9.035,4.576 -13.721,14.73 -11.389,24.574c2.335,9.853 11.173,16.814 21.288,16.814l22.009,-0Zm391.533,275.421c0,5.179 -4.208,9.375 -9.375,9.375l-400,-0c-5.167,-0 -9.375,-4.196 -9.375,-9.375c0,-5.18 4.208,-9.375 9.375,-9.375l400,-0c5.167,-0 9.375,4.195 9.375,9.375Zm-43.708,-26.5c5.166,-0 9.375,-4.2 9.375,-9.375c-0,-5.18 -4.209,-9.375 -9.375,-9.375l-331.334,-0c-5.166,-0 -9.375,4.195 -9.375,9.375c0,5.175 4.209,9.375 9.375,9.375l331.334,-0Zm-86.292,-211.5c5.208,-0 9.375,4.195 9.375,9.375l0,161.829c0,5.179 -4.167,9.375 -9.375,9.375c-5.167,-0 -9.375,-4.196 -9.375,-9.375l0,-161.829c0,-5.18 4.208,-9.375 9.375,-9.375Zm-43.292,9.375c0,-5.18 -4.208,-9.375 -9.375,-9.375c-5.166,-0 -9.375,4.195 -9.375,9.375l0,161.829c0,5.179 4.209,9.375 9.375,9.375c5.167,-0 9.375,-4.196 9.375,-9.375l0,-161.829Zm-62.041,-9.375c5.166,-0 9.375,4.195 9.375,9.375l-0,161.829c-0,5.179 -4.209,9.375 -9.375,9.375c-5.167,-0 -9.375,-4.196 -9.375,-9.375l-0,-161.829c-0,-5.18 4.208,-9.375 9.375,-9.375Zm-43.292,9.375c0,-5.18 -4.208,-9.375 -9.375,-9.375c-5.167,-0 -9.375,4.195 -9.375,9.375l0,161.829c0,5.179 4.208,9.375 9.375,9.375c5.167,-0 9.375,-4.196 9.375,-9.375l0,-161.829Zm-62.042,-9.375c5.167,-0 9.375,4.195 9.375,9.375l0,161.829c0,5.179 -4.208,9.375 -9.375,9.375c-5.166,-0 -9.375,-4.196 -9.375,-9.375l0,-161.829c0,-5.18 4.209,-9.375 9.375,-9.375Zm272.709,9.375c-0,-5.18 -4.167,-9.375 -9.375,-9.375c-5.167,-0 -9.375,4.195 -9.375,9.375l-0,161.829c-0,5.179 4.208,9.375 9.375,9.375c5.208,-0 9.375,-4.196 9.375,-9.375l-0,-161.829Zm-239.192,-10.567l-14.366,-0c1.736,3.131 2.724,6.733 2.724,10.567c0,-0 0,161.829 0,161.829c0,3.228 -0.7,6.292 -1.962,9.046l12.842,-0c-1.262,-2.754 -1.963,-5.818 -1.963,-9.046l0,-161.829c0,-3.834 0.988,-7.436 2.725,-10.567Zm52.667,-0l-14.367,-0c1.737,3.131 2.725,6.733 2.725,10.567l0,161.829c0,3.228 -0.7,6.292 -1.962,9.046l12.841,-0c-1.262,-2.754 -1.962,-5.818 -1.962,-9.046c-0,-0 -0,-161.829 -0,-161.829c-0,-3.834 0.988,-7.436 2.725,-10.567Zm52.666,-0l-14.366,-0c1.737,3.131 2.725,6.733 2.725,10.567l-0,161.829c-0,3.228 -0.701,6.292 -1.963,9.046l12.842,-0c-1.262,-2.754 -1.963,-5.818 -1.963,-9.046c0,-0 0,-161.829 0,-161.829c0,-3.834 0.988,-7.436 2.725,-10.567Zm52.667,-0l-14.366,-0c1.736,3.131 2.724,6.733 2.724,10.567l0,161.829c0,3.228 -0.7,6.292 -1.962,9.046l12.842,-0c-1.262,-2.754 -1.963,-5.818 -1.963,-9.046l0,-161.829c0,-3.834 0.988,-7.436 2.725,-10.567Zm52.667,-0l-14.347,-0c1.727,3.131 2.705,6.733 2.705,10.567c0,-0 0,161.829 0,161.829c0,3.228 -0.693,6.292 -1.947,9.046l12.826,-0c-1.262,-2.754 -1.962,-5.818 -1.962,-9.046l-0,-161.829c-0,-3.834 0.988,-7.436 2.725,-10.567Zm62.15,-21.875c-0,5.175 -4.209,9.375 -9.375,9.375l-331.334,-0c-5.166,-0 -9.375,-4.2 -9.375,-9.375c0,-5.179 4.209,-9.375 9.375,-9.375l331.334,-0c5.166,-0 9.375,4.196 9.375,9.375Zm29.125,-26.854c4.333,-0 8.083,-2.963 9.125,-7.171c1,-4.208 -1,-8.567 -4.834,-10.542l-202.75,-104.166c-2.666,-1.375 -5.875,-1.384 -8.541,-0.025l-205.584,104.166c-3.875,1.963 -5.875,6.321 -4.875,10.542c1,4.221 4.792,7.196 9.125,7.196l408.334,-0Zm-369.084,-18.75l166.292,-84.267l164.042,84.267l-330.334,-0Zm194.084,-33.404c-0,15.895 -12.875,28.783 -28.792,28.783c-15.875,-0 -28.792,-12.888 -28.792,-28.783c0,-15.896 12.917,-28.784 28.792,-28.784c15.917,0 28.792,12.888 28.792,28.784Zm8.229,-18.307c2.735,5.515 4.271,11.732 4.271,18.307c-0,7.628 -2.067,14.773 -5.676,20.904l77.736,-0l-76.331,-39.211Zm-149.991,39.211l77.368,-0c-3.616,-6.131 -5.69,-13.276 -5.69,-20.904c0,-6.202 1.371,-12.084 3.826,-17.357l-75.504,38.261Z" style="fill:#f4f9fc;"/></svg>