<?xml version="1.0" encoding="UTF-8" standalone="no"?><!DOCTYPE svg PUBLIC "-//W3C//DTD SVG 1.1//EN" "http://www.w3.org/Graphics/SVG/1.1/DTD/svg11.dtd"><svg width="100%" height="100%" viewBox="0 0 478 421" version="1.1" xmlns="http://www.w3.org/2000/svg" xmlns:xlink="http://www.w3.org/1999/xlink" xml:space="preserve" xmlns:serif="http://www.serif.com/" style="fill-rule:evenodd;clip-rule:evenodd;stroke-linejoin:round;stroke-miterlimit:2;"><path d="M158.604,77.345c0,-7.391 3.317,-19.387 14.696,-29.52c11.142,-9.921 30.808,-18.742 64.596,-18.659l1.554,0c33.792,-0.083 53.454,8.738 64.596,18.659c11.383,10.133 14.7,22.129 14.7,29.52l-0,10.042l-160.142,0l0,-10.042Zm3.613,-41.966c15.1,-13.446 39.35,-23.096 76.458,-22.875c37.104,-0.221 61.358,9.429 76.454,22.875c15.159,13.496 20.284,30.129 20.284,41.966l-0,10.042l93.837,0c10.792,0 19.958,4.321 26.333,11.808c6.209,7.355 9.25,17.188 9.25,27.717l0,246.975c0,7.346 -4.333,15.679 -10,21.829c-5.875,6.384 -14.75,12.142 -25.583,12.142l-381.146,-0c-10.846,-0 -19.729,-5.758 -25.608,-12.142c-5.667,-6.15 -9.996,-14.487 -9.996,-21.829l0,-246.975c0,-10.529 3.05,-20.362 9.279,-27.717c6.35,-7.487 15.525,-11.808 26.325,-11.808l93.834,0l-0,-10.042c-0,-11.837 5.125,-28.47 20.279,-41.966Zm267.033,355.812l-381.146,0c-4.737,0 -9.487,-2.575 -13.35,-6.766c-4.075,-4.425 -5.587,-8.909 -5.587,-10.538l-0,-227.7c2.796,4.817 5.816,10.021 8.9,15.313c11.987,20.575 25.237,43.083 29.15,48.762c4.491,6.517 11.225,12.454 18.808,16.771c7.583,4.321 16.575,7.342 25.717,7.342l83.441,-0l0,30.979c0,5.962 1.842,11.775 6.146,16.121c4.325,4.362 10.208,6.312 16.471,6.312l41.746,0c6.262,0 12.15,-1.95 16.471,-6.312c4.308,-4.346 6.15,-10.159 6.15,-16.121l-0,-30.979l83.458,-0c9.125,-0 18.125,-3.021 25.708,-7.342c7.584,-4.317 14.292,-10.254 18.792,-16.771c3.917,-5.679 17.167,-28.187 29.167,-48.762c3.083,-5.292 6.083,-10.496 8.875,-15.313l-0,227.7c-0,1.629 -1.5,6.113 -5.584,10.538c-3.833,4.191 -8.625,6.766 -13.333,6.766Zm-398.121,-274.908l-0.133,-0.229c0.904,-2.396 2.1,-4.429 3.5,-6.079c3.066,-3.621 7.529,-5.921 13.608,-5.921l381.146,-0c6.083,-0 10.542,2.3 13.583,5.921c1.417,1.65 2.625,3.683 3.5,6.079c0,-0 -3.125,5.45 -5.291,9.179c-4.292,7.45 -10.125,17.496 -16.167,27.875c-12.208,20.975 -25.042,42.692 -28.458,47.696c-2.875,4.166 -7.625,8.483 -13.334,11.75c-5.75,3.262 -11.916,5.154 -17.458,5.154l-83.458,-0l-0,-19.438c-0,-4.387 -1.034,-9.9 -5.329,-14.245c-4.305,-4.355 -10.413,-6.055 -17.292,-6.055l-41.746,0c-6.875,0 -12.983,1.7 -17.287,6.055c-4.296,4.345 -5.33,9.858 -5.33,14.245l0,19.438l-83.441,-0c-5.575,-0 -11.738,-1.892 -17.467,-5.154c-5.729,-3.267 -10.463,-7.584 -13.333,-11.75c-3.446,-5.004 -16.25,-26.721 -28.475,-47.696c-6.046,-10.379 -11.867,-20.425 -16.171,-27.875c-2.154,-3.729 -3.929,-6.804 -5.167,-8.95Zm186.671,78.354l41.746,0c4.379,0 5.412,1.079 5.437,1.104c0.042,0.042 0.517,0.521 0.517,2.529l0,67.084c0,2.583 -0.758,3.821 -1.321,4.387c-0.546,0.554 -1.804,1.379 -4.633,1.379l-41.746,0c-2.825,0 -4.083,-0.825 -4.633,-1.379c-0.563,-0.566 -1.317,-1.804 -1.317,-4.387l0,-67.084c0,-2.008 0.475,-2.487 0.512,-2.529l0.005,0c0.033,-0.037 1.083,-1.104 5.433,-1.104Z" style="fill:#6390d6;"/><path d="M129.497,74.887l-81.393,0c-14.732,0 -27.196,6.01 -35.858,16.223c-0.002,0.002 -0.003,0.004 -0.005,0.006c-8.063,9.519 -12.241,22.168 -12.241,35.796l-0,246.975c-0,10.119 5.492,21.822 13.302,30.298c7.961,8.644 20.116,16.173 34.802,16.173l381.146,-0c14.673,-0 26.82,-7.529 34.778,-16.174c7.809,-8.476 13.305,-20.174 13.305,-30.297l0,-246.975c0,-13.622 -4.166,-26.266 -12.198,-35.78c-0.011,-0.013 -0.023,-0.027 -0.034,-0.04c-8.691,-10.207 -21.139,-16.205 -35.851,-16.205l-81.397,0c-0.643,-14.23 -6.953,-33.299 -24.411,-48.843c-16.778,-14.944 -43.546,-26.272 -84.767,-26.04c-41.225,-0.232 -67.989,11.096 -84.771,26.039c-0,0.001 -0,0.001 -0.001,0.001c-17.453,15.544 -23.763,34.613 -24.406,48.843Zm32.72,-39.508c15.1,-13.446 39.35,-23.096 76.458,-22.875c37.104,-0.221 61.358,9.429 76.454,22.875c15.159,13.496 20.284,30.129 20.284,41.966l-0,10.042l93.837,0c10.792,0 19.958,4.321 26.333,11.808c6.209,7.355 9.25,17.188 9.25,27.717l0,246.975c0,7.346 -4.333,15.679 -10,21.829c-5.875,6.384 -14.75,12.142 -25.583,12.142l-381.146,-0c-10.846,-0 -19.729,-5.758 -25.608,-12.142c-5.667,-6.15 -9.996,-14.487 -9.996,-21.829l0,-246.975c0,-10.529 3.05,-20.362 9.279,-27.717c6.35,-7.487 15.525,-11.808 26.325,-11.808l93.834,0l-0,-10.042c-0,-11.837 5.125,-28.47 20.279,-41.966Zm267.033,355.812l-381.146,0c-4.737,0 -9.487,-2.575 -13.35,-6.766c-4.075,-4.425 -5.587,-8.909 -5.587,-10.538l-0,-227.7c2.796,4.817 5.816,10.021 8.9,15.313c11.987,20.575 25.237,43.083 29.15,48.762c4.491,6.517 11.225,12.454 18.808,16.771c7.583,4.321 16.575,7.342 25.717,7.342l83.441,-0l0,30.979c0,5.962 1.842,11.775 6.146,16.121c4.325,4.362 10.208,6.312 16.471,6.312l41.746,0c6.262,0 12.15,-1.95 16.471,-6.312c4.308,-4.346 6.15,-10.159 6.15,-16.121l-0,-30.979l83.458,-0c9.125,-0 18.125,-3.021 25.708,-7.342c7.584,-4.317 14.292,-10.254 18.792,-16.771c3.917,-5.679 17.167,-28.187 29.167,-48.762c3.083,-5.292 6.083,-10.496 8.875,-15.313l-0,227.7c-0,1.629 -1.5,6.113 -5.584,10.538c-3.833,4.191 -8.625,6.766 -13.333,6.766Zm6.417,-198.825l-0,180.167c-0.367,0.702 -1.272,2.332 -2.27,3.414c-0.013,0.014 -0.025,0.028 -0.038,0.042c-1.261,1.379 -2.56,2.702 -4.109,2.702l-381.146,0c-1.575,0 -2.872,-1.342 -4.156,-2.735c-1.001,-1.088 -1.911,-2.726 -2.281,-3.434l-0,-180.181c6.968,11.782 12.851,21.522 15.256,25.013c0.001,0 0.001,0.001 0.002,0.002c5.485,7.958 13.654,15.267 22.914,20.539c9.398,5.354 20.574,8.98 31.903,8.98l70.941,-0c0,-0.001 0,18.479 0,18.479c0,9.249 3.088,18.176 9.765,24.917c0.001,0.001 0.003,0.003 0.004,0.004c6.683,6.74 15.672,10.012 25.348,10.012l41.746,0c9.677,0 18.673,-3.274 25.35,-10.014c6.683,-6.742 9.771,-15.67 9.771,-24.919l-0,-18.48c-0,0.001 70.958,0.001 70.958,0.001c11.309,-0 22.496,-3.626 31.894,-8.98c9.258,-5.27 17.398,-12.574 22.892,-20.53c0.001,-0.002 0.003,-0.004 0.004,-0.006c2.406,-3.489 8.286,-13.222 15.252,-24.993Zm-223.817,15.862l0,-9.958c0,-2.008 0.475,-2.487 0.512,-2.529l0.005,0c0.033,-0.037 1.083,-1.104 5.433,-1.104l41.746,0c4.379,0 5.412,1.079 5.437,1.104c0.042,0.042 0.517,0.521 0.517,2.529l0,67.084c0,2.583 -0.758,3.821 -1.321,4.387c-0.546,0.554 -1.804,1.379 -4.633,1.379l-41.746,0c-2.825,0 -4.083,-0.825 -4.633,-1.379c-0.563,-0.566 -1.317,-1.804 -1.317,-4.387l0,-57.125l0.512,0.012l0,0l-0.512,-0.013Zm43.437,52.726l0.021,-0.019c-0.012,0.012 -0.023,0.023 -0.034,0.035l0.013,-0.016Zm-2.287,-2.334l0,-51.483l-28.65,0l0,51.483l14.2,0l0,0.007l0.239,-0.007l14.211,0Zm-221.871,-142.337l-0.133,-0.229c0.904,-2.396 2.1,-4.429 3.5,-6.079c3.067,-3.621 7.529,-5.921 13.608,-5.921l381.146,-0c6.083,-0 10.542,2.3 13.583,5.921c1.417,1.65 2.625,3.683 3.5,6.079c0,-0 -3.125,5.45 -5.291,9.179c-4.292,7.45 -10.125,17.496 -16.167,27.875c-12.208,20.975 -25.042,42.692 -28.458,47.696c-2.875,4.166 -7.625,8.483 -13.334,11.75c-5.75,3.262 -11.916,5.154 -17.458,5.154l-83.458,-0l-0,-19.438c-0,-4.387 -1.034,-9.9 -5.329,-14.245c-4.305,-4.355 -10.413,-6.055 -17.292,-6.055l-41.746,0c-6.875,0 -12.983,1.7 -17.287,6.055c-4.296,4.345 -5.33,9.858 -5.33,14.245l0,19.438l-83.441,-0c-5.575,-0 -11.738,-1.892 -17.467,-5.154c-5.729,-3.267 -10.462,-7.584 -13.333,-11.75c-3.446,-5.004 -16.25,-26.721 -28.475,-47.696c-6.046,-10.379 -11.867,-20.425 -16.171,-27.875c-2.154,-3.729 -3.929,-6.804 -5.167,-8.95Zm16.975,0.271l381.146,-0c0.818,-0 1.555,0.091 2.197,0.299l-1.237,2.14c-4.284,7.437 -10.107,17.465 -16.138,27.826c-0,0.001 -0,0.001 -0,0.001c-11.989,20.598 -24.571,41.935 -27.96,46.908c-1.978,2.856 -5.308,5.725 -9.218,7.965c-3.73,2.114 -7.675,3.515 -11.269,3.515c0,-0 -70.958,-0 -70.958,-0c-0,-0 -0,-6.938 -0,-6.938c-0,-7.127 -1.961,-15.974 -8.94,-23.033c0,-0 0,-0 0,-0c-6.565,-6.641 -15.689,-9.767 -26.181,-9.767l-41.746,0c-10.487,0 -19.612,3.125 -26.177,9.767c-0,-0 -0,-0 -0,0c-6.979,7.059 -8.94,15.906 -8.94,23.033l0,6.938c0,-0 -70.941,-0 -70.941,-0c-3.617,-0 -7.562,-1.399 -11.278,-3.515c-3.933,-2.243 -7.257,-5.12 -9.228,-7.98c-3.389,-4.922 -15.952,-26.281 -27.969,-46.898c-6.037,-10.364 -11.849,-20.396 -16.147,-27.835l-1.224,-2.12c0.645,-0.212 1.386,-0.306 2.208,-0.306Zm110.5,-39.209c0,-7.391 3.317,-19.387 14.696,-29.52c11.142,-9.921 30.808,-18.742 64.596,-18.659l1.554,0c33.792,-0.083 53.454,8.738 64.596,18.659c11.383,10.133 14.7,22.129 14.7,29.52l-0,10.042l-160.142,0l0,-10.042Zm79.261,-35.679l1.616,0c29.324,-0.072 46.584,6.885 56.252,15.494c0.001,0 0.001,0.001 0.001,0.001c6.688,5.954 9.608,12.703 10.32,17.726l-134.758,0c0.712,-5.023 3.631,-11.773 10.317,-17.727c9.668,-8.609 26.932,-15.566 56.252,-15.494Z" style="fill:#f4f9fc;"/></svg>