<?xml version="1.0" encoding="UTF-8" standalone="no"?><!DOCTYPE svg PUBLIC "-//W3C//DTD SVG 1.1//EN" "http://www.w3.org/Graphics/SVG/1.1/DTD/svg11.dtd"><svg width="100%" height="100%" viewBox="0 0 609 392" version="1.1" xmlns="http://www.w3.org/2000/svg" xmlns:xlink="http://www.w3.org/1999/xlink" xml:space="preserve" xmlns:serif="http://www.serif.com/" style="fill-rule:evenodd;clip-rule:evenodd;stroke-linejoin:round;stroke-miterlimit:2;"><path d="M304.907,12.505l-0.856,-0.005c-9.129,-0.001 -18.17,1.563 -26.142,4.725c-6.846,2.717 -71.742,26.925 -135.125,50.529c-31.65,11.784 -62.863,23.396 -86.163,32.063c-11.65,4.333 -38.692,14.387 -38.692,14.387c-3.283,1.221 -5.454,4.367 -5.429,7.871c0.025,3.504 2.242,6.621 5.542,7.792c-0,-0 7.233,2.596 10.596,3.816c6.729,2.442 16.308,5.95 27.683,10.196c21.408,7.996 49.15,18.609 76.283,29.713l0,113.075c0,2.75 1.359,5.325 3.63,6.879c49.416,33.796 184.583,79.787 336.866,0.512c2.754,-1.433 4.484,-4.283 4.484,-7.391l-0,-112.363c23.387,-9.441 45.937,-18.558 64.487,-26.054l0,145.313c-8.296,2.016 -14.683,7.008 -19.358,13.329c-5.892,7.966 -9.15,18.075 -11.025,27.333c-1.9,9.388 -2.521,18.654 -2.679,25.492c-0.08,3.437 -0.042,6.312 0.012,8.346l0.142,3.316l-0,0.004c0.291,4.38 3.929,7.784 8.316,7.784l65.384,-0c4.475,-0 8.15,-3.534 8.325,-8.004l0.058,-3.305c0.008,-2.02 -0.021,-4.887 -0.175,-8.316c-0.3,-6.821 -1.087,-16.05 -3.071,-25.396c-1.954,-9.213 -5.216,-19.242 -10.883,-27.15c-4.425,-6.179 -10.483,-11.229 -18.379,-13.338l-0,-152.179c8.441,-3.521 15.908,-6.883 21.537,-9.508c3.388,-1.575 10.979,-5.275 10.979,-5.275c2.971,-1.5 4.763,-4.621 4.563,-7.938c-0.196,-3.32 -2.35,-6.204 -5.475,-7.337l-0.004,-0l-0.009,-0.004l-38.479,-13.95c-23.183,-8.409 -54.254,-19.675 -85.783,-31.117c-63.1,-22.892 -127.967,-46.446 -135.346,-49.187c-8.065,-3 -16.967,-4.563 -25.814,-4.658Zm269.597,349.995l-48.87,0c0.008,-0.758 0.02,-1.558 0.037,-2.396c0.146,-6.271 0.717,-14.483 2.35,-22.575c1.663,-8.216 4.288,-15.587 8.092,-20.725c3.558,-4.812 7.983,-7.546 14.291,-7.546c5.517,0 9.646,2.53 13.163,7.442c3.725,5.2 6.375,12.646 8.129,20.908c1.729,8.134 2.446,16.384 2.725,22.671c0.033,0.771 0.063,1.513 0.083,2.221Zm-425.233,-80.317l0,-101.72c60.367,24.912 121.979,50.279 128.775,52.833c15.154,5.7 34.404,6.883 52.704,-0c8.034,-3.021 69.492,-27.775 130.167,-52.263l-0,100.542c-140.4,70.9 -264.008,30.992 -311.646,0.608Zm134.783,-249.466c11.88,-4.713 27.83,-4.779 40.859,0.066c7.458,2.775 72.433,26.363 135.466,49.234c31.534,11.441 62.605,22.708 85.792,31.116l19.642,7.125c-5.404,2.421 -11.725,5.155 -18.534,7.909c-21.508,8.696 -50.829,20.546 -81.145,32.787c-64.359,25.984 -132.959,53.625 -141.25,56.742c-14.163,5.329 -29.225,4.421 -40.967,-0c-6.904,-2.596 -75.733,-30.946 -139.8,-57.392c-28.988,-11.966 -59.108,-23.5 -81.963,-32.037c-6.329,-2.363 -12.104,-4.496 -17.145,-6.35l17.42,-6.479c23.305,-8.667 54.517,-20.28 86.171,-32.067c63.209,-23.538 128.388,-47.85 135.454,-50.654Z" style="fill:#6390d6;"/><path d="M304.099,0.001l-0.047,-0.001c-10.741,-0.001 -21.371,1.884 -30.752,5.606c-0.001,-0 -0.002,0 -0.002,0c-6.833,2.712 -71.61,26.873 -134.876,50.434c-31.649,11.783 -62.86,23.395 -86.159,32.061c-11.649,4.333 -38.69,14.387 -38.69,14.387c0,-0 0,-0 -0,-0c-8.208,3.052 -13.635,10.916 -13.572,19.676c0.062,8.763 5.609,16.555 13.861,19.483c-0.042,-0.015 7.161,2.57 10.51,3.786c0.001,0 0.001,0 0.002,0.001c6.703,2.432 16.244,5.926 27.575,10.156c19.267,7.196 43.688,16.521 68.155,26.412c0,0 0,104.665 0,104.665c0,6.873 3.394,13.31 9.07,17.194c0.001,0.001 0.002,0.002 0.003,0.003c51.299,35.083 191.611,83.576 349.694,1.282c6.886,-3.583 11.213,-10.708 11.213,-18.479l-0,-103.929c13.809,-5.577 27.195,-10.987 39.487,-15.954c0,-0 0,118.14 0,118.14c-6.836,3.448 -12.461,8.521 -16.908,14.535c-0,-0 -0,-0 -0.001,0c-6.974,9.431 -11.006,21.325 -13.226,32.285c0,0 0,0.001 0,0.001c-2.063,10.195 -2.752,20.257 -2.924,27.682c-0,0.001 -0,0.001 -0,0.002c-0.085,3.693 -0.045,6.782 0.013,8.966l0.139,3.282c0.05,6.501 1.822,9.842 4.016,11.479c3.805,5.178 9.935,8.511 16.799,8.511c0,-0 65.384,-0 65.384,-0c11.189,-0 20.378,-8.836 20.815,-20.016l0.068,-3.741c0.009,-2.169 -0.022,-5.246 -0.187,-8.927c-0.325,-7.369 -1.189,-17.337 -3.331,-27.432c-2.296,-10.824 -6.291,-22.542 -12.949,-31.835c-4.21,-5.878 -9.551,-10.936 -16.043,-14.449c0.002,0.001 0.002,-135.524 0.002,-135.524c5.471,-2.375 10.338,-4.586 14.31,-6.439c3.453,-1.605 11.183,-5.372 11.183,-5.372c0.052,-0.025 0.105,-0.051 0.157,-0.078c7.426,-3.749 11.903,-11.55 11.407,-19.84c-0.485,-8.161 -5.697,-15.265 -13.297,-18.193l-0.586,-0.22l-38.301,-13.886c-23.182,-8.408 -54.252,-19.674 -85.78,-31.115c-0,-0 -0.001,-0 -0.001,-0.001c-63.058,-22.876 -127.881,-46.414 -135.255,-49.154c-9.383,-3.489 -19.738,-5.328 -30.033,-5.44l-0,0.038l-0.943,-0.042Zm0.808,12.504l-0.856,-0.005c-9.129,-0.001 -18.17,1.563 -26.142,4.725c-6.846,2.717 -71.742,26.925 -135.125,50.529c-31.65,11.784 -62.863,23.396 -86.163,32.063c-11.65,4.333 -38.692,14.387 -38.692,14.387c-3.283,1.221 -5.454,4.367 -5.429,7.871c0.025,3.504 2.242,6.621 5.542,7.792c-0,-0 7.233,2.596 10.596,3.816c6.729,2.442 16.308,5.95 27.683,10.196c21.408,7.996 49.15,18.609 76.283,29.713l0,113.075c0,2.75 1.359,5.325 3.63,6.879c49.416,33.796 184.583,79.787 336.866,0.512c2.754,-1.433 4.484,-4.283 4.484,-7.391l-0,-112.363c23.387,-9.441 45.937,-18.558 64.487,-26.054l0,145.313c-8.296,2.016 -14.683,7.008 -19.358,13.329c-5.892,7.966 -9.15,18.075 -11.025,27.333c-1.9,9.388 -2.521,18.654 -2.679,25.492c-0.08,3.437 -0.042,6.312 0.012,8.346l0.142,3.32c0.291,4.38 3.929,7.784 8.316,7.784l65.384,-0c4.475,-0 8.15,-3.534 8.325,-8.004l0.058,-3.305c0.008,-2.02 -0.021,-4.887 -0.175,-8.316c-0.3,-6.821 -1.087,-16.05 -3.071,-25.396c-1.954,-9.213 -5.216,-19.242 -10.883,-27.15c-4.425,-6.179 -10.483,-11.229 -18.379,-13.338l-0,-152.179c8.441,-3.521 15.908,-6.883 21.537,-9.508c3.388,-1.575 10.979,-5.275 10.979,-5.275c2.971,-1.5 4.763,-4.621 4.563,-7.938c-0.196,-3.32 -2.35,-6.204 -5.475,-7.337l-38.492,-13.954c-23.183,-8.409 -54.254,-19.675 -85.783,-31.117c-63.1,-22.892 -127.967,-46.446 -135.346,-49.187c-8.065,-3 -16.967,-4.563 -25.814,-4.658Zm269.597,349.995l-48.87,0c0.008,-0.758 0.02,-1.558 0.037,-2.396c0.146,-6.271 0.717,-14.483 2.35,-22.575c1.663,-8.216 4.288,-15.587 8.092,-20.725c3.558,-4.812 7.983,-7.546 14.291,-7.546c5.517,0 9.646,2.53 13.163,7.442c3.725,5.2 6.375,12.646 8.129,20.908c1.729,8.134 2.446,16.384 2.725,22.671c0.033,0.771 0.063,1.513 0.083,2.221Zm-13.447,-12.5l-22.255,0c0.319,-3.234 0.791,-6.626 1.471,-9.995c1.258,-6.214 3.009,-11.877 5.885,-15.762c0.002,-0.003 0.004,-0.005 0.006,-0.007c1.081,-1.463 2.323,-2.478 4.24,-2.478c1.361,0 2.131,1.006 2.999,2.218c0.001,0.001 0.001,0.002 0.002,0.003c2.876,4.015 4.709,9.846 6.064,16.225c-0,0.001 0,0.003 0,0.004c0.701,3.298 1.217,6.617 1.588,9.792Zm-411.786,-67.817l0,-101.72c60.367,24.912 121.979,50.279 128.775,52.833c15.154,5.7 34.404,6.883 52.704,-0c8.034,-3.021 69.492,-27.775 130.167,-52.263l-0,100.542c-140.4,70.9 -264.008,30.992 -311.646,0.608Zm12.5,-7.037l0,-76.004c54.53,22.491 105.703,43.534 111.876,45.854c17.685,6.651 40.148,8.032 61.503,-0c7.293,-2.743 58.501,-23.347 113.267,-45.44c-0,0 -0,74.244 -0,74.244c-126.664,60.869 -238.115,29.34 -286.644,1.347l-0.002,-0.001Zm122.283,-242.429c11.88,-4.713 27.83,-4.779 40.859,0.066c7.458,2.775 72.433,26.363 135.466,49.234c31.534,11.441 62.605,22.708 85.792,31.116l19.642,7.125c-5.404,2.421 -11.725,5.155 -18.534,7.909c-21.508,8.696 -50.829,20.546 -81.145,32.787c-64.359,25.984 -132.959,53.625 -141.25,56.742c-14.163,5.329 -29.225,4.421 -40.967,-0c-6.904,-2.596 -75.733,-30.946 -139.8,-57.392c-28.988,-11.966 -59.108,-23.5 -81.963,-32.037c-6.329,-2.363 -12.104,-4.496 -17.145,-6.35l17.42,-6.479c23.305,-8.667 54.517,-20.28 86.171,-32.067c63.209,-23.538 128.388,-47.85 135.454,-50.654Zm247.383,88.369l-69.983,28.277c-64.231,25.932 -132.693,53.522 -140.969,56.632c-0.001,0.001 -0.002,0.001 -0.004,0.002c-11.118,4.183 -22.942,3.471 -32.16,0.001c-0.001,-0.001 -0.003,-0.002 -0.005,-0.003c-6.886,-2.588 -75.532,-30.869 -139.43,-57.245c-23.415,-9.666 -47.566,-19.052 -68.074,-26.816l72.15,-26.849c63.325,-23.581 128.623,-47.94 135.703,-50.75l-0.001,0.001c9.272,-3.679 21.721,-3.619 31.891,0.163c7.462,2.777 72.483,26.381 135.561,49.268l75.321,27.319Z" style="fill:#f4f9fc;"/></svg>