<svg width="101" height="18" viewBox="0 0 101 18" fill="none" xmlns="http://www.w3.org/2000/svg">
<path d="M9.31897 0.320312L11.8286 5.65138L17.6743 6.39079L13.3796 10.425L14.4828 16.213L9.31897 13.3752L4.15511 16.213L5.2583 10.425L0.963674 6.39079L6.80934 5.65138L9.31897 0.320312Z" fill="#FFC300"/>
<path d="M29.8893 0.320312L32.3989 5.65138L38.2446 6.39079L33.95 10.425L35.0531 16.213L29.8893 13.3752L24.7254 16.213L25.8286 10.425L21.534 6.39079L27.3796 5.65138L29.8893 0.320312Z" fill="#FFC300"/>
<path d="M50.4601 0.320312L52.9697 5.65138L58.8154 6.39079L54.5208 10.425L55.6239 16.213L50.4601 13.3752L45.2962 16.213L46.3994 10.425L42.1048 6.39079L47.9504 5.65138L50.4601 0.320312Z" fill="#FFC300"/>
<path d="M71.0304 0.320312L73.54 5.65138L79.3857 6.39079L75.0911 10.425L76.1943 16.213L71.0304 13.3752L65.8665 16.213L66.9697 10.425L62.6751 6.39079L68.5208 5.65138L71.0304 0.320312Z" fill="#FFC300"/>
<path d="M91.6012 0.320312L94.1108 5.65138L99.9565 6.39079L95.6619 10.425L96.7651 16.213L91.6012 13.3752L86.4373 16.213L87.5405 10.425L83.2459 6.39079L89.0916 5.65138L91.6012 0.320312Z" fill="#FFC300"/>
</svg>
