<svg width="281" height="140" viewBox="0 0 281 140" fill="none" xmlns="http://www.w3.org/2000/svg">
<path fill-rule="evenodd" clip-rule="evenodd" d="M34.7175 31.4954C34.6835 31.5294 34.7544 31.9277 34.875 32.3804C34.9956 32.8332 35.3197 34.0772 35.5952 35.145C36.1203 37.1802 37.4866 42.415 38.6355 46.793C38.8828 47.7351 39.2394 49.1226 39.4279 49.8763C39.6165 50.63 39.8454 51.5036 39.9365 51.8176C40.0883 52.3407 40.5376 54.0571 42.0441 59.8684C43.191 64.2926 43.3603 64.8931 43.4604 64.8931C43.5169 64.8931 43.9556 64.5459 44.4351 64.1217C48.4041 60.6099 53.2136 57.1381 57.8714 54.4224C59.5114 53.4663 59.3516 53.5538 61.1267 52.639C61.9748 52.202 62.7164 51.801 62.7746 51.7479C62.8394 51.689 62.8272 51.4176 62.7433 51.0494C62.5127 50.0377 61.3596 46.515 60.8829 45.3655C60.3557 44.0946 58.9609 41.2692 58.177 39.8841C55.9584 35.9642 55.4156 34.9914 55.4156 34.9345C55.4156 34.816 57.0556 35.4775 60.6127 37.0308C61.5473 37.4388 64.3227 38.627 67.923 40.1603L69.2936 40.7441L69.6787 41.5418C70.1816 42.5834 71.3352 45.6903 71.7511 47.1233C71.9315 47.7447 72.1205 48.2904 72.1713 48.3361C72.222 48.3818 73.0917 48.2511 74.1039 48.0456C80.4355 46.7601 85.9208 47.1704 89.6171 49.2057C90.1242 49.4849 90.6525 49.7935 90.7912 49.8912C91.0831 50.097 91.0662 50.1386 91.2857 48.6772C91.3564 48.2062 91.6115 46.6902 91.8525 45.3084C92.0935 43.9267 92.4508 41.794 92.6464 40.5693C92.8419 39.3445 93.0739 37.9827 93.1619 37.5431C93.2498 37.1034 93.4085 36.1784 93.5146 35.4876C93.6206 34.7967 93.804 33.67 93.9222 32.9838C94.0403 32.2976 94.1371 31.6682 94.1371 31.5849C94.1371 31.4596 89.0223 31.4336 64.4583 31.4336C48.1348 31.4336 34.7516 31.4615 34.7175 31.4954ZM74.1064 55.7249C73.7982 55.7721 73.7831 55.8001 73.8472 56.201C74.0417 57.417 74.3777 60.752 74.4987 62.6662C74.7804 67.1293 74.4603 73.5985 73.7328 78.1398C72.8497 83.6523 71.4336 89.2864 69.5767 94.6758C69.3753 95.2601 69.2307 95.7582 69.2554 95.7829C69.2799 95.8076 70.5066 96.4137 71.9811 97.1299C76.0467 99.105 76.8256 99.4747 77.0033 99.5148C77.186 99.5559 77.3114 98.5708 78.1402 90.5872C78.3978 88.1063 78.6853 85.3827 78.7793 84.5348C78.8733 83.6869 79.0772 81.7855 79.2325 80.3095C79.6941 75.9242 79.8541 74.4241 80.0913 72.2587C80.319 70.1817 80.9037 64.6933 81.3444 60.4965C81.4763 59.2404 81.5944 57.9051 81.607 57.5292L81.6297 56.8458L80.7159 56.5241C79.0621 55.9419 77.888 55.7335 76.0899 55.7029C75.179 55.6875 74.2864 55.6973 74.1064 55.7249ZM63.0114 59.1441C60.6778 60.3177 58.8371 61.4358 56.2845 63.2299C55.4745 63.7992 54.6007 64.4131 54.3427 64.5941C53.7484 65.0109 53.7179 65.0632 53.7755 65.5642C53.8016 65.7918 53.9498 67.1856 54.1046 68.6615C54.2595 70.1375 54.515 72.5271 54.6726 73.9717C54.83 75.4162 55.0341 77.3947 55.1261 78.3682C55.3887 81.1451 55.5309 82.4806 55.6431 83.2215C55.7001 83.5984 55.9053 85.5254 56.099 87.5039C56.2927 89.4823 56.5543 92.0261 56.6804 93.1566C56.8065 94.2871 57.0139 96.1877 57.1414 97.3801C57.2687 98.5726 57.3971 99.5723 57.4266 99.6017C57.4561 99.6312 57.9023 99.441 58.4183 99.1791C60.6404 98.051 64.2745 96.1552 64.3494 96.0848C64.4441 95.996 64.6838 94.8938 65.005 93.071C66.6922 83.4957 66.6704 72.0133 64.9458 61.8668C64.7856 60.9246 64.6013 59.8199 64.5362 59.4116C64.4709 59.0034 64.3839 58.634 64.3428 58.5908C64.3015 58.5475 63.7024 58.7966 63.0114 59.1441Z" fill="#004B8E"/>
<path fill-rule="evenodd" clip-rule="evenodd" d="M170.358 31.6721C169.546 31.9555 166.677 32.4701 165.209 32.5955L164.324 32.6711V33.1586V33.6461L165.495 33.6928C166.836 33.7463 167.08 33.8536 167.411 34.5361C167.632 34.9902 167.637 35.2964 167.637 48.5558V62.1112L167.951 62.0247C168.475 61.8803 170.477 61.9468 171.749 62.1509C173.928 62.5005 174.531 62.5566 176.153 62.5601C177.419 62.5629 177.95 62.5137 178.663 62.3272C182.34 61.3642 185.384 58.4137 186.576 54.6575C187.085 53.0543 187.212 51.9679 187.134 49.8948C187.03 47.114 186.359 44.9904 185.07 43.3653C184.487 42.6288 183.16 41.6926 182.178 41.3237C179.996 40.5042 176.919 40.5705 174.933 41.4798C174.028 41.8942 172.677 42.8186 172.096 43.4216C171.816 43.7121 171.546 43.9497 171.497 43.9497C171.448 43.9497 171.395 41.1405 171.378 37.707C171.359 33.6655 171.308 31.454 171.235 31.4352C171.172 31.4192 170.777 31.5257 170.358 31.6721ZM121.6 32.9965C121.546 33.0959 121.394 33.7897 121.26 34.5381C120.562 38.448 120.466 39.088 120.56 39.1828C120.616 39.2387 120.835 39.2677 121.048 39.2475C121.409 39.213 121.47 39.1405 122.007 38.1191C123.144 35.9569 123.824 35.1547 124.963 34.6334C125.869 34.2185 126.574 34.1288 128.931 34.1288H131.085L131.085 46.8332C131.085 58.6995 131.072 59.5639 130.885 59.9372C130.614 60.4805 130.064 60.7226 128.72 60.8907L127.601 61.0306L127.567 61.5688L127.532 62.1069H133.141H138.751L138.716 61.5645L138.681 61.022L137.882 60.9362C135.733 60.7053 135.366 60.4657 135.189 59.181C135.125 58.7158 135.093 53.4588 135.11 46.2907L135.14 34.1859L137.366 34.1549C139.842 34.1202 140.45 34.2033 141.478 34.7171C142.401 35.1782 143.06 35.9576 144.05 37.7565C144.809 39.1377 144.868 39.2124 145.235 39.2475C145.447 39.2677 145.66 39.242 145.708 39.1904C145.756 39.1386 145.727 38.711 145.644 38.2399C145.562 37.7688 145.335 36.4584 145.14 35.3279C144.945 34.1974 144.758 33.183 144.724 33.0736C144.667 32.8867 143.978 32.873 133.18 32.8452C122.801 32.8184 121.687 32.8329 121.6 32.9965ZM150.446 40.9733C149.27 41.2187 147.858 41.712 147.376 42.0454C146.984 42.3167 146.748 42.8305 146.33 44.3194C146.089 45.1788 146.048 45.4676 146.151 45.5911C146.292 45.761 147.575 46.1222 148.014 46.1153C148.219 46.1121 148.416 45.8844 148.926 45.059C150.265 42.8927 151.217 42.1842 152.788 42.185C153.499 42.1854 153.746 42.2385 154.244 42.4987C155.24 43.0186 155.865 44.0999 156.204 45.891C156.324 46.5237 156.403 48.1397 156.317 48.2233C156.292 48.248 155.526 48.5599 154.615 48.9163C149.703 50.8384 148.257 51.48 147.195 52.2088C145.392 53.4464 144.65 54.8433 144.637 57.0252C144.624 59.3662 145.777 61.293 147.73 62.1918C148.248 62.4307 148.613 62.5058 149.43 62.5426C151.147 62.62 151.824 62.3545 154.558 60.5313C155.5 59.9029 156.31 59.4123 156.357 59.4412C156.404 59.4702 156.444 59.7092 156.445 59.9725C156.451 60.8804 156.95 62.3885 157.289 62.5183C157.427 62.5715 158.814 62.1695 161.983 61.1577C163.213 60.765 163.238 60.7498 163.208 60.4326C163.131 59.6044 163.137 59.6095 162.47 59.7883C161.339 60.0913 160.594 59.7916 160.305 58.9179C160.212 58.6348 160.149 56.5156 160.099 52.0005C160.031 45.8657 160.013 45.4485 159.792 44.7461C159.162 42.7431 158.075 41.6672 156.098 41.0885C154.865 40.7278 151.911 40.6676 150.446 40.9733ZM199.315 40.9211C196.393 41.4513 193.828 43.1457 192.274 45.5731C191.001 47.5613 190.441 49.5211 190.453 51.9434C190.479 57.1155 193.134 60.8272 197.809 62.224C198.991 62.5771 201.818 62.671 203.149 62.4014C206.778 61.6663 209.663 59.3797 211.014 56.1687C211.818 54.2567 211.898 53.8182 211.892 51.3725C211.886 49.2867 211.866 49.0821 211.577 48.1425C210.581 44.9034 208.699 42.747 205.822 41.5499C204.02 40.7998 201.387 40.5454 199.315 40.9211ZM220.864 41.2169C219.426 41.8468 217.822 42.2232 215.753 42.4171L214.925 42.4946V42.9765V43.4584L216.015 43.5302C216.665 43.5727 217.271 43.6801 217.514 43.7954C218.266 44.1521 218.247 43.9199 218.212 52.2665C218.182 59.3173 218.167 59.7956 217.971 60.0945C217.706 60.4998 217.267 60.6794 216.124 60.8507C214.936 61.0288 214.875 61.0662 214.833 61.6332L214.797 62.1069H220.464H226.131L226.096 61.5645L226.061 61.022L225.605 60.9926C224.556 60.9251 223.21 60.7134 222.809 60.5531C222.055 60.2517 222.069 60.361 222.028 54.2845C221.979 47.1319 222.13 45.8293 223.117 44.8918C223.488 44.5391 223.551 44.5207 224.385 44.5213C225.192 44.5218 225.348 44.5635 226.344 45.0446C227.424 45.5658 227.428 45.5667 227.772 45.3677C228.755 44.7997 229.203 44.4515 229.203 44.2543C229.203 43.853 227.843 41.5346 227.333 41.0663C226.917 40.6839 226.311 40.6485 225.686 40.97C225.453 41.0897 224.551 41.9119 223.683 42.7971C222.814 43.6823 222.082 44.4065 222.055 44.4065C222.028 44.4065 222.007 43.6131 222.007 42.6432C222.007 41.6733 221.968 40.86 221.921 40.8358C221.874 40.8116 221.398 40.983 220.864 41.2169ZM202.274 42.2898C204.595 42.7815 206.22 44.4251 207.195 47.2676C207.971 49.5289 208.08 53.1901 207.445 55.6548C207.017 57.3165 206.2 58.8353 205.254 59.7297C204.338 60.5963 202.771 61.1933 201.414 61.1933C200.678 61.1933 199.259 60.8477 198.572 60.501C196.092 59.2496 194.571 55.8963 194.561 51.658C194.552 47.9775 195.551 45.0194 197.298 43.5476C198.049 42.9156 198.314 42.7654 199.163 42.491C200.457 42.0729 201.065 42.0335 202.274 42.2898ZM178.942 43.0195C179.86 43.3756 180.704 44.0027 181.331 44.7934C182.04 45.6884 182.263 46.1463 182.669 47.5469C182.99 48.6553 182.999 48.7627 182.996 51.2012C182.992 53.5385 182.97 53.7983 182.686 54.9324C182.293 56.498 181.964 57.2982 181.293 58.3167C180.332 59.775 179.034 60.6767 177.403 61.0208C175.915 61.3344 173.917 61.1568 172.821 60.6137C172.362 60.3861 172.209 60.2273 171.963 59.7213C171.798 59.3829 171.605 58.7563 171.534 58.3291C171.369 57.3263 171.365 50.0678 171.529 48.6888C171.67 47.5103 172.024 46.0121 172.284 45.4995C172.805 44.4739 174.134 43.3585 175.347 42.9293C176.254 42.6081 177.995 42.6519 178.942 43.0195ZM156.361 52.375C156.333 55.1172 156.151 56.216 155.508 57.5353C155.119 58.3315 154.315 59.2202 153.69 59.5434C151.707 60.5689 149.622 60.0162 148.766 58.2385C148.44 57.5603 148.402 57.3755 148.402 56.4542C148.403 53.6443 149.977 52.1328 154.704 50.4011C155.44 50.1313 156.12 49.919 156.214 49.9294C156.361 49.9456 156.382 50.2902 156.361 52.375ZM165.838 67.5351C164.851 67.9501 162.393 68.4079 160.298 68.5672L159.298 68.6432V69.1282V69.6134L160.448 69.6686C161.736 69.7306 162.06 69.8788 162.411 70.5655C162.597 70.9311 162.61 71.7703 162.611 83.2083C162.611 96.2924 162.627 95.9029 162.061 96.4071C161.911 96.5402 161.35 96.7103 160.56 96.8618L159.298 97.1039V97.5913V98.0787H164.495H169.693V97.5913V97.1039L168.431 96.8618C167.641 96.7103 167.079 96.5402 166.93 96.4071C166.361 95.9003 166.38 96.4204 166.38 81.4735C166.38 73.7813 166.341 67.4635 166.293 67.4339C166.246 67.4045 166.041 67.45 165.838 67.5351ZM177.974 67.7785C176.924 68.0966 174.922 68.4431 173.348 68.5793L172.263 68.6732L172.228 69.145L172.194 69.6168L173.313 69.6653C174.695 69.7252 175.104 69.9097 175.416 70.6161C175.631 71.1012 175.636 71.4674 175.606 83.4265L175.575 95.7377L175.313 96.1045C175.028 96.5039 174.499 96.7062 173.062 96.9643L172.263 97.108L172.227 97.5933L172.192 98.0787H177.453H182.714V97.6286C182.714 97.381 182.675 97.1548 182.628 97.1257C182.581 97.0966 182.071 96.9915 181.495 96.8921C179.808 96.6012 179.607 96.4382 179.406 95.2056C179.331 94.7388 179.289 89.6837 179.288 80.9778C179.287 68.1883 179.277 67.4748 179.087 67.4879C178.977 67.4955 178.476 67.6262 177.974 67.7785ZM118.038 68.5083C115.268 68.8912 112.139 70.203 110.011 71.8741C107.21 74.0734 105.473 76.7707 104.501 80.4323C104.225 81.4731 104.197 81.7644 104.2 83.6329C104.203 85.8121 104.38 87.0335 104.983 89.0479C105.553 90.9518 106.845 93.0676 108.291 94.4653C109.652 95.7809 112.181 97.2269 114.076 97.7732C117.762 98.8357 122.276 98.8984 126.631 97.9477C128.127 97.6209 129.99 96.9661 130.267 96.6694C130.461 96.4618 131.193 93.6631 131.744 91.0271C131.791 90.7981 131.752 90.7701 131.384 90.7701C131.157 90.7701 130.933 90.763 130.885 90.7545C130.838 90.7459 130.679 90.99 130.532 91.2969C130.009 92.3891 129.031 93.8067 128.321 94.4993C126.357 96.4182 124.349 97.1651 121.157 97.1651C115.654 97.1651 111.921 94.7522 110.059 89.9897C109.215 87.8335 108.842 85.1878 108.968 82.2625C109.086 79.5182 109.437 77.9268 110.363 75.9442C112.021 72.3945 114.948 70.3355 119.011 69.8626C120.965 69.6352 123.163 69.8525 124.859 70.4408C127.407 71.3249 129.087 73.4091 129.46 76.1498C129.535 76.7013 129.576 76.7732 129.801 76.762C129.942 76.7551 130.173 76.7436 130.314 76.7368L130.571 76.7241L130.543 73.8083C130.507 70.0278 130.669 70.2817 127.707 69.3703C126.759 69.0789 125.603 68.7612 125.137 68.6644C124.12 68.4532 119.216 68.3454 118.038 68.5083ZM144.335 76.8331C139.488 77.4541 135.742 81.0783 134.964 85.899C134.782 87.0291 134.878 90.0253 135.126 90.9127C135.711 93.0141 136.607 94.5753 137.97 95.8696C141.276 99.0092 146.899 99.5295 151.065 97.0815C152.474 96.2542 153.984 94.7564 154.783 93.3937C155.4 92.342 155.987 90.7249 156.214 89.4484C156.42 88.2924 156.304 85.4814 156.007 84.4322C155.074 81.1397 153.51 79.1982 150.626 77.7536C149.075 76.9766 146.339 76.5763 144.335 76.8331ZM193.822 76.838C190.021 77.3736 187.48 79.601 186.199 83.5187C185.855 84.5724 185.574 86.3595 185.572 87.5155C185.568 89.4184 186.168 91.6859 187.204 93.6821C187.699 94.6356 187.976 95.0033 188.882 95.909C190.946 97.9717 192.682 98.6497 195.9 98.6497C197.72 98.6497 197.461 98.7214 200.019 97.5068C200.71 97.1786 201.641 96.7422 202.088 96.537C202.535 96.3318 202.938 96.105 202.982 96.0331C203.074 95.885 202.525 94.8812 202.353 94.8812C202.291 94.8812 201.834 95.0856 201.337 95.3355C199.557 96.2302 197.692 96.4802 195.792 96.0785C192.229 95.3251 189.845 92.1254 189.602 87.7725L189.533 86.5449H196.289H203.046V85.2988C203.046 81.1449 201.053 78.0548 197.76 77.1012C196.709 76.7967 194.949 76.6791 193.822 76.838ZM214.182 76.8426C210.191 77.465 207.525 80.0767 207.484 83.4045C207.451 86.1788 208.442 88.0986 210.673 89.5813C211.231 89.9525 211.787 90.3187 211.907 90.395C212.113 90.5254 212.099 90.556 211.672 90.9089C211.423 91.1152 210.876 91.5666 210.459 91.9121C210.041 92.2575 209.359 92.8196 208.942 93.1612L208.186 93.7823V94.3925C208.186 94.7282 208.256 95.1712 208.342 95.3771C208.583 95.9535 209.348 96.5376 210.16 96.7653C211.027 97.0086 211.132 96.9124 208.414 98.362C207.249 98.9833 206.32 99.5551 206.187 99.7326C205.997 99.9858 205.96 100.204 205.969 101.03C205.975 101.576 206.045 102.304 206.124 102.648C206.99 106.401 211.195 108.811 216.41 108.545C218.297 108.449 219.536 108.137 221.036 107.383C223.047 106.372 224.414 104.973 225.161 103.16C225.468 102.415 225.49 102.258 225.49 100.819C225.49 99.2878 225.488 99.2721 225.083 98.4213C224.389 96.9653 223.052 95.862 221.356 95.3479C220.625 95.1263 217.139 94.4125 214.881 94.0224C213.774 93.831 212.881 93.4969 212.576 93.1603C212.24 92.7895 212.418 92.0875 212.998 91.4972L213.487 90.9985H214.991C217.385 90.9985 218.978 90.5144 220.641 89.2815C221.876 88.3666 222.838 86.9677 223.207 85.5522C223.642 83.8801 223.158 81.2692 222.13 79.7459C221.936 79.4593 221.778 79.2029 221.778 79.176C221.778 79.1492 222.713 79.1132 223.855 79.0962L225.931 79.065L226.264 78.494C226.448 78.18 226.694 77.7646 226.812 77.5709C227.022 77.2275 227.022 77.213 226.815 76.9908C226.605 76.7653 226.592 76.7651 225.59 76.9718C223.152 77.4747 220.091 77.5229 218.523 77.0833C217.474 76.7892 215.298 76.6686 214.182 76.8426ZM236.945 76.8354C232.917 77.3464 229.923 80.4524 229.016 85.0603C228.821 86.0519 228.796 88.6878 228.973 89.629C229.413 91.9684 230.834 94.8229 232.178 96.0671C234.306 98.0369 236.158 98.7 239.33 98.6278L241.025 98.5891L243.595 97.3525C245.008 96.6722 246.187 96.0935 246.215 96.0662C246.243 96.039 246.129 95.7364 245.961 95.3937L245.655 94.7705L244.516 95.3399C243.122 96.0362 242.267 96.2482 240.853 96.2479C237.441 96.247 234.981 94.601 233.663 91.4352C233.158 90.2235 232.909 89.1251 232.794 87.6012L232.714 86.5449H239.543H246.371L246.296 85.146C246.111 81.6999 244.991 79.3799 242.82 77.9416C241.377 76.9851 239.118 76.5599 236.945 76.8354ZM216.779 78.2417C217.381 78.5943 218.138 79.3929 218.443 79.9958C218.894 80.8866 219.28 82.2841 219.405 83.4778C219.82 87.4182 218.16 90.0958 215.475 89.8152C213.396 89.598 212.128 87.9724 211.555 84.7883C211.07 82.098 211.851 79.3833 213.382 78.4374C214.433 77.788 215.864 77.7055 216.779 78.2417ZM147.195 78.4418C150.315 79.3421 152.242 82.9649 152.227 87.9006C152.22 90.3063 151.739 92.531 150.902 94.0404C150.267 95.1847 149.059 96.3343 148.047 96.7567C147.38 97.0354 147.049 97.0985 146.048 97.1377C145.005 97.1785 144.734 97.1478 143.965 96.9018C142.821 96.536 142.09 96.0584 141.252 95.1312C139.714 93.4266 138.959 90.9571 138.955 87.6095C138.953 85.5049 139.18 84.0272 139.727 82.6051C140.219 81.3235 140.577 80.7069 141.243 79.9948C142.809 78.3202 144.891 77.777 147.195 78.4418ZM196.221 78.3419C196.916 78.4929 197.98 79.1807 198.465 79.7928C199.483 81.0778 199.728 83.1682 198.99 84.2824C198.461 85.0809 198.468 85.0797 193.98 85.0817C191.773 85.0826 189.87 85.0781 189.75 85.0719C189.549 85.0611 189.539 84.9862 189.601 84.004C189.769 81.3853 190.77 79.6087 192.576 78.7235C193.753 78.1467 194.811 78.0359 196.221 78.3419ZM239.638 78.3943C241.316 78.907 242.525 80.4772 242.65 82.3071C242.719 83.3119 242.586 83.8564 242.143 84.3821C241.558 85.0776 241.526 85.0824 237.439 85.0832C235.391 85.0835 233.489 85.0786 233.212 85.0721L232.711 85.0603L232.789 84.1182C232.961 82.0445 233.525 80.6232 234.596 79.5659C235.861 78.316 237.861 77.8515 239.638 78.3943ZM214.564 97.622C215.591 97.8103 216.542 97.9649 216.677 97.9655C217.239 97.9679 219.384 98.5379 220.096 98.874C221.641 99.6041 222.279 100.619 222.287 102.363C222.292 103.172 222.248 103.368 221.919 104.037C221.671 104.541 221.323 105 220.885 105.405C219.567 106.622 218.199 107.1 216.035 107.1C214.409 107.1 213.326 106.881 212.293 106.344C211.276 105.815 210.745 105.353 210.221 104.542C209.65 103.659 209.424 102.863 209.424 101.737C209.424 100.178 210.082 99.1487 211.898 97.8659C212.338 97.5553 212.697 97.2963 212.697 97.2903C212.697 97.2843 213.537 97.4336 214.564 97.622Z" fill="#004B8E"/>
</svg>
