<?xml version="1.0" encoding="UTF-8" standalone="no"?>
<!-- Created with Inkscape (http://www.inkscape.org/) -->

<svg
   version="1.1"
   id="svg2"
   width="437.57733"
   height="154.532"
   viewBox="0 0 437.57733 154.532"
   sodipodi:docname="++++¦n.svg"
   inkscape:version="1.3 (0e150ed6c4, 2023-07-21)"
   xmlns:inkscape="http://www.inkscape.org/namespaces/inkscape"
   xmlns:sodipodi="http://sodipodi.sourceforge.net/DTD/sodipodi-0.dtd"
   xmlns="http://www.w3.org/2000/svg"
   xmlns:svg="http://www.w3.org/2000/svg">
  <defs
     id="defs6" />
  <sodipodi:namedview
     id="namedview4"
     pagecolor="#ffffff"
     bordercolor="#000000"
     borderopacity="0.25"
     inkscape:showpageshadow="2"
     inkscape:pageopacity="0.0"
     inkscape:pagecheckerboard="0"
     inkscape:deskcolor="#d1d1d1"
     inkscape:zoom="3.122868"
     inkscape:cx="218.70921"
     inkscape:cy="185.5666"
     inkscape:window-width="3840"
     inkscape:window-height="2066"
     inkscape:window-x="-11"
     inkscape:window-y="-11"
     inkscape:window-maximized="1"
     inkscape:current-layer="g10" />
  <g
     id="g8"
     inkscape:groupmode="layer"
     inkscape:label="ink_ext_XXXXXX"
     transform="matrix(1.3333333,0,0,-1.3333333,0,586.32132)">
    <g
       id="g10"
       transform="scale(0.1)">
      <path
         d="m 126.363,3448.3 v -21.75 c -14.5,-7.91 -31.2146,-11.88 -50.2028,-11.88 -15.3789,0 -28.4766,3.11 -39.211,9.3 -10.7344,6.21 -19.2383,14.72 -25.4922,25.59 -6.25778,10.87 -9.40622,22.65 -9.40622,35.29 0,20.06 7.15235,36.98 21.50392,50.69 14.3203,13.72 31.9961,20.54 53.0078,20.54 14.4922,0 30.6015,-3.79 48.3245,-11.36 v -21.24 c -16.137,9.22 -31.9261,13.84 -47.3167,13.84 -15.8125,0 -28.9531,-4.98 -39.3867,-14.96 C 27.7422,3512.38 22.5,3499.88 22.5,3484.85 c 0,-15.19 5.1406,-27.61 15.4258,-37.36 10.2734,-9.76 23.4023,-14.61 39.4101,-14.61 16.75,0 33.0901,5.13 49.0271,15.42"
         style="fill:#171717;fill-opacity:1;fill-rule:nonzero;stroke:none"
         id="path84" />
      <path
         d="m 76.5625,3554.04 c -20.3672,0 -37.7227,-6.72 -51.582,-20 C 11.1211,3520.8 4.125,3504.27 4.125,3484.85 c 0,-12.21 3.05859,-23.73 9.1016,-34.26 6.0586,-10.49 14.4062,-18.84 24.7461,-24.82 10.3632,-5.98 23.2031,-9.01 38.1875,-9.01 18.0586,0 34.2658,3.7 48.1368,11.02 v 16.8 c -15.215,-9.14 -30.9923,-13.76 -46.9611,-13.76 -16.4531,0 -30.1953,5.11 -40.8203,15.2 -10.6601,10.1 -16.0898,23.17 -16.0898,38.83 0,15.53 5.5156,28.64 16.3203,38.97 10.793,10.32 24.5156,15.56 40.8242,15.56 14.711,0 29.9177,-4.18 45.2497,-12.38 v 16.35 c -16.902,7.08 -32.445,10.69 -46.2575,10.69 z m -0.4023,-141.39 c -15.6954,0 -29.25,3.18 -40.2383,9.56 -11.0117,6.33 -19.8477,15.22 -26.21877,26.34 C 3.24219,3459.69 0,3471.91 0,3484.85 c 0,20.56 7.4375,38.14 22.1133,52.17 24.7148,23.64 59.5625,28.41 103.5707,9.61 l 1.254,-0.55 v -26.13 l -3.075,1.75 c -15.742,8.99 -31.3317,13.55 -46.2927,13.55 -15.2305,0 -27.9805,-4.85 -37.9609,-14.39 -9.9805,-9.52 -15.0586,-21.64 -15.0586,-36.01 0,-14.5 4.9805,-26.56 14.7773,-35.85 9.8477,-9.33 22.6289,-14.07 38.0078,-14.07 16.2852,0 32.4061,5.06 47.9181,15.1 l 3.164,2.05 v -26.75 l -1.059,-0.58 c -14.738,-8.06 -31.984,-12.1 -51.1988,-12.1 v 0"
         style="fill:#171717;fill-opacity:1;fill-rule:nonzero;stroke:none"
         id="path86" />
      <path
         d="m 190.688,3491.18 c -8.625,0 -15.708,-2.86 -21.239,-8.52 -5.543,-5.66 -8.293,-12.87 -8.293,-21.64 0,-8.7 2.821,-15.79 8.477,-21.31 5.695,-5.46 12.961,-8.23 21.832,-8.23 8.824,0 16.078,2.79 21.683,8.35 5.645,5.57 8.457,12.71 8.457,21.4 0,8.63 -2.91,15.77 -8.789,21.43 -5.875,5.66 -13.242,8.52 -22.128,8.52 z m 0.992,16.18 c 13.843,0 25.328,-4.47 34.496,-13.39 9.14,-8.88 13.722,-20.11 13.722,-33.63 0,-13.09 -4.648,-23.98 -13.937,-32.66 -9.285,-8.68 -20.973,-13.01 -35.059,-13.01 -13.656,0 -25.043,4.4 -34.199,13.21 -9.152,8.8 -13.738,19.76 -13.738,32.94 0,13.31 4.652,24.39 13.887,33.27 9.257,8.84 20.863,13.27 34.828,13.27"
         style="fill:#171717;fill-opacity:1;fill-rule:nonzero;stroke:none"
         id="path88" />
      <path
         d="m 190.688,3489.11 c -8.125,0 -14.598,-2.61 -19.782,-7.88 -5.183,-5.32 -7.691,-11.91 -7.691,-20.21 0,-8.18 2.582,-14.65 7.84,-19.84 5.261,-5.05 12.148,-7.61 20.41,-7.61 8.359,0 14.965,2.51 20.258,7.75 5.285,5.2 7.832,11.72 7.832,19.91 0,8.13 -2.664,14.65 -8.172,19.98 -5.516,5.29 -12.281,7.9 -20.695,7.9 z m 0.777,-59.68 c -9.387,0 -17.227,2.98 -23.258,8.84 -6.055,5.88 -9.105,13.54 -9.105,22.75 0,9.28 2.984,17.04 8.871,23.07 5.898,6.09 13.558,9.14 22.715,9.14 9.402,0 17.332,-3.05 23.57,-9.09 6.238,-6.03 9.418,-13.74 9.418,-22.91 0,-9.22 -3.078,-16.92 -9.051,-22.85 -6.027,-5.9 -13.789,-8.95 -23.16,-8.95 z m 0.215,75.88 c -13.36,0 -24.578,-4.27 -33.403,-12.69 -8.789,-8.43 -13.238,-19.12 -13.238,-31.8 0,-12.52 4.387,-23.11 13.09,-31.45 8.707,-8.38 19.746,-12.61 32.773,-12.61 13.477,0 24.813,4.17 33.637,12.41 8.82,8.22 13.305,18.71 13.305,31.17 0,12.86 -4.414,23.68 -13.121,32.16 -8.727,8.51 -19.828,12.81 -33.043,12.81 z m -0.778,-92.66 c -14.121,0 -26.136,4.62 -35.621,13.76 -9.554,9.14 -14.367,20.73 -14.367,34.41 0,13.86 4.867,25.53 14.516,34.76 9.621,9.19 21.816,13.84 36.25,13.84 14.3,0 26.402,-4.69 35.918,-13.94 9.504,-9.3 14.355,-21.1 14.355,-35.14 0,-13.62 -4.902,-25.15 -14.586,-34.15 -9.648,-9.01 -21.918,-13.54 -36.465,-13.54 v 0"
         style="fill:#171717;fill-opacity:1;fill-rule:nonzero;stroke:none"
         id="path90" />
      <path
         d="m 260.242,3554.34 h 17.996 v -138.06 h -17.996 v 138.06"
         style="fill:#171717;fill-opacity:1;fill-rule:nonzero;stroke:none"
         id="path92" />
      <path
         d="m 262.297,3418.31 h 13.887 v 133.94 h -13.887 z m 18.008,-4.11 h -22.114 v 142.19 h 22.114 v -142.19 0"
         style="fill:#171717;fill-opacity:1;fill-rule:nonzero;stroke:none"
         id="path94" />
      <path
         d="m 304.617,3554.34 h 17.965 v -138.06 h -17.965 v 138.06"
         style="fill:#171717;fill-opacity:1;fill-rule:nonzero;stroke:none"
         id="path96" />
      <path
         d="m 306.676,3418.31 h 13.871 v 133.94 h -13.871 z m 17.992,-4.11 h -22.102 v 142.19 h 22.102 v -142.19 0"
         style="fill:#171717;fill-opacity:1;fill-rule:nonzero;stroke:none"
         id="path98" />
      <path
         d="m 362.52,3470.92 h 45.757 c -0.468,7.14 -2.617,12.7 -6.425,16.58 -3.825,3.91 -8.969,5.84 -15.399,5.84 -6.469,0 -11.765,-1.93 -15.902,-5.84 -4.106,-3.88 -6.774,-9.44 -8.031,-16.58 z m 63.531,-10.78 H 362.09 c 0.5,-8.69 3.414,-15.61 8.789,-20.74 5.367,-5.15 12.285,-7.72 20.793,-7.72 11.848,0 22.777,3.71 32.805,11.06 v -17.58 c -5.528,-3.69 -11.039,-6.32 -16.454,-7.89 -5.425,-1.59 -11.816,-2.38 -19.121,-2.38 -10.019,0 -18.117,2.07 -24.308,6.24 -6.176,4.12 -11.16,9.69 -14.864,16.75 -3.722,6.98 -5.613,15.11 -5.613,24.33 0,13.84 3.942,25.09 11.805,33.77 7.824,8.65 17.973,12.97 30.531,12.97 12.031,0 21.637,-4.22 28.84,-12.65 7.164,-8.41 10.758,-19.73 10.758,-33.86 v -2.3"
         style="fill:#171717;fill-opacity:1;fill-rule:nonzero;stroke:none"
         id="path100" />
      <path
         d="m 365.055,3472.97 h 40.968 c -0.679,5.59 -2.562,9.99 -5.64,13.1 -3.481,3.51 -8.035,5.22 -13.93,5.22 -5.969,0 -10.726,-1.74 -14.496,-5.27 -3.289,-3.12 -5.629,-7.52 -6.902,-13.05 z m 45.418,-4.11 h -50.418 l 0.449,2.4 c 1.32,7.63 4.203,13.56 8.637,17.73 4.519,4.26 10.332,6.42 17.312,6.42 6.977,0 12.668,-2.18 16.84,-6.46 4.187,-4.23 6.535,-10.25 7.02,-17.91 z m -24.02,38.04 c -12.043,0 -21.515,-4.04 -29.031,-12.31 -7.445,-8.24 -11.234,-19.12 -11.234,-32.38 0,-8.83 1.82,-16.69 5.328,-23.37 3.578,-6.7 8.343,-12.09 14.238,-16.03 5.793,-3.9 13.586,-5.89 23.148,-5.89 7.106,0 13.344,0.79 18.532,2.35 4.91,1.41 9.945,3.78 14.964,7 v 12.57 c -9.406,-6.13 -19.765,-9.21 -30.726,-9.21 -8.992,0 -16.484,2.78 -22.219,8.26 -5.762,5.52 -8.902,12.96 -9.398,22.13 l -0.114,2.19 64.059,0.23 c 0,13.54 -3.477,24.53 -10.277,32.51 -6.825,8.04 -15.762,11.95 -27.27,11.95 z m 2.449,-94.07 c -10.39,0 -18.945,2.2 -25.484,6.61 -6.438,4.28 -11.656,10.18 -15.508,17.47 -3.863,7.26 -5.816,15.76 -5.816,25.3 0,14.3 4.121,26.11 12.265,35.12 8.231,9.07 19.02,13.67 32.094,13.67 12.602,0 22.863,-4.5 30.41,-13.37 7.485,-8.77 11.242,-20.61 11.242,-35.19 v -4.37 H 364.34 c 0.781,-7.09 3.449,-12.88 7.949,-17.21 4.945,-4.72 11.473,-7.13 19.383,-7.13 11.336,0 21.98,3.6 31.586,10.68 l 3.273,2.42 v -22.76 l -0.926,-0.61 c -5.66,-3.79 -11.375,-6.54 -17,-8.18 -5.597,-1.6 -12.218,-2.45 -19.703,-2.45 v 0"
         style="fill:#171717;fill-opacity:1;fill-rule:nonzero;stroke:none"
         id="path102" />
      <path
         d="m 474.668,3491.57 c -4.867,0 -9.004,-1.66 -12.445,-4.93 -3.43,-3.31 -5.149,-7.27 -5.149,-11.87 0,-4.68 1.688,-8.55 5.051,-11.6 3.34,-3.08 7.609,-4.6 12.723,-4.6 5.101,0 9.324,1.55 12.715,4.7 3.394,3.11 5.078,7.02 5.078,11.68 0,4.77 -1.703,8.71 -5.153,11.85 -3.422,3.18 -7.675,4.77 -12.82,4.77 z m -4.238,-79.55 c -6.055,0 -11.039,-1.29 -14.899,-3.86 -3.843,-2.57 -5.761,-5.87 -5.761,-9.88 0,-9.34 8.429,-14.02 25.308,-14.02 7.949,0 14.137,1.17 18.527,3.51 4.348,2.34 6.555,5.65 6.555,9.92 0,4.23 -2.762,7.67 -8.312,10.36 -5.516,2.65 -12.676,3.97 -21.418,3.97 z m -29.567,63.76 c 0,9.66 3.563,17.33 10.625,22.94 7.106,5.66 16.789,8.48 29.004,8.48 h 37.442 v -14.04 h -18.371 c 3.558,-3.64 6.027,-6.93 7.394,-9.89 1.41,-2.97 2.106,-6.36 2.106,-10.17 0,-4.75 -1.36,-9.44 -4.051,-13.97 -2.684,-4.59 -6.199,-8.11 -10.418,-10.54 -4.25,-2.45 -11.235,-4.39 -20.918,-5.85 -6.789,-0.99 -10.18,-3.31 -10.18,-7.01 0,-2.11 1.254,-3.83 3.805,-5.19 2.547,-1.34 7.148,-2.73 13.789,-4.2 11.121,-2.43 18.308,-4.36 21.515,-5.71 3.161,-1.36 6.043,-3.36 8.625,-5.96 4.352,-4.34 6.504,-9.8 6.504,-16.39 0,-8.6 -3.816,-15.51 -11.464,-20.64 -7.7,-5.13 -17.977,-7.7 -30.805,-7.7 -12.985,0 -23.348,2.59 -31.09,7.75 -7.734,5.16 -11.602,12.08 -11.602,20.81 0,12.29 7.614,20.24 22.829,23.8 -6.075,3.89 -9.11,7.75 -9.11,11.57 0,2.88 1.313,5.53 3.922,7.88 2.582,2.38 6.109,4.16 10.527,5.23 -13.406,5.96 -20.078,15.54 -20.078,28.8"
         style="fill:#171717;fill-opacity:1;fill-rule:nonzero;stroke:none"
         id="path104" />
      <path
         d="m 474.668,3489.48 c -4.336,0 -7.965,-1.4 -11.023,-4.33 -3.047,-2.92 -4.504,-6.32 -4.504,-10.38 0,-4.1 1.422,-7.41 4.355,-10.09 3.008,-2.74 6.699,-4.06 11.352,-4.06 4.57,0 8.277,1.32 11.324,4.14 2.984,2.74 4.433,6.09 4.433,10.19 0,4.21 -1.468,7.58 -4.488,10.37 -3.074,2.81 -6.797,4.16 -11.449,4.16 z m 0.18,-32.97 c -5.625,0 -10.375,1.72 -14.133,5.13 -3.777,3.45 -5.68,7.85 -5.68,13.13 0,5.18 1.922,9.65 5.746,13.34 3.824,3.63 8.504,5.52 13.887,5.52 5.629,0 10.445,-1.79 14.234,-5.31 3.856,-3.53 5.793,-8.04 5.793,-13.37 0,-5.26 -1.918,-9.67 -5.711,-13.21 -3.804,-3.47 -8.554,-5.23 -14.136,-5.23 z m -4.418,-46.54 c -5.625,0 -10.231,-1.19 -13.754,-3.51 -3.27,-2.19 -4.852,-4.83 -4.852,-8.18 0,-2.95 0,-11.98 23.254,-11.98 7.582,0 13.492,1.12 17.543,3.27 3.695,1.96 5.465,4.64 5.465,8.12 0,3.37 -2.309,6.15 -7.102,8.49 -5.226,2.5 -12.144,3.79 -20.554,3.79 z m 4.648,-27.77 c -18.187,0 -27.375,5.42 -27.375,16.08 0,4.74 2.27,8.62 6.707,11.59 4.184,2.81 9.567,4.2 16.02,4.2 9.039,0 16.519,-1.39 22.328,-4.2 6.258,-3.02 9.449,-7.12 9.449,-12.18 0,-5.08 -2.578,-9.04 -7.644,-11.75 -4.75,-2.49 -11.125,-3.74 -19.485,-3.74 z m 5.414,122.93 c -11.738,0 -21.051,-2.72 -27.722,-8.03 -6.622,-5.26 -9.856,-12.25 -9.856,-21.32 0,-12.48 6.191,-21.28 18.879,-26.91 l 5.418,-2.42 -5.789,-1.46 c -4.055,-1.02 -7.281,-2.61 -9.613,-4.76 -2.168,-1.96 -3.246,-4.05 -3.246,-6.36 0,-3.05 2.73,-6.36 8.148,-9.83 l 4.082,-2.62 -4.715,-1.12 c -14.285,-3.34 -21.254,-10.49 -21.254,-21.8 0,-8.05 3.477,-14.31 10.727,-19.11 7.316,-4.91 17.414,-7.4 29.914,-7.4 12.383,0 22.328,2.47 29.625,7.35 7.121,4.77 10.594,10.98 10.594,18.94 0,6.11 -1.934,10.98 -5.895,14.96 -2.379,2.37 -5.082,4.21 -8.043,5.5 -3.058,1.31 -10.144,3.21 -21.105,5.58 -6.903,1.54 -11.582,2.97 -14.317,4.42 -4.054,2.15 -4.902,4.99 -4.902,6.99 0,4.88 4.043,7.91 11.973,9.07 9.335,1.42 16.152,3.27 20.14,5.56 3.926,2.25 7.184,5.56 9.703,9.79 2.485,4.21 3.742,8.6 3.742,12.95 0,3.47 -0.613,6.62 -1.859,9.31 -1.293,2.72 -3.641,5.86 -7.035,9.3 l -3.422,3.51 h 21.219 v 9.91 z m -5.027,-137.24 c -13.34,0 -24.172,2.71 -32.235,8.07 -8.308,5.57 -12.507,13.13 -12.507,22.54 0,12.1 6.765,20.38 20.175,24.64 -4.355,3.5 -6.445,7.04 -6.445,10.73 0,3.46 1.543,6.64 4.539,9.42 1.836,1.66 4.004,3.03 6.59,4.12 -11.129,6.35 -16.769,15.86 -16.769,28.37 0,10.26 3.843,18.53 11.402,24.57 7.418,5.89 17.598,8.88 30.277,8.88 h 39.512 v -18.15 h -15.789 c 2.062,-2.45 3.594,-4.76 4.633,-6.95 1.504,-3.24 2.265,-6.94 2.265,-11.03 0,-5.1 -1.468,-10.17 -4.332,-15.06 -2.879,-4.84 -6.621,-8.64 -11.176,-11.23 -4.519,-2.58 -11.601,-4.6 -21.636,-6.08 -5.563,-0.8 -8.422,-2.5 -8.422,-5 0,-0.8 0.277,-2.05 2.73,-3.35 2.332,-1.26 6.821,-2.61 13.243,-4.02 11.386,-2.49 18.523,-4.39 21.878,-5.86 3.426,-1.48 6.524,-3.62 9.274,-6.36 4.73,-4.71 7.133,-10.71 7.133,-17.86 0,-9.3 -4.184,-16.85 -12.41,-22.35 -7.981,-5.34 -18.743,-8.04 -31.93,-8.04 v 0"
         style="fill:#171717;fill-opacity:1;fill-rule:nonzero;stroke:none"
         id="path106" />
      <path
         d="m 545.813,3470.92 h 45.75 c -0.477,7.14 -2.583,12.7 -6.442,16.58 -3.789,3.91 -8.937,5.84 -15.394,5.84 -6.485,0 -11.747,-1.93 -15.887,-5.84 -4.09,-3.88 -6.774,-9.44 -8.027,-16.58 z m 63.546,-10.78 H 545.43 c 0.414,-8.69 3.359,-15.61 8.734,-20.74 5.371,-5.15 12.305,-7.72 20.797,-7.72 11.852,0 22.773,3.71 32.789,11.06 v -17.58 c -5.516,-3.69 -10.992,-6.32 -16.418,-7.89 -5.434,-1.59 -11.82,-2.38 -19.137,-2.38 -9.992,0 -18.101,2.07 -24.336,6.24 -6.136,4.12 -11.086,9.69 -14.847,16.75 -3.719,6.98 -5.574,15.11 -5.574,24.33 0,13.84 3.941,25.09 11.765,33.77 7.813,8.65 18.016,12.97 30.524,12.97 12.07,0 21.668,-4.22 28.867,-12.65 7.152,-8.41 10.765,-19.73 10.765,-33.86 v -2.3"
         style="fill:#171717;fill-opacity:1;fill-rule:nonzero;stroke:none"
         id="path108" />
      <path
         d="m 548.344,3472.97 h 40.969 c -0.661,5.59 -2.598,9.99 -5.629,13.1 -3.493,3.51 -8.016,5.22 -13.957,5.22 -5.957,0 -10.704,-1.74 -14.461,-5.27 -3.297,-3.12 -5.618,-7.52 -6.922,-13.05 z m 45.422,-4.11 h -50.422 l 0.449,2.4 c 1.344,7.63 4.234,13.56 8.672,17.73 4.484,4.26 10.301,6.42 17.262,6.42 7.019,0 12.714,-2.18 16.871,-6.46 4.14,-4.23 6.515,-10.25 7.05,-17.91 z m -24.039,38.04 c -11.997,0 -21.512,-4.04 -29.012,-12.31 -7.453,-8.24 -11.246,-19.12 -11.246,-32.38 0,-8.83 1.82,-16.69 5.351,-23.37 3.575,-6.7 8.34,-12.09 14.239,-16.03 5.82,-3.9 13.574,-5.89 23.136,-5.89 7.082,0 13.356,0.79 18.543,2.35 4.914,1.41 9.95,3.78 14.981,7 v 12.57 c -9.453,-6.13 -19.785,-9.21 -30.758,-9.21 -9.004,0 -16.469,2.78 -22.211,8.26 -5.734,5.52 -8.906,12.96 -9.406,22.13 l -0.082,2.19 64.043,0.23 c 0,13.54 -3.461,24.53 -10.278,32.51 -6.836,8.04 -15.757,11.95 -27.3,11.95 z m 2.468,-94.07 c -10.394,0 -18.933,2.2 -25.441,6.61 -6.457,4.28 -11.68,10.18 -15.547,17.47 -3.852,7.26 -5.82,15.76 -5.82,25.3 0,14.3 4.133,26.11 12.281,35.12 8.176,9.07 19.02,13.67 32.059,13.67 12.652,0 22.863,-4.5 30.41,-13.37 7.484,-8.77 11.273,-20.61 11.273,-35.19 v -4.37 h -63.777 c 0.797,-7.09 3.476,-12.88 7.949,-17.21 4.91,-4.72 11.465,-7.13 19.379,-7.13 11.367,0 21.996,3.6 31.562,10.68 l 3.313,2.42 v -22.76 l -0.926,-0.61 c -5.68,-3.79 -11.387,-6.54 -17.015,-8.18 -5.582,-1.6 -12.188,-2.45 -19.7,-2.45 v 0"
         style="fill:#171717;fill-opacity:1;fill-rule:nonzero;stroke:none"
         id="path110" />
      <path
         d="m 727.512,3491.18 c -8.629,0 -15.692,-2.86 -21.242,-8.52 -5.528,-5.66 -8.29,-12.87 -8.29,-21.64 0,-8.7 2.833,-15.79 8.508,-21.31 5.66,-5.46 12.926,-8.23 21.797,-8.23 8.86,0 16.09,2.79 21.699,8.35 5.653,5.57 8.477,12.71 8.477,21.4 0,8.63 -2.941,15.77 -8.809,21.43 -5.859,5.66 -13.25,8.52 -22.14,8.52 z m 1.004,16.18 c 13.828,0 25.312,-4.47 34.496,-13.39 9.14,-8.88 13.711,-20.11 13.711,-33.63 0,-13.09 -4.637,-23.98 -13.942,-32.66 -9.265,-8.68 -20.949,-13.01 -35.043,-13.01 -13.656,0 -25.039,4.4 -34.191,13.21 -9.176,8.8 -13.723,19.76 -13.723,32.94 0,13.31 4.617,24.39 13.848,33.27 9.273,8.84 20.879,13.27 34.844,13.27"
         style="fill:#171717;fill-opacity:1;fill-rule:nonzero;stroke:none"
         id="path112" />
      <path
         d="m 727.512,3489.11 c -8.114,0 -14.586,-2.61 -19.762,-7.88 -5.187,-5.32 -7.715,-11.91 -7.715,-20.21 0,-8.18 2.582,-14.65 7.895,-19.84 5.234,-5.05 12.086,-7.61 20.355,-7.61 8.379,0 15,2.51 20.266,7.75 5.262,5.2 7.828,11.72 7.828,19.91 0,8.13 -2.652,14.65 -8.125,19.98 -5.551,5.29 -12.316,7.9 -20.742,7.9 z m 0.773,-59.68 c -9.363,0 -17.195,2.98 -23.25,8.84 -6.031,5.88 -9.113,13.54 -9.113,22.75 0,9.28 3,17.04 8.898,23.07 5.907,6.09 13.547,9.14 22.692,9.14 9.429,0 17.367,-3.05 23.551,-9.09 6.257,-6.03 9.457,-13.74 9.457,-22.91 0,-9.22 -3.063,-16.92 -9.075,-22.85 -5.992,-5.9 -13.785,-8.95 -23.16,-8.95 z m 0.231,75.88 c -13.336,0 -24.594,-4.27 -33.414,-12.69 -8.793,-8.43 -13.243,-19.12 -13.243,-31.8 0,-12.52 4.418,-23.11 13.106,-31.45 8.691,-8.38 19.738,-12.61 32.773,-12.61 13.473,0 24.797,4.17 33.653,12.41 8.824,8.22 13.273,18.71 13.273,31.17 0,12.86 -4.383,23.68 -13.101,32.16 -8.711,8.51 -19.833,12.81 -33.047,12.81 z m -0.778,-92.66 c -14.133,0 -26.117,4.62 -35.613,13.76 -9.559,9.14 -14.355,20.73 -14.355,34.41 0,13.86 4.851,25.53 14.5,34.76 9.601,9.19 21.812,13.84 36.246,13.84 14.32,0 26.386,-4.69 35.925,-13.94 9.52,-9.3 14.332,-21.1 14.332,-35.14 0,-13.62 -4.882,-25.15 -14.558,-34.15 -9.641,-9.01 -21.926,-13.54 -36.477,-13.54 v 0"
         style="fill:#171717;fill-opacity:1;fill-rule:nonzero;stroke:none"
         id="path114" />
      <path
         d="m 798.754,3507.2 v 5.39 c 0,14.65 3.141,25.54 9.351,32.73 6.192,7.18 13.711,10.76 22.383,10.76 3.75,0 8.207,-0.61 13.34,-1.74 v -17.63 c -2.894,1.06 -5.664,1.6 -8.308,1.6 -7.04,0 -11.957,-1.88 -14.704,-5.65 -2.711,-3.75 -4.054,-10.44 -4.054,-20.07 v -5.39 h 16.187 v -16.24 h -16.187 v -74.68 h -18.008 v 74.68 h -13.027 v 16.24 h 13.027"
         style="fill:#171717;fill-opacity:1;fill-rule:nonzero;stroke:none"
         id="path116" />
      <path
         d="m 800.824,3418.31 h 13.867 v 74.71 h 16.192 v 12.11 h -16.192 v 7.46 c 0,10.17 1.477,17.13 4.504,21.3 3.149,4.3 8.614,6.48 16.325,6.48 2.019,0 4.097,-0.28 6.238,-0.87 v 13.15 c -4.317,0.93 -8.098,1.39 -11.27,1.39 -8.144,0 -14.965,-3.31 -20.824,-10.06 -5.894,-6.78 -8.84,-17.33 -8.84,-31.39 v -7.46 h -13.082 v -12.11 h 13.082 z m 17.992,-4.11 h -22.097 v 74.73 h -13.082 v 20.3 h 13.082 v 3.36 c 0,15.07 3.297,26.55 9.847,34.07 6.586,7.63 14.622,11.49 23.922,11.49 3.871,0 8.528,-0.63 13.785,-1.82 l 1.622,-0.38 v -22.15 l -2.766,0.97 c -2.68,0.98 -5.246,1.48 -7.609,1.48 -6.309,0 -10.696,-1.61 -13.016,-4.79 -2.449,-3.37 -3.688,-9.73 -3.688,-18.87 v -3.36 H 835 v -20.3 h -16.184 v -74.73 0"
         style="fill:#171717;fill-opacity:1;fill-rule:nonzero;stroke:none"
         id="path118" />
      <path
         d="m 906.168,3554.34 h 19.773 v -136.29 c 0,-12.72 -1.308,-22.1 -3.914,-28.21 -2.609,-6.11 -6.793,-10.97 -12.589,-14.6 -5.79,-3.67 -12.778,-5.53 -20.938,-5.53 -1.258,0 -3.406,0.23 -6.449,0.6 l -3.649,18.39 h 5.039 c 5.692,0 9.993,0.71 13.004,2.08 2.969,1.38 5.379,3.83 7.106,7.3 1.754,3.48 2.617,10.93 2.617,22.25 v 134.01"
         style="fill:#171717;fill-opacity:1;fill-rule:nonzero;stroke:none"
         id="path120" />
      <path
         d="m 883.789,3372.18 c 2.149,-0.23 3.707,-0.4 4.711,-0.4 7.73,0 14.406,1.75 19.836,5.18 5.41,3.43 9.383,8.01 11.816,13.69 2.481,5.78 3.703,15.01 3.703,27.4 v 134.2 H 908.23 v -131.92 c 0,-11.77 -0.96,-19.35 -2.824,-23.14 -1.961,-3.91 -4.687,-6.71 -8.101,-8.26 -3.289,-1.54 -7.84,-2.29 -13.864,-2.29 h -2.535 z m 4.711,-4.52 c -1.316,0 -3.539,0.23 -6.703,0.63 l -1.453,0.19 -4.453,22.28 h 7.55 c 5.344,0 9.45,0.63 12.11,1.89 2.617,1.2 4.605,3.28 6.164,6.36 1.094,2.19 2.394,7.66 2.394,21.32 v 136.06 h 23.875 v -138.34 c 0,-13.12 -1.328,-22.61 -4.078,-29 -2.73,-6.46 -7.242,-11.69 -13.386,-15.57 -6.079,-3.83 -13.528,-5.82 -22.02,-5.82 v 0"
         style="fill:#171717;fill-opacity:1;fill-rule:nonzero;stroke:none"
         id="path122" />
      <path
         d="m 963.949,3470.92 h 45.771 c -0.45,7.14 -2.6,12.7 -6.42,16.58 -3.827,3.91 -8.925,5.84 -15.413,5.84 -6.457,0 -11.719,-1.93 -15.86,-5.84 -4.105,-3.88 -6.816,-9.44 -8.078,-16.58 z m 63.571,-10.78 h -63.93 c 0.457,-8.69 3.39,-15.61 8.738,-20.74 5.375,-5.15 12.297,-7.72 20.801,-7.72 11.861,0 22.781,3.71 32.771,11.06 v -17.58 c -5.52,-3.69 -10.98,-6.32 -16.38,-7.89 -5.46,-1.59 -11.832,-2.38 -19.168,-2.38 -9.997,0 -18.09,2.07 -24.317,6.24 -6.176,4.12 -11.125,9.69 -14.847,16.75 -3.743,6.98 -5.598,15.11 -5.598,24.33 0,13.84 3.926,25.09 11.754,33.77 7.867,8.65 18.043,12.97 30.543,12.97 12.062,0 21.693,-4.22 28.853,-12.65 7.19,-8.41 10.78,-19.73 10.78,-33.86 v -2.3"
         style="fill:#171717;fill-opacity:1;fill-rule:nonzero;stroke:none"
         id="path124" />
      <path
         d="m 966.516,3472.97 h 40.934 c -0.68,5.59 -2.57,9.99 -5.61,13.1 -3.442,3.51 -8.012,5.22 -13.953,5.22 -5.961,0 -10.68,-1.74 -14.453,-5.27 -3.282,-3.12 -5.629,-7.52 -6.918,-13.05 z m 45.414,-4.11 h -50.399 l 0.418,2.4 c 1.321,7.63 4.235,13.56 8.637,17.73 4.519,4.26 10.332,6.42 17.301,6.42 6.984,0 12.683,-2.18 16.883,-6.46 4.16,-4.23 6.5,-10.25 7.03,-17.91 z m -24.043,38.04 c -12.032,0 -21.504,-4.04 -29.016,-12.31 -7.453,-8.24 -11.203,-19.12 -11.203,-32.38 0,-8.83 1.781,-16.69 5.324,-23.37 3.555,-6.7 8.332,-12.09 14.203,-16.03 5.809,-3.9 13.59,-5.89 23.157,-5.89 7.105,0 13.338,0.79 18.538,2.35 4.93,1.41 9.96,3.78 15,7 v 12.57 c -9.45,-6.13 -19.78,-9.21 -30.761,-9.21 -9.004,0 -16.484,2.78 -22.227,8.26 -5.742,5.52 -8.875,12.96 -9.371,22.13 l -0.136,2.19 64.045,0.23 c 0,13.54 -3.46,24.53 -10.26,32.51 -6.82,8.04 -15.778,11.95 -27.293,11.95 z m 2.465,-94.07 c -10.375,0 -18.934,2.2 -25.457,6.61 -6.422,4.28 -11.657,10.18 -15.532,17.47 -3.851,7.26 -5.793,15.76 -5.793,25.3 0,14.3 4.106,26.11 12.254,35.12 8.223,9.07 19.02,13.67 32.063,13.67 12.623,0 22.873,-4.5 30.443,-13.37 7.45,-8.77 11.25,-20.61 11.25,-35.19 v -4.37 h -63.76 c 0.746,-7.09 3.414,-12.88 7.926,-17.21 4.938,-4.72 11.473,-7.13 19.383,-7.13 11.361,0 21.981,3.6 31.551,10.68 l 3.27,2.42 v -22.76 l -0.88,-0.61 c -5.66,-3.79 -11.39,-6.54 -17,-8.18 -5.62,-1.6 -12.238,-2.45 -19.718,-2.45 v 0"
         style="fill:#171717;fill-opacity:1;fill-rule:nonzero;stroke:none"
         id="path126" />
      <path
         d="m 1089.49,3491.18 c -8.63,0 -15.72,-2.86 -21.28,-8.52 -5.56,-5.66 -8.29,-12.87 -8.29,-21.64 0,-8.7 2.8,-15.79 8.51,-21.31 5.64,-5.46 12.93,-8.23 21.8,-8.23 8.84,0 16.06,2.79 21.72,8.35 5.61,5.57 8.45,12.71 8.45,21.4 0,8.63 -2.94,15.77 -8.8,21.43 -5.88,5.66 -13.25,8.52 -22.11,8.52 z m 0.96,16.18 c 13.85,0 25.34,-4.47 34.49,-13.39 9.16,-8.88 13.72,-20.11 13.72,-33.63 0,-13.09 -4.63,-23.98 -13.92,-32.66 -9.28,-8.68 -20.96,-13.01 -35.06,-13.01 -13.65,0 -25.08,4.4 -34.19,13.21 -9.16,8.8 -13.78,19.76 -13.78,32.94 0,13.31 4.66,24.39 13.92,33.27 9.24,8.84 20.85,13.27 34.82,13.27"
         style="fill:#171717;fill-opacity:1;fill-rule:nonzero;stroke:none"
         id="path128" />
      <path
         d="m 1089.49,3489.11 c -8.15,0 -14.62,-2.61 -19.8,-7.88 -5.2,-5.32 -7.73,-11.91 -7.73,-20.21 0,-8.18 2.61,-14.65 7.88,-19.84 5.25,-5.05 12.12,-7.61 20.39,-7.61 8.36,0 15,2.51 20.26,7.75 5.3,5.2 7.83,11.72 7.83,19.91 0,8.13 -2.66,14.65 -8.16,19.98 -5.5,5.29 -12.28,7.9 -20.67,7.9 z m 0.74,-59.68 c -9.37,0 -17.22,2.98 -23.27,8.84 -6.03,5.88 -9.09,13.54 -9.09,22.75 0,9.28 2.96,17.04 8.85,23.07 5.97,6.09 13.62,9.14 22.77,9.14 9.36,0 17.29,-3.05 23.55,-9.09 6.24,-6.03 9.41,-13.74 9.41,-22.91 0,-9.22 -3.06,-16.92 -9.08,-22.85 -5.99,-5.9 -13.77,-8.95 -23.14,-8.95 z m 0.22,75.88 c -13.35,0 -24.57,-4.27 -33.42,-12.69 -8.8,-8.43 -13.28,-19.12 -13.28,-31.8 0,-12.52 4.48,-23.11 13.14,-31.45 8.73,-8.38 19.74,-12.61 32.79,-12.61 13.47,0 24.83,4.17 33.65,12.41 8.81,8.22 13.3,18.71 13.3,31.17 0,12.86 -4.44,23.68 -13.11,32.16 -8.76,8.51 -19.88,12.81 -33.07,12.81 z m -0.77,-92.66 c -14.14,0 -26.13,4.62 -35.63,13.76 -9.52,9.14 -14.34,20.73 -14.34,34.41 0,13.86 4.84,25.53 14.53,34.76 9.57,9.19 21.76,13.84 36.21,13.84 14.32,0 26.42,-4.69 35.92,-13.94 9.53,-9.3 14.38,-21.1 14.38,-35.14 0,-13.62 -4.93,-25.15 -14.6,-34.15 -9.65,-9.01 -21.92,-13.54 -36.47,-13.54 v 0"
         style="fill:#171717;fill-opacity:1;fill-rule:nonzero;stroke:none"
         id="path130" />
      <path
         d="m 1176.62,3507.2 v -11.59 c 8.03,8.91 17.16,13.34 27.37,13.34 5.65,0 10.9,-1.46 15.81,-4.38 4.89,-2.97 8.58,-6.97 11.1,-12.07 2.55,-5.09 3.81,-13.18 3.81,-24.27 v -51.95 h -17.97 v 51.77 c 0,9.29 -1.42,15.9 -4.23,19.9 -2.87,3.99 -7.6,5.98 -14.26,5.98 -8.49,0 -15.69,-4.25 -21.63,-12.72 v -64.93 h -18.39 v 90.92 h 18.39"
         style="fill:#171717;fill-opacity:1;fill-rule:nonzero;stroke:none"
         id="path132" />
      <path
         d="m 1218.78,3418.31 h 13.87 v 49.92 c 0,10.73 -1.18,18.57 -3.57,23.36 -2.36,4.73 -5.83,8.49 -10.33,11.21 -4.54,2.72 -9.49,4.1 -14.76,4.1 -9.58,0 -18.28,-4.27 -25.84,-12.66 l -3.57,-3.98 v 14.87 h -14.28 v -86.82 h 14.28 l 0.37,64.06 c 6.3,9.04 14.15,13.64 23.3,13.64 7.32,0 12.65,-2.32 15.93,-6.87 3.11,-4.39 4.6,-11.31 4.6,-21.09 z m 18.01,-4.11 h -22.12 v 53.85 c 0,8.81 -1.29,15.1 -3.87,18.72 -2.45,3.45 -6.58,5.1 -12.55,5.1 -7.64,0 -14.1,-3.7 -19.56,-11.36 v -66.31 h -22.51 v 95.03 h 22.51 v -8.62 c 7.5,6.92 16.04,10.39 25.3,10.39 6.03,0 11.71,-1.58 16.89,-4.66 5.16,-3.15 9.19,-7.48 11.88,-12.91 2.69,-5.45 4.03,-13.71 4.03,-25.2 v -54.03 0"
         style="fill:#171717;fill-opacity:1;fill-rule:nonzero;stroke:none"
         id="path134" />
      <path
         d="m 1268.11,3545.4 c 2.94,0 5.51,-1.02 7.63,-3.07 2.08,-2.13 3.16,-4.58 3.16,-7.49 0,-3.04 -1.04,-5.56 -3.03,-7.6 -2.04,-2.06 -4.55,-3.07 -7.56,-3.07 -2.84,0 -5.34,1.03 -7.52,3.16 -2.17,2.11 -3.25,4.6 -3.25,7.51 0,2.79 1.08,5.2 3.22,7.37 2.14,2.17 4.62,3.19 7.35,3.19 z m -8.49,-38.2 h 17.99 v -103.85 c 0,-15.76 -6.06,-26.9 -18.15,-33.41 l -13.37,13.13 c 4.14,1.45 7.4,3.97 9.89,7.63 2.39,3.6 3.64,7.83 3.64,12.65 v 103.85"
         style="fill:#171717;fill-opacity:1;fill-rule:nonzero;stroke:none"
         id="path136" />
      <path
         d="m 1268.11,3543.35 c -2.22,0 -4.17,-0.87 -5.91,-2.62 -1.76,-1.71 -2.58,-3.67 -2.58,-5.89 0,-2.35 0.82,-4.32 2.61,-6.02 3.71,-3.64 9.05,-3.31 12.16,-0.14 1.66,1.66 2.41,3.68 2.41,6.16 0,2.32 -0.81,4.3 -2.52,6.01 -1.76,1.69 -3.74,2.5 -6.17,2.5 z m 0.2,-21.26 c -3.38,0 -6.4,1.3 -8.96,3.76 -2.57,2.5 -3.86,5.51 -3.86,8.99 0,3.31 1.28,6.27 3.81,8.84 5.17,5.2 12.99,4.9 17.86,0.1 2.52,-2.48 3.8,-5.49 3.8,-8.94 0,-3.58 -1.2,-6.59 -3.62,-9.04 -2.42,-2.45 -5.44,-3.71 -9.03,-3.71 z m -18.61,-139.7 10.1,-9.9 c 10.59,6.24 15.74,16.36 15.74,30.86 v 101.78 h -13.86 v -101.78 c 0,-5.23 -1.35,-9.88 -4,-13.81 -2.08,-3.08 -4.76,-5.48 -7.98,-7.15 z m 9.39,-14.99 -16.8,16.51 3.09,1.09 c 3.75,1.33 6.66,3.58 8.89,6.81 2.19,3.26 3.27,7.13 3.27,11.54 v 105.88 h 22.1 v -105.88 c 0,-16.49 -6.45,-28.34 -19.2,-35.23 l -1.35,-0.72 v 0"
         style="fill:#171717;fill-opacity:1;fill-rule:nonzero;stroke:none"
         id="path138" />
      <path
         d="m 1362.06,3416.28 v 11.66 c -3.79,-4.17 -8.14,-7.43 -13.06,-9.76 -4.9,-2.35 -9.8,-3.51 -14.68,-3.51 -5.75,0 -11.02,1.45 -15.86,4.3 -4.83,2.9 -8.47,6.76 -10.97,11.67 -2.46,4.91 -3.68,13.06 -3.68,24.48 v 52.08 h 17.96 v -51.84 c 0,-9.54 1.39,-16.2 4.1,-19.97 2.75,-3.77 7.5,-5.68 14.39,-5.68 8.54,0 15.84,4.2 21.8,12.54 v 64.95 h 17.99 v -90.92 h -17.99"
         style="fill:#171717;fill-opacity:1;fill-rule:nonzero;stroke:none"
         id="path140" />
      <path
         d="m 1305.85,3505.13 v -50.01 c 0,-11.03 1.18,-18.94 3.46,-23.57 2.32,-4.5 5.72,-8.12 10.21,-10.82 8.35,-4.9 18.57,-5.45 28.59,-0.7 4.65,2.22 8.82,5.31 12.45,9.31 l 3.57,3.86 v -14.89 h 13.85 v 86.82 h -13.85 l -0.36,-64.07 c -6.39,-8.92 -14.31,-13.42 -23.51,-13.42 -7.5,0 -12.9,2.19 -16.09,6.52 -3,4.19 -4.45,11.13 -4.45,21.2 v 49.77 z m 28.47,-92.48 c -6.08,0 -11.74,1.53 -16.9,4.57 -5.2,3.08 -9.12,7.28 -11.77,12.51 -2.65,5.26 -3.93,13.56 -3.93,25.39 v 54.11 h 22.1 v -53.87 c 0,-9.04 1.23,-15.37 3.71,-18.77 2.33,-3.22 6.59,-4.84 12.73,-4.84 7.71,0 14.22,3.67 19.77,11.19 v 66.29 h 22.09 v -95.03 h -22.09 v 8.85 c -3.1,-2.75 -6.48,-5 -10.19,-6.73 -5.13,-2.45 -10.36,-3.67 -15.52,-3.67 v 0"
         style="fill:#171717;fill-opacity:1;fill-rule:nonzero;stroke:none"
         id="path142" />
      <path
         d="m 1664.84,3601.95 h 39.18 v -208.1 h -39.18 v 110.24 h -49.85 v 32.11 h 49.85 z m -76.22,-189.55 v -59.31 h 121.62 v -34.3 h -161.12 v 93.61 z m -95.88,143.56 v 33.63 h 136.2 v -33.63 h -47.5 v -12.38 c 0,-7.8 1.54,-15.97 4.49,-24.54 2.95,-8.52 6.43,-15.48 10.41,-20.85 4.7,-6.39 10.95,-12.81 18.8,-19.3 7.81,-6.48 16.76,-12.3 26.88,-17.44 l -19.93,-28.39 c -4.76,2.07 -9.83,4.78 -15.26,8.17 -5.41,3.41 -10.73,7.07 -15.88,10.98 -5.51,4.5 -10.78,9.3 -15.84,14.37 -5.03,5.03 -9.18,9.78 -12.31,14.33 -2.8,-4.34 -6.23,-8.93 -10.45,-13.73 -4.12,-4.84 -8.66,-9.64 -13.62,-14.38 -5.52,-5.32 -11.24,-10.39 -17.24,-15.09 -5.91,-4.77 -11.7,-8.68 -17.43,-11.75 l -24.66,27.18 c 8.89,5.36 17.55,11.88 25.97,19.6 8.37,7.71 15.08,15.17 20.01,22.38 3.95,5.95 7.44,13.47 10.37,22.54 2.98,9.04 4.49,17.5 4.49,25.3 v 13 h -47.5"
         style="fill:#231f20;fill-opacity:1;fill-rule:nonzero;stroke:none"
         id="path144" />
      <path
         d="m 1788.17,3555.32 v 33.98 h 163.81 v -33.98 h -59.67 c 1.37,-5.98 3.63,-11.59 6.67,-16.86 3.08,-5.23 6.85,-9.98 11.39,-14.33 5.4,-5.15 13.08,-10.54 23.21,-16.24 10.06,-5.62 20.98,-10.32 32.62,-14.03 l -18.67,-28.38 c -6.55,1.86 -13.54,4.56 -20.92,8.18 -7.45,3.59 -14.74,7.58 -21.83,11.89 -7.33,4.32 -13.99,8.9 -19.91,13.74 -5.9,4.81 -10.54,9.5 -13.93,14.03 -3.55,-4.33 -8.35,-8.9 -14.41,-13.76 -6.01,-4.81 -12.6,-9.5 -19.68,-14.01 -6.96,-4.31 -14.18,-8.25 -21.67,-11.75 -7.51,-3.48 -14.75,-6.28 -21.65,-8.32 l -19.3,28.08 c 12.23,4.14 23.71,9.33 34.41,15.61 10.69,6.27 18.95,12.4 24.94,18.34 3.17,3.13 6.04,7.15 8.6,12.2 2.54,5.02 4.48,10.24 5.62,15.61 z m -40.64,-133.07 v 33.65 h 245.66 v -33.65 h -101.5 v -71.63 h -41.23 v 71.63 h -102.93"
         style="fill:#231f20;fill-opacity:1;fill-rule:nonzero;stroke:none"
         id="path146" />
      <path
         d="m 2198.96,3601.55 h 39.45 v -244.52 h -39.45 z M 2074.92,3458.6 h 47.45 v 47.26 h -47.45 z m -38.93,131.54 h 38.93 v -50.95 h 47.45 v 50.95 h 38.93 v -165.51 h -125.31 v 165.51"
         style="fill:#231f20;fill-opacity:1;fill-rule:nonzero;stroke:none"
         id="path148" />
      <path
         d="m 2465.99,3601.95 h 39.16 v -208.1 h -39.16 v 110.24 h -49.89 v 32.11 h 49.89 z m -76.27,-189.55 v -59.31 h 121.62 v -34.3 h -161.1 v 93.61 z m -95.82,143.56 v 33.63 h 136.15 v -33.63 h -47.44 v -12.38 c 0,-7.8 1.43,-15.97 4.44,-24.54 2.94,-8.52 6.44,-15.48 10.38,-20.85 4.77,-6.39 11.02,-12.81 18.83,-19.3 7.83,-6.48 16.82,-12.3 26.83,-17.44 l -19.9,-28.39 c -4.7,2.07 -9.78,4.78 -15.21,8.17 -5.46,3.41 -10.76,7.07 -15.88,10.98 -5.58,4.5 -10.85,9.3 -15.9,14.37 -5.02,5.03 -9.12,9.78 -12.32,14.33 -2.71,-4.34 -6.21,-8.93 -10.33,-13.73 -4.2,-4.84 -8.72,-9.64 -13.67,-14.38 -5.55,-5.32 -11.34,-10.39 -17.25,-15.09 -5.94,-4.77 -11.75,-8.68 -17.48,-11.75 l -24.64,27.18 c 8.89,5.36 17.55,11.88 25.95,19.6 8.46,7.71 15.11,15.17 20.07,22.38 3.97,5.95 7.39,13.47 10.34,22.54 3.01,9.04 4.49,17.5 4.49,25.3 v 13 h -47.46"
         style="fill:#231f20;fill-opacity:1;fill-rule:nonzero;stroke:none"
         id="path150" />
      <path
         d="m 2739.7,3601.18 h 38.56 v -246.37 h -38.56 v 134.61 h -19.61 v -127.49 h -37.38 v 234.92 h 37.38 v -70.38 h 19.61 z m -64.44,-161.46 c -12.05,-4.09 -24.94,-6.75 -38.71,-7.89 -13.77,-1.11 -25.11,-1.67 -34.25,-1.67 l -40.04,-0.31 v 156.54 h 101.4 v -34.9 h -62.56 v -87.69 l 5.04,-0.3 c 8.52,-0.4 19.67,0.24 33.38,1.98 13.76,1.79 25.67,4 35.74,6.66 v -32.42"
         style="fill:#231f20;fill-opacity:1;fill-rule:nonzero;stroke:none"
         id="path152" />
      <path
         d="m 3067.92,3528.87 v -34.58 h -37.4 v -60.18 h -39.2 v 167.31 h 39.2 v -72.55 z m -192.97,-106.23 h 155.57 v -106.79 h -39.49 v 73.45 h -116.08 z m 39.84,108.69 c -6.16,6.59 -12.79,9.87 -19.92,9.87 -7.07,0 -13.71,-3.28 -19.92,-9.87 -6.09,-6.58 -9.16,-14.43 -9.16,-23.47 0,-8.81 3.07,-16.57 9.16,-23.14 6.21,-6.61 12.85,-9.9 19.92,-9.9 7.13,0 13.76,3.29 19.92,9.9 6.1,6.57 9.18,14.33 9.18,23.14 0,9.04 -3.08,16.89 -9.18,23.47 m 62.29,47.24 v -33.37 h -29.36 c 4.54,-5.32 8.13,-11.31 10.63,-17.87 2.58,-6.59 3.94,-13.48 3.94,-20.7 0,-18.11 -6.52,-33.65 -19.51,-46.64 -12.99,-12.93 -28.92,-19.44 -47.91,-19.44 -19.03,0 -34.93,6.51 -47.75,19.44 -12.87,12.99 -19.32,28.53 -19.32,46.64 0,7.22 1.35,14.11 3.91,20.7 2.54,6.56 6.03,12.55 10.35,17.87 h -29.94 v 33.37 h 62.32 v 31.18 h 41.82 v -31.18 h 60.82"
         style="fill:#231f20;fill-opacity:1;fill-rule:nonzero;stroke:none"
         id="path154" />
      <path
         d="m 3227.74,3553.21 h -131.81 v 36.82 h 173.92 c 0,0 0.1,-117.43 -12.61,-147.91 h -38.46 c 0,0 14.55,50.31 8.96,111.09"
         style="fill:#231f20;fill-opacity:1;fill-rule:nonzero;stroke:none"
         id="path156" />
      <path
         d="m 3281.83,3420.45 v -36.84 h -206.68 v 36.84 h 42.59 v 36.06 h 38.99 v -36.06 h 14.57 v 36.06 h 39 v -36.06 h 71.53"
         style="fill:#231f20;fill-opacity:1;fill-rule:nonzero;stroke:none"
         id="path158" />
      <path
         d="m 1431.1,3654.98 v -416.56 h 8.03 v 416.56 h -8.03"
         style="fill:#171717;fill-opacity:1;fill-rule:nonzero;stroke:none"
         id="path160" />
      <path
         d="m 411.422,4384.6 v -48.9 c 0,0 65.859,0 89.828,0 -10.66,-29.34 -116.762,-323.14 -136.426,-377.72 -19.847,54.58 -126.609,348.38 -137.273,377.72 23.918,0 88.887,0 88.887,0 v 48.9 H 0 v -48.9 c 0,0 64.9648,0 79.0078,0 6.0078,-16.53 218.9882,-602.86 218.9882,-602.86 h 45.738 c 0,0 206.633,586.05 212.637,602.86 14.219,0 79.734,0 79.734,0 v 48.9 H 623.164 411.422"
         style="fill:#171717;fill-opacity:1;fill-rule:nonzero;stroke:none"
         id="path162" />
      <path
         d="m 993.879,4333.21 v 49.61 h -329.27 v -49.61 c 0,0 72.571,0 92.071,0 0,-24.4 0,-523.6 0,-548.18 -19.5,0 -92.071,0 -92.071,0 v -49.48 h 329.27 v 49.48 c 0,0 -72.719,0 -91.984,0 0,24.58 0,523.78 0,548.18 19.265,0 91.984,0 91.984,0"
         style="fill:#171717;fill-opacity:1;fill-rule:nonzero;stroke:none"
         id="path164" />
      <path
         d="m 1367.24,4132.34 c -18.42,8.77 -39.08,14.93 -57.3,20.37 l -5.93,1.83 c -0.04,0 -20.05,6.25 -20.05,6.25 l -37.79,11.46 c -0.08,0 -12.71,3.32 -12.71,3.32 -55.63,14.92 -84.66,25.13 -84.66,78.74 0,57.38 53.03,92.91 102.1,92.91 96.33,0 139.86,-80.84 147.81,-150.07 l 1.32,-11.65 h 54.66 v 201.95 h -35.42 c 0,0 -21.79,-22.83 -31.37,-32.85 -41.17,29.64 -80.97,42.18 -134.1,42.18 -104,0 -182.39,-78.82 -182.39,-183.31 0,-96.83 49.16,-165.16 138.59,-192.04 18.34,-5.46 36.9,-12.01 55.13,-18.34 0.08,-0.07 20,-6.75 20,-6.75 63.5,-21.12 118.2,-39.43 118.2,-108.19 0,-65.58 -55.09,-117.06 -125.37,-117.06 -110.88,0 -147.66,111.81 -158.32,159.8 l -2.21,10.26 h -50.62 v -211.24 h 33.88 c 0,0 28.26,25.24 39.07,35.05 33.77,-25.82 85.76,-43.39 131.7,-43.39 123.14,0 209.25,89.13 209.25,216.77 0,95.57 -36.02,157.17 -113.47,194"
         style="fill:#171717;fill-opacity:1;fill-rule:nonzero;stroke:none"
         id="path166" />
      <path
         d="m 1877.71,4333.21 v 49.61 h -329.32 v -49.61 c 0,0 72.58,0 91.95,0 0,-24.4 0,-523.6 0,-548.18 -19.37,0 -91.95,0 -91.95,0 v -49.48 h 329.32 v 49.48 c 0,0 -72.77,0 -92.11,0 0,24.58 0,523.78 0,548.18 19.34,0 92.11,0 92.11,0"
         style="fill:#171717;fill-opacity:1;fill-rule:nonzero;stroke:none"
         id="path168" />
      <path
         d="M 3281.83,3732.37 H 3152.65 L 2792,4150.41 v -418.04 h -154.9 v 652.46 h 141.53 l 348.27,-398.95 v 398.95 h 154.93 v -652.46"
         style="fill:#ee481f;fill-opacity:1;fill-rule:nonzero;stroke:none"
         id="path170" />
      <path
         d="m 2225.37,3871.71 c -103.05,0 -186.59,83.53 -186.59,186.6 0,103.09 83.54,186.57 186.59,186.57 102.99,0 186.46,-83.48 186.46,-186.57 0,-103.07 -83.47,-186.6 -186.46,-186.6 z m 0,525.7 c -187.27,0 -339.1,-151.89 -339.1,-339.1 0,-187.17 151.83,-338.93 339.1,-338.93 187.23,0 339.05,151.76 339.05,338.93 0,187.21 -151.82,339.1 -339.05,339.1"
         style="fill:#ee481f;fill-opacity:1;fill-rule:nonzero;stroke:none"
         id="path172" />
    </g>
  </g>
</svg>
