<?xml version="1.0" encoding="UTF-8" standalone="no"?>
<!-- Created with Inkscape (http://www.inkscape.org/) -->

<svg
   xmlns:dc="http://purl.org/dc/elements/1.1/"
   xmlns:cc="http://creativecommons.org/ns#"
   xmlns:rdf="http://www.w3.org/1999/02/22-rdf-syntax-ns#"
   xmlns:svg="http://www.w3.org/2000/svg"
   xmlns="http://www.w3.org/2000/svg"
   xmlns:sodipodi="http://sodipodi.sourceforge.net/DTD/sodipodi-0.dtd"
   xmlns:inkscape="http://www.inkscape.org/namespaces/inkscape"
   width="135.46666mm"
   height="64.574463mm"
   viewBox="0 0 135.46666 64.574463"
   version="1.1"
   id="svg2229"
   inkscape:version="0.92.1 r15371"
   sodipodi:docname="udc text logo.svg">
  <defs
     id="defs2223">
    <clipPath
       clipPathUnits="userSpaceOnUse"
       id="clipPath604">
      <path
         d="M 35.849,359.4 H 268 V 468 H 35.849 Z"
         id="path602"
         inkscape:connector-curvature="0" />
    </clipPath>
  </defs>
  <sodipodi:namedview
     id="base"
     pagecolor="#ffffff"
     bordercolor="#666666"
     borderopacity="1.0"
     inkscape:pageopacity="0.0"
     inkscape:pageshadow="2"
     inkscape:zoom="0.35"
     inkscape:cx="-174"
     inkscape:cy="-89.398088"
     inkscape:document-units="mm"
     inkscape:current-layer="layer1"
     showgrid="false"
     fit-margin-top="0"
     fit-margin-left="0"
     fit-margin-right="0"
     fit-margin-bottom="0"
     inkscape:window-width="1600"
     inkscape:window-height="838"
     inkscape:window-x="-8"
     inkscape:window-y="-8"
     inkscape:window-maximized="1" />
  <metadata
     id="metadata2226">
    <rdf:RDF>
      <cc:Work
         rdf:about="">
        <dc:format>image/svg+xml</dc:format>
        <dc:type
           rdf:resource="http://purl.org/dc/dcmitype/StillImage" />
        <dc:title></dc:title>
      </cc:Work>
    </rdf:RDF>
  </metadata>
  <g
     inkscape:label="Layer 1"
     inkscape:groupmode="layer"
     id="layer1"
     transform="translate(-22.980952,-60.605624)">
    <g
       transform="matrix(0.59461052,0,0,-0.59461052,-0.90800103,338.88311)"
       id="g598">
      <g
         id="g600"
         clip-path="url(#clipPath604)">
        <g
           id="g606"
           transform="translate(71.4628,466.8346)">
          <path
             d="m 0,0 c -3.586,0 -3.541,-1.749 -3.541,-7.218 v -12.908 c 0,-6.097 -3.81,-10.669 -11.699,-10.669 -7.396,0 -11.833,3.587 -11.968,11.207 v 16.36 c 0,3.137 -1.703,3.183 -4.079,3.228 v 1.165 c 2.107,-0.045 4.168,-0.09 6.185,-0.09 2.063,0 4.125,0.045 6.366,0.09 V 0 c -2.376,-0.045 -4.08,-0.091 -4.08,-3.228 v -15.24 c 0,-5.333 1.749,-10.489 8.741,-10.489 7.441,0 8.158,5.738 8.158,8.831 V -7.351 C -5.917,0 -6.186,-0.135 -10.175,0 v 1.165 c 1.883,-0.045 3.765,-0.09 5.648,-0.09 1.523,0 3.003,0.09 4.527,0.09 z"
             style="fill:#b72829;fill-opacity:1;fill-rule:nonzero;stroke:none"
             id="path608"
             inkscape:connector-curvature="0" />
        </g>
        <g
           id="g610"
           transform="translate(94.7968,444.523)">
          <path
             d="m 0,0 h -0.722 l -16.406,18.005 v -11.7 c 0,-4.329 0.345,-5.208 3.733,-5.208 V 0.282 c -1.38,0 -2.792,0.062 -4.172,0.062 -1.38,0 -2.792,-0.032 -4.172,-0.062 v 0.815 c 1.913,0 3.356,0 3.356,3.984 v 12.612 c 0,2.696 -1.161,3.669 -3.858,3.669 v 0.816 c 0.972,-0.032 1.913,-0.063 2.886,-0.063 0.847,0 1.725,0.063 2.572,0.063 1.286,-1.914 4.203,-4.768 7.78,-8.721 2.666,-2.949 5.616,-6.054 7.748,-8.376 v 12.486 c 0,2.886 -0.659,3.765 -3.796,3.795 v 0.816 c 1.444,-0.032 2.919,-0.063 4.361,-0.063 1.223,0 2.415,0.063 3.638,0.063 V 21.362 C 1.035,21.362 0,21.206 0,18.131 Z"
             style="fill:#b72829;fill-opacity:1;fill-rule:nonzero;stroke:none"
             id="path612"
             inkscape:connector-curvature="0" />
        </g>
        <g
           id="g614"
           transform="translate(102.2644,463.6269)">
          <path
             d="m 0,0 c 0,2.196 -1.192,2.228 -2.854,2.259 v 0.815 c 1.473,-0.032 2.917,-0.062 4.329,-0.062 1.442,0 2.886,0.03 4.453,0.062 V 2.259 C 4.266,2.228 3.074,2.196 3.074,0 v -15.748 c 0,-2.196 1.192,-2.227 2.854,-2.259 v -0.815 c -1.505,0 -2.854,0.062 -4.234,0.062 -1.505,0 -2.98,-0.032 -4.548,-0.062 v 0.815 C -1.192,-17.975 0,-17.944 0,-15.748 Z"
             style="fill:#b72829;fill-opacity:1;fill-rule:nonzero;stroke:none"
             id="path616"
             inkscape:connector-curvature="0" />
        </g>
        <g
           id="g618"
           transform="translate(114.9688,457.3221)">
          <path
             d="m 0,0 c -0.783,2.008 -1.694,4.046 -2.415,6.084 -0.721,1.883 -1.224,2.479 -3.293,2.479 v 0.816 c 1.473,-0.032 2.948,-0.063 4.423,-0.063 1.316,0 2.666,0.063 3.983,0.063 V 8.563 C 2.228,8.533 1.789,8.533 1.349,8.469 0.91,8.438 0.534,8.187 0.534,7.716 c 0,-1.035 1.663,-4.83 2.007,-5.74 l 4.173,-10.729 2.384,6.211 c 0.754,2.04 1.633,4.048 2.29,6.086 0.314,1.004 0.973,2.54 0.973,3.576 0,1.474 -1.255,1.381 -2.384,1.443 v 0.816 c 1.222,-0.032 2.477,-0.063 3.702,-0.063 0.973,0 1.945,0.031 2.917,0.063 V 8.563 C 15.53,8.563 14.934,8.092 14.494,7.339 14.306,6.995 12.173,1.567 12.11,1.411 l -5.741,-14.4 h -1.16 z"
             style="fill:#b72829;fill-opacity:1;fill-rule:nonzero;stroke:none"
             id="path620"
             inkscape:connector-curvature="0" />
        </g>
        <g
           id="g622"
           transform="translate(138.8739,456.7881)">
          <path
             d="M 0,0 H 4.142 C 6.683,0 6.683,1.976 6.776,2.698 H 7.403 C 7.342,2.008 7.278,0.314 7.278,-0.815 c 0,-1.004 0.158,-2.479 0.125,-3.483 H 6.776 c 0,3.011 -1.003,3.011 -3.419,3.011 H 0 v -5.331 c 0,-3.483 0.126,-4.362 3.233,-4.362 h 1.944 c 3.074,0.157 4.455,0.565 5.679,3.921 l 0.752,-0.125 c -0.502,-1.568 -0.972,-3.168 -1.286,-4.799 -3.137,0 -6.274,0.062 -9.412,0.062 -2.321,0 -4.642,0 -6.963,-0.062 v 0.815 c 2.73,0 2.98,0.502 2.98,3.546 V 6.306 c 0,2.571 -0.502,2.697 -2.98,2.791 V 9.913 C -3.95,9.85 -1.818,9.85 0.283,9.85 c 3.011,0 5.991,0 9.035,0.063 V 5.238 L 8.691,5.082 C 8.221,8.031 6.809,8.909 3.672,8.909 H 0 Z"
             style="fill:#b72829;fill-opacity:1;fill-rule:nonzero;stroke:none"
             id="path624"
             inkscape:connector-curvature="0" />
        </g>
        <g
           id="g626"
           transform="translate(159.3603,465.6973)">
          <path
             d="m 0,0 c -0.785,0 -1.316,-0.093 -1.882,-0.188 v -9.191 c 0.47,-0.095 1.129,-0.157 1.662,-0.157 3.859,0 5.364,2.541 5.364,4.8 C 5.144,-2.008 3.703,0 0,0 m -1.882,-10.54 v -7.278 c 0,-2.196 1.193,-2.227 2.854,-2.259 v -0.816 c -1.505,0 -2.854,0.063 -4.235,0.063 -1.506,0 -2.98,-0.032 -4.548,-0.063 v 0.816 c 1.568,-0.093 2.856,0.314 2.856,2.101 V -2.07 c 0,2.195 -1.194,2.227 -2.856,2.258 v 0.816 c 1.725,-0.032 3.232,-0.063 4.768,-0.063 1.099,0 2.195,0.063 4.204,0.063 5.929,0 7.246,-3.325 7.246,-5.553 0,-2.666 -2.008,-4.643 -4.454,-5.364 2.854,-4.173 4.361,-6.683 5.709,-8.188 1.003,-1.13 1.946,-1.976 3.545,-1.976 v -0.816 c -0.786,0 -1.569,0.063 -2.352,0.063 -0.879,0 -1.789,-0.032 -2.667,-0.063 -2.854,3.137 -4.957,6.807 -7.216,10.353 z"
             style="fill:#b72829;fill-opacity:1;fill-rule:nonzero;stroke:none"
             id="path628"
             inkscape:connector-curvature="0" />
        </g>
        <g
           id="g630"
           transform="translate(172.3791,449.9801)">
          <path
             d="m 0,0 h 0.722 c 0.533,-2.352 2.289,-4.643 4.893,-4.643 2.416,0 4.298,1.695 4.298,4.173 0,5.835 -9.286,4.109 -9.286,11.512 0,4.048 2.886,6.149 6.713,6.149 1.288,0 2.573,-0.282 3.828,-0.47 l 0.502,-4.015 h -0.722 c -0.345,2.195 -1.788,3.481 -4.046,3.481 -2.384,0 -3.765,-1.725 -3.765,-4.015 0,-5.834 9.662,-4.235 9.662,-11.45 0,-4.078 -3.669,-6.369 -7.372,-6.369 -1.632,0 -3.325,0.377 -4.8,1.068 z"
             style="fill:#b72829;fill-opacity:1;fill-rule:nonzero;stroke:none"
             id="path632"
             inkscape:connector-curvature="0" />
        </g>
        <g
           id="g634"
           transform="translate(190.0414,463.6269)">
          <path
             d="m 0,0 c 0,2.196 -1.191,2.228 -2.854,2.259 v 0.815 c 1.473,-0.032 2.918,-0.062 4.329,-0.062 1.443,0 2.886,0.03 4.455,0.062 V 2.259 C 4.266,2.228 3.076,2.196 3.076,0 v -15.748 c 0,-2.196 1.19,-2.227 2.854,-2.259 v -0.815 c -1.507,0 -2.854,0.062 -4.235,0.062 -1.505,0 -2.981,-0.032 -4.549,-0.062 v 0.815 C -1.191,-17.975 0,-17.944 0,-15.748 Z"
             style="fill:#b72829;fill-opacity:1;fill-rule:nonzero;stroke:none"
             id="path636"
             inkscape:connector-curvature="0" />
        </g>
        <g
           id="g638"
           transform="translate(217.271,462.5922)">
          <path
             d="m 0,0 h -0.846 c -0.094,1.693 0,2.822 -2.51,2.822 h -4.769 v -17.535 c 0,-2.196 1.193,-2.227 2.854,-2.259 v -0.816 c -1.505,0 -2.854,0.063 -4.233,0.063 -1.507,0 -2.98,-0.032 -4.55,-0.063 v 0.816 c 1.663,0.032 2.855,0.063 2.855,2.259 V 2.822 h -4.109 c -2.823,0 -2.949,-0.784 -3.482,-2.822 h -0.816 l 0.346,4.987 h 0.627 c 0.345,-0.846 1.191,-0.878 1.975,-0.878 h 14.243 c 1.129,0 1.913,0.283 2.038,0.878 h 0.66 z"
             style="fill:#b72829;fill-opacity:1;fill-rule:nonzero;stroke:none"
             id="path640"
             inkscape:connector-curvature="0" />
        </g>
        <g
           id="g642"
           transform="translate(231.1058,447.879)">
          <path
             d="m 0,0 c 0,-2.196 1.192,-2.227 2.854,-2.259 v -0.815 c -1.568,0.03 -3.011,0.062 -4.453,0.062 -1.412,0 -2.856,-0.032 -4.331,-0.062 v 0.815 c 1.664,0.032 2.856,0.063 2.856,2.259 v 7.592 l -6.556,9.034 c -0.91,1.286 -1.068,1.224 -2.919,1.381 v 0.815 c 0.596,-0.032 2.919,-0.063 4.361,-0.063 1.286,0 2.541,0.063 3.827,0.063 v -0.815 c -0.501,0 -1.756,0 -1.756,-0.659 0,-0.376 0.439,-1.098 1.035,-1.946 l 4.392,-6.179 4.11,5.616 c 0.376,0.532 1.222,1.536 1.222,2.258 0,0.91 -0.627,0.91 -2.227,0.91 v 0.815 c 1.192,-0.032 2.416,-0.063 3.608,-0.063 0.846,0 1.693,0.063 2.572,0.063 V 18.007 C 7.278,17.976 6.683,17.128 5.991,16.187 L 0,8.094 Z"
             style="fill:#b72829;fill-opacity:1;fill-rule:nonzero;stroke:none"
             id="path644"
             inkscape:connector-curvature="0" />
        </g>
        <g
           id="g646"
           transform="translate(81.89,412.5546)">
          <path
             d="m 0,0 c 0,-3.602 2.573,-4.022 4.864,-4.022 10.101,0 13.42,7.622 13.42,14.59 0,8.745 -5.611,15.058 -14.636,15.058 -1.917,0 -2.806,-0.14 -3.648,-0.187 z m -4.582,21.931 c 0,4.209 -2.198,3.929 -4.303,3.976 v 1.216 c 1.824,-0.094 3.695,-0.094 5.518,-0.094 1.965,0 4.63,0.094 8.09,0.094 12.112,0 18.705,-8.091 18.705,-16.368 0,-4.629 -2.712,-16.273 -19.266,-16.273 -2.385,0 -4.583,0.093 -6.781,0.093 -2.104,0 -4.161,-0.047 -6.266,-0.093 v 1.216 c 2.806,0.28 4.162,0.373 4.303,3.553 z"
             style="fill:#b72829;fill-opacity:1;fill-rule:nonzero;stroke:none"
             id="path648"
             inkscape:connector-curvature="0" />
        </g>
        <g
           id="g650"
           transform="translate(110.6151,431.7505)">
          <path
             d="M 0,0 C 0,2.109 -1.144,2.139 -2.741,2.169 V 2.953 C -1.325,2.922 0.06,2.892 1.416,2.892 c 1.385,0 2.771,0.03 4.276,0.061 V 2.169 C 4.097,2.139 2.953,2.109 2.953,0 v -15.119 c 0,-2.108 1.144,-2.139 2.739,-2.168 v -0.784 c -1.445,0 -2.739,0.06 -4.065,0.06 -1.447,0 -2.861,-0.029 -4.368,-0.06 v 0.784 c 1.597,0.029 2.741,0.06 2.741,2.168 z"
             style="fill:#b72829;fill-opacity:1;fill-rule:nonzero;stroke:none"
             id="path652"
             inkscape:connector-curvature="0" />
        </g>
        <g
           id="g654"
           transform="translate(118.4736,418.6497)">
          <path
             d="m 0,0 h 0.693 c 0.513,-2.259 2.199,-4.457 4.7,-4.457 2.318,0 4.125,1.626 4.125,4.005 0,5.602 -8.915,3.945 -8.915,11.054 0,3.884 2.771,5.903 6.446,5.903 1.235,0 2.469,-0.271 3.675,-0.451 l 0.482,-3.856 h -0.693 c -0.332,2.108 -1.717,3.343 -3.886,3.343 -2.29,0 -3.614,-1.657 -3.614,-3.855 0,-5.603 9.277,-4.066 9.277,-10.993 0,-3.915 -3.524,-6.114 -7.079,-6.114 -1.567,0 -3.192,0.36 -4.608,1.024 z"
             style="fill:#b72829;fill-opacity:1;fill-rule:nonzero;stroke:none"
             id="path656"
             inkscape:connector-curvature="0" />
        </g>
        <g
           id="g658"
           transform="translate(150.8497,430.7574)">
          <path
             d="m 0,0 h -0.815 c -0.089,1.626 0,2.711 -2.408,2.711 h -4.578 v -16.837 c 0,-2.108 1.144,-2.139 2.741,-2.168 v -0.784 c -1.447,0 -2.741,0.06 -4.067,0.06 -1.445,0 -2.861,-0.029 -4.366,-0.06 v 0.784 c 1.595,0.029 2.741,0.06 2.741,2.168 V 2.711 h -3.947 c -2.71,0 -2.831,-0.754 -3.342,-2.711 h -0.783 l 0.331,4.788 h 0.601 c 0.332,-0.813 1.146,-0.842 1.899,-0.842 H -2.32 c 1.086,0 1.837,0.271 1.958,0.842 h 0.633 z"
             style="fill:#b72829;fill-opacity:1;fill-rule:nonzero;stroke:none"
             id="path660"
             inkscape:connector-curvature="0" />
        </g>
        <g
           id="g662"
           transform="translate(159.8784,433.7396)">
          <path
             d="m 0,0 c -0.752,0 -1.263,-0.091 -1.806,-0.182 v -8.825 c 0.451,-0.089 1.084,-0.149 1.595,-0.149 3.706,0 5.153,2.439 5.153,4.608 C 4.942,-1.927 3.555,0 0,0 m -1.806,-10.12 v -6.988 c 0,-2.108 1.144,-2.139 2.741,-2.168 v -0.784 c -1.446,0 -2.741,0.06 -4.067,0.06 -1.445,0 -2.861,-0.029 -4.367,-0.06 v 0.784 c 1.506,-0.091 2.741,0.3 2.741,2.017 v 15.27 c 0,2.109 -1.144,2.139 -2.741,2.169 v 0.784 c 1.657,-0.031 3.103,-0.062 4.579,-0.062 1.053,0 2.108,0.062 4.035,0.062 5.692,0 6.958,-3.193 6.958,-5.332 0,-2.56 -1.927,-4.457 -4.277,-5.15 2.741,-4.006 4.186,-6.415 5.483,-7.861 0.964,-1.084 1.866,-1.897 3.402,-1.897 v -0.784 c -0.753,0 -1.506,0.06 -2.259,0.06 -0.844,0 -1.716,-0.029 -2.561,-0.06 -2.739,3.012 -4.758,6.536 -6.926,9.94 z"
             style="fill:#b72829;fill-opacity:1;fill-rule:nonzero;stroke:none"
             id="path664"
             inkscape:connector-curvature="0" />
        </g>
        <g
           id="g666"
           transform="translate(175.9578,431.7505)">
          <path
             d="M 0,0 C 0,2.109 -1.146,2.139 -2.741,2.169 V 2.953 C -1.326,2.922 0.06,2.892 1.415,2.892 c 1.386,0 2.772,0.03 4.277,0.061 V 2.169 C 4.095,2.139 2.951,2.109 2.951,0 v -15.119 c 0,-2.108 1.144,-2.139 2.741,-2.168 v -0.784 c -1.445,0 -2.741,0.06 -4.065,0.06 -1.447,0 -2.861,-0.029 -4.368,-0.06 v 0.784 c 1.595,0.029 2.741,0.06 2.741,2.168 z"
             style="fill:#b72829;fill-opacity:1;fill-rule:nonzero;stroke:none"
             id="path668"
             inkscape:connector-curvature="0" />
        </g>
        <g
           id="g670"
           transform="translate(201.4964,429.2516)">
          <path
             d="m 0,0 h -0.753 c -0.573,3.524 -3.072,4.939 -6.445,4.939 -3.464,0 -8.495,-2.319 -8.495,-9.547 0,-6.085 4.338,-10.451 8.977,-10.451 2.98,0 5.452,2.048 6.053,5.21 l 0.693,-0.181 -0.693,-4.398 c -1.264,-0.782 -4.668,-1.595 -6.657,-1.595 -7.047,0 -11.504,4.548 -11.504,11.324 0,6.174 5.511,10.602 11.415,10.602 2.439,0 4.789,-0.784 7.108,-1.597 z"
             style="fill:#b72829;fill-opacity:1;fill-rule:nonzero;stroke:none"
             id="path672"
             inkscape:connector-curvature="0" />
        </g>
        <g
           id="g674"
           transform="translate(221.6725,430.7574)">
          <path
             d="m 0,0 h -0.815 c -0.09,1.626 0,2.711 -2.41,2.711 h -4.576 v -16.837 c 0,-2.108 1.143,-2.139 2.739,-2.168 v -0.784 c -1.445,0 -2.739,0.06 -4.065,0.06 -1.446,0 -2.861,-0.029 -4.367,-0.06 v 0.784 c 1.595,0.029 2.74,0.06 2.74,2.168 V 2.711 h -3.945 c -2.712,0 -2.832,-0.754 -3.343,-2.711 h -0.784 l 0.331,4.788 h 0.603 c 0.332,-0.813 1.146,-0.842 1.897,-0.842 h 13.674 c 1.085,0 1.838,0.271 1.959,0.842 h 0.633 z"
             style="fill:#b72829;fill-opacity:1;fill-rule:nonzero;stroke:none"
             id="path676"
             inkscape:connector-curvature="0" />
        </g>
        <g
           id="g678"
           transform="translate(240.7866,414.1925)">
          <path
             d="m 0,0 c 4.397,0 7.168,3.794 7.168,9.246 0,4.578 -2.649,10.752 -7.801,10.752 -4.397,0 -7.168,-3.795 -7.168,-9.247 C -7.801,6.174 -5.151,0 0,0 m -0.271,20.962 c 6.024,0 10.753,-5.121 10.753,-10.842 0,-5.512 -4.247,-11.084 -10.844,-11.084 -6.023,0 -10.751,5.12 -10.751,10.842 0,5.512 4.247,11.084 10.842,11.084"
             style="fill:#b72829;fill-opacity:1;fill-rule:nonzero;stroke:none"
             id="path680"
             inkscape:connector-curvature="0" />
        </g>
        <g
           id="g682"
           transform="translate(257.3772,416.6314)">
          <path
             d="m 0,0 c 0,-2.108 1.144,-2.139 2.741,-2.168 v -0.783 c -1.507,0.03 -2.893,0.06 -4.277,0.06 -1.356,0 -2.741,-0.03 -4.278,-0.06 v 0.783 c 2.621,0 2.861,0.482 2.861,3.403 v 13.373 c 0,2.469 -0.482,2.59 -2.861,2.68 v 0.784 c 2.138,0 4.338,-0.061 6.536,-0.061 2.74,0 5.511,0 8.192,0.061 l 0.18,-4.248 -0.693,-0.12 c -0.3,2.56 -1.565,3.404 -4.848,3.404 H 0 V 8.554 h 3.553 c 2.47,0 2.68,0.362 3.071,2.5 h 0.693 c -0.06,-0.572 -0.12,-2.198 -0.12,-3.283 0,-0.964 0.06,-2.379 0.12,-3.192 H 6.716 C 6.354,6.656 6.325,7.319 3.673,7.319 H 0 Z"
             style="fill:#b72829;fill-opacity:1;fill-rule:nonzero;stroke:none"
             id="path684"
             inkscape:connector-curvature="0" />
        </g>
        <g
           id="g686"
           transform="translate(126.2857,399.8662)">
          <path
             d="m 0,0 h -1.103 c -0.839,5.167 -4.504,7.242 -9.45,7.242 -5.078,0 -12.453,-3.4 -12.453,-13.998 0,-8.918 6.359,-15.322 13.16,-15.322 4.37,0 7.992,3.004 8.874,7.64 l 1.016,-0.266 -1.016,-6.446 c -1.853,-1.148 -6.844,-2.34 -9.757,-2.34 -10.333,0 -16.868,6.668 -16.868,16.602 0,9.052 8.08,15.544 16.734,15.544 3.577,0 7.022,-1.148 10.421,-2.34 z"
             style="fill:#b72829;fill-opacity:1;fill-rule:nonzero;stroke:none"
             id="path688"
             inkscape:connector-curvature="0" />
        </g>
        <g
           id="g690"
           transform="translate(139.4398,382.7847)">
          <path
             d="m 0,0 c 4.514,0 7.357,3.894 7.357,9.49 0,4.697 -2.719,11.034 -8.005,11.034 -4.514,0 -7.357,-3.894 -7.357,-9.49 C -8.005,6.337 -5.286,0 0,0 m -0.277,21.513 c 6.182,0 11.035,-5.254 11.035,-11.127 0,-5.656 -4.358,-11.375 -11.128,-11.375 -6.183,0 -11.034,5.254 -11.034,11.128 0,5.657 4.357,11.374 11.127,11.374"
             style="fill:#b72829;fill-opacity:1;fill-rule:nonzero;stroke:none"
             id="path692"
             inkscape:connector-curvature="0" />
        </g>
        <g
           id="g694"
           transform="translate(166.981,382.2589)">
          <path
             d="m 0,0 c -2.629,0.061 -5.224,0.061 -7.852,0.061 -2.751,0 -5.472,0 -8.192,-0.061 v 0.804 c 1.545,-0.092 2.813,0.309 2.813,2.071 v 15.672 c 0,2.164 -1.174,2.195 -2.813,2.226 v 0.803 c 1.453,-0.031 2.875,-0.061 4.266,-0.061 1.422,0 2.845,0.03 4.39,0.061 v -0.803 c -1.639,-0.031 -2.814,-0.062 -2.814,-2.226 V 4.234 c 0,-2.286 0.495,-3.245 4.885,-3.245 3.585,0 4.821,0.865 5.78,3.865 L 1.144,4.73 Z"
             style="fill:#b72829;fill-opacity:1;fill-rule:nonzero;stroke:none"
             id="path696"
             inkscape:connector-curvature="0" />
        </g>
        <g
           id="g698"
           transform="translate(188.8029,403.0314)">
          <path
             d="m 0,0 c -2.474,0 -2.441,-1.205 -2.441,-4.977 v -8.902 c 0,-4.204 -2.629,-7.357 -8.069,-7.357 -5.101,0 -8.161,2.472 -8.254,7.728 v 11.283 c 0,2.164 -1.174,2.194 -2.813,2.225 v 0.804 c 1.453,-0.031 2.874,-0.062 4.266,-0.062 1.423,0 2.845,0.031 4.389,0.062 V 0 c -1.639,-0.031 -2.813,-0.061 -2.813,-2.225 v -10.51 c 0,-3.679 1.206,-7.234 6.028,-7.234 5.132,0 5.625,3.957 5.625,6.09 v 8.809 c 0,5.07 -0.184,4.978 -2.936,5.07 v 0.804 c 1.299,-0.031 2.597,-0.062 3.895,-0.062 1.051,0 2.072,0.062 3.123,0.062 z"
             style="fill:#b72829;fill-opacity:1;fill-rule:nonzero;stroke:none"
             id="path700"
             inkscape:connector-curvature="0" />
        </g>
        <g
           id="g702"
           transform="translate(203.823,386.4931)">
          <path
             d="m 0,0 c 2.782,5.782 5.779,11.468 8.345,17.342 0.835,-0.031 1.702,-0.062 2.536,-0.062 0.895,0 1.823,0.062 2.719,0.062 v -0.804 c -1.05,0 -1.761,-0.061 -2.163,-0.371 -0.402,-0.308 -0.588,-0.834 -0.588,-1.854 0,-4.884 0.279,-10.077 0.402,-14.745 0.062,-2.319 0.278,-2.999 3.37,-2.999 v -0.803 c -1.701,0 -3.401,0.061 -5.1,0.061 -1.516,0 -2.999,-0.031 -4.514,-0.061 v 0.803 c 1.083,0 1.854,0 2.38,0.278 0.556,0.31 0.804,0.897 0.804,2.102 L 7.975,13.695 H 7.913 L 0.618,-1.452 C 0.277,-2.194 -0.34,-3.708 -0.588,-4.512 H -1.206 C -3.834,1.391 -6.802,7.173 -9.737,13.014 H -9.8 L -10.047,1.825 c 0,-0.402 -0.03,-1.515 -0.03,-1.948 0,-1.515 0.154,-2.349 0.648,-2.782 0.496,-0.432 1.267,-0.526 2.504,-0.526 v -0.803 c -1.267,0 -2.564,0.061 -3.833,0.061 -1.36,0 -2.752,-0.031 -4.11,-0.061 v 0.803 c 2.194,0 3.555,0.526 3.677,4.669 0.124,4.234 0.34,8.438 0.34,12.673 0,1.081 -0.154,1.762 -0.586,2.133 -0.434,0.37 -1.114,0.494 -2.134,0.494 v 0.804 c 1.083,-0.031 2.195,-0.062 3.278,-0.062 0.648,0 1.327,0.062 1.978,0.062 z"
             style="fill:#b72829;fill-opacity:1;fill-rule:nonzero;stroke:none"
             id="path704"
             inkscape:connector-curvature="0" />
        </g>
        <g
           id="g706"
           transform="translate(224.5609,385.783)">
          <path
             d="m 0,0 c 0,-1.391 0,-2.535 2.782,-2.535 3.678,0 4.884,2.504 4.884,4.42 0,4.421 -2.75,5.41 -5.811,5.41 H 0 Z m 0,8.284 h 1.174 c 2.504,0 4.7,0.804 4.7,4.698 0,3.555 -2.103,4.081 -4.575,4.081 C 0.897,17.063 0.463,17.032 0,17.001 Z M -5.842,-2.721 c 1.544,-0.092 2.813,0.31 2.813,2.072 v 15.672 c 0,2.164 -1.174,2.195 -2.813,2.225 v 0.804 c 0.865,0 1.73,-0.061 2.565,-0.061 h 0.959 c 1.762,0 2.906,0.061 4.018,0.061 2.287,0 7.203,-0.649 7.203,-5.007 0,-2.876 -2.597,-4.359 -4.977,-4.915 V 8.068 c 2.318,0.123 6.955,-1.423 6.955,-5.781 0,-3.307 -2.843,-5.811 -8.315,-5.811 -1.453,0 -2.906,0.061 -4.359,0.061 -1.361,0 -2.721,-0.03 -4.049,-0.061 z"
             style="fill:#b72829;fill-opacity:1;fill-rule:nonzero;stroke:none"
             id="path708"
             inkscape:connector-curvature="0" />
        </g>
        <g
           id="g710"
           transform="translate(239.1804,400.806)">
          <path
             d="M 0,0 C 0,2.164 -1.174,2.195 -2.812,2.225 V 3.029 C -1.36,2.998 0.063,2.967 1.454,2.967 c 1.422,0 2.844,0.031 4.39,0.062 V 2.225 C 4.205,2.195 3.031,2.164 3.031,0 v -15.518 c 0,-2.164 1.174,-2.195 2.813,-2.226 v -0.803 c -1.485,0 -2.813,0.061 -4.174,0.061 -1.484,0 -2.937,-0.031 -4.482,-0.061 v 0.803 C -1.174,-17.713 0,-17.682 0,-15.518 Z"
             style="fill:#b72829;fill-opacity:1;fill-rule:nonzero;stroke:none"
             id="path712"
             inkscape:connector-curvature="0" />
        </g>
        <g
           id="g714"
           transform="translate(251.9764,391.6245)">
          <path
             d="M 0,0 H 6.369 L 3.061,9.088 H 2.999 Z m 10.51,-3.214 c 0.432,-1.206 1.268,-3.833 1.762,-4.514 0.464,-0.618 1.392,-0.834 2.38,-0.834 v -0.804 c -1.174,0 -2.38,0.062 -3.554,0.062 -1.516,0 -2.999,-0.031 -4.513,-0.062 v 0.804 h 0.556 c 0.774,0 1.699,0.155 1.699,1.02 0,0.34 -0.246,1.205 -0.463,1.793 l -1.545,4.482 h -7.264 l -0.681,-2.164 c -0.402,-1.298 -0.834,-2.72 -0.834,-3.679 0,-1.452 1.02,-1.391 2.103,-1.452 h 0.709 v -0.804 c -1.205,0 -2.441,0.062 -3.647,0.062 -1.237,0 -2.504,-0.031 -3.74,-0.062 v 0.804 c 1.885,0.216 2.226,0.463 2.998,2.195 0.495,1.113 0.865,2.318 1.267,3.462 L 1.7,8.13 c 0.248,0.711 0.65,1.855 0.65,2.783 0,0.308 0,0.555 -0.063,0.803 0.651,0.309 1.36,0.649 1.793,1.36 h 0.527 z"
             style="fill:#b72829;fill-opacity:1;fill-rule:nonzero;stroke:none"
             id="path716"
             inkscape:connector-curvature="0" />
        </g>
        <g
           id="g718"
           transform="translate(250.3948,457.214)">
          <path
             d="m 0,0 c 1.994,0 3.252,1.722 3.252,4.194 0,2.077 -1.203,4.878 -3.539,4.878 -1.994,0 -3.252,-1.722 -3.252,-4.194 C -3.539,2.801 -2.336,0 0,0 m -0.123,9.508 c 2.732,0 4.879,-2.322 4.879,-4.917 0,-2.501 -1.926,-5.029 -4.92,-5.029 -2.733,0 -4.876,2.323 -4.876,4.919 0,2.501 1.926,5.027 4.917,5.027"
             style="fill:#b72829;fill-opacity:1;fill-rule:nonzero;stroke:none"
             id="path720"
             inkscape:connector-curvature="0" />
        </g>
        <g
           id="g722"
           transform="translate(257.9294,458.3205)">
          <path
             d="m 0,0 c 0,-0.956 0.519,-0.97 1.243,-0.984 v -0.355 c -0.684,0.013 -1.311,0.027 -1.94,0.027 -0.615,0 -1.244,-0.014 -1.94,-0.027 v 0.355 c 1.188,0 1.297,0.219 1.297,1.545 v 6.066 c 0,1.119 -0.218,1.174 -1.297,1.214 v 0.357 c 0.969,0 1.967,-0.028 2.964,-0.028 1.244,0 2.5,0 3.716,0.028 L 4.127,6.271 3.811,6.217 C 3.674,7.378 3.102,7.76 1.612,7.76 H 0 V 3.881 h 1.612 c 1.121,0 1.215,0.162 1.393,1.133 H 3.32 C 3.292,4.755 3.266,4.017 3.266,3.524 3.266,3.088 3.292,2.446 3.32,2.077 H 3.046 C 2.882,3.02 2.869,3.32 1.666,3.32 H 0 Z"
             style="fill:#b72829;fill-opacity:1;fill-rule:nonzero;stroke:none"
             id="path724"
             inkscape:connector-curvature="0" />
        </g>
        <g
           id="g726"
           transform="translate(248.3977,452.4256)">
          <path
             d="m 0,0 h -0.368 c -0.042,0.738 0,1.229 -1.093,1.229 h -2.077 v -7.637 c 0,-0.955 0.518,-0.97 1.244,-0.983 v -0.355 c -0.656,0 -1.244,0.026 -1.845,0.026 -0.656,0 -1.297,-0.013 -1.981,-0.026 v 0.355 c 0.725,0.013 1.244,0.028 1.244,0.983 V 1.229 H -6.667 C -7.895,1.229 -7.95,0.888 -8.183,0 h -0.355 l 0.15,2.172 h 0.274 C -7.964,1.804 -7.595,1.79 -7.253,1.79 h 6.202 c 0.492,0 0.832,0.123 0.887,0.382 h 0.287 z"
             style="fill:#b72829;fill-opacity:1;fill-rule:nonzero;stroke:none"
             id="path728"
             inkscape:connector-curvature="0" />
        </g>
        <g
           id="g730"
           transform="translate(257.2022,449.8987)">
          <path
             d="m 0,0 v 2.978 c 0,0.956 -0.519,0.969 -1.243,0.983 v 0.356 c 0.724,-0.015 1.366,-0.028 2.021,-0.028 0.589,0 1.189,0.028 1.803,0.028 V 3.961 C 1.858,3.947 1.338,3.934 1.338,2.978 v -6.859 c 0,-0.955 0.52,-0.97 1.243,-0.983 V -5.22 c -0.614,0.014 -1.229,0.027 -1.843,0.027 -0.642,0 -1.271,-0.013 -1.981,-0.027 v 0.356 C -0.519,-4.851 0,-4.836 0,-3.881 v 3.32 h -5.52 v -3.32 c 0,-0.955 0.52,-0.97 1.244,-0.983 V -5.22 c -0.657,0 -1.244,0.027 -1.845,0.027 -0.655,0 -1.297,-0.013 -1.981,-0.027 v 0.356 c 0.725,0.013 1.243,0.028 1.243,0.983 v 6.859 c 0,0.956 -0.518,0.969 -1.243,0.983 v 0.356 c 0.643,-0.015 1.271,-0.028 1.885,-0.028 0.629,0 1.258,0.013 1.941,0.028 V 3.961 C -5,3.947 -5.52,3.934 -5.52,2.978 V 0 Z"
             style="fill:#b72829;fill-opacity:1;fill-rule:nonzero;stroke:none"
             id="path732"
             inkscape:connector-curvature="0" />
        </g>
        <g
           id="g734"
           transform="translate(262.9461,449.8987)">
          <path
             d="M 0,0 H 1.803 C 2.91,0 2.91,0.86 2.95,1.175 H 3.223 C 3.197,0.874 3.169,0.136 3.169,-0.356 c 0,-0.437 0.068,-1.079 0.054,-1.517 H 2.95 c 0,1.312 -0.436,1.312 -1.489,1.312 H 0 v -2.322 c 0,-1.517 0.055,-1.9 1.407,-1.9 h 0.846 c 1.339,0.069 1.941,0.247 2.474,1.709 L 5.054,-3.129 C 4.836,-3.813 4.631,-4.509 4.495,-5.22 c -1.367,0 -2.733,0.027 -4.099,0.027 -1.011,0 -2.023,0 -3.033,-0.027 v 0.356 c 1.188,0 1.297,0.219 1.297,1.544 v 6.066 c 0,1.12 -0.218,1.175 -1.297,1.215 v 0.356 c 0.915,-0.028 1.844,-0.028 2.76,-0.028 1.311,0 2.61,0 3.934,0.028 V 2.281 L 3.784,2.212 C 3.579,3.497 2.965,3.879 1.598,3.879 H 0 Z"
             style="fill:#b72829;fill-opacity:1;fill-rule:nonzero;stroke:none"
             id="path736"
             inkscape:connector-curvature="0" />
        </g>
        <g
           id="g738"
           transform="translate(234.228,361.2234)">
          <path
             d="m 0,0 c 0,-0.694 0.37,-0.933 1.411,-0.933 h 0.977 v -0.565 c -1.129,0 -2.28,0.044 -3.408,0.044 -1.216,0 -2.411,-0.022 -3.583,-0.044 v 0.565 h 1.194 c 1.043,0 1.412,0.239 1.412,0.933 v 11.834 c -0.977,-0.565 -2.064,-1.151 -3.104,-1.671 l -0.283,0.52 c 1.801,0.912 3.517,1.997 5.167,3.127 L 0,13.723 Z"
             style="fill:#b72829;fill-opacity:1;fill-rule:nonzero;stroke:none"
             id="path740"
             inkscape:connector-curvature="0" />
        </g>
        <g
           id="g742"
           transform="translate(242.6989,374.4684)">
          <path
             d="m 0,0 c -1.497,0 -2.43,-1.128 -2.43,-2.735 0,-1.716 1.498,-2.824 2.779,-3.691 1.129,0.825 1.954,1.867 1.954,3.496 C 2.303,-1.151 1.26,0 0,0 m -0.867,-7.839 c -1.563,-1.214 -1.998,-2.105 -1.998,-3.843 0,-1.454 0.977,-2.691 2.497,-2.691 1.585,0 2.54,1.128 2.54,2.648 0,1.781 -1.67,3.061 -3.039,3.886 m 1.715,1.13 c 1.52,-0.825 3.191,-2.323 3.191,-4.191 0,-2.345 -2.084,-4.169 -4.386,-4.169 -2.756,0 -4.124,2.02 -4.124,3.518 0,1.997 1.41,3.04 3.17,4.061 -1.369,0.933 -2.865,2.084 -2.865,3.908 0,2.518 1.736,4.147 4.211,4.147 2.085,0 3.864,-1.217 3.864,-3.408 0,-1.825 -1.629,-3.084 -3.061,-3.866"
             style="fill:#b72829;fill-opacity:1;fill-rule:nonzero;stroke:none"
             id="path744"
             inkscape:connector-curvature="0" />
        </g>
        <g
           id="g746"
           transform="translate(252.0406,374.7073)">
          <path
             d="M 0,0 H 5.494 L 5.039,-1.737 H 0.153 l -0.869,-2.258 c 2.585,-1.303 5.103,-2.736 5.103,-5.993 0,-3.061 -2.432,-5.319 -5.45,-5.319 -1.13,0 -3.084,0.63 -3.084,1.736 0,0.5 0.37,0.652 0.672,0.652 0.891,0 0.848,-1.693 2.845,-1.693 2.086,0 3.279,1.693 3.279,3.668 0,2.954 -2.41,4.235 -4.71,5.385 z"
             style="fill:#b72829;fill-opacity:1;fill-rule:nonzero;stroke:none"
             id="path748"
             inkscape:connector-curvature="0" />
        </g>
        <g
           id="g750"
           transform="translate(264.2707,361.2234)">
          <path
             d="m 0,0 c 0,-0.694 0.369,-0.933 1.411,-0.933 h 0.977 v -0.565 c -1.129,0 -2.28,0.044 -3.408,0.044 -1.216,0 -2.411,-0.022 -3.584,-0.044 v 0.565 h 1.193 c 1.043,0 1.414,0.239 1.414,0.933 v 11.834 c -0.977,-0.565 -2.064,-1.151 -3.106,-1.671 l -0.283,0.52 c 1.803,0.912 3.517,1.997 5.167,3.127 L 0,13.723 Z"
             style="fill:#b72829;fill-opacity:1;fill-rule:nonzero;stroke:none"
             id="path752"
             inkscape:connector-curvature="0" />
        </g>
        <path
           d="m 225.093,368.433 h -96.361 v 1.303 h 96.361 z"
           style="fill:#b72829;fill-opacity:1;fill-rule:nonzero;stroke:none"
           id="path754"
           inkscape:connector-curvature="0" />
      </g>
    </g>
  </g>
</svg>
