<?xml version="1.0" encoding="UTF-8" standalone="no"?>
<!-- Generator: Adobe Illustrator 19.2.1, SVG Export Plug-In . SVG Version: 6.00 Build 0)  -->

<svg
   version="1.1"
   id="layer"
   x="0px"
   y="0px"
   viewBox="0 0 599.8493 252.4895"
   xml:space="preserve"
   sodipodi:docname="used-by-nhs.svg"
   width="599.8493"
   height="252.4895"
   inkscape:version="1.3 (0e150ed6c4, 2023-07-21)"
   xmlns:inkscape="http://www.inkscape.org/namespaces/inkscape"
   xmlns:sodipodi="http://sodipodi.sourceforge.net/DTD/sodipodi-0.dtd"
   xmlns="http://www.w3.org/2000/svg"
   xmlns:svg="http://www.w3.org/2000/svg"><defs
   id="defs5" /><sodipodi:namedview
   id="namedview5"
   pagecolor="#ffffff"
   bordercolor="#666666"
   borderopacity="1.0"
   inkscape:showpageshadow="2"
   inkscape:pageopacity="0.0"
   inkscape:pagecheckerboard="0"
   inkscape:deskcolor="#d1d1d1"
   inkscape:zoom="2.8082822"
   inkscape:cx="310.86619"
   inkscape:cy="57.508465"
   inkscape:window-width="3840"
   inkscape:window-height="2066"
   inkscape:window-x="-11"
   inkscape:window-y="-11"
   inkscape:window-maximized="1"
   inkscape:current-layer="layer" />&#10;<style
   type="text/css"
   id="style1">&#10;	.st0{fill:#0E60B5;}&#10;	.st1{enable-background:new    ;}&#10;	.st2{fill:#FFFFFF;}&#10;</style>&#10;&#10;<g
   id="use3"
   transform="matrix(3.231,0,0,3.231,472.2248,53.3115)">&#10;	<rect
   x="-39.5"
   y="-16.5"
   class="st0"
   width="79"
   height="33"
   id="rect11" />&#10;	<g
   class="st1"
   id="g13">&#10;		<path
   class="st2"
   d="m -15.4,-13.1 -2.5,13.9 -7.7,-13.9 H -31 l -4.6,25.4 h 6.4 l 2.5,-13.9 7.6,13.9 h 5.4 L -9,-13.1 Z"
   id="path11" />&#10;		<path
   class="st2"
   d="m 10.4,-13.1 -1.7,9.5 h -8.9 l 1.7,-9.5 H -5 l -4.6,25.4 h 6.5 l 1.8,-9.9 h 8.9 l -1.8,9.9 h 6.5 L 17,-13.1 Z"
   id="path12" />&#10;		<path
   class="st2"
   d="m 25,12.8 c 2.2,0 4.2,-0.4 5.9,-1.1 1.7,-0.7 3,-1.8 3.9,-3.2 0.9,-1.4 1.4,-2.9 1.4,-4.7 0,-1.5 -0.4,-2.6 -1.1,-3.5 -0.7,-0.9 -1.5,-1.6 -2.5,-2 -1,-0.4 -2.2,-0.9 -3.7,-1.3 -1.3,-0.4 -2.3,-0.8 -3,-1.1 -0.6,-0.3 -1,-0.8 -1,-1.5 0,-0.7 0.4,-1.3 1.1,-1.8 0.7,-0.5 1.8,-0.7 3.1,-0.7 1.1,0 2.3,0.2 3.3,0.5 1.1,0.3 2.1,0.8 3,1.4 l 2.4,-5.3 c -1,-0.7 -2.3,-1.2 -3.7,-1.6 -1.4,-0.4 -3,-0.6 -4.6,-0.6 -2.2,0 -4.2,0.4 -5.9,1.1 -1.7,0.8 -3,1.8 -3.9,3.2 -0.9,1.4 -1.4,3 -1.4,4.8 0,1.5 0.4,2.7 1.1,3.6 0.7,0.9 1.6,1.7 2.6,2.1 1,0.4 2.2,0.9 3.7,1.3 1.3,0.4 2.3,0.8 2.9,1.1 0.6,0.3 0.9,0.8 0.9,1.4 0,0.7 -0.3,1.3 -1,1.7 C 27.8,7 26.8,7.2 25.6,7.2 24.3,7.2 23,7 21.6,6.6 20.3,6.2 19,5.6 17.9,4.7 l -2.6,5.4 c 1.1,0.8 2.5,1.5 4.2,2 1.7,0.4 3.6,0.7 5.5,0.7 z"
   id="path13" />&#10;	</g>&#10;</g>&#10;<path
   d="m 0.2,139.3895 h 8.4 v 24.2 l 22.9,-24.2 h 10.7 l -20,21.6 20.4,27.8 h -10 l -16.8,-21.6 -7.4,7.8 v 13.9 H 0 v -49.4 h 0.2 z m 47.8,4.2 c -1,-1 -1.6,-2.3 -1.6,-3.6 0,-1.3 0.6,-2.6 1.6,-3.6 1,-1 2.3,-1.6 3.6,-1.6 1.3,0 2.6,0.6 3.6,1.6 1,1 1.6,2.3 1.6,3.6 0,1.3 -0.6,2.6 -1.6,3.6 -1,1 -2.3,1.6 -3.6,1.6 -1.3,0 -2.6,-0.7 -3.6,-1.6 z m 7.4,45.5 h -8.1 v -37.8 h 8.1 z m 17.8,-20.6 v 20.4 h -8.1 v -37.5 h 8.1 v 6.8 c 1.3,-2.3 3.2,-4.2 5.5,-5.5 2.3,-1.3 4.8,-1.9 7.4,-1.9 4.2,0 7.8,1.3 10.3,3.9 2.6,2.6 3.9,6.5 3.9,11.3 v 23.3 h -8.1 v -20.7 c 0,-7.1 -2.9,-10.3 -8.7,-10.3 -2.9,0 -5.2,1 -7.1,2.6 -2.2,1.4 -3.2,4 -3.2,7.6 z m 71.4,-17.2 v 33 c 0,6.8 -1.9,11.6 -5.5,15.2 -3.6,3.6 -8.4,5.2 -14.2,5.2 -5.8,0 -11,-1.6 -15.5,-5.5 l 3.9,-6.1 c 3.9,2.9 7.4,4.2 11.3,4.2 3.9,0 6.8,-1 9,-2.9 2.2,-1.9 3.2,-5.2 3.2,-9.4 v -4.8 c -1.3,2.3 -2.9,3.9 -5.2,5.5 -2.3,1.3 -4.8,1.9 -7.4,1.9 -5.2,0 -9.4,-1.6 -12.6,-5.2 -3.2,-3.6 -4.8,-7.8 -4.8,-12.9 0,-5.2 1.6,-9.7 4.8,-12.9 3.2,-3.6 7.4,-5.2 12.6,-5.2 5.2,0 9,1.9 12.3,6.1 v -5.5 h 8.1 z m -29.7,17.5 c 0,3.2 1,5.8 2.9,8.1 1.9,2.3 4.5,3.2 7.8,3.2 3.3,0 5.8,-1 8.1,-3.2 1.9,-2.3 2.9,-4.8 2.9,-8.1 0,-3.3 -1,-6.1 -3.2,-8.4 -1.9,-2.3 -4.8,-3.2 -8.1,-3.2 -3.3,0 -5.8,1.3 -7.8,3.6 -1.7,2.2 -2.6,4.7 -2.6,8 z m 66.5,9 c 0,3.6 -1.3,6.5 -3.9,8.7 -2.6,2.3 -6.1,3.2 -10,3.2 -2.9,0 -5.8,-0.6 -8.7,-1.6 -2.9,-1 -5.5,-2.3 -8.1,-4.2 l 3.9,-6.1 c 4.5,3.2 8.7,4.8 12.9,4.8 1.9,0 3.2,-0.3 4.2,-1.3 1,-1 1.6,-1.9 1.6,-3.2 0,-1.9 -2.6,-3.6 -7.8,-5.2 -0.3,0 -0.6,-0.3 -1,-0.3 -8.1,-2.3 -12,-5.8 -12,-10.7 0,-3.6 1.3,-6.5 4.2,-8.4 2.9,-2.3 6.5,-3.2 10.7,-3.2 4.5,0 8.7,1.3 12.6,3.9 l -2.9,5.8 c -3.2,-1.9 -6.5,-2.9 -10,-2.9 -1.9,0 -3.6,0.3 -4.5,1 -1.3,0.6 -1.9,1.6 -1.9,3.2 0,1.3 0.6,2.3 1.9,2.6 1,0.3 1.9,1 3.6,1.3 1.7,0.3 2.9,0.6 4.2,1.3 1.3,0.6 2.3,0.6 3.6,1.3 1,0.3 2.3,1.3 3.6,1.9 2.5,1.7 3.8,4.2 3.8,8.1 z m 16.5,-20.3 v 19.1 c 0,1.9 0.3,3.2 1.3,4.2 1,1 2.3,1.6 3.9,1.6 1.6,0 3.2,-1 4.8,-2.6 l 3.2,5.5 c -2.9,2.6 -5.8,3.9 -9.4,3.9 -3.6,0 -6.5,-1.3 -8.7,-3.6 -2.3,-2.3 -3.6,-5.5 -3.6,-9.4 v -19.1 h -4.8 v -6.5 h 4.8 v -12 h 8.1 v 12 h 10 v 6.5 h -9.7 v 0.4 z m 49.8,26.5 c -3.9,3.9 -8.7,5.5 -14.2,5.5 -5.8,0 -10.7,-1.9 -14.2,-5.5 -3.9,-3.9 -5.8,-8.4 -5.8,-13.9 0,-5.5 1.9,-10 5.8,-13.9 3.9,-3.9 8.7,-5.5 14.2,-5.5 5.8,0 10.7,1.9 14.2,5.5 3.6,3.6 5.8,8.4 5.8,13.9 0,5.5 -2,10 -5.8,13.9 z m -23,-4.9 c 2.3,2.3 5.2,3.6 8.7,3.6 3.6,0 6.5,-1.3 8.7,-3.6 2.3,-2.3 3.6,-5.2 3.6,-9 0,-3.6 -1.3,-6.5 -3.6,-9 -2.3,-2.3 -5.2,-3.6 -8.7,-3.6 -3.6,0 -6.5,1.3 -8.7,3.6 -2.3,2.3 -3.6,5.2 -3.6,9 0.1,3.5 1.4,6.8 3.6,9 z m 43.6,-10.6 v 20.4 h -8.1 v -37.5 h 8.1 v 6.8 c 1.3,-2.3 3.2,-4.2 5.5,-5.5 2.3,-1.3 4.8,-1.9 7.4,-1.9 4.2,0 7.8,1.3 10.3,3.9 2.6,2.6 3.9,6.5 3.9,11.3 v 23.3 h -8.1 v -20.7 c 0,-7.1 -2.9,-10.3 -8.7,-10.3 -2.9,0 -5.2,1 -7.1,2.6 -1.9,1.4 -3.2,4 -3.2,7.6 z m 55.3,20.6 v -49.8 h 8.4 v 21.6 h 24.9 v -21.6 h 8.4 v 49.8 h -8.4 v -20.4 H 332 v 20.4 z m 84.3,-5.1 c -3.9,3.9 -8.7,5.5 -14.2,5.5 -5.8,0 -10.7,-1.9 -14.2,-5.5 -3.9,-3.9 -5.8,-8.4 -5.8,-13.9 0,-5.5 1.9,-10 5.8,-13.9 3.9,-3.9 8.7,-5.5 14.2,-5.5 5.8,0 10.7,1.9 14.2,5.5 3.6,3.6 5.8,8.4 5.8,13.9 0,5.5 -1.9,10 -5.8,13.9 z m -22.9,-4.9 c 2.3,2.3 5.2,3.6 8.7,3.6 3.6,0 6.5,-1.3 8.7,-3.6 2.3,-2.3 3.6,-5.2 3.6,-9 0,-3.6 -1.3,-6.5 -3.6,-9 -2.3,-2.3 -5.2,-3.6 -8.7,-3.6 -3.6,0 -6.5,1.3 -8.7,3.6 -2.3,2.3 -3.6,5.2 -3.6,9 0,3.5 1.3,6.8 3.6,9 z m 63,-1.3 c 0,3.6 -1.3,6.5 -3.9,8.7 -2.6,2.3 -6.1,3.2 -10,3.2 -2.9,0 -5.8,-0.6 -8.7,-1.6 -2.9,-1 -5.5,-2.3 -8.1,-4.2 l 3.9,-6.1 c 4.5,3.2 8.7,4.8 12.9,4.8 1.9,0 3.2,-0.3 4.2,-1.3 1,-1 1.6,-1.9 1.6,-3.2 0,-1.9 -2.6,-3.6 -7.8,-5.2 -0.3,0 -0.6,-0.3 -1,-0.3 -8.1,-2.3 -12,-5.8 -12,-10.7 0,-3.6 1.3,-6.5 4.2,-8.4 2.9,-2.3 6.5,-3.2 10.7,-3.2 4.5,0 8.7,1.3 12.6,3.9 l -2.9,5.8 c -3.2,-1.9 -6.5,-2.9 -10,-2.9 -1.9,0 -3.6,0.3 -4.5,1 -1.3,0.6 -1.9,1.6 -1.9,3.2 0,1.3 0.6,2.3 1.9,2.6 1,0.3 1.9,1 3.6,1.3 1.7,0.3 2.9,0.6 4.2,1.3 1.3,0.6 2.3,0.6 3.6,1.3 1,0.3 2.3,1.3 3.6,1.9 2.5,1.7 3.8,4.2 3.8,8.1 z m 27.5,-27.1 c 5.2,0 9.4,1.6 13.2,5.2 3.6,3.6 5.5,8.1 5.5,13.9 0,5.8 -1.9,10.7 -5.5,14.2 -3.6,3.6 -7.8,5.5 -12.6,5.5 -4.8,0 -9,-1.9 -12.9,-6.1 v 19.4 h -8.1 v -51.7 h 8.1 v 6.5 c 2.9,-4.7 7.1,-6.9 12.3,-6.9 z m -12.6,19.4 c 0,3.6 1,6.5 3.2,8.7 2.3,2.3 4.8,3.6 8.1,3.6 3.3,0 5.8,-1.3 8.4,-3.6 2.3,-2.3 3.6,-5.2 3.6,-8.7 0,-3.5 -1.3,-6.8 -3.6,-9 -2.3,-2.3 -5.2,-3.6 -8.4,-3.6 -3.2,0 -5.8,1.3 -8.1,3.6 -2.3,2.5 -3.2,5.4 -3.2,9 z m 38.7,-26.5 c -1,-1 -1.6,-2.3 -1.6,-3.6 0,-1.3 0.6,-2.6 1.6,-3.6 1,-1 2.3,-1.6 3.6,-1.6 1.3,0 2.6,0.6 3.6,1.6 1,1 1.6,2.3 1.6,3.6 0,1.3 -0.6,2.6 -1.6,3.6 -1,1 -2.3,1.6 -3.6,1.6 -1.3,0 -2.6,-0.7 -3.6,-1.6 z m 7.5,45.5 h -7.8 v -37.8 h 8.1 v 37.8 z m 19.7,-31.6 v 19.1 c 0,1.9 0.3,3.2 1.3,4.2 1,1 2.3,1.6 3.9,1.6 1.6,0 3.2,-1 4.8,-2.6 l 3.2,5.5 c -2.9,2.6 -5.8,3.9 -9.4,3.9 -3.6,0 -6.5,-1.3 -8.7,-3.6 -2.3,-2.3 -3.6,-5.5 -3.6,-9.4 v -19.1 h -4.8 v -6.5 h 4.8 v -12 h 8.1 v 12 h 10 v 6.5 h -9.7 v 0.4 z m 48.8,31.6 h -7.4 v -5.2 c -3.2,3.9 -7.4,5.5 -12.6,5.5 -3.9,0 -7.1,-1 -10,-3.2 -2.6,-2.3 -3.9,-5.2 -3.9,-9 0,-3.9 1.3,-6.5 4.2,-8.4 2.9,-1.9 6.5,-2.9 11.3,-2.9 h 10.3 v -1.3 c 0,-5.2 -2.9,-7.4 -8.4,-7.4 -3.6,0 -7.1,1.3 -11,3.9 l -3.6,-4.8 c 4.5,-3.6 10,-5.5 15.8,-5.5 4.5,0 8.1,1 11,3.2 2.9,2.3 4.2,5.8 4.2,10.7 z m -8.1,-14.2 v -3.2 h -9 c -5.8,0 -8.7,1.9 -8.7,5.5 0,1.9 0.6,3.2 2.3,4.2 1.3,1 3.6,1.6 6.1,1.6 2.5,0 4.8,-0.6 6.8,-2.3 1.5,-1.6 2.5,-3.2 2.5,-5.8 z m 25.2,14.2 h -8.1 v -53 h 8.1 z"
   id="path4" />&#10;<path
   class="st0"
   d="m 129.1,219.1895 h 5.5 v 32.6 h -6.1 l -18.7,-23.9 v 23.9 h -5.6 v -32.6 h 5.5 l 19.1,24.6 v -24.6 z m 13.6,32.6 v -32.6 h 5.5 v 14.2 h 16.5 v -14.2 h 5.5 v 32.6 h -5.5 v -13.2 h -16.5 v 13.2 z m 45.2,-28.4 c -1.6,0 -2.9,0.3 -3.9,1 -1,0.6 -1.6,1.6 -1.6,2.9 0,1.3 0.6,2.3 1.6,2.9 1,0.6 3.2,1.6 6.8,2.3 3.2,1 5.8,1.9 7.8,3.6 1.6,1.6 2.6,3.6 2.6,6.5 0,2.9 -1,5.2 -3.2,7.1 -2.2,1.9 -5.2,2.6 -8.7,2.6 -5.2,0 -9.7,-1.6 -13.9,-5.2 l 3.6,-4.2 c 3.2,2.9 6.8,4.2 10.3,4.2 1.9,0 3.2,-0.3 4.2,-1.3 1,-0.6 1.6,-1.9 1.6,-2.9 0,-1 -0.6,-2.3 -1.6,-2.9 -1,-0.6 -2.6,-1.3 -5.2,-1.9 -2.6,-0.6 -4.2,-1 -5.5,-1.6 -1.3,-0.6 -2.3,-1 -3.2,-1.9 -1.9,-1.6 -2.9,-3.9 -2.9,-6.8 0,-2.9 1,-5.5 3.2,-7.1 2.2,-1.6 4.8,-2.6 8.4,-2.6 2.3,0 4.2,0.3 6.1,1 1.9,0.6 3.9,1.6 5.5,2.9 l -2.9,4.2 c -1,-1 -2.3,-1.6 -3.9,-2.3 -2,-0.2 -3.6,-0.5 -5.2,-0.5 z m 35.5,0.9 v 9 h 14.5 v 5.2 h -14.5 v 13.6 h -5.5 v -32.6 h 22 v 5.2 h -16.5 z m 41.1,24.3 c -2.6,2.6 -5.8,3.9 -9.4,3.9 -3.6,0 -6.8,-1.3 -9.4,-3.9 -2.6,-2.6 -3.9,-5.5 -3.9,-9 0,-3.6 1.3,-6.8 3.9,-9 2.6,-2.6 5.8,-3.9 9.4,-3.9 3.6,0 6.8,1.3 9.4,3.9 2.6,2.6 3.9,5.5 3.9,9 -0.1,3.2 -1.3,6.4 -3.9,9 z m -15.2,-3.3 c 1.6,1.6 3.6,2.3 5.8,2.3 2.3,0 4.2,-0.6 5.8,-2.3 1.6,-1.7 2.3,-3.6 2.3,-5.8 0,-2.2 -0.6,-4.5 -2.3,-5.8 -1.6,-1.3 -3.6,-2.3 -5.8,-2.3 -2.3,0 -4.2,0.6 -5.8,2.3 -1.6,1.7 -2.3,3.6 -2.3,5.8 0,2.2 1,4.2 2.3,5.8 z m 41.3,-4.8 v -13.6 h 5.2 v 24.9 h -5.2 v -4.5 c -1,1.6 -1.9,2.6 -3.6,3.6 -1.7,1 -3.2,1.3 -4.8,1.3 -2.9,0 -5.2,-1 -6.8,-2.6 -1.6,-1.6 -2.6,-4.2 -2.6,-7.4 v -15.2 h 5.2 v 13.6 c 0,4.5 1.9,6.8 5.8,6.8 1.9,0 3.6,-0.6 4.8,-1.9 1.4,-1.1 2,-2.7 2,-5 z m 16.8,-2.3 v 13.6 h -5.2 v -24.9 h 5.2 v 4.5 c 1,-1.6 1.9,-2.6 3.6,-3.6 1.7,-1 3.2,-1.3 4.8,-1.3 2.9,0 5.2,1 6.8,2.6 1.6,1.6 2.6,4.2 2.6,7.4 v 15.2 H 320 v -13.6 c 0,-4.5 -1.9,-6.8 -5.8,-6.8 -1.9,0 -3.6,0.6 -4.8,1.9 -1.3,1.2 -2,2.8 -2,5 z m 25.9,10.4 c -2.3,-2.3 -3.6,-5.5 -3.6,-9.4 0,-3.9 1.3,-7.1 3.6,-9.4 2.6,-2.3 5.2,-3.6 8.7,-3.6 3.2,0 6.1,1.3 8.1,4.2 v -13.6 h 5.2 v 34.9 h -5.2 v -3.9 c -1.9,2.9 -4.8,4.2 -8.7,4.2 -3.3,0.1 -5.8,-1.2 -8.1,-3.4 z m 1.6,-9.1 c 0,2.3 0.6,4.2 2.3,5.8 1.7,1.6 3.2,2.3 5.5,2.3 2.3,0 3.9,-0.6 5.2,-2.3 1.3,-1.6 2.3,-3.6 2.3,-5.8 0,-2.2 -0.6,-4.2 -2.3,-5.8 -1.3,-1.6 -3.2,-2.3 -5.5,-2.3 -2.3,0 -3.9,0.6 -5.5,2.3 -1.3,1.3 -2,3.2 -2,5.8 z m 47.2,12.3 h -4.9 v -3.2 c -1.9,2.6 -4.8,3.6 -8.4,3.6 -2.6,0 -4.8,-0.6 -6.5,-2.3 -1.7,-1.7 -2.6,-3.6 -2.6,-5.8 0,-2.3 1,-4.2 2.6,-5.5 1.9,-1.3 4.2,-1.9 7.4,-1.9 h 6.8 v -1 c 0,-3.2 -1.9,-4.8 -5.5,-4.8 -2.3,0 -4.8,1 -7.4,2.6 l -2.3,-3.2 c 2.9,-2.3 6.5,-3.6 10.3,-3.6 2.9,0 5.5,0.6 7.1,2.3 1.9,1.6 2.9,3.9 2.9,7.1 v 15.8 h 0.5 z m -5.5,-9.4 v -1.9 h -5.8 c -3.9,0 -5.8,1.3 -5.8,3.6 0,1.3 0.3,2.3 1.3,2.9 1,0.6 2.3,1 3.9,1 1.6,0 3.2,-0.3 4.5,-1.3 1.2,-1.4 1.9,-2.6 1.9,-4.3 z m 17.4,-11.3 v 12.6 c 0,1.3 0.3,2.3 1,2.9 0.6,0.6 1.6,1 2.6,1 1,0 2.3,-0.6 3.2,-1.6 l 2.3,3.6 c -1.9,1.6 -3.9,2.6 -6.1,2.6 -2.3,0 -4.2,-0.6 -5.8,-2.3 -1.6,-1.7 -2.3,-3.6 -2.3,-6.1 v -12.6 h -3.2 v -4.2 h 3.2 v -7.8 h 5.2 v 7.8 h 6.8 v 4.2 c -0.1,-0.1 -6.9,-0.1 -6.9,-0.1 z m 12.3,-9.3 c -0.6,-0.6 -1,-1.3 -1,-2.3 0,-1 0.3,-1.6 1,-2.3 0.6,-0.6 1.3,-1 2.3,-1 1,0 1.6,0.3 2.3,1 0.6,0.6 1,1.3 1,2.3 0,1 -0.3,1.6 -1,2.3 -0.6,0.6 -1.3,1 -2.3,1 -0.7,-0.1 -1.6,-0.4 -2.3,-1 z m 4.9,30 H 406 v -24.9 h 5.2 z m 27.4,-3.2 c -2.6,2.6 -5.8,3.9 -9.4,3.9 -3.6,0 -6.8,-1.3 -9.4,-3.9 -2.6,-2.6 -3.9,-5.5 -3.9,-9 0,-3.6 1.3,-6.8 3.9,-9 2.6,-2.6 5.8,-3.9 9.4,-3.9 3.6,0 6.8,1.3 9.4,3.9 2.6,2.6 3.9,5.5 3.9,9 0,3.2 -1.3,6.4 -3.9,9 z m -15.2,-3.3 c 1.6,1.6 3.6,2.3 5.8,2.3 2.3,0 4.2,-0.6 5.8,-2.3 1.6,-1.7 2.3,-3.6 2.3,-5.8 0,-2.2 -0.6,-4.5 -2.3,-5.8 -1.6,-1.3 -3.6,-2.3 -5.8,-2.3 -2.3,0 -4.2,0.6 -5.8,2.3 -1.6,1.7 -2.3,3.6 -2.3,5.8 0,2.2 0.7,4.2 2.3,5.8 z m 28.8,-7.1 v 13.6 H 447 v -24.9 h 5.2 v 4.5 c 1,-1.6 1.9,-2.6 3.6,-3.6 1.7,-1 3.2,-1.3 4.8,-1.3 2.9,0 5.2,1 6.8,2.6 1.6,1.6 2.6,4.2 2.6,7.4 v 15.2 h -5.2 v -13.6 c 0,-4.5 -1.9,-6.8 -5.8,-6.8 -1.9,0 -3.6,0.6 -4.8,1.9 -1.4,1.2 -2,2.8 -2,5 z m 48.8,-14.2 v 27.8 h -5.5 v -27.8 h -10 v -5.2 H 511 v 5.2 z m 27.1,7.8 c -2.6,0 -4.5,1 -5.8,2.6 -1.3,1.6 -1.9,3.9 -1.9,6.8 v 10.7 h -5.2 v -24.9 h 5.2 v 5.2 c 1,-1.6 1.9,-2.9 3.6,-3.9 1.6,-1 2.9,-1.6 4.5,-1.6 z m 21.7,8.7 v -13.6 h 5.2 v 24.9 h -5.2 v -4.5 c -1,1.6 -1.9,2.6 -3.6,3.6 -1.6,1 -3.2,1.3 -4.8,1.3 -2.9,0 -5.2,-1 -6.8,-2.6 -1.6,-1.6 -2.6,-4.2 -2.6,-7.4 v -15.2 h 5.2 v 13.6 c 0,4.5 1.9,6.8 5.8,6.8 1.9,0 3.6,-0.6 4.8,-1.9 1.3,-1.1 2,-2.7 2,-5 z m 29.4,3.9 c 0,2.3 -1,4.2 -2.6,5.8 -1.6,1.3 -3.9,2.3 -6.8,2.3 -1.9,0 -3.9,-0.3 -5.8,-1 -1.9,-0.6 -3.6,-1.6 -5.2,-2.9 l 2.6,-4.2 c 2.9,2.3 5.8,3.2 8.4,3.2 1.3,0 2.3,-0.3 2.9,-1 0.6,-0.6 1,-1.3 1,-1.9 0,-1.3 -1.6,-2.3 -5.2,-3.2 -0.3,0 -0.3,0 -0.6,-0.3 -5.2,-1.3 -7.8,-3.9 -7.8,-7.1 0,-2.3 1,-4.2 2.6,-5.5 1.9,-1.3 4.2,-1.9 7.1,-1.9 2.9,0 5.5,1 8.1,2.6 l -1.9,3.9 c -1.9,-1.3 -4.2,-1.9 -6.8,-1.9 -1.3,0 -2.3,0.3 -3.2,0.6 -0.6,0.3 -1.3,1.3 -1.3,1.9 0,1 0.3,1.3 1.3,1.9 0.6,0.3 1.3,0.6 2.3,0.6 1,0.3 1.9,0.6 2.6,0.6 0.6,0.3 1.6,0.6 2.3,1 0.6,0.3 1.6,0.6 2.3,1.3 3,1 3.7,2.9 3.7,5.2 z m 11.3,-13.3 v 12.6 c 0,1.3 0.3,2.3 1,2.9 0.6,0.6 1.6,1 2.6,1 1,0 2.3,-0.6 3.2,-1.6 l 2.3,3.6 c -1.9,1.6 -3.9,2.6 -6.1,2.6 -2.3,0 -4.2,-0.6 -5.8,-2.3 -1.6,-1.6 -2.3,-3.6 -2.3,-6.1 v -12.6 h -3.2 v -4.2 h 3.2 v -7.8 h 5.2 v 7.8 h 6.8 v 4.2 c -0.1,-0.1 -6.9,-0.1 -6.9,-0.1 z"
   id="path5" />&#10;</svg>
