<?xml version="1.0" encoding="UTF-8" standalone="no"?>
<svg
   width="516"
   height="306"
   viewBox="0 0 516 306"
   fill="none"
   version="1.1"
   id="svg53"
   sodipodi:docname="mcmaster-logo.svg"
   xml:space="preserve"
   inkscape:version="1.3 (0e150ed6c4, 2023-07-21)"
   xmlns:inkscape="http://www.inkscape.org/namespaces/inkscape"
   xmlns:sodipodi="http://sodipodi.sourceforge.net/DTD/sodipodi-0.dtd"
   xmlns="http://www.w3.org/2000/svg"
   xmlns:svg="http://www.w3.org/2000/svg"><defs
     id="defs53"><style
       id="style1">.cls-1{fill:#b3b3b3;}</style><style
       id="style1-2">.cls-1{fill:#b3b3b3;}</style><style
       id="style1-0">.cls-1{fill:#b3b3b3;}</style></defs><sodipodi:namedview
     id="namedview53"
     pagecolor="#ffffff"
     bordercolor="#666666"
     borderopacity="1.0"
     inkscape:showpageshadow="2"
     inkscape:pageopacity="0.0"
     inkscape:pagecheckerboard="0"
     inkscape:deskcolor="#d1d1d1"
     inkscape:zoom="0.74795752"
     inkscape:cx="201.88312"
     inkscape:cy="126.34407"
     inkscape:window-width="3840"
     inkscape:window-height="2066"
     inkscape:window-x="-11"
     inkscape:window-y="-11"
     inkscape:window-maximized="1"
     inkscape:current-layer="svg53" /><path
     d="M102.33 106.067C101.328 105.065 99.6091 105.137 98.5349 105.137C98.3917 105.137 98.2485 105.137 98.1052 105.137C96.3866 105.137 94.8112 104.994 93.7371 103.562C92.4481 101.845 92.4481 96.3337 92.4481 94.0434V32.9222C92.4481 32.4212 92.4481 31.8486 92.4481 31.1329C92.3765 28.5564 92.2333 24.1906 93.379 22.6876C94.0951 21.6856 95.957 21.7572 97.3892 21.8288C97.7472 21.8288 98.0336 21.8288 98.3917 21.8288C102.044 21.8288 102.473 19.4669 102.473 18.4649C102.473 17.5345 102.187 16.8904 101.686 16.3894C100.826 15.6021 99.5374 15.7453 98.5349 15.8168C98.2485 15.8168 97.962 15.8168 97.7472 15.8168H83.1388C81.635 15.8168 79.7732 15.8168 78.7706 18.3934L52.6331 85.6697C48.4081 73.8605 29.5748 20.8983 29.5748 20.8983C29.4316 20.5405 29.36 20.1826 29.2884 19.8248C28.7155 17.8208 28.1426 15.7453 25.3498 15.7453H10.097C10.097 15.7453 9.5957 15.7453 9.30926 15.7453C8.30672 15.6737 7.01775 15.5305 6.15843 16.3178C5.65716 16.8188 5.37073 17.463 5.37073 18.3934C5.37073 19.3954 5.80038 21.7572 9.45248 21.7572C12.3885 21.7572 14.2503 21.9003 15.038 22.7592C15.8257 23.618 15.8973 25.622 15.6109 29.4152L11.5292 94.5444C11.0995 102.346 10.6698 105.065 4.29658 105.065C0.501268 105.065 0 106.855 0 107.928C0 109.145 0.501268 110.648 3.00761 110.648C4.94107 110.648 6.87453 110.505 8.80799 110.362C10.7415 110.218 12.7465 110.147 14.68 110.147C16.6134 110.147 18.6185 110.29 20.4804 110.362C22.4138 110.505 24.4189 110.648 26.424 110.648C27.5697 110.648 30.2193 110.648 30.2193 107.928C30.2193 107.212 30.0045 106.568 29.5032 106.067C28.429 105.065 26.7104 105.065 25.493 105.065H25.2782C22.6287 105.065 20.7668 104.421 19.5494 103.133C17.1147 100.556 17.1863 95.4748 17.5444 89.1051L21.1965 30.9898C25.3498 43.0852 46.2598 103.705 46.2598 103.634V103.777C46.6179 104.994 47.1192 107.212 49.1242 107.212C50.7713 107.212 51.4157 105.495 51.7738 104.35C51.7738 104.206 51.8454 104.063 51.917 103.92L80.1312 29.4152V94.2582C80.1312 96.8347 80.1312 101.558 78.4126 103.276C77.1952 104.421 74.6173 105.137 72.8986 105.137C72.7554 105.137 72.6122 105.137 72.469 105.137C71.3232 105.137 69.6762 105.137 68.6737 106.067C68.1724 106.568 67.886 107.212 67.886 108C67.886 109.216 68.4588 110.719 71.3232 110.719C73.9012 110.719 76.5507 110.576 79.0571 110.433C81.635 110.29 84.2846 110.218 86.9341 110.218C89.0108 110.218 91.1591 110.362 93.2358 110.433C95.3125 110.576 97.4608 110.719 99.609 110.719C102.402 110.719 103.046 109.216 103.046 108C103.046 107.212 102.831 106.568 102.33 106.067Z"
     fill="black"
     id="path1" /><path
     d="M152.815 60.9778C150.595 60.9778 149.092 58.3296 147.158 54.8943C144.437 50.099 141.071 44.0871 134.698 44.0871C129.9 44.0871 124.601 47.0931 121.379 50.099C115.364 55.8962 111.711 64.9141 111.711 74.2183C111.711 88.9618 121.235 104.85 136.632 104.85C142.647 104.85 147.946 102.632 151.884 98.4091C151.884 98.4091 152.028 98.1944 152.171 98.1229C152.959 97.1209 153.746 96.262 154.677 96.262C155.751 96.262 156.539 97.1924 156.539 98.4091C156.539 99.268 156.109 100.843 152.099 104.564C146.37 109.646 139.281 112.365 131.404 112.365C114.146 112.365 99.6094 96.3336 99.6094 77.2958C99.6094 56.8267 116.438 39.5066 136.345 39.5066C141.501 39.5066 149.163 41.1527 153.89 44.7312C155.68 46.0911 155.537 48.7392 155.393 50.8863C155.393 51.3873 155.393 51.8167 155.393 52.1746C155.393 52.3177 155.393 52.604 155.393 52.9619C155.537 55.7531 155.608 58.8306 154.319 60.1905C153.89 60.6199 153.388 60.9062 152.744 60.9062"
     fill="black"
     id="path2" /><path
     d="M258.654 106.067C257.651 105.065 255.933 105.137 254.859 105.137C254.715 105.137 254.572 105.137 254.429 105.137C252.71 105.137 251.135 104.994 250.061 103.562C248.772 101.845 248.772 96.3337 248.772 94.0434V32.9222C248.772 32.4212 248.772 31.8486 248.772 31.1329C248.772 28.5564 248.557 24.1906 249.703 22.6876C250.419 21.6856 252.281 21.7572 253.713 21.8288C254.071 21.8288 254.357 21.8288 254.715 21.8288C258.367 21.8288 258.797 19.4669 258.797 18.4649C258.797 17.5345 258.511 16.8904 258.009 16.3894C257.15 15.6021 255.861 15.7453 254.859 15.8168C254.572 15.8168 254.286 15.8168 254.071 15.8168H239.462C237.959 15.8168 236.097 15.8168 235.094 18.3934L208.957 85.6697C204.732 73.8605 185.898 20.8983 185.898 20.8983C185.755 20.5405 185.684 20.1826 185.612 19.8248C185.039 17.8208 184.466 15.7453 181.673 15.7453H166.492C166.492 15.7453 165.991 15.7453 165.705 15.7453C164.702 15.6737 163.413 15.5305 162.554 16.3178C162.052 16.8188 161.766 17.463 161.766 18.3934C161.766 19.3954 162.196 21.7572 165.848 21.7572C168.784 21.7572 170.646 21.9003 171.433 22.7592C172.221 23.618 172.293 25.622 172.006 29.4152L167.924 94.5444C167.495 102.346 167.065 105.065 160.692 105.065C156.897 105.065 156.395 106.855 156.395 107.928C156.395 109.145 156.897 110.648 159.403 110.648C161.336 110.648 163.27 110.505 165.203 110.362C167.137 110.218 169.142 110.147 171.075 110.147C173.009 110.147 175.014 110.29 176.947 110.362C178.881 110.505 180.886 110.648 182.891 110.648C184.037 110.648 186.686 110.648 186.686 107.928C186.686 107.212 186.471 106.568 185.97 106.067C184.896 105.065 183.177 105.065 181.96 105.065H181.745C179.096 105.065 177.234 104.421 176.016 103.133C173.582 100.556 173.653 95.4748 174.011 89.1051L177.663 30.9898C181.817 43.0852 202.727 103.705 202.727 103.634V103.777C203.085 104.994 203.586 107.212 205.591 107.212C207.238 107.212 207.883 105.495 208.241 104.35C208.241 104.206 208.312 104.063 208.384 103.92L236.598 29.4152V94.2582C236.598 96.8347 236.598 101.558 234.951 103.276C233.734 104.421 231.156 105.137 229.437 105.137C229.294 105.137 229.151 105.137 229.007 105.137C227.862 105.137 226.215 105.137 225.212 106.067C224.711 106.568 224.496 107.212 224.496 108C224.496 109.216 225.069 110.719 227.933 110.719C230.511 110.719 233.161 110.576 235.667 110.433C238.245 110.29 240.895 110.218 243.544 110.218C245.621 110.218 247.769 110.362 249.846 110.433C251.923 110.576 254.071 110.719 256.148 110.719C258.94 110.719 259.585 109.216 259.585 108C259.585 107.212 259.37 106.568 258.869 106.067"
     fill="black"
     id="path3" /><path
     d="M290.091 71.7856C293.194 70.1633 294.746 67.5868 294.746 64.0559V57.3283C294.746 49.3124 294.173 44.4456 286.725 44.4456C279.278 44.4456 275.124 48.0241 271.544 56.7557L271.258 57.4715C270.398 59.547 269.539 61.6226 267.247 62.7677C265.815 63.555 262.808 64.8432 260.946 64.8432C259.084 64.8432 258.225 63.9128 258.225 62.052C258.225 57.7577 261.447 53.1057 264.24 50.5291C270.971 43.8015 280.71 39.6504 289.733 39.6504C295.748 39.6504 300.188 41.0818 302.981 43.9446C306.131 46.879 306.06 50.6007 305.988 54.2508V55.8253V91.9685V92.2547C305.988 94.6881 305.988 100.485 308.065 102.561C308.566 103.062 309.211 103.348 309.927 103.348C311.717 103.348 312.934 102.06 313.865 101.058C314.653 100.271 315.298 99.5549 316.157 99.5549C317.231 99.5549 318.019 100.485 318.019 101.702C318.019 103.706 315.727 105.853 314.51 106.998L314.367 107.141C311.502 109.36 307.85 111.793 303.912 111.793C298.899 111.793 296.894 106.855 295.533 103.563C295.175 102.632 294.602 101.273 294.316 101.058C294.316 101.058 294.387 101.058 294.459 101.058C294.602 101.058 294.674 101.058 294.674 101.058C294.459 101.201 293.6 101.917 292.884 102.561C289.232 105.853 281.569 112.652 272.045 112.652C265.314 112.652 258.225 108.072 258.225 99.6981C258.225 88.6762 270.255 82.2349 278.275 77.9406L279.206 77.4396L289.948 71.9287M280.782 82.0917C275.411 85.1693 270.398 88.8909 270.398 95.6901C270.398 101.702 275.053 103.778 279.063 103.778C283.431 103.778 288.014 101.63 291.308 97.9804C294.459 94.4019 294.531 92.1116 294.531 87.1017V77.9406C294.531 77.9406 294.531 77.6543 294.531 77.5112C294.674 75.221 294.387 74.6484 294.316 74.5052C294.316 74.5052 294.387 74.5052 294.459 74.5052C294.459 74.5052 294.029 74.72 293.815 74.7915C293.6 74.9347 293.385 75.0062 293.242 75.0778H293.385L280.71 82.0202"
     fill="black"
     id="path4" /><path
     d="M320.811 91.1094V90.8947C320.954 89.6065 321.241 86.9584 323.532 86.9584C325.967 86.9584 326.54 89.8927 327.184 93.3281C328.402 99.4832 329.977 108 341.649 108C349.383 108 357.69 103.062 357.69 93.9007C357.69 85.4554 351.102 82.3063 344.944 80.016L343.655 79.5866C334.99 76.5091 323.103 72.2864 323.103 59.8331C323.103 54.0359 325.752 48.8828 330.836 44.8749C335.276 41.3679 340.862 39.7218 347.736 39.7218C351.317 39.7218 358.836 40.7238 362.345 42.2983C364.779 43.5866 364.636 46.3779 364.493 48.5965C364.493 49.0975 364.493 49.5985 364.493 50.028C364.493 50.0995 364.493 50.4574 364.493 50.7437C364.708 53.4633 364.851 56.5409 363.634 57.8291C363.204 58.2586 362.703 58.4733 362.13 58.4733C360.411 58.4733 359.695 56.684 358.764 54.3222C357.046 49.9564 354.754 44.016 345.23 44.016C340.361 44.016 333.414 47.7377 333.414 54.4653C333.414 62.0518 340.146 64.6283 347.951 67.5627C357.332 71.0697 368.002 75.1492 368.002 89.3202C368.002 105.424 352.105 112.652 340.79 112.652C336.064 112.652 327.686 110.791 322.745 107.929C320.31 106.712 320.31 104.493 320.31 102.346V101.63C320.31 101.63 320.739 91.3242 320.739 91.2526"
     fill="black"
     id="path5" /><path
     d="M406.743 101.559C406.743 100.629 405.955 99.555 404.881 99.555C404.165 99.555 403.592 100.128 402.446 101.058C400.728 102.561 398.078 104.923 394.927 104.923C393.209 104.923 391.92 104.422 390.846 103.348C387.695 100.199 387.695 92.9705 387.695 88.1752V48.883C387.695 47.38 387.981 46.8075 388.196 46.5927C388.554 46.2349 389.413 46.3065 390.416 46.378C390.845 46.378 391.347 46.378 391.848 46.378H399.582C400.155 46.378 400.656 46.378 401.086 46.378C402.303 46.378 403.306 46.5212 404.022 45.8055C404.738 45.1613 404.809 44.0878 404.809 43.0142C404.809 41.8691 404.809 40.0083 402.661 40.0083C402.661 40.0083 388.984 40.0083 389.055 40.0083C387.981 39.9367 387.695 39.8651 387.695 37.8611V26.9824C387.695 24.6922 386.621 24.1912 385.69 24.1912C384.329 24.1912 383.685 25.6226 383.47 26.1236C380.39 33.2806 376.595 36.9307 370.58 41.2965C370.508 41.3681 370.365 41.4397 370.294 41.5828C369.577 42.1554 368.646 42.9426 368.646 44.2309C368.646 44.8035 368.861 45.3045 369.291 45.6623C370.222 46.5212 371.941 46.5212 373.444 46.378C373.588 46.378 373.802 46.378 373.874 46.378C374.16 46.378 374.518 46.378 374.733 46.378C375.306 46.378 376.022 46.378 376.165 46.4496C376.165 46.4496 376.38 46.8075 376.38 48.2389V89.9645C376.309 95.9049 376.237 102.632 379.603 107.356C381.966 110.505 385.904 112.438 390.273 112.438C395.142 112.438 399.868 110.291 403.735 106.426C404.595 105.71 406.814 103.491 406.814 101.416"
     fill="black"
     id="path6" /><path
     d="M464.604 93.9725C463.744 93.9725 463.028 94.6882 461.739 95.9764C458.946 98.7677 453.719 103.921 444.195 103.921C427.152 103.921 418.272 88.2468 418.272 72.7876C418.272 70.9268 418.487 69.8532 418.917 69.4238C419.418 68.9228 420.564 68.9228 422.354 68.9228H423.07H464.962C465.749 68.9228 467.54 68.5649 467.54 65.3443C467.54 60.1196 465.463 53.392 462.527 49.384C457.944 43.1574 450.425 39.5789 441.903 39.5789C432.236 39.5789 423.428 43.229 416.41 50.0282C409.393 56.8274 406.242 64.9148 406.242 76.223C406.242 96.549 420.42 112.438 438.609 112.438C447.704 112.438 454.578 109.718 461.095 103.563H461.166C465.033 99.7697 466.752 97.4794 466.752 95.9764C466.752 94.7597 465.893 93.8293 464.747 93.8293M422.784 53.8214C426.722 47.6663 433.167 44.0162 439.97 44.0162C443.407 44.0162 448.133 44.8035 451.284 48.4536C453.361 50.887 454.65 54.1792 454.65 56.8989C454.65 59.7617 453.289 61.3363 450.21 62.1236C446.343 63.1971 438.609 63.3403 434.384 63.3403H423.213C423.213 63.3403 422.784 63.3403 422.497 63.3403C421.566 63.3403 420.134 63.4118 419.633 62.9109C419.561 62.8393 419.418 62.6246 419.418 62.2667C419.418 60.1196 421.423 55.6822 422.712 53.893"
     fill="black"
     id="path7" /><path
     d="M506.782 40.3661C499.406 40.3661 494.465 47.0937 491.816 50.7438C491.458 51.2448 491.028 51.8174 490.742 52.2468C490.742 51.889 490.742 51.4595 490.742 50.8154C490.742 50.6723 490.742 50.5291 490.742 50.386V42.6564C490.742 41.9406 490.742 40.9387 490.097 40.223C489.811 39.9367 489.381 39.6504 488.593 39.6504C487.304 39.6504 486.445 40.7239 485.8 41.4397C485.657 41.6544 485.514 41.7975 485.371 42.0122C483.223 44.875 477.422 48.6683 474.343 49.6703C474.2 49.6703 473.985 49.8134 473.77 49.885C472.553 50.3144 470.548 50.9585 470.548 53.1772C470.548 54.4655 471.55 55.3243 473.126 55.3243H474.916C476.491 55.3243 477.78 55.6822 478.21 56.2548C479.427 57.543 479.356 63.1255 479.356 64.9148V65.4158V94.1871C479.356 95.046 479.356 95.9048 479.356 96.6921C479.499 102.489 479.356 105.281 473.913 105.853C473.698 105.853 473.484 105.853 473.197 105.853C471.837 105.925 469.187 106.068 469.187 108.859C469.187 110.434 470.261 111.293 472.051 111.293C474.2 111.293 476.42 111.149 478.568 111.078C480.716 110.935 483.008 110.863 485.156 110.863C487.161 110.863 489.238 110.935 491.386 111.078C493.606 111.221 495.897 111.293 498.117 111.293C499.693 111.293 500.695 110.291 500.695 108.644C500.695 106.068 498.046 105.853 496.614 105.782C496.399 105.782 496.184 105.782 495.969 105.782C490.527 105.209 490.384 102.418 490.527 96.6205C490.527 95.8333 490.527 94.9744 490.527 94.1156V69.209C490.527 63.555 490.527 59.7617 493.534 55.0381C495.038 52.9625 497.258 49.885 499.836 49.885C501.197 49.885 501.913 50.7438 503.058 52.2468C504.276 53.8214 505.78 55.7538 508.644 55.7538C512.582 55.7538 515.375 52.8194 515.375 48.6683C515.375 43.9446 511.58 40.3661 506.567 40.3661"
     fill="black"
     id="path8" /><path
     d="M45.1856 141.495V141.065C45.1856 139.133 45.1856 134.624 44.3979 133.121C43.6818 131.69 42.2496 131.547 40.3878 131.547H40.2445C39.6 131.547 38.5259 131.547 37.8098 130.902C37.595 130.688 37.2369 130.187 37.2369 129.543C37.2369 128.97 37.4518 128.469 37.8098 128.111C38.2395 127.682 38.9556 127.396 39.8149 127.396C41.0322 127.396 42.3212 127.467 43.467 127.61C44.6127 127.682 45.8301 127.753 46.9758 127.753C47.9784 127.753 48.9809 127.682 50.0551 127.61C51.1292 127.539 52.2033 127.396 53.2775 127.396C55.6406 127.396 55.8554 128.827 55.8554 129.471C55.8554 130.902 54.7097 131.618 52.3466 131.618C49.339 131.618 49.1957 133.121 49.1241 136.771C49.1241 137.272 49.1241 137.773 49.1241 138.274V166.115C49.1241 171.626 49.1241 176.421 44.3979 181.002C40.889 184.366 35.7331 186.012 28.6438 186.012C24.8485 186.012 17.7591 185.439 13.1045 181.718C8.02018 177.853 8.02018 172.413 8.02018 166.688V137.058C8.02018 134.696 8.02018 133.121 7.37569 132.477C6.87442 131.976 5.72867 131.761 3.72359 131.761C1.71852 131.761 0.787598 131.046 0.787598 129.686C0.787598 129.042 1.00243 128.541 1.36048 128.111C1.79013 127.682 2.2914 127.539 3.07911 127.539C4.65452 127.539 6.15832 127.61 7.66213 127.753C9.09432 127.825 10.5981 127.897 12.1019 127.897C13.6057 127.897 15.1811 127.825 16.6133 127.682C18.1171 127.61 19.6926 127.467 21.268 127.467C22.7002 127.467 23.5595 128.254 23.5595 129.614C23.5595 130.974 22.5569 131.69 20.5519 131.69C18.5468 131.69 17.401 131.904 16.8998 132.405C16.2553 133.05 16.2553 134.624 16.2553 136.986V164.111C16.2553 167.904 16.2553 173.702 17.8307 176.564C20.5519 181.503 27.8561 181.861 30.0043 181.861C33.0836 181.861 38.8123 181.288 42.3212 177.352C44.9708 174.346 44.9708 170.696 44.9708 166.401V141.566L45.1856 141.495Z"
     fill="black"
     id="path9" /><path
     d="M98.1768 181.145C98.1768 181.145 97.9619 181.145 97.8187 181.145C95.0259 180.859 94.8827 179.642 95.0259 176.207C95.0259 175.706 95.0259 175.276 95.0259 174.775V159.96C95.0259 155.809 95.0259 151.515 92.448 147.793C90.0132 144.358 86.576 142.64 82.2078 142.64C76.6938 142.64 72.8269 146.362 70.4638 148.581C70.3206 148.724 70.1058 148.938 69.8909 149.082V144.859C69.8909 144.358 69.8909 143.642 69.3897 143.141C69.1748 142.927 68.8168 142.712 68.2439 142.712C67.313 142.712 66.7401 143.428 66.3104 143.929C66.2388 144 66.1672 144.143 66.024 144.286C64.8066 145.861 61.5126 148.008 59.794 148.581C59.7224 148.581 59.5791 148.581 59.5075 148.652C58.7914 148.867 57.3592 149.368 57.3592 150.942C57.3592 151.944 58.1469 152.589 59.2211 152.589H60.2952C61.2978 152.589 61.799 152.803 61.9423 153.018C62.2287 153.304 62.5151 154.378 62.5151 157.813V174.919C62.5151 175.42 62.5151 175.921 62.5151 176.35C62.5867 179.785 62.5151 181.002 59.7224 181.288C59.5791 181.288 59.5075 181.288 59.2927 181.288C58.505 181.288 56.5715 181.431 56.5715 183.435C56.5715 184.294 57.1444 185.225 58.5766 185.225C59.8656 185.225 61.1546 185.153 62.3719 185.01C63.5893 184.938 64.8783 184.795 66.1672 184.795C67.313 184.795 68.4587 184.867 69.7477 185.01C71.0367 185.082 72.3973 185.225 73.6862 185.225C74.832 185.225 75.5481 184.509 75.5481 183.364C75.5481 181.503 73.6146 181.36 72.8269 181.36C72.6837 181.36 72.6121 181.36 72.4689 181.36C69.6761 181.074 69.5329 179.857 69.6761 176.422C69.6761 175.921 69.6761 175.491 69.6761 174.99V159.96C69.6761 156.453 69.8909 154.807 72.0392 152.302C73.9727 150.012 76.6222 148.795 79.2718 148.795C82.2078 148.795 84.7141 150.155 86.0031 152.374C87.2921 154.593 87.2921 158.028 87.2921 160.748V174.99C87.2921 175.491 87.2921 175.992 87.2921 176.422C87.3637 179.857 87.2921 181.074 84.4993 181.36C84.3561 181.36 84.2845 181.36 84.0696 181.36C83.2819 181.36 81.4201 181.503 81.4201 183.507C81.4201 184.366 81.993 185.296 83.4252 185.296C84.7141 185.296 86.0031 185.225 87.2205 185.082C88.4378 185.01 89.7268 184.867 91.0158 184.867C92.1615 184.867 93.3073 184.938 94.5963 185.082C95.8852 185.153 97.2458 185.296 98.5348 185.296C99.6806 185.296 100.397 184.581 100.397 183.435C100.397 181.575 98.4632 181.431 97.6755 181.431"
     fill="black"
     id="path10" /><path
     d="M109.92 131.404C109.92 128.398 111.926 126.036 114.432 126.036C117.153 126.036 118.728 128.684 118.728 131.26C118.728 134.481 116.938 136.628 114.289 136.628C111.639 136.628 109.92 134.41 109.92 131.404ZM118.012 174.704C118.012 175.205 118.012 175.706 118.012 176.207C117.941 179.642 118.012 180.859 120.805 181.145C120.877 181.145 121.02 181.145 121.163 181.145C121.951 181.145 123.884 181.36 123.884 183.149C123.884 184.294 123.168 185.01 122.023 185.01C120.662 185.01 119.373 184.938 118.084 184.795C116.867 184.724 115.649 184.58 114.503 184.58C113.215 184.58 111.926 184.652 110.708 184.795C109.491 184.867 108.13 185.01 106.913 185.01C105.409 185.01 104.836 184.008 104.836 183.221C104.836 181.217 106.698 181.145 107.486 181.074C107.629 181.074 107.772 181.074 107.915 181.074C110.708 180.787 110.851 179.571 110.708 176.135C110.708 175.634 110.708 175.205 110.708 174.632V157.527C110.708 154.091 110.422 153.018 110.135 152.732C109.992 152.517 109.491 152.302 108.488 152.302H107.414C106.268 152.302 105.552 151.658 105.552 150.656C105.552 149.081 106.913 148.652 107.701 148.366C107.844 148.366 107.915 148.294 107.987 148.294C109.706 147.722 113 145.575 114.217 144C114.36 143.857 114.432 143.785 114.503 143.642C114.862 143.141 115.434 142.425 116.437 142.425C117.01 142.425 117.368 142.64 117.583 142.855C118.084 143.356 118.084 144.072 118.084 144.573V174.489L118.012 174.704Z"
     fill="black"
     id="path11" /><path
     d="M166.707 144C166.278 143.642 165.776 143.642 165.418 143.642C165.347 143.642 165.275 143.642 165.132 143.642H153.316C152.815 143.642 151.168 143.642 151.168 145.36C151.168 147.22 153.46 147.22 154.247 147.22C154.749 147.22 156.467 147.364 156.467 148.723C156.467 149.439 156.038 150.727 155.68 151.586C155.608 151.872 155.536 152.087 155.465 152.302C155.465 152.302 149.235 167.403 146.872 173.2C144.795 167.546 139.496 153.018 139.496 153.018V152.731C138.994 151.729 138.278 149.725 138.278 148.866C138.278 147.578 139.567 147.292 140.355 147.292C140.355 147.292 140.498 147.292 140.641 147.292C141.358 147.292 142.432 147.364 143.076 146.791C143.434 146.505 143.577 146.075 143.577 145.574C143.577 145.002 143.434 144.572 143.076 144.214C142.575 143.713 141.787 143.713 141.286 143.713H141.143H126.606H126.463C126.033 143.713 125.389 143.713 124.959 144.143C124.673 144.429 124.529 144.859 124.529 145.431C124.529 146.648 125.317 147.292 126.892 147.292C129.47 147.435 129.828 148.437 130.831 151.3L131.046 151.872C131.046 151.872 142.718 183.149 142.718 183.22L143.148 184.365C143.363 185.296 144.007 185.868 144.723 185.868C145.797 185.868 146.37 184.509 146.8 183.65C146.8 183.578 146.872 183.435 146.872 183.435V183.292L158.401 155.594C158.544 155.165 158.759 154.807 158.902 154.306C160.119 151.228 161.48 147.721 164.273 147.364C164.273 147.364 164.416 147.364 164.487 147.364C165.204 147.292 167.065 147.077 167.065 145.36C167.065 145.145 167.065 144.572 166.636 144.143"
     fill="black"
     id="path12" /><path
     d="M201.939 174.275C201.295 174.275 200.793 174.776 200.006 175.563C198.43 177.137 195.423 180.072 190.052 180.072C180.456 180.072 175.372 171.125 175.372 162.251C175.372 160.962 175.587 160.605 175.658 160.533C175.802 160.39 176.589 160.39 177.377 160.39H202.082C202.512 160.39 203.944 160.247 203.944 157.957C203.944 154.807 202.727 150.799 200.937 148.438C198.216 144.716 193.704 142.569 188.62 142.569C182.891 142.569 177.735 144.716 173.51 148.795C169.357 152.803 167.423 157.599 167.423 164.326C167.423 176.35 175.873 185.797 186.615 185.797C191.985 185.797 196.067 184.223 200.006 180.501C202.942 177.71 203.371 176.565 203.371 175.849C203.371 174.919 202.655 174.203 201.796 174.203M177.735 151.444C179.955 148.008 183.607 145.933 187.402 145.933C189.336 145.933 191.985 146.362 193.704 148.366C194.85 149.726 195.566 151.515 195.566 153.018C195.566 154.521 194.921 155.308 193.274 155.666C191.055 156.239 186.615 156.382 184.18 156.382H177.664C177.664 156.382 177.377 156.382 177.234 156.382C176.947 156.382 176.017 156.382 175.873 156.239C175.873 156.239 175.873 156.239 175.873 156.096C175.873 154.951 177.019 152.446 177.735 151.444Z"
     fill="black"
     id="path13" /><path
     d="M230.655 143.07C226.215 143.07 223.279 147.006 221.703 149.153V144.716C221.703 144.215 221.703 143.499 221.202 142.998C220.987 142.784 220.629 142.569 220.056 142.569C219.125 142.569 218.553 143.285 218.123 143.786C218.051 143.857 217.98 144 217.836 144.143C216.619 145.718 213.325 147.865 211.606 148.438C211.535 148.438 211.392 148.438 211.32 148.509C210.604 148.724 209.172 149.225 209.172 150.799C209.172 151.801 209.959 152.446 211.034 152.446H212.108C213.11 152.446 213.611 152.66 213.755 152.875C214.041 153.161 214.328 154.235 214.328 157.67V157.957V174.776C214.328 175.277 214.328 175.778 214.328 176.207C214.399 179.642 214.328 180.859 211.535 181.145C211.392 181.145 211.32 181.145 211.105 181.145C210.317 181.145 208.456 181.289 208.456 183.292C208.456 184.151 209.028 185.082 210.461 185.082C211.75 185.082 213.039 185.01 214.256 184.867C215.473 184.795 216.762 184.652 218.051 184.652C219.197 184.652 220.343 184.724 221.632 184.867C222.921 184.939 224.281 185.082 225.57 185.082C226.716 185.082 227.432 184.366 227.432 183.221C227.432 181.36 225.499 181.217 224.711 181.217C224.568 181.217 224.496 181.217 224.353 181.217C221.56 180.931 221.417 179.714 221.56 176.279C221.56 175.778 221.56 175.348 221.56 174.847V160.318C221.56 156.955 221.56 154.951 223.207 152.302C223.995 151.157 225.212 149.44 226.573 149.44C227.146 149.44 227.504 149.869 228.148 150.656C228.864 151.587 229.867 152.803 231.729 152.803C234.235 152.803 236.025 150.943 236.025 148.294C236.025 145.36 233.662 143.07 230.511 143.07"
     fill="black"
     id="path14" /><path
     d="M239.463 172.914V172.771C239.534 171.984 239.749 170.123 241.396 170.123C243.115 170.123 243.473 172.055 243.902 174.131C244.619 177.781 245.478 182.361 251.923 182.361C256.219 182.361 260.874 179.642 260.874 174.489C260.874 170.266 258.153 168.405 253.713 166.759L252.997 166.544C247.841 164.755 240.823 162.25 240.823 154.664C240.823 151.157 242.399 148.079 245.406 145.646C248.056 143.57 251.35 142.497 255.503 142.497C257.652 142.497 262.091 143.141 264.168 144.071C265.815 144.93 265.743 146.791 265.6 148.151C265.6 148.437 265.6 148.723 265.6 148.938C265.6 148.938 265.6 149.153 265.6 149.296C265.743 150.942 265.815 152.803 265.027 153.733C264.741 154.019 264.311 154.234 263.882 154.234C262.593 154.234 262.091 152.946 261.59 151.586C260.659 149.153 259.37 145.86 254.071 145.86C251.421 145.86 247.555 147.864 247.555 151.514C247.555 155.666 251.35 157.097 255.79 158.743C261.375 160.819 267.677 163.252 267.677 171.769C267.677 180.286 259.442 185.725 251.421 185.725C248.629 185.725 243.688 184.58 240.752 182.934C239.105 182.147 239.176 180.644 239.176 179.355V178.926C239.176 178.926 239.391 172.914 239.463 172.842"
     fill="black"
     id="path15" /><path
     d="M283.073 136.628C285.723 136.628 287.513 134.481 287.513 131.26C287.513 128.684 285.937 126.036 283.216 126.036C280.71 126.036 278.705 128.398 278.705 131.404C278.705 134.41 280.567 136.628 283.073 136.628Z"
     fill="black"
     id="path16" /><path
     d="M289.947 181.145C289.947 181.145 289.732 181.145 289.589 181.145C286.796 180.859 286.725 179.642 286.796 176.207C286.796 175.706 286.796 175.276 286.796 174.775V144.859C286.796 144.358 286.796 143.642 286.295 143.141C286.08 142.926 285.722 142.712 285.149 142.712C284.218 142.712 283.645 143.427 283.287 143.928C283.216 144 283.144 144.143 283.001 144.286C281.784 145.861 278.49 148.008 276.771 148.581C276.699 148.581 276.556 148.581 276.485 148.652C275.768 148.867 274.336 149.368 274.336 150.942C274.336 151.944 275.124 152.589 276.198 152.589H277.272C278.275 152.589 278.776 152.803 278.919 153.018C279.206 153.304 279.492 154.378 279.492 157.813V158.099V174.919C279.492 175.42 279.492 175.921 279.492 176.35C279.564 179.785 279.492 181.002 276.699 181.288C276.556 181.288 276.485 181.288 276.27 181.288C275.482 181.288 273.62 181.431 273.62 183.435C273.62 184.294 274.193 185.225 275.625 185.225C276.914 185.225 278.203 185.153 279.421 185.01C280.638 184.938 281.927 184.795 283.216 184.795C284.362 184.795 285.507 184.867 286.796 185.01C288.085 185.082 289.446 185.225 290.735 185.225C291.881 185.225 292.597 184.509 292.597 183.364C292.597 181.503 290.663 181.36 289.876 181.36"
     fill="black"
     id="path17" /><path
     d="M316.729 178.998C316.729 178.283 316.085 177.424 315.226 177.424C314.653 177.424 314.223 177.782 313.579 178.426C312.576 179.285 311.144 180.573 309.425 180.573C308.566 180.573 307.85 180.287 307.348 179.786C305.63 178.068 305.63 173.917 305.63 171.197V148.295C305.63 147.436 305.773 147.221 305.773 147.221C305.916 147.149 306.418 147.221 306.776 147.221C307.062 147.221 307.349 147.221 307.635 147.221H312.146C312.146 147.221 312.719 147.221 313.006 147.221C313.793 147.221 314.438 147.293 314.939 146.792C315.44 146.291 315.512 145.575 315.512 144.859C315.512 144.287 315.512 142.712 313.865 142.712C313.865 142.712 305.916 142.712 305.988 142.712C305.773 142.712 305.63 142.712 305.63 142.712C305.63 142.712 305.558 142.497 305.558 141.925V135.555C305.558 133.766 304.484 133.551 303.983 133.551C302.98 133.551 302.479 134.553 302.336 134.911C300.617 138.99 298.397 141.066 294.96 143.571C294.96 143.571 294.817 143.642 294.817 143.714C294.387 144.072 293.743 144.644 293.743 145.575C293.743 146.004 293.886 146.434 294.244 146.72C294.888 147.364 296.034 147.293 296.965 147.221C297.037 147.221 297.18 147.221 297.18 147.221C297.395 147.221 297.538 147.221 297.681 147.221C297.896 147.221 298.039 147.221 298.182 147.221C298.182 147.293 298.182 147.507 298.182 147.937V172.271C298.182 175.778 298.111 179.786 300.116 182.648C301.548 184.652 303.983 185.798 306.632 185.798C309.568 185.798 312.433 184.509 314.724 182.219C315.297 181.718 316.658 180.358 316.658 178.998"
     fill="black"
     id="path18" /><path
     d="M359.194 143.642H346.448C345.302 143.642 344.443 144.572 344.443 145.717C344.443 147.22 346.376 147.22 347.164 147.22C349.384 147.22 350.53 148.008 350.53 149.511C350.53 150.369 349.885 151.872 349.527 152.731V152.946C349.527 152.946 343.583 168.191 341.292 174.059C339.072 168.119 333.128 152.373 333.128 152.373V152.23C332.699 151.228 332.197 150.012 332.197 149.081C332.197 147.364 335.062 147.292 335.348 147.292C337.21 147.292 338.213 146.791 338.213 145.789C338.213 144.429 337.21 143.713 336.208 143.713H320.74C319.308 143.713 318.305 144.572 318.305 145.789C318.305 147.292 320.31 147.292 321.17 147.292C323.175 147.292 323.962 149.153 325.036 152.087L325.395 153.089C325.395 153.089 335.993 181.002 335.993 180.93C336.064 181.216 336.208 181.574 336.351 181.861C336.709 182.719 337.067 183.721 337.067 184.437C337.067 185.081 336.852 185.654 336.637 186.298C336.637 186.441 336.494 186.656 336.422 186.799L333.701 193.884C333.701 193.884 333.558 194.314 333.486 194.529C333.128 195.602 332.77 196.389 332.197 196.532C331.41 196.747 330.407 196.676 329.548 196.676H328.903C325.395 196.676 325.395 199.753 325.395 201.113C325.395 202.258 325.681 203.117 326.325 203.761C327.4 204.906 329.19 204.835 330.622 204.835H330.765C334.274 204.835 334.704 203.904 335.491 200.827C335.491 200.827 335.491 200.612 335.491 200.684L351.604 158.314C352.32 156.525 354.396 151.085 355.9 148.938C356.616 147.936 358.049 147.364 358.765 147.292C358.836 147.292 358.979 147.292 359.123 147.292C359.91 147.22 361.271 147.077 361.271 145.932C361.271 144.644 360.412 143.785 359.123 143.785"
     fill="black"
     id="path19" /><path
     d="M514.945 125.964V224.302C512.796 248.708 488.736 288.787 448.992 301.098L448.419 301.312L447.846 301.527L447.202 301.742L446.629 301.527L446.056 301.312L445.483 301.098C405.668 288.787 381.608 248.923 379.459 224.803C379.459 224.803 379.459 193.217 379.459 130.044V123.889H515.088V125.964H514.945Z"
     fill="black"
     id="path20" /><path
     d="M510.863 127.037H382.539V130.043C382.539 158.385 382.539 224.302 382.539 224.516C384.544 247.705 407.888 286.139 446.343 298.091L446.916 298.306H447.202H447.489L448.061 298.091C486.516 286.21 509.789 247.634 511.794 224.302V127.037H510.863Z"
     fill="#495965"
     id="path21" /><path
     d="M446.988 165.256H508.787V224.302C506.996 244.557 485.872 283.276 447.131 295.229C408.462 283.276 387.193 244.557 385.475 224.302V165.256H447.274H446.988Z"
     fill="#FEC057"
     id="path22" /><path
     d="M439.397 191.236C439.397 191.236 445.627 191.666 446.128 186.298C446.128 186.298 446.629 190.306 447.847 190.377C449.207 190.377 449.207 186.155 449.207 186.155C451.356 191.88 456.798 192.238 456.798 192.238C452.215 189.089 452.501 180.715 452.573 180.071C452.859 175.849 456.44 176.278 456.726 173.773C457.084 170.338 452.931 171.053 452.931 171.053C452.931 171.053 454.721 171.053 455.008 171.912C455.724 173.916 452.358 174.131 452.358 174.131C448.205 175.204 446.773 172.771 445.269 172.485C443.765 172.198 443.479 173.2 443.192 173.558C442.906 173.916 436.532 174.274 435.172 175.705C433.668 177.28 433.811 179.212 434.885 180.429C434.885 180.429 435.458 178.21 437.893 178.067C440.256 177.996 444.338 181.145 445.197 182.934C444.195 182.934 435.029 183.578 433.883 182.719C433.095 182.147 432.307 181.002 432.307 180.286C432.307 180.286 431.806 182.648 432.952 183.364C434.026 184.079 434.384 184.008 435.029 184.008C435.673 184.008 444.481 183.793 445.412 183.793C445.197 184.437 445.412 186.155 443.479 186.298H436.246C436.246 186.298 436.031 188.087 438.896 187.3C439.468 187.157 441.402 186.656 441.975 187.658C442.333 188.373 443.622 190.592 439.397 191.236Z"
     fill="#7A003C"
     id="path23" /><path
     d="M444.052 254.505C441.474 256.223 437.106 254.791 437.106 254.791C437.106 254.791 437.249 256.008 433.31 257.654C427.438 260.159 421.208 266.386 429.3 275.475C429.3 275.475 425.934 265.169 431.162 262.736C431.162 262.736 435.673 267.173 442.19 258.37C443.55 256.581 444.123 254.505 444.123 254.505"
     fill="#7A003C"
     id="path24" /><path
     d="M429.443 218.075C429.228 220.795 428.87 220.867 426.364 222.083C426.364 222.083 425.433 221.153 424.932 220.223C423.428 217.288 425.934 212.994 425.934 212.994C423.141 216.429 419.131 215.284 419.131 215.284C419.418 212.35 423.356 209.702 423.356 209.702C419.776 210.346 416.911 208.413 416.911 208.413C417.914 206.553 421.709 204.119 421.709 204.119C418.057 203.905 415.479 201.614 415.479 201.614C416.553 200.04 420.707 198.036 420.707 198.036C418.773 196.891 416.84 193.455 416.84 193.455C419.633 191.952 422.855 192.31 422.855 192.31C417.699 188.517 423.285 178.211 423.285 178.211C422.497 193.813 434.527 189.734 433.596 197.678C432.809 204.191 425.719 199.396 425.719 199.396C424.502 208.485 429.658 209.344 429.658 209.344C429.658 209.344 429.372 211.563 429.3 213.853C429.228 216.644 429.515 216.859 429.443 218.147"
     fill="#7A003C"
     id="path25" /><path
     d="M413.618 240.692C430.159 240.262 433.095 227.738 433.095 227.738C431.52 225.376 431.234 224.231 431.234 224.231L430.947 223.515C429.873 224.732 425.648 226.235 425.648 226.235C425.648 226.235 423.285 224.159 422.64 223.3C421.065 221.01 420.779 219.292 420.779 219.292C417.986 219.292 415.408 216.93 415.408 216.93C415.265 214.354 416.339 212.207 416.339 212.207C414.334 211.276 412.257 209.272 412.257 209.272C413.618 206.41 414.477 205.479 414.477 205.479C411.326 202.974 411.183 201.471 411.183 201.471C411.971 199.324 414.907 197.249 414.907 197.249C413.689 195.602 412.472 192.31 412.472 192.31C414.763 190.02 416.983 189.304 416.983 189.304C416.625 188.016 416.697 186.728 416.768 185.368C416.768 185.368 397.792 175.491 395.715 169.05C395.715 169.05 394.856 174.704 395.214 178.426C395.5 181.718 400.585 187.014 412.83 195.173C405.311 194.028 395.071 190.02 392.851 186.012C392.851 186.012 392.851 191.809 394.14 195.316C395.214 198.107 400.513 200.111 412.472 205.98C406.6 209.201 396.073 205.622 393.066 202.616C393.066 202.616 394.713 207.698 396.718 210.847C397.935 212.851 402.948 216.143 414.405 214.426C410.109 219.722 401.945 223.73 396.36 221.225C396.36 221.225 396.933 226.306 400.298 227.738C402.805 228.811 408.032 229.527 416.482 223.014C411.398 235.539 399.081 231.746 399.081 231.746C399.081 231.746 402.017 236.756 405.239 238.473C408.104 239.976 414.119 238.76 423.715 228.31C423.715 228.31 423.142 237.614 413.618 240.692Z"
     fill="#7A003C"
     id="path26" /><path
     d="M434.957 231.173C434.957 231.173 438.179 235.753 439.253 238.759C439.253 238.759 432.809 244.342 433.954 250.425C433.954 250.425 431.806 245.988 433.238 242.624C433.381 242.338 434.097 240.477 434.097 240.477C434.097 240.477 428.512 243.125 424.86 241.121C424.86 241.121 428.798 241.55 433.238 234.68C435.53 231.029 435.028 231.244 435.028 231.244"
     fill="#7A003C"
     id="path27" /><path
     d="M413.546 249.924C412.83 249.924 409.894 248.922 409.106 251.141C408.247 253.717 411.183 254.863 412.901 253.36C414.763 251.713 417.556 251.785 418.272 252.93C418.559 253.431 418.988 254.576 416.482 256.437C415.694 257.01 411.541 259.658 414.405 262.377C415.408 263.308 418.129 262.95 418.845 259.157C419.346 256.366 420.206 254.934 421.28 254.433C421.781 254.218 423.5 253.717 424.431 254.433C424.645 254.648 425.29 255.077 425.29 255.077C426.794 256.079 428.656 254.863 428.297 253.216C427.868 251.356 426.364 251.785 425.29 252.286C424.502 252.715 423.5 252.286 423.5 252.286C422.783 251.928 422.569 251.141 423.714 250.568C428.727 248.135 429.73 245.415 429.73 245.415C427.295 245.702 425.29 244.986 425.29 244.986C425.29 244.986 420.778 251.069 417.341 249.423C416.195 248.922 415.766 247.061 415.766 246.203C415.766 244.413 413.761 243.483 412.615 244.771C411.541 245.988 412.758 247.276 413.832 247.706C414.477 247.92 415.408 248.779 415.05 249.423C414.62 250.067 414.119 249.853 413.546 249.853"
     fill="#7A003C"
     id="path28" /><path
     d="M411.755 243.268C411.755 243.268 410.824 243.698 410.681 244.557C410.681 244.557 408.891 243.268 407.674 245.344C407.674 245.344 408.032 241.98 411.755 243.34"
     fill="#7A003C"
     id="path29" /><path
     d="M407.459 251.713C407.459 251.713 407.029 252.644 407.817 254.004C407.817 254.004 405.597 254.862 407.029 257.725C407.029 257.725 403.735 254.576 407.387 251.713"
     fill="#7A003C"
     id="path30" /><path
     d="M412.042 261.805C412.042 261.805 411.971 262.807 413.188 263.809C413.188 263.809 411.398 265.384 413.761 267.531C413.761 267.531 409.607 265.741 411.971 261.805"
     fill="#7A003C"
     id="path31" /><path
     d="M429.801 255.006C430.374 255.292 430.947 255.865 430.66 257.511C430.66 257.511 432.88 255.221 429.873 253.431C429.801 253.431 429.658 253.288 429.515 253.288C429.515 253.288 429.873 254.219 429.371 254.934C429.371 254.934 429.586 254.934 429.801 255.078"
     fill="#7A003C"
     id="path32" /><path
     d="M465.606 254.862C465.034 255.149 464.461 255.721 464.747 257.367C464.747 257.367 462.527 255.077 465.606 253.288C465.678 253.288 465.821 253.145 465.965 253.145C465.965 253.145 465.606 254.075 466.108 254.791C466.108 254.791 465.893 254.791 465.678 254.934"
     fill="#7A003C"
     id="path33" /><path
     d="M447.847 195.03C449.423 194.529 450.139 193.384 450.139 193.384C451.213 194.744 454.435 195.531 456.011 195.674C459.806 205.551 467.97 211.563 460.379 225.018C452.502 239.046 446.773 240.978 457.801 250.569C457.801 250.569 450.712 252.501 449.136 246.418C449.136 246.418 449.494 253.145 447.847 254.935C446.2 253.145 446.558 246.561 446.558 246.561C444.911 252.644 437.893 250.712 437.893 250.712C448.921 241.121 443.193 239.189 435.316 225.161C427.725 211.706 435.96 205.694 439.755 195.746C441.474 195.603 444.41 194.815 445.699 193.455C445.699 193.455 446.343 194.601 447.919 195.03"
     fill="#7A003C"
     id="path34" /><path
     d="M451.643 254.505C454.221 256.223 458.589 254.791 458.589 254.791C458.589 254.791 458.446 256.008 462.384 257.654C468.256 260.159 474.486 266.386 466.394 275.475C466.394 275.475 469.76 265.169 464.532 262.736C464.532 262.736 460.021 267.173 453.505 258.37C452.144 256.581 451.571 254.505 451.571 254.505"
     fill="#7A003C"
     id="path35" /><path
     d="M466.251 218.075C466.466 220.795 466.824 220.867 469.33 222.083C469.33 222.083 470.261 221.153 470.762 220.223C472.266 217.288 469.76 212.994 469.76 212.994C472.552 216.429 476.562 215.284 476.562 215.284C476.276 212.35 472.337 209.702 472.337 209.702C475.918 210.346 478.782 208.413 478.782 208.413C477.78 206.553 473.985 204.119 473.985 204.119C477.637 203.905 480.215 201.614 480.215 201.614C479.14 200.04 474.987 198.036 474.987 198.036C476.921 196.891 478.854 193.455 478.854 193.455C476.061 191.952 472.839 192.31 472.839 192.31C477.995 188.517 472.409 178.211 472.409 178.211C473.197 193.813 461.166 189.734 462.097 197.678C462.885 204.191 469.974 199.396 469.974 199.396C471.192 208.485 466.036 209.344 466.036 209.344C466.036 209.344 466.322 211.563 466.394 213.853C466.465 216.644 466.179 216.859 466.251 218.147"
     fill="#7A003C"
     id="path36" /><path
     d="M482.076 240.692C465.535 240.262 462.599 227.738 462.599 227.738C464.174 225.376 464.46 224.231 464.46 224.231L464.747 223.515C465.821 224.732 470.046 226.235 470.046 226.235C470.046 226.235 472.409 224.159 473.054 223.3C474.629 221.01 474.916 219.292 474.916 219.292C477.708 219.292 480.286 216.93 480.286 216.93C480.429 214.354 479.355 212.207 479.355 212.207C481.36 211.276 483.437 209.272 483.437 209.272C482.076 206.41 481.217 205.479 481.217 205.479C484.368 202.974 484.511 201.471 484.511 201.471C483.724 199.324 480.787 197.249 480.787 197.249C482.005 195.602 483.222 192.31 483.222 192.31C480.931 190.02 478.711 189.304 478.711 189.304C479.069 188.016 478.997 186.728 478.926 185.368C478.926 185.368 497.902 175.491 499.979 169.05C499.979 169.05 500.838 174.704 500.48 178.426C500.194 181.718 495.109 187.014 482.864 195.173C490.383 194.028 500.623 190.02 502.843 186.012C502.843 186.012 502.843 191.809 501.554 195.316C500.48 198.107 495.181 200.111 483.222 205.98C489.094 209.201 499.621 205.622 502.628 202.616C502.628 202.616 500.981 207.698 499.048 210.847C497.831 212.851 492.818 216.143 481.289 214.426C485.585 219.722 493.749 223.73 499.334 221.225C499.334 221.225 498.762 226.306 495.396 227.738C492.89 228.811 487.662 229.527 479.212 223.014C484.296 235.539 496.613 231.746 496.613 231.746C496.613 231.746 493.677 236.756 490.455 238.473C487.59 239.976 481.575 238.76 471.98 228.31C471.98 228.31 472.552 237.614 482.076 240.692Z"
     fill="#7A003C"
     id="path37" /><path
     d="M460.808 231.173C460.808 231.173 457.586 235.753 456.512 238.759C456.512 238.759 462.957 244.342 461.811 250.425C461.811 250.425 463.959 245.988 462.527 242.624C462.384 242.338 461.668 240.477 461.668 240.477C461.668 240.477 467.253 243.125 470.905 241.121C470.905 241.121 466.967 241.55 462.527 234.68C460.235 231.029 460.737 231.244 460.737 231.244"
     fill="#7A003C"
     id="path38" /><path
     d="M482.148 249.924C482.864 249.924 485.8 248.922 486.588 251.141C487.447 253.717 484.511 254.863 482.792 253.36C480.931 251.713 478.138 251.785 477.422 252.93C477.135 253.431 476.706 254.576 479.212 256.437C480 257.01 484.153 259.658 481.289 262.377C480.286 263.308 477.565 262.95 476.849 259.157C476.347 256.366 475.488 254.934 474.414 254.433C473.913 254.218 472.194 253.717 471.263 254.433C471.048 254.648 470.404 255.077 470.404 255.077C468.9 256.079 467.038 254.863 467.396 253.216C467.826 251.356 469.33 251.785 470.404 252.286C471.192 252.715 472.194 252.286 472.194 252.286C472.91 251.928 473.125 251.141 471.979 250.568C466.967 248.135 465.964 245.415 465.964 245.415C468.399 245.702 470.404 244.986 470.404 244.986C470.404 244.986 474.915 251.069 478.353 249.423C479.498 248.922 479.928 247.061 479.928 246.203C479.928 244.413 481.933 243.483 483.079 244.771C484.153 245.988 482.936 247.276 481.861 247.706C481.217 247.92 480.286 248.779 480.644 249.423C481.074 250.067 481.575 249.853 482.148 249.853"
     fill="#7A003C"
     id="path39" /><path
     d="M483.938 243.268C483.938 243.268 484.869 243.698 485.012 244.557C485.012 244.557 486.802 243.268 488.02 245.344C488.02 245.344 487.662 241.98 483.938 243.34"
     fill="#7A003C"
     id="path40" /><path
     d="M488.306 251.713C488.306 251.713 488.736 252.644 487.877 254.004C487.877 254.004 490.097 254.862 488.664 257.725C488.664 257.725 491.958 254.576 488.306 251.713Z"
     fill="#7A003C"
     id="path41" /><path
     d="M483.723 261.805C483.723 261.805 483.723 262.807 482.577 263.809C482.577 263.809 484.368 265.384 482.004 267.531C482.004 267.531 486.158 265.741 483.795 261.805"
     fill="#7A003C"
     id="path42" /><path
     d="M447.847 259.729C448.348 259.515 448.849 259.371 449.494 258.799C449.494 258.799 453.719 268.819 463.315 267.745C463.315 267.745 462.742 269.892 458.946 270.107C458.946 270.107 465.391 273.113 461.739 276.119C459.304 278.123 457.371 272.54 457.371 272.54C457.371 272.54 457.085 277.622 452.645 277.693C452.645 277.693 459.161 273.9 452.358 264.882C453.003 271.181 450.855 277.049 447.847 277.049C444.839 277.049 442.691 271.181 443.336 264.882C436.461 273.829 443.049 277.693 443.049 277.693C438.609 277.693 438.323 272.54 438.323 272.54C438.323 272.54 436.389 278.123 433.955 276.119C430.231 273.113 436.676 270.107 436.676 270.107C432.88 269.892 432.308 267.745 432.308 267.745C441.832 268.819 446.128 258.799 446.128 258.799C446.773 259.443 447.274 259.515 447.775 259.729"
     fill="#7A003C"
     id="path43" /><path
     d="M446.987 176.422V176.135L446.629 174.99V174.704L446.271 174.776L441.187 176.78L443.908 176.636C443.908 176.636 443.765 176.994 443.765 177.137C443.765 177.782 444.266 178.283 444.911 178.283C445.555 178.283 446.056 177.782 446.056 177.137C446.056 176.923 445.985 176.708 445.842 176.493H446.701L446.987 176.35V176.422Z"
     fill="#FEC057"
     id="path44" /><path
     d="M461.023 212.35C460.164 210.561 459.09 209.988 458.159 209.702C458.016 209.416 457.944 209.129 457.729 208.915C456.512 207.197 454.578 206.982 453.218 207.483C452.717 207.698 452.43 207.841 452.215 207.984L452.502 207.555C452.502 207.555 452.502 207.555 452.502 207.483C452.717 207.197 452.931 206.839 453.218 206.052C453.719 204.692 453.504 202.76 451.786 201.543C451.571 201.328 451.284 201.257 450.998 201.113C450.711 200.183 450.139 199.181 448.348 198.251L447.847 198.036L447.346 198.251C445.556 199.109 444.983 200.183 444.696 201.113C444.41 201.257 444.123 201.328 443.909 201.543C442.19 202.76 441.975 204.692 442.476 206.052C442.763 206.839 442.978 207.125 443.192 207.483C443.192 207.483 443.192 207.483 443.192 207.555L443.55 208.056C443.55 208.056 442.978 207.698 442.476 207.555C441.116 207.054 439.182 207.268 437.965 208.986C437.822 209.201 437.678 209.487 437.535 209.773C436.604 210.06 435.602 210.632 434.671 212.422L434.456 212.923L434.671 213.424C435.602 215.213 436.604 215.785 437.535 216.072C437.607 216.358 437.822 216.644 437.965 216.859C439.182 218.577 441.116 218.791 442.476 218.29C443.264 218.004 443.55 217.789 443.837 217.575C443.837 217.575 443.837 217.575 443.909 217.575C443.909 217.575 444.195 217.36 444.41 217.217V221.797L443.837 221.368L443.121 222.298C443.121 222.298 443.121 222.298 443.121 222.37C442.906 222.656 442.691 222.942 442.405 223.73C441.903 225.09 442.118 227.022 443.837 228.239C444.052 228.453 444.338 228.525 444.625 228.668C444.911 229.599 445.484 230.6 447.274 231.531L447.775 231.746L448.277 231.531C450.067 230.672 450.64 229.599 450.926 228.668C451.213 228.597 451.499 228.453 451.714 228.239C453.433 227.022 453.647 225.09 453.146 223.73C452.86 222.942 452.645 222.656 452.43 222.37C452.43 222.37 452.43 222.37 452.43 222.298L451.714 221.368L451.141 221.797V217.217L451.642 217.575C451.642 217.575 451.642 217.575 451.714 217.575C452 217.789 452.287 218.004 453.075 218.29C454.435 218.791 456.369 218.577 457.586 216.859C457.801 216.644 457.872 216.358 458.016 216.072C458.947 215.785 459.949 215.213 460.88 213.424L461.095 212.923L460.88 212.422L461.023 212.35Z"
     fill="#FEC057"
     id="path45" /><path
     d="M458.374 212.707C458.374 212.707 457.371 211.348 455.939 211.705C456.154 211.276 456.154 210.775 455.796 210.202C455.223 209.415 454.363 209.487 454.005 209.63L453.79 209.701L453.934 209.916C453.934 209.916 454.077 210.131 454.149 210.489C454.149 210.775 454.149 211.204 453.576 211.634C453.289 211.849 452.573 211.849 452.287 211.849H449.064V206.982C449.064 206.982 449.064 205.98 449.279 205.694C449.709 205.121 450.138 205.121 450.425 205.121C450.711 205.121 450.926 205.336 450.926 205.336L451.141 205.479V205.264C451.427 204.906 451.499 204.047 450.64 203.475C450.067 203.117 449.566 203.117 449.136 203.332C449.494 201.9 448.133 200.898 448.133 200.898H448.062C448.062 200.898 446.701 201.972 446.988 203.332C446.558 203.117 446.057 203.117 445.484 203.475C444.696 204.047 444.768 204.906 444.911 205.264V205.479L445.197 205.336C445.197 205.336 445.412 205.193 445.699 205.121C445.985 205.121 446.415 205.121 446.844 205.694C447.059 205.98 447.059 206.624 447.059 206.91V211.849H443.694C443.694 211.849 442.691 211.849 442.405 211.634C441.832 211.204 441.832 210.775 441.832 210.489C441.832 210.202 442.046 209.988 442.046 209.988L442.19 209.773H441.975C441.617 209.558 440.758 209.415 440.185 210.274C439.827 210.847 439.898 211.348 440.041 211.777C438.609 211.419 437.607 212.779 437.607 212.779V212.922V212.994C437.607 212.994 438.609 214.354 440.041 214.067C439.827 214.497 439.755 214.998 440.185 215.57C440.758 216.358 441.617 216.286 441.975 216.143H442.19L442.046 215.857C442.046 215.857 441.903 215.642 441.832 215.356C441.832 215.069 441.832 214.64 442.405 214.21C442.691 213.996 443.335 213.996 443.622 213.996H447.059V222.799C447.059 222.799 447.059 223.729 446.844 224.016C446.415 224.588 445.985 224.588 445.699 224.588C445.412 224.588 445.197 224.373 445.197 224.373L444.982 224.23V224.445C444.768 224.803 444.696 225.662 445.484 226.234C446.057 226.592 446.558 226.521 446.988 226.377C446.629 227.809 447.99 228.811 448.062 228.811H448.133C448.133 228.811 449.494 227.737 449.136 226.377C449.566 226.521 450.067 226.592 450.64 226.234C451.427 225.662 451.356 224.803 451.213 224.445V224.23L450.926 224.373C450.926 224.373 450.711 224.517 450.425 224.588C450.138 224.588 449.709 224.588 449.279 224.016C449.064 223.729 449.064 223.014 449.064 222.727V213.924H452.358C452.358 213.924 453.289 213.924 453.576 214.139C454.149 214.568 454.149 214.998 454.149 215.284C454.149 215.57 453.934 215.785 453.934 215.785L453.79 216H454.005C454.363 216.214 455.223 216.286 455.796 215.499C456.154 214.926 456.082 214.425 455.939 213.996C457.371 214.354 458.302 212.994 458.374 212.922V212.779V212.707Z"
     fill="#7A003C"
     id="path46" /><path
     d="M508.858 130.044H385.475V165.256H508.858V130.044Z"
     fill="#495965"
     id="path47" /><path
     d="M405.884 159.746H407.388C406.958 159.459 406.099 159.03 406.027 157.527C405.955 155.308 406.457 153.59 406.457 153.59L411.827 154.02L410.753 152.302L416.339 147.006L414.835 146.505L415.838 142.712L412.329 143.427L411.684 141.71L409.249 144.501L409.894 137.988L407.889 139.634L405.526 135.054L403.163 139.634L401.158 137.988L401.802 144.501L399.367 141.71L398.723 143.427L395.214 142.712L396.145 146.505L394.641 147.006L400.227 152.302L399.153 154.02L404.523 153.59C404.523 153.59 405.096 155.308 404.953 157.527C404.881 159.03 404.022 159.388 403.592 159.746H405.741H405.884Z"
     fill="#FEC057"
     id="path48" /><path
     d="M488.092 159.746H486.588C487.018 159.459 487.877 159.03 487.949 157.527C488.02 155.308 487.519 153.59 487.519 153.59L482.148 154.02L483.222 152.302L477.637 147.006L479.141 146.505L478.21 142.712L481.718 143.427L482.363 141.71L484.798 144.501L484.153 137.988L486.158 139.634L488.521 135.054L490.885 139.634L492.89 137.988L492.245 144.501L494.68 141.71L495.324 143.427L498.833 142.712L497.902 146.505L499.406 147.006L493.821 152.302L494.895 154.02L489.524 153.59C489.524 153.59 488.951 155.308 489.094 157.527C489.166 159.03 490.025 159.388 490.455 159.746H488.307H488.092Z"
     fill="#FEC057"
     id="path49" /><path
     d="M465.392 139.92V157.169C465.392 157.169 459.949 157.169 458.875 157.169C456.942 156.954 451.714 153.948 448.707 154.735C448.205 154.878 447.776 155.093 447.418 155.451C447.06 155.093 446.63 154.878 446.129 154.735C443.121 153.948 437.894 156.954 435.96 157.169C434.814 157.312 429.444 157.169 429.444 157.169V139.92H425.863V160.318H443.551C443.551 160.318 444.911 157.455 447.418 157.455C449.996 157.455 451.356 160.318 451.356 160.318H469.044V139.92H465.463H465.392Z"
     fill="#7A003C"
     id="path50" /><path
     d="M447.417 137.129C447.059 136.557 446.558 136.127 446.128 135.841V154.664C446.629 154.807 447.059 155.022 447.417 155.38C447.775 155.022 448.205 154.807 448.706 154.664V139.92V135.841C448.205 136.127 447.775 136.557 447.417 137.129Z"
     fill="#7A003C"
     id="path51" /><path
     d="M437.893 136.198C435.888 136.986 432.092 136.843 432.092 136.843H429.443V157.24C429.443 157.24 434.885 157.24 435.959 157.169C437.893 156.954 443.12 153.948 446.128 154.664V135.841C443.478 134.123 439.611 135.483 437.964 136.198"
     fill="#FEC057"
     id="path52" /><path
     d="M462.742 136.843C462.742 136.843 458.875 136.986 456.941 136.198C455.294 135.483 451.356 134.123 448.706 135.841V154.664C451.714 153.876 456.941 156.882 458.875 157.097C460.02 157.24 465.391 157.169 465.391 157.169V136.771H462.742V136.843Z"
     fill="#FEC057"
     id="path53" /><g
     id="g53"
     transform="matrix(3.5373854,0,0,3.5373854,-0.22706756,15.303325)"><path
       class="cls-1"
       d="m 17.82,66.46 h 2.29 v 2.2 h 1.45 v -2.2 h 2.29 V 73 H 21.56 V 70.72 H 20.11 V 73 h -2.29 z"
       transform="translate(-15.64,-9.96)"
       id="path20-3" /><path
       class="cls-1"
       d="m 25.79,66.46 h 4.39 v 1.78 h -2 v 0.62 H 30 v 1.7 h -1.82 v 0.64 h 2.07 V 73 h -4.46 z"
       transform="translate(-15.64,-9.96)"
       id="path21-2" /><path
       class="cls-1"
       d="m 34.07,73 h -2.51 l 2.27,-6.53 h 2.62 L 38.78,73 H 36.27 L 36,72.19 h -1.74 z m 1.57,-2.36 -0.28,-1.15 C 35.29,69.21 35.25,68.93 35.2,68.65 h -0.09 l -0.43,2 z"
       transform="translate(-15.64,-9.96)"
       id="path22-9" /><path
       class="cls-1"
       d="m 40.19,66.46 h 2.37 v 4.43 h 2 V 73 h -4.37 z"
       transform="translate(-15.64,-9.96)"
       id="path23-4" /><path
       class="cls-1"
       d="m 45.41,66.46 h 5 v 2.12 L 49.1,68.52 V 73 h -2.38 v -4.48 l -1.31,0.06 z"
       transform="translate(-15.64,-9.96)"
       id="path24-5" /><path
       class="cls-1"
       d="m 51.94,66.46 h 2.29 v 2.2 h 1.46 v -2.2 H 58 V 73 H 55.68 V 70.72 H 54.23 V 73 h -2.29 z"
       transform="translate(-15.64,-9.96)"
       id="path25-8" /><path
       class="cls-1"
       d="m 64.86,70.65 0.12,0.1 a 2.49,2.49 0 0 0 1.48,0.6 c 0.23,0 0.61,-0.09 0.61,-0.39 0,-0.3 -0.31,-0.32 -0.53,-0.36 l -0.48,-0.09 a 1.8,1.8 0 0 1 -1.7,-1.73 2.59,2.59 0 0 1 2.74,-2.43 h 0.09 a 3.89,3.89 0 0 1 2.07,0.57 l -0.64,1.67 A 2.46,2.46 0 0 0 67.24,68.1 c -0.21,0 -0.51,0.08 -0.51,0.35 0,0.27 0.29,0.28 0.48,0.32 l 0.54,0.12 c 1,0.23 1.73,0.76 1.73,1.87 0,1.56 -1.42,2.33 -2.83,2.33 a 5.89,5.89 0 0 1 -2.51,-0.6 z"
       transform="translate(-15.64,-9.96)"
       id="path26-1" /><path
       class="cls-1"
       d="m 76,69.11 a 2.12,2.12 0 0 0 -1.39,-0.66 1.28,1.28 0 0 0 -1.29,1.27 v 0 A 1.3,1.3 0 0 0 74.61,71 1.89,1.89 0 0 0 76,70.4 l -0.07,2.44 a 5.27,5.27 0 0 1 -1.69,0.26 3.27,3.27 0 0 1 -3.32,-3.22 c 0,0 0,-0.06 0,-0.09 a 3.39,3.39 0 0 1 3.35,-3.43 h 0.06 a 5,5 0 0 1 1.59,0.27 z"
       transform="translate(-15.64,-9.96)"
       id="path27-8" /><path
       class="cls-1"
       d="m 77.74,66.46 h 2.37 V 73 h -2.37 z"
       transform="translate(-15.64,-9.96)"
       id="path28-5" /><path
       class="cls-1"
       d="m 82.1,66.46 h 4.39 v 1.78 h -2 v 0.62 h 1.83 v 1.7 h -1.83 v 0.64 h 2.07 V 73 H 82.1 Z"
       transform="translate(-15.64,-9.96)"
       id="path29-5" /><path
       class="cls-1"
       d="m 88.42,66.46 h 2.28 l 2.13,3.62 h 0.07 a 10,10 0 0 1 -0.2,-1.66 v -2 H 95 V 73 h -2.3 l -2.09,-3.43 h -0.07 a 7.58,7.58 0 0 1 0.15,1.31 V 73 h -2.27 z"
       transform="translate(-15.64,-9.96)"
       id="path30-6" /><path
       class="cls-1"
       d="m 101.76,69.11 a 2.12,2.12 0 0 0 -1.39,-0.66 1.28,1.28 0 0 0 -1.29,1.27 v 0 A 1.3,1.3 0 0 0 100.4,71 v 0 a 1.89,1.89 0 0 0 1.36,-0.6 l -0.07,2.44 A 5.26,5.26 0 0 1 100,73.1 3.27,3.27 0 0 1 96.68,69.88 c 0,0 0,-0.06 0,-0.09 A 3.39,3.39 0 0 1 100,66.36 h 0.06 a 4.94,4.94 0 0 1 1.59,0.27 z"
       transform="translate(-15.64,-9.96)"
       id="path31-6" /><path
       class="cls-1"
       d="m 103.48,66.46 h 4.39 v 1.78 h -2 v 0.62 h 1.83 v 1.7 h -1.83 v 0.64 h 2.07 V 73 h -4.46 z"
       transform="translate(-15.64,-9.96)"
       id="path32-1" /><path
       class="cls-1"
       d="m 110.23,70.65 0.12,0.1 a 2.49,2.49 0 0 0 1.48,0.6 c 0.23,0 0.61,-0.09 0.61,-0.39 0,-0.3 -0.31,-0.32 -0.53,-0.36 l -0.48,-0.09 a 1.8,1.8 0 0 1 -1.71,-1.73 2.59,2.59 0 0 1 2.74,-2.43 h 0.09 a 3.89,3.89 0 0 1 2.07,0.57 L 114,68.6 a 2.45,2.45 0 0 0 -1.38,-0.49 c -0.21,0 -0.51,0.08 -0.51,0.35 0,0.27 0.29,0.28 0.48,0.32 l 0.54,0.12 c 1,0.23 1.73,0.76 1.73,1.87 0,1.56 -1.42,2.33 -2.83,2.33 a 5.87,5.87 0 0 1 -2.51,-0.6 z"
       transform="translate(-15.64,-9.96)"
       id="path33-4" /></g><path
     style="fill:#000000;fill-opacity:1;stroke-width:0.334244"
     d="m 7.5204806,226.61715 v -11.36428 h 4.0109234 4.010923 v 3.8438 3.8438 h 2.673948 2.673949 v -3.8438 -3.8438 h 3.843801 3.843801 v 11.36428 11.36428 h -3.843801 -3.843801 v -4.01092 -4.01093 h -2.673949 -2.673948 v 4.01093 4.01092 H 11.531404 7.5204806 Z"
     id="path54" /><path
     style="fill:#000000;fill-opacity:1;stroke-width:0.334244"
     d="m 35.931185,226.61715 v -11.36428 h 7.520481 7.52048 v 3.00819 3.00819 h -3.509557 -3.509558 v 1.33698 1.33697 h 3.175314 3.175314 v 2.84107 2.84107 h -3.175314 -3.175314 v 1.16985 1.16986 h 3.67668 3.676679 v 3.00819 3.00819 h -7.687602 -7.687603 z"
     id="path55" /><path
     style="fill:#000000;fill-opacity:1;stroke-width:0.334244"
     d="m 58.380815,232.21573 c 1.105087,-3.17114 2.872541,-8.24746 3.927675,-11.28072 l 1.918427,-5.51502 4.496972,-0.0925 4.496972,-0.0925 3.127992,8.78285 c 1.720396,4.83057 3.554289,9.94853 4.075318,11.37324 l 0.947327,2.59039 h -4.283853 -4.283853 l -0.400567,-1.33697 -0.400567,-1.33698 h -3.29964 -3.299639 l -0.22588,1.33698 -0.225881,1.33697 h -4.290026 -4.290025 z m 12.192904,-2.3775 c 0.103859,-0.0984 -1.527131,-6.98389 -1.69376,-7.15052 -0.09744,-0.0974 -0.252148,0.0324 -0.343791,0.28848 -0.240751,0.6728 -1.52033,6.57376 -1.52033,7.01122 0,0.2525 0.554518,0.29448 1.754779,0.13287 0.965128,-0.12996 1.776524,-0.25688 1.803102,-0.28205 z"
     id="path56" /><path
     style="fill:#000000;fill-opacity:1;stroke-width:0.334244"
     d="m 86.73621,226.61715 v -11.36428 h 4.010923 4.010923 v 7.85472 7.85473 h 3.509557 3.509557 v 3.50955 3.50956 h -7.52048 -7.52048 z"
     id="path57" /><path
     style="fill:#000000;fill-opacity:1;stroke-width:0.334244"
     d="m 109.79902,230.07823 v -7.9032 l -2.33971,0.19615 -2.3397,0.19615 v -3.65723 -3.65723 h 8.69033 8.69033 v 3.65723 3.65723 l -2.3397,-0.19615 -2.33971,-0.19615 v 7.9032 7.9032 h -4.01092 -4.01092 z"
     id="path58" /><path
     style="fill:#000000;fill-opacity:1;stroke-width:0.334244"
     d="m 128.18241,226.61715 v -11.36428 h 4.01093 4.01092 v 3.8438 3.8438 h 2.67395 2.67395 v -3.8438 -3.8438 h 4.01092 4.01092 v 11.36428 11.36428 h -4.01092 -4.01092 v -4.01092 -4.01093 h -2.67395 -2.67395 v 4.01093 4.01092 h -4.01092 -4.01093 z"
     id="path59" /><path
     style="fill:#000000;fill-opacity:1;stroke-width:0.334244"
     d="m 176.48061,238.1062 c -1.91247,-0.47863 -4.84653,-1.54752 -4.84653,-1.76561 0,-0.13715 0.39329,-1.21536 0.87397,-2.39602 0.48069,-1.18065 1.00279,-2.48347 1.16023,-2.89515 l 0.28626,-0.7485 1.21908,0.82729 c 2.31015,1.5677 5.05346,1.9369 6.16118,0.82918 0.5265,-0.5265 0.60056,-0.8174 0.3346,-1.31434 -0.38399,-0.71749 -0.69028,-0.83419 -3.50335,-1.33479 -2.55731,-0.45508 -4.25797,-1.59107 -5.1545,-3.44307 -1.15939,-2.39498 -0.82107,-4.55246 1.14964,-7.33141 2.58045,-3.63873 8.37708,-4.65609 13.60014,-2.38695 0.68938,0.29949 1.25342,0.70652 1.25342,0.90449 0,0.30398 -1.63345,4.87565 -1.8376,5.14304 -0.0376,0.0492 -0.72997,-0.21069 -1.53863,-0.57758 -1.74826,-0.7932 -4.38474,-0.89749 -4.96654,-0.19646 -0.88709,1.06888 -0.26692,1.59934 2.82775,2.4187 4.58692,1.21446 6.51612,3.1531 6.51723,6.5491 9.8e-4,3.01748 -1.4896,5.28176 -4.51177,6.85367 -1.42637,0.7419 -2.16091,0.88115 -5.01366,0.95048 -1.83834,0.0447 -3.64325,0.006 -4.01092,-0.0861 z"
     id="path60" /><path
     style="fill:#000000;fill-opacity:1;stroke-width:0.334244"
     d="m 205.22221,238.29143 c -3.31605,-0.4306 -7.05704,-3.13747 -8.52394,-6.16768 -0.89565,-1.85017 -1.43076,-4.9362 -1.14929,-6.62805 1.22323,-7.35265 7.69464,-11.73399 15.01995,-10.16896 1.97489,0.42193 2.004,0.44489 2.23688,1.76447 0.12977,0.73533 0.24462,2.56726 0.25521,4.07095 l 0.0193,2.73398 -1.56797,-0.87636 c -4.66299,-2.60619 -9.43277,1.20609 -7.2539,5.79773 1.1759,2.47802 4.61891,3.24967 7.40134,1.65879 l 1.42053,-0.8122 -0.005,3.2395 c -0.006,4.2801 -0.13107,4.66912 -1.62141,5.04456 -1.7874,0.45027 -4.32971,0.59031 -6.2321,0.34327 z"
     id="path61" /><path
     style="fill:#000000;fill-opacity:1;stroke-width:0.334244"
     d="m 219.76516,226.61715 v -11.36428 h 4.01092 4.01092 v 11.36428 11.36428 h -4.01092 -4.01092 z"
     id="path62" /><path
     style="fill:#000000;fill-opacity:1;stroke-width:0.334244"
     d="m 235.14036,226.61715 v -11.36428 h 7.52048 7.52048 v 3.00819 3.00819 h -3.50956 -3.50955 v 1.33698 1.33697 h 3.17531 3.17531 v 2.84107 2.84107 h -3.17531 -3.17531 v 1.16985 1.16986 h 3.67668 3.67668 v 3.00819 3.00819 h -7.68761 -7.6876 z"
     id="path63" /><path
     style="fill:#000000;fill-opacity:1;stroke-width:0.334244"
     d="m 257.53468,226.61715 v -11.36428 h 3.80759 3.8076 l 3.43093,5.87681 c 1.88702,3.23224 3.71831,6.20283 4.06955,6.60131 l 0.63861,0.7245 -0.21396,-1.00273 c -0.11768,-0.5515 -0.29553,-3.52209 -0.39523,-6.60131 l -0.18127,-5.59858 h 3.88237 3.88237 v 11.36428 11.36428 h -3.93962 -3.93962 l -3.66442,-6.01418 c -3.41014,-5.59686 -4.55922,-7.10057 -4.02448,-5.26654 0.1206,0.41363 0.31102,3.121 0.42315,6.01638 l 0.20387,5.26434 h -3.89372 -3.89372 z"
     id="path64" /><path
     style="fill:#000000;fill-opacity:1;stroke-width:0.334244"
     d="m 296.4556,238.28959 c -3.76962,-0.48922 -6.84189,-2.72836 -8.57428,-6.24911 -0.99761,-2.02746 -1.10033,-2.5176 -1.10033,-5.25031 0,-2.59928 0.12441,-3.2674 0.90397,-4.85468 1.22836,-2.50107 3.34317,-4.56577 5.94803,-5.80711 1.90882,-0.90964 2.51749,-1.0343 5.01365,-1.02682 1.56259,0.005 3.40511,0.20271 4.09448,0.44007 l 1.25342,0.43157 v 2.94049 c 0,1.61727 0.0995,3.43777 0.22101,4.04557 l 0.22102,1.10508 -1.14019,-0.70384 c -0.6271,-0.38712 -1.8486,-0.88194 -2.71444,-1.09961 -1.40163,-0.35237 -1.73228,-0.31926 -3.01549,0.30193 -1.776,0.85975 -2.70801,2.34423 -2.67894,4.26697 0.0571,3.7759 4.04926,5.61626 7.92579,3.65371 l 1.606,-0.81306 -0.21238,2.03194 c -0.11681,1.11757 -0.21238,2.90654 -0.21238,3.97549 v 1.94355 l -1.25342,0.31642 c -1.8259,0.46094 -4.35405,0.60242 -6.28552,0.35175 z"
     id="path65" /><path
     style="fill:#000000;fill-opacity:1;stroke-width:0.334244"
     d="m 310.67941,226.61715 v -11.36428 h 7.52048 7.52048 v 3.00819 3.00819 h -3.50956 -3.50955 v 1.33698 1.33697 h 3.34243 3.34244 v 2.84107 2.84107 h -3.34244 -3.34243 v 1.16985 1.16986 h 3.67668 3.67667 v 3.00819 3.00819 h -7.6876 -7.6876 z"
     id="path66" /><path
     style="fill:#000000;fill-opacity:1;stroke-width:0.334244"
     d="m 338.43772,238.26434 c -2.5781,-0.30745 -6.44389,-1.60842 -6.24967,-2.10324 0.076,-0.19374 0.61452,-1.58366 1.19663,-3.08871 l 1.05838,-2.73646 1.19328,0.80978 c 2.23028,1.51351 4.88238,1.89497 6.13315,0.88215 1.27734,-1.03433 0.65421,-1.95965 -1.60914,-2.3895 -3.44603,-0.65445 -4.40538,-1.03074 -5.55257,-2.17793 -2.18933,-2.18933 -2.35741,-4.8911 -0.50594,-8.13289 1.10553,-1.93572 3.18117,-3.49561 5.4845,-4.12172 2.91105,-0.79131 9.86533,0.55327 9.86533,1.90742 0,0.2426 -0.39651,1.51079 -0.88112,2.81821 -0.70333,1.89749 -0.98996,2.33061 -1.42054,2.14657 -3.14686,-1.34506 -5.48523,-1.5381 -6.04148,-0.49874 -0.60928,1.13846 -0.0639,1.57419 2.87992,2.30094 4.59764,1.13502 6.46244,3.01302 6.4647,6.51048 0.004,5.42467 -5.00879,8.7092 -12.01543,7.87364 z"
     id="path67" /></svg>
