<svg width="1638" height="655" viewBox="0 0 1638 655" fill="none" xmlns="http://www.w3.org/2000/svg">
<path d="M698.36 319.22C684.209 319.22 673.708 315.907 666.857 309.281C660.118 302.542 656.749 292.154 656.749 278.115V221.006C656.749 218.085 656.524 215.952 656.075 214.604C655.626 213.144 654.503 212.189 652.706 211.74C650.909 211.178 647.933 210.898 643.777 210.898V206.012H685.219V210.898C681.176 210.898 678.2 211.178 676.291 211.74C674.494 212.189 673.371 213.144 672.922 214.604C672.472 215.952 672.248 218.085 672.248 221.006V279.126C672.248 285.977 673.202 291.985 675.112 297.152C677.021 302.318 679.941 306.361 683.872 309.281C687.803 312.089 692.744 313.493 698.697 313.493C704.649 313.493 709.535 312.089 713.353 309.281C717.284 306.473 720.204 302.486 722.113 297.32C724.023 292.154 724.977 286.089 724.977 279.126V221.006C724.977 218.085 724.753 215.952 724.303 214.604C723.854 213.144 722.675 212.189 720.766 211.74C718.969 211.178 716.049 210.898 712.005 210.898V206.012H753.448V210.898C749.292 210.898 746.316 211.178 744.519 211.74C742.722 212.189 741.599 213.144 741.15 214.604C740.701 215.952 740.476 218.085 740.476 221.006V278.115C740.476 292.154 736.994 302.542 730.031 309.281C723.18 315.907 712.623 319.22 698.36 319.22ZM850.715 318.21L786.867 222.522H786.53V303.553C786.53 306.698 787.148 308.944 788.383 310.292C789.731 311.64 791.921 312.313 794.953 312.313H801.692V317.199H767.156V312.313H772.21C777.489 312.313 780.128 309.393 780.128 303.553V220.5C780.128 217.692 779.847 215.615 779.286 214.267C778.837 212.919 777.657 212.021 775.748 211.572C773.951 211.122 771.031 210.898 766.988 210.898V206.012H795.29L852.231 292.266H852.568V218.984C852.568 213.593 849.704 210.898 843.976 210.898H837.406V206.012H871.773V210.898H866.719C861.553 210.898 858.97 213.593 858.97 218.984V318.21H850.715ZM886.96 317.199V312.313C891.115 312.313 894.092 312.089 895.888 311.64C897.685 311.078 898.809 310.067 899.258 308.607C899.707 307.147 899.932 305.013 899.932 302.205V221.174C899.932 218.254 899.707 216.064 899.258 214.604C898.809 213.144 897.685 212.189 895.888 211.74C894.092 211.178 891.115 210.898 886.96 210.898V206.012H928.402V210.898C924.359 210.898 921.383 211.178 919.474 211.74C917.677 212.189 916.553 213.144 916.104 214.604C915.655 216.064 915.43 218.254 915.43 221.174V302.205C915.43 305.013 915.655 307.147 916.104 308.607C916.553 310.067 917.677 311.078 919.474 311.64C921.383 312.089 924.359 312.313 928.402 312.313V317.199H886.96ZM982.681 317.199L948.482 220.163C947.584 217.58 946.629 215.615 945.618 214.267C944.72 212.919 943.428 212.021 941.744 211.572C940.171 211.122 937.869 210.898 934.837 210.898V206.012H975.268V210.898H967.013C965.104 210.898 963.925 211.403 963.476 212.414C963.026 213.312 963.139 214.772 963.813 216.794L991.946 298.162L992.452 298.331L1020.42 217.131C1020.98 214.997 1021.09 213.425 1020.75 212.414C1020.42 211.403 1019.18 210.898 1017.05 210.898H1008.96V206.012H1041.14V210.898C1037.32 210.898 1034.57 211.459 1032.88 212.582C1031.2 213.705 1029.68 216.064 1028.33 219.658L992.115 317.199H982.681ZM1046.21 317.199V312.313C1050.37 312.313 1053.34 312.089 1055.14 311.64C1056.94 311.19 1058.06 310.236 1058.51 308.776C1058.96 307.316 1059.18 305.126 1059.18 302.205V221.006C1059.18 218.085 1058.96 215.895 1058.51 214.435C1058.06 212.975 1056.94 212.021 1055.14 211.572C1053.34 211.122 1050.37 210.898 1046.21 210.898V206.012H1124.55V232.967H1120C1119.1 227.463 1117.92 223.196 1116.46 220.163C1115 217.019 1112.64 214.828 1109.39 213.593C1106.24 212.358 1101.58 211.74 1095.4 211.74H1080.75C1078.16 211.74 1076.48 212.133 1075.69 212.919C1075.02 213.593 1074.68 215.222 1074.68 217.805V256.046H1093.72C1098.1 256.046 1101.24 255.597 1103.15 254.698C1105.17 253.8 1106.58 252.34 1107.36 250.318C1108.15 248.297 1108.82 245.545 1109.39 242.064H1113.6V276.43H1109.39C1108.82 272.949 1108.15 270.197 1107.36 268.176C1106.58 266.154 1105.17 264.694 1103.15 263.796C1101.24 262.897 1098.1 262.448 1093.72 262.448H1074.68V298.499C1074.68 302.205 1075.13 305.013 1076.03 306.923C1077.04 308.719 1079.01 309.955 1081.93 310.629C1084.85 311.303 1089.28 311.64 1095.23 311.64C1101.97 311.64 1107.31 311.022 1111.24 309.786C1115.28 308.551 1118.37 306.249 1120.5 302.879C1122.64 299.51 1124.44 294.625 1125.9 288.223H1130.28L1128.25 317.199H1046.21ZM1145.09 317.199V312.313C1149.13 312.313 1152.05 312.089 1153.85 311.64C1155.64 311.078 1156.77 310.123 1157.22 308.776C1157.78 307.428 1158.06 305.462 1158.06 302.879V220.5C1158.06 217.805 1157.78 215.783 1157.22 214.435C1156.77 212.975 1155.59 212.021 1153.68 211.572C1151.88 211.122 1149.02 210.898 1145.09 210.898V206.012H1190.4C1197.7 206.012 1203.99 207.023 1209.27 209.045C1214.55 211.066 1218.59 214.098 1221.4 218.142C1224.32 222.185 1225.78 227.295 1225.78 233.472C1225.78 238.75 1224.77 243.299 1222.75 247.118C1220.73 250.936 1217.92 254.025 1214.32 256.383C1210.73 258.742 1206.58 260.482 1201.86 261.606V261.942C1205.79 263.066 1208.99 264.638 1211.46 266.659C1213.93 268.681 1215.9 271.376 1217.36 274.746C1218.82 278.115 1219.94 282.439 1220.73 287.718L1221.74 293.951C1222.41 297.769 1223.25 301.082 1224.26 303.89C1225.39 306.586 1226.85 308.663 1228.64 310.123C1230.55 311.583 1232.97 312.313 1235.89 312.313V317.199H1213.99C1212.53 315.739 1211.24 313.773 1210.11 311.303C1208.99 308.832 1208.04 305.631 1207.25 301.7L1203.04 280.979C1202.03 275.363 1200.06 271.32 1197.14 268.849C1194.22 266.266 1189.79 264.975 1183.83 264.975H1173.56V302.879C1173.56 305.575 1173.84 307.596 1174.4 308.944C1174.96 310.292 1176.2 311.19 1178.1 311.64C1180.13 312.089 1183.21 312.313 1187.37 312.313V317.199H1145.09ZM1173.56 258.91H1184C1192.54 258.91 1198.83 257.057 1202.87 253.351C1207.02 249.532 1209.1 243.58 1209.1 235.493C1209.1 227.295 1207.02 221.342 1202.87 217.636C1198.71 213.818 1192.37 211.908 1183.83 211.908C1179.34 211.908 1176.48 212.414 1175.24 213.425C1174.12 214.435 1173.56 216.008 1173.56 218.142V258.91ZM1280.95 319.22C1276.01 319.22 1271.96 318.771 1268.82 317.873C1265.67 317.087 1263.15 316.3 1261.24 315.514C1259.44 314.728 1257.87 314.335 1256.52 314.335C1255.28 314.335 1254.39 314.784 1253.82 315.683C1253.26 316.469 1252.87 317.367 1252.65 318.378H1248.43L1246.41 284.854H1250.79C1251.35 288.448 1252.36 291.985 1253.82 295.467C1255.4 298.836 1257.42 301.869 1259.89 304.564C1262.47 307.259 1265.45 309.449 1268.82 311.134C1272.3 312.706 1276.23 313.493 1280.61 313.493C1285.55 313.493 1289.71 312.538 1293.08 310.629C1296.45 308.607 1298.97 305.912 1300.66 302.542C1302.45 299.173 1303.35 295.523 1303.35 291.592C1303.35 286.089 1301.67 281.653 1298.3 278.284C1295.04 274.802 1290.21 271.657 1283.81 268.849L1276.23 265.649C1270.95 263.402 1266.12 260.932 1261.74 258.236C1257.47 255.428 1254.05 252.003 1251.47 247.96C1248.88 243.917 1247.59 238.919 1247.59 232.967C1247.59 226.34 1249.11 220.893 1252.14 216.625C1255.28 212.358 1259.44 209.213 1264.61 207.191C1269.77 205.058 1275.5 203.991 1281.79 203.991C1286.39 203.991 1289.99 204.384 1292.57 205.17C1295.27 205.956 1297.4 206.742 1298.97 207.528C1300.55 208.315 1301.95 208.708 1303.18 208.708C1304.2 208.708 1304.93 208.315 1305.37 207.528C1305.82 206.63 1306.1 205.619 1306.22 204.496H1310.09L1311.78 234.314H1307.4C1306.72 229.71 1305.37 225.554 1303.35 221.848C1301.33 218.142 1298.58 215.222 1295.1 213.088C1291.73 210.842 1287.46 209.718 1282.3 209.718C1276.57 209.718 1271.85 211.291 1268.14 214.435C1264.44 217.468 1262.58 222.241 1262.58 228.755C1262.58 232.573 1263.37 235.774 1264.94 238.357C1266.52 240.941 1268.76 243.187 1271.68 245.096C1274.6 247.005 1278.03 248.802 1281.96 250.487L1289.88 253.856C1294.82 255.878 1299.48 258.236 1303.86 260.932C1308.24 263.627 1311.78 267.053 1314.47 271.208C1317.28 275.363 1318.68 280.698 1318.68 287.212C1318.68 292.154 1317.78 296.646 1315.99 300.689C1314.3 304.62 1311.78 307.989 1308.41 310.797C1305.15 313.493 1301.16 315.57 1296.45 317.03C1291.84 318.49 1286.68 319.22 1280.95 319.22ZM1334.94 317.199V312.313C1339.09 312.313 1342.07 312.089 1343.87 311.64C1345.66 311.078 1346.79 310.067 1347.24 308.607C1347.68 307.147 1347.91 305.013 1347.91 302.205V221.174C1347.91 218.254 1347.68 216.064 1347.24 214.604C1346.79 213.144 1345.66 212.189 1343.87 211.74C1342.07 211.178 1339.09 210.898 1334.94 210.898V206.012H1376.38V210.898C1372.34 210.898 1369.36 211.178 1367.45 211.74C1365.65 212.189 1364.53 213.144 1364.08 214.604C1363.63 216.064 1363.41 218.254 1363.41 221.174V302.205C1363.41 305.013 1363.63 307.147 1364.08 308.607C1364.53 310.067 1365.65 311.078 1367.45 311.64C1369.36 312.089 1372.34 312.313 1376.38 312.313V317.199H1334.94ZM1409.35 317.199V312.313C1414.52 312.313 1418.23 312.089 1420.47 311.64C1422.72 311.19 1424.07 310.292 1424.51 308.944C1425.08 307.484 1425.36 305.238 1425.36 302.205V211.572H1416.26C1410.2 211.572 1405.59 212.189 1402.45 213.425C1399.41 214.66 1397.17 216.85 1395.71 219.995C1394.36 223.027 1393.24 227.463 1392.34 233.303H1387.96V206.012H1478.25V233.303H1473.87C1472.98 227.463 1471.8 223.027 1470.34 219.995C1468.99 216.85 1466.8 214.66 1463.77 213.425C1460.73 212.189 1456.19 211.572 1450.12 211.572H1440.86V302.205C1440.86 305.238 1441.14 307.484 1441.7 308.944C1442.26 310.292 1443.66 311.19 1445.91 311.64C1448.27 312.089 1451.92 312.313 1456.86 312.313V317.199H1409.35ZM1511.81 317.199V312.313C1516.75 312.313 1520.29 312.089 1522.42 311.64C1524.67 311.078 1526.02 310.067 1526.46 308.607C1527.03 307.147 1527.31 305.013 1527.31 302.205V273.735L1499.17 219.152C1498.05 216.906 1496.93 215.222 1495.8 214.098C1494.68 212.863 1493.33 212.021 1491.76 211.572C1490.19 211.122 1488 210.898 1485.19 210.898V206.012H1525.12V210.898H1516.69C1515.23 210.898 1514.34 211.403 1514 212.414C1513.77 213.312 1514 214.492 1514.67 215.952L1538.43 264.132H1538.93L1561.34 216.457C1561.9 215.334 1562.18 214.379 1562.18 213.593C1562.29 212.807 1562.07 212.189 1561.51 211.74C1561.06 211.178 1560.27 210.898 1559.15 210.898H1550.56V206.012H1583.41V210.898C1580.26 210.898 1577.79 211.178 1575.99 211.74C1574.31 212.189 1572.85 213.144 1571.61 214.604C1570.49 215.952 1569.2 217.973 1567.74 220.669L1542.3 271.713V302.205C1542.3 305.013 1542.58 307.147 1543.14 308.607C1543.7 310.067 1545.11 311.078 1547.35 311.64C1549.6 312.089 1553.14 312.313 1557.97 312.313V317.199H1511.81Z" fill="#004B28"/>
<path d="M696.507 476.22C684.714 476.22 675.055 473.75 667.531 468.808C660.006 463.754 654.447 456.903 650.853 448.255C647.259 439.495 645.462 429.668 645.462 418.774C645.462 410.8 646.416 403.331 648.326 396.368C650.347 389.293 653.38 383.116 657.423 377.837C661.578 372.559 666.857 368.459 673.258 365.539C679.772 362.507 687.522 360.991 696.507 360.991C705.491 360.991 713.185 362.507 719.586 365.539C725.988 368.459 731.21 372.559 735.253 377.837C739.409 383.116 742.441 389.293 744.351 396.368C746.372 403.331 747.383 410.8 747.383 418.774C747.383 429.668 745.586 439.495 741.992 448.255C738.51 456.903 733.007 463.754 725.483 468.808C717.958 473.75 708.299 476.22 696.507 476.22ZM696.507 470.493C701.785 470.493 706.334 469.538 710.152 467.629C713.971 465.607 717.115 462.912 719.586 459.542C722.057 456.173 724.023 452.298 725.483 447.918C726.943 443.426 727.953 438.709 728.515 433.767C729.076 428.826 729.357 423.828 729.357 418.774C729.357 411.923 728.852 405.409 727.841 399.232C726.943 392.943 725.314 387.383 722.956 382.554C720.597 377.612 717.284 373.738 713.016 370.93C708.748 368.122 703.245 366.718 696.507 366.718C689.768 366.718 684.209 368.122 679.829 370.93C675.561 373.738 672.248 377.612 669.889 382.554C667.531 387.383 665.846 392.943 664.835 399.232C663.937 405.409 663.488 411.923 663.488 418.774C663.488 423.828 663.768 428.826 664.33 433.767C665.004 438.709 666.015 443.426 667.362 447.918C668.822 452.298 670.788 456.173 673.258 459.542C675.842 462.912 679.042 465.607 682.861 467.629C686.68 469.538 691.228 470.493 696.507 470.493ZM761.269 474.199V469.313C765.425 469.313 768.401 469.089 770.198 468.64C771.995 468.078 773.118 467.067 773.567 465.607C774.017 464.147 774.241 462.013 774.241 459.205V378.006C774.241 375.085 774.017 372.952 773.567 371.604C773.118 370.144 771.995 369.189 770.198 368.74C768.401 368.178 765.425 367.898 761.269 367.898V363.012H839.774V389.461H835.394C834.495 383.958 833.26 379.746 831.688 376.826C830.228 373.794 827.869 371.716 824.612 370.593C821.467 369.358 816.75 368.74 810.461 368.74H795.973C793.39 368.74 791.705 369.077 790.919 369.751C790.133 370.425 789.74 372.109 789.74 374.805V415.573H809.787C814.167 415.573 817.368 415.124 819.39 414.225C821.411 413.327 822.815 411.867 823.601 409.845C824.388 407.711 825.061 404.904 825.623 401.422H829.498V436.294H825.623C825.061 432.813 824.388 430.061 823.601 428.04C822.815 425.906 821.411 424.389 819.39 423.491C817.368 422.593 814.167 422.143 809.787 422.143H789.74V459.205C789.74 462.013 790.021 464.147 790.582 465.607C791.144 467.067 792.548 468.078 794.794 468.64C797.04 469.089 800.578 469.313 805.407 469.313V474.199H761.269ZM892.016 474.199V469.313H896.733C900.327 469.313 902.517 468.696 903.304 467.46C904.202 466.113 904.651 463.754 904.651 460.385V377.5C904.651 374.692 904.371 372.615 903.809 371.267C903.36 369.919 902.237 369.021 900.44 368.572C898.643 368.122 895.779 367.898 891.848 367.898V363.012H921.666L955.528 445.728H955.865L989.894 363.012H1018.2V367.898C1014.27 367.898 1011.35 368.122 1009.44 368.572C1007.64 369.021 1006.46 369.919 1005.9 371.267C1005.45 372.615 1005.22 374.692 1005.22 377.5V459.879C1005.22 462.575 1005.51 464.596 1006.07 465.944C1006.63 467.292 1007.81 468.19 1009.6 468.64C1011.51 469.089 1014.38 469.313 1018.2 469.313V474.199H976.923V469.313C981.078 469.313 984.054 469.089 985.851 468.64C987.648 468.078 988.771 467.123 989.221 465.776C989.782 464.428 990.063 462.462 990.063 459.879V378.174H989.726L952.327 469.819H949.294L911.39 378.174H911.053V460.385C911.053 464.091 911.446 466.506 912.232 467.629C913.018 468.752 915.433 469.313 919.476 469.313H925.709V474.199H892.016ZM1035.02 474.199V469.313C1039.18 469.313 1042.16 469.089 1043.95 468.64C1045.75 468.078 1046.87 467.067 1047.32 465.607C1047.77 464.147 1048 462.013 1048 459.205V378.174C1048 375.254 1047.77 373.064 1047.32 371.604C1046.87 370.144 1045.75 369.189 1043.95 368.74C1042.16 368.178 1039.18 367.898 1035.02 367.898V363.012H1076.47V367.898C1072.42 367.898 1069.45 368.178 1067.54 368.74C1065.74 369.189 1064.62 370.144 1064.17 371.604C1063.72 373.064 1063.5 375.254 1063.5 378.174V459.205C1063.5 462.013 1063.72 464.147 1064.17 465.607C1064.62 467.067 1065.74 468.078 1067.54 468.64C1069.45 469.089 1072.42 469.313 1076.47 469.313V474.199H1035.02ZM1086.02 474.199V469.313C1089.06 469.313 1091.36 469.033 1092.93 468.471C1094.5 467.797 1095.74 466.674 1096.64 465.102C1097.53 463.529 1098.43 461.452 1099.33 458.869L1135.05 363.012H1144.65L1179.69 460.048C1180.59 462.631 1181.43 464.596 1182.22 465.944C1183.11 467.292 1184.35 468.19 1185.92 468.64C1187.5 469.089 1189.63 469.313 1192.32 469.313V474.199H1153.75V469.313H1159.98C1162.56 469.313 1164.13 468.583 1164.7 467.123C1165.26 465.663 1165.15 463.866 1164.36 461.732L1135.38 380.533H1134.88L1105.73 462.238C1105.06 464.372 1104.95 466.113 1105.4 467.46C1105.96 468.696 1107.42 469.313 1109.78 469.313H1116.01V474.199H1086.02ZM1115.34 432.083L1117.53 426.355H1152.9L1154.93 432.083H1115.34ZM1200.16 474.199V469.313H1204.87C1208.47 469.313 1210.66 468.696 1211.44 467.46C1212.34 466.113 1212.79 463.754 1212.79 460.385V377.5C1212.79 374.692 1212.51 372.615 1211.95 371.267C1211.5 369.919 1210.38 369.021 1208.58 368.572C1206.78 368.122 1203.92 367.898 1199.99 367.898V363.012H1229.81L1263.67 445.728H1264L1298.03 363.012H1326.34V367.898C1322.4 367.898 1319.48 368.122 1317.58 368.572C1315.78 369.021 1314.6 369.919 1314.04 371.267C1313.59 372.615 1313.36 374.692 1313.36 377.5V459.879C1313.36 462.575 1313.64 464.596 1314.21 465.944C1314.77 467.292 1315.95 468.19 1317.74 468.64C1319.65 469.089 1322.52 469.313 1326.34 469.313V474.199H1285.06V469.313C1289.22 469.313 1292.19 469.089 1293.99 468.64C1295.79 468.078 1296.91 467.123 1297.36 465.776C1297.92 464.428 1298.2 462.462 1298.2 459.879V378.174H1297.86L1260.47 469.819H1257.43L1219.53 378.174H1219.19V460.385C1219.19 464.091 1219.58 466.506 1220.37 467.629C1221.16 468.752 1223.57 469.313 1227.62 469.313H1233.85V474.199H1200.16ZM1343.16 474.199V469.313C1347.32 469.313 1350.3 469.089 1352.09 468.64C1353.89 468.078 1355.01 467.067 1355.46 465.607C1355.91 464.147 1356.14 462.013 1356.14 459.205V378.174C1356.14 375.254 1355.91 373.064 1355.46 371.604C1355.01 370.144 1353.89 369.189 1352.09 368.74C1350.3 368.178 1347.32 367.898 1343.16 367.898V363.012H1384.61V367.898C1380.56 367.898 1377.59 368.178 1375.68 368.74C1373.88 369.189 1372.76 370.144 1372.31 371.604C1371.86 373.064 1371.63 375.254 1371.63 378.174V459.205C1371.63 462.013 1371.86 464.147 1372.31 465.607C1372.76 467.067 1373.88 468.078 1375.68 468.64C1377.59 469.089 1380.56 469.313 1384.61 469.313V474.199H1343.16Z" fill="#EC7100"/>
<path d="M375.702 206.364L376.052 391.653C376.052 403.522 376.052 439.636 285.097 439.791H276.55H268.002C177.048 439.636 177.048 403.522 177.048 391.653L177.397 206.364H52L52.0971 419.471C52.0971 478.43 217.357 483.015 268.021 483.015H285.039C335.703 483.015 500.944 478.43 500.944 419.471L501.06 206.364H375.682L375.702 206.364Z" fill="white"/>
<path d="M385.358 391.652L385.397 215.397H491.737C491.737 215.397 491.62 412.4 491.62 419.451C491.62 458.129 385.455 473.651 285.06 473.651C285.06 468.775 285.098 456.808 285.098 449.096C335.354 449.018 385.377 438.392 385.377 391.633L385.358 391.652Z" fill="#00502F"/>
<path d="M167.724 391.652L167.685 215.397H61.3447C61.3447 215.397 61.4613 412.4 61.4613 419.451C61.4613 458.129 167.646 473.651 268.041 473.651C268.041 468.775 268.003 456.808 268.003 449.096C217.766 449.018 167.724 438.392 167.724 391.633V391.652Z" fill="#F37321"/>
<path d="M574.81 517.688L574.81 138" stroke="#00502F" stroke-width="11.312" stroke-linecap="round"/>
</svg>
