<svg width="2057" height="688" viewBox="0 0 2057 688" fill="none" xmlns="http://www.w3.org/2000/svg">
<path fill-rule="evenodd" clip-rule="evenodd" d="M193 153H202V14H193V153ZM127.142 28.539C125.2 29.38 123.991 30.523 124.275 31.247C127.005 38.212 176.189 156.523 176.472 156.805C177.199 157.532 184 154.589 183.995 153.549C183.987 151.657 132.25 27.582 131.364 27.329C130.889 27.194 128.989 27.738 127.142 28.539ZM261.321 30.75C252.895 50.79 210.813 152.714 210.678 153.411C210.497 154.339 217.755 157.615 218.395 156.894C218.723 156.525 268.186 37.271 270.106 32.22C270.884 30.174 270.574 29.72 267.528 28.447C262.937 26.529 263.126 26.459 261.321 30.75ZM68.47 68.031L65.566 71.063L162.982 168.479L169.477 161.985L120.992 113.492C94.326 86.822 72.253 65 71.941 65C71.629 65 70.067 66.364 68.47 68.031ZM274.008 113.492L225.523 161.985L232.018 168.479L329.434 71.063L326.53 68.031C324.933 66.364 323.371 65 323.059 65C322.747 65 300.674 86.822 274.008 113.492ZM29.381 126.632C28.546 128.629 28.231 130.59 28.682 130.99C29.798 131.98 153.295 183 154.577 183C155.586 183 158.524 176.191 157.818 175.485C157.398 175.065 31.884 123 31.29 123C31.075 123 30.215 124.634 29.381 126.632ZM300.087 149.066C265.76 163.326 237.477 175.189 237.237 175.429C236.46 176.206 239.121 183 240.202 183C241.429 183 365.13 131.992 366.273 131.015C367.153 130.263 364.363 122.963 363.237 123.07C362.831 123.108 334.414 134.806 300.087 149.066ZM1476.71 188.422C1463.16 192.067 1457.03 204.774 1457.01 229.25L1457 239H1439V258H1457V326H1479V258H1499V239H1479V227.468C1479 209.186 1481.72 205.379 1494.58 205.652L1501.74 205.804L1502.36 200.652C1503.54 190.829 1503.23 188.295 1500.75 187.63C1496.84 186.583 1481.7 187.082 1476.71 188.422ZM703.684 197.437C698.55 199.284 696.183 201.606 695.016 205.94C691.772 217.987 705.534 226.929 716.641 219.992C723.824 215.506 723.788 203.458 716.578 199.083C712.142 196.392 708.044 195.869 703.684 197.437ZM1093.68 197.437C1088.59 199.271 1086.21 201.578 1085.03 205.839C1082.59 214.695 1089.02 222.392 1098.73 222.245C1109.15 222.088 1115.22 212.126 1110.48 202.967C1107.78 197.741 1099.98 195.173 1093.68 197.437ZM18 477.744L20.431 487.328C26.517 511.318 42.183 535.361 69.431 562.531C90.286 583.325 115.776 603.783 146 623.984C163.171 635.461 189.139 651.325 194.253 653.461C197.791 654.94 198.042 654.89 204.611 651.404C221.07 642.673 248.966 624.861 269.371 610.054C306.477 583.13 335.975 554.944 354.2 529C361.624 518.432 371.181 499.086 374.209 488.5L376.497 480.5L377.034 197.952L222.5 198.5L216.691 201.441C213.065 203.277 208.467 206.942 204.458 211.191C200.926 214.936 197.69 217.994 197.268 217.987C196.845 217.98 194.339 215.511 191.699 212.5C185.946 205.94 180.234 201.893 173.572 199.655C169.159 198.173 160.766 198 93.322 198H18V477.744ZM468.232 244.75C468.552 290.799 468.591 291.594 470.879 297.777C475.636 310.633 486 320.784 499.764 326.07C506.875 328.8 523.718 329.823 532.281 328.045C545.845 325.229 559.589 315.149 565.246 303.865C570.775 292.839 571 290.431 571 242.29V198H548.077L547.789 243.25C547.506 287.488 547.451 288.591 545.33 292.553C542.367 298.087 537.385 302.85 532 305.295C526.628 307.734 514.628 308.132 508.584 306.071C503.714 304.41 496.532 297.898 493.666 292.545C491.55 288.593 491.493 287.462 491.211 243.25L490.923 198H467.908L468.232 244.75ZM1140 239H1121.93L1122.5 257.5L1139.78 258.075L1140.24 283.787C1140.61 304.726 1141.01 310.335 1142.39 313.996C1144.74 320.23 1149.44 324.757 1155.4 326.527C1161.27 328.27 1175.29 328.46 1181.56 326.881L1186 325.763V307.236L1182.25 308.574C1177.5 310.27 1171.23 310.335 1168 308.721C1162.73 306.09 1162 302.5 1162 279.25L1162 258H1186V239H1162V214H1140V239ZM632.479 238.335C626.743 240.216 623.322 242.698 619.416 247.814L616 252.288V239H595V326H617L617.006 299.75C617.009 284.779 617.455 271.902 618.044 269.781C619.296 265.273 623.168 260.482 627.275 258.358C628.971 257.481 632.911 256.763 636.201 256.732C643.458 256.664 646.488 258.6 650 265.552C652.459 270.419 652.505 270.955 652.832 298.25L653.165 326H675.207L674.752 294.25C674.379 268.205 673.997 261.565 672.623 257.294C668.595 244.77 658.939 237.864 644.704 237.327C639.767 237.14 634.899 237.542 632.479 238.335ZM863.5 238.424C841.758 243.877 829 260.176 829 282.5C829 309.478 848.144 328 876.029 328C888.381 328 900.007 323.641 907.784 316.094C910.103 313.843 912 311.606 912 311.122C912 310.638 908.724 307.776 904.719 304.763L897.439 299.283L893.219 303.028C886.583 308.917 882.57 310.469 874 310.461C868.277 310.455 865.553 309.949 862.5 308.324C856.315 305.031 852.306 299.775 850.621 292.75L849.962 290H917.299L916.674 281.25C914.957 257.209 904.309 242.31 885.791 238.039C880.024 236.708 869.624 236.888 863.5 238.424ZM972.305 239.101C968.683 240.494 965.581 242.772 962.055 246.63L957 252.161V239H935V326H956.853L957.5 273.5L960.305 268.728C961.848 266.103 964.965 262.728 967.232 261.228C971.018 258.722 972.155 258.5 981.177 258.5H991V248.367C991 238.703 990.896 238.205 988.75 237.63C984.477 236.485 977.483 237.111 972.305 239.101ZM1024.23 238.55C1016.99 240.5 1013.55 242.431 1009.03 247.089C1000.14 256.247 999.562 272.123 1007.8 280.61C1012.18 285.117 1017.05 287.206 1029.81 290.055C1035.37 291.297 1041.62 293.266 1043.69 294.429C1051.03 298.543 1050.71 305.878 1043.04 309.75C1034.99 313.809 1025.76 312.12 1017.8 305.132C1015.84 303.409 1013.83 302 1013.34 302C1012.85 302 1009.53 304.958 1005.97 308.574L999.5 315.149L1003.83 319.033C1011.26 325.698 1017.3 327.435 1033 327.435C1044.81 327.435 1047.24 327.142 1052.38 325.097C1066.22 319.594 1072.82 308.1 1069.99 294.447C1068.64 287.946 1064.03 282.075 1057.76 278.875C1055.62 277.786 1049.29 275.78 1043.69 274.418C1027.05 270.37 1024 268.725 1024 263.779C1024 259.45 1025.49 257.422 1029.99 255.62C1037.02 252.809 1043.95 254.154 1049.83 259.468L1053.53 262.803L1056.01 260.796C1057.38 259.692 1060.67 256.763 1063.32 254.287L1068.15 249.784L1065.82 247.297C1057.76 238.663 1038.7 234.655 1024.23 238.55ZM1370.77 238.555C1347.85 244.112 1333.34 265.719 1336.82 289.135C1340.27 312.374 1358.94 328.023 1383.18 327.988C1415.8 327.942 1436.78 302.147 1429.46 271.087C1427.43 262.479 1423.73 255.979 1417.5 250.091C1405.54 238.781 1387.85 234.414 1370.77 238.555ZM697 326H719V239H697V326ZM732 239.476C732 239.922 752.932 291.465 764.194 318.75L767.187 326L790.5 325.962L807.253 283.231C816.467 259.729 824.004 240.162 824.003 239.75C824.001 239.338 819.139 239 813.197 239H802.395L791.036 268.75C784.788 285.113 779.408 298.819 779.08 299.208C778.752 299.598 773.308 286.323 766.983 269.708L755.482 239.5L743.741 239.218C737.283 239.063 732 239.179 732 239.476ZM1087 326H1109V239H1087V326ZM1195 239.444C1195 239.687 1203.31 259.498 1213.46 283.466L1231.91 327.045L1228.49 335.152C1223.07 348.015 1219.68 350.557 1209.06 349.732C1205.45 349.451 1201.77 348.922 1200.89 348.556C1199.51 347.989 1199.08 349.318 1198 357.479C1197.31 362.752 1196.94 367.27 1197.19 367.518C1198.33 368.662 1213.83 370.073 1218.38 369.448C1229.42 367.93 1235.72 364.235 1240.8 356.306C1243.36 352.309 1287 242.245 1287 239.789C1287 239.355 1282.1 239 1276.11 239H1265.22L1263.75 242.75C1262.94 244.813 1258.06 258.312 1252.89 272.748C1247.73 287.184 1243.28 298.989 1243 298.98C1242.72 298.972 1237.1 285.473 1230.51 268.982L1218.52 239H1206.76C1200.29 239 1195 239.2 1195 239.444ZM176.987 252.275C186.6 257.358 187.936 271.185 179.458 277.854L176.877 279.885L179.929 281.463C186.649 284.938 189.198 297.317 184.803 305.137C181.465 311.076 173.961 314.431 165.528 313.754C154.017 312.83 147.503 306.392 147.568 296.004C147.611 289.217 149.929 284.565 154.659 281.774L158.194 279.688L155.72 278.187C149.736 274.556 147.717 264.594 151.613 257.922C156.091 250.255 168.11 247.58 176.987 252.275ZM227.47 252.282C233.353 255.614 236 260.128 236 266.832C236 275.463 233.391 279.54 219.398 292.772L206.995 304.5L236.5 305.5L237.121 313H196V308.737C196 304.578 196.354 304.122 210.568 289.987C218.581 282.019 225.781 274.285 226.568 272.8C230.448 265.482 226.764 258.179 218.737 257.274C213.068 256.635 209.693 258.479 207.283 263.532C205.719 266.812 205.461 266.939 201.573 266.344C199.333 266.002 197.428 265.672 197.34 265.611C196.755 265.207 200.149 257.486 201.655 255.793C206.884 249.912 220.11 248.113 227.47 252.282ZM275.444 252.267C277.614 253.496 280.288 256.041 281.387 257.922C285.283 264.594 283.264 274.556 277.28 278.187L274.806 279.688L278.341 281.774C283.071 284.565 285.389 289.217 285.432 296.004C285.497 306.392 278.983 312.83 267.472 313.754C259.039 314.431 251.535 311.076 248.197 305.137C243.802 297.317 246.351 284.938 253.071 281.463L256.123 279.885L253.542 277.854C247.94 273.448 246.303 264.634 249.855 258.009C253.904 250.46 267.047 247.511 275.444 252.267ZM133 313H125V287.5C125 273.475 124.732 262 124.403 262C124.075 262 121.762 263.8 119.263 266C116.763 268.2 114.362 270 113.927 270C113.492 270 112.225 268.721 111.112 267.158L109.088 264.315L117.294 257.668C124.137 252.124 126.123 251.018 129.25 251.01L133 251V313ZM884.695 255.845C889.189 258.137 892.045 261.587 893.847 266.899C896.395 274.411 897.632 274 872.481 274H849.962L850.623 271.25C852.47 263.566 858.052 256.856 864.637 254.403C869.834 252.469 879.429 253.158 884.695 255.845ZM1395.13 259.1C1399.96 261.518 1406.37 268.94 1407.82 273.807C1411.69 286.715 1406.86 299.436 1395.75 305.588C1391.3 308.054 1389.43 308.488 1383.5 308.432C1375.5 308.357 1370.44 306.241 1365.36 300.838C1359.9 295.027 1358.53 291.346 1358.53 282.5C1358.54 271.63 1361.96 265.4 1371.12 259.599C1376.97 255.897 1388.26 255.662 1395.13 259.1ZM162.5 258.208C159.195 260.103 158.065 262.275 158.032 266.795C157.987 272.791 161.241 276 167.366 276C171.114 276 172.233 275.511 174.411 272.923C181.425 264.587 171.899 252.818 162.5 258.208ZM258.923 259.923C255.092 263.754 254.967 268.619 258.589 272.923C260.767 275.511 261.886 276 265.634 276C271.759 276 275.013 272.791 274.968 266.795C274.934 262.173 273.762 259.999 270.316 258.163C266.418 256.087 262.091 256.756 258.923 259.923ZM164.258 283.744C163.026 283.96 160.663 285.491 159.008 287.145C156.517 289.637 156 290.962 156 294.854C156 300.176 157.77 303.313 162.011 305.506C167.32 308.251 174.046 306.628 177.439 301.783C178.298 300.558 179 297.624 179 295.263C179 287.94 171.915 282.404 164.258 283.744ZM262.333 284.098C257.555 285.48 254 290.282 254 295.354C254 300.185 255.888 303.374 260.011 305.506C265.32 308.251 272.046 306.628 275.439 301.783C276.316 300.531 277 297.495 277 294.854C277 290.939 276.486 289.64 273.923 287.077C272.231 285.385 270.243 284 269.505 284C268.767 284 267.564 283.816 266.832 283.591C266.099 283.366 264.075 283.595 262.333 284.098ZM282 380.251L364.5 427.718L364.49 480.5L361.195 490C353.838 511.21 339.813 531.346 315.565 555.51C288.127 582.854 257.073 606.34 214.546 631.913L197.718 642.032L192.109 638.883C180.738 632.501 157.064 617.382 141.803 606.756C117.427 589.785 96.058 572.14 77.961 554.041C51.234 527.312 38.271 507.805 31.748 484.5C30.133 478.727 29.701 473.204 29.29 453L28.79 428.5L112.645 380.277C158.765 353.755 197.175 332.219 198 332.42C198.825 332.62 236.625 354.144 282 380.251ZM1030 501.068L1051.5 500.5V363.5L1030 362.932V501.068ZM1690 501.068L1711.5 500.5L1712.5 443.348L1715.32 439.095C1722.13 428.809 1738.54 428.134 1744.29 437.904C1746.89 442.316 1747.98 454.559 1747.99 479.25L1748 501H1769V470.049C1769 451.55 1768.56 437.061 1767.91 434.033C1765.55 423.033 1756.47 414.337 1744.99 412.077C1732.23 409.567 1718.4 414.267 1713.93 422.637C1712.65 425.017 1712.45 421.944 1712 394.404L1711.5 363.5L1690 362.932V501.068ZM512.5 370.636C508.65 371.446 501.449 374.065 496.498 376.456C476.871 385.935 464.533 404.593 462.115 428.455C459.772 451.567 466.901 472.361 481.942 486.286C492.007 495.604 503.092 500.656 518.703 503.039C539.47 506.209 562.698 498.748 573.643 485.391C575.645 482.948 577.106 480.815 576.891 480.652C576.676 480.488 572.544 477.531 567.709 474.079L558.917 467.804L554.091 472.318C546.765 479.17 539.969 482.239 530.915 482.783C507.524 484.186 489.494 468.074 485.951 442.6C483.088 422.019 493.21 401.772 510.5 393.493C515.492 391.103 518.122 390.549 526.153 390.198C538.1 389.675 543.933 391.38 551.622 397.643L557.042 402.058L565.271 395.861C569.797 392.452 573.725 389.466 574 389.225C575.126 388.239 562.122 377.683 556.439 374.971C544.1 369.082 527.616 367.456 512.5 370.636ZM1796.08 372.752C1788.35 376.712 1786.99 386.46 1793.3 392.768C1801.8 401.264 1816.99 395.639 1816.99 384C1816.99 374.048 1805.56 367.899 1796.08 372.752ZM1132.5 500.5H1209.5L1210.07 480H1155V372H1131.98L1132.5 500.5ZM802 413H784V432H802V456.451C802 484.726 802.711 489.568 807.671 495.058C812.782 500.715 818.44 502.52 830.5 502.34C836 502.257 841.85 501.778 843.5 501.275L846.5 500.361L847.075 482.021L844.472 483.011C843.041 483.555 839.224 484 835.991 484C828.842 484 825.367 481.543 823.972 475.5C823.463 473.3 823.037 462.613 823.024 451.75L823 432H847V413H823V388H802V413ZM623.347 412.043C606.484 415.03 593.513 425.398 587.794 440.459C585.931 445.364 585.5 448.474 585.5 457C585.5 465.526 585.931 468.636 587.794 473.541C593.881 489.573 607.099 499.503 625.976 502.227C639.807 504.222 655.331 499.309 664.452 490.049L669.107 485.323L653.933 473.902L649.792 477.446C643.152 483.13 638.337 485.003 630.434 484.978C619.578 484.944 612.19 480.488 608.553 471.782C605.523 464.529 603.332 465 640.145 465H673.291L672.723 455.25C671.172 428.605 658.112 413.326 635.451 411.645C631.628 411.362 626.181 411.541 623.347 412.043ZM732.326 411.986C730.031 412.472 726.745 413.598 725.024 414.488C721.619 416.248 714.105 423.552 713.827 425.371C713.732 425.992 713.395 423.575 713.077 420L712.5 413.5L692 412.93V501.068L713.5 500.5L714.5 443.348L717.316 439.095C723.676 429.492 738.768 428.032 745 436.418C748.754 441.47 749.226 445.128 749.746 473.25L750.259 501H771V470.049C771 451.99 770.558 437.036 769.938 434.148C767.883 424.565 759.771 415.449 751.112 412.993C745.695 411.456 737.026 410.992 732.326 411.986ZM904.146 412.521C896.945 414.527 890.501 419.452 887.164 425.5C886.276 427.111 886.055 426.089 886.03 420.25L886 413H864V501H886V449.228L888.794 443.88C890.834 439.975 892.909 437.717 896.479 435.515C901.034 432.707 902.011 432.505 910.685 432.571L920 432.641V422.88C920 417.511 919.587 412.863 919.083 412.551C916.848 411.17 909.051 411.154 904.146 412.521ZM963.5 411.564C962.4 411.815 959.025 412.51 956 413.11C948.866 414.525 939.23 419.103 935.76 422.727L933.02 425.588L938.528 431.028C943.302 435.742 944.267 436.3 945.768 435.214C946.721 434.524 950.2 432.62 953.5 430.981C958.557 428.47 960.684 428.001 967.038 428.001C979.324 428 985.743 432.462 987.536 442.25L988.223 446L982.861 446.001C972.9 446.002 956.153 448.018 949.807 449.979C936.657 454.043 929.856 460.742 927.832 471.627C924.619 488.904 937.856 502.166 958.5 502.352C969.36 502.451 975.806 500.157 982.323 493.876C985.105 491.194 987.521 489 987.691 489C987.861 489 988 491.7 988 495V501H1007V470.71C1007 446.643 1006.68 439.196 1005.46 434.46C1002.7 423.807 997.031 417.617 986.725 413.994C981.363 412.11 967.479 410.657 963.5 411.564ZM1253.4 411.997C1244.15 413.354 1234.52 417.369 1228.5 422.387L1225.5 424.886L1236.68 436.159L1241.32 433.214C1247.8 429.106 1253.61 427.711 1262.39 428.154C1268 428.438 1270.61 429.058 1272.7 430.609C1276.82 433.659 1280 438.848 1280 442.507V445.718L1267.05 446.422C1252.34 447.222 1239.5 449.932 1233.35 453.533C1218.88 462.015 1215.38 480.866 1226.12 492.516C1238.54 505.989 1263.81 506.083 1276.25 492.702L1280 488.667V501.072L1299.5 500.5L1299.49 469.5C1299.48 435.082 1298.96 431.401 1292.98 423.281C1286.23 414.12 1270.17 409.539 1253.4 411.997ZM1362.33 411.988C1360.03 412.473 1356.88 413.537 1355.33 414.352C1352.26 415.96 1345.93 422.282 1344.16 425.5C1343.28 427.108 1343.06 426.078 1343.03 420.25L1343 413H1322V501H1344V446.228L1346.76 440.937C1350.22 434.319 1355.79 430.998 1363.41 431.004C1370.23 431.009 1374.52 433.711 1377.32 439.777C1379.36 444.212 1379.51 446.223 1379.83 472.783L1380.16 501.066L1401.5 500.5V469.5C1401.5 441.674 1401.3 437.85 1399.56 432.148C1397.14 424.217 1391.09 417.148 1384.2 414.181C1378.55 411.751 1368.31 410.724 1362.33 411.988ZM1456.21 412.525C1433.77 417.397 1420 434.312 1420 457C1420 470.541 1424.65 481.655 1433.95 490.354C1445.59 501.248 1464.18 505.363 1480.1 500.571C1486.27 498.714 1494.08 494.68 1496.33 492.193C1498.12 490.207 1498.03 490.035 1491.03 482.673L1483.91 475.176L1481.21 477.721C1477.42 481.277 1472.87 483.001 1467.28 482.994C1459.9 482.986 1455.6 481.348 1450.19 476.483C1444.06 470.97 1441.76 465.65 1441.76 457C1441.76 448.436 1444.07 443.021 1450.01 437.681C1459.53 429.12 1473.06 428.77 1480.41 436.894C1481.45 438.052 1482.82 439 1483.43 439C1484.8 439 1498 425.84 1498 424.475C1498 423.116 1492.28 418.693 1487.11 416.058C1482.25 413.577 1471.29 411.003 1466 411.097C1464.08 411.131 1459.67 411.774 1456.21 412.525ZM1539.76 412.033C1529.42 413.775 1518.15 418.862 1513.67 423.817C1512.15 425.498 1512.39 425.951 1517.54 431.036C1522.7 436.14 1523.16 436.378 1525.27 435.043C1534.38 429.253 1536.4 428.575 1545.48 428.241C1553.44 427.949 1554.96 428.181 1558.41 430.205C1563.48 433.184 1566.02 436.709 1566.69 441.689L1567.22 445.706L1554.26 446.411C1533 447.566 1521.15 451.005 1514.09 458.061C1509.15 463.002 1507.05 468.356 1507.02 476.054C1506.97 492.019 1518.68 502.133 1537.5 502.383C1548.33 502.527 1554.87 500.185 1561.72 493.7L1567 488.71V501H1586.1L1585.8 467.75C1585.51 435.472 1585.43 434.351 1583.19 429.393C1578.81 419.713 1570.68 414.127 1557.99 412.069C1550.69 410.883 1546.64 410.875 1539.76 412.033ZM1631 412.035C1616.15 414.671 1607.39 421.971 1604.95 433.738C1603.49 440.791 1604.94 448.923 1608.5 453.591C1611.83 457.953 1621.52 462.496 1631.82 464.523C1646.07 467.327 1651 470.361 1651 476.326C1651 482.102 1645.17 486 1636.53 486C1629.68 486 1625.48 484.332 1620.09 479.46L1615.95 475.726L1609.23 482.069C1605.53 485.557 1602.31 488.55 1602.07 488.721C1601.83 488.891 1603.12 490.56 1604.93 492.429C1612.36 500.092 1629.06 504.275 1643.6 502.113C1661.61 499.434 1671.48 490.952 1672.72 477.072C1673.39 469.652 1671.64 463.716 1667.42 459.04C1662.92 454.062 1657.85 451.752 1643.42 448.106C1631.57 445.111 1626.79 442.743 1626.16 439.565C1624.97 433.499 1630.34 429.01 1638.8 429.004C1644.52 429 1648.93 430.761 1653.2 434.755L1655.9 437.282L1661.81 432.166C1670.28 424.823 1670.35 424.715 1668.1 421.85C1665.25 418.235 1656.95 414.097 1649.28 412.471C1641.89 410.905 1637.89 410.81 1631 412.035ZM1878.73 412.088C1876.66 412.576 1873.25 413.854 1871.14 414.929C1867.34 416.868 1861 423.185 1861 425.035C1861 425.566 1860.55 426 1860 426C1859.44 426 1859 423.155 1859 419.466V412.932L1837.5 413.5V500.5L1859 501.068V476.977C1859 462.553 1859.45 451.106 1860.12 448.451C1861.61 442.538 1867.78 435.632 1873.54 433.431C1877.05 432.091 1879.7 431.85 1885.52 432.342L1893 432.974V412.262L1889.25 411.642C1884.73 410.895 1883.6 410.943 1878.73 412.088ZM1940.53 412.006C1925.56 414.69 1913.34 423.36 1907.12 435.72C1898.77 452.293 1900.97 472.307 1912.75 486.825C1922.55 498.909 1942.06 505.139 1958.98 501.584C1968.87 499.504 1975.46 496.147 1981.31 490.198L1986.12 485.306L1971.16 473.846L1965.68 478.314C1958.71 483.984 1954.66 485.302 1945.58 484.844C1939.72 484.548 1937.52 483.949 1934.17 481.73C1929.42 478.589 1925.34 472.952 1924.4 468.234L1923.75 465H1990.26L1989.73 454.75C1988.64 433.634 1980.14 419.939 1964.51 414.089C1958 411.653 1947.56 410.746 1940.53 412.006ZM1792 501H1814V413H1792V501ZM640.75 430.121C645.942 432.634 649.946 438.182 650.717 443.928L651.263 448H606.75L607.394 444.75C608.491 439.212 613.127 432.852 617.907 430.328C623.891 427.168 634.452 427.072 640.75 430.121ZM1959.81 431.251C1964.41 434.302 1968 440.302 1968 444.96V448H1946C1921.56 448 1922.58 448.34 1925.55 441.218C1927.45 436.674 1932.46 431.246 1936.5 429.371C1938.47 428.457 1942.27 428.068 1947.57 428.239C1954.46 428.462 1956.26 428.906 1959.81 431.251ZM986 466.935C986 469.649 985.521 473.137 984.936 474.685C983.489 478.516 979.174 482.958 975.282 484.623C970.815 486.535 959.623 486.39 955.357 484.365C949.276 481.48 947.253 474.49 951.088 469.615C955.329 464.224 961.946 462.248 976.25 462.1L986 462V466.935ZM1278.96 466.25C1278.82 479.078 1271.44 485.934 1257.7 485.978C1250.34 486.002 1246.13 484.457 1243.56 480.783C1241.81 478.285 1241.5 472.797 1242.96 470.076C1245.59 465.15 1255.41 462.159 1269.25 462.066L1279 462L1278.96 466.25ZM1565.61 467.693C1564.13 480.287 1557.52 486 1544.44 486C1538.65 486 1536.65 485.565 1533.9 483.713C1524.65 477.485 1527.51 466.999 1539.3 463.972C1541.61 463.378 1543.95 462.727 1544.5 462.525C1545.05 462.323 1550.17 462.122 1555.89 462.079L1566.28 462L1565.61 467.693Z" fill="#007FB0"/>
<path fill-rule="evenodd" clip-rule="evenodd" d="M585.108 564.67C561.829 569.572 547.259 591.557 550.877 616.321C553.727 635.827 566.267 649.056 585.837 653.204C596.528 655.47 605.079 654.689 614.691 650.569C619.088 648.685 628.277 640.944 627.781 639.543C627.627 639.105 624.152 636.245 620.059 633.188L612.618 627.628L609.559 630.589C597.147 642.601 576.738 635.978 571.467 618.227C567.467 604.759 572.925 589.811 584 583.903C587.836 581.856 589.614 581.55 596.044 581.826C603.363 582.141 604.327 582.491 610.55 587.089C611.443 587.749 613.93 586.299 618.957 582.186L626.096 576.345L622.935 573.084C617.589 567.569 609.032 564.399 598.54 564.048C593.568 563.882 587.524 564.162 585.108 564.67ZM466 595.546C466 622.946 466.173 625.999 468.069 632.138C471.97 644.768 482.733 652.657 498.199 654.223C515.428 655.967 530.597 647.834 536.156 633.872C538.323 628.429 538.451 626.632 538.792 596.901L539.151 565.651H520L519.976 592.401C519.963 607.113 519.543 620.916 519.043 623.074C517.211 630.972 511.665 635.765 503.585 636.436C496.272 637.042 490.157 633.672 487.096 627.349C485.117 623.262 485 621.414 485 594.335V565.651H466V595.546ZM637 652.651H691V634.651H656V565.651H637V652.651ZM714.314 593.452C711.462 594.469 707.239 596.551 704.93 598.079L700.731 600.858L710.838 610.965L713.964 608.334C717.761 605.14 724.178 603.274 728.547 604.094C732.325 604.803 736.586 608.705 737.224 612.04C737.663 614.34 737.498 614.39 727.585 614.943C708.377 616.015 700.029 620.846 697.559 632.317C695.826 640.37 702.428 650.338 711.036 652.666C717.469 654.406 726.102 653.367 731.5 650.204C733.975 648.753 736 647.136 736 646.609C736 646.082 736.45 645.651 737 645.651C737.55 645.651 738 647.226 738 649.151V652.651H754V632.333C754 605.155 752.292 599.448 742.655 594.432C736.758 591.363 721.645 590.84 714.314 593.452ZM793.5 593.31C791.85 594.178 789.263 596.044 787.75 597.457L785 600.025V592.651H767V652.651H785L785.024 636.401C785.051 617.774 785.849 613.053 789.503 609.901C792.588 607.24 798.473 606.893 801.739 609.18C805.14 611.563 805.988 616.791 805.994 635.401L806 652.651H824.161L823.827 629.401C823.518 607.878 823.333 605.854 821.344 602.151C818.663 597.161 815.487 594.259 811.101 592.79C806.28 591.175 797.038 591.448 793.5 593.31ZM738 628.683C738 632.671 735.171 637.511 731.829 639.242C724.492 643.043 715 640.527 715 634.783C715 629.419 720.097 626.808 730.75 626.714C737.392 626.656 738 626.821 738 628.683Z" fill="#FF0000"/>
<path fill-rule="evenodd" clip-rule="evenodd" d="M192.26 384.081L187.179 389.162L197.137 405.866L206.816 389.762L202.219 384.381C199.691 381.421 197.559 379 197.482 379C197.404 379 195.055 381.286 192.26 384.081ZM168.656 397.937C161.399 400.263 155 408.604 152.739 418.687L151.575 423.873L143.47 423.891C139.012 423.901 133.856 424.361 132.012 424.914C124.508 427.164 117.865 435.183 117.865 441.992C117.865 449.152 123.078 456.546 130.865 460.432C137.383 463.684 163.161 470.613 163.62 469.236C164.59 466.325 170.346 459.664 174.613 456.513C177.227 454.584 182.065 452.158 185.365 451.123L191.365 449.241L192.163 438.37C193.446 420.884 192.728 412.148 189.561 406.745C185.157 399.23 176.284 395.491 168.656 397.937ZM212.4 399.278C210.077 400.594 207.184 403.549 205.412 406.415C202.915 410.453 202.323 412.602 202.013 418.746C201.458 429.738 202.846 449.079 204.218 449.461C209.328 450.881 215.398 453.58 219.308 456.17C223.49 458.94 230.131 466.298 231.116 469.253C231.528 470.488 254.661 464.355 263.107 460.772C270.925 457.456 276.837 449.199 276.859 441.566C276.869 438.235 272.798 431.048 269.513 428.597C264.846 425.114 259.523 423.752 250.73 423.79C244.7 423.817 242.865 423.503 242.865 422.447C242.865 419.67 239.596 411.374 236.702 406.805C234.584 403.462 232.251 401.374 228.6 399.555C222.306 396.419 217.592 396.338 212.4 399.278ZM100.365 450.668C97.615 452.085 95.223 453.368 95.05 453.521C94.363 454.123 100.964 466 101.985 466C102.585 466 105.616 465.372 108.721 464.604C111.825 463.837 115.643 462.918 117.204 462.563L120.043 461.917L116.196 457.709C114.079 455.394 111.387 452.262 110.213 450.75C107.613 447.402 106.721 447.394 100.365 450.668ZM280.631 455.02L274.897 461.97L277.631 462.589C279.135 462.93 282.905 463.837 286.009 464.604C289.114 465.372 292.047 466 292.529 466C293.295 466 299.865 455.038 299.865 453.76C299.865 453.161 288.454 447.987 287.24 448.035C286.759 448.054 283.785 451.197 280.631 455.02ZM184.365 459.358C179.056 461.841 172.188 468.567 169.274 474.136C168.179 476.227 167.345 480.582 167.069 485.648C166.682 492.758 166.94 494.484 169.096 499.194C172.511 506.654 177 511.428 183.683 514.71C188.477 517.064 190.616 517.498 197.365 517.485C206.944 517.467 212.612 515.253 218.723 509.142C225.61 502.255 227.351 497.887 227.349 487.5C227.347 479.69 226.995 477.831 224.683 473.437C221.574 467.524 215.358 461.582 209.502 458.922C203.252 456.085 190.906 456.299 184.365 459.358ZM115.52 470.398C111.1 472.044 107.292 475.314 105.27 479.2C103.469 482.662 103.468 490.113 105.268 494.422C107.191 499.024 113.314 505.593 118.531 508.65C120.915 510.047 122.865 511.315 122.865 511.468C122.865 511.621 121.949 513.816 120.83 516.347C119.71 518.877 118.522 523.863 118.19 527.427C117.656 533.139 117.903 534.557 120.273 539.401C123.701 546.408 128.054 549.286 135.224 549.286C141.296 549.286 146.937 546.702 151.486 541.838C154.568 538.543 168.44 518.27 169.496 515.519C169.795 514.739 168.636 512.354 166.921 510.219C162.343 504.523 159.653 496.698 159.282 488L158.962 480.5L144.75 475.218C129.006 469.366 121.58 468.141 115.52 470.398ZM256.365 472.896C250.315 475.028 243.137 477.616 240.415 478.649L235.465 480.526L235.367 487.013C235.24 495.487 232.597 503.503 227.871 509.748L224.061 514.782L231.713 526.213C235.922 532.5 240.265 538.75 241.365 540.102C249.969 550.68 263.259 552.499 271.046 544.165C277.368 537.399 278.276 528.308 273.798 516.627L271.832 511.5L274.073 510C285.468 502.371 289.987 496.575 290.635 488.756C291.415 479.36 286.629 472.634 277.365 470.104C271.037 468.375 268.084 468.768 256.365 472.896ZM174.902 526.76C161.209 544.092 158.025 548.928 156.85 554.178C155.346 560.896 156.704 566.608 160.957 571.452C168.363 579.887 182.3 578.459 194.156 568.05L197.367 565.23L201.265 568.6C213.051 578.788 226.783 579.828 234.135 571.091C238.042 566.448 239.229 561.07 237.832 554.343C236.697 548.875 232.752 542.881 219.505 526.5C217.281 523.75 215.413 521.398 215.354 521.274C215.294 521.149 212.839 521.962 209.898 523.079C202.675 525.824 192.028 525.814 184.772 523.056C181.798 521.926 179.365 521.026 179.365 521.056C179.365 521.087 177.357 523.653 174.902 526.76ZM146.865 554.003C146.04 554.538 142.31 556.152 138.577 557.59L131.789 560.204L132.458 566.352C132.826 569.733 133.32 572.837 133.555 573.25C134.143 574.281 136.881 574.19 142.676 572.947L147.586 571.894L148.247 563.974C148.61 559.617 149.171 555.366 149.493 554.527C150.159 552.791 149.07 552.574 146.865 554.003ZM245.198 554.632C245.496 555.659 246.043 559.959 246.414 564.186C246.818 568.797 247.581 572.061 248.32 572.344C248.997 572.604 252.051 573.129 255.106 573.511C261.331 574.289 260.789 574.964 262.363 564.468L262.967 560.435L254.666 556.968C250.101 555.06 245.98 553.334 245.51 553.132C245.04 552.929 244.899 553.604 245.198 554.632Z" fill="#FF0000"/>
</svg>
