<?xml version="1.0" encoding="utf-8"?>
<!-- Generator: Adobe Illustrator 17.0.0, SVG Export Plug-In . SVG Version: 6.00 Build 0)  -->
<!DOCTYPE svg PUBLIC "-//W3C//DTD SVG 1.1//EN" "http://www.w3.org/Graphics/SVG/1.1/DTD/svg11.dtd">
<svg version="1.1" id="Layer_1" xmlns="http://www.w3.org/2000/svg" xmlns:xlink="http://www.w3.org/1999/xlink" x="0px" y="0px"
	 width="400px" height="225px" viewBox="0 0 400 225" enable-background="new 0 0 400 225" xml:space="preserve">
<g>
	<rect x="98.882" y="11.892" fill="#00407E" width="2.926" height="21.671"/>
	<polygon fill="#00407E" points="125.103,11.895 127.94,11.895 127.94,33.563 124.649,33.563 113.635,16.06 113.572,16.06 
		113.572,33.563 110.739,33.563 110.739,11.895 114.208,11.895 125.043,29.398 125.103,29.398 	"/>
	<polygon fill="#00407E" points="134.579,11.895 152.175,11.895 152.175,14.491 144.838,14.491 144.838,33.563 141.912,33.563 
		141.912,14.491 134.579,14.491 	"/>
	<polygon fill="#00407E" points="175.107,33.565 159.11,33.565 159.11,11.897 174.895,11.897 174.895,14.493 162.041,14.493 
		162.041,21.13 173.899,21.13 173.899,23.726 162.041,23.726 162.041,30.969 175.107,30.969 	"/>
	<path fill="#00407E" d="M186.154,21.766h6.79c2.142,0,4.407-0.547,4.407-3.745c0-3.35-2.443-3.622-3.893-3.622h-7.303V21.766z
		 M186.154,33.565h-2.927V11.897h10.018c3.562,0,7.125,1.235,7.125,5.823c0,3.198-1.629,4.377-3.019,5.191
		c1.238,0.513,2.476,1.056,2.595,4.075l0.182,3.923c0.03,1.209,0.182,1.658,1.086,2.172v0.483h-3.592
		c-0.42-1.327-0.513-4.618-0.513-5.433c0-1.781-0.36-3.863-3.863-3.863h-7.091V33.565"/>
	<polygon fill="#00407E" points="222.544,11.895 225.381,11.895 225.381,33.563 222.09,33.563 211.076,16.06 211.013,16.06 
		211.013,33.563 208.179,33.563 208.179,11.895 211.649,11.895 222.484,29.398 222.544,29.398 	"/>
	<path fill="#00407E" d="M245.334,24.662l-3.198-9.538h-0.06l-3.473,9.538H245.334z M237.7,27.258l-2.265,6.307h-3.016l8.147-21.667
		h3.32l7.846,21.667h-3.198l-2.142-6.307H237.7"/>
	<polygon fill="#00407E" points="254.059,11.895 271.654,11.895 271.654,14.491 264.321,14.491 264.321,33.563 261.391,33.563 
		261.391,14.491 254.059,14.491 	"/>
	<rect x="279.346" y="11.896" fill="#00407E" width="2.926" height="21.667"/>
	<path fill="#00407E" d="M300.046,13.918c-4.708,0-7.545,3.711-7.545,8.813c0,5.102,2.837,8.813,7.545,8.813
		c4.708,0,7.544-3.711,7.544-8.813C307.59,17.629,304.753,13.918,300.046,13.918 M300.046,34.139
		c-8.088,0-10.564-6.73-10.564-11.408s2.477-11.408,10.564-11.408c8.087,0,10.564,6.73,10.564,11.408S308.133,34.139,300.046,34.139
		"/>
	<polygon fill="#00407E" points="332.365,11.895 335.202,11.895 335.202,33.563 331.912,33.563 320.897,16.06 320.834,16.06 
		320.834,33.563 318.001,33.563 318.001,11.895 321.47,11.895 332.306,29.398 332.365,29.398 	"/>
	<path fill="#00407E" d="M354.757,24.662l-3.198-9.538h-0.06l-3.473,9.538H354.757z M347.123,27.258l-2.265,6.307h-3.019
		l8.151-21.667h3.32l7.846,21.667h-3.198l-2.142-6.307H347.123"/>
	<polygon fill="#00407E" points="370.694,30.97 381.679,30.97 381.679,33.565 367.767,33.565 367.767,11.894 370.694,11.894 	"/>
	<path fill="#00407E" d="M388.437,5.092c-2.595,0-4.693,2.012-4.693,5.024s2.098,5.038,4.693,5.02v0.018
		c2.528,0,4.678-2.026,4.678-5.038S390.965,5.092,388.437,5.092 M388.437,16.66c-3.477,0-6.578-2.406-6.578-6.544
		s3.101-6.545,6.578-6.545c3.466,0,6.563,2.406,6.563,6.545S391.902,16.66,388.437,16.66 M388.682,9.473
		c0.673,0,1.071-0.138,1.071-0.915c0-0.729-0.777-0.781-1.35-0.781h-1.056v1.696H388.682 M387.347,13.63h-1.506V6.583h2.633
		c1.818,0,2.889,0.521,2.889,2.127c0,1.301-0.762,1.766-1.696,1.837l1.8,3.083h-1.781l-1.629-2.96h-0.71V13.63"/>
	<path fill="#00407E" d="M110.958,50.807c-0.153-3.35-2.927-4.406-5.373-4.406c-1.841,0-4.949,0.513-4.949,3.804
		c0,1.841,1.298,2.443,2.566,2.744l6.187,1.42c2.807,0.662,4.92,2.354,4.92,5.793c0,5.131-4.771,6.548-8.481,6.548
		c-4.013,0-5.582-1.205-6.549-2.082c-1.841-1.658-2.205-3.469-2.205-5.492h2.748c0,3.923,3.198,5.068,5.976,5.068
		c2.112,0,5.674-0.539,5.674-3.652c0-2.261-1.056-2.986-4.618-3.83l-4.437-1.026c-1.42-0.335-4.618-1.327-4.618-5.102
		c0-3.38,2.205-6.701,7.456-6.701c7.574,0,8.329,4.529,8.452,6.913H110.958z"/>
	<path fill="#00407E" d="M121.292,54.489h5.826c2.622,0,4.403-0.967,4.403-3.893c0-2.744-1.871-3.622-4.284-3.622h-5.946V54.489z
		 M121.292,66.138h-2.927V44.471h9.746c4.016,0,6.429,2.595,6.429,6.095c0,3.019-1.722,6.429-6.429,6.429h-6.82V66.138"/>
	<path fill="#00407E" d="M146.573,57.236l-3.201-9.538h-0.06l-3.469,9.538H146.573z M138.935,59.831l-2.265,6.307h-3.016
		l8.147-21.667h3.32l7.846,21.667h-3.198l-2.142-6.307H138.935"/>
	<path fill="#00407E" d="M170.796,50.989c-0.815-3.804-3.983-4.499-6.065-4.499c-3.926,0-7.095,2.9-7.095,8.604
		c0,5.098,1.811,9.025,7.184,9.025c1.9,0,5.191-0.907,6.187-5.946h2.837c-1.208,8.177-7.846,8.541-9.478,8.541
		c-4.92,0-9.746-3.202-9.746-11.531c0-6.671,3.801-11.286,10.11-11.286c5.582,0,8.478,3.469,8.902,7.091H170.796z"/>
	<polygon fill="#00407E" points="193.213,66.138 177.216,66.138 177.216,44.471 193.001,44.471 193.001,47.066 180.146,47.066 
		180.146,53.704 192.004,53.704 192.004,56.299 180.146,56.299 180.146,63.543 193.213,63.543 	"/>
	<path fill="#00407E" d="M222.454,44.469v14.063c0,4.436-2.778,8.181-8.72,8.181c-5.827,0-8.333-3.745-8.333-7.787V44.469h2.93
		v13.643c0,4.708,2.867,6.005,5.492,6.005c2.684,0,5.704-1.238,5.704-5.946V44.469H222.454z"/>
	<polygon fill="#00407E" points="241.202,44.469 244.039,44.469 244.039,66.137 240.748,66.137 229.733,48.634 229.674,48.634 
		229.674,66.137 226.837,66.137 226.837,44.469 230.306,44.469 241.142,61.972 241.202,61.972 	"/>
	<rect x="249.018" y="44.47" fill="#00407E" width="2.926" height="21.667"/>
	<polygon fill="#00407E" points="270.731,44.469 274.022,44.469 266.113,66.137 263.004,66.137 255.099,44.469 258.356,44.469 
		264.544,62.939 264.603,62.939 	"/>
	<polygon fill="#00407E" points="292.256,66.138 276.259,66.138 276.259,44.471 292.044,44.471 292.044,47.066 279.189,47.066 
		279.189,53.704 291.047,53.704 291.047,56.299 279.189,56.299 279.189,63.543 292.256,63.543 	"/>
	<path fill="#00407E" d="M299.923,54.34h6.79c2.142,0,4.407-0.547,4.407-3.745c0-3.35-2.443-3.622-3.893-3.622h-7.303V54.34z
		 M299.923,66.138h-2.927V44.471h10.018c3.562,0,7.125,1.235,7.125,5.823c0,3.198-1.629,4.377-3.019,5.191
		c1.238,0.513,2.476,1.056,2.595,4.075l0.182,3.923c0.03,1.209,0.182,1.658,1.086,2.172v0.483h-3.592
		c-0.424-1.327-0.513-4.618-0.513-5.433c0-1.781-0.36-3.863-3.863-3.863h-7.091V66.138"/>
	<path fill="#00407E" d="M330.827,50.807c-0.153-3.35-2.927-4.406-5.373-4.406c-1.841,0-4.949,0.513-4.949,3.804
		c0,1.841,1.298,2.443,2.566,2.744l6.187,1.42c2.807,0.662,4.92,2.354,4.92,5.793c0,5.131-4.771,6.548-8.481,6.548
		c-4.013,0-5.582-1.205-6.549-2.082c-1.841-1.658-2.205-3.469-2.205-5.492h2.748c0,3.923,3.198,5.068,5.976,5.068
		c2.112,0,5.674-0.539,5.674-3.652c0-2.261-1.056-2.986-4.618-3.83l-4.437-1.026c-1.417-0.335-4.618-1.327-4.618-5.102
		c0-3.38,2.205-6.701,7.456-6.701c7.574,0,8.329,4.529,8.452,6.913H330.827z"/>
	<rect x="338.284" y="44.47" fill="#00407E" width="2.926" height="21.667"/>
	<polygon fill="#00407E" points="344.284,44.469 361.879,44.469 361.879,47.065 354.546,47.065 354.546,66.137 351.616,66.137 
		351.616,47.065 344.284,47.065 	"/>
	<polygon fill="#00407E" points="373.766,66.138 370.839,66.138 370.839,57.419 362.658,44.471 366.068,44.471 372.289,54.883 
		378.503,44.471 381.946,44.471 373.766,57.419 	"/>
	<rect x="5.363" y="9.832" fill="#00407E" width="82.472" height="58.108"/>
	<path fill="#00407E" d="M42.605,177.694c2.989,20.991,17.272,35.798,42.55,43.644H5V83.825h89.042
		c-29.115,6.002-48.355,19.723-50.061,47.28c-2.886,46.615,95.597,29.774,116.897,40.814c2.439,1.264,4.153,3.614,4.299,5.745
		c0.443,6.422-0.398,13.275-18.496,13.717c-7.4,0.178-11.732-1.086-15.16-2.979c-5.652-3.123-7.4-4.782-12.107-10.709H42.605
		 M315.951,83.916l-0.085,62.347c-0.963,19.972-14.904,33.206-30.425,33.206c-14.8,0-27.55-10.107-29.577-33.444V83.916h-0.019
		v-0.092h-68.97c30.138,6.411,45.31,20.429,48.333,41.156h-81.326c-1.067-3.529-2.06-6.957-7.564-9.575
		c-5.875-2.793-5.938-2.707-12.992-2.978c-15.736-0.602-19.492,7.943-19.685,12.903c-0.948,24.077,127.405-5.775,125.241,52.337
		c-0.911,24.43-24.668,37.133-49.456,43.67h58.908c0,0,0,0.003,0,0.003s9.642,0.193,19.886,0c25.282-0.483,41.149,0,48.143-10.348
		v10.166h65.698V83.916H315.951z"/>
</g>
</svg>
