<svg width="1476" height="655" viewBox="0 0 1476 655" fill="none" xmlns="http://www.w3.org/2000/svg">
<path fill-rule="evenodd" clip-rule="evenodd" d="M334.521 117.007V123.45C404.094 130.929 409.069 159.78 408.348 223.33V275.442C409.076 335.886 419.513 438.348 312.805 438.278C175.771 438.348 191.693 310.009 191.224 301.495V199.446C191.693 143.864 192.679 133.916 258.532 123.457V117.014H87V123.457C145.926 132.426 146.423 147.348 147.801 199.446V310.184C147.913 349.815 131.997 461.238 286.76 462.169C396.637 461.238 423.998 396.079 425.726 331.899L427.901 223.33C430.476 157.296 433.456 129.431 477.838 123.45V117.007H334.521Z" fill="#CE364F"/>
<path fill-rule="evenodd" clip-rule="evenodd" d="M453.946 117.007V123.45C517.888 138.386 525.843 157.793 525.598 208.128V281.955C525.843 395.078 528.34 440.838 460.459 446.974V455.663H610.283V446.974C537.785 433.381 540.772 408.007 540.793 284.131V192.933C624.841 283.648 711.688 363.128 790.482 457.831L797.016 455.656C795.267 347.206 794.463 234.894 801.347 179.9C805.404 147.838 811.883 128.935 846.946 123.443V117H710.163V123.443C766.598 134.399 779.541 148.327 779.632 195.095L781.807 377.477L536.518 117.007H453.946Z" fill="#CE364F"/>
<path fill-rule="evenodd" clip-rule="evenodd" d="M838.25 455.663H1094.47L1118.34 355.783L1111.84 353.607C1080.68 393.134 1066.29 446.806 990.242 440.454C990.69 441.328 951.604 438.936 948.995 427.434C944.447 413.869 943.692 386.62 944.65 362.289V199.446C943.692 147.341 945.672 132.419 1005.45 123.457V117.014H838.25V123.457C897.932 132.426 898.428 147.348 899.051 199.446V373.146C898.421 424.916 897.932 439.838 838.25 446.974V455.663Z" fill="#CE364F"/>
<path fill-rule="evenodd" clip-rule="evenodd" d="M180.843 495.679V522.557C180.843 526.768 180.57 530.672 177.471 534.072C174.372 537.472 169.712 538.787 164.99 538.787C160.471 538.787 155.672 537.913 152.573 534.702C149.201 531.232 148.928 526.957 148.928 522.557V495.679H154.727V522.557C154.727 525.096 154.797 528.566 156.483 530.798C158.379 533.324 162.29 534.079 165.459 534.079C168.425 534.079 171.804 533.205 173.763 531.043C175.988 528.622 175.988 525.467 175.988 522.557V495.679H180.843ZM225.455 538.165L201.893 501.136V538.165H197.038V495.679H204.328L226.267 530.308V495.679H231.129V538.165H225.455ZM246.716 538.165V495.679H252.522V538.165H246.716ZM285.186 538.165H279.652L263.989 495.679H270.068L282.961 530.728L295.778 495.679H300.843L285.186 538.165ZM341.678 538.165H311.707V495.679H340.999V500.275H317.514V513.77H336.144V518.038H317.514V533.568H341.678V538.165ZM381.295 538.165L372.725 519.773H359.902V538.165H354.095V495.686H371.445C375.216 495.686 378.868 496.12 381.967 498.281C385.073 500.464 386.899 503.99 386.899 507.586C386.899 512.588 383.66 517.107 378.259 518.478L387.375 538.165H381.295ZM370.767 515.442C373.873 515.442 376.433 515.253 378.735 513.092C380.351 511.601 381.099 509.552 381.099 507.516C381.145 506.333 380.867 505.159 380.297 504.122C379.726 503.084 378.884 502.221 377.86 501.625C375.832 500.324 373.88 500.275 371.452 500.275H359.909V515.442H370.767ZM403.36 525.649C405.249 531.54 410.58 534.254 417.065 534.254C419.835 534.254 423.207 533.708 425.369 532.148C426.23 531.523 426.933 530.707 427.425 529.764C427.917 528.82 428.183 527.776 428.203 526.712C428.203 522.438 424.355 520.703 420.304 519.773L412.609 518.038C409.503 517.352 406.662 516.687 404.242 514.638C403.067 513.691 402.118 512.495 401.463 511.136C400.809 509.777 400.465 508.29 400.457 506.781C400.457 498.61 408.152 495.07 416.184 495.07C423.942 495.07 430.161 498.61 432.652 505.466L427.398 506.781C426.377 502.136 420.983 499.282 416.058 499.282C411.671 499.282 406.138 501.387 406.138 506.033C406.138 510.804 410.188 511.853 414.505 512.784L421.459 514.344C424.502 514.959 427.531 515.764 429.896 517.611C432.799 519.787 434.212 522.697 434.212 526.041C434.212 529.882 432.386 533.338 429.014 535.702C425.642 538.053 421.123 538.801 416.932 538.801C407.481 538.801 401.275 534.961 398.169 526.72L403.36 525.649ZM447.84 538.165V495.679H453.646V538.165H447.84ZM478.349 538.165V500.324H465.183V495.679H497.315V500.324H484.148V538.165H478.349ZM525.053 520.276V538.165H519.254V520.276L503.793 495.679H510.544L522.822 515.246L535.246 495.679H540.507L525.053 520.276ZM573.786 517.226C573.786 506.648 579.453 495.063 592.815 495.063C605.841 495.063 611.851 505.97 611.851 516.422C611.851 526.831 606.044 538.787 592.885 538.787C579.586 538.787 573.786 527.888 573.786 517.226ZM605.772 516.736C605.772 512.966 605.1 508.565 603.001 505.151C600.909 501.814 597.334 499.471 593.011 499.471C582.678 499.471 579.852 509.678 579.852 517.303C579.852 524.614 583.091 534.45 592.871 534.45C602.805 534.443 605.772 524.047 605.772 516.736ZM625.752 538.165V495.679H654.099V500.275H631.558V513.77H650.251V518.038H631.558V538.165H625.752ZM716.523 538.165L692.975 501.136V538.165H688.106V495.679H695.395L717.342 530.308V495.679H722.197V538.165H716.523ZM767.677 538.165H737.72V495.679H767.005V500.275H743.52V513.77H762.157V518.038H743.52V533.568H767.677V538.165ZM796.507 538.165H790.973L775.302 495.679H781.382L794.282 530.728L807.112 495.679H812.149L796.507 538.165ZM841.56 538.165L836.887 525.775H819.754L815.626 538.165H810.778L825.756 495.686H832.437L847.493 538.165H841.56ZM828.52 501.38L821.363 521.752H835.614L828.52 501.38ZM858.42 495.679H873.069C879.681 495.679 884.613 496.924 888.999 501.688C892.973 505.963 894.603 511.28 894.603 516.799C894.603 521.99 893.113 527.132 889.804 531.407C886.089 536.178 881.304 538.158 874.951 538.158H858.42V495.679ZM872.727 533.638C878.057 533.638 882.318 532.519 885.354 528.252C887.649 525.026 888.726 520.64 888.726 516.799C888.726 512.455 887.509 507.943 884.48 504.473C881.311 500.828 877.596 500.142 872.727 500.142H864.227V533.631L872.727 533.638ZM930.575 538.165L925.902 525.775H908.769L904.656 538.165H899.794L914.786 495.686H921.453L936.508 538.165H930.575ZM917.542 501.38L910.385 521.752H924.622L917.542 501.38ZM999.813 538.165H972.481V495.679H978.28V533.45H999.813V538.165ZM1036.93 538.165L1032.27 525.775H1015.13L1011.01 538.165H1006.15L1021.14 495.686H1027.82L1042.88 538.165H1036.93ZM1023.91 501.38L1016.76 521.752H1030.99L1023.91 501.38ZM1056.11 525.649C1058 531.54 1063.32 534.254 1069.8 534.254C1072.57 534.254 1075.95 533.708 1078.11 532.148C1078.97 531.526 1079.68 530.71 1080.17 529.766C1080.67 528.823 1080.93 527.777 1080.95 526.712C1080.95 522.438 1077.1 520.703 1073.05 519.773L1065.36 518.038C1062.24 517.352 1059.41 516.687 1056.98 514.638C1055.81 513.691 1054.86 512.494 1054.21 511.135C1053.56 509.776 1053.22 508.289 1053.21 506.781C1053.21 498.61 1060.89 495.07 1068.93 495.07C1076.68 495.07 1082.9 498.61 1085.4 505.466L1080.13 506.781C1079.11 502.136 1073.72 499.282 1068.8 499.282C1064.4 499.282 1058.87 501.387 1058.87 506.033C1058.87 510.804 1062.92 511.853 1067.24 512.784L1074.19 514.344C1077.23 514.959 1080.26 515.764 1082.62 517.611C1085.52 519.787 1086.94 522.697 1086.94 526.041C1086.94 529.882 1085.12 533.338 1081.75 535.702C1078.38 538.053 1073.85 538.801 1069.67 538.801C1060.22 538.801 1054.01 534.961 1050.89 526.72L1056.11 525.649ZM1141.75 538.165H1136.22L1120.55 495.679H1126.63L1139.52 530.728L1152.34 495.679H1157.41L1141.75 538.165ZM1198.25 538.165H1168.27V495.679H1197.57V500.275H1174.08V513.77H1192.7V518.038H1174.08V533.568H1198.25V538.165ZM1243.54 516.736H1226.06V521.207H1237.59V523.557C1237.59 529.994 1233.13 534.45 1225.98 534.45C1223.81 534.456 1221.67 533.901 1219.78 532.838C1217.89 531.775 1216.3 530.241 1215.18 528.385C1213.29 525.103 1212.54 520.773 1212.54 517.114C1212.54 509.314 1215.45 499.541 1225.92 499.541C1231.99 499.541 1236.44 503.185 1237.59 508.502L1243.05 507.271C1240.89 499.659 1235.15 495.07 1226.31 495.07C1212.62 495.07 1206.27 506.222 1206.27 517.359C1206.27 522.753 1207.62 527.839 1211.13 532.225C1214.85 536.745 1219.37 538.794 1225.57 538.794C1230.63 538.794 1235.49 537.115 1238.39 533.205L1239.95 538.48H1243.53V516.736H1243.54ZM1283.95 538.165L1279.29 525.775H1262.16L1258.04 538.165H1253.18L1268.17 495.686H1274.86L1289.9 538.165H1283.95ZM1270.93 501.38L1263.77 521.752H1278.02L1270.93 501.38ZM1303.12 525.649C1305.01 531.54 1310.35 534.254 1316.82 534.254C1319.59 534.254 1322.97 533.708 1325.12 532.148C1325.98 531.526 1326.69 530.71 1327.18 529.766C1327.68 528.823 1327.94 527.777 1327.96 526.712C1327.96 522.438 1324.12 520.703 1320.06 519.773L1312.37 518.038C1309.27 517.352 1306.42 516.687 1303.99 514.638C1302.82 513.688 1301.88 512.491 1301.23 511.133C1300.57 509.774 1300.23 508.288 1300.22 506.781C1300.22 498.61 1307.92 495.07 1315.94 495.07C1323.71 495.07 1329.91 498.61 1332.41 505.466L1327.15 506.781C1326.14 502.136 1320.74 499.282 1315.81 499.282C1311.42 499.282 1305.89 501.387 1305.89 506.033C1305.89 510.804 1309.93 511.853 1314.25 512.784L1321.2 514.344C1324.24 514.959 1327.28 515.764 1329.63 517.611C1332.54 519.787 1333.95 522.697 1333.95 526.041C1333.95 529.882 1332.13 533.338 1328.76 535.702C1325.39 538.053 1320.86 538.801 1316.68 538.801C1307.23 538.801 1301.02 534.961 1297.91 526.72L1303.12 525.649Z" fill="white"/>
<path fill-rule="evenodd" clip-rule="evenodd" d="M1250.8 117.007V123.45C1325.75 135.406 1317.78 151.818 1274.69 253.72L1216.06 394.854L1135.73 201.615C1123.77 171.218 1100.9 131.425 1170.46 123.45V117.007H1003.29V123.45C1048.11 129.431 1069.07 161.27 1083.62 197.277L1198.69 477.357H1205.21L1298.58 240.701C1329.23 167.741 1343.65 128.438 1389.77 123.45V117.007H1250.8Z" fill="#CE364F"/>
</svg>
