<?xml version="1.0" encoding="UTF-8" standalone="no"?>
<svg
   version="1.2"
   viewBox="-110 -110 204.13771 204.2"
   id="svg235"
   sodipodi:docname="used-by-uoc.svg"
   width="204.13771"
   height="204.2"
   inkscape:version="1.3 (0e150ed6c4, 2023-07-21)"
   xmlns:inkscape="http://www.inkscape.org/namespaces/inkscape"
   xmlns:sodipodi="http://sodipodi.sourceforge.net/DTD/sodipodi-0.dtd"
   xmlns="http://www.w3.org/2000/svg"
   xmlns:svg="http://www.w3.org/2000/svg">
  <defs
     id="defs235" />
  <sodipodi:namedview
     id="namedview235"
     pagecolor="#ffffff"
     bordercolor="#666666"
     borderopacity="1.0"
     inkscape:showpageshadow="2"
     inkscape:pageopacity="0.0"
     inkscape:pagecheckerboard="0"
     inkscape:deskcolor="#d1d1d1"
     inkscape:zoom="8.3227273"
     inkscape:cx="102.00983"
     inkscape:cy="102.06991"
     inkscape:window-width="3840"
     inkscape:window-height="2066"
     inkscape:window-x="-11"
     inkscape:window-y="-11"
     inkscape:window-maximized="1"
     inkscape:current-layer="svg235" />
  <!-- - - - - - - - - - - - - - - - - - - - - - - - - - - - - - - //-->
  <!--                                                             //-->
  <!--   THIS FILE HAS BEEN MANUALLY CREATED WITH A TEXT EDITOR.   //-->
  <!--                                                             //-->
  <!--   (EXCEPT SOME DATA FOR THE OUTSIDE RIBBON WHICH HAS         //-->
  <!--   BEEN CALCULATED WITH A VECTOR GRAPHICS PROGRAM)           //-->
  <!--                                                             //-->
  <!-- - - - - - - - - - - - - - - - - - - - - - - - - - - - - - - //-->
  <!--                                                             //-->
  <!--   THIS FILE ALSO CONTAINS LOTS OF TEXT COMMENTS TO MAKE IT  //-->
  <!--   EASIER TO MANUALLY MODIFY IT.                             //-->
  <!--                                                             //-->
  <!-- - - - - - - - - - - - - - - - - - - - - - - - - - - - - - - //-->
  <!-- - - - - - - - - - - - - - - - - - - - - - - - - - - - - - - //-->
  <!-- WHITE BACKGROUND BEHIND SEAL:                               //-->
  <!-- - - - - - - - - - - - - - - - - - - - - - - - - - - - - - - //-->
  <circle
     r="100"
     fill="#ffffff"
     id="circle1"
     cx="-7.9311442"
     cy="-7.9000001" />
  <!-- - - - - - - - - - - - - - - - - - - - - - - - - - - - - - - //-->
  <!-- DOTS FOR THE LARGE OUTSIDE CIRCLE:                          //-->
  <!-- - - - - - - - - - - - - - - - - - - - - - - - - - - - - - - //-->
  <circle
     r="2.0999999"
     cy="92.099998"
     fill="#18a3ac"
     id="circle2"
     cx="-7.9311442" />
  <circle
     r="2.0999999"
     cy="92.505569"
     fill="#18a3ac"
     transform="rotate(2.86)"
     id="circle3"
     cx="-8.3154411" />
  <circle
     r="2.0999999"
     cy="92.928291"
     fill="#18a3ac"
     transform="rotate(5.71)"
     id="circle4"
     cx="-8.6777897" />
  <circle
     r="2.0999999"
     cy="93.370087"
     fill="#18a3ac"
     transform="rotate(8.57)"
     id="circle5"
     cx="-9.0198288" />
  <circle
     r="2.0999999"
     cy="93.828392"
     fill="#18a3ac"
     transform="rotate(11.43)"
     id="circle6"
     cx="-9.3393974" />
  <circle
     r="2.0999999"
     cy="94.302078"
     fill="#18a3ac"
     transform="rotate(14.29)"
     id="circle7"
     cx="-9.6357012" />
  <circle
     r="2.0999999"
     cy="94.788223"
     fill="#18a3ac"
     transform="rotate(17.14)"
     id="circle8"
     cx="-9.9070921" />
  <circle
     r="2.0999999"
     cy="95.28904"
     fill="#18a3ac"
     transform="rotate(20)"
     id="circle9"
     cx="-10.154797" />
  <circle
     r="2.0999999"
     cy="95.80159"
     fill="#18a3ac"
     transform="rotate(22.86)"
     id="circle10"
     cx="-10.377205" />
  <circle
     r="2.0999999"
     cy="96.322746"
     fill="#18a3ac"
     transform="rotate(25.71)"
     id="circle11"
     cx="-10.57312" />
  <circle
     r="2.0999999"
     cy="96.854881"
     fill="#18a3ac"
     transform="rotate(28.57)"
     id="circle12"
     cx="-10.74343" />
  <circle
     r="2.0999999"
     cy="97.394852"
     fill="#18a3ac"
     transform="rotate(31.43)"
     id="circle13"
     cx="-10.886976" />
  <circle
     r="2.0999999"
     cy="97.941307"
     fill="#18a3ac"
     transform="rotate(34.29)"
     id="circle14"
     cx="-11.003402" />
  <circle
     r="2.0999999"
     cy="98.490959"
     fill="#18a3ac"
     transform="rotate(37.14)"
     id="circle15"
     cx="-11.092153" />
  <circle
     r="2.0999999"
     cy="99.046288"
     fill="#18a3ac"
     transform="rotate(40)"
     id="circle16"
     cx="-11.153631" />
  <circle
     r="2.0999999"
     cy="99.603996"
     fill="#18a3ac"
     transform="rotate(42.86)"
     id="circle17"
     cx="-11.187325" />
  <circle
     r="2.0999999"
     cy="100.16074"
     fill="#18a3ac"
     transform="rotate(45.71)"
     id="circle18"
     cx="-11.193177" />
  <circle
     r="2.0999999"
     cy="100.71902"
     fill="#18a3ac"
     transform="rotate(48.57)"
     id="circle19"
     cx="-11.171215" />
  <circle
     r="2.0999999"
     cy="101.27553"
     fill="#18a3ac"
     transform="rotate(51.43)"
     id="circle20"
     cx="-11.121425" />
  <circle
     r="2.0999999"
     cy="101.82885"
     fill="#18a3ac"
     transform="rotate(54.29)"
     id="circle21"
     cx="-11.043929" />
  <circle
     r="2.0999999"
     cy="102.3757"
     fill="#18a3ac"
     transform="rotate(57.14)"
     id="circle22"
     cx="-10.939336" />
  <circle
     r="2.0999999"
     cy="102.91857"
     fill="#18a3ac"
     transform="rotate(60)"
     id="circle23"
     cx="-10.807173" />
  <circle
     r="2.0999999"
     cy="103.45417"
     fill="#18a3ac"
     transform="rotate(62.86)"
     id="circle24"
     cx="-10.648088" />
  <circle
     r="2.0999999"
     cy="103.97933"
     fill="#18a3ac"
     transform="rotate(65.71)"
     id="circle25"
     cx="-10.463171" />
  <circle
     r="2.0999999"
     cy="104.49644"
     fill="#18a3ac"
     transform="rotate(68.57)"
     id="circle26"
     cx="-10.251587" />
  <circle
     r="2.0999999"
     cy="105.00235"
     fill="#18a3ac"
     transform="rotate(71.43)"
     id="circle27"
     cx="-10.014465" />
  <circle
     r="2.0999999"
     cy="105.4958"
     fill="#18a3ac"
     transform="rotate(74.29)"
     id="circle28"
     cx="-9.7523956" />
  <circle
     r="2.0999999"
     cy="105.97391"
     fill="#18a3ac"
     transform="rotate(77.14)"
     id="circle29"
     cx="-9.4670744" />
  <circle
     r="2.0999999"
     cy="106.43884"
     fill="#18a3ac"
     transform="rotate(80)"
     id="circle30"
     cx="-9.1572104" />
  <circle
     r="2.0999999"
     cy="106.88772"
     fill="#18a3ac"
     transform="rotate(82.86)"
     id="circle31"
     cx="-8.8245344" />
  <circle
     r="2.0999999"
     cy="107.31796"
     fill="#18a3ac"
     transform="rotate(85.71)"
     id="circle32"
     cx="-8.4711523" />
  <circle
     r="2.0999999"
     cy="107.73152"
     fill="#18a3ac"
     transform="rotate(88.57)"
     id="circle33"
     cx="-8.0954666" />
  <circle
     r="2.0999999"
     cy="108.12582"
     fill="#18a3ac"
     transform="rotate(91.43)"
     id="circle34"
     cx="-7.6996131" />
  <circle
     r="2.0999999"
     cy="108.49988"
     fill="#18a3ac"
     transform="rotate(94.29)"
     id="circle35"
     cx="-7.2845793" />
  <circle
     r="2.0999999"
     cy="108.85156"
     fill="#18a3ac"
     transform="rotate(97.14)"
     id="circle36"
     cx="-6.8529434" />
  <circle
     r="2.0999999"
     cy="109.18247"
     fill="#18a3ac"
     transform="rotate(100)"
     id="circle37"
     cx="-6.4027524" />
  <circle
     r="2.0999999"
     cy="109.4905"
     fill="#18a3ac"
     transform="rotate(102.86)"
     id="circle38"
     cx="-5.9366117" />
  <circle
     r="2.0999999"
     cy="109.77394"
     fill="#18a3ac"
     transform="rotate(105.71)"
     id="circle39"
     cx="-5.4573879" />
  <circle
     r="2.0999999"
     cy="110.03407"
     fill="#18a3ac"
     transform="rotate(108.57)"
     id="circle40"
     cx="-4.9629126" />
  <circle
     r="2.0999999"
     cy="110.2692"
     fill="#18a3ac"
     transform="rotate(111.43)"
     id="circle41"
     cx="-4.4560742" />
  <circle
     r="2.0999999"
     cy="110.47874"
     fill="#18a3ac"
     transform="rotate(114.29)"
     id="circle42"
     cx="-3.9381351" />
  <circle
     r="2.0999999"
     cy="110.6616"
     fill="#18a3ac"
     transform="rotate(117.14)"
     id="circle43"
     cx="-3.4122465" />
  <circle
     r="2.0999999"
     cy="110.81857"
     fill="#18a3ac"
     transform="rotate(120)"
     id="circle44"
     cx="-2.8760288" />
  <circle
     r="2.0999999"
     cy="110.9486"
     fill="#18a3ac"
     transform="rotate(122.86)"
     id="circle45"
     cx="-2.3326464" />
  <circle
     r="2.0999999"
     cy="111.05104"
     fill="#18a3ac"
     transform="rotate(125.71)"
     id="circle46"
     cx="-1.7853818" />
  <circle
     r="2.0999999"
     cy="111.12636"
     fill="#18a3ac"
     transform="rotate(128.57)"
     id="circle47"
     cx="-1.2317587" />
  <circle
     r="2.0999999"
     cy="111.17396"
     fill="#18a3ac"
     transform="rotate(131.43)"
     id="circle48"
     cx="-0.67506725" />
  <circle
     r="2.0999999"
     cy="111.19373"
     fill="#18a3ac"
     transform="rotate(134.29)"
     id="circle49"
     cx="-0.11669408" />
  <circle
     r="2.0999999"
     cy="111.18568"
     fill="#18a3ac"
     transform="rotate(137.14)"
     id="circle50"
     cx="0.44001752" />
  <circle
     r="2.0999999"
     cy="111.1498"
     fill="#18a3ac"
     transform="rotate(140)"
     id="circle51"
     cx="0.99758667" />
  <circle
     r="2.0999999"
     cy="111.08613"
     fill="#18a3ac"
     transform="rotate(142.86)"
     id="circle52"
     cx="1.5526707" />
  <circle
     r="2.0999999"
     cy="110.99522"
     fill="#18a3ac"
     transform="rotate(145.71)"
     id="circle53"
     cx="2.1019678" />
  <circle
     r="2.0999999"
     cy="110.87664"
     fill="#18a3ac"
     transform="rotate(148.57)"
     id="circle54"
     cx="2.6479635" />
  <circle
     r="2.0999999"
     cy="110.73097"
     fill="#18a3ac"
     transform="rotate(151.43)"
     id="circle55"
     cx="3.1873629" />
  <circle
     r="2.0999999"
     cy="110.55857"
     fill="#18a3ac"
     transform="rotate(154.29)"
     id="circle56"
     cx="3.718822" />
  <circle
     r="2.0999999"
     cy="110.3606"
     fill="#18a3ac"
     transform="rotate(157.14)"
     id="circle57"
     cx="4.2392092" />
  <circle
     r="2.0999999"
     cy="110.13618"
     fill="#18a3ac"
     transform="rotate(160)"
     id="circle58"
     cx="4.7508783" />
  <circle
     r="2.0999999"
     cy="109.88651"
     fill="#18a3ac"
     transform="rotate(162.86)"
     id="circle59"
     cx="5.2507129" />
  <circle
     r="2.0999999"
     cy="109.6132"
     fill="#18a3ac"
     transform="rotate(165.71)"
     id="circle60"
     cx="5.7357893" />
  <circle
     r="2.0999999"
     cy="109.31504"
     fill="#18a3ac"
     transform="rotate(168.57)"
     id="circle61"
     cx="6.2083025" />
  <circle
     r="2.0999999"
     cy="108.99368"
     fill="#18a3ac"
     transform="rotate(171.43)"
     id="circle62"
     cx="6.66535" />
  <circle
     r="2.0999999"
     cy="108.6499"
     fill="#18a3ac"
     transform="rotate(174.29)"
     id="circle63"
     cx="7.1057935" />
  <circle
     r="2.0999999"
     cy="108.28589"
     fill="#18a3ac"
     transform="rotate(177.14)"
     id="circle64"
     cx="7.5270896" />
  <circle
     r="2.0999999"
     cy="107.9"
     fill="#18a3ac"
     transform="scale(-1)"
     id="circle65"
     cx="7.9311442" />
  <circle
     r="2.0999999"
     cy="107.49443"
     fill="#18a3ac"
     transform="rotate(-177.14)"
     id="circle66"
     cx="8.3154411" />
  <circle
     r="2.0999999"
     cy="107.07171"
     fill="#18a3ac"
     transform="rotate(-174.29)"
     id="circle67"
     cx="8.6777897" />
  <circle
     r="2.0999999"
     cy="106.62991"
     fill="#18a3ac"
     transform="rotate(-171.43)"
     id="circle68"
     cx="9.0198288" />
  <circle
     r="2.0999999"
     cy="106.17161"
     fill="#18a3ac"
     transform="rotate(-168.57)"
     id="circle69"
     cx="9.3393974" />
  <circle
     r="2.0999999"
     cy="105.69792"
     fill="#18a3ac"
     transform="rotate(-165.71)"
     id="circle70"
     cx="9.6357012" />
  <circle
     r="2.0999999"
     cy="105.21178"
     fill="#18a3ac"
     transform="rotate(-162.86)"
     id="circle71"
     cx="9.9070921" />
  <circle
     r="2.0999999"
     cy="104.71096"
     fill="#18a3ac"
     transform="rotate(-160)"
     id="circle72"
     cx="10.154797" />
  <circle
     r="2.0999999"
     cy="104.19841"
     fill="#18a3ac"
     transform="rotate(-157.14)"
     id="circle73"
     cx="10.377205" />
  <circle
     r="2.0999999"
     cy="103.67725"
     fill="#18a3ac"
     transform="rotate(-154.29)"
     id="circle74"
     cx="10.57312" />
  <circle
     r="2.0999999"
     cy="103.14512"
     fill="#18a3ac"
     transform="rotate(-151.43)"
     id="circle75"
     cx="10.74343" />
  <circle
     r="2.0999999"
     cy="102.60515"
     fill="#18a3ac"
     transform="rotate(-148.57)"
     id="circle76"
     cx="10.886976" />
  <circle
     r="2.0999999"
     cy="102.05869"
     fill="#18a3ac"
     transform="rotate(-145.71)"
     id="circle77"
     cx="11.003402" />
  <circle
     r="2.0999999"
     cy="101.50904"
     fill="#18a3ac"
     transform="rotate(-142.86)"
     id="circle78"
     cx="11.092153" />
  <circle
     r="2.0999999"
     cy="100.95371"
     fill="#18a3ac"
     transform="rotate(-140)"
     id="circle79"
     cx="11.153631" />
  <circle
     r="2.0999999"
     cy="100.396"
     fill="#18a3ac"
     transform="rotate(-137.14)"
     id="circle80"
     cx="11.187325" />
  <circle
     r="2.0999999"
     cy="99.839264"
     fill="#18a3ac"
     transform="rotate(-134.29)"
     id="circle81"
     cx="11.193177" />
  <circle
     r="2.0999999"
     cy="99.280975"
     fill="#18a3ac"
     transform="rotate(-131.43)"
     id="circle82"
     cx="11.171215" />
  <circle
     r="2.0999999"
     cy="98.724472"
     fill="#18a3ac"
     transform="rotate(-128.57)"
     id="circle83"
     cx="11.121425" />
  <circle
     r="2.0999999"
     cy="98.17115"
     fill="#18a3ac"
     transform="rotate(-125.71)"
     id="circle84"
     cx="11.043929" />
  <circle
     r="2.0999999"
     cy="97.624298"
     fill="#18a3ac"
     transform="rotate(-122.86)"
     id="circle85"
     cx="10.939336" />
  <circle
     r="2.0999999"
     cy="97.081429"
     fill="#18a3ac"
     transform="rotate(-120)"
     id="circle86"
     cx="10.807173" />
  <circle
     r="2.0999999"
     cy="96.54583"
     fill="#18a3ac"
     transform="rotate(-117.14)"
     id="circle87"
     cx="10.648088" />
  <circle
     r="2.0999999"
     cy="96.020668"
     fill="#18a3ac"
     transform="rotate(-114.29)"
     id="circle88"
     cx="10.463171" />
  <circle
     r="2.0999999"
     cy="95.503555"
     fill="#18a3ac"
     transform="rotate(-111.43)"
     id="circle89"
     cx="10.251587" />
  <circle
     r="2.0999999"
     cy="94.99765"
     fill="#18a3ac"
     transform="rotate(-108.57)"
     id="circle90"
     cx="10.014465" />
  <circle
     r="2.0999999"
     cy="94.504196"
     fill="#18a3ac"
     transform="rotate(-105.71)"
     id="circle91"
     cx="9.7523956" />
  <circle
     r="2.0999999"
     cy="94.026093"
     fill="#18a3ac"
     transform="rotate(-102.86)"
     id="circle92"
     cx="9.4670744" />
  <circle
     r="2.0999999"
     cy="93.561165"
     fill="#18a3ac"
     transform="rotate(-100)"
     id="circle93"
     cx="9.1572104" />
  <circle
     r="2.0999999"
     cy="93.112282"
     fill="#18a3ac"
     transform="rotate(-97.14)"
     id="circle94"
     cx="8.8245344" />
  <circle
     r="2.0999999"
     cy="92.682037"
     fill="#18a3ac"
     transform="rotate(-94.29)"
     id="circle95"
     cx="8.4711523" />
  <circle
     r="2.0999999"
     cy="92.268478"
     fill="#18a3ac"
     transform="rotate(-91.43)"
     id="circle96"
     cx="8.0954666" />
  <circle
     r="2.0999999"
     cy="91.874176"
     fill="#18a3ac"
     transform="rotate(-88.57)"
     id="circle97"
     cx="7.6996131" />
  <circle
     r="2.0999999"
     cy="91.500122"
     fill="#18a3ac"
     transform="rotate(-85.71)"
     id="circle98"
     cx="7.2845793" />
  <circle
     r="2.0999999"
     cy="91.148438"
     fill="#18a3ac"
     transform="rotate(-82.86)"
     id="circle99"
     cx="6.8529434" />
  <circle
     r="2.0999999"
     cy="90.817528"
     fill="#18a3ac"
     transform="rotate(-80)"
     id="circle100"
     cx="6.4027524" />
  <circle
     r="2.0999999"
     cy="90.509499"
     fill="#18a3ac"
     transform="rotate(-77.14)"
     id="circle101"
     cx="5.9366117" />
  <circle
     r="2.0999999"
     cy="90.226059"
     fill="#18a3ac"
     transform="rotate(-74.29)"
     id="circle102"
     cx="5.4573879" />
  <circle
     r="2.0999999"
     cy="89.965927"
     fill="#18a3ac"
     transform="rotate(-71.43)"
     id="circle103"
     cx="4.9629126" />
  <circle
     r="2.0999999"
     cy="89.730804"
     fill="#18a3ac"
     transform="rotate(-68.57)"
     id="circle104"
     cx="4.4560742" />
  <circle
     r="2.0999999"
     cy="89.521255"
     fill="#18a3ac"
     transform="rotate(-65.71)"
     id="circle105"
     cx="3.9381351" />
  <circle
     r="2.0999999"
     cy="89.338402"
     fill="#18a3ac"
     transform="rotate(-62.86)"
     id="circle106"
     cx="3.4122465" />
  <circle
     r="2.0999999"
     cy="89.181427"
     fill="#18a3ac"
     transform="rotate(-60)"
     id="circle107"
     cx="2.8760288" />
  <circle
     r="2.0999999"
     cy="89.051399"
     fill="#18a3ac"
     transform="rotate(-57.14)"
     id="circle108"
     cx="2.3326464" />
  <circle
     r="2.0999999"
     cy="88.948959"
     fill="#18a3ac"
     transform="rotate(-54.29)"
     id="circle109"
     cx="1.7853818" />
  <circle
     r="2.0999999"
     cy="88.873642"
     fill="#18a3ac"
     transform="rotate(-51.43)"
     id="circle110"
     cx="1.2317587" />
  <circle
     r="2.0999999"
     cy="88.826042"
     fill="#18a3ac"
     transform="rotate(-48.57)"
     id="circle111"
     cx="0.67506725" />
  <circle
     r="2.0999999"
     cy="88.806274"
     fill="#18a3ac"
     transform="rotate(-45.71)"
     id="circle112"
     cx="0.11669408" />
  <circle
     r="2.0999999"
     cy="88.814323"
     fill="#18a3ac"
     transform="rotate(-42.86)"
     id="circle113"
     cx="-0.44001752" />
  <circle
     r="2.0999999"
     cy="88.850204"
     fill="#18a3ac"
     transform="rotate(-40)"
     id="circle114"
     cx="-0.99758667" />
  <circle
     r="2.0999999"
     cy="88.913872"
     fill="#18a3ac"
     transform="rotate(-37.14)"
     id="circle115"
     cx="-1.5526707" />
  <circle
     r="2.0999999"
     cy="89.004784"
     fill="#18a3ac"
     transform="rotate(-34.29)"
     id="circle116"
     cx="-2.1019678" />
  <circle
     r="2.0999999"
     cy="89.12336"
     fill="#18a3ac"
     transform="rotate(-31.43)"
     id="circle117"
     cx="-2.6479635" />
  <circle
     r="2.0999999"
     cy="89.269028"
     fill="#18a3ac"
     transform="rotate(-28.57)"
     id="circle118"
     cx="-3.1873629" />
  <circle
     r="2.0999999"
     cy="89.441429"
     fill="#18a3ac"
     transform="rotate(-25.71)"
     id="circle119"
     cx="-3.718822" />
  <circle
     r="2.0999999"
     cy="89.639397"
     fill="#18a3ac"
     transform="rotate(-22.86)"
     id="circle120"
     cx="-4.2392092" />
  <circle
     r="2.0999999"
     cy="89.863815"
     fill="#18a3ac"
     transform="rotate(-20)"
     id="circle121"
     cx="-4.7508783" />
  <circle
     r="2.0999999"
     cy="90.113487"
     fill="#18a3ac"
     transform="rotate(-17.14)"
     id="circle122"
     cx="-5.2507129" />
  <circle
     r="2.0999999"
     cy="90.386795"
     fill="#18a3ac"
     transform="rotate(-14.29)"
     id="circle123"
     cx="-5.7357893" />
  <circle
     r="2.0999999"
     cy="90.684959"
     fill="#18a3ac"
     transform="rotate(-11.43)"
     id="circle124"
     cx="-6.2083025" />
  <circle
     r="2.0999999"
     cy="91.006325"
     fill="#18a3ac"
     transform="rotate(-8.57)"
     id="circle125"
     cx="-6.66535" />
  <circle
     r="2.0999999"
     cy="91.350098"
     fill="#18a3ac"
     transform="rotate(-5.71)"
     id="circle126"
     cx="-7.1057935" />
  <circle
     r="2.0999999"
     cy="91.714111"
     fill="#18a3ac"
     transform="rotate(-2.86)"
     id="circle127"
     cx="-7.5270896" />
  <!-- - - - - - - - - - - - - - - - - - - - - - - - - - - - - - - //-->
  <!-- LIGHT-RAYS COMING FROM THE STAR:                            //-->
  <!-- - - - - - - - - - - - - - - - - - - - - - - - - - - - - - - //-->
  <!-- 1st light-ray from left side: //-->
  <path
     d="m -22.931144,-70.9 -17,0.5"
     stroke="#18a3ac"
     stroke-width="1"
     id="path127" />
  <!-- 2nd light-ray from left side: //-->
  <path
     d="m -20.931144,-68.9 -37,11"
     stroke="#18a3ac"
     stroke-width="1"
     id="path128" />
  <!-- 3rd light-ray from left side: //-->
  <path
     d="m -18.931144,-66.9 -53,36"
     stroke="#18a3ac"
     stroke-width="1"
     id="path129" />
  <!-- 4th light-ray from left side: //-->
  <path
     d="m -17.931144,-63.9 -60,54.4999999"
     stroke="#18a3ac"
     stroke-width="1"
     id="path130" />
  <!-- 5th light-ray from left side: //-->
  <path
     d="m -17.931144,-59.4 -57,64.4999999"
     stroke="#18a3ac"
     stroke-width="1"
     id="path131" />
  <!-- 6th light-ray from left side: //-->
  <path
     d="m -15.931144,-56.9 -54.5,79"
     stroke="#18a3ac"
     stroke-width="1"
     id="path132" />
  <!-- 7 th light-ray from left side //-->
  <path
     d="m -14.931144,-52.9 -39,100"
     stroke="#18a3ac"
     stroke-width="1"
     id="path133" />
  <!-- 8th light-ray from left side: //-->
  <path
     d="m -11.431144,-56.9 -31.5,111"
     stroke="#18a3ac"
     stroke-width="1"
     id="path134" />
  <!-- 9th light-ray from left side: //-->
  <path
     d="M -8.9311441,-58.4 -30.931144,52.1"
     stroke="#18a3ac"
     stroke-width="1"
     id="path135" />
  <!-- 10th light-ray from left side: //-->
  <path
     d="m -16.931144,47.1 -2,15.5"
     stroke="#18a3ac"
     stroke-width="1"
     id="path136" />
  <!-- 1st light-ray from right side: //-->
  <path
     d="m 5.5688559,-68.9 18.5000001,1.5"
     stroke="#18a3ac"
     stroke-width="1"
     id="path137" />
  <!-- 2nd light-ray from right side: //-->
  <path
     d="m 4.0688559,-66.9 42.0000001,17"
     stroke="#18a3ac"
     stroke-width="1"
     id="path138" />
  <!-- 3nd light-ray from right side: //-->
  <path
     d="m 4.0688559,-63.9 54.0000001,33"
     stroke="#18a3ac"
     stroke-width="1"
     id="path139" />
  <!-- 4th light-ray from right side: //-->
  <path
     d="m 4.0688559,-60.9 57.0000001,47"
     stroke="#18a3ac"
     stroke-width="1"
     id="path140" />
  <!-- 5th light-ray from right side: //-->
  <path
     d="M 2.0688559,-57.9 60.068856,6.0999999"
     stroke="#18a3ac"
     stroke-width="1"
     id="path141" />
  <!-- 6th light-ray from right side: //-->
  <path
     d="m 6.0688559,-47.9 51.0000001,67"
     stroke="#18a3ac"
     stroke-width="1"
     id="path142" />
  <!-- 7th light-ray from right side: //-->
  <path
     d="m 16.068856,-27.9 34,59"
     stroke="#18a3ac"
     stroke-width="1"
     id="path143" />
  <!-- 8 light-ray from right side: //-->
  <path
     d="M -1.9311441,-57.9 39.068856,45.1"
     stroke="#18a3ac"
     stroke-width="1"
     id="path144" />
  <!-- 9th light-ray from right side: //-->
  <path
     d="M -6.4311441,-58.4 23.568856,50.6"
     stroke="#18a3ac"
     stroke-width="1"
     id="path145" />
  <!-- 10th light-ray from right side: //-->
  <path
     d="m 7.5688559,47.1 0.5,12.5"
     stroke="#18a3ac"
     stroke-width="1"
     id="path146" />
  <!-- 11th light-ray from right side: //-->
  <path
     d="m -5.9311441,47.1 0.5,16"
     stroke="#18a3ac"
     stroke-width="1"
     id="path147" />
  <!-- - - - - - - - - - - - - - - - - - - - - - - - - - - - - - - //-->
  <!-- RIBBON BEHIND BOOK ON THE LEFT SIDE:                        //-->
  <!-- - - - - - - - - - - - - - - - - - - - - - - - - - - - - - - //-->
  <path
     d="m -59.931144,20.1 c -3,3 -5.5,4 -5.5,9 0,5 5.5,5 6.5,5 1,0 5,-1 5,4.5 0,5.5 8,7 8,12.5 0.5,3 1,-5 -1,-7 1,-1 0.5,-1 1.5,-3 1,1 8,7 9,7 3,0 1.5,-6.5 -2,-3 -1.5,-1.5 -1.5,-4.5 -3.5,-4.5 -2,0 -2,-2 -2,-4 0,-2 0,-8.5 -14,-8.5 -3,0 -3,0 -3,-2 0,-2 1,-4 1,-5 z"
     stroke="#18a3ac"
     stroke-width="1"
     fill="#ffffff"
     id="path148" />
  <!-- - - - - - - - - - - - - - - - - - - - - - - - - - - - - - - //-->
  <!-- THE BOOK IN THE CENTER OF THE SEAL:                         //-->
  <!-- - - - - - - - - - - - - - - - - - - - - - - - - - - - - - - //-->
  <!-- outside line of book: //-->
  <path
     d="m -55.431144,-53.4 h 41.5 c 3,0 4.9999999,4 5.9999999,5 1,-1 3,-5 6,-5 H 39.568856 v 89 H -3.9311441 c 0,2 -7.9999999,2 -7.9999999,0 h -43.5 z"
     stroke="#18a3ac"
     stroke-width="1"
     fill="#ffffff"
     id="path149" />
  <!-- 1st (inner most) pair (left and right) of pages: //-->
  <path
     d="m -43.431144,-53.4 v 82 h 29.5 c 3,0 4.9999999,4 5.9999999,5 1,-1 3,-5 6,-5 H 27.568856 v -82"
     stroke="#18a3ac"
     stroke-width="1"
     fill="none"
     id="path150" />
  <!-- 2nd pair of pages: //-->
  <path
     d="m -46.431144,-53.4 v 83.75 h 32.5 c 3,0 4.9999999,4 5.9999999,5 1,-1 3,-5 6,-5 H 30.568856 V -53.4"
     stroke="#18a3ac"
     stroke-width="1"
     fill="none"
     id="path151" />
  <!-- 3rd pair of pages: //-->
  <path
     d="m -49.431144,-53.4 v 85.5 h 35.5 c 3,0 4.9999999,2.5 5.9999999,3.5 1,-1 3,-3.5 6,-3.5 H 33.568856 v -85.5"
     stroke="#18a3ac"
     stroke-width="1"
     fill="none"
     id="path152" />
  <!-- 4th pair of pages: //-->
  <path
     d="m -52.431144,-53.4 v 87.25 h 38.5 c 3,0 4.9999999,0.75 5.9999999,1.75 1,-1 3,-1.75 6,-1.75 H 36.568856 V -53.4"
     stroke="#18a3ac"
     stroke-width="1"
     fill="none"
     id="path153" />
  <!-- dark line in middle of book: //-->
  <path
     d="m -7.9311441,-48.4 v 82"
     stroke="#18a3ac"
     stroke-width="1"
     id="path154" />
  <!-- hole between pages and back at bottom of book: //-->
  <path
     d="m -11.931144,35.6 c 0,-6 7.9999999,-6 7.9999999,0 0,2 -7.9999999,2 -7.9999999,0 z"
     stroke="#18a3ac"
     stroke-width="1"
     fill="#ffffff"
     id="path155" />
  <!-- text in book: //-->
  <path
     d="m -1.9311441,-49.25 h 3 m 3,0 h 2 m 1,0 h 3.0000001 m 3,0 h 7 m 1,0 h 4 m -27.0000001,3.2 h 1.00000001 m 1,0 H 13.068856 m 3,0 h 9 m -27.0000001,3.2 h 4 m 1,0 h 3 m 3,0 h 7.0000001 m 1,0 h 4 m 1,0 h 3 m -27.0000001,3.2 H 25.068856 m -27.0000001,3.2 h 1.00000001 m 1,0 H 9.0688559 m 1.0000001,0 h 5 m 1,0 h 9 m -27.0000001,3.2 h 5 m 1,0 h 7.0000001 m 1,0 h 7 m 3,0 h 3 m -27.0000001,3.2 h 1.00000001 m 2.99999999,0 h 5 m 1,0 h 3.0000001 m 3,0 h 7 m 1,0 h 3 m -27.0000001,3.2 h 4 m 3,0 h 6.0000001 m 1,0 h 4 m 3,0 h 6 m -27.0000001,3.2 h 1.00000001 m 1,0 H 9.0688559 m 1.0000001,0 h 5 m 1,0 h 9 m -27.0000001,3.2 h 2.00000001 m 0.99999999,0 h 3 m 3,0 h 1 m 1,0 h 3.0000001 m 3,0 h 1 m 1,0 h 3 m 3,0 h 2 m -27.0000001,3.2 h 2.00000001 m 0.99999999,0 h 5 m 1,0 h 3.0000001 m 3,0 h 6 m 1,0 h 5 m -27.0000001,3.2 h 10 m 1,0 H 25.068856 m -27.0000001,3.2 h 2.00000001 m 0.99999999,0 H 13.068856 m 3,0 h 9 m -27.0000001,3.1999999 h 4 m 1,0 h 5 m 3.0000001,0 h 7 m 1,0 h 6 m -27.0000001,3.2 H 25.068856 m -27.0000001,3.2 h 9 m 3.0000001,0 h 15 m -27.0000001,3.2 h 3 m 1,0 h 2 m 1,0 h 6.0000001 m 1,0 h 4 m 1,0 h 8 m -27.0000001,3.2 h 10 m 1,0 H 25.068856 m -27.0000001,3.2 H 25.068856 M -1.9311441,11.55 h 9 m 3.0000001,0 h 15 m -27.0000001,3.2 h 1.50000001 m 1,0 H 19.768856 m 3,0 h 0.6 m 1,0 h 0.7 m -27.0000001,3.2 h 0.5 m 1.00000001,0 H 25.068856 m -27.0000001,3.2 h 1.20000001 m 1,0 H 25.068856 m -27.0000001,3.2 H 25.068856 m -27.0000001,3.2 m -38.9999999,-76.8 h 3 m 3,0 h 4 m 1,0 h 5 m 1,0 h 5 m 1,0 h 4 m -27,3.2 h 18 m 1,0 h 8 m -27,3.2 h 15 m 1,0 h 5 m 3,0 h 3 m -27,3.2 h 18 m 3,0 h 6 m -27,3.2 h 27 m -27.1,3.2 h 3 m 3,0 h 4 m 1,0 h 4 m 3,0 h 7 m 1,0 h 1 m -27,3.2 h 5 m 1,0 h 15 m 3,0 h 3 m -27,3.2 h 4 m 1,0 h 3 m 3,0 h 7 m 1,0 h 5 m 1,0 h 2 m -27,3.2 h 2 m 1,0 h 3 m 3,0 h 1.5 m 1,0 h 3 m 3,0 h 1 m 1,0 h 4 m 3,0 h 0.5 m -27,3.2 h 27 m -27,3.2 h 6 m 3,0 h 8 m 3,0 h 5 m 1,0 h 1 m -27,3.2 h 2 m 3,0 h 7 m 3,0 h 6 m 3,0 h 3 m -27,3.2 h 27 m -27,3.1999999 h 5 m 1,0 h 9 m 1,0 h 8 m 1,0 h 2 m -27,3.2 h 11 m 3,0 h 13 m -27,3.2 h 10 m 1,0 h 8 m 3,0 h 5 m -27,3.2 h 5 m 3,0 h 17 m 1,0 h 1 m -27,3.2 h 2 m 1,0 h 5 m 1,0 h 3 m 3,0 h 8 m 1,0 h 3 m -27,3.2 h 3 m 3,0 h 8 m 3,0 h 5 m 3,0 h 2 m -27,3.2000001 h 7 m 1,0 h 5 m 3,0 h 7 m 1,0 h 3 m -27,3.2 h 9 m 3,0 h 5 m 1,0 h 7 m 1,0 h 1 m -27,3.2 h 9.5 m 1,0 h 1 m 3,0 h 1 m 1,0 h 1 m 3,0 h 1 m 1,0 h 1 m 3,0 h 0.5 m -27,3.2 h 27 m -27,3.2 h 27 m -27,3.2 m 26.5,-76.8 h 0.5 c 3,0 4.9999999,4 5.9999999,5 1,-1 3,-5 6,-5 h 0.5 m -12.9999999,3.2 h 0.5 c 3,0 4.9999999,4 5.9999999,5 1,-1 3,-5 6,-5 h 0.5 m -12.9999999,3.2 h 0.5 c 3,0 4.9999999,4 5.9999999,5 1,-1 3,-5 6,-5 h 0.5 m -12.9999999,3.2 h 0.5 c 3,0 4.9999999,4 5.9999999,5 1,-1 3,-5 6,-5 h 0.5 m -12.9999999,3.2 h 0.5 c 3,0 4.9999999,4 5.9999999,5 1,-1 3,-5 6,-5 h 0.5 m -12.9999999,3.2 h 0.5 c 3,0 4.9999999,4 5.9999999,5 1,-1 3,-5 6,-5 h 0.5 m -12.9999999,3.2 h 0.5 c 3,0 4.9999999,4 5.9999999,5 1,-1 3,-5 6,-5 h 0.5 m -12.9999999,3.2 h 0.5 c 3,0 4.9999999,4 5.9999999,5 1,-1 3,-5 6,-5 h 0.5 m -12.9999999,3.2 h 0.5 c 3,0 4.9999999,4 5.9999999,5 1,-1 3,-5 6,-5 h 0.5 m -12.9999999,3.2 h 0.5 c 3,0 4.9999999,4 5.9999999,5 1,-1 3,-5 6,-5 h 0.5 m -12.9999999,3.2 h 0.5 c 3,0 4.9999999,4 5.9999999,5 1,-1 3,-5 6,-5 h 0.5 m -12.9999999,3.2 h 0.5 c 3,0 4.9999999,4 5.9999999,4.9999999 1,-0.9999999 3,-4.9999999 6,-4.9999999 h 0.5 m -12.9999999,3.2 h 0.5 c 3,0 4.9999999,3.9999999 5.9999999,4.9999999 1,-1 3,-4.9999999 6,-4.9999999 h 0.5 m -12.9999999,3.1999999 h 0.5 c 3,0 4.9999999,4 5.9999999,5 1,-1 3,-5 6,-5 h 0.5 m -12.9999999,3.2 h 0.5 c 3,0 4.9999999,4 5.9999999,5 1,-1 3,-5 6,-5 h 0.5 m -12.9999999,3.2 h 0.5 c 3,0 4.9999999,4 5.9999999,5 1,-1 3,-5 6,-5 h 0.5 m -12.9999999,3.2 h 0.5 c 3,0 4.9999999,4 5.9999999,5 1,-1 3,-5 6,-5 h 0.5 m -12.9999999,3.2 h 0.5 c 3,0 4.9999999,4 5.9999999,5.0000001 1,-1.0000001 3,-5.0000001 6,-5.0000001 h 0.5 m -12.9999999,3.2 h 0.5 c 3,0 4.9999999,4.0000001 5.9999999,5.0000001 1,-1 3,-5.0000001 6,-5.0000001 h 0.5 M -14.531144,11.55 h 0.5 c 3,0 4.9999999,4 5.9999999,5 1,-1 3,-5 6,-5 h 0.5 m -12.9999999,3.2 h 0.5 c 3,0 4.9999999,4 5.9999999,5 1,-1 3,-5 6,-5 h 0.5 m -12.9999999,3.2 h 0.5 c 3,0 4.9999999,4 5.9999999,5 1,-1 3,-5 6,-5 h 0.5 m -12.9999999,3.2 h 0.5 c 3,0 4.9999999,4 5.9999999,5 1,-1 3,-5 6,-5 h 0.5 m -12.9999999,3.2 h 0.5 c 3,0 4.9999999,4 5.9999999,5 1,-1 3,-5 6,-5 h 0.5 m -12.9999999,3.2"
     stroke="#18a3ac"
     stroke-width="1"
     fill="none"
     id="path156" />
  <!-- the letter "A" in a box on the upper left side of book: //-->
  <g
     id="g158"
     transform="translate(-7.9311441,-7.9000001)">
    <path
       d="m -32.5,-38.15 v 9.6 h 9.6 v -9.6 z"
       stroke="#ffffff"
       stroke-width="4"
       fill="#ffffff"
       id="path157" />
    <path
       d="m -32.5,-38.15 v 9.6 h 9.6 v -9.6 z m 1.5,8.5 3.3,-6.6 3.3,6.6 m -4.95,-3.3 h 3.3"
       stroke="#18a3ac"
       stroke-width="1"
       fill="none"
       id="path158" />
  </g>
  <!-- - - - - - - - - - - - - - - - - - - - - - - - - - - - - - - //-->
  <!-- INSIDE RIBBON IN FRONT OF THE BOOK:                         //-->
  <!-- - - - - - - - - - - - - - - - - - - - - - - - - - - - - - - //-->
  <!-- inside ribbon: small ribbon in front of book on right side: //-->
  <path
     d="m 13.068856,37.1 c -7.0000001,-5 -6.0000001,-12 1,-13 l -7.0000001,-2 c -15,6 -9,14.5 4.0000001,15 z"
     stroke="#18a3ac"
     stroke-width="1"
     fill="#ffffff"
     id="path159" />
  <!-- inside ribbon: in front of book on left side: //-->
  <path
     d="m -44.931144,11.1 c 5,0 7,3 10,6 3,3 3.5,2.5 7,5 3.5,2.5 4.5,6 9,12 4.5,6 12.9999999,7 14.9999999,7 2,0 8,0.5 10,-1 2,-1.5 2,-4.5 5.5000001,-4.5 3.5,0 4.5,5 4.5,7 0,2 -2,14 -22.0000001,13.5 -19.9999999,-0.5 -24.9999999,-13 -28.4999999,-18 -3.5,-5 -2,-16 -27,-16 0,-2 0.5,-3 0.5,-5 0,-2 0,-4 7,-5 7,-1 4,-1 9,-1 z"
     stroke="#18a3ac"
     stroke-width="1"
     fill="#ffffff"
     id="path160" />
  <!-- inside ribbon: big ribbon in front of book on right side: //-->
  <path
     d="m 1.5688559,20.1 c 0,2 1,3 1,4 0,1 3,0.5 4,1.5 1,1 20.0000001,6 30.0000001,6 10,0 13,-4 17.5,-14 1.1,-2.5 0,-5.5 -3,-9.0000001 -3,-3.5 -5.5,-5.5 -8,-5.5 -2.5,0 -9,2 -10,2.5 -1,0.5 -10,3 -11,-3.5 -1,-6.5 7.5,-7 10,-5 2.5,2 5.5,3 8.5,3 3,0 6,-2.5 8,-4.5 2,-2 6.5,-3 6.5,-6.4999999 0,-3.5 -2,-4 -2,-7 -1,-2 1,5.5 -3,6.5 -4,1 -3.5,1.9999999 -3.5,1.9999999 -0.5,-2.9999999 2,-7.4999999 -4.5,-9.4999999 4,-5 -5,-5 -3,0 l 2.5,3 c 0.5,1 1,1 1.5,4.5 -1.5,1 -1.5,1.4999999 -2.5,3.4999999 -1,2 -7,-0.5 -10,1 -3,1.5 -3,-3 0.5,-3.4999999 3.5,-0.5 2.5,0 3.5,-1.5 1,-1.5 -3,0 -4,-1 -1,-1 -3,0.5 -4,1 -1,0.5 -7.5,4.9999999 -7,11.9999999 0.5,7 1.5,13.5000001 10,13.0000001 8.5,-0.5 11.5,-9.0000001 16.5,-4.0000001 1.5,1.5000001 0,9.5000001 -4,9.5000001 -25,0 -20,-5 -35.0000001,-5 -6,0 -5.5,3 -5.5,5 z"
     stroke="#18a3ac"
     stroke-width="1"
     fill="#ffffff"
     id="path161" />
  <!-- inside ribbon: shadow on it in front of book on right side: //-->
  <path
     d="m 51.068856,8.5999999 -5,0.5"
     stroke="#18a3ac"
     stroke-width="1"
     id="path162" />
  <!-- - - - - - - - - - - - - - - - - - - - - - - - - - - - - - - //-->
  <!-- OUTSIDE RIBBON WHICH FORMS A CIRCLE AROUND THE BOOK:        //-->
  <!-- - - - - - - - - - - - - - - - - - - - - - - - - - - - - - - //-->
  <!-- outside ribbon: tiny pieces at bottom left side: //-->
  <path
     d="m -43.071144,60.56 c 4.31,-13.21 4.89,-11.29 7.83,-7.65 1.52,1.89 4.51,-0.38 4.42,1.67 -0.14,3.2 -2.86,4.64 -3.64,13.55 -4.87,2.56 -8.01,0.52 -8.62,-7.57 z"
     stroke="#18a3ac"
     stroke-width="1"
     fill="#ffffff"
     id="path163" />
  <!-- outside ribbon: tiny pieces at bottom right side: //-->
  <path
     d="m 25.888856,69.57 c -22.4300001,5.28 -10.21,-0.22 -10.89,-4.35 -2.43,-14.83 -0.88,-10.35 4.48,-12.64 2.8,-1.19 5.88,-2.37 6.56,-0.48 5.58,21.88 5.97,16.15 -0.16,17.47 z"
     stroke="#18a3ac"
     stroke-width="1"
     fill="#ffffff"
     id="path164" />
  <!-- outside ribbon: small piece at bottom left side: //-->
  <path
     d="m -42.171144,73.11 c -25.29,-5.73 4.13,-11.49 3.34,-14.84 -2.6,-11.03 1.35,-8.99 3.59,-6.41 1.59,1.84 4.51,0.68 4.42,2.73 -0.14,3.2 -5.24,0.63 -4.7,4.35 1.08,12.63 6.27,18.25 -6.65,14.17 z"
     stroke="#18a3ac"
     stroke-width="1"
     fill="#ffffff"
     id="path165" />
  <!-- outside ribbon: small piece at bottom right side: //-->
  <path
     d="m 27.128856,72.58 c -22.4300001,5.28 -4.47,-9.65 -10.1,-13.96 -6.35,-4.86 -2.29,-5.19 2.7,-6.41 2.95,-0.72 5.63,-2 6.31,-0.11 0.92,2.55 -2.05,1.49 -3.48,5.32 -1.02,2.72 29.49,7.13 4.56,15.16 z"
     stroke="#18a3ac"
     stroke-width="1"
     fill="#ffffff"
     id="path166" />
  <!-- outside ribbon: piece at bottom: //-->
  <path
     d="m -41.071144,73.94 c 0.03,-3.32 5.67,-9.86 5.2,-10.75 -2.94,-5.62 1.75,-3.55 7.17,-2.67 3.46,0.56 15.3,3.95 20.8399999,3.53 1.4,-0.11 5.09,0.62 9.69,-1.69 8.3300001,-4.16 8.9800001,-0.32 13.6000001,-2.78 5.21,-2.78 5.02,0.51 5.15,3.1 0.17,3.66 -0.56,0.16 0.61,4.67 0.63,2.42 4.5,3.19 3.88,7.37 -0.64,4.39 -4.15,5.1 -14.89,7.29 -9.62000009,1.96 -6.0900001,2.7 -17.3800001,2.76 -8.8099999,0.05 -5.9999999,-2.53 -23.3599999,-2.74 -7.05,-0.08 -10.56,-2.8 -10.5,-8.08 z"
     stroke="#18a3ac"
     stroke-width="1"
     fill="#ffffff"
     id="path167" />
  <!-- outside ribbon: large piece at top: //-->
  <path
     d="m 62.508856,-62.97 c 1.57,4.27 4.57,4.97 7.17,8.62 2.61,3.65 5.64,12.14 6.85,15.99 2.58,8.22 5.97,12.8 5.96,20.64 -0.02,9.2499999 0.47,20.4699999 -0.66,23.7799999 -1.13,3.31 -4.17,11.4700001 -5.63,20.8500001 -1.36,8.73 -8.95,15.95 -10.02,17.18 -1.07,1.23 -4.2,9.73 -12.41,16.15 -3.62,2.83 -8.8,6.32 -13.23,9.54 -3.99,2.9 -5.88,5.68 -8.22,5.35 -2.34,-0.33 -3.94,-3.18 -4.4,-6.78 -0.29,-2.25 -0.73,-3.91 -3.82,-7.58 -2.67,-3.17 -3.39,-4.15 2.39,-4.82 4.14,-0.48 9.9,-8.72 13.28,-9.78 3.38,-1.06 10.22,-11.4 16.58,-25.1 4.62,-9.98 7.28,-23.9500001 4.66,-42.19 -2.47,-17.2 -5.83,-18.57 -11.29,-26.84 -4.41,-6.68 -7.52,-11.62 -13.5,-14.8 -0.94,-0.5 -3.62,-1.14 -6.98,-4.27 -1.94,-1.81 -4.82,-2.95 -7.35,-4.41 -2.53,-1.46 -19.8500001,-7.84 -29.3200001,-8.11 -7.8099999,-0.22 -19.2099999,1.43 -37.1499999,11.16 -6.11,3.32 -11.99,8.28 -19.6,16.88 -3.14,3.55 -4.09,7.93 -5.88,11.74 -0.99,2.12 -2.86,3.82 -4.05,5.69 -4.52,7.12 -5.43,20.02 -5.44,25.8499999 -0.03,9.8 3.61,16.83 3.71,21.5200001 0.16,7.17 4.23,12.06 9.27,20.65 2.99,5.1 9.2,10.91 12.73,13.27 3.73,2.48 5.55,5.63 10.61,8.05 8.41,4.02 1.87,5.24 0.49,9.46 -0.76,2.33 -1.57,13.24 -8.02,9.13 -3.14,-2 -8.42,-4.63 -13.35,-8.69 -1.49,-1.23 -9.6,-6.39 -12.87,-13.36 -0.99,-2.11 -5.77,-7.14 -9.95,-13.68 -3.75,-5.86 -5.74,-12.05 -8.85,-19.54 -3.15,-7.6 -2.93,-18.9900001 -3.66,-26.7800001 -1.629996,-17.5599999 4.62,-23.3399999 4.62,-24.7799999 0,-5 4.95,-17.01 6.62,-19.25 1.67,-2.25 2.62,-4.85 7.52,-11.86 1.12,-1.6 10.72,-10.05 15.24,-14.36 7.21,-6.87 29.22,-16.96 33.52,-17.02 6.79,-0.1 11.18,-3.15 21.49,-3.72 6.6799999,-0.37 22.3,4.02 29.61,5.51 13.3,2.71 12.02,5.79 23.95,12.28 11.94,6.48 16.91,11.76 19.38,18.46 z"
     stroke="#18a3ac"
     stroke-width="1"
     fill="#ffffff"
     id="path168" />
  <!-- - - - - - - - - - - - - - - - - - - - - - - - - - - - - - - //-->
  <!-- THE STAR                                                    //-->
  <!-- - - - - - - - - - - - - - - - - - - - - - - - - - - - - - - //-->
  <g
     transform="matrix(15,0,0,15,-7.9311441,-69.9)"
     id="g173">
    <!-- outside lines of the star: //-->
    <polygon
       stroke="#18a3ac"
       stroke-width="0.05"
       fill="#ffffff"
       points="0.95106,-0.30902 0.47553,0.15451 0.58779,0.80902 0,0.5 -0.58779,0.80902 -0.47553,0.15451 -0.95106,-0.30902 -0.29389,-0.40451 0,-1 0.29389,-0.40451 "
       id="polygon168" />
    <!-- shadow on top ray of star: //-->
    <polygon
       fill="#18a3ac"
       points="0.29389,-0.40451 0,0 0,-1 "
       id="polygon169" />
    <!-- shadow on upper right ray of star: //-->
    <polygon
       fill="#18a3ac"
       points="0.71329,-0.07725 0,0 0.95106,-0.30902 "
       id="polygon170" />
    <!-- shadow on lower right ray of star: //-->
    <polygon
       fill="#18a3ac"
       points="0.58779,0.80902 0,0 0.47553,0.15451 "
       id="polygon171" />
    <!-- shadow on lower left ray of star: //-->
    <polygon
       fill="#18a3ac"
       points="-0.58779,0.80902 0,0 0,0.5 "
       id="polygon172" />
    <!-- shadow on upper left ray of star: //-->
    <polygon
       fill="#18a3ac"
       points="-0.29389,-0.40451 0,0 -0.95106,-0.30902 "
       id="polygon173" />
  </g>
  <!-- - - - - - - - - - - - - - - - - - - - - - - - - - - - - - - //-->
  <!-- THE DOTS IN THE OUTSIDE RIBBON:                             //-->
  <!-- - - - - - - - - - - - - - - - - - - - - - - - - - - - - - - //-->
  <circle
     r="2.0999999"
     cy="75.937515"
     fill="#18a3ac"
     transform="rotate(18)"
     id="circle173"
     cx="-9.9842005" />
  <circle
     r="2.0999999"
     cy="71.035797"
     fill="#18a3ac"
     transform="rotate(-18)"
     id="circle174"
     cx="-5.1017318" />
  <circle
     r="2.0999999"
     cy="79.560684"
     fill="#18a3ac"
     transform="rotate(37.5)"
     id="circle175"
     cx="-11.101415" />
  <circle
     r="2.0999999"
     cy="69.904335"
     fill="#18a3ac"
     transform="rotate(-37.5)"
     id="circle176"
     cx="-1.4829843" />
  <circle
     r="2.0999999"
     cy="87.832138"
     fill="#18a3ac"
     transform="rotate(82.5)"
     id="circle177"
     cx="-8.8676367" />
  <circle
     r="2.0999999"
     cy="82.92218"
     fill="#18a3ac"
     transform="rotate(-145)"
     id="circle178"
     cx="11.028067" />
  <circle
     r="2.0999999"
     cy="88.401077"
     fill="#18a3ac"
     transform="rotate(-176.5)"
     id="circle179"
     cx="8.398634" />
  <!-- - - - - - - - - - - - - - - - - - - - - - - - - - - - - - - //-->
  <!-- TEXT SAYING "THE UNIVERSITY OF CALIFORNIA":                 //-->
  <!-- - - - - - - - - - - - - - - - - - - - - - - - - - - - - - - //-->
  <!-- letter "T" in "T"HE //-->
  <g
     transform="rotate(-129.8,-24.787473,38.40761)"
     id="g179">
    <polygon
       fill="#18a3ac"
       points="-1.8,6 1.8,6 1.8,5.8 1.3,5.5 1.3,-3.4 5,-3.4 5.3,-2.9 5.5,-2.9 5.5,-6 -5.5,-6 -5.5,-2.9 -5.3,-2.9 -5,-3.4 -1.3,-3.4 -1.3,5.5 -1.8,5.8 "
       id="polygon179" />
  </g>
  <!-- letter "H" in T"H"E //-->
  <g
     transform="rotate(-119.3,-29.992117,38.871938)"
     id="g182">
    <polygon
       fill="#18a3ac"
       points="-6,6 -2.4,6 -2.4,5.8 -2.9,5.5 -2.9,-5.5 -2.4,-5.8 -2.4,-6 -6,-6 -6,-5.8 -5.5,-5.5 -5.5,5.5 -6,5.8 "
       id="polygon180" />
    <polygon
       fill="#18a3ac"
       points="6,6 2.4,6 2.4,5.8 2.9,5.5 2.9,-5.5 2.4,-5.8 2.4,-6 6,-6 6,-5.8 5.5,-5.5 5.5,5.5 6,5.8 "
       id="polygon181" />
    <polygon
       fill="#18a3ac"
       points="5,1.3 5,-1.3 -5,-1.3 -5,1.3 "
       id="polygon182" />
  </g>
  <!-- letter "E" in TH"E" //-->
  <g
     transform="rotate(-108.2,-36.142006,39.420595)"
     id="g183">
    <polygon
       fill="#18a3ac"
       points="-5,6 4.5,6 4.5,2.9 4.3,2.9 4,3.4 -1.9,3.4 -1.9,1.3 2.5,1.3 2.5,-1.3 -1.9,-1.3 -1.9,-3.4 4,-3.4 4.3,-2.9 4.5,-2.9 4.5,-6 -5,-6 -5,-5.8 -4.5,-5.5 -4.5,5.5 -5,5.8 "
       id="polygon183" />
  </g>
  <!-- letter "U" in "U"NIVERSITY //-->
  <g
     transform="rotate(-87.3,-50.561181,40.706991)"
     id="g185">
    <path
       d="m -4.2,-6 v 6 c 0,6.3 8.4,6.3 8.4,0 v -6"
       stroke="#18a3ac"
       stroke-width="2.6"
       fill="none"
       id="path183" />
    <polygon
       fill="#18a3ac"
       points="-6,-6 -2.4,-6 -2.4,-5.8 -2.9,-5.5 -5.5,-5.5 -6,-5.8 "
       id="polygon184" />
    <polygon
       fill="#18a3ac"
       points="6,-6 2.4,-6 2.4,-5.8 2.9,-5.5 5.5,-5.5 6,-5.8 "
       id="polygon185" />
  </g>
  <!-- letter "N" in U"N"IVERSITY //-->
  <g
     transform="rotate(-76.5,-60.350128,41.580304)"
     id="g188">
    <polygon
       fill="#18a3ac"
       points="-6,6 -2.9,6 -2.9,-6 -6,-6 -6,-5.8 -5.5,-5.5 -5.5,5.5 -6,5.8 "
       id="polygon186" />
    <polygon
       fill="#18a3ac"
       points="6,6 2.9,6 2.9,-6 6,-6 6,-5.8 5.5,-5.5 5.5,5.5 6,5.8 "
       id="polygon187" />
    <polygon
       fill="#18a3ac"
       points="5.5,6 -2.9,-6 -5.5,-6 2.9,6 "
       id="polygon188" />
  </g>
  <!-- letter "I" in UN"I"VERSITY //-->
  <g
     transform="rotate(-68.2,-69.617948,42.407125)"
     id="g189">
    <polygon
       fill="#18a3ac"
       points="-1.8,6 1.8,6 1.8,5.8 1.3,5.5 1.3,-5.5 1.8,-5.8 1.8,-6 -1.8,-6 -1.8,-5.8 -1.3,-5.5 -1.3,5.5 -1.8,5.8 "
       id="polygon189" />
  </g>
  <!-- letter "V" in UNI"V"ERSITY //-->
  <g
     transform="rotate(-60.6,-80.032631,43.336263)"
     id="g190">
    <polygon
       fill="#18a3ac"
       points="1.3,6 7,-6 4.4,-6 -1.3,6 1.3,6 -4.4,-6 -7,-6 -1.3,6 "
       id="polygon190" />
  </g>
  <!-- letter "E" in UNIV"E"RSITY //-->
  <g
     transform="rotate(-50,-99.288904,45.054197)"
     id="g191">
    <polygon
       fill="#18a3ac"
       points="-5,6 4.5,6 4.5,2.9 4.3,2.9 4,3.4 -1.9,3.4 -1.9,1.3 2.5,1.3 2.5,-1.3 -1.9,-1.3 -1.9,-3.4 4,-3.4 4.3,-2.9 4.5,-2.9 4.5,-6 -5,-6 -5,-5.8 -4.5,-5.5 -4.5,5.5 -5,5.8 "
       id="polygon191" />
  </g>
  <!-- letter "R" in UNIVE"R"SITY //-->
  <g
     transform="rotate(-40,-126.09095,47.44532)"
     id="g192">
    <path
       d="M -4.2,6 V -4.7 H 0 C 5.5,-4.7 5.5,0 0,0 h -4.2 m 3.7,0 4.2,4.7"
       stroke="#18a3ac"
       stroke-width="2.6"
       fill="none"
       id="path191" />
    <circle
       cx="3.7"
       cy="4.6999998"
       r="1.3"
       fill="#18a3ac"
       id="circle191" />
    <polygon
       fill="#18a3ac"
       points="-6,6 -2.4,6 -2.4,5.8 -2.9,5.5 -5.5,5.5 -6,5.8 "
       id="polygon192" />
  </g>
  <!-- letter "S" in UNIVER"S"ITY //-->
  <g
     transform="rotate(-30.2,-168.70459,51.247063)"
     id="g193">
    <path
       d="M -3.7,3.3 C -3.7,3.3 -5,4.7 0,4.7 5,4.7 5,0 0,0 c -5,0 -5,-4.7 0,-4.7 5,0 3.7,1.4 3.7,1.4"
       stroke="#18a3ac"
       stroke-width="2.6"
       fill="none"
       id="path192" />
    <circle
       cx="-3.7"
       cy="3.3"
       r="1.3"
       fill="#18a3ac"
       id="circle192" />
    <circle
       cx="3.7"
       cy="-3.3"
       r="1.3"
       fill="#18a3ac"
       id="circle193" />
  </g>
  <!-- letter "I" in UNIVERS"I"TY //-->
  <g
     transform="rotate(-23,-222.4443,56.041409)"
     id="g194">
    <polygon
       fill="#18a3ac"
       points="-1.8,6 1.8,6 1.8,5.8 1.3,5.5 1.3,-5.5 1.8,-5.8 1.8,-6 -1.8,-6 -1.8,-5.8 -1.3,-5.5 -1.3,5.5 -1.8,5.8 "
       id="polygon193" />
  </g>
  <!-- letter "T" in UNIVERSI"T"Y //-->
  <g
     transform="rotate(-15.7,-326.36581,65.312685)"
     id="g195">
    <polygon
       fill="#18a3ac"
       points="-1.8,6 1.8,6 1.8,5.8 1.3,5.5 1.3,-3.4 5,-3.4 5.3,-2.9 5.5,-2.9 5.5,-6 -5.5,-6 -5.5,-2.9 -5.3,-2.9 -5,-3.4 -1.3,-3.4 -1.3,5.5 -1.8,5.8 "
       id="polygon194" />
  </g>
  <!-- letter "Y" in UNIVERSIT"Y" //-->
  <g
     transform="rotate(-6,-852.1221,112.21762)"
     id="g197">
    <polygon
       fill="#18a3ac"
       points="-5,-5.2 -5.5,-6 -1.3,1.5 1.3,1.5 -2.9,-6 -2.9,-5.5 -2.4,-5.8 -2.4,-6 -6,-6 -6,-5.8 "
       id="polygon195" />
    <polygon
       fill="#18a3ac"
       points="5,-5.2 5.5,-6 1.3,1.5 -1.3,1.5 2.9,-6 2.9,-5.5 2.4,-5.8 2.4,-6 6,-6 6,-5.8 "
       id="polygon196" />
    <polygon
       fill="#18a3ac"
       points="-1.8,5.8 -1.8,6 1.8,6 1.8,5.8 1.3,5.5 1.3,1.4 -1.3,1.4 -1.3,5.5 "
       id="polygon197" />
  </g>
  <!-- letter "O" in "O"F //-->
  <g
     transform="rotate(14.4,347.89241,5.1592649)"
     id="g198">
    <circle
       r="4.6999998"
       stroke="#18a3ac"
       stroke-width="2.6"
       fill="none"
       id="circle197"
       cx="0"
       cy="0" />
  </g>
  <!-- letter "F" in O"F" //-->
  <g
     transform="rotate(25.2,194.89229,18.80905)"
     id="g199">
    <polygon
       fill="#18a3ac"
       points="-5,6 -1.4,6 -1.4,5.8 -1.9,5.5 -1.9,1.8 3.5,1.8 3.5,-0.8 -1.9,-0.8 -1.9,-3.4 4,-3.4 4.3,-2.9 4.5,-2.9 4.5,-6 -5,-6 -5,-5.8 -4.5,-5.5 -4.5,5.5 -5,5.8 "
       id="polygon198" />
  </g>
  <!-- letter "C" in "C"ALIFORNIA //-->
  <g
     transform="rotate(45.4,102.29557,27.069995)"
     id="g200">
    <circle
       r="4.6999998"
       stroke="#18a3ac"
       stroke-width="2.6"
       fill="none"
       id="circle199"
       cx="0"
       cy="0" />
    <rect
       y="-2"
       width="6.5"
       height="4"
       fill="#ffffff"
       id="rect199"
       x="0" />
  </g>
  <!-- letter "A" in C"A"LIFORNIA //-->
  <g
     transform="rotate(55.7,80.163319,29.044507)"
     id="g201">
    <polygon
       fill="#18a3ac"
       points="-6.5,5.8 -6.5,6 -2.9,6 -2.9,5.8 -3.9,5.2 -3.4,6 -2.5,2.7 0.1,2.7 0.1,0.1 -1.433,0.1 0.6,-6 -2.5,-6 -2.5,-5.8 -1.5,-5.2 -2,-6 -6,6 -5.5,5.2 "
       id="polygon200" />
    <polygon
       fill="#18a3ac"
       points="6.5,5.8 6.5,6 2.9,6 2.9,5.8 3.9,5.2 3.4,6 2.5,2.7 -0.1,2.7 -0.1,0.1 1.433,0.1 -0.6,-6 2.5,-6 2.5,-5.8 1.5,-5.2 2,-6 6,6 5.5,5.2 "
       id="polygon201" />
  </g>
  <!-- letter "L" in CA"L"IFORNIA //-->
  <g
     transform="rotate(66.8,63.446391,30.535894)"
     id="g202">
    <polygon
       fill="#18a3ac"
       points="-5.5,6 5,6 5,2.9 4.8,2.9 4.5,3.4 -2.4,3.4 -2.4,-6 -5.5,-6 -5.5,-5.8 -5,-5.5 -5,5.5 -5.5,5.8 "
       id="polygon202" />
  </g>
  <!-- letter "I" in CAL"I"FORNIA //-->
  <g
     transform="rotate(73.7,55.343994,31.258743)"
     id="g203">
    <polygon
       fill="#18a3ac"
       points="-1.8,6 1.8,6 1.8,5.8 1.3,5.5 1.3,-5.5 1.8,-5.8 1.8,-6 -1.8,-6 -1.8,-5.8 -1.3,-5.5 -1.3,5.5 -1.8,5.8 "
       id="polygon203" />
  </g>
  <!-- letter "F" in CALI"F"ORNIA //-->
  <g
     transform="rotate(81.5,47.621193,31.947727)"
     id="g204">
    <polygon
       fill="#18a3ac"
       points="-5,6 -1.4,6 -1.4,5.8 -1.9,5.5 -1.9,1.8 3.5,1.8 3.5,-0.8 -1.9,-0.8 -1.9,-3.4 4,-3.4 4.3,-2.9 4.5,-2.9 4.5,-6 -5,-6 -5,-5.8 -4.5,-5.5 -4.5,5.5 -5,5.8 "
       id="polygon204" />
  </g>
  <!-- letter "O" in CALIF"O"RNIA //-->
  <g
     transform="rotate(91.2,39.563084,32.666625)"
     id="g205">
    <circle
       r="4.6999998"
       stroke="#18a3ac"
       stroke-width="2.6"
       fill="none"
       id="circle204"
       cx="0"
       cy="0" />
  </g>
  <!-- letter "R" in CALIFO"R"NIA //-->
  <g
     transform="rotate(102.8,31.518397,33.384325)"
     id="g206">
    <path
       d="M -4.2,6 V -4.7 H 0 C 5.5,-4.7 5.5,0 0,0 h -4.2 m 3.7,0 4.2,4.7"
       stroke="#18a3ac"
       stroke-width="2.6"
       fill="none"
       id="path205" />
    <circle
       cx="3.7"
       cy="4.6999998"
       r="1.3"
       fill="#18a3ac"
       id="circle205" />
    <polygon
       fill="#18a3ac"
       points="-6,6 -2.4,6 -2.4,5.8 -2.9,5.5 -5.5,5.5 -6,5.8 "
       id="polygon205" />
  </g>
  <!-- letter "N" in CALIFOR"N"IA //-->
  <g
     transform="rotate(114.6,24.570821,34.004148)"
     id="g208">
    <polygon
       fill="#18a3ac"
       points="-6,6 -2.9,6 -2.9,-6 -6,-6 -6,-5.8 -5.5,-5.5 -5.5,5.5 -6,5.8 "
       id="polygon206" />
    <polygon
       fill="#18a3ac"
       points="6,6 2.9,6 2.9,-6 6,-6 6,-5.8 5.5,-5.5 5.5,5.5 6,5.8 "
       id="polygon207" />
    <polygon
       fill="#18a3ac"
       points="5.5,6 -2.9,-6 -5.5,-6 2.9,6 "
       id="polygon208" />
  </g>
  <!-- letter "I" in CALIFORN"I"A //-->
  <g
     transform="rotate(123,20.168809,34.39687)"
     id="g209">
    <polygon
       fill="#18a3ac"
       points="-1.8,6 1.8,6 1.8,5.8 1.3,5.5 1.3,-5.5 1.8,-5.8 1.8,-6 -1.8,-6 -1.8,-5.8 -1.3,-5.5 -1.3,5.5 -1.8,5.8 "
       id="polygon209" />
  </g>
  <!-- letter "A" in CALIFORNI"A" //-->
  <g
     transform="rotate(131.2,16.197842,34.751137)"
     id="g211">
    <polygon
       fill="#18a3ac"
       points="-6.5,5.8 -6.5,6 -2.9,6 -2.9,5.8 -3.9,5.2 -3.4,6 -2.5,2.7 0.1,2.7 0.1,0.1 -1.433,0.1 0.6,-6 -2.5,-6 -2.5,-5.8 -1.5,-5.2 -2,-6 -6,6 -5.5,5.2 "
       id="polygon210" />
    <polygon
       fill="#18a3ac"
       points="6.5,5.8 6.5,6 2.9,6 2.9,5.8 3.9,5.2 3.4,6 2.5,2.7 -0.1,2.7 -0.1,0.1 1.433,0.1 -0.6,-6 2.5,-6 2.5,-5.8 1.5,-5.2 2,-6 6,6 5.5,5.2 "
       id="polygon211" />
  </g>
  <!-- - - - - - - - - - - - - - - - - - - - - - - - - - - - - - - //-->
  <!-- TEXT SAYING "1868":                                         //-->
  <!-- - - - - - - - - - - - - - - - - - - - - - - - - - - - - - - //-->
  <!-- number "1"  in "1"868 //-->
  <g
     transform="rotate(13,-324.76081,-79.255379)"
     id="g212">
    <polygon
       fill="#18a3ac"
       points="-1.8,6 1.8,6 1.8,5.8 1.3,5.5 1.3,-6 -1.9,-2.8 -1.3,-2.8 -1.3,5.5 -1.8,5.8 "
       id="polygon212" />
  </g>
  <!-- number "8" in 1"8"68 //-->
  <g
     transform="rotate(6.5,-647.63149,-114.28594)"
     id="g213">
    <ellipse
       cy="-2.5"
       rx="2.5"
       ry="2.2"
       stroke="#18a3ac"
       stroke-width="2.6"
       fill="none"
       id="ellipse212"
       cx="0" />
    <ellipse
       cy="2.2"
       rx="3.5"
       ry="2.5"
       stroke="#18a3ac"
       stroke-width="2.6"
       fill="none"
       id="ellipse213"
       cx="0" />
  </g>
  <!-- number "6" in 18"6"8 //-->
  <g
     transform="rotate(-2.1,1990.25,171.91677)"
     id="g214">
    <ellipse
       cy="2.2"
       rx="3.5"
       ry="2.5"
       stroke="#18a3ac"
       stroke-width="2.6"
       fill="none"
       id="ellipse214"
       cx="0" />
    <path
       d="M -3.5,2.2 C -3.5,-6 2,-5.5 4,-3.5"
       stroke="#18a3ac"
       stroke-width="2.6"
       fill="none"
       id="path214" />
  </g>
  <!-- number "8" in 186"8" //-->
  <g
     transform="rotate(-10.8,382.69304,-2.4986298)"
     id="g216">
    <ellipse
       cy="-2.5"
       rx="2.5"
       ry="2.2"
       stroke="#18a3ac"
       stroke-width="2.6"
       fill="none"
       id="ellipse215"
       cx="0" />
    <ellipse
       cy="2.2"
       rx="3.5"
       ry="2.5"
       stroke="#18a3ac"
       stroke-width="2.6"
       fill="none"
       id="ellipse216"
       cx="0" />
  </g>
  <!-- - - - - - - - - - - - - - - - - - - - - - - - - - - - - - - //-->
  <!-- TEXT SAYING "LET THERE BE LIGHT":                           //-->
  <!-- - - - - - - - - - - - - - - - - - - - - - - - - - - - - - - //-->
  <!-- letter "L" in "L"ET //-->
  <g
     transform="matrix(0.50627767,0.21490212,-0.21490212,0.50627767,-44.431144,18.1)"
     id="g217">
    <polygon
       fill="#18a3ac"
       points="-5.5,6 5,6 5,2.9 4.8,2.9 4.5,3.4 -2.4,3.4 -2.4,-6 -5.5,-6 -5.5,-5.8 -5,-5.5 -5,5.5 -5.5,5.8 "
       id="polygon216" />
  </g>
  <!-- letter "E" in L"E"T //-->
  <g
     transform="matrix(0.43924953,0.33099826,-0.33099826,0.43924953,-38.431144,21.4)"
     id="g218">
    <polygon
       fill="#18a3ac"
       points="-5,6 4.5,6 4.5,2.9 4.3,2.9 4,3.4 -1.9,3.4 -1.9,1.3 2.5,1.3 2.5,-1.3 -1.9,-1.3 -1.9,-3.4 4,-3.4 4.3,-2.9 4.5,-2.9 4.5,-6 -5,-6 -5,-5.8 -4.5,-5.5 -4.5,5.5 -5,5.8 "
       id="polygon217" />
  </g>
  <!-- letter "T" LE"T" //-->
  <g
     transform="matrix(0.32328189,0.44495935,-0.44495935,0.32328189,-33.931144,26.1)"
     id="g219">
    <polygon
       fill="#18a3ac"
       points="-1.8,6 1.8,6 1.8,5.8 1.3,5.5 1.3,-3.4 5,-3.4 5.3,-2.9 5.5,-2.9 5.5,-6 -5.5,-6 -5.5,-2.9 -5.3,-2.9 -5,-3.4 -1.3,-3.4 -1.3,5.5 -1.8,5.8 "
       id="polygon218" />
  </g>
  <!-- letter "T" "T"HERE //-->
  <g
     transform="matrix(0.31546704,0.45053362,-0.45053362,0.31546704,-28.431144,34.6)"
     id="g220">
    <polygon
       fill="#18a3ac"
       points="-1.8,6 1.8,6 1.8,5.8 1.3,5.5 1.3,-3.4 5,-3.4 5.3,-2.9 5.5,-2.9 5.5,-6 -5.5,-6 -5.5,-2.9 -5.3,-2.9 -5,-3.4 -1.3,-3.4 -1.3,5.5 -1.8,5.8 "
       id="polygon219" />
  </g>
  <!-- letter "H" in T"H"ERE //-->
  <g
     transform="matrix(0.35353319,0.42132444,-0.42132444,0.35353319,-24.431144,40.3)"
     id="g222">
    <polygon
       fill="#18a3ac"
       points="-6,6 -2.4,6 -2.4,5.8 -2.9,5.5 -2.9,-5.5 -2.4,-5.8 -2.4,-6 -6,-6 -6,-5.8 -5.5,-5.5 -5.5,5.5 -6,5.8 "
       id="polygon220" />
    <polygon
       fill="#18a3ac"
       points="6,6 2.4,6 2.4,5.8 2.9,5.5 2.9,-5.5 2.4,-5.8 2.4,-6 6,-6 6,-5.8 5.5,-5.5 5.5,5.5 6,5.8 "
       id="polygon221" />
    <polygon
       fill="#18a3ac"
       points="5,1.3 5,-1.3 -5,-1.3 -5,1.3 "
       id="polygon222" />
  </g>
  <!-- letter "E" in TH"E"RE //-->
  <g
     transform="matrix(0.46642645,0.2914556,-0.2914556,0.46642645,-18.631144,45.4)"
     id="g223">
    <polygon
       fill="#18a3ac"
       points="-5,6 4.5,6 4.5,2.9 4.3,2.9 4,3.4 -1.9,3.4 -1.9,1.3 2.5,1.3 2.5,-1.3 -1.9,-1.3 -1.9,-3.4 4,-3.4 4.3,-2.9 4.5,-2.9 4.5,-6 -5,-6 -5,-5.8 -4.5,-5.5 -4.5,5.5 -5,5.8 "
       id="polygon223" />
  </g>
  <!-- letter "R" in THE"R"E //-->
  <g
     transform="matrix(0.5312592,0.14235047,-0.14235047,0.5312592,-11.931144,48.1)"
     id="g224">
    <path
       d="M -4.2,6 V -4.7 H 0 C 5.5,-4.7 5.5,0 0,0 h -4.2 m 3.7,0 4.2,4.7"
       stroke="#18a3ac"
       stroke-width="2.6"
       fill="none"
       id="path223" />
    <circle
       cx="3.7"
       cy="4.6999998"
       r="1.3"
       fill="#18a3ac"
       id="circle223" />
    <polygon
       fill="#18a3ac"
       points="-6,6 -2.4,6 -2.4,5.8 -2.9,5.5 -5.5,5.5 -6,5.8 "
       id="polygon224" />
  </g>
  <!-- letter "E" in THER"E" //-->
  <g
     transform="matrix(0.54790708,0.04793566,-0.04793566,0.54790708,-5.4311441,49.1)"
     id="g225">
    <polygon
       fill="#18a3ac"
       points="-5,6 4.5,6 4.5,2.9 4.3,2.9 4,3.4 -1.9,3.4 -1.9,1.3 2.5,1.3 2.5,-1.3 -1.9,-1.3 -1.9,-3.4 4,-3.4 4.3,-2.9 4.5,-2.9 4.5,-6 -5,-6 -5,-5.8 -4.5,-5.5 -4.5,5.5 -5,5.8 "
       id="polygon225" />
  </g>
  <!-- letter "B" in "B"E //-->
  <g
     transform="matrix(0.50995112,-0.20603363,0.20603363,0.50995112,3.9688559,47.6)"
     id="g227">
    <path
       d="m -4.2,1.3 v -6 H 0 C 5.5,-4.7 5.5,0 0,0 h -4.2 m 0,-1.3 v 6 H 0 C 5.5,4.7 5.5,0 0,0 h -4.2"
       stroke="#18a3ac"
       stroke-width="2.6"
       fill="none"
       id="path225" />
    <polygon
       fill="#18a3ac"
       points="-6,6 -4.2,6 -5.5,5.5 -6,5.8 "
       id="polygon226" />
    <polygon
       fill="#18a3ac"
       points="-6,-6 -4.2,-6 -5.5,-5.5 -6,-5.8 "
       id="polygon227" />
  </g>
  <!-- letter "E" in B"E" //-->
  <g
     transform="matrix(0.46642645,-0.2914556,0.2914556,0.46642645,10.068856,44.4)"
     id="g228">
    <polygon
       fill="#18a3ac"
       points="-5,6 4.5,6 4.5,2.9 4.3,2.9 4,3.4 -1.9,3.4 -1.9,1.3 2.5,1.3 2.5,-1.3 -1.9,-1.3 -1.9,-3.4 4,-3.4 4.3,-2.9 4.5,-2.9 4.5,-6 -5,-6 -5,-5.8 -4.5,-5.5 -4.5,5.5 -5,5.8 "
       id="polygon228" />
  </g>
  <!-- letter "L" in "L"IGHT //-->
  <g
     transform="matrix(0.54464744,0.07654521,-0.07654521,0.54464744,17.068856,22.1)"
     id="g229">
    <polygon
       fill="#18a3ac"
       points="-5.5,6 5,6 5,2.9 4.8,2.9 4.5,3.4 -2.4,3.4 -2.4,-6 -5.5,-6 -5.5,-5.8 -5,-5.5 -5,5.5 -5.5,5.8 "
       id="polygon229" />
  </g>
  <!-- letter "I" in L"I"GHT //-->
  <g
     transform="matrix(0.54164426,0.0955065,-0.0955065,0.54164426,22.068856,22.8)"
     id="g230">
    <polygon
       fill="#18a3ac"
       points="-1.8,6 1.8,6 1.8,5.8 1.3,5.5 1.3,-5.5 1.8,-5.8 1.8,-6 -1.8,-6 -1.8,-5.8 -1.3,-5.5 -1.3,5.5 -1.8,5.8 "
       id="polygon230" />
  </g>
  <!-- letter "G" in LI"G"HT //-->
  <g
     transform="matrix(0.54464744,0.07654521,-0.07654521,0.54464744,27.468856,24.4)"
     id="g231">
    <path
       d="M 4,-3.5 C -3,-9 -7,4.7 0,4.7 H 3.5 V 0"
       stroke="#18a3ac"
       stroke-width="2.6"
       fill="none"
       id="path230" />
    <polygon
       fill="#18a3ac"
       points="1.7,0 5.3,0 5.3,0.2 4.8,0.5 2.2,0.5 1.7,0.2 "
       id="polygon231" />
  </g>
  <!-- letter "H" in LIG"H"T //-->
  <g
     transform="matrix(0.55,0,0,0.55,35.368856,25.1)"
     id="g234">
    <polygon
       fill="#18a3ac"
       points="-6,6 -2.4,6 -2.4,5.8 -2.9,5.5 -2.9,-5.5 -2.4,-5.8 -2.4,-6 -6,-6 -6,-5.8 -5.5,-5.5 -5.5,5.5 -6,5.8 "
       id="polygon232" />
    <polygon
       fill="#18a3ac"
       points="6,6 2.4,6 2.4,5.8 2.9,5.5 2.9,-5.5 2.4,-5.8 2.4,-6 6,-6 6,-5.8 5.5,-5.5 5.5,5.5 6,5.8 "
       id="polygon233" />
    <polygon
       fill="#18a3ac"
       points="5,1.3 5,-1.3 -5,-1.3 -5,1.3 "
       id="polygon234" />
  </g>
  <!-- letter "T" in LIGH"T" //-->
  <g
     transform="matrix(0.54790708,-0.04793566,0.04793566,0.54790708,42.568856,24.6)"
     id="g235">
    <polygon
       fill="#18a3ac"
       points="-1.8,6 1.8,6 1.8,5.8 1.3,5.5 1.3,-3.4 5,-3.4 5.3,-2.9 5.5,-2.9 5.5,-6 -5.5,-6 -5.5,-2.9 -5.3,-2.9 -5,-3.4 -1.3,-3.4 -1.3,5.5 -1.8,5.8 "
       id="polygon235" />
  </g>
  <!-- - - - - - - - - - - - - - - - - - - - - - - - - - - - - - - //-->
  <!-- END TAG OF THE SVG FILE:                                    //-->
  <!-- - - - - - - - - - - - - - - - - - - - - - - - - - - - - - - //-->
</svg>
