<?xml version="1.0" encoding="UTF-8" standalone="no"?>
<!-- Generator: Adobe Illustrator 19.2.1, SVG Export Plug-In . SVG Version: 6.00 Build 0)  -->

<svg
   version="1.1"
   id="layer"
   x="0px"
   y="0px"
   viewBox="0 0 599.90002 125.8"
   xml:space="preserve"
   sodipodi:docname="used-by-muv.svg"
   width="599.90002"
   height="125.8"
   inkscape:version="1.3 (0e150ed6c4, 2023-07-21)"
   xmlns:inkscape="http://www.inkscape.org/namespaces/inkscape"
   xmlns:sodipodi="http://sodipodi.sourceforge.net/DTD/sodipodi-0.dtd"
   xmlns="http://www.w3.org/2000/svg"
   xmlns:svg="http://www.w3.org/2000/svg"><defs
   id="defs1" /><sodipodi:namedview
   id="namedview1"
   pagecolor="#ffffff"
   bordercolor="#666666"
   borderopacity="1.0"
   inkscape:showpageshadow="2"
   inkscape:pageopacity="0.0"
   inkscape:pagecheckerboard="0"
   inkscape:deskcolor="#d1d1d1"
   inkscape:zoom="2.8082822"
   inkscape:cx="304.45658"
   inkscape:cy="67.835063"
   inkscape:window-width="3840"
   inkscape:window-height="2066"
   inkscape:window-x="-11"
   inkscape:window-y="-11"
   inkscape:window-maximized="1"
   inkscape:current-layer="layer" />&#10;<style
   type="text/css"
   id="style1">&#10;	.st0{fill:#111D4E;}&#10;</style>&#10;<path
   class="st0"
   d="m 349.4,87.4 c 3,-8 3.9,-10.5 4.6,-12.7 0.7,2.3 1.6,4.6 4.5,12.7 z m 0.9,12.7 0.4,-1.8 -4.9,-0.9 2.8,-7.5 h 10.9 l 2.8,7.5 -4.3,0.6 -0.4,2.1 h 11.9 l 0.4,-1.8 -3.5,-0.9 -10.2,-26.9 h -2.9 l -10.5,26.9 -3,0.6 -0.5,2.1 z m -28.2,0 0.4,-1.8 -4.7,-0.9 c -0.1,-16 -0.2,-18.9 -0.4,-21.9 1.7,2.8 3.2,4.9 16.8,25.4 l 2.2,-0.5 0.3,-26.9 3.4,-0.6 0.5,-2.1 h -11 l -0.4,1.8 4.7,0.9 c 0,12 0.2,16.7 0.3,20.7 -1.9,-2.9 -3.7,-5.5 -15.5,-23.4 h -7.2 l -0.4,1.8 4,0.9 -0.2,24 -3.4,0.6 -0.4,2.1 h 11 z m -31.9,0 0.4,-1.8 -4.7,-0.9 c -0.1,-16 -0.2,-18.9 -0.4,-21.9 1.7,2.8 3.2,4.9 16.8,25.4 l 2.2,-0.5 0.3,-26.9 3.4,-0.6 0.5,-2.1 h -11 l -0.4,1.8 4.7,0.9 c 0,12 0.2,16.7 0.3,20.7 -1.9,-2.9 -3.7,-5.5 -15.5,-23.4 h -7.1 l -0.4,1.8 4,0.9 -0.2,24 -3.4,0.6 -0.4,2.1 h 10.9 z m -14.2,0 c 0.3,-2.1 0.4,-4.6 0.5,-7.3 l -2.2,0.4 -1.2,4.5 -11.5,-0.4 V 85.9 l 7.2,0.3 1.1,3.2 1.6,-0.3 v -8.7 l -1.8,0.4 -0.9,2.7 -7.2,0.3 V 73 l 10,0.3 1,4.2 1.9,-0.5 c 0.3,-2.6 0.4,-4.2 0.4,-6.3 h -20.6 l -0.4,1.8 4,0.9 v 24 l -3.5,0.6 -0.4,2.1 z m -26.1,0 0.4,-1.8 -4.5,-0.9 v -24 l 3.6,-0.5 0.5,-2.2 h -11.4 l -0.4,1.8 4,0.9 v 24 l -3.5,0.6 -0.4,2.1 z m -28,0.2 10.2,-26.9 2.9,-0.6 0.4,-2.1 h -9.9 l -0.4,1.8 4,0.9 C 222.5,92 221.9,93.8 221.3,95.9 220.7,94 220,92 212.8,73.4 l 3.8,-0.6 0.4,-2.1 h -10.9 l -0.4,1.8 2.9,0.9 10.5,26.9 z m -36.6,-0.2 0.4,-1.8 -5.3,-0.9 V 86.7 l 7.2,0.3 1.1,3.2 1.6,-0.3 v -8.8 l -1.8,0.4 -0.9,2.7 -7.2,0.3 V 73 l 10,0.3 1,4.2 1.9,-0.5 c 0.3,-2.6 0.4,-4.2 0.4,-6.3 h -20.6 l -0.4,1.8 4,0.9 v 24 l -3.5,0.6 -0.4,2.1 z m -19.7,-14 c 0,4.4 -1,7.4 -2.4,9.2 -1.3,1.6 -3.3,2.9 -6.8,2.9 -5.8,0 -9.3,-4.5 -9.3,-13.5 0,-4.5 1.2,-7.5 2.7,-9.2 1.4,-1.6 3.4,-2.8 6.6,-2.8 6.8,0 9.2,6 9.2,13.4 z m 4,-1.3 c 0,-9.4 -4.6,-14.6 -12.8,-14.6 -8,0 -13.8,6.1 -13.8,15.7 0,9.5 4.7,14.9 12.9,14.9 8.3,0 13.7,-6 13.7,-16 z m 422.3,-28.4 0.4,-1.8 -4.6,-0.9 v -10 l 9.1,-14 2.6,-0.5 0.5,-2.2 h -10.1 l -0.4,1.8 4,0.9 c -5.2,8.8 -6,10 -6.9,11.6 -0.9,-1.5 -2,-3.3 -7.2,-11.6 l 3.7,-0.5 0.5,-2.2 h -11.3 l -0.4,1.8 2.7,0.9 9.2,14 v 9.9 l -3.6,0.6 -0.4,2.1 h 12.2 z m -28.5,0 0.4,-1.8 -4.6,-0.9 V 29.4 l 7.5,0.4 1,4.8 1.8,-0.4 c 0.3,-1.9 0.4,-5.2 0.4,-7.2 h -24.6 c 0,2.4 0,5.3 0.2,7.5 l 1.8,-0.4 1.1,-4.3 7.1,-0.4 v 24.3 l -3.6,0.6 -0.5,2.1 z m -21,0 0.4,-1.8 -4.5,-0.9 v -24 l 3.6,-0.5 0.5,-2.2 H 531 l -0.4,1.8 4,0.9 v 24 l -3.5,0.6 -0.4,2.1 z m -34.9,-7.6 c 0,2.2 0.2,4.4 0.5,6.3 2.3,1.3 5.2,2 8.8,2 5.9,0 10.2,-3.3 10.2,-8.5 0,-3.6 -1,-5.3 -6.1,-7.5 l -4.3,-1.9 c -3.9,-1.7 -5.3,-3 -5.3,-5.5 0,-3 2,-4.8 5.7,-4.8 2,0 4.1,0.4 5.8,1.1 l 0.7,4.1 1.9,-0.4 c 0.4,-2 0.5,-3.9 0.5,-5.9 -1.9,-0.8 -4.7,-1.2 -7.8,-1.2 -6.5,0 -10.1,3.4 -10.1,8 0,3.8 1.9,5.8 5.8,7.7 l 4,1.8 c 4.6,2.1 5.7,3.3 5.7,5.8 0,3.5 -3.3,4.8 -6.7,4.8 -1.9,0 -4.4,-0.6 -6,-1.7 l -1.7,-4.6 z M 486.7,41.3 V 29.4 c 0.7,0 1.3,0 1.9,0 4.7,0 8.4,0.6 8.4,5.9 0,5.1 -3.5,6.2 -8,6.2 -0.6,-0.1 -1.7,-0.1 -2.3,-0.2 z m 4.8,15.1 0.4,-1.8 -5.2,-0.9 V 43.6 c 0.9,0 2.1,0.1 3.1,0.1 0.4,0 0.9,0 1.4,0 2.3,4.4 4.6,8.5 7.3,12.8 h 6.4 l 0.4,-1.8 -3.8,-0.8 c -2.5,-3.5 -4.6,-7 -6.7,-10.8 3.8,-1.1 6.3,-3.9 6.3,-8 0,-3.3 -1.1,-5.7 -4.2,-7 -1.7,-0.7 -4,-1 -7.5,-1 h -10.1 l -0.4,1.8 4,0.9 v 24 l -3.5,0.6 -0.4,2.1 h 12.5 z m -16.4,0 c 0.3,-2.1 0.4,-4.6 0.5,-7.3 l -2.2,0.4 -1.2,4.5 -11.5,-0.4 V 42.2 l 7.2,0.3 1.1,3.2 1.6,-0.3 v -8.7 l -1.8,0.4 -0.9,2.7 -7.2,0.3 V 29.4 l 10,0.3 1,4.2 1.9,-0.5 c 0.3,-2.6 0.4,-4.2 0.4,-6.3 h -20.6 l -0.4,1.8 4,0.9 v 24 l -3.5,0.6 -0.4,2.1 h 22 z m -37.2,0.2 10.2,-26.9 2.9,-0.6 0.4,-2.1 h -9.9 l -0.4,1.8 4,0.9 c -6.6,18.6 -7.2,20.4 -7.8,22.5 -0.6,-1.9 -1.3,-3.9 -8.5,-22.5 l 3.8,-0.6 0.4,-2.1 h -10.9 l -0.4,1.8 2.9,0.9 10.5,26.9 z m -17.7,-0.2 0.4,-1.8 -4.5,-0.9 v -24 l 3.6,-0.5 0.5,-2.2 h -11.5 l -0.4,1.8 4,0.9 v 24 l -3.5,0.6 -0.4,2.1 z m -33.4,0 0.4,-1.8 -4.7,-0.9 c -0.1,-16 -0.2,-18.9 -0.4,-21.9 1.7,2.8 3.2,4.9 16.8,25.4 l 2.2,-0.5 0.3,-26.9 3.4,-0.6 0.5,-2.1 h -11 l -0.4,1.8 4.7,0.9 c 0,12 0.2,16.7 0.3,20.7 C 397,47.6 395.2,45 383.4,27.1 h -7.2 l -0.4,1.8 4,0.9 -0.2,24 -3.4,0.6 -0.4,2.1 h 11 z m -14.1,-27.2 0.4,-2.1 H 363 l -0.4,1.8 3.9,0.9 c 0.1,5.3 0.2,9.3 0.2,14.6 0,3.2 -0.4,5.7 -1.1,7.1 -1.3,2.4 -4.2,3 -7.2,3 -3.6,0 -5.4,-1.2 -6.4,-2.9 -0.8,-1.4 -1,-3.7 -1,-6.7 V 29.8 l 3.7,-0.5 0.5,-2.2 h -11.4 l -0.4,1.8 3.7,0.9 v 14.3 c 0,3.4 0,6.3 1,8.2 1.7,3.6 5.2,4.8 10.1,4.8 5.2,0 8.1,-1.8 9.6,-4.6 1.1,-2 1.2,-4.4 1.3,-8.9 0,-4.9 0.1,-8.8 0.2,-13.8 z m -41.1,27.2 c 0.3,-2.1 0.4,-4.7 0.5,-7.4 l -2.2,0.4 -1.2,4.6 -11.5,-0.4 V 29.8 l 3.9,-0.5 0.5,-2.2 h -11.7 l -0.4,1.8 4,0.9 v 24 l -3.5,0.6 -0.4,2.1 h 22 z M 286.7,43.7 c 3,-8 3.9,-10.5 4.6,-12.7 0.7,2.3 1.6,4.6 4.5,12.7 z m 0.8,12.7 0.4,-1.8 -4.9,-0.9 2.8,-7.5 h 10.9 l 2.8,7.5 -4.3,0.6 -0.4,2.1 h 11.9 l 0.4,-1.8 -3.5,-0.9 -10.1,-26.9 h -2.9 l -10.5,26.9 -3,0.6 -0.5,2.1 z m -13,-2.1 0.4,-2.6 c -3.2,1.6 -5.4,2.2 -8.7,2.2 -5.5,0 -10.2,-3.4 -10.2,-12.4 0,-8.1 3.2,-12.5 9.6,-12.5 1.8,0 3.6,0.2 5.5,0.9 l 1,4.6 1.8,-0.5 c 0.4,-2.2 0.4,-4.2 0.4,-6.2 -1.5,-0.6 -3.7,-1.3 -8,-1.3 -8.4,0 -14.2,5.5 -14.2,15.9 0,9 4.6,14.7 13.4,14.7 3.8,0 6.8,-1.1 9,-2.8 z m -26,2.1 0.4,-1.8 -4.5,-0.9 v -24 l 3.6,-0.5 0.5,-2.2 h -11.4 l -0.4,1.8 4,0.9 v 24 l -3.5,0.6 -0.4,2.1 z m -33.8,-2.8 v -24 c 0.9,-0.1 2.2,-0.1 3.1,-0.1 4.3,0 6.6,0.8 7.9,1.7 2.8,1.7 4.1,5.7 4.1,10 0,5.8 -1.6,10.1 -5.8,11.7 -1.2,0.4 -3.1,0.8 -6.2,0.8 -0.7,0 -2.3,0 -3.1,-0.1 z m -7.7,2.8 h 7.7 c 3.4,0 7.6,-0.2 10.8,-1.2 6.2,-2.1 8.6,-7.2 8.6,-14.3 0,-7.6 -3.3,-11.4 -8.3,-12.9 -2,-0.6 -5.9,-0.9 -9.7,-0.9 h -8.7 l -0.4,1.8 4,0.9 v 24 l -3.5,0.6 z m -3.9,0 c 0.3,-2.1 0.4,-4.6 0.5,-7.3 l -2.2,0.4 -1.2,4.5 -11.5,-0.4 V 42.2 l 7.2,0.3 1.1,3.2 1.6,-0.3 v -8.7 l -1.8,0.4 -0.9,2.7 -7.2,0.3 V 29.4 l 10,0.3 1,4.2 1.9,-0.5 c 0.3,-2.6 0.4,-4.2 0.4,-6.3 h -20.6 l -0.4,1.8 4,0.9 v 24 l -3.5,0.6 -0.4,2.1 h 22 z m -49.8,0 0.4,-1.8 -4.7,-0.9 c 0,-16.2 0,-17.8 -0.1,-22.8 1.1,2.7 2.9,6.7 9.5,20.5 l 2.1,-0.2 c 7.6,-15.4 8.8,-18 9.7,-20.3 -0.1,5.7 -0.1,7.9 -0.1,22.8 l -3.6,0.6 -0.5,2.1 h 12 l 0.4,-1.8 -4.5,-0.9 v -24 l 3.6,-0.5 0.4,-2.2 h -8.5 c -6.3,13.1 -7.9,16.6 -9.2,19.5 -1.1,-2.7 -2.7,-6.1 -9,-19.5 H 143 l -0.4,1.8 4,0.9 -0.4,24 -3.4,0.6 -0.5,2.1 z m -27.8,6.4 c 0,-2.9 -0.3,-5.8 -0.7,-8.6 C 120.6,23.7 94.7,0.2 63.2,0 63,0 62.9,0 62.7,0 28.1,0 0,28.1 0,62.9 v 0 c 0,0.1 0,0.3 0,0.4 0.2,31.8 24,58 54.8,61.9 2.6,0.3 5.2,0.6 7.9,0.6 3,0 6,-0.3 8.9,-0.7 27.6,-3.9 49.4,-25.9 53.2,-53.7 0.4,-2.9 0.7,-5.7 0.7,-8.6 m -2.9,0 c 0,33.1 -26.8,60 -59.9,60 -33.1,0 -59.9,-26.9 -59.9,-60 0,-33.1 26.8,-60 59.9,-60 33.1,0 59.9,26.8 59.9,60 M 98.5,41.3 c -0.2,-10 -2.4,-21 -17,-26.8 -0.4,-0.1 -0.7,-0.3 -1.1,-0.4 L 79.7,13.9 C 78.9,13.6 78.1,13.3 77,13.1 H 76.8 C 76.6,13 76.5,13 76.3,13 c -1,-0.3 -2,-0.5 -3,-0.7 h -0.2 c -0.9,-0.2 -2,-0.4 -3.1,-0.5 l -0.8,-0.1 c -0.8,-0.1 -1.7,-0.2 -2.5,-0.3 h -0.2 c -0.2,0 -0.4,0 -0.7,-0.1 -1.3,-0.1 -2.3,-0.1 -3.2,-0.1 -0.7,0 -1.5,0 -2.4,0.1 h -0.3 c -0.1,0 -0.2,0 -0.2,0 h -0.2 c -0.5,0 -1,0.1 -1.6,0.1 h -0.3 c -0.2,0 -0.3,0 -0.5,0.1 -0.6,0.1 -1.1,0.1 -1.6,0.2 h -0.3 c -0.2,0 -0.3,0 -0.5,0.1 -0.8,0.1 -1.5,0.3 -2.2,0.4 -0.2,0 -0.4,0.1 -0.6,0.1 l -0.3,0.1 c -0.4,0.1 -0.9,0.2 -1.3,0.3 -0.4,0.1 -0.8,0.2 -1.1,0.3 -0.3,0.1 -0.7,0.2 -1,0.3 -0.5,0.1 -0.9,0.3 -1.2,0.4 -0.2,0.1 -0.4,0.1 -0.6,0.2 L 46.2,14 c -1.6,0.5 -3.2,1.2 -4.7,1.9 l -0.3,0.2 c -0.5,0.2 -1,0.5 -1.6,0.8 L 39.4,17 c -0.8,0.4 -1.6,0.8 -2.4,1.3 0.6,0 1.1,-0.1 1.7,-0.1 6.2,0 12.2,2.9 16.1,7.8 3.9,-4.9 9.9,-7.8 16.1,-7.8 11.4,0 20.7,9.3 20.7,20.7 V 87 c 0,2.5 -2,4.6 -4.6,4.6 -2.5,0 -4.6,-2.1 -4.6,-4.6 V 38.5 c 0,-6.4 -5.2,-11.6 -11.6,-11.6 -6.4,0 -11.6,5.2 -11.6,11.6 V 87 c 0,2.5 -2,4.6 -4.6,4.6 C 52.1,91.6 50,89.5 50,87 V 38.5 C 50,32.1 44.8,26.9 38.4,26.9 32,26.9 26.8,32.1 26.8,38.5 v 45 c 0.2,18.2 8.4,24 16.4,27.4 0.6,0.3 1.3,0.5 2.1,0.8 0.1,0 0.1,0 0.2,0.1 h 0.1 c 0.1,0 0.1,0 0.2,0.1 0.9,0.3 1.8,0.6 2.6,0.8 l 0.2,0.1 c 0.2,0.1 0.3,0.1 0.5,0.1 1.2,0.3 2.1,0.5 2.9,0.7 h 0.1 c 0.9,0.2 1.9,0.4 3.2,0.5 l 0.8,0.1 c 0.8,0.1 1.7,0.2 2.5,0.3 h 0.6 c 0.1,0 0.2,0 0.3,0 1.3,0.1 2.3,0.1 3.3,0.1 0.7,0 1.5,0 2.4,-0.1 0.2,0 0.4,0 0.5,0 h 0.6 c 0.5,0 0.9,-0.1 1.3,-0.1 0.2,0 0.5,0 0.7,-0.1 h 0.1 c 0.5,-0.1 1,-0.1 1.6,-0.2 h 0.3 c 0.2,0 0.4,0 0.5,-0.1 0.8,-0.1 1.5,-0.3 2.2,-0.4 l 1.4,-0.3 c 0.3,-0.1 0.6,-0.1 0.8,-0.2 0.2,-0.1 0.5,-0.1 0.7,-0.2 l 0.5,-0.1 c 0.3,-0.1 0.7,-0.2 1,-0.3 l 0.5,-0.2 c 0.2,-0.1 0.5,-0.1 0.7,-0.2 0.1,-0.1 0.3,-0.1 0.5,-0.2 l 0.2,-0.1 c 1.6,-0.6 3.2,-1.2 4.7,-1.9 l 0.4,-0.2 c 0.5,-0.2 1,-0.5 1.6,-0.8 0.1,-0.1 0.2,-0.1 0.2,-0.1 0.8,-0.4 1.6,-0.9 2.4,-1.3 -0.6,0 -1.1,0.1 -1.7,0.1 -6.2,0 -12.2,-2.9 -16.1,-7.8 -3.9,4.9 -9.9,7.8 -16.1,7.8 C 43.3,107.6 34,98.3 34,86.9 V 38.4 c 0,-2.5 2,-4.6 4.6,-4.6 2.5,0 4.6,2.1 4.6,4.6 V 87 c 0,6.4 5.2,11.6 11.6,11.6 6.4,0 11.6,-5.2 11.6,-11.6 V 38.5 c 0,-2.5 2,-4.6 4.6,-4.6 2.5,0 4.6,2.1 4.6,4.6 V 87 c 0,6.4 5.2,11.6 11.6,11.6 6.4,0 11.6,-5.2 11.6,-11.6 V 41.3 M 11.2,70.9 c 0,0 0,0.1 0,0.1 v 0.1 c 0.1,0.7 0.2,1.2 0.3,1.8 0.1,0.3 0.1,0.6 0.2,0.9 0.1,0.4 0.2,0.9 0.3,1.4 l 0.1,0.3 c 0,0.2 0.1,0.4 0.2,0.6 0.2,0.7 0.4,1.3 0.6,2 0.1,0.2 0.1,0.5 0.2,0.7 l 0.1,0.3 c 0.1,0.4 0.2,0.7 0.4,1.1 0.1,0.4 0.3,0.8 0.4,1.1 0.1,0.3 0.2,0.6 0.3,0.9 v 0.1 c 0.6,1.4 1.2,2.8 1.9,4.1 l 0.1,0.3 c 0.1,0.1 0.1,0.2 0.2,0.3 0.3,0.5 0.5,0.9 0.7,1.3 l 0.3,0.5 c 0.2,0.4 0.5,0.8 0.8,1.3 V 35.6 c -0.7,1.2 -1.4,2.4 -2,3.5 l -0.1,0.2 c -0.3,0.6 -0.5,1.1 -0.8,1.6 l -0.2,0.4 c -0.7,1.5 -1.3,3.1 -1.9,4.8 l -0.1,0.2 c -0.1,0.2 -0.1,0.4 -0.2,0.6 -0.1,0.3 -0.2,0.6 -0.3,1 l -0.2,0.7 c -0.1,0.2 -0.1,0.4 -0.2,0.6 -0.1,0.4 -0.2,0.8 -0.3,1.2 -0.1,0.4 -0.2,0.9 -0.3,1.3 l -0.1,0.4 c 0,0.2 -0.1,0.3 -0.1,0.5 -0.1,0.7 -0.3,1.5 -0.4,2.2 v 0.1 c 0,0.1 0,0.3 -0.1,0.4 v 0.3 c -0.1,0.6 -0.2,1.1 -0.2,1.6 l -0.1,0.9 c -0.1,0.6 -0.1,1.1 -0.1,1.7 v 0.3 c 0,0.1 0,0.3 0,0.4 v 0.1 c 0,0.8 -0.1,1.6 -0.1,2.4 0,0.8 0,1.6 0.1,2.4 v 0.7 c 0,0.7 0.1,1.2 0.1,1.8 l 0.1,0.7 c 0.1,0.8 0.2,1.5 0.3,2.3 h 0.1 m 102.5,3.2 0.1,-0.3 c 0.1,-0.2 0.1,-0.5 0.2,-0.7 0.2,-0.8 0.3,-1.5 0.4,-2.2 0,-0.2 0.1,-0.4 0.1,-0.5 v -0.3 c 0.1,-0.6 0.1,-1.1 0.2,-1.6 v -0.1 c 0,-0.3 0,-0.5 0.1,-0.8 0.1,-0.6 0.1,-1.2 0.1,-1.7 v -0.5 c 0,-0.1 0,-0.2 0,-0.3 0,-0.9 0.1,-1.7 0.1,-2.4 0,-0.8 0,-1.5 -0.1,-2.4 0,-0.3 0,-0.5 0,-0.7 0,-0.6 -0.1,-1.3 -0.1,-1.8 v -0.1 c 0,-0.2 0,-0.3 0,-0.5 -0.1,-0.9 -0.2,-1.6 -0.3,-2.3 0,-0.1 0,-0.2 0,-0.3 0,-0.1 0,-0.1 0,-0.2 v -0.1 c -0.1,-0.6 -0.2,-1.2 -0.3,-1.8 L 114.1,52 c 0,-0.1 -0.1,-0.3 -0.1,-0.4 -0.1,-0.4 -0.2,-0.9 -0.3,-1.4 l -0.1,-0.5 c 0,-0.1 -0.1,-0.3 -0.1,-0.4 -0.2,-0.6 -0.4,-1.3 -0.6,-2 l -0.1,-0.2 c -0.1,-0.2 -0.1,-0.3 -0.1,-0.4 l -0.1,-0.4 c -0.1,-0.4 -0.2,-0.7 -0.4,-1.1 L 112,44.6 c -0.1,-0.2 -0.1,-0.3 -0.2,-0.5 -0.1,-0.2 -0.1,-0.4 -0.2,-0.5 l -0.2,-0.4 c -0.5,-1.4 -1.2,-2.8 -1.9,-4.1 l -0.3,-0.6 C 109,38 108.7,37.6 108.5,37.2 l -0.3,-0.5 c -0.2,-0.4 -0.5,-0.9 -0.8,-1.3 v 54.5 c 0.7,-1.2 1.4,-2.4 2,-3.5 0,-0.1 0.1,-0.1 0.1,-0.2 v 0 c 0.3,-0.5 0.5,-1 0.8,-1.6 0,-0.1 0.1,-0.1 0.1,-0.2 l 0.1,-0.2 c 0.7,-1.6 1.3,-3.1 1.9,-4.7 l 0.1,-0.2 c 0,-0.1 0.1,-0.2 0.1,-0.3 0,-0.1 0.1,-0.2 0.1,-0.3 0.1,-0.4 0.2,-0.7 0.3,-1.1 l 0.1,-0.2 c 0.1,-0.3 0.2,-0.6 0.2,-0.8 l 0.1,-0.5 c 0.1,-0.3 0.2,-0.6 0.2,-0.9 -0.1,-0.3 0,-0.7 0.1,-1.1"
   id="path1" />&#10;</svg>
