<svg width="1664" height="500" viewBox="0 0 1664 500" fill="none" xmlns="http://www.w3.org/2000/svg">
<path fill-rule="evenodd" clip-rule="evenodd" d="M430.808 250.5V494H439.3H447.792V250.5V7H439.3H430.808V250.5ZM172.155 37.3943C168.262 37.703 162.132 38.1921 158.532 38.4794L151.986 39.0032V63.7256C151.986 82.8623 151.786 88.518 151.101 88.7622C150.615 88.9363 146.077 89.7164 141.017 90.4964C135.957 91.2765 128.553 92.6617 124.564 93.5749L117.31 95.2362V70.6498V46.0633L109.349 48.5564C97.4168 52.2931 86.6262 56.628 73.7169 62.8705L62.1118 68.4823V119.77V171.056L65.1194 173.725C66.7739 175.192 72.0369 180.203 76.8151 184.86L85.5031 193.327L82.1601 250.404L78.8178 307.482L69.4029 317.069L59.9888 326.656V360.277V393.899L63.0431 396.897L66.0967 399.894L71.7121 397.313C85.3715 391.033 98.6226 387.339 113.213 385.743C138.696 382.956 166.449 388.994 195.777 403.707L203.646 407.654V365.322V322.99L197.631 315.412L191.615 307.834V248.839V189.845L203.383 171.658C209.854 161.654 215.258 153.579 215.391 153.712C215.524 153.845 213.475 161.608 210.838 170.964L206.043 187.974L222.093 187.644C231.842 187.443 241.305 187.639 246.194 188.143C257.069 189.265 273.103 192.569 282.455 195.615C286.683 196.992 290.453 198.119 290.832 198.119C291.21 198.119 296.747 193.297 303.135 187.402L314.75 176.685V146.089V115.492L305.374 111.569C294.256 106.917 277.414 101.399 265.176 98.3981C256.061 96.1635 236.564 92.6539 233.249 92.6511C228.878 92.6476 229.122 94.2431 229.122 65.7189V39.6481L226.114 39.2298C212.621 37.3554 184.629 36.4034 172.155 37.3943ZM263.964 67.88L264.152 88.5746L272.644 90.9027C282.935 93.7235 292.26 96.9287 304.489 101.847C309.549 103.882 314.092 105.707 314.585 105.903C315.297 106.186 315.442 102.293 315.292 86.8899L315.104 67.5211L302.974 61.4527C291.65 55.7878 273.695 49.0179 266.441 47.6779L263.776 47.186L263.964 67.88ZM934.434 86.9947C932.941 87.2679 930.871 88.3403 929.834 89.3788C928.216 90.9969 927.947 91.8619 927.947 95.4401C927.947 98.8908 928.246 99.9328 929.673 101.453C933.386 105.406 939.91 105.545 944.216 101.763C947.354 99.0069 948.033 95.8004 946.242 92.1953C944.004 87.6898 940.079 85.9612 934.434 86.9947ZM1206.81 87.0443C1202.64 87.75 1200.05 90.9657 1200.05 95.4379C1200.05 98.1369 1200.45 99.3948 1201.87 101.077C1205.59 105.503 1212.61 105.707 1216.8 101.513C1218.85 99.467 1219.15 98.6954 1219.15 95.5632C1219.15 89.1805 1214.24 85.7864 1206.81 87.0443ZM1474.55 87.0117C1462.35 88.4366 1455.83 95.2949 1454.99 107.571L1454.61 113.11L1450.99 113.321L1447.38 113.531L1447.17 119.725L1446.97 125.919H1450.89H1454.81V154.94V183.962H1464.01H1473.21V154.94V125.919H1479.6H1486L1485.8 119.725L1485.59 113.531L1479.3 113.325L1473.01 113.119L1473.43 109.12C1474.11 102.518 1477.11 99.7572 1483.64 99.7388L1487.36 99.7282V93.446V87.1639L1485.15 86.7215C1482.6 86.2125 1481.01 86.2557 1474.55 87.0117ZM611.264 135.828V183.962H620.464H629.663V155.408V126.854L631.61 125.933C632.68 125.427 635.944 124.867 638.863 124.69C643.586 124.403 644.442 124.552 646.637 126.049C650.903 128.957 650.872 128.726 650.883 157.595L650.894 183.962H660.093H669.293V157.193C669.293 127.715 669.091 125.98 665.026 120.45C659.321 112.69 643.56 109.891 631.61 114.513L629.663 115.265V101.48V87.6948H620.464H611.264V135.828ZM545.451 101.498V108.93H554.65H563.85V146.446V183.962H573.404H582.957V146.446V108.93H592.157H601.357V101.498V94.0654H573.404H545.451V101.498ZM779.128 129.651L779.336 165.237L781.643 169.923C785.761 178.287 793.28 183.137 804.583 184.719C820.221 186.907 835.022 180.513 839.912 169.457C842.296 164.067 842.734 156.578 842.522 124.857L842.318 94.4193H832.765H823.211L822.857 128.396C822.519 160.953 822.443 162.475 821.064 164.825C818.921 168.472 815.554 170.157 810.473 170.126C805.284 170.094 802.348 168.655 800.104 165.044L798.443 162.373L798.24 128.219L798.037 94.0654H788.479H778.92L779.128 129.651ZM1247.46 96.453L1239.32 98.6664L1239.12 105.922L1238.92 113.177H1235.05H1231.18V119.548V125.919H1235.08H1238.97V147.379C1238.97 171.333 1239.37 174.166 1243.42 178.781C1246.85 182.693 1250.84 184.145 1259.14 184.51C1263.03 184.681 1267.33 184.529 1268.69 184.172L1271.17 183.522L1271.37 177.624L1271.58 171.727L1267.82 172.169C1263.39 172.69 1259.69 171.222 1258.27 168.39C1257.63 167.099 1257.38 161.108 1257.38 146.269L1257.37 125.919H1263.03H1268.69V119.548V113.177H1263.03H1257.37V103.621C1257.37 96.402 1257.15 94.0867 1256.48 94.1525C1256 94.1999 1251.94 95.2348 1247.46 96.453ZM705.185 112.567C688.792 114.267 678.852 127.773 678.949 148.216C679.047 168.921 687.74 180.89 705.291 184.486C712.36 185.934 723.842 184.989 731.463 182.33C734.324 181.332 736.857 180.324 737.09 180.09C737.484 179.696 734.639 170.631 733.586 168.928C733.269 168.415 731.431 168.722 727.92 169.872C720.639 172.257 709.95 172.313 705.602 169.989C701.946 168.034 699.213 164.551 697.894 160.169C695.942 153.683 693.994 154.233 718.921 154.233H740.95L740.439 146.339C739.623 133.761 737.376 126.934 732.203 121.32C725.48 114.025 717.151 111.326 705.185 112.567ZM877.702 112.489C871.343 112.979 860.098 115.343 857.494 116.738C856.161 117.451 856.118 118.513 856.118 150.718V183.962H865.318H874.517V154.982C874.517 133.038 874.725 125.873 875.376 125.472C877.204 124.341 887.55 124.311 890.224 125.429C895.308 127.554 895.366 127.901 895.61 157.595L895.827 183.962H905.039H914.25L914.02 156.533C913.793 129.375 913.774 129.067 912.101 125.361C909.037 118.573 901.686 113.801 892.8 112.829C885.539 112.035 884.024 112.001 877.702 112.489ZM1051.42 112.506C1039.74 113.853 1031.52 120.306 1027.37 131.388C1021.5 147.095 1025.05 168.08 1035.09 177.015C1043.49 184.492 1057.3 187.026 1072.26 183.835C1075.72 183.096 1083.28 180.114 1083.28 179.486C1083.28 179.318 1082.85 178.106 1082.33 176.793C1081.81 175.48 1080.84 172.917 1080.17 171.096L1078.96 167.786L1076.34 168.901C1069.43 171.846 1058.87 172.741 1053.47 170.837C1047.73 168.813 1044.45 164.37 1042.64 156.179L1042.21 154.233H1064.16H1086.11L1086.11 148.393C1086.09 132.672 1081.83 122.698 1072.58 116.715C1066.81 112.986 1059.63 111.558 1051.42 112.506ZM1161.48 112.466C1149.62 113.792 1142.02 121.679 1142.02 132.656C1142.02 143.596 1145.74 148.507 1158.64 154.569C1165.03 157.572 1167.05 158.874 1168.18 160.728C1169.98 163.68 1169.99 165.993 1168.23 168.877C1165.85 172.792 1157.18 173.868 1149.8 171.164C1147.66 170.38 1145.43 169.578 1144.85 169.382C1144.06 169.119 1143.24 170.45 1141.71 174.462C1139.69 179.766 1139.67 179.924 1140.99 180.891C1144.64 183.559 1157.06 185.748 1164.66 185.063C1171.9 184.41 1177.24 181.921 1181.57 177.191C1185.57 172.814 1187.02 168.645 1186.81 162.187C1186.56 154.88 1183.02 148.764 1176.67 144.691C1175.3 143.811 1171.4 141.894 1167.99 140.432C1159.13 136.624 1156.7 133.182 1159.3 128.145C1159.86 127.072 1161.15 125.814 1162.17 125.349C1165.27 123.935 1172.32 124.341 1176.82 126.19L1180.84 127.843L1183.05 122.893C1184.27 120.171 1185.11 117.539 1184.92 117.045C1184.41 115.72 1177.27 113.246 1172.61 112.783C1170.38 112.561 1167.92 112.293 1167.14 112.186C1166.36 112.079 1163.81 112.205 1161.48 112.466ZM1402.63 112.534C1385.91 114.635 1376.05 129.533 1377.18 150.996C1377.62 159.46 1378.83 164.41 1381.94 170.513C1387.35 181.147 1399.96 186.929 1413.03 184.771C1429.38 182.071 1438.51 169.097 1438.51 148.57C1438.51 123.648 1424.68 109.763 1402.63 112.534ZM1117.6 112.886C1112.25 113.643 1106.75 114.822 1102.63 116.095L1098.14 117.481V150.722V183.962H1107.34H1116.54V154.972V125.983L1119.06 125.51C1120.44 125.25 1124.23 125.177 1127.47 125.347L1133.36 125.656L1134.6 119.748C1135.28 116.498 1135.67 113.67 1135.46 113.463C1134.97 112.97 1120.34 112.497 1117.6 112.886ZM927.593 148.57V183.962H936.792H945.992V148.57V113.177H936.792H927.593V148.57ZM955.933 113.708C955.953 114 961.317 129.847 967.855 148.924L979.742 183.608L988.631 183.806L997.52 184.003L1009.01 149.475C1015.33 130.485 1020.65 114.549 1020.83 114.062C1021.08 113.383 1019 113.177 1011.88 113.177C1006.78 113.177 1002.61 113.28 1002.61 113.405C1002.61 113.53 999.885 123.147 996.559 134.775C993.233 146.404 990.323 157.291 990.093 158.969C989.863 160.646 989.438 162.019 989.148 162.019C988.858 162.019 988.251 160.506 987.801 158.657C987.35 156.808 984.393 145.818 981.229 134.236L975.476 113.177H965.688C960.304 113.177 955.915 113.417 955.933 113.708ZM1200.05 148.57V183.962H1209.25H1218.45V148.57V113.177H1209.25H1200.05V148.57ZM1282.84 139.973C1282.84 162.984 1283.01 167.327 1284.01 170.429C1287.93 182.571 1303.06 187.075 1320.99 181.442L1322.7 180.907L1322.22 186.02C1321.6 192.669 1319.77 196.227 1315.92 198.281C1311.72 200.515 1300.1 200.488 1293.84 198.23C1291.53 197.394 1289.43 196.947 1289.18 197.237C1288.07 198.547 1285.6 206.824 1286.16 207.381C1287.58 208.804 1295.73 210.981 1302.48 211.744C1314.04 213.049 1323.05 211.229 1330.5 206.087C1333.98 203.68 1336.82 199.531 1338.88 193.813C1340.52 189.277 1340.52 189.219 1340.52 151.401V113.531L1331.5 113.333L1322.47 113.135V141.152V169.17L1319.82 170.363C1316.28 171.955 1308.73 171.92 1305.69 170.299C1301.62 168.13 1301.63 168.164 1301.24 139.722L1300.89 113.531L1291.87 113.333L1282.84 113.135V139.973ZM714.783 124.766C719.385 126.727 721.923 131.1 722.762 138.513L723.259 142.907H709.722H696.184V140.204C696.184 136.547 697.967 130.789 699.835 128.414C703.29 124.021 709.487 122.508 714.783 124.766ZM1062.63 125.825C1065.88 128.139 1067.86 132.469 1068.27 138.129L1068.61 142.907H1055.34H1042.07L1042.36 138.412C1042.73 132.466 1045.24 127.545 1049 125.359C1052.73 123.19 1059.24 123.413 1062.63 125.825ZM1414.05 126.66C1415.57 127.994 1416.95 130.166 1417.68 132.359C1420.12 139.727 1420.3 155.622 1418.03 164.054C1416.46 169.881 1410.81 174.051 1405.92 172.979C1402.56 172.239 1399.15 168.786 1397.71 164.64C1396.66 161.641 1396.42 158.723 1396.42 148.924C1396.42 134.812 1397.17 131.301 1401.03 127.239C1403.45 124.696 1403.92 124.503 1407.61 124.503C1411.04 124.503 1411.93 124.803 1414.05 126.66ZM136.881 207.548C138.135 208.918 139.332 211.1 139.539 212.396C139.891 214.602 142.808 290.471 142.793 297.041L142.786 300.049H130.756H118.725L118.753 294.564C118.769 291.546 119.364 271.702 120.077 250.465C121.186 217.416 121.543 211.522 122.56 209.556C125.483 203.903 132.623 202.902 136.881 207.548ZM243.285 205.267C239.911 205.989 237.099 209.308 236.635 213.116C236.245 216.309 234.03 286.972 234.059 295.271L234.076 300.049H245.752H257.429L257.44 297.395C257.447 295.935 256.791 276.425 255.983 254.039C254.43 211.016 254.135 208.26 250.9 206.528C248.313 205.142 245.805 204.728 243.285 205.267ZM967.222 231.512C960.722 233.359 956.868 239.252 957.513 246.358C957.986 251.572 960.028 254.91 964.276 257.408C967.092 259.064 968.355 259.346 972.884 259.332C981.383 259.306 986.774 255.495 988.372 248.385C990.972 236.807 979.84 227.925 967.222 231.512ZM1241.8 315.976V397.733H1255.6H1269.4V347.819V297.905L1271.7 296.484C1276.58 293.467 1283.07 292.083 1290.84 292.399C1298.74 292.721 1302.04 293.901 1305.63 297.684C1310.23 302.533 1310.07 300.669 1310.29 351.545L1310.49 397.733H1324.27H1338.04L1338.04 352.961C1338.03 326.401 1337.74 306.318 1337.32 303.589C1336.26 296.801 1331.84 288.231 1327.25 284.078C1319.66 277.222 1310.25 274.221 1296.64 274.318C1287.34 274.384 1281.03 275.375 1273.3 277.984L1269.4 279.302V256.761V234.219H1255.6H1241.8V315.976ZM558.661 241.77C558.401 242.029 558.189 277.227 558.189 319.987V397.733H571.635H585.08L585.042 344.821C585.021 315.72 584.734 289.361 584.405 286.246C584.076 283.132 583.9 280.485 584.014 280.364C584.128 280.244 586.151 284.066 588.51 288.858C590.868 293.651 606.12 320.028 622.403 347.475L652.009 397.379L664.189 397.573L676.37 397.766V319.517V241.267L663.101 241.459L649.832 241.652L649.65 289.894C649.55 316.427 649.722 341.034 650.033 344.575C650.344 348.117 650.423 351.015 650.209 351.015C649.995 351.015 648.511 348.182 646.912 344.719C645.313 341.256 631.149 316.57 615.436 289.861L586.866 241.298H573C565.372 241.298 558.92 241.51 558.661 241.77ZM830.996 247.183L818.258 250.854L818.064 263.064L817.871 275.275H811.164H804.458V284.123V292.971H811.13H817.801L818.088 333.495C818.327 367.072 818.56 374.626 819.449 377.559C824.295 393.55 835.284 399.853 856.796 398.98C861.795 398.777 866.235 398.394 866.663 398.13C867.16 397.822 867.441 394.481 867.441 388.843V380.036L860.895 380.025C853.025 380.011 849.692 378.534 847.334 374.02C845.896 371.263 845.851 370.152 845.647 332.08L845.436 292.971H855.377H865.318V284.123V275.275H855.41H845.503V259.348C845.503 247.054 845.301 243.432 844.618 243.467C844.132 243.492 838.002 245.164 830.996 247.183ZM903.355 247.16L890.794 250.738V263.006V275.275H884.071H877.348V284.123V292.971H884.071H890.794V332.16C890.794 355.238 891.085 372.917 891.501 375.162C892.582 380.996 896.695 388.76 900.245 391.671C907.367 397.507 915.773 399.573 929.855 398.947C934.819 398.726 939.208 398.343 939.606 398.097C940.037 397.83 940.331 394.108 940.331 388.907V380.165L932.95 379.924C924.983 379.663 923.337 379.002 920.206 374.81C918.779 372.898 918.743 371.991 918.547 332.913L918.348 292.971H928.278H938.208V284.123V275.275H928.3H918.393V259.348C918.393 244.621 918.3 243.428 917.155 243.502C916.473 243.545 910.264 245.192 903.355 247.16ZM735.275 273.889C707.296 278.914 692.077 303.272 693.546 340.675C694.392 362.236 700.32 377.584 711.891 388.177C720.663 396.206 731.014 399.856 745.014 399.856C760.349 399.856 769.953 396.134 779.709 386.407C791.248 374.904 796.662 359.312 796.667 337.565C796.676 303.541 783.533 281.383 759.521 274.941C754.404 273.568 740.434 272.962 735.275 273.889ZM1045.42 273.623C1034.81 274.502 1021.28 277.513 1011.81 281.106L1007.21 282.85L1007.02 340.291L1006.84 397.733H1020.65H1034.45V345.82V293.906L1036.33 293.052C1042.21 290.372 1051.87 289.483 1059.61 290.913C1064.78 291.87 1066.95 292.967 1070.11 296.219C1075.19 301.452 1075.06 300.03 1075.33 351.545L1075.58 397.733H1088.98H1102.39V350.735C1102.39 305.078 1102.34 303.599 1100.91 298.885C1096.67 284.991 1085.83 276.905 1067.79 274.185C1061.58 273.249 1052.65 273.024 1045.42 273.623ZM1166.43 274.216C1142.25 278.167 1127.33 293.185 1121.78 319.161C1120.05 327.267 1120.04 345.88 1121.77 354.817C1126.28 378.112 1139.49 393.482 1158.43 397.464C1168.32 399.544 1183.47 398.53 1191.29 395.265L1193.86 394.191L1193.51 402.155C1193.1 411.719 1191.49 416.563 1187.29 420.943C1181.87 426.577 1175.21 428.857 1164.1 428.869C1155.81 428.879 1148.52 427.562 1140.35 424.579C1137.24 423.444 1134.65 422.594 1134.59 422.689C1133.48 424.525 1127.39 439.28 1127.6 439.626C1127.76 439.893 1130.42 441.088 1133.52 442.283C1149.58 448.479 1171.74 450.115 1186.95 446.229C1199.2 443.101 1209.97 434.82 1215.08 424.601C1220.47 413.845 1220.16 418.32 1220.4 346.262L1220.61 281.696L1217.81 280.266C1206.71 274.6 1181.94 271.683 1166.43 274.216ZM1388.19 274.241C1384.83 274.764 1380.11 275.704 1377.7 276.329C1371.62 277.905 1361.39 281.664 1361.39 282.324C1361.39 282.859 1367.02 298.123 1367.34 298.443C1367.43 298.533 1369.76 297.659 1372.51 296.501C1380.64 293.084 1389.02 291.365 1397.84 291.304C1407.2 291.24 1412.16 292.528 1416.35 296.114C1420.26 299.458 1421.66 303.192 1422.08 311.402L1422.43 318.154L1414.03 317.124C1399.84 315.384 1386.82 317.309 1375.59 322.807C1365.18 327.907 1357.54 337.303 1354.68 348.509C1353.29 353.968 1353.29 365.77 1354.68 371.095C1357.57 382.202 1364.41 390.457 1374.84 395.44C1382.74 399.213 1389.36 400.635 1401.15 401.091C1416.61 401.689 1433.53 399.178 1444.55 394.651L1448.79 392.905L1448.76 350.901C1448.73 303.99 1448.64 302.968 1443.85 293.222C1439.86 285.129 1432.57 279.243 1422.22 275.764C1414.41 273.138 1399.54 272.472 1388.19 274.241ZM1501.87 273.916C1494.34 274.948 1482.74 277.914 1476.04 280.522L1470.02 282.862L1469.84 340.297L1469.66 397.733H1483.46H1497.27V345.757V293.781L1501.34 292.177C1504.67 290.866 1506.82 290.568 1513.19 290.542C1522.87 290.503 1526.21 291.448 1530.07 295.315C1535.23 300.496 1535.04 298.501 1535.3 350.838L1535.54 397.733H1549.35H1563.16L1562.91 350.484C1562.72 316.593 1562.42 302.547 1561.82 300.8C1560.74 297.68 1561.66 296.591 1567.97 293.484C1572.3 291.349 1573.09 291.201 1580.07 291.201C1586.69 291.201 1587.93 291.407 1591.05 293.01C1594.9 294.995 1598.63 299.333 1599.99 303.429C1600.65 305.389 1600.94 317.832 1601.12 351.899L1601.36 397.733H1615.18H1629L1628.72 350.838C1628.41 299.104 1628.5 300.228 1623.8 291.406C1621.13 286.383 1614.76 280.301 1609.64 277.884C1594.55 270.754 1569.95 271.986 1555.77 280.582L1551.65 283.082L1549.76 281.747C1546.12 279.18 1540.26 276.586 1534.88 275.167C1528.56 273.496 1510.04 272.794 1501.87 273.916ZM959.438 336.504V397.733H973.237H987.037V336.504V275.275H973.237H959.438V336.504ZM756.304 292.512C761.663 296.059 765.054 302.39 767.53 313.474C768.482 317.738 768.717 322.498 768.704 337.211C768.688 353.841 768.535 356.216 767.116 361.843C764.042 374.04 758.738 381.102 751.318 382.883C741.987 385.122 734.105 380.763 729.529 370.834C726.265 363.755 725.181 357.217 724.714 341.801C723.843 313.081 728.207 297.493 738.645 292.039C742.175 290.194 743.044 290.033 747.983 290.307C752.396 290.551 753.975 290.97 756.304 292.512ZM1191.15 291.843L1193.69 292.904L1193.51 334.873L1193.32 376.843L1189.23 378.469C1180.8 381.814 1170 381.173 1163.27 376.928C1155.81 372.226 1151.39 363.145 1149.86 349.406C1147.46 327.923 1151.13 308.434 1159.39 298.78C1162.34 295.336 1167.05 292.381 1171.69 291.058C1175.78 289.892 1187.63 290.37 1191.15 291.843ZM1414.47 332.622C1417 333.013 1419.79 333.494 1420.66 333.692L1422.25 334.053V358.318V382.583L1419.95 383.388C1415.37 384.992 1408.69 385.877 1403.64 385.553C1390.74 384.725 1382.77 376.731 1381.21 363.061C1378.77 341.676 1392.38 329.218 1414.47 332.622ZM102.803 399.888C82.1318 401.233 64.6446 407.012 48.3122 417.895C38.828 424.215 25.9951 436.821 18.9135 446.776L16 450.871L20.4796 448.313C27.949 444.048 41.5434 437.634 48.7432 434.977C70.5458 426.933 94.2584 423.45 114.479 425.321C135.585 427.274 150.578 432.042 176.58 445.071C194.608 454.105 209.079 459.224 224.168 461.908C233.826 463.625 256.372 463.645 264.312 461.942C292.237 455.957 312.176 443.298 332.413 418.705C333.013 417.976 330.798 419.315 327.491 421.68C316.09 429.834 302.261 435.954 288.897 438.762C279.587 440.72 263.816 441.369 252.922 440.244C235.783 438.475 222.628 434.193 198.338 422.478C168.471 408.071 146.144 401.298 124.874 400.189C120.909 399.983 116.072 399.717 114.126 399.598C112.179 399.479 107.084 399.61 102.803 399.888Z" fill="#00557E"/>
</svg>
