<?xml version="1.0" encoding="utf-8"?>
<!-- Generator: Adobe Illustrator 22.1.0, SVG Export Plug-In . SVG Version: 6.00 Build 0)  -->
<svg version="1.1" id="Layer_1" xmlns="http://www.w3.org/2000/svg" xmlns:xlink="http://www.w3.org/1999/xlink" x="0px" y="0px"
	 width="299.66px" height="300.5px" viewBox="0 0 299.66 300.5" enable-background="new 0 0 299.66 300.5" xml:space="preserve">
<g>
	<path fill="#FFFFFF" d="M290.6,150.25c0,77.74-63.03,140.77-140.78,140.77c-77.74,0-140.78-63.03-140.78-140.77
		C9.05,72.5,72.08,9.47,149.83,9.47C227.58,9.47,290.6,72.5,290.6,150.25"/>
	<path fill="#223C8A" d="M299.4,154.63c-0.1-4.08-0.8-5.92-1.53-6.78c-0.02-1.25-0.08-2.49-0.13-3.74c1.18-3.97,1.2-8.64,0.45-12.91
		c-0.73-4.05-1.7-5.75-2.56-6.48c-0.19-1.08-0.41-2.16-0.62-3.24c0.58-4.21-0.23-8.98-1.73-13.17c-1.28-3.59-2.46-5.16-3.4-5.83
		c-0.39-1.11-0.81-2.22-1.22-3.34c0.01-4.28-1.49-8.95-3.62-12.93c-2.07-3.88-3.6-5.12-4.66-5.46c-0.55-1.04-1.13-2.05-1.72-3.08
		c-0.84-4.03-3.05-8.13-5.69-11.51c-2.12-2.73-3.62-3.91-4.71-4.36c-0.67-0.9-1.37-1.78-2.08-2.67c-1.33-4.19-4.38-8.26-7.79-11.43
		c-2.93-2.74-4.72-3.53-5.85-3.64c-0.67-0.65-1.35-1.31-2.04-1.94c-1.93-4.15-5.68-7.91-9.44-10.52c-4-2.78-5.91-2.96-6.93-2.63
		c-0.33-0.23-0.65-0.47-0.98-0.69c-2.49-3.97-7-7.21-11.56-9.32c-4.15-1.91-6.09-1.91-7.11-1.5c-0.67-0.33-1.33-0.66-2.01-0.98
		c-3.03-3.61-7.99-6.18-12.85-7.63c-5.22-1.56-6.98-0.87-7.71-0.14c-0.26-0.07-0.52-0.16-0.78-0.24c-3.55-3.34-9.06-5.26-14.31-5.94
		c-5.95-0.76-7.31,0.48-7.77,1.36c-0.13-0.02-0.24-0.04-0.37-0.05c-4.22-2.9-10.34-3.85-15.6-3.54c-5.28,0.3-6.73,1.49-7.2,2.42
		c-0.24,0.01-0.48,0-0.72,0.01c-4.27-1.86-9.78-2.02-14.72-1.19c-5.73,0.96-6.81,2.47-7.05,3.45c-0.26,0.05-0.52,0.08-0.78,0.13
		c-4.82-1.62-10.95-0.74-16.17,1.21c-5.35,2-6.17,3.67-6.24,4.69c-4.92-0.64-10.63,1.2-15.33,3.86c-4.69,2.65-5.45,4.4-5.44,5.44
		c-5.04-0.1-10.6,2.55-15,5.89c-5.59,4.25-4.78,6.07-4.42,6.85l0.01,0.03c-4.99,0.79-9.99,4.42-13.71,8.51
		c-3.66,4.01-3.81,5.88-3.48,6.86c-0.1,0.1-0.2,0.19-0.29,0.29c-4.81,1.65-9.14,6.14-12.09,10.87c-2.46,3.92-2.67,5.86-2.38,6.91
		c-0.11,0.17-0.22,0.32-0.33,0.49c-4.39,2.37-7.94,7.28-10.17,12.24c-2.13,4.77-1.81,6.65-1.22,7.52c-0.03,0.05-0.06,0.1-0.08,0.15
		c-4.29,3-7.1,8.84-8.45,14.45c-1.06,4.38-0.7,6.31-0.11,7.24c-3.36,3.63-5.16,9.31-5.73,14.65c-0.56,5.26,0.37,6.91,1.2,7.54
		c-0.09,0.69-0.16,1.39-0.24,2.09c-2.05,4-2.76,9.13-2.46,13.9c0.22,3.48,0.81,5.3,1.46,6.29c0.01,0.61,0,1.21,0.01,1.81
		c-2,4.4-2.08,10.16-1.09,15.3c1.02,5.3,2.43,6.58,3.42,6.91c0.06,0.34,0.1,0.69,0.17,1.02c-1.22,4.61-0.44,10.21,1.26,15.05
		c1.84,5.2,3.44,6.17,4.47,6.31c0.01,0.01,0.01,0.03,0.01,0.04c-0.65,4.88,1.12,10.55,3.71,15.23c2.65,4.8,4.39,5.51,5.42,5.49
		c0.1,0.18,0.18,0.36,0.29,0.54c0.2,4.97,2.9,10.34,6.03,14.34c3.32,4.25,5.14,4.72,6.16,4.55c0.14,0.18,0.26,0.37,0.4,0.54
		c0.97,4.77,4.37,9.5,8.23,13.09c3.73,3.45,5.61,3.84,6.64,3.61c0.23,0.23,0.48,0.45,0.72,0.68c1.76,4.44,5.8,8.5,10.1,11.37
		c3.88,2.61,5.8,2.87,6.85,2.58c0.45,0.32,0.91,0.64,1.37,0.97c2.41,4.1,6.97,7.47,11.59,9.68c4.59,2.19,6.5,1.97,7.4,1.43
		c0.66,0.32,1.31,0.67,1.97,0.98c3.06,3.29,7.76,5.67,12.34,7.02c4.28,1.25,6.21,1.02,7.17,0.49c0.66,0.2,1.3,0.43,1.96,0.62
		c3.51,2.62,8.29,4.21,12.88,4.81c4.19,0.55,6.09,0.1,7.02-0.53c0.96,0.14,1.91,0.32,2.87,0.43c3.95,2.11,9.04,2.93,13.8,2.73
		c4.03-0.18,5.85-0.89,6.71-1.62c0.79-0.01,1.61,0,2.4-0.02c4.28,1.67,9.67,1.69,14.5,0.78c4.55-0.87,6.12-2.01,6.69-2.94
		c0.94-0.15,1.87-0.32,2.8-0.51c4.24,0.55,9.05-0.34,13.26-1.93c2.95-1.11,4.51-2.11,5.34-2.97c1.24-0.41,2.46-0.85,3.68-1.29
		c4.42-0.01,9.25-1.7,13.31-4.05c2.91-1.68,4.28-2.99,4.9-3.99c1.04-0.54,2.05-1.12,3.07-1.69c4.13-0.8,8.34-3.07,11.82-5.77
		c2.67-2.08,3.85-3.56,4.33-4.65c1.48-1.1,2.96-2.21,4.41-3.37c3.53-1.58,6.91-4.26,9.6-7.21c1.69-1.83,2.63-3.22,3.12-4.28
		c1.28-1.29,2.54-2.6,3.76-3.94c3.45-2.11,6.51-5.46,8.81-8.96c1.39-2.11,2.08-3.62,2.39-4.75c1.14-1.59,2.24-3.2,3.33-4.84
		c3.12-2.58,5.68-6.35,7.46-10.16c1.33-2.82,1.75-4.6,1.75-5.79c0.73-1.46,1.42-2.93,2.1-4.41c2.73-3.03,4.74-7.16,5.94-11.23
		c1.03-3.46,1.06-5.38,0.76-6.51c0.51-1.67,1.02-3.34,1.47-5.04c1.96-3.23,3.19-7.22,3.75-11.07c0.51-3.56,0.28-5.46-0.18-6.53
		c0.18-1.34,0.38-2.68,0.54-4.03C298.74,163.69,299.5,159.02,299.4,154.63z M149.1,253.01c-57,0-103.21-46.21-103.21-103.21
		S92.1,46.6,149.1,46.6c57.01,0,103.22,46.2,103.22,103.2S206.1,253.01,149.1,253.01z M211.27,116.69c1.36-0.01,4.03-0.01,4.03-0.01
		c2.75,0,4.99-2.3,4.99-5.13c0-0.01-0.05-6.34-0.07-8.44c0.65-0.34,2.55-1.35,2.55-1.35l-5.01-11.54l-1.05,2.35l-4,9.18
		c0,0,1.92,1.01,2.56,1.35v6.64c0,0.59-0.84,1.25-2.04,1.25c-1.31,0-2.3-0.47-2.3-0.89c0,0-0.02-14.13-0.02-15.36
		c0.64-0.34,2.55-1.35,2.55-1.35l-5.02-11.55l-1.06,2.35l-3.98,9.19c0,0,1.91,1,2.56,1.34v15.41c0,0.48-0.98,0.86-2.16,0.86
		c-1.19,0-2.03-0.66-2.03-1.25v-6.35c0.65-0.34,2.55-1.34,2.55-1.34l-5.01-11.55l-1.05,2.34l-4,9.2c0,0,1.93,1.01,2.56,1.34
		c0.01,1.14,0.07,8.13,0.07,8.13c0,2.82,2.24,5.13,4.99,5.13c0,0,2.16,0.03,3.51,0.05v7.79c-0.47-0.47-0.75-0.75-0.75-0.75
		c-4.08,2.6-8.92,5.87-15.05,7.26l-0.74-0.36l-8.16-3.96c0,0-1.13,0.7-1.54,0.96c-0.54-0.12-6.5-1.49-10.78-2.48
		c4.4-0.15,10.09-0.34,10.51-0.36c0.32,0.31,1.25,1.25,1.25,1.25l12.27-2.81l-3.59-0.82l-8.69-1.99l-0.33,0.33
		c0,0-0.62,0.62-0.93,0.92h-10.76c0.08-0.26,0.15-0.51,0.21-0.72c2.9-0.7,11.43-2.75,12.02-2.89c0.35,0.26,1.38,0.99,1.38,0.99
		l9.67-5.23l-3.16-0.09l-7.85-0.19l-0.24,0.47c0,0-0.33,0.65-0.54,1.03c-0.7,0.18-12.99,3.12-12.99,3.12l0.04,0.16l-1.31-1.21
		c-1.11-4.74-6.25-6.78-6.5-6.87c0.04,0.02-0.2-0.08-0.44-0.18c-0.02-1.47-0.12-2.98-0.32-4.33c0.67,0.16,1.32,0.32,1.82,0.12
		c0.41-0.17,0.44-0.55,0.67-0.84c2.84,1.03,5.05,1.17,6.43,0.2c0.93-0.67,1.2-1.51,1.32-2.18c3.04,0.28,5.35-0.28,6.81-1.74
		c1.42-1.42,1.63-3.26,1.63-4.22c0-0.18-0.01-0.21-0.02-0.32c1.75-1.92,2.08-4.29,2.1-5.32c1.93-2.02,2.35-4.24,2.43-4.85
		c2.39-1.99,3.14-4.36,3.31-5.33c0.01-0.01,0.02-0.29,0.04-0.57l0.03,0.01c0,0,0.04-0.21,0.07-0.42c2.88-2.24,3.75-4.64,3.96-5.47
		c7.81-3.48,8.06-8.27,8.07-8.48l0.01-0.83l-1.42-0.01c-16.42-0.28-28.58,3.78-34.25,11.41c-1.17,3.6-0.97,6.75-0.81,9.06l0.08,1.77
		c0,0.15,0,0.27-0.4,0.43l-0.06,0.03c0,0-1.28,0.2-1.41,0.21c-0.56-0.31-1.65-0.89-1.65-0.89l0.44,0.22
		c-0.79-0.8-1.59-2.68-2.13-5.04c-0.78-7.51-4.65-9.24-6.89-9.58c-2.16-0.34-4.17,0.34-4.97,1.2c-2.31-0.64-4.05,0.79-4.66,1.8
		c0,0-0.29,0.47-0.45,0.72c-5.88-5.85-16.3-12.25-33.89-11.37l-1.57,0.07l-0.01,0.81c0,0.21,0.27,5.19,8.51,8.67
		c0.15,0.67,1,3.39,4.31,5.82c0.04,0.62,0.5,3.41,3.39,5.79c0.08,0.63,0.52,2.74,2.41,4.69c0.01,0.95,0.4,3.34,2.1,5.32
		c-0.01,0.11-0.02,0.19-0.02,0.45c0,0.95,0.21,2.77,1.6,4.19c1.45,1.47,3.75,2.05,6.8,1.77c0.1,0.71,0.34,1.59,1.25,2.27
		c1.36,1.03,3.6,0.9,6.55-0.23c0.24,0.31,0.27,0.69,0.67,0.88c0.49,0.23,1,0.19,1.5,0.12c-0.2,1.38-0.42,2.92-0.5,3.49
		c-2.44,1.11-7.03,3.78-7.57,8.28l-0.36,0.35l0.08-0.33c0,0-12.3-2.95-13-3.12c-0.19-0.39-0.77-1.5-0.77-1.5l-0.52,0.01l-10.47,0.26
		l2.76,1.5l6.9,3.73c0,0,1.03-0.73,1.39-0.99c0.7,0.17,12.98,3.12,12.98,3.12s0.04-0.12,0.07-0.29c0.1,0.25,0.2,0.51,0.32,0.79
		h-11.92c-0.31-0.32-1.26-1.27-1.26-1.27l-0.45,0.1l-11.82,2.71l3.57,0.82l8.68,1.99c0,0,0.96-0.95,1.25-1.26h12.13
		c-4.2,0.98-11.77,2.72-12.38,2.86c-0.42-0.26-1.54-0.97-1.54-0.97l-8.01,3.89c-6.61-1.01-11.7-3.85-15.89-6.52
		c-0.01,0-0.27,0.27-0.73,0.73v-7.66c1.36-0.01,4.03-0.01,4.03-0.01c2.76,0,4.99-2.3,4.99-5.14c0-0.01-0.04-6.34-0.06-8.44
		c0.64-0.34,2.54-1.34,2.54-1.34l-5.02-11.55l-1.05,2.35l-3.99,9.19c0,0,1.92,1.01,2.57,1.35c0,1.11-0.01,6.64-0.01,6.64
		c0,0.59-0.84,1.25-2.04,1.25c-1.31,0-2.29-0.48-2.29-0.89c0,0-0.02-14.13-0.03-15.36c0.65-0.34,2.55-1.35,2.55-1.35l-5.01-11.55
		l-1.06,2.35l-3.98,9.19c0,0,1.91,1.01,2.56,1.35v15.41c0,0.48-0.97,0.87-2.16,0.87c-1.19,0-2.03-0.66-2.03-1.25v-6.36
		c0.65-0.34,2.55-1.34,2.55-1.34L82.84,90.6l-1.05,2.35l-3.99,9.2c0,0,1.93,1,2.56,1.34c0.01,1.14,0.06,8.12,0.06,8.12
		c0,2.82,2.24,5.13,5.02,5.13c0,0,2.13,0.04,3.5,0.05v13.54c-4.58,4.61-9.88,9.93-9.88,9.93c2.35,2.83,8.81,5.86,7.04,19.68
		c-2.06,16.18-4.11,22.06-0.59,35.01c3.12,11.45,12.39,24.25,36.39,26.21c16.51,1.34,20.4,2.57,28.17,9.27h0.04
		c7.77-6.7,11.69-7.96,28.2-9.31c24.01-1.95,33.28-14.76,36.39-26.2c3.53-12.95,1.49-18.82-0.58-35.01
		c-1.77-13.83,4.68-16.85,7.03-19.69c0,0-5.29-5.3-9.86-9.9V116.69z M142.79,87.61l-1.04,0.43l-0.67,0.34l-1.64-0.27
		c-0.31-0.15-0.31-0.29-0.31-0.39l0.26-1.79c0.19-0.95,0.41-2.05,0.41-3.37c0-1.51-0.31-3.29-1.27-5.4c0.3,0.09,0.6,0.18,0.6,0.18
		c3.12,0.95,5.12,2.6,5.63,4.66c0.09,0.37,0.14,0.74,0.14,1.13C144.9,84.65,144.17,86.23,142.79,87.61z"/>
	<path fill="#FFFFFF" d="M158.76,162.87l2.74,1c1.48,0.32,3.31,0.09,4.91-0.12c0,0,2.99-0.15,3.21,0.12c0,0-0.09,25.84-0.24,26.08
		c-1.57,0.82-5.36,1.68-8.09,1.08l-2.96-1.2c-1.42-0.7-2.88-1.44-4.65-1.46c-2.43-0.03-3.11,0.55-3.29,0.89l-0.53-0.13l0.09-25.83
		l-0.02,0.05l0.43-0.95c0.59-0.58,1.81-0.89,3.42-0.87C155.7,161.55,157.26,162.22,158.76,162.87 M145.43,161.49
		c2.35,0,3.8,0.7,3.8,1.82l-0.22,25.83l-0.53,0.12c-0.18-0.35-0.83-0.94-3.27-0.94c-1.77,0-3.24,0.72-4.66,1.41l-2.98,1.17
		c-2.76,0.56-6.53-0.33-8.23-1.42c0,0,0.21-25.83,0.43-26.1l3.02,0.18c1.6,0.23,3.41,0.5,4.89,0.19l2.76-0.97
		C141.94,162.14,143.5,161.49,145.43,161.49 M126.34,165.29c0,0,1.49,0.01,1.76,0.29l-0.08,24.69c1.65,1.65,5.65,2.21,8.4,1.79
		l3.34-1.02c1.58-0.59,3.23-1.21,4.76-1.21c2.69,0,4.62,0.98,5.21,1.75c0.59-0.77,2.52-1.75,5.22-1.75c1.53,0,3.18,0.62,4.76,1.21
		l3.33,1.02c2.76,0.42,6.75-0.15,8.32-1.59l0.28-25.17c0,0,1.48-0.01,1.76,0.27l-0.28,28.19l-20.73-0.18c0,1.39-1.21,2.55-2.67,2.55
		c-1.41,0-2.65-1.19-2.37-2.37l-21.28-0.29L126.34,165.29z"/>
	<path fill="#223C8A" d="M147.31,177.6c0-0.01-1.66-1.76-2.13-2.27c1.41-1.28,2.18-2.61,2.18-3.98c0-2.54-1.38-3.89-4-3.89
		c-1.26,0-2.29,0.45-3.05,1.35c-0.75,0.88-1.12,2.07-1.12,3.52c0,1.47,0.61,2.86,1.72,4.16c-1.5,1.17-2.32,2.73-2.32,4.69
		c0,1.41,0.43,2.58,1.28,3.48c0.86,0.89,1.99,1.33,3.36,1.33c1.42,0,2.57-0.51,3.42-1.5c0.84-0.99,1.27-2.32,1.27-3.96L147.31,177.6
		z M142.03,171.19c0-1.88,0.67-2.1,1.18-2.1c0.78,0,1.19,0.95,1.19,2.84c0,0-0.29,1.78-0.4,2.4c-0.19-0.15-0.38-0.31-0.38-0.31
		c-1.07-0.84-1.58-1.77-1.58-2.82V171.19z M143.46,184.34c-0.43,0-1.72,0-1.72-3.55c0,0,0.26-2.43,0.34-3.18
		c0.29,0.23,0.59,0.49,0.59,0.49c0.01,0.01,0.68,0.59,0.68,0.59l1.36,1.44c0.01,0,0.28,1.5,0.28,1.5
		C144.99,184.34,143.84,184.34,143.46,184.34z M151.24,172v0.21l0.3,0.1c0.18,0.06,0.39,0.03,0.54-0.08l0.1-0.07l0.12-0.49
		l0.04-0.27c0,0,4.64-0.09,5.48-0.11c-0.33,0.55-1.01,1.7-1.01,1.7l-3.81,7.14c-0.6,1.47-1.14,4-1.14,4.94
		c0,0.06,0.01,0.12,0.01,0.16c0.06,0.62,1.19,1.22,1.99,1.22c0.75,0,1.21-0.45,1.28-1.22c0.06-0.62,1.4-7.86,4.06-12.99l1-1.9
		l0.03-2.38l-8.72-0.27C151.23,167.96,151.24,172,151.24,172 M166.97,176.8c-0.69-1.09-1.55-1.64-2.58-1.64
		c-0.86,0-1.58,0.48-2.21,1.23c0-0.61-0.01-1.33-0.01-1.33c0-4.01,0.92-5.32,2.4-6.15l0.41-0.23l1.58-1.19
		c-0.33-0.7-1.64-0.62-2.52-0.29c-1.4,0.54-2.6,1-3.58,2.92c-0.94,1.85-1.41,4.33-1.41,7.38c0,2.55,0.39,4.6,1.15,6.06
		c0.78,1.54,1.88,2.32,3.29,2.32c1.25,0,2.32-0.65,3.18-1.92c0.86-1.28,1.09-2.1,1.09-3.84
		C167.75,178.67,167.64,177.87,166.97,176.8z M163.47,184.23c-0.74,0-1.18-1.17-1.2-3.2c-0.03-2.23,0.37-3.12,0.73-3.48l0.63-0.27
		l0.43,0.2c0.34,0.34,0.76,1.32,0.73,3.97C164.77,182.48,164.57,184.23,163.47,184.23z M137.49,183.83
		c-0.45-0.03-0.67-0.25-0.67-0.73c0-0.01-0.03-1.22-0.03-1.22v-14.16c-0.44-0.47-1.11-0.27-3.75,0.78l-1.46,0.56
		c-0.25,0.07-0.41,0.32-0.45,0.65c-0.03,0.38,0.09,0.87,0.4,1.03c0.38,0.21,0.76,0.05,0.8,0.03c-0.04,0.02,1.25-0.23,1.25-0.23
		c-0.01,0-0.01,0.03-0.01,0.1c0,0.24,0.09,0.87,0.09,0.87v10.36l-0.03,1.21c0,0.49-0.21,0.72-0.7,0.76c0,0.01-1.39,0.11-1.39,0.11
		c-0.22,0.11-0.35,0.35-0.36,0.68v0.01c0,0.28,0.1,0.73,0.35,0.87c0.12,0.07,0.33,0.09,4.06,0.04l3.36-0.01l0.37-0.4
		c0.12-0.39-0.05-1.02-0.41-1.21L137.49,183.83z M193.27,222.67l0.7,7.55l-6.11-4.49l-0.88,0.5l3.48,11.48l2.2-1.23l-1.97-6.13
		l4.51,3.64l1.07-0.6l-0.68-6.06l4.32,5.07l2.32-1.31l-8.01-8.93L193.27,222.67z M98.07,225.19l3.55,2.44l0.75-1.08l-3.56-2.44
		l1.77-2.57l3.41,2.34l1.14-1.66l-5.54-3.81l-6.64,9.66l5.77,3.97l1.14-1.68l-3.62-2.49L98.07,225.19z M111.91,225.97l-3.17,5.92
		l-1.55-8.44l-0.99-0.54l-5.53,10.34l2.18,1.16l3.2-5.98l1.5,8.5l1,0.54l5.53-10.34L111.91,225.97z M122.21,230.41l-7.55-3.02
		l-0.76,1.88l2.56,1.03l-3.61,9l2.41,0.96l3.61-9l2.57,1.03L122.21,230.41z M123.2,230.65l-3.51,11.19l2.47,0.78l3.51-11.18
		L123.2,230.65z M96.02,215.52l-7.36,9.13l2.02,1.63l7.36-9.12L96.02,215.52z M82.07,208.42c-0.32-0.8-0.45-1.35-0.42-1.66
		c0.04-0.3,0.2-0.56,0.47-0.79c0.24-0.21,0.55-0.27,0.95-0.2c0.39,0.07,0.79,0.34,1.18,0.81c0.32,0.37,0.52,0.72,0.62,1.05
		c0.1,0.33,0.15,0.59,0.19,0.77l-0.4,1.23l2.38-1.53c-0.02-0.39-0.13-0.84-0.32-1.33c-0.2-0.5-0.59-1.11-1.22-1.86
		c-0.66-0.78-1.47-1.25-2.45-1.43c-0.98-0.17-1.86,0.08-2.66,0.76c-0.66,0.56-1.03,1.21-1.09,1.97c-0.05,0.74,0.11,1.6,0.51,2.57
		c0.32,0.79,0.51,1.4,0.57,1.83c0.07,0.43-0.04,0.78-0.36,1.05c-0.31,0.26-0.7,0.35-1.14,0.25c-0.43-0.1-0.89-0.43-1.36-1
		c-0.41-0.49-0.73-1.06-0.95-1.7c-0.22-0.64-0.36-1.2-0.39-1.68l-1.75,1.47c0.1,0.54,0.29,1.09,0.53,1.66
		c0.25,0.57,0.68,1.22,1.31,1.97c0.81,0.96,1.7,1.51,2.68,1.67c0.98,0.16,1.87-0.1,2.68-0.78c0.76-0.65,1.14-1.39,1.11-2.25
		C82.7,210.39,82.49,209.45,82.07,208.42 M85.86,219.45c-0.76-0.72-1.08-1.5-0.95-2.35c0.13-0.84,0.6-1.69,1.42-2.54
		c0.8-0.83,1.65-1.27,2.57-1.33c0.92-0.07,1.69,0.21,2.32,0.81c0.4,0.38,0.65,0.72,0.77,1c0.11,0.29,0.19,0.56,0.23,0.83l-0.33,1.33
		l2.43-1.97c-0.11-0.51-0.34-1.02-0.67-1.53c-0.34-0.51-0.69-0.95-1.05-1.28c-1.31-1.27-2.75-1.83-4.29-1.69
		c-1.54,0.15-2.87,0.81-4.02,2c-1.3,1.34-1.96,2.74-1.99,4.17c-0.04,1.44,0.6,2.79,1.91,4.05c0.34,0.34,0.79,0.67,1.31,0.99
		c0.53,0.32,1,0.54,1.45,0.63l1.49-1.55c-0.43-0.12-0.89-0.34-1.39-0.65C86.6,220.06,86.18,219.76,85.86,219.45 M223.71,208.19
		l-2.82,3.38l-2.49-2.09l2.77-3.3l-1-0.84l-2.77,3.3l-2.4-2l2.66-3.18l-1.55-1.29l-4.33,5.15l8.99,7.53l4.49-5.35L223.71,208.19z
		 M217.69,218.1l2.07-1.99l-6.34-1.59c0.28-0.51,0.37-1.06,0.29-1.64c-0.09-0.59-0.4-1.16-0.93-1.71c-0.73-0.74-1.54-1.09-2.45-1.01
		c-0.92,0.06-1.83,0.54-2.76,1.42l-2.79,2.7l8.13,8.44l1.88-1.8l-3.45-3.58l0.75-0.72L217.69,218.1z M211.3,215.61l-0.84,0.81
		l-2.41-2.5l0.78-0.76c0.39-0.37,0.79-0.55,1.19-0.54c0.41,0.01,0.82,0.22,1.22,0.64c0.37,0.38,0.56,0.78,0.57,1.2
		C211.82,214.89,211.65,215.28,211.3,215.61z M200.49,217.53l-0.64,0.49l3.12,12.47l2.03-1.55l-0.62-2.02l3.23-2.46l1.85,1.09
		l2.25-1.71L200.49,217.53z M204.01,225.78l-1.09-4.05l3.62,2.13L204.01,225.78z M183.18,230.18l-0.7-1.9l-7.63,2.82l0.7,1.9
		l2.58-0.95l3.37,9.1l2.43-0.91l-3.37-9.1L183.18,230.18z M171.08,238.28c-0.36-1.87-1.09-3.21-2.18-4.03
		c-1.09-0.81-2.58-1.05-4.45-0.67l-3.18,0.59l2.19,11.52l3.32-0.63c1.89-0.36,3.17-1.11,3.83-2.24
		C171.28,241.68,171.43,240.17,171.08,238.28z M168.44,241.73c-0.32,0.7-0.98,1.15-1.98,1.33l-0.82,0.16l-1.43-7.54l0.66-0.12
		c1.03-0.21,1.84-0.04,2.44,0.49c0.59,0.53,1,1.43,1.25,2.71C168.79,240.02,168.76,241.01,168.44,241.73z M171.35,232.05l3.21,11.27
		l2.5-0.71l-3.21-11.28L171.35,232.05z M156.65,244.32l-0.26-3.24l4.3-0.34l-0.1-1.31l-4.29,0.36l-0.26-3.11l4.13-0.34l-0.16-2.02
		l-6.71,0.55l0.94,11.69l6.98-0.56l-0.17-2.02L156.65,244.32z M149.1,236.92c0.55,0.01,0.97,0.09,1.25,0.23
		c0.28,0.14,0.52,0.29,0.73,0.45l0.66,1.2l0.44-3.09c-0.42-0.29-0.92-0.51-1.52-0.67c-0.6-0.15-1.14-0.23-1.64-0.23
		c-1.83-0.04-3.26,0.51-4.3,1.66c-1.03,1.15-1.57,2.54-1.61,4.19c-0.04,1.86,0.42,3.34,1.36,4.42c0.95,1.09,2.32,1.65,4.14,1.69
		c0.48,0.01,1.03-0.04,1.63-0.16c0.61-0.12,1.11-0.29,1.5-0.53l0.04-2.14c-0.4,0.2-0.88,0.34-1.45,0.45
		c-0.57,0.12-1.08,0.18-1.53,0.16c-1.04-0.02-1.81-0.39-2.29-1.1c-0.48-0.71-0.7-1.66-0.68-2.83c0.03-1.14,0.36-2.05,1-2.72
		S148.22,236.91,149.1,236.92 M139.61,236.58l0.39-1.98l-6.5-1.27l-9.56,10.08l2.52,0.5l1.64-1.69l3.64,0.71l-0.37,1.94l6.63,1.28
		l0.39-1.99l-4.22-0.81l0.63-3.18l4.12,0.79l0.25-1.29l-4.13-0.8l0.6-3.06L139.61,236.58z M131.97,241.8l-2.9-0.56l3.85-4.3
		L131.97,241.8z"/>
	<path fill="#FFFFFF" d="M239.74,232.16c-0.65,0.7-5.29,5.8-5.29,5.8l-2.58-2.35c0,0,4.64-5.09,5.29-5.8
		c-0.6-0.56-2.93-2.68-3.53-3.23c-0.65,0.72-5.4,5.94-5.4,5.94l-3.56-3.25l9.32-10.24l16.62,15.13l-8.99,9.88l-3.56-3.25
		c0,0,4.43-4.86,5.07-5.57C242.52,234.68,240.34,232.7,239.74,232.16 M221.65,260.15c0,0-2.2-10.65-2.61-12.66
		c1.77,1.03,11.2,6.48,11.2,6.48l2.15-1.55l-9.09-21.16l-4.63,3.34c0,0,3.14,7.04,4.2,9.43c-2.12-1.34-7.68-4.85-7.68-4.85
		l-2.38,1.71c0,0,1.57,6.93,2.13,9.42c-1.91-1.8-7.85-7.36-7.85-7.36l-4.88,3.51l17.2,15.32L221.65,260.15 M188.84,251.97
		c0,0,3.67,8.67,3.68,8.68c-0.09,0-2.62,12.68-2.62,12.68l-0.13,0.65l5.64,0.12c0,0,1.53-8.15,1.79-9.52
		c1.17,0.75,8.22,5.25,8.22,5.25l3.94-4.18l-11.68-7.53c0-0.23-3.27-7.91-3.27-7.91l-0.21-0.51L188.84,251.97 M154.56,272.7
		l5.82-5.33l-7.6,0.18l-3.09-7.79l-2.64,7.79l-8.28-0.04l6.42,5.18l-2.33,8.29l6.83-4.58l6.97,4.58L154.56,272.7z M108.74,257.53
		c0.21,0.57,0.16,1.26-0.15,2.05l-5.55,14.23l5.43,2.13l5.51-14.15c0.84-2.12,0.89-4.08,0.18-5.82c-0.73-1.76-2.38-3.15-4.93-4.14
		c-2.6-1.01-4.82-1.11-6.61-0.29c-1.78,0.82-3.09,2.27-3.89,4.31l-5.51,14.15l4.87,1.91l5.27-13.52c0.45-1.15,0.98-1.91,1.58-2.24
		c0.56-0.31,1.28-0.29,2.21,0.06C108,256.54,108.52,256.98,108.74,257.53L108.74,257.53 M47.61,81.44
		c-0.67-0.45-3.09-2.13-3.77-2.59c0.54-0.78,4.28-6.21,4.28-6.21l-3.97-2.72l-7.57,11.01L55.1,93.65l7.85-11.41l-3.97-2.73
		c0,0-3.99,5.81-4.54,6.61c-0.67-0.47-3.26-2.24-3.94-2.71c0.54-0.79,4.44-6.47,4.44-6.47l-2.88-1.97
		C52.05,74.98,48.16,80.65,47.61,81.44 M57.49,64.25c-0.16-0.15-0.37-0.43-0.37-1c0-0.07,0.01-0.15,0.01-0.23
		c0.05-0.59,0.43-1.25,1.11-1.95l1.61-1.19c0.01,0,1.24-0.45,1.28-0.45c0.01,0.06,2.03,0.51,2.03,0.51l1.55,0.34l-4.46-5.59
		l-0.29,0.1l-2.51,0.89l-3.29,2.67c-1.39,1.43-2.17,3.13-2.32,5.05c-0.15,1.97,0.54,3.7,2.02,5.14c1.23,1.21,2.63,1.8,4.14,1.77
		c1.45-0.04,3.07-0.52,4.82-1.44l3.12-1.34c0.57-0.15,1.02-0.05,1.42,0.33c0.42,0.41,0.57,0.89,0.48,1.53
		c-0.09,0.69-0.56,1.48-1.42,2.36l-2.73,1.89l-3.7,1.28l0.58,0.65l3.26,3.19l3.28-1.44c0.01,0,3.46-2.82,3.46-2.82
		c1.67-1.72,2.58-3.57,2.7-5.51c0.12-1.98-0.58-3.71-2.08-5.16c-1.43-1.39-3.02-1.99-4.74-1.76c-1.61,0.21-3.35,0.8-5.2,1.76
		c-1.7,0.89-2.38,1-2.64,1L57.49,64.25 M32.81,87.26l-6.72,14.42l4.36,2.03c0,0,1.76-3.75,2.13-4.55
		c0.95,0.45,16.01,7.46,16.01,7.46l2.46-5.28c0,0-15.05-7.02-16.01-7.46c0.37-0.81,2.13-4.59,2.13-4.59L32.81,87.26z M18.06,132.15
		l-1.23,15.87l4.8,0.37c0,0,0.32-4.14,0.39-5.02c1.05,0.08,17.6,1.38,17.6,1.38l0.46-5.81c0,0-16.56-1.3-17.61-1.38
		c0.07-0.88,0.4-5.05,0.4-5.05L18.06,132.15z M17.53,157.95l-0.12,4.23c0.18,1.98,0.97,3.68,2.33,5.05c1.41,1.39,3.16,2,5.23,1.81
		c1.72-0.15,3.08-0.83,4.03-2c0.91-1.11,1.6-2.65,2.06-4.59l1-3.23c0.26-0.55,0.63-0.82,1.17-0.87c0.57-0.05,1.05,0.15,1.48,0.63
		c0.46,0.51,0.75,1.39,0.86,2.59c0,0.01-0.33,3.32-0.33,3.32l-1.44,3.64l0.87-0.01l4.54-0.41l1.03-3.44c0,0.01,0.11-4.45,0.11-4.45
		c-0.22-2.4-1.03-4.29-2.43-5.65c-1.44-1.37-3.2-1.97-5.27-1.77c-1.98,0.18-3.47,1-4.42,2.46c-0.89,1.38-1.58,3.09-2.04,5.1
		c-0.44,1.86-0.79,2.46-0.97,2.65c0-0.01-1.17,0.52-1.17,0.52c-0.38,0.04-0.78-0.14-1.16-0.54c-0.43-0.43-0.68-1.14-0.77-2.11
		l0.15-2c0-0.01,0.46-1.22,0.48-1.28c0.07,0.02,1.7-1.2,1.7-1.2l1.27-0.94l-7.15-0.28l-0.1,0.29l-1,2.57L17.53,157.95z
		 M31.92,211.39l6.81,11.5l19.32-11.44L51,199.52l-4.14,2.46c0,0,3.59,6.07,4.09,6.9c-0.7,0.42-3.42,2.02-4.12,2.44
		c-0.49-0.83-4-6.76-4-6.76l-2.99,1.77c0,0,3.51,5.92,4,6.76c-0.7,0.41-3.24,1.91-3.94,2.33c-0.48-0.83-3.83-6.49-3.83-6.49
		L31.92,211.39z M84.57,48.12c-0.76-1.28-1.14-2.49-1.14-3.67c0-0.37,0.04-0.73,0.11-1.09c0.3-1.47,1.06-2.59,2.28-3.31l1.91-0.79
		c0,0,1.39,0,1.42,0c0.01,0.04,1.99,1.14,1.99,1.14l1.45,0.8l-3.16-7.15l-0.32,0.06l-3.2,0.51l-2.86,1.27
		c-2.99,1.79-4.77,4.19-5.28,7.13c-0.51,2.9,0.04,5.73,1.66,8.41c1.8,3.02,4.06,4.95,6.7,5.74c2.66,0.79,5.51,0.29,8.48-1.48
		c0.01,0,2.46-1.9,2.46-1.9c0-0.01,2.16-2.71,2.16-2.71l-0.26-0.24l-2.42-4.06l-2.26,2.69l-2.1,1.64c-1.48,0.89-2.82,1.05-4.08,0.49
		C86.82,51.03,85.62,49.85,84.57,48.12 M157,33.46c0.51,0.34,0.72,0.74,0.69,1.28c-0.04,0.59-0.3,1.02-0.84,1.39
		c-0.57,0.38-1.48,0.54-2.69,0.46c-0.01,0-3.23-0.81-3.23-0.81c-0.01-0.01-3.4-1.97-3.4-1.97l-0.12,0.87l-0.26,4.55l3.24,1.53
		l4.4,0.76c2.41,0.14,4.4-0.4,5.93-1.58c1.55-1.2,2.41-2.86,2.53-4.94c0.12-1.99-0.48-3.58-1.77-4.74
		c-1.21-1.08-2.81-2.01-4.75-2.76c-1.77-0.7-2.32-1.15-2.48-1.35l-0.35-1.24c0.02-0.4,0.26-0.74,0.7-1.08
		c0.48-0.34,1.22-0.49,2.21-0.44l1.95,0.45c0.01,0,1.14,0.65,1.17,0.66c0,0.1,0.96,1.87,0.96,1.87l0.75,1.38l1.31-7.02l-0.26-0.14
		l-2.32-1.32c-0.01,0-4.17-0.73-4.17-0.73c-1.99-0.12-3.78,0.41-5.33,1.57c-1.58,1.17-2.45,2.82-2.57,4.89
		c-0.1,1.73,0.37,3.17,1.39,4.28c0.97,1.06,2.4,1.97,4.25,2.71L157,33.46 M169.23,24.73c0,0,4.03,0.92,4.89,1.11
		c-0.24,1.02-3.93,17.22-3.93,17.22l5.68,1.29c0,0,3.7-16.18,3.92-17.21c0.87,0.2,4.93,1.13,4.93,1.13l1.08-4.69l-15.52-3.54
		L169.23,24.73 M275.82,180.28l0.15-0.27l1.69-2.76c0-0.01,0.9-3.01,0.9-3.01c0.58-3.44-0.1-6.34-2.01-8.63
		c-1.87-2.27-4.39-3.68-7.48-4.19c-3.47-0.59-6.4-0.12-8.7,1.38c-2.34,1.51-3.81,4.01-4.38,7.41l-0.14,3.1l0.66,3.4l0.35-0.04
		l4.66,0.78l-0.59-3.45l0.11-2.66c0.29-1.72,1.02-2.84,2.27-3.43c1.29-0.62,2.96-0.76,4.95-0.43c1.91,0.32,3.35,1.09,4.29,2.29
		c0.76,0.96,1.13,1.96,1.13,3.04c0,0.28-0.03,0.56-0.08,0.85c0,0.01-0.63,1.97-0.63,1.97s-0.9,1.06-0.92,1.08
		c-0.06-0.01-2.17,0.78-2.17,0.78l-1.55,0.59L275.82,180.28z M224.71,60.82c-0.78,0.96-1.53,1.52-2.18,1.66
		c-0.64,0.12-1.31-0.11-2.08-0.73c-0.72-0.58-1.09-1.17-1.11-1.75c-0.03-0.62,0.22-1.25,0.75-1.92l9.59-11.88l-4.52-3.65
		l-9.54,11.81c-1.43,1.78-2.09,3.63-1.94,5.51c0.16,1.89,1.32,3.72,3.45,5.44c2.16,1.75,4.25,2.51,6.22,2.27
		c1.94-0.25,3.63-1.23,5.02-2.93l9.53-11.81l-4.07-3.29L224.71,60.82z M214.47,36.29c-0.01,0-2.65-1.96-2.65-1.96
		c-3.09-1.61-6.09-1.8-8.93-0.58c-2.81,1.2-4.93,3.15-6.33,5.81c-1.43,2.74-1.88,5.51-1.33,8.23c0.56,2.76,2.49,5.03,5.73,6.73
		l3.32,1.15c1.41,0.34,2.65,0.4,3.73,0.18l0.26-0.05l5.17-9.88l-7.55-3.95l-1.62,3.09c0,0,2.4,1.26,3.09,1.62
		c-0.38,0.73-1.85,3.54-2.16,4.13c-0.23-0.06-0.45-0.12-0.45-0.12l-1.21-0.54c-1.53-0.8-2.36-1.86-2.54-3.25
		c-0.03-0.23-0.04-0.46-0.04-0.7c0-1.26,0.4-2.66,1.2-4.19c0.79-1.49,1.91-2.6,3.32-3.31c1.36-0.69,2.69-0.67,4.05,0.04l1.75,1.27
		l0.84,1.22c0,0.11,0.24,2.07,0.24,2.07l0.18,1.45l4.08-5.84l-0.19-0.22L214.47,36.29z M53.08,241.12l3.68-3.09
		c0,0-2.65-3.17-3.23-3.85c0.81-0.67,13.52-11.36,13.52-11.36l-3.75-4.46c0,0-12.71,10.68-13.51,11.36
		c-0.57-0.68-3.26-3.88-3.26-3.88l-3.68,3.09L53.08,241.12z M77.93,233.5l-4.33-3.89L58.57,246.3l4.33,3.9L77.93,233.5z
		 M96.95,246.85l-4.73-3.04c0,0-4.77,7.41-6.08,9.45c-0.25-2.57-1.41-14.28-1.41-14.28l-2.43-1.55l-12.15,18.91l4.73,3.02
		c0,0,4.75-7.4,6.06-9.43c0.26,2.57,1.42,14.26,1.42,14.26l2.43,1.57L96.95,246.85z M250.61,66.37L239.54,88.4l-4.08-4.87
		c0,0,1.52-2.92,1.8-3.45c-0.4-0.48-3.83-4.6-4.27-5.1c-0.59,0.21-3.59,1.3-3.59,1.3l-3.79-4.53l23.6-7.08L250.61,66.37z
		 M241.45,72.12c-1.55,0.49-4.25,1.36-5.25,1.69c0.65,0.78,2.01,2.4,2.66,3.18C239.36,76.05,240.68,73.55,241.45,72.12z
		 M265.37,92.48c-0.36,1.8-1.45,3.21-3.24,4.2c-1.33,0.73-2.61,1.03-3.78,0.89c-0.96-0.11-1.72-0.62-2.46-1.17
		c-0.44,0.79-6.05,10.85-6.05,10.85l-3.15-5.75c0,0,4.99-8.64,5.29-9.15c-0.15-0.26-0.32-0.56-0.53-0.95
		c-0.86,0.48-7.92,4.35-7.92,4.35l-2.8-5.11l19.7-10.8c0,0,3.69,6.72,3.69,6.73C265.31,88.73,265.73,90.72,265.37,92.48z
		 M260.14,89.96c0-0.43-0.14-0.9-0.42-1.42c0,0-0.42-0.76-0.69-1.27c-0.75,0.4-3.86,2.12-4.6,2.52c0.29,0.54,0.77,1.39,0.77,1.39
		c0.36,0.65,0.82,1.04,1.4,1.17l0.01,0.01c0.62,0.15,1.28,0.02,2.01-0.37c0.8-0.43,1.28-0.93,1.44-1.51
		C260.11,90.32,260.14,90.15,260.14,89.96z M40.43,118.64c-0.16,0.61-1.52,5.79-1.69,6.43c0.51,0.36,3.15,2.18,3.15,2.18l-1.52,5.71
		L20.95,117.8l0.56-2.13l24.4-3.7l-1.62,6.14C44.29,118.11,41.03,118.56,40.43,118.64z M36.98,119.12
		c-1.05,0.14-3.86,0.51-5.47,0.71c1.3,0.97,3.57,2.67,4.41,3.3C36.18,122.15,36.73,120.1,36.98,119.12z M49.11,195.71l-21.08,7.78
		l-2.23-6.03c-0.64-1.73-0.96-3.34-0.96-4.8c0-1.41,0.3-2.7,0.89-3.84c1.19-2.32,3.5-4.14,6.88-5.38c3.39-1.26,6.31-1.44,8.68-0.55
		c2.39,0.92,4.25,3.12,5.51,6.54L49.11,195.71z M42.58,191.91c-0.15-0.41-0.33-0.89-0.33-0.89c-0.59-1.58-1.44-2.49-2.63-2.81
		c-1.24-0.34-2.92-0.12-5.02,0.66c-2.08,0.77-3.5,1.72-4.19,2.82c-0.36,0.56-0.54,1.2-0.54,1.92c0,0.64,0.15,1.34,0.43,2.11
		c0,0,0.12,0.32,0.23,0.63C31.45,196.02,41.65,192.25,42.58,191.91z M265.04,212.86l-3.4,5.47c-1.91,3.07-4.19,4.88-6.78,5.37
		c-2.57,0.49-5.42-0.22-8.48-2.12c-3.07-1.91-5.01-4.11-5.76-6.52c-0.74-2.44-0.15-5.25,1.78-8.36l3.54-5.7L265.04,212.86z
		 M257.86,215.28c-0.83-0.52-10.07-6.26-10.9-6.78c-0.23,0.37-0.49,0.8-0.49,0.8c-0.58,0.92-0.87,1.77-0.87,2.56
		c0,0.43,0.09,0.84,0.26,1.25c0.49,1.17,1.7,2.37,3.6,3.55c1.87,1.17,3.49,1.7,4.8,1.58c1.27-0.13,2.33-0.92,3.25-2.4
		C257.51,215.84,257.7,215.55,257.86,215.28z M272.72,195.54l-0.78,2.07l-24.63,1.22l2.22-5.95c0,0,3.27-0.12,3.89-0.14
		c0.22-0.59,2.1-5.61,2.33-6.23c-0.48-0.41-2.9-2.49-2.9-2.49l2.07-5.53L272.72,195.54z M262.4,192.46
		c-1.19-1.09-3.28-3.01-4.05-3.73c-0.36,0.95-1.1,2.93-1.46,3.87C257.94,192.58,260.79,192.51,262.4,192.46z M118.93,41.85
		c-1,2.6-3.03,4.45-6.01,5.49c-2.94,1.03-5.65,0.87-8.05-0.46c-2.38-1.32-4.18-3.67-5.34-6.99c-1.17-3.3-1.23-6.26-0.21-8.79
		c1.03-2.54,3.06-4.36,6.03-5.4c3.06-1.07,5.79-0.98,8.1,0.28c2.29,1.24,4.08,3.65,5.32,7.18
		C119.88,36.35,119.94,39.28,118.93,41.85z M112.93,35.21c-0.71-2.08-1.58-3.53-2.57-4.3c-0.95-0.73-2.04-0.87-3.34-0.43
		c-1.25,0.43-2.02,1.18-2.35,2.32c-0.34,1.21-0.13,2.92,0.62,5.09c0.71,2.04,1.58,3.47,2.6,4.27c0.94,0.75,2.04,0.88,3.37,0.42
		c1.32-0.46,2.09-1.23,2.36-2.35C113.88,39,113.65,37.31,112.93,35.21z M280.72,147.37l-22.34,10.46l-0.19-6.35
		c0,0,2.99-1.35,3.55-1.6c-0.02-0.63-0.18-5.99-0.2-6.65c-0.59-0.2-3.63-1.21-3.63-1.21l-0.17-5.9l22.91,9.03L280.72,147.37z
		 M269.94,146.23c-1.52-0.56-4.18-1.55-5.16-1.91c0.03,1.01,0.09,3.12,0.12,4.14C265.86,148.02,268.47,146.88,269.94,146.23z
		 M273.59,117.61c-1.3,2.27-3.7,3.96-7.12,5.04c-3.45,1.09-6.39,1.14-8.7,0.12c-2.34-1.03-4.08-3.31-5.19-6.78l-2.01-6.39
		l21.43-6.77l1.94,6.14C275.01,112.42,274.91,115.33,273.59,117.61z M269.69,112.4c0-0.58-0.11-1.22-0.34-1.92
		c0,0-0.09-0.32-0.2-0.65c-0.95,0.3-11.31,3.57-12.25,3.86c0.13,0.43,0.29,0.92,0.29,0.92c0.51,1.6,1.32,2.55,2.48,2.93
		c1.24,0.39,2.93,0.25,5.05-0.42c2.12-0.67,3.58-1.56,4.33-2.62C269.48,113.91,269.69,113.21,269.69,112.4z M145.58,40.47
		l-6.29,0.82c0,0-1.64-2.85-1.94-3.37c-0.63,0.08-5.95,0.77-6.61,0.86c-0.14,0.61-0.84,3.73-0.84,3.73l-5.85,0.76l6.72-23.71
		l2.19-0.28L145.58,40.47z M135.6,34.9c-0.52-0.92-1.92-3.39-2.72-4.8c-0.4,1.56-1.12,4.31-1.39,5.33
		C132.49,35.31,134.58,35.03,135.6,34.9z"/>
	<path fill="#FBB040" d="M149.71,134.73c0.66,0,1.19,0.53,1.19,1.18v9.08c0,0.65-0.54,1.19-1.19,1.19c-0.65,0-1.18-0.54-1.18-1.19
		v-9.08C148.53,135.26,149.06,134.73,149.71,134.73z M152.68,128.59c-0.8,0.01-2.02,0-2.2-0.12c0,0-0.51-1.28-0.81-2.05
		c-0.3,0.83-0.77,2.1-0.95,2.23c0,0-1.29-0.01-2.13-0.01c0.67,0.56,1.69,1.42,1.75,1.62c0,0-0.39,1.38-0.62,2.2
		c0.73-0.48,1.87-1.2,2.08-1.21c0,0,1.18,0.78,1.86,1.22c-0.2-0.81-0.49-2.09-0.49-2.43c0-0.03,0-0.05,0.01-0.07
		C151.17,129.97,152.1,129.13,152.68,128.59z M165.09,120.4c0.04,0.18,0.08,0.34,0.04,0.57l15.41-3.77l1.26,0.91l6.45-3.48
		l-0.01-0.01l-7.32-0.18l-0.71,1.39l-14.64,3.57C165.54,119.81,165.36,120.14,165.09,120.4z M232.75,36.31
		c2.18-10.38-16.43-18.1-17.52-16.68C212.69,25.34,228.4,36.44,232.75,36.31z M249.05,50.66c3.97-9.84-13.01-20.69-14.33-19.48
		C231.23,36.35,244.74,50.03,249.05,50.66z M191.39,207.93c0,0,2.38,2.48,2.39,2.74c8.31-5.08,12.14-18.38,12.33-23.07
		c0-0.13,0.01-0.25,0.01-0.36c0-0.88-0.16-1.06-0.16-1.08l-1.17,1c-1.66,1.93-5.57,6.41-19.63,11.48c0.46,0.73,2.42,3.84,2.42,4.15
		c-2.74,3.33-12.52,7.07-21,5.13c-4.39-1-10.04-3.97-11.84-12.22l-1.25-0.15c-0.07,0.11-1.52,2.67-3.94,2.67
		c-2.08,0-3.5-2.57-3.31-2.53l-1.22-0.21c-2.07,8.47-7.74,11.44-12.12,12.44c-8.48,1.94-18.24-1.8-21.01-5.46
		c0,0,2.11-3.34,2.43-3.83c-14.07-5.08-17.97-9.56-19.63-11.49c0,0-1.15-0.98-1.15-1c0,0-0.18,0.16-0.18,1.09
		c0,0.1,0,0.21,0.01,0.32c0.18,4.71,3.98,18.03,12,23.17c0,0,2.71-2.81,3.09-2.83c3.73,3.04,11.48,9.37,20.87,10.13
		c7.47,0.6,18.58,4.8,20.33,6c0.32-0.15,11.29-5.26,20.48-5.99C179.57,217.29,187.3,210.96,191.39,207.93z M263.58,67.67
		c5.32-9.19-9.96-22.32-11.43-21.32C247.95,50.98,259.4,66.42,263.58,67.67z M152.77,267.55l-3.09-7.79l-2.64,7.79l-8.29-0.03
		l6.42,5.18l-2.32,8.29l6.83-4.58l6.96,4.58l-2.09-8.29l5.82-5.32L152.77,267.55z M213.27,112.46c-1.78,0-3.7-0.71-3.73-2.32
		l0.15-16.26c0,0,1.96-1.02,2.1-0.85c-0.03-0.07-2.9-6.7-3.31-7.66c-0.62,1.42-3.2,7.32-3.45,7.33c0.05,0.02,2.23,1.17,2.38,1.41
		v16.09c0,1.36-1.42,2.26-3.55,2.26c-1.89,0-3.43-1.19-3.43-2.66l0.15-7.26c0,0,1.95-1.03,2.09-0.87c-0.03-0.07-2.9-6.67-3.31-7.63
		c-0.62,1.42-3.2,7.3-3.45,7.32c0.05,0.02,2.23,1.17,2.38,1.41l0.07,8.78c0,2.07,1.62,3.75,3.61,3.75c0,0,4.62,0.07,4.9,0.34v10.23
		c0.86,0.87,1.91,1.93,3.08,3.09l0.24-13.59l5.15-0.01c1.99,0,3.61-1.68,3.61-3.74c0,0-0.08-9.11,0.07-9.37c0,0,1.96-1.03,2.09-0.85
		c-0.04-0.07-2.9-6.68-3.31-7.65c-0.62,1.42-3.21,7.31-3.45,7.33c0.04,0.02,2.23,1.17,2.38,1.41l-0.01,7.31
		C216.69,111.27,215.15,112.46,213.27,112.46z M296,149.23c-6.24,0.23-9.32,19.2-7.3,23.06C298.98,169.7,297.75,149.59,296,149.23z
		 M274.92,86.7c6.7-8.22-6.28-23.62-7.9-22.86C262.14,67.74,270.99,84.81,274.92,86.7z M290.28,150.27
		c9.77-4.13,5.52-23.82,3.73-23.91C287.87,127.53,287.7,146.76,290.28,150.27z M279.55,82.91c-5.46,3.01,0.37,21.35,3.92,23.87
		C291.47,99.81,281.28,82.44,279.55,82.91z M288.7,128.44c8.94-5.71,1.42-24.4-0.35-24.18C282.5,106.45,285.57,125.42,288.7,128.44z
		 M146.02,159.98c0.18,0.26,2.97,1.32,2.97,1.32l1.25,0.02c0.1-0.01,3.02-1.07,3.02-1.07l0.18-0.07l-0.15-2.15h-6.99L146.02,159.98z
		 M184.95,149.84c0-0.01,0.26-3.63,0.26-3.63s-23.99-1.07-24.61-1.1c0.22,0.99,0.37,2.3,0.37,3.57c0,1.11-0.12,2.06-0.32,2.72
		C162.78,151.25,184.93,149.61,184.95,149.84z M114.61,145.95c0,0.01-0.26,3.62-0.26,3.62s23.82,1.78,24.56,1.83
		c-0.21-0.66-0.32-1.61-0.32-2.72c0-1.28,0.15-2.58,0.37-3.57C137.07,145.2,114.63,146.2,114.61,145.95z M158.25,148.17
		c0-3.18-1.83-6.03-4.66-7.44v2.6c1.5,1.14,2.42,2.9,2.42,4.84c0,3.39-2.75,6.15-6.14,6.15s-6.14-2.76-6.14-6.15
		c0-2.03,1.03-3.84,2.65-4.98v-2.6c-2.97,1.38-4.89,4.3-4.89,7.57c0,4.62,3.76,8.37,8.38,8.37
		C154.5,156.54,158.25,152.79,158.25,148.17z M45.02,47.89c4.67,4.14,19.99-7.47,21.2-11.65C56.98,31.02,44,46.43,45.02,47.89z
		 M30.31,66.06c5.34,3.23,18.32-10.95,18.76-15.28C39.04,47.31,29.05,64.8,30.31,66.06z M35.27,233.4
		c-5.31,9.18,9.97,22.31,11.45,21.3C50.91,250.07,39.44,234.63,35.27,233.4z M23.66,214.61c-6.69,8.24,6.33,23.61,7.94,22.85
		C36.47,233.55,27.59,216.49,23.66,214.61z M49.63,250.1c-3.8,9.91,13.35,20.48,14.65,19.26C67.69,264.12,53.95,250.67,49.63,250.1z
		 M19.45,218.03c5.42-3.1-0.67-21.34-4.25-23.82C7.3,201.29,17.73,218.52,19.45,218.03z M66.8,264.72
		c-2.32,10.35,16.17,18.33,17.28,16.92C86.69,275.98,71.14,264.66,66.8,264.72z M22.7,87.11c-10.61-0.14-14.59,19.61-12.98,20.41
		C15.81,108.9,23.66,91.35,22.7,87.11z M14.86,107.16C4.33,108.42,2.98,128.52,4.67,129.1C10.89,129.68,16.37,111.24,14.86,107.16z
		 M10.41,173.12c-8.98,5.66-1.54,24.39,0.23,24.19C16.51,195.15,13.54,176.14,10.41,173.12z M90.34,128.91
		c1.2-1.2,2.28-2.28,3.15-3.16l0.18-10.26l5.14-0.01c1.99,0,3.61-1.68,3.61-3.74c0,0-0.08-9.12,0.07-9.36c0,0,1.95-1.03,2.09-0.85
		c-0.04-0.08-2.9-6.7-3.31-7.66c-0.62,1.42-3.2,7.33-3.45,7.34c0.04,0.02,2.23,1.17,2.38,1.41l-0.01,7.31
		c0,1.47-1.53,2.65-3.42,2.65c-1.77,0-3.69-0.71-3.72-2.32l0.15-16.25c0,0,1.94-1.03,2.09-0.86c-0.04-0.07-2.9-6.67-3.31-7.64
		c-0.62,1.43-3.2,7.31-3.43,7.33c0.04,0.02,2.21,1.17,2.35,1.41v16.09c0,1.35-1.42,2.25-3.53,2.25c-1.9,0-3.44-1.19-3.44-2.65
		l0.15-7.27c0,0,1.96-1.03,2.09-0.86c-0.03-0.07-2.9-6.67-3.31-7.64c-0.62,1.42-3.2,7.31-3.44,7.32c0.04,0.03,2.22,1.17,2.37,1.41
		l0.07,8.79c0,2.07,1.62,3.74,3.61,3.74c0,0,4.62,0.07,4.9,0.34V128.91z M8.47,151.06c-9.71,4.28-5.13,23.9-3.34,23.96
		C11.24,173.75,11.11,154.52,8.47,151.06z M4.11,152.14c6.23-0.5,8.51-19.59,6.33-23.36C0.26,131.82,2.35,151.85,4.11,152.14z
		 M275.01,214.17c10.59,0.67,15.56-18.85,14.01-19.72C283.01,192.75,274.26,209.88,275.01,214.17z M248.8,250.26
		c9.94,3.72,20.34-13.54,19.1-14.83C262.64,232.08,249.32,245.95,248.8,250.26z M263.37,233.11c10.37,2.27,18.22-16.29,16.81-17.39
		C274.49,213.14,263.28,228.76,263.37,233.11z M232,264.33c9.21,5.26,22.26-10.11,21.24-11.58
		C248.58,248.6,233.21,260.16,232,264.33z M283.08,193.64c10.57-0.84,12.72-20.88,11.04-21.52
		C287.93,171.3,281.73,189.5,283.08,193.64z M34.83,67.96c-10.4-2.07-17.94,16.61-16.51,17.69C24.05,88.12,35,72.3,34.83,67.96z
		 M213.08,276.17c8.23,6.7,23.62-6.31,22.86-7.92C232.03,263.38,214.96,272.24,213.08,276.17z M85.9,276.09
		c-0.66,10.59,18.86,15.54,19.73,13.98C107.32,284.07,90.18,275.34,85.9,276.09z M193.2,284.77c7.22,7.77,24.27-2.96,23.74-4.68
		C213.73,274.72,195.6,281.14,193.2,284.77z M127.28,289.88c2.81,10.24,22.89,8.59,23.21,6.83
		C150.13,290.47,131.1,287.78,127.28,289.88z M105.65,284.34c1,10.56,21.06,12.38,21.68,10.71
		C128.05,288.84,109.77,282.92,105.65,284.34z M149.61,291.7c4.25,9.71,23.88,5.2,23.95,3.42
		C172.31,288.99,153.08,289.06,149.61,291.7z M171.32,289.75c5.86,8.84,24.42,1,24.18-0.77
		C193.21,283.16,174.29,286.56,171.32,289.75z M126.62,10.63c-5.84-8.86-24.41-1.06-24.18,0.71
		C104.71,17.16,123.65,13.81,126.62,10.63z M188.67,123.26l-8.24-1.88l-1.18,1.18h-16.93c0.09,0.25,0.32,0.88,0.01,1.42h16.94
		l1.18,1.17l8.23-1.88L188.67,123.26z M188.4,131.66l-7.6-3.69l-1.4,0.88l-15.56-3.58l-0.05-0.01c0.06,0.27,0.02,0.97-0.3,1.39
		l15.6,3.6l0.88,1.42l8.45,0.01L188.4,131.66z M121.03,129.92l15.69-3.58l-0.22-1.47l-15.77,3.65l-1.42-0.88l-7.6,3.69l-0.01,0.01
		l8.45-0.01L121.03,129.92z M111.44,123l8.24,1.88l1.18-1.18h13.16c-0.18-0.47-0.36-0.94-0.55-1.42h-12.59l-1.19-1.17l-8.23,1.88
		L111.44,123z M111.87,114.35l6.45,3.48l1.25-0.9l13.01,3.12c-0.18-0.43-0.31-0.75-0.31-0.75l0.65-0.63l-13.01-3.13l-0.7-1.38
		L111.87,114.35L111.87,114.35z M149.42,9.62c-4.04-9.81-23.77-5.71-23.87-3.92C126.68,11.84,145.9,12.17,149.42,9.62z
		 M192.66,15.77c-1.03-10.56-21.09-12.36-21.7-10.68C170.24,11.29,188.54,17.19,192.66,15.77z M171.12,10.39
		c-2.95-10.19-23-8.26-23.3-6.5C148.26,10.12,167.33,12.55,171.12,10.39z M85.01,24.55c-8.13-6.81-23.69,5.97-22.96,7.6
		C65.89,37.07,83.07,28.45,85.01,24.55z M105.5,15.96c-7.16-7.82-24.29,2.79-23.77,4.5C84.89,25.84,103.05,19.57,105.5,15.96z
		 M213.12,24.47c0.69-10.59-18.82-15.6-19.7-14.05C191.73,16.43,208.83,25.2,213.12,24.47z M157.93,95.45
		c0.09,3.18,0.18,5.93-1.47,7.54c-1.24,1.21-3.43,1.72-6.72,1.53c-0.81,0.05-1.57,0.06-2.25,0.01c-0.98-0.15-1.93-0.34-2.65-0.51
		c-0.73-0.26-1.37-0.58-1.84-1.03c-1.65-1.61-1.56-4.37-1.46-7.56l-0.15-4.03c0.35,0.54,0.81,0.73,1.23,0.91l0.94,0.64l0.41,0.71
		c0.48,0.84,0.73,1.3,1.68,1.47l0.81,0.09c0.7,0.06,1.19,0.09,1.61,0.65c0.51,0.95,1.1,1.02,1.66,1.02c0.15,0,0.31-0.01,0.46-0.04
		c0.44-0.06,0.88-0.28,1.29-1.02c0.19-0.26,0.41-0.4,0.67-0.48c0.25-0.07,0.52-0.1,0.84-0.12l0.81-0.09c0.01,0,0.02-0.01,0.04-0.01
		h0.04c0.94-0.17,1.2-0.63,1.68-1.47l0.42-0.7l0.93-0.64c0.4-0.15,0.81-0.31,1.15-0.73L157.93,95.45z M155.82,89.4l-0.09,0.66
		l-0.42-0.52c-0.53-0.67-1.15-0.95-1.7-0.76c-0.55,0.18-0.89,0.78-0.89,1.53v0.67l-0.48-0.48c-0.34-0.34-0.83-0.7-1.29-0.51
		c-0.51,0.21-0.86,1.02-0.86,1.92v0.01h-0.56c0-0.9-0.37-1.71-0.87-1.92c-0.47-0.19-0.96,0.17-1.3,0.51l-0.47,0.47v-0.67
		c0-0.74-0.35-1.33-0.9-1.53c-0.55-0.19-1.17,0.09-1.69,0.76l-0.42,0.51l-0.08-0.66c-0.05-0.4-0.2-0.65-0.48-0.74
		c-0.54-0.19-1.48,0.26-1.93,0.57c0.16,1.99,0.81,2.25,1.51,2.52l1.21,0.88l0.42,0.73c0.46,0.81,0.6,1.06,1.29,1.19l0.76,0.08
		c0.71,0.06,1.45,0.11,2.02,0.91c0.42,0.76,0.81,0.76,1.19,0.76v-0.01c0.37,0,0.76,0,1.2-0.78c0.56-0.77,1.31-0.82,2.02-0.88
		l0.76-0.08c0.69-0.12,0.84-0.39,1.3-1.19l0.43-0.73l1.21-0.87c0.69-0.26,1.35-0.51,1.58-2.28c-0.54-0.54-1.47-1-2.02-0.81
		C156.01,88.76,155.87,89,155.82,89.4z M147.25,75.87c2.68,0.15-1.82-1.06-3.59-0.66c-0.93-0.75,9.34-5.1,10.68,7.71
		c0.37,1.6,1.13,3.92,2.18,5.18c-0.15,0-0.29-0.01-0.43,0.03c-0.25,0.1-0.45,0.48-0.62,0.89c-0.64-0.64-1.36-1.01-2.05-0.78
		c-0.66,0.23-1.04,0.89-1.17,1.67c-0.63-0.45-1.19-0.57-1.53-0.43c-0.4,0.18-0.72,0.56-0.93,1.06c-0.22-0.5-0.54-0.89-0.94-1.06
		c-0.34-0.14-0.9-0.01-1.53,0.43c-0.13-0.78-0.51-1.44-1.17-1.67c-0.68-0.23-1.4,0.14-2.04,0.78c-0.17-0.43-0.38-0.81-0.63-0.91
		c-0.01,0-0.04,0-0.06,0c3.61-3.74,3.29-9.29-4.11-11.53c0,0,2.4-3.82,6.2,0C146.72,77,146.82,76.4,147.25,75.87z M158.68,89.82
		l-0.19,5.61c0,0.16,0,0.3,0.01,0.46c0.42,0.33,1.31,0.31,2.24-0.07c1.47-0.62,3.18-2.21,3.18-4.69c0-3.45,0.54-6.06,1.71-8.23
		c2-3.7,4.99-6.31,7.39-8.4c2.51-2.19,4.49-3.93,4.36-5.95c-6.94,1.8-12.22,4.83-15.33,8.99c-0.6,1.91-0.76,3.78-0.76,5.45
		c0,1.07,0.07,2.07,0.12,2.94l0.09,1.85c0,0.68-0.51,1.12-1.25,1.42c0.01,0.03,0.01,0.1,0.01,0.1l-1.53,0.24
		C158.72,89.65,158.7,89.72,158.68,89.82z M177.9,68.41c3.62-0.89,7.67-1.47,12.14-1.67l-0.12,0.27c-0.99,2.49-1.66,4.14-12.84,4.18
		C177.69,70.31,178,69.4,177.9,68.41z M166.46,82.63c6.2-0.88,9.46-3.34,11.13-5.44c-0.1,0.01-0.21,0.03-0.32,0.04
		c-0.5,0.1-1,0.19-1.56,0.26l-0.01-0.08c-1.68,0.18-3.46,0.32-5.43,0.39C168.91,79.19,167.56,80.76,166.46,82.63z M176.69,71.73
		v0.01c3.56,0,6.1-0.17,7.98-0.47c-1,4.08-7.38,5.35-7.8,5.43c-1.82,0.22-3.79,0.4-5.98,0.5c0.86-0.83,1.71-1.61,2.5-2.29
		C174.68,73.78,175.86,72.75,176.69,71.73z M178.34,77.11c3.81-0.55,6.83-1.35,9.19-2.27c-0.32,0.98-1.28,3.05-3.79,4.87l-0.18,0.12
		c-1.9,1.33-4.67,2.5-8.65,2.98c0.78-1.5,0.96-2.79,1-3.2C176.99,78.76,177.76,77.9,178.34,77.11z M164.56,88.75
		c3.24-0.33,5.56-1.27,7.22-2.42c-0.1,0.5-0.35,1.39-0.92,2.38c-0.09,0-0.26,0.48-0.26,0.48c-1.03,1.53-2.98,3.11-6.43,3.68
		c0.18-0.53,0.3-1.11,0.3-1.75C164.47,90.28,164.5,89.49,164.56,88.75z M166.14,83.11c-0.01,0.01-0.02,0.04-0.03,0.06
		c-0.76,1.41-1.23,3.06-1.46,5c5.24-0.56,7.93-2.71,9.29-4.74c0,0,0.21-0.54,0.35-0.56c0.66-1.16,0.91-2.22,1.01-2.85
		c-2.04,1.42-4.95,2.68-9.14,3.22L166.14,83.11z M183.49,81.13l0.04-0.62c-2.02,1.33-4.9,2.46-8.96,2.89
		c-0.53,0.86-1.27,1.75-2.28,2.54l0.11,0.01c0,0.03-0.15,1.27-0.92,2.73C181.43,88.28,183.2,82.84,183.49,81.13z M169.97,90.76
		c0.01,0.29-0.01,1.39-0.43,2.7c3.18,0.13,5.76-0.48,7.63-1.88c2.06-1.55,2.73-3.67,2.95-4.67c-1.92,1.26-4.76,2.24-8.94,2.35
		C170.86,89.76,170.47,90.26,169.97,90.76z M160.94,96.33c-0.94,0.38-1.83,0.45-2.44,0.21c0.01,0.29,0.02,0.61,0.02,0.89
		c5.15,1.14,7.96-0.67,8.56-1.17c0.79-0.67,2.24-3.09,2.32-5.06c-0.87,0.73-3.77,2.3-5.53,2.3
		C163.19,94.9,162.02,95.88,160.94,96.33z M164.38,101.77c1.06,0.29,2.03,0.47,2.96,0.62c-0.01,0.37-0.11,1.42-1.08,2.04
		c-1.08,0.69-3.5,0.91-8.8-1.92c0.14-0.22,0.33-0.41,0.44-0.66C160.57,102.38,162.74,102.35,164.38,101.77z M166.26,100.7
		c0.7-0.65,1.1-1.41,1.32-2.13c3.34,0.54,5.96,0.14,7.83-1.21c0.09-0.06,0.15-0.14,0.23-0.21c-0.01,0.83-0.2,2.47-1.53,3.61
		c-1.72,1.47-4.76,1.64-8.92,0.6C165.57,101.18,165.96,100.99,166.26,100.7z M167.72,98.05c0.18-0.84,0.15-1.53,0.12-1.77
		c0.7-0.7,1.19-1.49,1.5-2.26c3.4,0.16,6.16-0.49,8.18-2.01c0.07-0.06,0.13-0.13,0.21-0.19c-0.11,1.21-0.58,3.6-2.65,5.1
		C173.33,98.17,170.88,98.56,167.72,98.05z M158.04,101.32c0.32-0.98,0.45-2.08,0.48-3.31c2.82,0.58,6.23,0.58,8.78-1.24
		C167.12,100.88,162.42,102.38,158.04,101.32z M195.9,66.66c-0.01,0-0.58-0.01-0.58-0.01c-1.61-0.02-3.15,0.02-4.68,0.08l-0.21,0.49
		c-0.7,1.76-1.29,3.2-5.2,3.95c-0.09,0.76-0.73,3.22-4.32,4.9C195.12,73.27,195.67,66.67,195.9,66.66z M141.5,105.54
		c-0.96,0.07-1.49-0.82-1.49-0.82l2.32-0.99l0.35,0.23c0.1,0.1,0.26,0.23,0.48,0.39C143.06,104.52,142.38,105.49,141.5,105.54z
		 M159.98,104.72c0,0-0.77-0.28-1.43-0.55c-0.66-0.28-1.38-0.94-1.38-0.94l-0.6,0.77c0,0,0.66,1.16,2.04,1.32
		C159.55,105.44,159.98,104.72,159.98,104.72z M148.32,115.27c1.05-1.06,0.98-5.85,0.98-9.07c0-0.13-0.08-0.25-0.14-0.36
		c-2.87-0.06-4.6-0.67-5.56-1.22c-0.32,0.12-0.6,0.26-0.71,0.48c-0.97,1.74-0.97,7.46-0.97,7.46c0.61,1.55,2.87-2.13,2.46,0.01
		c-0.45,2.36-2.68,4.03-2.68,4.91c0,0.88,2.62,0.07,3.79-0.16C146.63,117.09,146.99,116.59,148.32,115.27z M153.73,117.37
		c-1.14-0.3-1.47-0.81-2.72-2.21c-0.98-1.11-0.64-5.9-0.46-9.11c0.01-0.1,0.07-0.16,0.1-0.24c2.93-0.14,4.47-0.72,5.22-1.19
		c0.56,0.15,1,0.37,1.15,0.69c0.87,1.79,0.54,7.51,0.54,7.51c-0.7,1.52-2.75-2.3-2.46-0.12c0.32,2.38,2.44,4.17,2.4,5.04
		C157.46,118.62,154.88,117.67,153.73,117.37z M149.84,119.14c0.37,0,0.67-0.4,0.67-0.9c0-0.5-0.3-0.9-0.67-0.9
		c-0.37,0-0.67,0.4-0.67,0.9C149.16,118.74,149.47,119.14,149.84,119.14z M158.57,117.06c-0.92-1.38-0.77-1.66-0.77-1.66
		c0.04-0.04,0.22-0.06,0.87,0.18c1.14,0.24,1.58,0.18,1.78-0.12c0.07-0.09,0.09-0.19,0.09-0.31c0-0.35-0.29-0.8-0.65-1.36
		c-0.41-0.66-0.85-1.44-0.97-2.21c1.16,0.54,5.51,2.79,5.51,7.46c0,0.11,0,0.22-0.01,0.33c-0.01,0.34-0.15,0.43-0.26,0.47
		C162.97,120.25,158.93,117.47,158.57,117.06z M140.67,116.76c-0.32,0.33-4.51,2.93-5.7,2.43c-0.12-0.04-0.25-0.15-0.25-0.47v-0.01
		c0.05-4.87,4.69-6.97,5.92-7.46c-0.17,0.76-0.63,1.53-1.08,2.16c-0.4,0.56-0.72,1-0.72,1.35c0,0.1,0.02,0.2,0.08,0.29
		c0.18,0.31,0.62,0.38,1.52,0.27c0.91-0.26,1.09-0.23,1.13-0.19C141.56,115.11,141.69,115.41,140.67,116.76z M143.88,119.48
		c0.81,0.14,1.22,1.5,0.95,3.18c-0.27,1.67-1.09,2.84-1.91,2.71c-0.8-0.15-1.21-1.5-0.93-3.17
		C142.25,120.52,143.07,119.36,143.88,119.48z M145.66,121.75c-0.31,1.68,0.08,3.05,0.89,3.2c0.8,0.15,1.64-1,1.95-2.68
		c0.3-1.66-0.08-3.03-0.88-3.18C146.8,118.94,145.96,120.09,145.66,121.75z M151.14,122.48c0.28,1.69,1.1,2.84,1.91,2.71
		c0.8-0.13,1.21-1.49,0.93-3.18c-0.28-1.66-1.1-2.83-1.9-2.69C151.27,119.45,150.86,120.82,151.14,122.48z M154.9,122.72
		c0.23,1.69,1.01,2.88,1.83,2.77c0.81-0.11,1.26-1.46,1.03-3.15c-0.22-1.67-1.01-2.86-1.82-2.75
		C155.12,119.69,154.67,121.05,154.9,122.72z M139.79,125.56c0.81,0,1.44-1.28,1.44-2.98c0-1.69-0.62-2.97-1.44-2.97
		c-0.82,0-1.44,1.28-1.44,2.97C138.34,124.29,138.97,125.56,139.79,125.56z M159.85,125.63c0.82,0,1.44-1.28,1.44-2.98
		c0-1.69-0.62-2.97-1.44-2.97c-0.82,0-1.44,1.28-1.44,2.97C158.4,124.34,159.03,125.63,159.85,125.63z M127.14,86.08
		c0.06,0.47,0.26,1.46,0.8,2.58c-9.58-0.67-11.06-6.09-11.28-7.65c1.92,1.21,4.57,2.24,8.21,2.68l0.01-0.04
		C125.38,84.47,126.1,85.31,127.14,86.08z M125.09,96.93c-2.19-1.58-2.58-4.17-2.65-5.29c1.61,1.33,4.04,2.4,7.82,2.43
		c0.32,0.7,0.78,1.4,1.41,2.04c-0.02,0.23-0.07,1.04,0.17,2.02C128.99,98.47,126.71,98.09,125.09,96.93z M140.95,97.92
		c0.01,1.2,0.15,2.27,0.44,3.24c-4.88,0.79-7.24-0.52-7.78-1.03c-0.1-0.1-0.17-0.2-0.26-0.31c-0.34-0.39-1.15-1.81-1.14-3.2
		c0.33,0.27,0.76,0.43,1.14,0.63C133.62,97.38,135.97,98.89,140.95,97.92z M140.95,96.48c0,0.29-0.01,0.57-0.01,0.85
		c-1.66,0.32-4.91,0.79-7.6-0.65c-0.32-0.18-0.66-0.34-0.93-0.58c-1.77-1.5-2.19-3.68-2.29-4.83c1.22,0.98,2.92,1.78,5.38,2.08
		C136.7,96.8,140.24,96.71,140.95,96.48z M134.99,91.13c0,0.59,0.12,1.11,0.27,1.62c-2.41-0.36-4.05-1.19-5.18-2.17v-0.05
		l-0.07-0.01c-1.57-1.42-2.08-3.08-2.26-4.02c1.63,1.03,3.9,1.85,7.12,2.11C134.95,89.4,134.99,90.22,134.99,91.13z M126.07,100.8
		c-1.35-1.14-1.54-2.79-1.55-3.64c0.08,0.07,0.15,0.15,0.23,0.21c1.75,1.27,4.19,1.69,7.25,1.29c0.23,0.64,0.59,1.3,1.21,1.87
		c0.41,0.38,0.9,0.68,1.44,0.92C130.67,102.4,127.75,102.22,126.07,100.8z M120.08,86.91c1.8,1.18,4.39,2.12,8.15,2.33
		c0.32,0.53,0.76,1.06,1.29,1.56c0.01,0.5,0.08,1.53,0.5,2.71C122.14,93.33,120.44,88.6,120.08,86.91z M141.52,101.7
		c0.16,0.4,0.42,0.73,0.67,1.08c-5.07,2.66-7.35,2.45-8.37,1.77c-0.99-0.66-1.01-1.84-1-2.18c0.92-0.15,1.88-0.32,2.92-0.61
		C137.28,102.16,139.2,102.16,141.52,101.7z M133.38,83.22c0.73,1.36,1.18,2.95,1.41,4.82c-3.3-0.29-5.57-1.15-7.12-2.22v-0.03
		h-0.05c-2.74-1.91-3.23-4.42-3.31-5.35C126.37,81.75,129.28,82.84,133.38,83.22z M112.34,74.97c2.21,0.84,4.94,1.56,8.37,2.07
		c0.66,0.96,1.61,2.04,3.02,3.03h-0.01c0,0.02,0.01,1.38,0.83,2.99C115.06,81.79,112.79,76.42,112.34,74.97z M129.19,77.8
		c1.36,1.39,2.71,2.95,3.8,4.82c-6.57-0.72-9.88-3.31-11.51-5.48c0.67,0.1,1.39,0.18,2.12,0.26c0.08,0.01,0.14,0.03,0.23,0.04v-0.02
		C125.49,77.59,127.25,77.74,129.19,77.8z M138.25,85.77l-0.29,2.02c0,0.42,0.24,0.99,1.03,1.37c-0.01,0.01-0.01,0.04-0.01,0.04
		s0.12,0.02,0.12,0.03c0.4,0.16,0.94,0.28,1.66,0.31l0.2,5.88c-0.01,0.17,0,0.32-0.01,0.48c-0.42,0.33-1.31,0.31-2.24-0.07
		c-1.47-0.61-3.18-2.2-3.18-4.69c0-3.45-0.54-6.07-1.71-8.22c-0.01-0.01-0.01-0.02-0.01-0.04l0.01-0.15
		c-0.04-0.01-0.08-0.01-0.12-0.01c-0.5-0.9-1.05-1.73-1.64-2.51c-1.77-2.33-3.85-4.16-5.62-5.7c-2.47-2.15-4.43-3.87-4.35-5.85
		c7.13,2.19,12.13,5.73,15.4,9.01c0.88,1.91,1.15,3.53,1.15,4.9C138.65,83.78,138.44,84.83,138.25,85.77z M126.08,74.92
		c0.79,0.69,1.64,1.47,2.5,2.3c-1.82-0.09-3.49-0.22-5.05-0.39c-1-0.14-2.66-0.56-2.66-0.56l-0.79-0.25c0,0-5-2.05-5.22-4.8
		c1.86,0.3,4.38,0.48,7.88,0.48C123.57,72.73,124.75,73.77,126.08,74.92z M109.08,67.17c0.7,1.76,1.29,3.2,5.2,3.95
		c0.1,0.78,0.76,3.37,4.63,5.04c-14.12-2.66-15.03-9.05-15.08-9.65c0.1,0.12,0.51,0.12,0.51,0.12c1.58-0.07,3.04-0.04,4.51,0
		L109.08,67.17z M121.56,68.46c-0.08,0.95,0.21,1.83,0.78,2.68c-11.07-0.05-11.75-1.7-12.74-4.17l-0.14-0.34
		C114.04,66.79,118.07,67.45,121.56,68.46z"/>
</g>
</svg>
