<?xml version="1.0" encoding="UTF-8" standalone="no"?>
<svg
   clip-rule="evenodd"
   fill-rule="evenodd"
   viewBox="0 0 411.10281 89.999702"
   version="1.1"
   id="svg122"
   sodipodi:docname="used-by-munz.svg"
   width="411.10281"
   height="89.999702"
   inkscape:version="1.3 (0e150ed6c4, 2023-07-21)"
   xmlns:inkscape="http://www.inkscape.org/namespaces/inkscape"
   xmlns:sodipodi="http://sodipodi.sourceforge.net/DTD/sodipodi-0.dtd"
   xmlns="http://www.w3.org/2000/svg"
   xmlns:svg="http://www.w3.org/2000/svg">
  <defs
     id="defs122" />
  <sodipodi:namedview
     id="namedview122"
     pagecolor="#ffffff"
     bordercolor="#666666"
     borderopacity="1.0"
     inkscape:showpageshadow="2"
     inkscape:pageopacity="0.0"
     inkscape:pagecheckerboard="0"
     inkscape:deskcolor="#d1d1d1"
     inkscape:zoom="4.5775"
     inkscape:cx="205.57073"
     inkscape:cy="44.893501"
     inkscape:window-width="3840"
     inkscape:window-height="2066"
     inkscape:window-x="-11"
     inkscape:window-y="-11"
     inkscape:window-maximized="1"
     inkscape:current-layer="svg122" />
  <g
     transform="matrix(0.608271,0,0,0.608271,-64.230825,-188.81133)"
     id="g122">
    <g
       fill-rule="nonzero"
       id="g98">
      <path
         d="m 0,0 c -3.843,4.439 -8.768,3.114 -8.768,3.114 0,0 1.697,-1.449 2.783,-4.392 1.077,-2.945 1.077,-4.625 1.077,-4.625 0,0 -2.163,0.665 -6.407,-0.867 -4.427,-1.615 -4.279,-6.537 -4.279,-6.537 0,0 3.86,3.329 8.903,1.168 4.33,-1.859 6.027,-7.679 6.027,-7.679 0,0 0.254,2.223 1,3.613 0.83,1.543 1.948,2.632 2.902,5.442 C 4.123,-8.143 3.828,-4.43 0,0"
         fill="#e69f0a"
         transform="matrix(0.995632,0,0,-0.995632,140.12704,404.76562)"
         id="path1" />
      <path
         d="m 0,0 c -0.8,3.745 -0.047,5.109 -0.047,5.109 0,0 3.479,2.564 8.187,0.581 3.786,-1.605 4.651,-5.156 4.651,-5.156 0,0 2.609,2.16 2.898,5.448 0.301,3.288 -1.284,5.513 -3.146,7.145 -1.874,1.626 -5.696,3.241 -5.696,3.241 0,0 2.756,1.493 3.544,3.037 0.307,0.61 0.502,1.21 0.682,1.803 0.286,0.926 0.54,1.835 1.148,2.736 0.992,1.481 3.432,2.862 3.432,2.862 0,0 -3.863,1.57 -7.806,-0.133 C 3.899,24.977 2.91,23.318 -1.502,21.529 -1.783,21.411 -2.06,21.311 -2.329,21.217 h -0.023 c -4.71,-1.579 -7.977,-0.03 -7.977,-0.03 0,0 1.679,-1.812 1.679,-6.599 0,-4.787 -0.36,-8.624 1.738,-12.968 2.585,-5.377 8.653,-6.283 8.653,-6.283 0,0 -0.941,0.906 -1.741,4.663"
         fill="#e69f0a"
         transform="matrix(0.995632,0,0,-0.995632,128.42239,404.09855)"
         id="path2" />
      <path
         d="m 0,0 c -2.287,2.618 -3.595,7.349 -6.36,12.245 -4.35,7.691 -9.769,9.391 -9.769,9.391 0,0 1.565,-3.793 -0.079,-6.942 -2.229,-4.226 -4.076,-2.529 -4.076,-2.529 0,0 0.059,-3.116 2.848,-4.704 4.223,-2.423 6.873,0.699 6.873,0.699 0,0 -0.301,-4.199 3.855,-7.316 3.707,-2.771 6.59,-2.739 8.393,-3.296 1.098,-0.355 2.152,-0.821 2.152,-0.821 0,0 -1.547,0.64 -3.837,3.273"
         fill="#e69f0a"
         transform="matrix(0.995632,0,0,-0.995632,161.64663,435.11248)"
         id="path3" />
      <path
         d="m 0,0 c 1.788,1.582 3.376,1.555 3.376,1.555 0,0 -1.298,0.779 -2.47,3.766 -1.166,2.987 -0.384,5.126 -0.384,5.126 0,0 -2.346,-2.065 -3.385,-6.032 -1.036,-3.966 0.85,-7.998 0.85,-7.998 0,0 0.26,2.019 2.013,3.583"
         fill="#e69f0a"
         transform="matrix(0.995632,0,0,-0.995632,116.33741,335.70859)"
         id="path4" />
      <path
         d="m 0,0 c 1.015,-2.907 1.169,-4.814 1.237,-6.431 0.047,-1.239 0.714,-2.275 0.714,-2.275 0,0 -4.117,-0.464 -5.401,-2.538 -2.066,-3.377 0.127,-6.756 0.127,-6.756 0,0 0.59,2.47 3.323,2.99 1.502,0.286 4.158,0.204 6.95,-2.276 3.509,-3.125 8.119,-3.314 8.119,-3.314 0,0 -1.112,2.928 -0.268,5.977 0.841,3.051 1.764,4.09 3.712,7.156 1.954,3.037 1.75,4.218 1.55,6.292 -0.189,2.052 -1.361,4.221 -1.361,4.221 0,0 -0.649,-2.202 -2.458,-3.182 -1.827,-0.977 -3.123,-1.889 -4.61,-3.187 -1.502,-1.293 -1.765,-3.046 -1.765,-3.046 0,0 -0.39,3.964 -2.334,6.301 -1.954,2.332 -4.386,4.79 -6.682,5.386 -3.515,0.909 -4.949,0.26 -4.949,0.26 0,0 2.73,-1.691 4.096,-5.578"
         fill="#e69f0a"
         transform="matrix(0.995632,0,0,-0.995632,120.80083,328.20152)"
         id="path5" />
      <path
         d="m 0,0 c -0.207,-2.084 0,-4.607 -0.452,-7.661 -0.46,-3.058 -3.252,-4.811 -3.252,-4.811 0,0 4.746,-1.361 7.405,2.925 2.024,3.252 0.395,7.207 -0.85,9.225 C 1.623,1.694 1.812,4.861 1.812,4.861 1.812,4.861 0.192,2.081 0,0"
         fill="#e69f0a"
         transform="matrix(0.995632,0,0,-0.995632,140.52131,338.23749)"
         id="path6" />
      <path
         d="m 0,0 c 1.768,2.742 5.262,1.918 5.262,1.918 0,0 -4.359,7.045 -8.644,1.37 C -8.379,-3.329 1.561,-8.21 1.561,-8.21 1.561,-8.21 -2.258,-3.477 0,0"
         fill="#e69f0a"
         transform="matrix(0.995632,0,0,-0.995632,110.36163,350.7725)"
         id="path7" />
      <path
         d="m 0,0 c -4.873,0.207 -7.083,-9.901 -5.681,-15.403 5.345,11.038 16.223,8.913 16.223,8.913 0,0 -5.734,6.286 -10.542,6.49"
         fill="#e69f0a"
         transform="matrix(0.995632,0,0,-0.995632,133.71219,364.75117)"
         id="path8" />
      <path
         d="m 0,0 c 1.892,-2.213 4.486,-2.925 4.486,-2.925 0,0 -1.818,7.021 0.271,12.998 2.078,5.97 6.806,8.446 9.737,9.157 2.921,0.718 3.898,0.718 5.713,1.556 1.414,0.664 1.916,1.614 2.662,2.989 -1.88,-0.259 -3.19,-0.194 -5.2,0.582 -2.01,0.782 -3.89,1.827 -7.593,4.347 -3.71,2.538 -5.139,2.624 -8.636,2.928 -2.995,0.256 -4.288,-1.163 -4.288,-1.163 0,0 2.299,-1.024 3.317,-2.662 1.556,-2.538 0.579,-5.009 0.579,-5.009 0,0 -1.564,0.783 -3.639,1.104 -2.084,0.328 -3.32,0.045 -4.548,0.272 -1.107,0.183 -1.493,1.095 -1.493,1.095 0,0 -0.65,-2.27 0.782,-5.661 1.425,-3.37 3.37,-3.633 3.37,-3.633 0,0 -5.197,-0.829 -6.496,-5.902 -1.75,-6.889 3.645,-11.106 3.645,-11.106 0,0 0.331,3.447 2.01,4.155 1.685,0.709 3.766,2.016 3.766,2.016 0,0 -0.325,-2.925 1.555,-5.138"
         fill="#e69f0a"
         transform="matrix(0.995632,0,0,-0.995632,121.18216,378.46102)"
         id="path9" />
      <path
         d="M 0,0 V 27.411 H -56.7 V 0 c 0,0 -1.885,-33.689 28.344,-48.764 C 1.886,-33.689 0,0 0,0"
         fill="#18468b"
         transform="matrix(0.995632,0,0,-0.995632,205.85668,390.19953)"
         id="path10" />
      <path
         d="m 0,0 c 0.316,0.741 1.068,1.269 1.93,1.269 0.36,0 0.661,-0.1 0.968,-0.251 0.906,-0.49 2.612,-1.585 4.17,-1.939 1.812,-0.428 2.892,-0.097 2.999,0.41 0.124,0.523 -1.848,2.539 -3.999,2.899 -2.161,0.348 -5.401,0.43 -9.804,-0.346 -4.407,-0.77 -6.027,0.101 -6.328,0.776 -0.307,0.679 0.068,0.912 0.313,1.417 -0.62,-0.044 -1.071,-0.298 -1.358,-0.847 -0.796,-1.541 -1.301,-3.367 -1.263,-6.885 0.042,-3.521 0.186,-6.36 2.229,-6.818 2.042,-0.448 3.538,0.968 5.011,1.187 1.472,0.236 2.01,-0.481 2.01,-0.481 z"
         fill="#18468b"
         transform="matrix(0.995632,0,0,-0.995632,137.3562,433.40995)"
         id="path11" />
      <path
         d="m 0,0 c -0.325,0.741 -1.074,1.269 -1.942,1.269 -0.351,0 -0.646,-0.1 -0.965,-0.251 -0.9,-0.49 -2.6,-1.585 -4.167,-1.939 -1.818,-0.428 -2.892,-0.097 -3.005,0.41 -0.121,0.523 1.851,2.539 4.005,2.899 2.152,0.348 5.404,0.43 9.81,-0.346 4.395,-0.77 6.021,0.101 6.328,0.776 0.304,0.679 -0.083,0.912 -0.322,1.417 0.626,-0.044 1.071,-0.298 1.367,-0.847 0.788,-1.541 1.301,-3.367 1.254,-6.885 -0.03,-3.521 -0.18,-6.36 -2.225,-6.818 -2.04,-0.448 -3.533,0.968 -5.006,1.187 -1.469,0.236 -2.013,-0.481 -2.013,-0.481 z"
         fill="#18468b"
         transform="matrix(0.995632,0,0,-0.995632,217.87296,433.40995)"
         id="path12" />
      <path
         d="m 0,0 c -10.176,-7.042 -25.649,-11.516 -42.985,-11.516 -17.306,0 -32.786,4.471 -42.929,11.489 -0.23,0.16 -0.372,0.42 -0.372,0.723 0,0.104 0.012,0.21 0.047,0.304 l 3.92,12.05 c 0.129,0.316 0.454,0.535 0.817,0.535 0.23,0 0.443,-0.095 0.623,-0.254 6.05,-6.381 20.732,-10.876 37.894,-10.876 17.25,0 32.009,4.551 38.039,10.982 0.159,0.148 0.375,0.216 0.605,0.216 0.369,0 0.605,-0.237 0.755,-0.576 0,0 3.961,-12.062 3.979,-12.062 0.044,-0.1 0.07,-0.203 0.07,-0.313 C 0.463,0.384 0.257,0.145 0,0"
         fill="#18468b"
         transform="matrix(0.995632,0,0,-0.995632,220.42377,446.90077)"
         id="path13" />
      <path
         d="M 0,0 C 0.242,-0.354 0.637,-0.354 0.888,0 L 3.412,2.978 C 3.651,3.317 3.506,3.609 3.081,3.609 H -2.27 c -0.427,0 -0.566,-0.292 -0.324,-0.625 z m 10.589,-0.221 c 0.34,0 0.841,0.268 1.133,0.602 l 2.296,2.691 c 0.284,0.34 0.248,0.611 -0.088,0.611 H 9.181 C 8.845,3.683 8.326,3.412 8.051,3.072 L 5.752,0.381 C 5.457,0.047 5.501,-0.221 5.838,-0.221 Z m 21.984,0 c 0.328,0 0.838,0.268 1.122,0.602 l 2.302,2.691 c 0.274,0.34 0.244,0.611 -0.095,0.611 h -2.146 c -0.339,0 -0.849,-0.271 -1.133,-0.611 L 30.318,0.381 c -0.277,-0.334 -0.242,-0.602 0.095,-0.602 z m 4.979,0 c -0.676,0 -0.316,0.54 0.171,1.186 l 1.597,1.803 c 0.492,0.49 1.434,0.883 2.104,0.883 h 2.199 c 0.667,0 0.646,-0.52 -0.021,-1.181 -2.644,-2.582 -6.05,-2.691 -6.05,-2.691 m -11.962,0 c 0.337,0 0.844,0.268 1.125,0.602 l 2.299,2.691 c 0.295,0.34 0.251,0.611 -0.089,0.611 h -2.148 c -0.334,0 -0.835,-0.271 -1.125,-0.611 L 23.353,0.381 C 23.064,0.047 23.1,-0.221 23.436,-0.221 Z m -7.05,0 c 0.333,0 0.838,0.268 1.13,0.602 l 2.296,2.691 c 0.289,0.34 0.239,0.611 -0.091,0.611 h -2.963 c -0.334,0 -0.841,-0.271 -1.134,-0.611 L 15.482,0.381 c -0.28,-0.334 -0.245,-0.602 0.086,-0.602 z M -8.585,-0.313 c -0.343,0 -0.847,0.275 -1.131,0.608 l -2.307,2.689 c -0.287,0.333 -0.248,0.611 0.088,0.611 h 4.752 c 0.348,0 0.847,-0.278 1.133,-0.611 l 2.296,-2.689 c 0.292,-0.333 0.257,-0.608 -0.08,-0.608 z m -15.001,0 c -0.334,0 -0.847,0.275 -1.14,0.608 l -2.299,2.689 c -0.283,0.333 -0.236,0.611 0.092,0.611 h 2.157 c 0.331,0 0.841,-0.278 1.128,-0.611 l 2.296,-2.689 c 0.292,-0.333 0.245,-0.608 -0.086,-0.608 z m 7.053,0 c -0.333,0 -0.85,0.275 -1.13,0.608 l -2.302,2.689 c -0.287,0.333 -0.245,0.611 0.088,0.611 h 2.966 c 0.328,0 0.841,-0.278 1.125,-0.611 l 2.302,-2.689 c 0.289,-0.333 0.251,-0.608 -0.098,-0.608 z m -12.047,0 c 0.667,0 0.319,0.534 -0.162,1.184 l -1.612,1.806 c -0.484,0.484 -1.434,0.876 -2.101,0.876 h -2.19 c -0.664,0 -0.649,-0.504 0.024,-1.183 2.632,-2.574 6.041,-2.683 6.041,-2.683"
         fill="#18468b"
         transform="matrix(0.995632,0,0,-0.995632,173.15913,314.0735)"
         id="path14" />
      <path
         d="m 0,0 c -0.012,0.493 -0.035,0.944 -0.083,1.284 -0.702,7.561 -2.588,14.358 -6.404,20.588 -0.195,0.581 -0.761,0.779 -1.349,0.395 -0.36,0 -0.392,-0.324 -0.247,-0.679 0,0 1.319,-1.729 1.838,-2.62 0.785,-1.346 1.293,-2.848 1.249,-4.48 0.008,-0.585 -0.054,-1.145 -0.172,-1.721 -0.773,-3.648 -3.804,-6.664 -7.151,-8.24 -0.891,-0.33 -1.9,-0.584 -2.918,-0.717 -2.113,-0.263 -4.442,-0.112 -6.065,1.254 -0.526,0.405 -0.971,0.886 -1.337,1.435 -0.641,1.036 -1.001,2.408 -0.885,3.721 0.02,0.446 0.135,1.054 0.504,1.352 l 0.086,0.127 c 1.304,1.788 1.706,-1.632 4.958,-2.161 0.519,-0.1 1.077,-0.118 1.632,-0.011 0.519,0.197 1,0.546 1.396,1.003 0.466,0.502 0.782,1.089 0.921,1.691 0.097,0.425 0.103,0.847 0.041,1.272 -0.168,0.759 -0.576,1.393 -1.16,1.874 -1.685,1.426 -4.43,2.453 -5.315,4.572 -0.171,0.611 -0.183,1.115 -0.033,1.623 0.148,0.508 0.49,1.053 0.815,1.576 0.083,0.13 1.508,1.815 1.529,1.815 l 2.612,2.995 c 0.206,0.785 -0.765,0.591 -0.962,0.405 -1.957,-1.927 -2.949,-4.436 -5.277,-5.773 -2.919,-0.941 -5.64,-1.886 -7.789,-4.568 -3.317,-2.308 -6.622,-4.787 -10.128,-6.502 -0.393,-0.773 -0.21,-1.741 -0.021,-2.523 1.738,-1.172 4.055,-1.199 6.174,-1.795 0.965,-1.36 1.142,-3.494 0.738,-5.043 1.343,-0.396 4.616,2.296 5.651,4.601 1.553,-0.207 2.89,-1.768 3.076,-3.321 0.112,-1.269 -0.177,-2.417 -0.676,-3.429 -1.558,-3.111 -5.162,-4.949 -5.162,-4.949 1.461,-0.599 2.538,-1.73 3.034,-1.868 0.519,-0.139 2.145,3.376 2.836,3.535 0.868,0.204 3.922,-2.198 4.586,-2.198 0.555,0 2.568,2.847 3.436,2.797 0.982,-0.062 3.031,-3.391 3.703,-3.488 0.461,-0.05 3.536,2.931 4.516,2.824 0.705,-0.076 2.013,-2.694 2.538,-2.904 0.561,-0.195 1.582,1.34 5.303,2.04 0,0 0.033,2.423 -0.038,4.211"
         fill="#18468b"
         transform="matrix(0.995632,0,0,-0.995632,195.02918,338.82491)"
         id="path15" />
      <path
         d="m 0,0 c -0.26,-0.168 -0.381,-0.322 -0.581,-0.546 -0.396,-0.484 -0.629,-1.006 -0.741,-1.411 -0.106,-0.38 -0.106,-0.761 0.018,-1.216 0.785,-1.856 3.588,-3.022 5.126,-4.32 0.682,-0.558 1.177,-1.331 1.369,-2.237 0.08,-0.499 0.074,-1.027 -0.038,-1.532 -0.168,-0.717 -0.522,-1.402 -1.074,-1.983 -0.461,-0.543 -1.027,-0.942 -1.665,-1.169 -0.696,-0.139 -1.328,-0.127 -1.93,-0.024 -1.679,0.281 -3.01,1.379 -4.173,2.624 -0.133,-0.15 -0.207,-0.257 -0.272,-0.354 l -0.091,-0.092 c -0.186,-0.126 -0.266,-0.69 -0.277,-0.894 -0.11,-1.186 0.224,-2.432 0.79,-3.349 0.322,-0.493 0.721,-0.921 1.196,-1.284 1.404,-1.21 3.526,-1.373 5.601,-1.116 0.953,0.115 1.895,0.363 2.748,0.667 3.217,1.532 6.059,4.398 6.767,7.8 0.118,0.523 0.171,1.06 0.171,1.576 0.039,1.494 -0.425,2.875 -1.157,4.15 -0.552,0.929 -1.118,1.694 -2.024,2.603 C 9.332,-1.67 8.916,-1.384 8.594,-1.062 8.99,-0.286 9.96,-0.49 10.347,0.089 7.254,0.499 0.959,0.351 0.959,0.351 0.564,0.304 0.336,0.23 0,0 m -0.511,-17.188 c -0.088,-0.038 -0.188,-0.074 -0.309,-0.03 0.121,0.042 0.168,0.201 0.141,0.34 0.027,0.059 0.115,0.032 0.195,-0.033 0.083,-0.162 0.035,-0.227 -0.027,-0.277 m 2.152,-0.487 c -0.148,-0.136 -0.307,-0.266 -0.561,-0.266 0.186,0.154 0.18,0.493 0.027,0.753 0.026,0.115 0.206,0.115 0.395,0.059 0.095,-0.024 0.133,-0.038 0.151,-0.089 0.103,-0.174 0.065,-0.324 -0.012,-0.457 m 1.954,-0.142 c 0.212,0.369 -0.015,0.906 -0.437,1.216 -0.03,0.198 0.242,0.319 0.611,0.366 0.162,0.021 0.236,0 0.304,-0.047 0.262,-0.216 0.292,-0.487 0.254,-0.759 -0.142,-0.309 -0.322,-0.628 -0.732,-0.776 m 2.809,0.856 c 0.05,0.558 -0.389,1.213 -0.9,1.499 -0.124,0.257 0.095,0.502 0.428,0.664 0.153,0.062 0.21,0.074 0.301,0.036 0.339,-0.222 0.484,-0.576 0.549,-0.951 0,-0.451 -0.062,-0.92 -0.378,-1.248 m 0.874,3.052 c -0.272,0.192 -0.251,0.578 -0.089,0.912 0.089,0.15 0.145,0.197 0.245,0.197 0.431,-0.032 0.791,-0.327 1.089,-0.67 0.313,-0.492 0.582,-1.012 0.526,-1.525 -0.322,0.599 -1.134,1.053 -1.771,1.086 m 1.148,2.131 c -0.407,0.038 -0.617,0.469 -0.629,0.929 -0.006,0.224 0.03,0.295 0.127,0.354 0.49,0.228 1.054,0.115 1.594,-0.082 0.611,-0.34 1.21,-0.732 1.461,-1.331 -0.712,0.457 -1.851,0.472 -2.553,0.13 m 3.471,2.756 c -1.01,0.478 -2.509,0.292 -3.359,-0.289 -0.552,-0.012 -0.9,0.501 -0.995,1.109 -0.053,0.293 -0.026,0.387 0.107,0.496 0.599,0.369 1.351,0.328 2.086,0.171 0.865,-0.336 1.733,-0.752 2.161,-1.487 m -0.685,2.877 c -1.367,0.499 -2.913,0.52 -3.97,-0.389 -0.714,-0.068 -1.31,0.401 -1.756,0.897 -0.124,0.18 -0.1,0.517 0.054,0.679 0.749,0.584 1.744,0.637 2.721,0.525 1.148,-0.342 2.331,-0.785 2.951,-1.712 m -9.789,3.793 c 0.968,0.764 2.334,0.947 3.683,0.938 C 6.741,-1.67 8.393,-2.033 9.35,-3.001 7.422,-2.6 5.292,-2.777 3.925,-3.916 2.954,-4.108 2.081,-3.639 1.42,-3.122 c -0.204,0.188 -0.201,0.584 0.003,0.77"
         fill="#18468b"
         transform="matrix(0.995632,0,0,-0.995632,176.54527,315.57691)"
         id="path16" />
      <path
         d="m 0,0 -12.245,0.933 4.669,-11.357 -9.361,7.942 -2.898,-11.926 -2.901,11.926 -9.365,-7.942 4.678,11.357 L -39.668,0 l 10.451,6.449 -10.451,6.445 12.245,-0.927 -4.678,11.354 9.365,-7.954 2.901,11.941 2.898,-11.941 9.361,7.954 L -12.245,11.967 0,12.894 -10.447,6.449 Z"
         fill="#ffffff"
         transform="matrix(0.995632,0,0,-0.995632,197.375,402.826)"
         id="path17" />
      <path
         d="M 0,0 C 0,0 0.561,-8.234 -4.164,-17.832 -0.838,-8.145 -1.29,0.083 -1.29,0.083 V 23.536 H -49.758 V 0.083 c 0,0 -0.443,-8.228 2.886,-17.915 C -51.6,-8.234 -51.039,0 -51.039,0 V 24.687 H 0 Z"
         fill="#ffffff"
         transform="matrix(0.995632,0,0,-0.995632,203.03505,390.32896)"
         id="path18" />
      <path
         d="m 0,0 c -1.656,3.149 -0.077,6.941 -0.077,6.941 0,0 -5.418,-1.7 -9.771,-9.391 -2.763,-4.896 -4.073,-9.627 -6.36,-12.244 -2.29,-2.63 -3.843,-3.27 -3.843,-3.27 0,0 1.054,0.463 2.155,0.817 1.806,0.558 4.689,0.526 8.39,3.3 4.155,3.113 3.854,7.313 3.854,7.313 0,0 2.651,-3.123 6.886,-0.697 2.78,1.588 2.851,4.702 2.851,4.702 0,0 -1.854,-1.694 -4.085,2.529"
         fill="#e69f0a"
         transform="matrix(0.995632,0,0,-0.995632,210.05127,420.48665)"
         id="path19" />
      <path
         d="m 0,0 h -0.024 c -0.277,0.094 -0.546,0.195 -0.832,0.313 -4.406,1.788 -5.407,3.447 -9.352,5.144 -3.943,1.7 -7.801,0.133 -7.801,0.133 0,0 2.438,-1.382 3.433,-2.863 0.611,-0.9 0.859,-1.809 1.145,-2.736 0.183,-0.593 0.378,-1.192 0.685,-1.803 0.782,-1.544 3.541,-3.037 3.541,-3.037 0,0 -3.822,-1.614 -5.687,-3.24 -1.871,-1.632 -3.465,-3.858 -3.164,-7.145 0.295,-3.288 2.91,-5.451 2.91,-5.451 0,0 0.865,3.553 4.645,5.158 4.708,1.984 8.193,-0.581 8.193,-0.581 0,0 0.75,-1.363 -0.047,-5.109 -0.8,-3.757 -1.741,-4.663 -1.741,-4.663 0,0 6.07,0.906 8.653,6.281 2.101,4.347 1.741,8.184 1.741,12.97 0,4.787 1.673,6.597 1.673,6.597 0,0 -3.267,-1.55 -7.971,0.032"
         fill="#e69f0a"
         transform="matrix(0.995632,0,0,-0.995632,229.48203,382.97124)"
         id="path20" />
      <path
         d="m 0,0 c -4.247,1.532 -6.407,0.865 -6.407,0.865 0,0 0,1.682 1.08,4.627 1.08,2.943 2.774,4.389 2.774,4.389 0,0 -4.923,1.328 -8.762,-3.111 -3.837,-4.43 -4.132,-8.145 -3.247,-10.763 0.96,-2.81 2.084,-3.899 2.91,-5.445 0.744,-1.387 1.01,-3.61 1.01,-3.61 0,0 1.694,5.82 6.014,7.677 5.047,2.16 8.907,-1.166 8.907,-1.166 0,0 0.151,4.923 -4.279,6.537"
         fill="#e69f0a"
         transform="matrix(0.995632,0,0,-0.995632,226.69724,411.50605)"
         id="path21" />
      <path
         d="m 0,0 c 0,0 0.782,-2.14 -0.387,-5.126 -1.165,-2.987 -2.467,-3.766 -2.467,-3.766 0,0 1.585,0.026 3.379,-1.555 1.747,-1.565 2.016,-3.586 2.016,-3.586 0,0 1.883,4.031 0.838,7.998 C 2.34,-2.069 0,0 0,0"
         fill="#e69f0a"
         transform="matrix(0.995632,0,0,-0.995632,238.69859,325.30423)"
         id="path22" />
      <path
         d="m 0,0 c 0.85,-3.049 -0.274,-5.976 -0.274,-5.976 0,0 4.615,0.189 8.124,3.317 2.792,2.476 5.448,2.559 6.951,2.272 2.727,-0.519 3.32,-2.989 3.32,-2.989 0,0 2.204,3.379 0.121,6.755 -1.284,2.075 -5.392,2.538 -5.392,2.538 0,0 0.667,1.036 0.714,2.276 0.071,1.617 0.224,3.523 1.237,6.43 1.363,3.887 4.096,5.578 4.096,5.578 0,0 -1.437,0.65 -4.938,-0.259 C 11.646,19.346 9.208,16.887 7.263,14.556 5.315,12.218 4.926,8.255 4.926,8.255 c 0,0 -0.263,1.753 -1.762,3.045 -1.491,1.299 -2.783,2.211 -4.607,3.188 -1.818,0.98 -2.464,3.181 -2.464,3.181 0,0 -1.166,-2.166 -1.364,-4.217 C -5.469,11.374 -5.663,10.194 -3.713,7.157 -1.762,4.09 -0.844,3.052 0,0"
         fill="#e69f0a"
         transform="matrix(0.995632,0,0,-0.995632,220.02054,342.76762)"
         id="path23" />
      <path
         d="m 0,0 c 0,0 -2.798,1.753 -3.255,4.811 -0.449,3.057 -0.254,5.577 -0.449,7.661 -0.206,2.081 -1.812,4.861 -1.812,4.861 0,0 0.177,-3.167 -1.048,-5.183 C -7.8,10.132 -9.432,6.177 -7.405,2.925 -4.743,-1.361 0,0 0,0"
         fill="#e69f0a"
         transform="matrix(0.995632,0,0,-0.995632,218.7292,350.65302)"
         id="path24" />
      <path
         d="m 0,0 c 1.405,5.501 -0.812,15.609 -5.681,15.403 -4.817,-0.204 -10.548,-6.49 -10.548,-6.49 0,0 10.887,2.125 16.229,-8.913"
         fill="#e69f0a"
         transform="matrix(0.995632,0,0,-0.995632,227.5047,380.0839)"
         id="path25" />
      <path
         d="m 0,0 c -4.291,5.675 -8.635,-1.372 -8.635,-1.372 0,0 3.494,0.823 5.25,-1.916 2.272,-3.479 -1.55,-8.21 -1.55,-8.21 0,0 9.934,4.881 4.935,11.498"
         fill="#e69f0a"
         transform="matrix(0.995632,0,0,-0.995632,248.55435,347.49687)"
         id="path26" />
      <path
         d="m 0,0 c 0,0 1.954,0.263 3.37,3.633 1.435,3.391 0.782,5.661 0.782,5.661 0,0 -0.392,-0.912 -1.496,-1.095 C 1.431,7.968 0.192,8.255 -1.883,7.927 -3.966,7.602 -5.531,6.823 -5.531,6.823 c 0,0 -0.962,2.471 0.594,5.009 1.012,1.638 3.314,2.662 3.314,2.662 0,0 -1.305,1.416 -4.294,1.159 -3.495,-0.304 -4.938,-0.386 -8.636,-2.927 -3.698,-2.518 -5.58,-3.562 -7.605,-4.344 -2.01,-0.78 -3.311,-0.842 -5.194,-0.582 0.755,-1.375 1.251,-2.325 2.665,-2.989 1.824,-0.839 2.798,-0.839 5.713,-1.556 2.928,-0.711 7.671,-3.187 9.748,-9.16 2.081,-5.974 0.26,-12.998 0.26,-12.998 0,0 2.6,0.714 4.48,2.928 1.886,2.21 1.558,5.135 1.558,5.135 0,0 2.078,-1.307 3.772,-2.013 1.685,-0.711 2.001,-4.155 2.001,-4.155 0,0 5.401,4.217 3.648,11.103 C 5.206,-0.829 0,0 0,0"
         fill="#e69f0a"
         transform="matrix(0.995632,0,0,-0.995632,238.834,362.55082)"
         id="path27" />
      <path
         d="m 0,0 c -0.564,0.691 -6.425,-2.447 -6.425,-2.447 0,0 -0.097,3.138 -0.865,3.728 -2.331,-0.183 -4.093,-1.346 -5.666,-2.881 h 0.006 c -0.614,1.73 -1.555,3.279 -1.998,3.309 -0.853,0.059 -4.386,-3.14 -4.386,-3.14 0,0 -2.098,3.754 -3.24,3.863 -0.49,0.044 -2.326,-1.978 -3.297,-3.249 -1.151,1.177 -3.624,3.019 -4.527,2.821 -0.54,-0.112 -1.688,-2.544 -2.438,-4.3 -0.631,0.637 -3.881,3.14 -5.513,3.406 -0.782,-1.148 -0.805,-4.265 -0.805,-4.265 0,0 -3.312,3.049 -5.593,3.353 -0.59,-0.771 0.466,-5.144 2.845,-7.201 -0.077,0.619 -1.136,2.73 -0.933,4.081 1.169,0.579 3.952,-1.074 3.952,-1.074 0,0 0.508,2.202 1.682,2.768 1.742,-0.203 4.634,-2.166 4.634,-2.166 0,0 1.366,2.503 2.538,3.267 1.744,0.372 4.25,-1.78 4.25,-1.78 0,0 1.841,2.173 3.205,2.164 1.34,-0.593 3.081,-2.662 3.081,-2.662 0,0 2.603,1.75 4.179,2.234 0.935,-0.475 2.054,-2.721 2.054,-2.721 0,0 3.279,2.166 5.011,1.956 0.588,-0.581 1.16,-2.437 1.16,-2.437 0,0 3.589,1.334 5.126,1.263 C -2.187,-4.008 -3.149,-5.395 -3.937,-6.933 -2.125,-5.988 1.009,-1.228 0,0"
         fill="#e69f0a"
         transform="matrix(0.995632,0,0,-0.995632,201.62424,346.47137)"
         id="path28" />
      <path
         d="M 0,0 C 1.349,-0.201 2.072,5.421 0.516,5.658 -0.803,5.855 -1.31,0.195 0,0"
         fill="#e69f0a"
         transform="matrix(0.995632,0,0,-0.995632,178.60623,354.17756)"
         id="path29" />
      <path
         d="M 0,0 C 1.414,-0.57 3.444,4.663 2.001,5.227 0.747,5.72 -1.216,0.511 0,0"
         fill="#e69f0a"
         transform="matrix(0.995632,0,0,-0.995632,183.79247,354.27712)"
         id="path30" />
      <path
         d="M 0,0 C -0.015,-1.936 1.077,-4.923 2.084,-4.666 2.786,-4.48 2.514,-0.215 0.968,0.761 0.39,0.968 0,0.387 0,0"
         fill="#e69f0a"
         transform="matrix(0.995632,0,0,-0.995632,171.89865,349.68726)"
         id="path31" />
      <path
         d="M 0,0 C 1.157,-0.744 4.433,3.89 2.996,4.743 1.971,5.368 -1.337,0.844 0,0"
         fill="#e69f0a"
         transform="matrix(0.995632,0,0,-0.995632,189.11413,354.42647)"
         id="path32" />
      <path
         d="M 0,0 C -0.21,-1.93 1.721,-4.873 2.68,-4.474 3.288,-4.22 2.326,-0.215 0.584,0.381 0.207,0.578 0,0.198 0,0"
         fill="#e69f0a"
         transform="matrix(0.995632,0,0,-0.995632,165.13931,350.01582)"
         id="path33" />
      <path
         d="M 0,0 C 0.936,-0.723 3.314,2.45 2.733,3.072 2.03,3.831 -0.735,0.561 0,0"
         fill="#e69f0a"
         transform="matrix(0.995632,0,0,-0.995632,194.03554,354.11782)"
         id="path34" />
      <path
         d="M 0,0 C 0.882,0.475 -0.664,3.509 -1.514,3.114 -2.202,2.795 -0.785,-0.431 0,0"
         fill="#e69f0a"
         transform="matrix(0.995632,0,0,-0.995632,162.78464,354.62559)"
         id="path35" />
      <path
         d="m 0,0 c -0.39,0 -0.599,-0.245 -0.475,-0.543 l 1.414,-3.423 c 0.118,-0.296 0.54,-0.549 0.92,-0.549 H 7.54 c 0.387,0 0.603,0.253 0.49,0.549 L 6.611,-0.543 C 6.481,-0.245 6.071,0 5.687,0 Z"
         fill="#18468b"
         transform="matrix(0.995632,0,0,-0.995632,174.92637,355.70088)"
         id="path36" />
      <path
         d="M 0,0 C -0.28,0 -0.434,-0.177 -0.345,-0.395 L 0.67,-2.86 c 0.094,-0.215 0.395,-0.38 0.673,-0.38 h 4.093 c 0.272,0 0.434,0.165 0.34,0.38 L 4.76,-0.395 C 4.672,-0.177 4.38,0 4.09,0 Z"
         fill="#18468b"
         transform="matrix(0.995632,0,0,-0.995632,183.96173,356.32812)"
         id="path37" />
      <path
         d="m 0,0 c -0.198,0 -0.307,-0.124 -0.242,-0.272 l 0.72,-1.732 C 0.54,-2.146 0.747,-2.275 0.941,-2.275 h 2.863 c 0.195,0 0.307,0.129 0.242,0.271 L 3.335,-0.272 C 3.276,-0.124 3.058,0 2.866,0 Z"
         fill="#18468b"
         transform="matrix(0.995632,0,0,-0.995632,190.76986,356.59695)"
         id="path38" />
      <path
         d="m 0,0 c -0.142,0 -0.218,-0.077 -0.171,-0.189 l 0.499,-1.207 c 0.044,-0.103 0.191,-0.195 0.327,-0.195 h 2.004 c 0.133,0 0.21,0.092 0.165,0.195 L 2.331,-0.189 C 2.287,-0.077 2.14,0 2.004,0 Z"
         fill="#18468b"
         transform="matrix(0.995632,0,0,-0.995632,195.87646,356.75625)"
         id="path39" />
      <path
         d="M 0,0 C 0.28,0 0.437,0.168 0.351,0.384 L -0.667,2.845 C -0.747,3.063 -1.054,3.24 -1.331,3.24 h -4.09 c -0.284,0 -0.431,-0.177 -0.352,-0.395 L -4.749,0.384 C -4.657,0.168 -4.365,0 -4.082,0 Z"
         fill="#18468b"
         transform="matrix(0.995632,0,0,-0.995632,173.56136,359.55397)"
         id="path40" />
      <path
         d="m 0,0 c 0.186,0 0.292,0.121 0.236,0.272 l -0.711,1.729 c -0.062,0.153 -0.272,0.277 -0.472,0.277 h -2.857 c -0.195,0 -0.301,-0.124 -0.245,-0.277 L -3.344,0.272 C -3.27,0.121 -3.069,0 -2.866,0 Z"
         fill="#18468b"
         transform="matrix(0.995632,0,0,-0.995632,166.76219,359.28515)"
         id="path41" />
      <path
         d="m 0,0 c 0.13,0 0.221,0.091 0.165,0.192 l -0.49,1.213 c -0.041,0.103 -0.194,0.192 -0.336,0.192 h -1.995 c -0.142,0 -0.219,-0.089 -0.177,-0.192 L -2.334,0.192 C -2.284,0.091 -2.14,0 -2.004,0 Z"
         fill="#18468b"
         transform="matrix(0.995632,0,0,-0.995632,161.65559,359.12585)"
         id="path42" />
      <path
         d="M 0,0 1.853,5.802 0.041,16.822 Z"
         fill="#a6700e"
         transform="matrix(0.995632,0,0,-0.995632,177.6,396.395)"
         id="path43" />
      <path
         d="m 0,0 1.907,-5.779 0.047,16.82 z"
         fill="#e69f0a"
         transform="matrix(0.995632,0,0,-0.995632,175.698,390.64)"
         id="path44" />
      <path
         d="M 0,0 1.818,-10.988 1.794,5.838 Z"
         fill="#a6700e"
         transform="matrix(0.995632,0,0,-0.995632,175.809,402.207)"
         id="path45" />
      <path
         d="m 0,0 1.951,11.035 -1.972,5.79 z"
         fill="#e69f0a"
         transform="matrix(0.995632,0,0,-0.995632,177.618,413.148)"
         id="path46" />
      <path
         d="m 0,0 7.939,-7.836 1.906,-5.778 z"
         fill="#a6700e"
         transform="matrix(0.995632,0,0,-0.995632,167.795,382.84)"
         id="path47" />
      <path
         d="M 0,0 -4.914,10.084 4.932,-3.533 Z"
         fill="#e69f0a"
         transform="matrix(0.995632,0,0,-0.995632,172.687,392.879)"
         id="path48" />
      <path
         d="m 0,0 -7.945,7.833 -1.971,5.79 z"
         fill="#a6700e"
         transform="matrix(0.995632,0,0,-0.995632,187.469,409.96)"
         id="path49" />
      <path
         d="M 0,0 4.908,-10.076 -5.005,3.547 Z"
         fill="#e69f0a"
         transform="matrix(0.995632,0,0,-0.995632,182.582,399.927)"
         id="path50" />
      <path
         d="m 0,0 11.035,-1.682 4.931,-3.533 z"
         fill="#a6700e"
         transform="matrix(0.995632,0,0,-0.995632,161.701,391.203)"
         id="path51" />
      <path
         d="M 0,0 -9.901,5.215 6.068,0 Z"
         fill="#e69f0a"
         transform="matrix(0.995632,0,0,-0.995632,171.557,396.395)"
         id="path52" />
      <path
         d="m 0,0 -11.023,1.679 -5.008,3.548 z"
         fill="#a6700e"
         transform="matrix(0.995632,0,0,-0.995632,193.558,401.6)"
         id="path53" />
      <path
         d="M 0,0 9.899,-5.227 -6.13,0 Z"
         fill="#e69f0a"
         transform="matrix(0.995632,0,0,-0.995632,183.701,396.395)"
         id="path54" />
      <path
         d="m 0,0 9.91,5.2 h 6.068 z"
         fill="#a6700e"
         transform="matrix(0.995632,0,0,-0.995632,161.689,401.572)"
         id="path55" />
      <path
         d="m 0,0 -11.106,-1.561 15.979,5.2 z"
         fill="#e69f0a"
         transform="matrix(0.995632,0,0,-0.995632,172.747,400.018)"
         id="path56" />
      <path
         d="m 0,0 -9.901,-5.182 h -6.133 z"
         fill="#a6700e"
         transform="matrix(0.995632,0,0,-0.995632,193.56,391.236)"
         id="path57" />
      <path
         d="M 0,0 11.109,1.567 -4.926,-3.615 Z"
         fill="#e69f0a"
         transform="matrix(0.995632,0,0,-0.995632,182.502,392.795)"
         id="path58" />
      <path
         d="m 0,0 5.002,9.969 4.873,3.639 z"
         fill="#a6700e"
         transform="matrix(0.995632,0,0,-0.995632,167.766,409.944)"
         id="path59" />
      <path
         d="M 0,0 -8.078,-7.771 1.794,5.838 Z"
         fill="#e69f0a"
         transform="matrix(0.995632,0,0,-0.995632,175.81,402.207)"
         id="path60" />
      <path
         d="m 0,0 -5.008,-9.978 -4.926,-3.615 z"
         fill="#a6700e"
         transform="matrix(0.995632,0,0,-0.995632,187.487,382.861)"
         id="path61" />
      <path
         d="M 0,0 8.075,7.791 -1.856,-5.802 Z"
         fill="#e69f0a"
         transform="matrix(0.995632,0,0,-0.995632,179.446,390.617)"
         id="path62" />
      <path
         d="m 0,0 h -0.089 l -0.95,-16.17 c -0.174,-2.995 -0.13,-4.45 3.548,-4.495 v -1.77 h -9.604 v 1.77 c 3.373,0.045 3.459,1.045 3.677,4.814 L -2.467,0.59 c 0.13,2.317 0,3.315 -2.898,3.453 v 1.771 h 9.128 l 8.435,-19.077 8.092,19.077 h 9.299 V 4.043 C 26.473,3.86 26.257,3.86 26.473,0.59 l 1.039,-16.76 c 0.218,-3.813 0.348,-4.223 3.807,-4.495 v -1.77 H 17.693 v 1.77 h 0.735 c 1.818,0 3.332,0 3.332,2.952 0,0.726 -0.045,1.455 -0.089,2.136 L 20.677,0.546 H 20.591 L 10.902,-22.435 H 9.863 Z"
         fill="#18468b"
         transform="matrix(0.995632,0,0,-0.995632,271.65302,323.80083)"
         id="path63" />
      <path
         d="m 0,0 -1.815,-5.312 c -0.779,-2.317 -0.738,-3.406 3.418,-3.406 h 0.56 v -1.771 H -9.299 v 1.771 h 0.649 c 2.075,0 3.158,0.998 4.238,4.179 l 7.399,21.662 -0.475,1.319 h 6.401 l 8.653,-23.073 c 1.121,-2.998 2.075,-3.907 4.323,-4.087 v -1.771 H 7.833 v 1.771 h 1.511 c 2.641,0 3.028,1.225 2.163,3.453 L 9.476,0 Z M 4.501,13.127 0.865,2.5 h 7.614 z"
         fill="#18468b"
         transform="matrix(0.995632,0,0,-0.995632,316.53611,335.69863)"
         id="path64" />
      <path
         d="m 0,0 h 1.688 c 1.429,-4.498 3.978,-6.812 7.396,-6.812 2.857,0 5.02,1.907 5.02,4.451 0,6.767 -13.889,6.54 -13.889,15.532 0,4.359 3.633,7.402 8.783,7.402 3.332,0 5.927,-1.18 6.576,-1.18 0.301,0 0.561,0.091 0.953,0.501 h 0.909 l 0.82,-7.357 h -1.729 c -0.953,3.677 -3.721,6.085 -7.053,6.085 -2.423,0 -4.238,-1.363 -4.238,-3.134 0,-4.179 7.18,-4.952 12.026,-10.037 1.774,-1.862 2.464,-3.816 2.464,-5.997 0,-4.722 -4.067,-8.446 -9.214,-8.446 -3.461,0 -6.619,1.454 -7.395,1.454 -0.393,0 -0.694,-0.227 -0.909,-0.728 H 1.08 Z"
         fill="#18468b"
         transform="matrix(0.995632,0,0,-0.995632,342.76105,337.81933)"
         id="path65" />
      <path
         d="m 0,0 h 1.688 c 1.429,-4.498 3.981,-6.812 7.396,-6.812 2.857,0 5.02,1.907 5.02,4.451 0,6.767 -13.889,6.54 -13.889,15.532 0,4.359 3.633,7.402 8.783,7.402 3.332,0 5.927,-1.18 6.579,-1.18 0.301,0 0.56,0.091 0.947,0.501 h 0.912 l 0.82,-7.357 h -1.732 c -0.947,3.677 -3.718,6.085 -7.05,6.085 -2.423,0 -4.238,-1.363 -4.238,-3.134 0,-4.179 7.18,-4.952 12.026,-10.037 1.774,-1.862 2.467,-3.816 2.467,-5.997 0,-4.722 -4.07,-8.446 -9.217,-8.446 -3.461,0 -6.619,1.454 -7.395,1.454 -0.393,0 -0.694,-0.227 -0.909,-0.728 H 1.083 Z"
         fill="#18468b"
         transform="matrix(0.995632,0,0,-0.995632,368.51805,337.81933)"
         id="path66" />
      <path
         d="m 0,0 h -9.474 v -10.217 h 7.007 c 2.381,0 3.246,0.862 3.246,3.27 h 1.73 v -9.04 h -1.73 c 0,2.453 -0.564,3.27 -3.893,3.27 h -6.36 v -8.175 c 0,-1.954 0.346,-2.361 1.6,-2.361 h 7.225 c 2.812,0 4.152,0.818 4.976,4.634 H 5.97 L 5.451,-25.75 h -26.045 v 1.768 h 1.777 c 2.508,0 3.373,1.045 3.373,3.273 v 18.121 c 0,2.452 -0.779,3.314 -3.763,3.314 h -0.434 V 2.5 H 4.197 L 4.628,-4.087 H 2.987 C 2.553,-1 1.989,0 0,0"
         fill="#18468b"
         transform="matrix(0.995632,0,0,-0.995632,413.06263,320.50529)"
         id="path67" />
      <path
         d="m 0,0 c 0,-2.181 0.649,-3.361 3.766,-3.361 h 0.649 v -1.771 h -14.753 v 1.771 h 1.08 c 2.597,0 3.288,1.227 3.288,3.27 v 6.315 l -9.3,12.989 c -1.254,1.723 -1.774,2.133 -3.937,2.133 h -0.301 v 1.771 h 14.101 v -1.771 h -0.519 c -2.509,0 -2.854,-1.089 -1.945,-2.316 l 6.921,-9.583 5.017,8.266 c 1.124,1.863 1.47,3.633 -1.558,3.633 h -0.52 v 1.771 H 12.201 V 21.346 C 9.692,21.163 8.957,20.665 7.399,18.168 L 0,6.224 Z"
         fill="#18468b"
         transform="matrix(0.995632,0,0,-0.995632,441.74679,341.02526)"
         id="path68" />
      <path
         d="m 0,0 h 11.203 v -1.771 h -0.301 c -3.459,0 -3.978,-1.59 -3.978,-3.769 v -11.309 c 0,-10.128 -7.01,-12.038 -12.157,-12.038 -7.788,0 -12.72,3.545 -12.72,10.492 v 13.534 c 0,2.273 -0.605,3.09 -3.027,3.09 h -0.735 V 0 h 13.54 v -1.771 h -0.738 c -1.815,0 -3.069,-0.864 -3.069,-3.09 v -13.534 c 0,-5.54 3.893,-7.446 7.83,-7.446 5.666,0 8.479,3.358 8.479,8.355 v 11.037 c 0,3.223 -0.865,4.678 -3.548,4.678 H 0 Z"
         fill="#18468b"
         transform="matrix(0.995632,0,0,-0.995632,496.92471,318.01621)"
         id="path69" />
      <path
         d="M 0,0 C 0,-2.771 0.823,-3.68 4.282,-3.68 V -5.448 H -6.186 v 1.768 h 0.26 c 2.638,0 3.288,1 3.288,2.863 V 20.03 c -0.954,0.682 -2.119,0.998 -3.462,0.998 v 1.773 H 2.813 L 20.461,3.453 v 13.714 c 0,3.27 -0.649,3.861 -4.108,3.861 h -0.434 v 1.773 h 11.162 v -1.773 h -0.434 c -2.68,0 -3.545,-0.591 -3.545,-2.317 V -5.587 H 20.721 L 0,17.167 Z"
         fill="#18468b"
         transform="matrix(0.995632,0,0,-0.995632,518.7191,340.71662)"
         id="path70" />
      <path
         d="m 0,0 h 13.759 v -1.771 h -0.738 c -2.334,0 -3.288,-1.045 -3.288,-3.408 v -17.985 c 0,-2.223 0.735,-3.315 3.374,-3.315 h 0.652 v -1.77 H 0 v 1.77 h 0.605 c 2.293,0 3.158,1.137 3.158,3.135 v 18.165 c 0,2.363 -0.779,3.408 -3.199,3.408 H 0 Z"
         fill="#18468b"
         transform="matrix(0.995632,0,0,-0.995632,549.90229,318.01621)"
         id="path71" />
      <path
         d="m 0,0 c -1.425,3.27 -2.033,3.816 -4.498,3.816 h -0.304 v 1.771 h 15.01 V 3.816 H 9.474 C 5.841,3.816 5.28,2.544 6.49,-0.136 l 6.791,-15.169 6.619,16.53 c 0.605,1.546 -0.389,2.591 -2.856,2.591 H 16.179 V 5.587 H 27.166 V 3.816 H 26.865 C 24.312,3.816 23.359,2.588 21.934,-1 l -8.999,-22.3 h -2.727 z"
         fill="#18468b"
         transform="matrix(0.995632,0,0,-0.995632,572.86157,323.57183)"
         id="path72" />
      <path
         d="m 0,0 h -9.474 v -10.217 h 7.007 c 2.381,0 3.246,0.862 3.246,3.27 h 1.73 v -9.04 h -1.73 c 0,2.453 -0.564,3.27 -3.896,3.27 h -6.357 v -8.175 c 0,-1.954 0.346,-2.361 1.6,-2.361 h 7.225 c 2.812,0 4.152,0.818 4.976,4.634 H 5.97 L 5.451,-25.75 h -26.045 v 1.768 h 1.777 c 2.508,0 3.373,1.045 3.373,3.273 v 18.121 c 0,2.452 -0.779,3.314 -3.763,3.314 h -0.434 V 2.5 H 4.197 L 4.628,-4.087 H 2.984 C 2.553,-1 1.989,0 0,0"
         fill="#18468b"
         transform="matrix(0.995632,0,0,-0.995632,622.96177,320.50529)"
         id="path73" />
      <path
         d="m 0,0 c 0,-2.317 0.953,-3.317 3.418,-3.317 h 1.295 v -1.771 h -15.14 v 1.771 h 0.694 c 2.638,0 3.763,0.682 3.763,3.317 v 17.938 c 0,2.181 -0.561,3.453 -3.462,3.453 h -0.906 v 1.77 c 2.163,0.136 3.807,0.228 5.578,0.363 2.423,0.183 5.539,0.319 7.097,0.319 6.357,0 9.819,-0.862 11.983,-3.134 1.428,-1.499 2.074,-3.226 2.074,-5.177 0,-3.452 -2.378,-6.177 -6.401,-7.313 2.854,-2.497 4.368,-6.085 7.44,-9.311 1.774,-1.862 2.987,-2.405 5.711,-2.68 v -1.77 c -0.953,-0.045 -1.384,-0.045 -2.683,-0.045 -5.362,0 -7.57,0.818 -9.603,2.952 -2.164,2.272 -4.672,7.041 -7.44,9.538 H 0 Z m 0,8.81 h 1.685 c 5.236,0 8.264,1.682 8.264,6.539 0,4.814 -3.503,6.54 -7.7,6.54 H 0 Z"
         fill="#18468b"
         transform="matrix(0.995632,0,0,-0.995632,644.40768,341.07504)"
         id="path74" />
      <path
         d="m 0,0 h 1.685 c 1.429,-4.498 3.981,-6.812 7.399,-6.812 2.857,0 5.02,1.907 5.02,4.451 0,6.767 -13.889,6.54 -13.889,15.532 0,4.359 3.633,7.402 8.783,7.402 3.329,0 5.927,-1.18 6.576,-1.18 0.304,0 0.563,0.091 0.95,0.501 h 0.909 l 0.823,-7.357 h -1.732 c -0.95,3.677 -3.718,6.085 -7.05,6.085 -2.423,0 -4.238,-1.363 -4.238,-3.134 0,-4.179 7.18,-4.952 12.026,-10.037 1.771,-1.862 2.464,-3.816 2.464,-5.997 0,-4.722 -4.067,-8.446 -9.214,-8.446 -3.461,0 -6.619,1.454 -7.398,1.454 -0.39,0 -0.691,-0.227 -0.909,-0.728 H 1.08 Z"
         fill="#18468b"
         transform="matrix(0.995632,0,0,-0.995632,670.81184,337.81933)"
         id="path75" />
      <path
         d="m 0,0 h 13.759 v -1.771 h -0.738 c -2.334,0 -3.288,-1.045 -3.288,-3.408 v -17.985 c 0,-2.223 0.735,-3.315 3.374,-3.315 h 0.652 v -1.77 H 0 v 1.77 h 0.605 c 2.293,0 3.161,1.137 3.161,3.135 v 18.165 c 0,2.363 -0.779,3.408 -3.202,3.408 H 0 Z"
         fill="#18468b"
         transform="matrix(0.995632,0,0,-0.995632,695.06544,318.01621)"
         id="path76" />
      <path
         d="m 0,0 c 0,-2.361 0.691,-3.406 3.763,-3.406 h 1.039 v -1.771 h -15.574 v 1.771 h 1.473 c 2.378,0 3.329,0.998 3.329,3.406 v 20.712 h -5.103 c -3.332,0 -3.852,-0.546 -4.675,-5.363 h -1.774 l 0.78,8.497 h 1.387 c 0.345,-0.319 0.56,-0.546 0.82,-0.637 0.301,-0.092 0.649,-0.136 1.254,-0.136 H 7.31 c 1.169,0 1.384,0.091 2.078,0.773 h 1.384 l 0.779,-8.497 H 9.778 c -0.824,4.77 -1.343,5.363 -4.672,5.363 H 0 Z"
         fill="#18468b"
         transform="matrix(0.995632,0,0,-0.995632,730.81858,340.98544)"
         id="path77" />
      <path
         d="m 0,0 c 0,-2.181 0.649,-3.361 3.763,-3.361 h 0.649 v -1.771 h -14.75 v 1.771 h 1.08 c 2.594,0 3.288,1.227 3.288,3.27 v 6.315 l -9.303,12.989 c -1.251,1.723 -1.773,2.133 -3.934,2.133 h -0.304 v 1.771 h 14.104 v -1.771 h -0.519 c -2.512,0 -2.857,-1.089 -1.945,-2.316 l 6.921,-9.583 5.017,8.266 c 1.124,1.863 1.47,3.633 -1.558,3.633 h -0.52 v 1.771 H 12.198 V 21.346 C 9.689,21.163 8.954,20.665 7.399,18.168 L 0,6.224 Z"
         fill="#18468b"
         transform="matrix(0.995632,0,0,-0.995632,764.83933,341.02526)"
         id="path78" />
      <path
         d="M 0,0 C 0,-1.629 0.478,-2.352 2.597,-2.352 H 3.314 V -3.571 H -7.434 v 1.219 h 1.015 c 1.641,0 2.299,0.69 2.299,2.352 v 14.284 h -3.524 c -2.299,0 -2.656,-0.372 -3.223,-3.692 h -1.224 l 0.537,5.858 h 0.953 c 0.239,-0.218 0.39,-0.377 0.567,-0.439 0.212,-0.065 0.451,-0.095 0.867,-0.095 H 5.047 c 0.805,0 0.956,0.065 1.431,0.534 H 7.434 L 7.971,10.592 H 6.747 C 6.18,13.883 5.823,14.284 3.524,14.284 H 0 Z"
         fill="#18468b"
         transform="matrix(0.995632,0,0,-0.995632,276.08856,385.2811)"
         id="path79" />
      <path
         d="m 0,0 h -6.537 v -7.051 h 4.834 c 1.644,0 2.24,0.597 2.24,2.258 h 1.195 v -6.239 H 0.537 c 0,1.691 -0.386,2.258 -2.686,2.258 h -4.388 v -5.64 c 0,-1.349 0.239,-1.629 1.101,-1.629 h 4.987 c 1.942,0 2.866,0.561 3.436,3.199 H 4.12 L 3.763,-17.767 H -14.21 v 1.222 h 1.224 c 1.73,0 2.329,0.72 2.329,2.252 v 12.505 c 0,1.697 -0.54,2.287 -2.6,2.287 h -0.298 V 1.721 H 2.895 L 3.193,-2.821 H 2.063 C 1.762,-0.691 1.375,0 0,0"
         fill="#18468b"
         transform="matrix(0.995632,0,0,-0.995632,301.49211,371.14313)"
         id="path80" />
      <path
         d="m 0,0 c 0,-1.756 0.776,-2.29 2.358,-2.29 h 0.419 v -1.219 h -9.733 v 1.219 h 0.537 c 1.523,0 2.299,0.534 2.299,2.352 v 12.313 c 0,1.661 -0.567,2.378 -2.329,2.378 h -0.507 v 1.222 H 2.777 V 14.753 H 2.27 C 0.328,14.753 0,13.974 0,12.251 v -5.64 c 1.192,0.153 2.6,0.971 3.94,2.381 0.986,1.03 2.898,3.572 2.898,4.731 0,0.661 -0.537,1.03 -1.794,1.03 H 4.716 v 1.222 h 7.971 V 14.753 C 10.896,14.632 10.241,14.476 9.432,13.626 8.089,12.215 6.717,9.214 4.51,7.455 5.374,6.983 6.747,5.354 7.673,4.102 L 10.27,0.623 C 11.793,-1.44 12.959,-2.29 14.809,-2.29 V -3.509 H 4.628 v 1.219 c 1.254,0 2.089,0.189 2.089,0.85 0,0.652 -2.745,3.913 -4.628,5.885 C 1.136,5.451 0.714,5.575 0,5.575 Z"
         fill="#18468b"
         transform="matrix(0.995632,0,0,-0.995632,329.07111,385.34084)"
         id="path81" />
      <path
         d="M 0,0 H 7.732 V -1.222 H 7.526 c -2.391,0 -2.748,-1.092 -2.748,-2.6 v -7.8 c 0,-6.992 -4.837,-8.302 -8.39,-8.302 -5.375,0 -8.78,2.441 -8.78,7.237 v 9.334 c 0,1.57 -0.416,2.131 -2.09,2.131 h -0.504 V 0 h 9.343 V -1.222 H -6.15 c -1.255,0 -2.119,-0.59 -2.119,-2.131 v -9.334 c 0,-3.825 2.685,-5.139 5.403,-5.139 3.911,0 5.853,2.32 5.853,5.764 v 7.617 c 0,2.223 -0.599,3.223 -2.45,3.223 H 0 Z"
         fill="#18468b"
         transform="matrix(0.995632,0,0,-0.995632,361.14042,369.43064)"
         id="path82" />
      <path
         d="M 0,0 C 0,-1.909 0.567,-2.541 2.954,-2.541 V -3.76 h -7.222 v 1.219 h 0.178 c 1.82,0 2.269,0.691 2.269,1.974 v 14.382 c -0.658,0.469 -1.464,0.69 -2.39,0.69 v 1.222 H 1.942 L 14.122,2.379 v 9.464 c 0,2.252 -0.446,2.662 -2.836,2.662 h -0.298 v 1.222 h 7.705 v -1.222 h -0.301 c -1.85,0 -2.446,-0.41 -2.446,-1.599 V -3.857 H 14.302 L 0,11.843 Z"
         fill="#18468b"
         transform="matrix(0.995632,0,0,-0.995632,376.47315,385.09193)"
         id="path83" />
      <path
         d="m 0,0 h -6.537 v -7.051 h 4.834 c 1.644,0 2.24,0.597 2.24,2.258 h 1.192 v -6.239 H 0.537 c 0,1.691 -0.389,2.258 -2.688,2.258 h -4.386 v -5.64 c 0,-1.349 0.236,-1.629 1.101,-1.629 h 4.987 c 1.942,0 2.866,0.561 3.436,3.199 H 4.12 l -0.357,-4.923 h -17.976 v 1.222 h 1.225 c 1.732,0 2.331,0.72 2.331,2.252 v 12.505 c 0,1.697 -0.54,2.287 -2.6,2.287 h -0.298 V 1.721 H 2.895 L 3.193,-2.821 H 2.06 C 1.759,-0.691 1.372,0 0,0"
         fill="#18468b"
         transform="matrix(0.995632,0,0,-0.995632,412.28604,371.14313)"
         id="path84" />
      <path
         d="M 0,0 C 0,-1.909 0.567,-2.541 2.957,-2.541 V -3.76 H -4.27 v 1.219 h 0.18 c 1.82,0 2.269,0.691 2.269,1.974 v 14.382 c -0.658,0.469 -1.464,0.69 -2.39,0.69 v 1.222 H 1.942 L 14.122,2.379 v 9.464 c 0,2.252 -0.449,2.662 -2.836,2.662 h -0.298 v 1.222 h 7.702 v -1.222 h -0.298 c -1.853,0 -2.446,-0.41 -2.446,-1.599 V -3.857 H 14.302 L 0,11.843 Z"
         fill="#18468b"
         transform="matrix(0.995632,0,0,-0.995632,424.88078,385.09193)"
         id="path85" />
      <path
         d="M 0,0 C -1.582,-0.03 -2.119,-0.531 -2.119,-1.971 V -6.64 c -2.149,-1.033 -5.224,-1.975 -7.791,-1.975 -7.556,0 -11.197,4.421 -11.197,10.433 0,5.734 4.509,9.963 10.869,9.963 3.072,0 5.46,-1.092 6.475,-1.092 0.449,0 0.688,0.121 0.897,0.402 h 0.747 V 5.359 h -1.195 c -0.806,3.2 -3.075,5.08 -6.177,5.08 -4.244,0 -7.169,-3.512 -7.169,-8.592 0,-5.138 3.075,-8.96 7.228,-8.96 1.133,0 2.387,0.316 3.193,0.818 v 4.324 c 0,1.567 -0.626,1.909 -3.671,1.971 V 1.189 H 0 Z"
         fill="#18468b"
         transform="matrix(0.995632,0,0,-0.995632,469.13662,380.69124)"
         id="path86" />
      <path
         d="m 0,0 -1.254,-3.665 c -0.537,-1.597 -0.511,-2.35 2.358,-2.35 H 1.49 v -1.221 h -7.912 v 1.221 h 0.452 c 1.428,0 2.175,0.691 2.924,2.884 L 2.057,11.817 1.732,12.723 H 6.15 l 5.971,-15.916 c 0.776,-2.069 1.434,-2.698 2.986,-2.822 V -7.236 H 5.401 v 1.221 h 1.048 c 1.817,0 2.089,0.847 1.493,2.382 L 6.537,0 Z M 3.102,9.057 0.596,1.726 h 5.256 z"
         fill="#18468b"
         transform="matrix(0.995632,0,0,-0.995632,478.99338,381.62713)"
         id="path87" />
      <path
         d="m 0,0 c 0,-1.756 0.776,-2.29 2.358,-2.29 h 0.419 v -1.219 h -9.733 v 1.219 h 0.537 c 1.523,0 2.299,0.534 2.299,2.352 v 12.313 c 0,1.661 -0.57,2.378 -2.331,2.378 h -0.505 v 1.222 H 2.777 V 14.753 H 2.27 C 0.328,14.753 0,13.974 0,12.251 v -5.64 c 1.192,0.153 2.597,0.971 3.943,2.381 0.983,1.03 2.892,3.572 2.892,4.731 0,0.661 -0.537,1.03 -1.788,1.03 H 4.719 v 1.222 H 12.69 V 14.753 C 10.896,14.632 10.241,14.476 9.432,13.626 8.089,12.215 6.717,9.214 4.507,7.455 5.374,6.983 6.747,5.354 7.673,4.102 L 10.27,0.623 C 11.793,-1.44 12.956,-2.29 14.809,-2.29 V -3.509 H 4.625 v 1.219 c 1.254,0 2.092,0.189 2.092,0.85 0,0.652 -2.748,3.913 -4.628,5.885 C 1.133,5.451 0.714,5.575 0,5.575 Z"
         fill="#18468b"
         transform="matrix(0.995632,0,0,-0.995632,516.79753,385.34084)"
         id="path88" />
      <path
         d="M 0,0 H 9.491 V -1.222 H 8.987 c -1.612,0 -2.27,-0.72 -2.27,-2.349 v -12.404 c 0,-1.541 0.505,-2.29 2.329,-2.29 h 0.445 v -1.222 H 0 v 1.222 h 0.416 c 1.582,0 2.181,0.782 2.181,2.16 v 12.534 c 0,1.629 -0.54,2.349 -2.21,2.349 H 0 Z"
         fill="#18468b"
         transform="matrix(0.995632,0,0,-0.995632,534.47,369.43064)"
         id="path89" />
      <path
         d="M 0,0 C 0,-1.818 0.655,-2.352 2.597,-2.352 H 3.494 V -3.571 H -6.658 v 1.219 h 0.449 c 1.64,0 2.089,0.381 2.089,1.788 v 13.437 c 0,1.449 -0.449,1.821 -2.089,1.821 h -0.659 v 1.222 c 1.166,0.065 2.778,0.248 4.838,0.345 1.971,0.095 3.913,0.154 4.748,0.154 5.761,0 8.211,-2.913 8.211,-6.142 C 10.929,6.64 8.004,4.321 3.406,4.321 2.329,4.321 1.254,4.418 0,4.639 Z M 0,5.92 C 0.629,5.764 1.284,5.702 2.151,5.702 c 2.775,0 4.327,1.691 4.327,4.76 0,2.884 -1.611,4.578 -4.359,4.578 C 1.405,15.04 0.717,14.975 0,14.821 Z"
         fill="#18468b"
         transform="matrix(0.995632,0,0,-0.995632,567.07694,385.2811)"
         id="path90" />
      <path
         d="M 0,0 H 7.735 V -1.222 H 7.526 c -2.388,0 -2.748,-1.092 -2.748,-2.6 v -7.8 c 0,-6.992 -4.84,-8.302 -8.39,-8.302 -5.375,0 -8.78,2.441 -8.78,7.237 v 9.334 c 0,1.57 -0.416,2.131 -2.087,2.131 h -0.51 V 0 h 9.349 v -1.222 h -0.51 c -1.255,0 -2.119,-0.59 -2.119,-2.131 v -9.334 c 0,-3.825 2.685,-5.139 5.403,-5.139 3.911,0 5.853,2.32 5.853,5.764 v 7.617 c 0,2.223 -0.596,3.223 -2.45,3.223 H 0 Z"
         fill="#18468b"
         transform="matrix(0.995632,0,0,-0.995632,596.37839,369.43064)"
         id="path91" />
      <path
         d="M 0,0 C 0,-1.6 0.655,-2.29 2.358,-2.29 H 3.249 V -3.512 H -7.195 v 1.222 h 0.475 c 1.821,0 2.6,0.469 2.6,2.29 v 12.375 c 0,1.499 -0.39,2.378 -2.39,2.378 h -0.629 v 1.222 c 1.493,0.098 2.629,0.157 3.854,0.251 1.671,0.127 3.819,0.218 4.896,0.218 4.389,0 6.779,-0.593 8.27,-2.16 0.986,-1.033 1.431,-2.222 1.431,-3.571 0,-2.382 -1.641,-4.262 -4.418,-5.044 1.972,-1.726 3.016,-4.199 5.138,-6.427 1.222,-1.281 2.057,-1.659 3.94,-1.845 v -1.225 c -0.658,-0.029 -0.956,-0.029 -1.85,-0.029 -3.701,0 -5.227,0.566 -6.629,2.036 C 6,-0.251 4.268,3.04 2.358,4.76 H 0 Z m 0,6.074 h 1.16 c 3.615,0 5.708,1.16 5.708,4.518 0,3.32 -2.42,4.51 -5.319,4.51 H 0 Z"
         fill="#18468b"
         transform="matrix(0.995632,0,0,-0.995632,614.21016,385.34084)"
         id="path92" />
      <path
         d="m 0,0 h -6.54 v -7.051 h 4.837 c 1.641,0 2.24,0.597 2.24,2.258 h 1.195 v -6.239 H 0.537 c 0,1.691 -0.389,2.258 -2.688,2.258 H -6.54 v -5.64 c 0,-1.349 0.239,-1.629 1.107,-1.629 h 4.987 c 1.936,0 2.866,0.561 3.433,3.199 H 4.12 l -0.36,-4.923 h -17.97 v 1.222 h 1.222 c 1.732,0 2.328,0.72 2.328,2.252 v 12.505 c 0,1.697 -0.537,2.287 -2.597,2.287 h -0.298 V 1.721 H 2.895 L 3.193,-2.821 H 2.057 C 1.759,-0.691 1.372,0 0,0"
         fill="#18468b"
         transform="matrix(0.995632,0,0,-0.995632,646.26951,371.14313)"
         id="path93" />
      <path
         d="M 0,0 C 1.582,0 2.237,0.72 2.237,2.411 V 7.992 H -7.614 V 2.352 C -7.614,0.691 -6.989,0 -5.318,0 h 0.451 v -1.222 h -9.585 V 0 h 0.507 c 1.523,0 2.211,0.72 2.211,2.29 v 12.466 c 0,1.567 -0.655,2.288 -2.24,2.288 h -0.478 v 1.221 h 9.585 v -1.221 h -0.422 c -1.552,0 -2.325,-0.529 -2.325,-2.288 V 9.839 h 9.851 v 4.826 c 0,1.756 -0.655,2.379 -2.388,2.379 h -0.268 v 1.221 H 9.134 V 17.044 H 8.597 c -1.523,0 -2.24,-0.591 -2.24,-2.288 V 2.352 C 6.357,0.72 6.924,0 8.659,0 H 9.134 V -1.222 H -0.419 V 0 Z"
         fill="#18468b"
         transform="matrix(0.995632,0,0,-0.995632,668.95001,387.62084)"
         id="path94" />
      <path
         d="M 0,0 H 7.732 V -1.222 H 7.523 c -2.391,0 -2.745,-1.092 -2.745,-2.6 v -7.8 c 0,-6.992 -4.84,-8.302 -8.393,-8.302 -5.375,0 -8.777,2.441 -8.777,7.237 v 9.334 c 0,1.57 -0.416,2.131 -2.09,2.131 h -0.51 V 0 h 9.349 V -1.222 H -6.15 c -1.255,0 -2.122,-0.59 -2.122,-2.131 v -9.334 c 0,-3.825 2.688,-5.139 5.406,-5.139 3.911,0 5.85,2.32 5.85,5.764 v 7.617 c 0,2.223 -0.596,3.223 -2.45,3.223 H 0 Z"
         fill="#18468b"
         transform="matrix(0.995632,0,0,-0.995632,696.2602,369.43064)"
         id="path95" />
      <path
         d="m 0,0 c 0,-1.6 0.658,-2.29 2.361,-2.29 h 0.894 v -1.222 h -10.45 v 1.222 h 0.478 c 1.821,0 2.597,0.469 2.597,2.29 v 12.375 c 0,1.499 -0.387,2.378 -2.388,2.378 h -0.631 v 1.222 c 1.499,0.098 2.632,0.157 3.854,0.251 1.674,0.127 3.822,0.218 4.899,0.218 4.389,0 6.776,-0.593 8.267,-2.16 0.988,-1.033 1.434,-2.222 1.434,-3.571 0,-2.382 -1.644,-4.262 -4.418,-5.044 1.969,-1.726 3.016,-4.199 5.138,-6.427 1.222,-1.281 2.057,-1.659 3.937,-1.845 v -1.225 c -0.655,-0.029 -0.956,-0.029 -1.85,-0.029 -3.701,0 -5.224,0.566 -6.629,2.036 C 6.003,-0.251 4.27,3.04 2.361,4.76 H 0 Z m 0,6.074 h 1.163 c 3.615,0 5.705,1.16 5.705,4.518 0,3.32 -2.42,4.51 -5.316,4.51 H 0 Z"
         fill="#18468b"
         transform="matrix(0.995632,0,0,-0.995632,714.08201,385.34084)"
         id="path96" />
      <path
         d="m 0,0 c 6.239,0 10.66,-4.108 10.66,-9.96 0,-5.581 -4.093,-10.563 -11.227,-10.563 -6.867,0 -10.869,4.604 -10.869,9.872 C -11.436,-4.448 -6.655,0 0,0 m 0.121,-19.174 c 4.147,0 6.088,3.76 6.088,8.083 0,5.044 -2.387,9.742 -6.926,9.742 -3.793,0 -6.272,-3.069 -6.272,-7.8 0,-5.982 2.899,-10.025 7.11,-10.025"
         fill="#18468b"
         transform="matrix(0.995632,0,0,-0.995632,744.99638,368.83326)"
         id="path97" />
      <path
         d="m 0,0 -1.257,-3.665 c -0.534,-1.597 -0.508,-2.35 2.361,-2.35 H 1.49 v -1.221 h -7.912 v 1.221 h 0.452 c 1.428,0 2.178,0.691 2.924,2.884 L 2.057,11.817 1.732,12.723 H 6.15 l 5.971,-15.916 c 0.776,-2.069 1.431,-2.698 2.986,-2.822 V -7.236 H 5.401 v 1.221 h 1.048 c 1.817,0 2.089,0.847 1.493,2.382 L 6.54,0 Z M 3.102,9.057 0.596,1.726 h 5.256 z"
         fill="#18468b"
         transform="matrix(0.995632,0,0,-0.995632,766.32282,381.62713)"
         id="path98" />
    </g>
    <path
       d="M 0,0 H 14.573"
       fill="none"
       stroke="#18468b"
       stroke-width="0.63"
       transform="matrix(0.995632,0,0,-0.995632,586.198,364.755)"
       id="path99" />
    <path
       d="m 0,0 v -15.465 c 0,-2.662 0.59,-3.762 1.107,-4.497 1.552,-2.072 3.981,-2.456 5.702,-2.456 6.746,0 6.746,5.292 6.746,7.086 V 0 h 3.356 v -15.394 c 0,-1.351 -0.036,-4.158 -2.043,-6.64 -2.455,-3.078 -6.256,-3.462 -8.059,-3.462 -2.347,0 -6.496,0.661 -8.816,3.981 -0.758,1.107 -1.455,2.562 -1.455,6.281 V 0 Z"
       fill="#18468b"
       fill-rule="nonzero"
       transform="matrix(0.995632,0,0,-0.995632,269.48553,425.85311)"
       id="path100" />
    <path
       d="M 0,0 H 4.805 L 17.082,-20.656 V 0 h 3.184 V -24.979 H 15.839 L 3.143,-3.775 V -24.979 H 0 Z"
       fill="#18468b"
       fill-rule="nonzero"
       transform="matrix(0.995632,0,0,-0.995632,290.942,425.855)"
       id="path101" />
    <path
       d="m 317.295,425.855 h 3.435 v 24.87 h -3.435 z"
       fill="#18468b"
       fill-rule="nonzero"
       id="path102" />
    <path
       d="m 0,0 h -3.807 l -8.883,24.979 h 3.836 L -1.759,3.633 5.708,24.979 h 3.491 z"
       fill="#18468b"
       fill-rule="nonzero"
       transform="matrix(0.995632,0,0,-0.995632,336.95,450.724)"
       id="path103" />
    <path
       d="M 0,0 H 15.662 V -2.945 H 3.456 v -7.789 h 11.619 v -2.892 H 3.456 v -8.305 H 15.94 v -3.048 H 0 Z"
       fill="#18468b"
       fill-rule="nonzero"
       transform="matrix(0.995632,0,0,-0.995632,349.423,425.855)"
       id="path104" />
    <path
       d="m 0,0 h 8.925 c 1.283,0 3.904,0 5.743,-1.178 1.862,-1.18 2.759,-3.081 2.759,-5.09 0,-1.762 -0.655,-3.315 -1.756,-4.43 -1.071,-1.066 -2.187,-1.411 -2.945,-1.626 2.387,-0.617 3.459,-1.686 3.804,-4.802 0.345,-2.943 0.584,-5.085 1.558,-7.851 h -3.704 c -0.551,1.659 -0.9,4.708 -1.142,6.614 -0.413,3.63 -1.275,4.666 -5.462,4.666 H 3.421 v -11.28 H 0 Z m 3.356,-10.76 h 5.459 c 0.387,0 2.358,0 3.294,0.552 0.478,0.28 1.688,1.177 1.688,3.249 0,4.052 -3.589,4.052 -4.982,4.052 H 3.356 Z"
       fill="#18468b"
       fill-rule="nonzero"
       transform="matrix(0.995632,0,0,-0.995632,370.38984,425.85311)"
       id="path105" />
    <path
       d="m 0,0 c 0.065,-1.729 0.274,-4.943 6.021,-4.943 5.191,0 5.843,3.214 5.843,4.462 0,2.792 -2.249,3.356 -5.746,4.211 -3.798,0.942 -5.498,1.358 -6.773,2.22 -2.039,1.387 -2.597,3.252 -2.597,4.911 0,5.079 4.81,7.301 9.512,7.301 1.664,0 5.02,-0.286 7.024,-2.464 1.378,-1.517 1.449,-3.214 1.517,-4.253 h -3.589 c -0.177,3.117 -2.81,3.801 -5.265,3.801 -3.453,0 -5.531,-1.552 -5.531,-4.046 0,-2.208 1.452,-2.963 4.495,-3.695 5.953,-1.52 6.611,-1.664 8.06,-2.627 2.319,-1.522 2.491,-3.945 2.491,-4.984 0,-4.427 -3.459,-7.78 -9.861,-7.78 -1.9,0 -5.775,0.31 -7.738,2.839 C -3.565,-3.211 -3.595,-1.21 -3.595,0 Z"
       fill="#18468b"
       fill-rule="nonzero"
       transform="matrix(0.995632,0,0,-0.995632,395.49968,443.45588)"
       id="path106" />
    <path
       d="m 415.581,425.855 h 3.432 v 24.87 h -3.432 z"
       fill="#18468b"
       fill-rule="nonzero"
       id="path107" />
    <path
       d="m 0,0 v 22.034 h -8.364 v 2.945 h 20.16 V 22.034 H 3.426 V 0 Z"
       fill="#18468b"
       fill-rule="nonzero"
       transform="matrix(0.995632,0,0,-0.995632,431.174,450.724)"
       id="path108" />
    <path
       d="m 0,0 -9.748,15.161 h 4.282 L 1.907,2.91 9.376,15.161 h 3.872 L 3.494,-0.171 V -9.816 H 0 Z"
       fill="#18468b"
       fill-rule="nonzero"
       transform="matrix(0.995632,0,0,-0.995632,454.351,440.95)"
       id="path109" />
    <path
       d="m 0,0 c 2.597,2.801 6.029,3.356 8.334,3.356 6.921,0 11.28,-4.427 11.28,-12.906 0,-6.635 -2.665,-13.313 -11.554,-13.313 -8.509,0 -11.271,6.053 -11.271,12.903 0,2.839 0.484,7.023 3.211,9.96 m 2.633,-17.64 c 1.413,-1.762 3.565,-2.278 5.527,-2.278 2.045,0 4.085,0.552 5.543,2.278 2.033,2.485 2.249,6.44 2.249,8.125 0,5.672 -1.872,9.964 -7.582,9.964 -6.325,0 -7.948,-5.082 -7.948,-10.203 0,-2.739 0.481,-5.74 2.211,-7.886"
       fill="#18468b"
       fill-rule="nonzero"
       transform="matrix(0.995632,0,0,-0.995632,481.56211,428.54131)"
       id="path110" />
    <path
       d="M 0,0 H 14.868 V -2.945 H 3.527 v -7.789 H 14.21 v -2.892 H 3.527 V -24.979 H 0 Z"
       fill="#18468b"
       fill-rule="nonzero"
       transform="matrix(0.995632,0,0,-0.995632,505.569,425.855)"
       id="path111" />
    <path
       d="M 0,0 H 4.811 L 17.085,-20.656 V 0 h 3.187 V -24.979 H 15.839 L 3.149,-3.775 V -24.979 H 0 Z"
       fill="#18468b"
       fill-rule="nonzero"
       transform="matrix(0.995632,0,0,-0.995632,534.285,425.855)"
       id="path112" />
    <path
       d="M 0,0 H 15.668 V -2.945 H 3.459 v -7.789 h 11.616 v -2.892 H 3.459 v -8.305 h 12.487 v -3.048 H 0 Z"
       fill="#18468b"
       fill-rule="nonzero"
       transform="matrix(0.995632,0,0,-0.995632,559.395,425.855)"
       id="path113" />
    <path
       d="M 0,0 5.398,-20.553 11.351,0 h 4.285 L 21.27,-20.727 26.942,0 H 30.33 L 22.931,-24.979 H 19.086 L 13.313,-3.636 7.13,-24.979 H 3.391 L -3.701,0 Z"
       fill="#18468b"
       fill-rule="nonzero"
       transform="matrix(0.995632,0,0,-0.995632,581.882,425.855)"
       id="path114" />
    <path
       d="M 0,0 14.429,18.463 H 0.384 v 3.052 H 18.543 V 18.088 L 3.99,-0.416 H 18.785 V -3.462 H 0 Z"
       fill="#18468b"
       fill-rule="nonzero"
       transform="matrix(0.995632,0,0,-0.995632,623.135,447.276)"
       id="path115" />
    <path
       d="M 0,0 H 15.662 V -2.945 H 3.453 v -7.789 h 11.619 v -2.892 H 3.453 v -8.305 H 15.94 v -3.048 H 0 Z"
       fill="#18468b"
       fill-rule="nonzero"
       transform="matrix(0.995632,0,0,-0.995632,645.596,425.855)"
       id="path116" />
    <path
       d="m 0,0 h 3.683 l 10.114,-24.979 h -3.786 l -2.695,6.507 H -4.268 l -2.7,-6.507 H -10.53 Z M -3.161,-15.68 H 6.28 L 1.676,-3.426 Z"
       fill="#18468b"
       fill-rule="nonzero"
       transform="matrix(0.995632,0,0,-0.995632,674.809,425.854)"
       id="path117" />
    <path
       d="m 0,0 h 3.421 v -21.895 h 11.627 v -3.084 H 0 Z"
       fill="#18468b"
       fill-rule="nonzero"
       transform="matrix(0.995632,0,0,-0.995632,691.778,425.855)"
       id="path118" />
    <path
       d="m 0,0 h 3.695 l 10.102,-24.979 h -3.766 l -2.694,6.507 H -4.256 l -2.694,-6.507 h -3.562 z M -3.14,-15.68 H 6.301 L 1.685,-3.426 Z"
       fill="#18468b"
       fill-rule="nonzero"
       transform="matrix(0.995632,0,0,-0.995632,719.223,425.854)"
       id="path119" />
    <path
       d="M 0,0 H 4.802 L 17.091,-20.656 V 0 h 3.172 V -24.979 H 15.839 L 3.143,-3.775 V -24.979 H 0 Z"
       fill="#18468b"
       fill-rule="nonzero"
       transform="matrix(0.995632,0,0,-0.995632,735.76,425.855)"
       id="path120" />
    <path
       d="m 0,0 h 7.222 c 3.355,0 7.289,0 10.075,-3.258 2.202,-2.597 3.067,-6.012 3.067,-9.441 0,-5.389 -2.237,-8.709 -4.141,-10.235 -2.47,-2.043 -5.539,-2.043 -9.208,-2.043 H 0 Z m 3.447,-22.14 h 3.4 c 2.382,0 4.872,0.138 6.525,1.381 3.193,2.393 3.3,6.472 3.3,7.921 0,0.936 -0.071,5.191 -2.435,7.788 -1.591,1.756 -3.589,2.175 -6.632,2.175 H 3.447 Z"
       fill="#18468b"
       fill-rule="nonzero"
       transform="matrix(0.995632,0,0,-0.995632,761.1754,425.85311)"
       id="path121" />
    <path
       d="m 266.009,406.788 h 515.419 v 2.274 H 266.009 Z"
       fill="#18468b"
       fill-rule="nonzero"
       id="path122" />
  </g>
</svg>
