<?xml version="1.0" encoding="UTF-8" standalone="no"?>
<!-- Generator: Adobe Illustrator 19.0.0, SVG Export Plug-In . SVG Version: 6.00 Build 0)  -->

<svg
   version="1.1"
   id="Layer_1"
   x="0px"
   y="0px"
   viewBox="0 0 365 128.2"
   xml:space="preserve"
   sodipodi:docname="used-by-vuma.svg"
   width="365"
   height="128.2"
   inkscape:version="1.3 (0e150ed6c4, 2023-07-21)"
   xmlns:inkscape="http://www.inkscape.org/namespaces/inkscape"
   xmlns:sodipodi="http://sodipodi.sourceforge.net/DTD/sodipodi-0.dtd"
   xmlns="http://www.w3.org/2000/svg"
   xmlns:svg="http://www.w3.org/2000/svg"><defs
   id="defs1" /><sodipodi:namedview
   id="namedview1"
   pagecolor="#ffffff"
   bordercolor="#666666"
   borderopacity="1.0"
   inkscape:showpageshadow="2"
   inkscape:pageopacity="0.0"
   inkscape:pagecheckerboard="0"
   inkscape:deskcolor="#d1d1d1"
   inkscape:zoom="3.662"
   inkscape:cx="182.41398"
   inkscape:cy="64.036046"
   inkscape:window-width="3840"
   inkscape:window-height="2066"
   inkscape:window-x="-11"
   inkscape:window-y="-11"
   inkscape:window-maximized="1"
   inkscape:current-layer="Layer_1" />&#10;<style
   type="text/css"
   id="style1">&#10;	.st0{fill:#231F20;}&#10;	.st1{fill:#0079C1;}&#10;</style>&#10;<g
   id="XMLID_1_"
   transform="translate(-67.5,-185.9)">&#10;	<polygon
   id="XMLID_3_"
   class="st0"
   points="200.3,196.4 214.4,196.4 200.2,233.9 188.4,233.9 174,196.4 188.1,196.4 194.2,217.2 " />&#10;	<rect
   id="XMLID_4_"
   x="217.2"
   y="196.39999"
   class="st0"
   width="13.4"
   height="37.5" />&#10;	<path
   id="XMLID_5_"
   class="st0"
   d="m 260.6,210.7 c -2.2,-1.9 -4.3,-2.9 -6.7,-2.9 -4.3,0 -7.5,3.2 -7.5,7.4 0,4.2 3.2,7.3 7.5,7.3 2.4,0 4.5,-0.8 6.8,-2.4 v 13.2 c -3.8,0.9 -6.1,1.3 -8.5,1.3 -11.2,0 -19.6,-8.2 -19.6,-19 0,-11 8.6,-19.7 19.4,-19.7 1.8,0 3.8,0.3 5.9,0.7 0.9,0.2 1.4,0.3 2.7,0.7 z" />&#10;	<polygon
   id="XMLID_6_"
   class="st0"
   points="292.4,208.6 284.8,208.2 284.8,233.9 271.5,233.9 271.5,208.2 264,208.4 264,196.4 292.4,196.4 " />&#10;	<path
   id="XMLID_9_"
   class="st0"
   d="m 293.3,215.2 c 0,11.7 8.2,19.5 20.3,19.5 12.1,0 20.3,-7.8 20.3,-19.5 0,-11.7 -8.2,-19.5 -20.3,-19.5 -12.1,0 -20.3,7.9 -20.3,19.5 m 20.4,-7.5 c 3.8,0 6.6,3.2 6.6,7.5 0,4.4 -2.7,7.6 -6.6,7.6 -3.9,0 -6.7,-3.2 -6.7,-7.5 0,-4.4 2.8,-7.6 6.7,-7.6" />&#10;	<path
   id="XMLID_12_"
   class="st0"
   d="m 337.6,233.9 h 13.5 v -8.7 c 0,-0.1 -0.1,-0.6 -0.1,-1.2 -0.2,-1.4 -0.3,-2.2 -0.5,-4.1 0.8,1.9 1.2,2.7 1.7,3.7 l 0.5,1.1 4.5,9.2 h 15.5 L 363,219.3 c 4.5,-1.5 6.8,-4.9 6.8,-10.1 0,-7.4 -6.1,-12.8 -14.5,-12.8 h -17.6 l -0.1,37.5 m 13.5,-27.4 h 1.8 c 2.2,0 3.7,1.3 3.7,3.3 0,2.1 -1.4,3.3 -3.7,3.3 h -1.8 v -6.6" />&#10;	<rect
   id="XMLID_13_"
   x="375.79999"
   y="196.39999"
   class="st0"
   width="13.4"
   height="37.5" />&#10;	<path
   id="XMLID_16_"
   class="st0"
   d="m 391.2,233.9 h 14.1 l 1.4,-4.8 H 417 l 1.4,4.8 h 14.1 l -12.9,-37.5 h -15.4 l -13,37.5 m 20.6,-24.8 2.8,11.2 H 409 l 2.8,-11.2" />&#10;	<path
   id="XMLID_17_"
   class="st0"
   d="m 204.3,262 c 0,1.7 -0.2,3.2 -0.5,4.5 -1.4,5 -6.1,7.9 -13.1,7.9 -4,0 -7.6,-1.1 -10,-2.9 -2.4,-2 -3.7,-5.1 -3.7,-9.4 V 244 h 10.6 v 16.8 c 0,1.5 0.1,2.4 0.3,2.8 0.4,1 1.5,1.6 2.7,1.6 0.8,0 1.4,-0.2 2,-0.6 0.9,-0.6 1.1,-1.3 1.1,-3.8 V 244 h 10.6 v 18" />&#10;	<polygon
   id="XMLID_18_"
   class="st0"
   points="227.7,259 227.7,243.9 238.3,243.9 238.3,273.7 227.3,273.7 218.4,259 218.4,273.7 207.8,273.7 207.8,243.9 218.4,243.9 " />&#10;	<rect
   id="XMLID_19_"
   x="241.8"
   y="243.89999"
   class="st0"
   width="10.7"
   height="29.9" />&#10;	<polygon
   id="XMLID_20_"
   class="st0"
   points="274.7,243.9 286,243.9 274.6,273.7 265.2,273.7 253.7,243.9 265,243.9 269.9,260.4 " />&#10;	<polygon
   id="XMLID_21_"
   class="st0"
   points="307,251.9 297.9,251.9 297.9,254.8 306.2,254.8 306.2,262.6 297.9,262.6 297.9,265.4 307.3,265.4 307.3,273.7 287.1,273.7 287.1,243.9 307,243.9 " />&#10;	<path
   id="XMLID_24_"
   class="st0"
   d="m 310.1,273.7 h 10.7 v -6.9 c 0,-0.1 0,-0.5 -0.1,-1 -0.1,-1.1 -0.2,-1.8 -0.4,-3.3 0.6,1.5 0.9,2.2 1.3,3 l 0.4,0.9 3.6,7.3 H 338 L 330.2,262 c 3.6,-1.2 5.4,-3.9 5.4,-8 0,-5.9 -4.9,-10.2 -11.5,-10.2 H 310 l 0.1,29.9 m 10.7,-21.8 h 1.4 c 1.8,0 2.9,1 2.9,2.6 0,1.7 -1.1,2.7 -2.9,2.7 h -1.4 v -5.3" />&#10;	<path
   id="XMLID_25_"
   class="st0"
   d="m 341.3,263 c 2.7,2.1 5,3.1 7.3,3.1 1.6,0 2.7,-0.7 2.7,-1.7 0,-0.6 -0.4,-1.1 -1.1,-1.3 -0.4,-0.2 -0.7,-0.2 -2.3,-0.5 -1.8,-0.3 -2.7,-0.5 -3.5,-0.8 -3.4,-1.2 -5.4,-4 -5.4,-7.7 0,-6.2 5.2,-10.6 12.7,-10.6 3.5,0 6.3,0.8 9.7,2.7 l -3,7.6 c -2,-1.6 -4,-2.3 -6.1,-2.3 -1.5,0 -2.5,0.6 -2.5,1.5 0,0.8 0.6,1.2 2.4,1.5 l 2,0.5 c 2.2,0.5 3.1,0.9 4.3,1.5 2.4,1.4 3.9,4 3.9,7.2 0,6.4 -5.2,10.7 -13,10.7 -2.8,0 -5.8,-0.6 -8.5,-1.7 -1,-0.4 -1.6,-0.6 -2.9,-1.4 l 3.3,-8.3" />&#10;	<rect
   id="XMLID_26_"
   x="364.10001"
   y="243.89999"
   class="st0"
   width="10.7"
   height="29.9" />&#10;	<polygon
   id="XMLID_27_"
   class="st0"
   points="399.9,253.6 393.9,253.3 393.9,273.7 383.3,273.7 383.3,253.2 377.3,253.4 377.3,243.9 399.9,243.9 " />&#10;	<polygon
   id="XMLID_28_"
   class="st0"
   points="419.9,243.9 432,243.9 421.9,260.9 421.9,273.7 411.1,273.7 411.1,260.9 400.9,243.9 413,243.9 416.5,251.5 " />&#10;	<path
   id="XMLID_29_"
   class="st1"
   d="m 111,187.2 c 0.4,-0.3 0.9,-0.3 1.3,-0.1 -0.2,-0.4 -0.3,-0.8 -0.3,-1.2 -0.2,0 -0.4,0 -0.6,0 v 0 c 0,0.4 -0.1,0.9 -0.4,1.3" />&#10;	<path
   id="XMLID_30_"
   class="st1"
   d="m 68.8,230.6 c -0.2,-0.4 -0.2,-0.9 0,-1.4 -0.4,0.3 -0.8,0.4 -1.2,0.4 l -0.1,0.1 c 0,0.2 0,0.3 0,0.5 v 0 c 0.5,0.1 0.9,0.2 1.3,0.4" />&#10;	<path
   id="XMLID_386_"
   class="st1"
   d="m 112.5,193.1 c -0.5,0.5 -1.2,0.5 -1.6,0 -0.4,-0.4 -0.4,-1.2 0,-1.6 0.4,-0.4 1.2,-0.4 1.6,0 0.4,0.5 0.4,1.2 0,1.6 m 2.1,2.1 c -0.5,0.4 -1.2,0.4 -1.6,0 -0.4,-0.5 -0.4,-1.2 0,-1.6 0.5,-0.5 1.2,-0.5 1.6,0 0.4,0.5 0.4,1.2 0,1.6 m 2.1,2.1 c -0.4,0.5 -1.2,0.5 -1.6,0 -0.4,-0.4 -0.4,-1.2 0,-1.6 0.4,-0.5 1.2,-0.5 1.6,0 0.4,0.5 0.4,1.2 0,1.6 m 2.1,2.1 c -0.4,0.5 -1.2,0.5 -1.6,0 -0.5,-0.5 -0.5,-1.2 0,-1.6 0.5,-0.4 1.2,-0.4 1.6,0 0.4,0.4 0.4,1.2 0,1.6 m 2,2.1 c -0.5,0.5 -1.2,0.5 -1.6,0 -0.4,-0.4 -0.4,-1.2 0,-1.6 0.5,-0.4 1.2,-0.4 1.6,0 0.5,0.4 0.5,1.1 0,1.6 m 2.1,2 c -0.4,0.4 -1.2,0.4 -1.6,0 -0.5,-0.5 -0.5,-1.2 0,-1.6 0.4,-0.4 1.2,-0.4 1.6,0 0.4,0.4 0.4,1.2 0,1.6 m 2.1,2.1 c -0.5,0.5 -1.2,0.5 -1.6,0 -0.4,-0.4 -0.4,-1.2 0,-1.6 0.5,-0.4 1.2,-0.4 1.6,0 0.4,0.4 0.4,1.2 0,1.6 m 2,2.1 c -0.4,0.4 -1.2,0.4 -1.6,0 -0.4,-0.5 -0.4,-1.2 0,-1.6 0.5,-0.4 1.2,-0.4 1.6,0 0.5,0.4 0.5,1.1 0,1.6 m 2.1,2 c -0.5,0.5 -1.2,0.5 -1.6,0 -0.5,-0.4 -0.5,-1.2 0,-1.6 0.4,-0.4 1.2,-0.4 1.6,0 0.4,0.5 0.4,1.2 0,1.6 m 2.1,2.1 c -0.5,0.5 -1.2,0.5 -1.6,0 -0.5,-0.4 -0.5,-1.2 0,-1.6 0.4,-0.4 1.2,-0.4 1.6,0 0.4,0.4 0.4,1.2 0,1.6 m 2,2.1 c -0.5,0.4 -1.2,0.4 -1.6,0 -0.5,-0.5 -0.5,-1.2 0,-1.6 0.4,-0.4 1.2,-0.4 1.6,0 0.5,0.4 0.5,1.1 0,1.6 m 2.1,2.1 c -0.4,0.5 -1.2,0.5 -1.6,0 -0.4,-0.4 -0.4,-1.2 0,-1.6 0.4,-0.5 1.2,-0.5 1.6,0 0.5,0.4 0.5,1.1 0,1.6 m 2.1,2 c -0.4,0.5 -1.2,0.5 -1.6,0 -0.5,-0.4 -0.5,-1.2 0,-1.6 0.4,-0.5 1.2,-0.5 1.6,0 0.4,0.5 0.4,1.2 0,1.6 m 2.1,2.1 c -0.4,0.5 -1.2,0.5 -1.6,0 -0.4,-0.4 -0.4,-1.2 0,-1.6 0.5,-0.4 1.2,-0.4 1.6,0 0.4,0.4 0.4,1.2 0,1.6 m 2,2.1 c -0.4,0.4 -1.2,0.4 -1.6,0 -0.4,-0.5 -0.4,-1.2 0,-1.6 0.4,-0.5 1.2,-0.5 1.6,0 0.5,0.4 0.5,1.1 0,1.6 m 2.1,2 c -0.4,0.5 -1.2,0.5 -1.6,0 -0.4,-0.4 -0.4,-1.2 0,-1.6 0.5,-0.4 1.2,-0.4 1.6,0 0.4,0.5 0.4,1.2 0,1.6 m 2.1,2.1 c -0.4,0.5 -1.2,0.5 -1.6,0 -0.5,-0.4 -0.5,-1.2 0,-1.6 0.4,-0.5 1.2,-0.5 1.6,0 0.4,0.4 0.4,1.2 0,1.6 m 2,2.1 c -0.4,0.4 -1.2,0.4 -1.6,0 -0.4,-0.4 -0.4,-1.2 0,-1.6 0.4,-0.4 1.2,-0.4 1.6,0 0.5,0.4 0.5,1.1 0,1.6 m 2.1,2.1 c -0.4,0.5 -1.2,0.5 -1.6,0 -0.4,-0.4 -0.4,-1.2 0,-1.6 0.5,-0.4 1.2,-0.4 1.6,0 0.4,0.4 0.4,1.1 0,1.6 m -39.4,-35.2 c -0.5,0.5 -1.2,0.5 -1.6,0 -0.4,-0.4 -0.4,-1.2 0,-1.6 0.5,-0.5 1.2,-0.5 1.6,0 0.4,0.4 0.4,1.1 0,1.6 m 6.8,6.7 c 0.4,-0.4 1.1,-0.4 1.5,0 0.4,0.4 0.4,1.1 0,1.5 -0.4,0.4 -1.1,0.4 -1.5,0 -0.4,-0.4 -0.4,-1.1 0,-1.5 m -2.1,-2 c 0.4,-0.4 1.1,-0.4 1.5,0 0.4,0.4 0.4,1.1 0,1.5 -0.4,0.4 -1.1,0.4 -1.5,0 -0.4,-0.5 -0.4,-1.1 0,-1.5 m -0.7,-2.1 c 0.4,0.4 0.4,1 0,1.3 -0.4,0.3 -1,0.4 -1.3,0 -0.4,-0.4 -0.4,-1 0,-1.3 0.3,-0.3 0.9,-0.3 1.3,0 m -2,-0.6 c -0.4,0.4 -1.1,0.4 -1.5,0 -0.4,-0.4 -0.4,-1.1 0,-1.5 0.4,-0.4 1.1,-0.4 1.5,0 0.4,0.4 0.4,1.1 0,1.5 m 31.7,31.7 c 0.4,-0.4 1.1,-0.4 1.5,0 0.4,0.4 0.4,1.1 0,1.5 -0.4,0.4 -1.1,0.4 -1.5,0 -0.4,-0.5 -0.4,-1.1 0,-1.5 m -16.5,-16.6 c 0.4,-0.4 1,-0.4 1.3,0 0.4,0.4 0.4,1 0,1.3 -0.4,0.4 -1,0.4 -1.3,0 -0.4,-0.3 -0.4,-0.9 0,-1.3 m 3.4,3.4 c -0.4,0.4 -1,0.4 -1.3,0 -0.4,-0.4 -0.4,-1 0,-1.3 0.4,-0.4 1,-0.4 1.3,0 0.4,0.4 0.4,1 0,1.3 m 2.1,2.1 c -0.4,0.4 -1,0.4 -1.3,0 -0.4,-0.4 -0.4,-1 0,-1.3 0.4,-0.4 1,-0.4 1.3,0 0.3,0.4 0.3,1 0,1.3 m 2,2.1 c -0.4,0.4 -0.9,0.4 -1.3,0 -0.4,-0.4 -0.4,-1 0,-1.3 0.4,-0.4 1,-0.4 1.3,0 0.4,0.3 0.4,0.9 0,1.3 m 2.1,2 c -0.4,0.4 -1,0.4 -1.3,0 -0.4,-0.4 -0.4,-0.9 0,-1.3 0.4,-0.4 1,-0.4 1.3,0 0.4,0.4 0.4,1 0,1.3 m 2.1,2.1 c -0.4,0.4 -0.9,0.4 -1.3,0 -0.4,-0.4 -0.4,-1 0,-1.3 0.4,-0.4 0.9,-0.4 1.3,0 0.3,0.4 0.3,1 0,1.3 m 4.1,2.8 c 0.4,0.4 0.4,1 0,1.3 -0.4,0.4 -1,0.4 -1.3,0 -0.4,-0.4 -0.4,-1 0,-1.3 0.4,-0.3 0.9,-0.3 1.3,0 m -2.1,-0.7 c -0.4,0.4 -1,0.4 -1.3,0 -0.4,-0.4 -0.4,-1 0,-1.3 0.4,-0.4 1,-0.4 1.3,0 0.4,0.3 0.4,0.9 0,1.3 m -15.8,-15.8 c 0.4,-0.4 1,-0.4 1.3,0 0.4,0.4 0.4,1 0,1.3 -0.4,0.4 -1,0.4 -1.3,0 -0.3,-0.4 -0.3,-0.9 0,-1.3 m -2,-2.1 c 0.4,-0.4 1,-0.4 1.3,0 0.4,0.4 0.4,1 0,1.3 -0.4,0.4 -1,0.4 -1.3,0 -0.4,-0.3 -0.4,-0.9 0,-1.3 m -4.2,-2.8 c -0.4,-0.4 -0.4,-1 0,-1.3 0.4,-0.4 0.9,-0.4 1.3,0 0.4,0.4 0.4,1 0,1.3 -0.3,0.3 -0.9,0.3 -1.3,0 m 2.1,0.7 c 0.4,-0.4 1,-0.4 1.3,0 0.4,0.4 0.4,1 0,1.3 -0.4,0.4 -0.9,0.4 -1.3,0 -0.4,-0.3 -0.4,-0.9 0,-1.3 m 26.3,26.3 c -0.4,0.4 -1.2,0.4 -1.6,0 -0.5,-0.4 -0.5,-1.2 0,-1.6 0.4,-0.4 1.2,-0.4 1.6,0 0.4,0.5 0.4,1.2 0,1.6 m -39.4,-35.2 c -0.4,0.4 -1.2,0.4 -1.6,0 -0.5,-0.5 -0.5,-1.2 0,-1.6 0.4,-0.5 1.2,-0.5 1.6,0 0.5,0.5 0.5,1.2 0,1.6 m 33.7,33.8 c 0.4,-0.4 1.1,-0.4 1.5,0 0.4,0.4 0.4,1.1 0,1.4 -0.4,0.4 -1.1,0.4 -1.5,0 -0.4,-0.4 -0.4,-1 0,-1.4 m -31.7,-31.7 c -0.4,0.4 -1.1,0.4 -1.5,0 -0.4,-0.4 -0.4,-1.1 0,-1.5 0.4,-0.4 1.1,-0.4 1.5,0 0.4,0.4 0.4,1.1 0,1.5 m 2,1.9 c -0.4,0.4 -1,0.4 -1.3,0 -0.4,-0.4 -0.4,-1 0,-1.3 0.4,-0.4 1,-0.4 1.3,0 0.4,0.4 0.4,1 0,1.3 m 2.1,2.1 c -0.4,0.4 -1,0.4 -1.3,0 -0.4,-0.4 -0.4,-1 0,-1.3 0.4,-0.4 1,-0.4 1.3,0 0.4,0.4 0.4,1 0,1.3 m 2.1,2.1 c -0.4,0.4 -0.9,0.4 -1.3,0 -0.4,-0.4 -0.4,-1 0,-1.3 0.4,-0.4 1,-0.4 1.3,0 0.3,0.3 0.3,0.9 0,1.3 m 2,2.1 c -0.4,0.4 -0.9,0.4 -1.3,0 -0.4,-0.4 -0.4,-1 0,-1.3 0.4,-0.3 1,-0.4 1.3,0 0.4,0.3 0.4,0.9 0,1.3 m 2.1,2 c -0.4,0.4 -1,0.4 -1.3,0 -0.4,-0.4 -0.4,-1 0,-1.3 0.4,-0.4 1,-0.4 1.3,0 0.4,0.4 0.4,1 0,1.3 m 2.1,2.1 c -0.4,0.4 -0.9,0.4 -1.3,0 -0.4,-0.4 -0.4,-1 0,-1.3 0.4,-0.4 1,-0.4 1.3,0 0.3,0.4 0.3,0.9 0,1.3 m 2,2.1 c -0.4,0.4 -1,0.4 -1.3,0 -0.4,-0.4 -0.4,-1 0,-1.3 0.4,-0.4 1,-0.4 1.3,0 0.4,0.3 0.4,0.9 0,1.3 m 2.1,2.1 c -0.4,0.4 -1,0.4 -1.3,0 -0.4,-0.4 -0.4,-1 0,-1.3 0.4,-0.4 1,-0.4 1.3,0 0.4,0.3 0.4,0.9 0,1.3 m 2.1,2 c -0.4,0.4 -1,0.4 -1.3,0 -0.4,-0.4 -0.4,-1 0,-1.3 0.4,-0.4 1,-0.4 1.3,0 0.4,0.4 0.4,1 0,1.3 m 2.1,2.1 c -0.4,0.4 -1,0.4 -1.3,0 -0.4,-0.4 -0.4,-1 0,-1.3 0.4,-0.3 1,-0.4 1.3,0 0.3,0.4 0.3,0.9 0,1.3 m 2,2.1 c -0.4,0.4 -1,0.4 -1.3,0 -0.4,-0.4 -0.4,-1 0,-1.3 0.4,-0.4 1,-0.4 1.3,0 0.4,0.3 0.4,0.9 0,1.3 m 2.1,2 c -0.4,0.4 -1,0.4 -1.3,0 -0.4,-0.4 -0.4,-1 0,-1.3 0.4,-0.4 1,-0.4 1.3,0 0.4,0.4 0.4,1 0,1.3 m 4.9,4.9 c 0.4,-0.4 1,-0.4 1.3,0 0.4,0.4 0.4,1 0,1.3 -0.4,0.4 -1,0.4 -1.3,0 -0.4,-0.3 -0.4,-0.9 0,-1.3 m -4,-2.9 c -0.3,-0.3 -0.3,-0.8 0,-1.1 0.3,-0.3 0.8,-0.3 1.1,0 0.3,0.3 0.3,0.8 0,1.1 -0.3,0.3 -0.8,0.3 -1.1,0 m 2,1 c 0.3,-0.3 0.8,-0.3 1.1,0 0.3,0.3 0.3,0.8 0,1.1 -0.3,0.3 -0.8,0.3 -1.1,0 -0.3,-0.3 -0.3,-0.8 0,-1.1 m 7.6,7.5 c -0.5,0.5 -1.2,0.5 -1.6,0 -0.5,-0.4 -0.5,-1.2 0,-1.6 0.4,-0.5 1.2,-0.5 1.6,0 0.4,0.4 0.4,1.2 0,1.6 m -39.4,-35.2 c -0.5,0.5 -1.2,0.5 -1.6,0 -0.4,-0.4 -0.4,-1.2 0,-1.6 0.5,-0.4 1.2,-0.4 1.6,0 0.5,0.4 0.5,1.2 0,1.6 m 33.7,33.7 c 0.4,-0.4 1.1,-0.4 1.5,0 0.4,0.4 0.4,1.1 0,1.5 -0.4,0.4 -1.1,0.4 -1.5,0 -0.4,-0.4 -0.4,-1 0,-1.5 m -31.7,-31.6 c -0.4,0.4 -1.1,0.4 -1.5,0 -0.4,-0.4 -0.4,-1.1 0,-1.5 0.4,-0.4 1.1,-0.4 1.5,0 0.4,0.4 0.4,1.1 0,1.5 m 2,1.9 c -0.4,0.4 -1,0.4 -1.3,0 -0.4,-0.4 -0.4,-1 0,-1.3 0.4,-0.4 1,-0.4 1.3,0 0.4,0.4 0.4,1 0,1.3 m 27.7,27.7 c 0.4,-0.4 1,-0.4 1.3,0 0.4,0.4 0.4,1 0,1.3 -0.4,0.4 -1,0.4 -1.3,0 -0.4,-0.3 -0.4,-0.9 0,-1.3 m -2,-1.9 c 0.3,-0.3 0.8,-0.3 1.1,0 0.3,0.3 0.3,0.8 0,1.1 -0.3,0.3 -0.8,0.3 -1.1,0 -0.3,-0.3 -0.3,-0.8 0,-1.1 m -1.1,-1.9 c 0.2,0.2 0.2,0.6 0,0.8 -0.2,0.2 -0.6,0.2 -0.8,0 -0.2,-0.2 -0.2,-0.6 0,-0.8 0.2,-0.3 0.6,-0.3 0.8,0 m -3,-2.3 c 0.3,-0.3 0.8,-0.3 1.1,0 0.3,0.3 0.3,0.8 0,1.1 -0.3,0.3 -0.8,0.3 -1.1,0 -0.3,-0.2 -0.3,-0.7 0,-1.1 m -2.1,-2 c 0.3,-0.3 0.8,-0.3 1.1,0 0.3,0.3 0.3,0.8 0,1.1 -0.3,0.3 -0.8,0.3 -1.1,0 -0.3,-0.3 -0.3,-0.8 0,-1.1 m -2.1,-2.1 c 0.3,-0.3 0.8,-0.3 1.1,0 0.3,0.3 0.3,0.8 0,1.1 -0.3,0.3 -0.8,0.3 -1.1,0 -0.3,-0.3 -0.3,-0.8 0,-1.1 m -2,-2.1 c 0.3,-0.3 0.8,-0.3 1.1,0 0.3,0.3 0.3,0.8 0,1.1 -0.3,0.3 -0.8,0.3 -1.1,0 -0.3,-0.3 -0.3,-0.8 0,-1.1 m -2.1,-2 c 0.3,-0.3 0.8,-0.3 1.1,0 0.3,0.3 0.3,0.8 0,1.1 -0.3,0.3 -0.8,0.3 -1.1,0 -0.3,-0.3 -0.3,-0.8 0,-1.1 m -2.1,-2.1 c 0.3,-0.3 0.8,-0.3 1.1,0 0.3,0.3 0.3,0.8 0,1.1 -0.3,0.3 -0.8,0.3 -1.1,0 -0.3,-0.3 -0.3,-0.8 0,-1.1 m -2.1,-2.1 c 0.3,-0.3 0.8,-0.3 1.1,0 0.3,0.3 0.3,0.8 0,1.1 -0.3,0.3 -0.8,0.3 -1.1,0 -0.3,-0.3 -0.3,-0.8 0,-1.1 m -2,-2.1 c 0.3,-0.3 0.8,-0.3 1.1,0 0.3,0.3 0.3,0.8 0,1.1 -0.3,0.3 -0.8,0.3 -1.1,0 -0.3,-0.3 -0.3,-0.8 0,-1.1 m -2.1,-2 c 0.3,-0.3 0.8,-0.3 1.1,0 0.3,0.3 0.3,0.8 0,1.1 -0.3,0.3 -0.8,0.3 -1.1,0 -0.3,-0.3 -0.3,-0.8 0,-1.1 m -4.1,-3.1 c -0.3,-0.3 -0.3,-0.8 0,-1.1 0.3,-0.3 0.8,-0.3 1.1,0 0.3,0.3 0.3,0.8 0,1.1 -0.3,0.3 -0.8,0.3 -1.1,0 m 2,1 c 0.3,-0.3 0.8,-0.3 1.1,0 0.3,0.3 0.3,0.8 0,1.1 -0.3,0.3 -0.8,0.3 -1.1,0 -0.3,-0.3 -0.3,-0.8 0,-1.1 m 30.4,30.3 c -0.4,0.4 -1.2,0.4 -1.6,0 -0.4,-0.4 -0.4,-1.2 0,-1.6 0.4,-0.5 1.2,-0.5 1.6,0 0.4,0.4 0.4,1.2 0,1.6 m -39.4,-35.2 c -0.4,0.4 -1.2,0.4 -1.6,0 -0.4,-0.4 -0.4,-1.2 0,-1.6 0.4,-0.5 1.2,-0.5 1.6,0 0.5,0.5 0.5,1.2 0,1.6 m 33.7,33.7 c 0.4,-0.4 1.1,-0.4 1.5,0 0.4,0.4 0.4,1.1 0,1.4 -0.4,0.4 -1.1,0.4 -1.5,0 -0.4,-0.3 -0.4,-1 0,-1.4 m -31.7,-31.7 c -0.4,0.4 -1.1,0.4 -1.5,0 -0.4,-0.4 -0.4,-1.1 0,-1.5 0.4,-0.4 1.1,-0.4 1.5,0 0.4,0.5 0.4,1.1 0,1.5 m 2,2 c -0.4,0.4 -1,0.4 -1.3,0 -0.4,-0.4 -0.4,-1 0,-1.3 0.4,-0.4 0.9,-0.4 1.3,0 0.4,0.3 0.4,0.9 0,1.3 m 27.7,27.7 c 0.4,-0.4 1,-0.4 1.3,0 0.4,0.4 0.4,1 0,1.3 -0.4,0.4 -0.9,0.4 -1.3,0 -0.3,-0.4 -0.3,-0.9 0,-1.3 m -1.9,-1.9 c 0.3,-0.3 0.8,-0.3 1.1,0 0.3,0.3 0.3,0.8 0,1.1 -0.3,0.3 -0.8,0.3 -1.1,0 -0.3,-0.4 -0.3,-0.8 0,-1.1 m -23.8,-23.8 c -0.3,0.3 -0.8,0.3 -1.1,0 -0.3,-0.3 -0.3,-0.8 0,-1.1 0.3,-0.3 0.8,-0.3 1.1,0 0.3,0.3 0.3,0.8 0,1.1 m 1.9,1.9 c -0.2,0.2 -0.6,0.2 -0.8,0 -0.2,-0.2 -0.2,-0.6 0,-0.8 0.2,-0.2 0.6,-0.2 0.8,0 0.3,0.2 0.3,0.6 0,0.8 m 2.1,2.1 c -0.2,0.2 -0.6,0.2 -0.8,0 -0.2,-0.2 -0.2,-0.6 0,-0.8 0.2,-0.2 0.6,-0.2 0.8,0 0.2,0.2 0.2,0.6 0,0.8 m 2.1,2.1 c -0.2,0.2 -0.6,0.2 -0.8,0 -0.2,-0.2 -0.2,-0.6 0,-0.8 0.2,-0.2 0.6,-0.2 0.8,0 0.2,0.2 0.2,0.5 0,0.8 m 2.1,2 c -0.2,0.2 -0.6,0.2 -0.8,0 -0.2,-0.2 -0.2,-0.6 0,-0.8 0.2,-0.2 0.6,-0.2 0.8,0 0.2,0.2 0.2,0.6 0,0.8 m 2,2.1 c -0.2,0.2 -0.6,0.2 -0.8,0 -0.2,-0.2 -0.2,-0.6 0,-0.8 0.2,-0.2 0.6,-0.2 0.8,0 0.3,0.2 0.3,0.6 0,0.8 m 2.1,2.1 c -0.2,0.2 -0.6,0.2 -0.8,0 -0.2,-0.2 -0.2,-0.6 0,-0.8 0.2,-0.2 0.6,-0.2 0.8,0 0.2,0.2 0.2,0.6 0,0.8 m 2.1,2.1 c -0.2,0.2 -0.6,0.2 -0.8,0 -0.2,-0.2 -0.2,-0.6 0,-0.8 0.2,-0.2 0.6,-0.2 0.8,0 0.2,0.2 0.2,0.5 0,0.8 m 2,2 c -0.2,0.2 -0.6,0.2 -0.8,0 -0.2,-0.2 -0.2,-0.6 0,-0.8 0.2,-0.2 0.6,-0.2 0.8,0 0.3,0.2 0.3,0.6 0,0.8 m 2.1,2.1 c -0.2,0.2 -0.6,0.2 -0.8,0 -0.2,-0.2 -0.2,-0.6 0,-0.8 0.2,-0.2 0.6,-0.2 0.8,0 0.3,0.2 0.3,0.6 0,0.8 m 4.2,3.3 c 0.2,0.2 0.2,0.6 0,0.8 -0.2,0.2 -0.6,0.2 -0.8,0 -0.2,-0.2 -0.2,-0.6 0,-0.8 0.2,-0.2 0.5,-0.2 0.8,0 m -2.1,-1.2 c -0.2,0.2 -0.6,0.2 -0.8,0 -0.2,-0.2 -0.2,-0.6 0,-0.8 0.2,-0.2 0.6,-0.2 0.8,0 0.2,0.2 0.2,0.6 0,0.8 m 10.7,10.7 c -0.4,0.4 -1.2,0.4 -1.6,0 -0.5,-0.5 -0.5,-1.2 0,-1.6 0.4,-0.5 1.2,-0.5 1.6,0 0.4,0.4 0.4,1.2 0,1.6 M 102,203.6 c -0.4,0.4 -1.2,0.4 -1.6,0 -0.5,-0.4 -0.5,-1.2 0,-1.6 0.4,-0.4 1.2,-0.4 1.6,0 0.5,0.4 0.5,1.2 0,1.6 m 33.8,33.7 c 0.4,-0.4 1.1,-0.4 1.5,0 0.4,0.4 0.4,1.1 0,1.4 -0.4,0.4 -1.1,0.4 -1.5,0 -0.4,-0.3 -0.4,-1 0,-1.4 m -31.7,-31.7 c -0.4,0.4 -1.1,0.4 -1.5,0 -0.4,-0.4 -0.4,-1.1 0,-1.5 0.4,-0.4 1.1,-0.4 1.5,0 0.4,0.5 0.4,1.1 0,1.5 m 1.9,2 c -0.4,0.4 -1,0.4 -1.3,0 -0.4,-0.4 -0.4,-1 0,-1.3 0.4,-0.4 1,-0.4 1.3,0 0.4,0.4 0.4,0.9 0,1.3 m 27.7,27.7 c 0.4,-0.4 1,-0.4 1.3,0 0.4,0.4 0.4,1 0,1.3 -0.4,0.4 -1,0.4 -1.3,0 -0.3,-0.3 -0.3,-0.9 0,-1.3 m -1.9,-1.9 c 0.3,-0.3 0.8,-0.3 1.1,0 0.3,0.3 0.3,0.8 0,1.1 -0.3,0.3 -0.8,0.3 -1.1,0 -0.3,-0.3 -0.3,-0.8 0,-1.1 M 108,209.6 c -0.3,0.3 -0.8,0.3 -1.1,0 -0.3,-0.3 -0.3,-0.8 0,-1.1 0.3,-0.3 0.8,-0.3 1.1,0 0.3,0.3 0.3,0.8 0,1.1 m 22.7,21.8 c 0.2,0.2 0.2,0.6 0,0.8 -0.2,0.2 -0.6,0.2 -0.8,0 -0.2,-0.2 -0.2,-0.6 0,-0.8 0.2,-0.2 0.5,-0.2 0.8,0 m -20.8,-19.9 c -0.2,0.2 -0.6,0.2 -0.8,0 -0.2,-0.2 -0.2,-0.6 0,-0.8 0.2,-0.2 0.6,-0.2 0.8,0 0.3,0.2 0.3,0.6 0,0.8 m 29.4,29.4 c -0.5,0.5 -1.2,0.5 -1.6,0 -0.4,-0.4 -0.4,-1.2 0,-1.6 0.4,-0.5 1.2,-0.5 1.6,0 0.5,0.4 0.5,1.1 0,1.6 M 100,205.7 c -0.4,0.4 -1.2,0.4 -1.6,0 -0.4,-0.5 -0.4,-1.2 0,-1.6 0.4,-0.4 1.2,-0.4 1.6,0 0.4,0.4 0.4,1.1 0,1.6 m 33.7,33.7 c 0.4,-0.4 1.1,-0.4 1.5,0 0.4,0.4 0.4,1.1 0,1.5 -0.4,0.4 -1.1,0.4 -1.5,0 -0.4,-0.4 -0.4,-1.1 0,-1.5 M 102,207.7 c -0.4,0.4 -1.1,0.4 -1.5,0 -0.4,-0.4 -0.4,-1.1 0,-1.5 0.4,-0.4 1.1,-0.4 1.5,0 0.4,0.5 0.4,1.1 0,1.5 m 2,2 c -0.4,0.4 -1,0.4 -1.3,0 -0.4,-0.4 -0.4,-0.9 0,-1.3 0.4,-0.4 1,-0.4 1.3,0 0.3,0.3 0.3,0.9 0,1.3 m 27.7,27.7 c 0.4,-0.4 0.9,-0.4 1.3,0 0.4,0.4 0.4,1 0,1.3 -0.4,0.4 -1,0.4 -1.3,0 -0.4,-0.4 -0.4,-1 0,-1.3 m -2,-2 c 0.3,-0.3 0.8,-0.3 1.1,0 0.3,0.3 0.3,0.8 0,1.1 -0.3,0.3 -0.8,0.3 -1.1,0 -0.3,-0.3 -0.3,-0.8 0,-1.1 m -23.8,-23.7 c -0.3,0.3 -0.8,0.3 -1.1,0 -0.3,-0.3 -0.3,-0.8 0,-1.1 0.3,-0.3 0.8,-0.3 1.1,0 0.3,0.3 0.3,0.8 0,1.1 m 2,1.9 c -0.2,0.2 -0.6,0.2 -0.8,0 -0.2,-0.2 -0.2,-0.6 0,-0.8 0.2,-0.2 0.6,-0.2 0.8,0 0.2,0.2 0.2,0.6 0,0.8 m 19.9,19.9 c 0.2,-0.2 0.6,-0.2 0.8,0 0.2,0.2 0.2,0.6 0,0.8 -0.2,0.2 -0.6,0.2 -0.8,0 -0.3,-0.2 -0.3,-0.6 0,-0.8 m -2.1,-1.9 c 0.2,-0.2 0.5,-0.2 0.6,0 0.2,0.2 0.2,0.5 0,0.6 -0.2,0.2 -0.4,0.2 -0.6,0 -0.2,-0.2 -0.2,-0.4 0,-0.6 m -2,-2.1 c 0.2,-0.2 0.4,-0.2 0.6,0 0.2,0.2 0.2,0.4 0,0.6 -0.2,0.2 -0.4,0.2 -0.6,0 -0.2,-0.2 -0.2,-0.5 0,-0.6 m -2.1,-2.1 c 0.2,-0.2 0.4,-0.2 0.6,0 0.2,0.2 0.2,0.4 0,0.6 -0.2,0.2 -0.4,0.2 -0.6,0 -0.1,-0.1 -0.1,-0.4 0,-0.6 m -2.1,-2.1 c 0.2,-0.2 0.4,-0.2 0.6,0 0.2,0.2 0.2,0.4 0,0.6 -0.2,0.2 -0.5,0.2 -0.6,0 -0.2,-0.1 -0.2,-0.4 0,-0.6 m -4.1,-4.1 c 0.2,-0.2 0.4,-0.2 0.6,0 0.2,0.2 0.2,0.4 0,0.6 -0.2,0.2 -0.4,0.2 -0.6,0 -0.2,-0.2 -0.2,-0.5 0,-0.6 m -4.1,-3.5 c -0.2,-0.2 -0.2,-0.4 0,-0.6 0.2,-0.2 0.4,-0.2 0.6,0 0.2,0.2 0.2,0.4 0,0.6 -0.2,0.1 -0.5,0.1 -0.6,0 m 2,1.4 c 0.2,-0.2 0.4,-0.2 0.6,0 0.2,0.2 0.2,0.4 0,0.6 -0.2,0.2 -0.4,0.2 -0.6,0 -0.1,-0.1 -0.1,-0.4 0,-0.6 m 23.9,23.9 c -0.4,0.4 -1.2,0.4 -1.6,0 -0.4,-0.4 -0.4,-1.2 0,-1.6 0.5,-0.4 1.2,-0.4 1.6,0 0.5,0.4 0.5,1.1 0,1.6 M 97.8,207.8 c -0.4,0.5 -1.2,0.5 -1.6,0 -0.5,-0.4 -0.5,-1.2 0,-1.6 0.4,-0.4 1.2,-0.4 1.6,0 0.5,0.4 0.5,1.1 0,1.6 m 33.8,33.7 c 0.4,-0.4 1,-0.4 1.5,0 0.4,0.4 0.4,1.1 0,1.5 -0.4,0.4 -1.1,0.4 -1.5,0 -0.4,-0.4 -0.4,-1.1 0,-1.5 M 99.9,209.8 c -0.4,0.4 -1.1,0.4 -1.5,0 -0.4,-0.4 -0.4,-1.1 0,-1.5 0.4,-0.4 1.1,-0.4 1.5,0 0.4,0.5 0.4,1.1 0,1.5 m 2,2 c -0.4,0.4 -1,0.4 -1.3,0 -0.4,-0.4 -0.4,-1 0,-1.3 0.4,-0.4 1,-0.4 1.3,0 0.3,0.3 0.3,0.9 0,1.3 m 27.6,27.7 c 0.4,-0.4 1,-0.4 1.3,0 0.4,0.4 0.4,1 0,1.3 -0.4,0.4 -0.9,0.4 -1.3,0 -0.3,-0.4 -0.3,-1 0,-1.3 m -1.9,-2 c 0.3,-0.3 0.8,-0.3 1.1,0 0.3,0.3 0.3,0.8 0,1.1 -0.3,0.3 -0.8,0.3 -1.1,0 -0.3,-0.3 -0.3,-0.7 0,-1.1 m -23.8,-23.7 c -0.3,0.3 -0.8,0.3 -1.1,0 -0.3,-0.3 -0.3,-0.8 0,-1.1 0.3,-0.3 0.8,-0.3 1.1,0 0.3,0.3 0.3,0.8 0,1.1 m 1.9,1.9 c -0.2,0.2 -0.6,0.2 -0.8,0 -0.2,-0.2 -0.2,-0.6 0,-0.8 0.2,-0.2 0.6,-0.2 0.8,0 0.3,0.2 0.3,0.6 0,0.8 m 20,19.9 c 0.2,-0.2 0.6,-0.2 0.8,0 0.2,0.2 0.2,0.6 0,0.8 -0.2,0.2 -0.6,0.2 -0.8,0 -0.3,-0.2 -0.3,-0.6 0,-0.8 m -2.1,-1.9 c 0.2,-0.2 0.5,-0.2 0.6,0 0.2,0.2 0.2,0.5 0,0.6 -0.2,0.2 -0.5,0.2 -0.6,0 -0.1,-0.2 -0.1,-0.5 0,-0.6 m -2,-2.1 c 0.2,-0.2 0.4,-0.2 0.6,0 0.2,0.2 0.2,0.4 0,0.6 -0.2,0.2 -0.4,0.2 -0.6,0 -0.2,-0.2 -0.2,-0.5 0,-0.6 m -2.1,-2.1 c 0.2,-0.2 0.4,-0.2 0.6,0 0.2,0.2 0.2,0.5 0,0.6 -0.2,0.2 -0.4,0.2 -0.6,0 -0.1,-0.1 -0.1,-0.4 0,-0.6 m -2,-6.2 c 0.2,-0.2 0.5,-0.2 0.6,0 0.2,0.2 0.2,0.4 0,0.6 -0.2,0.2 -0.4,0.2 -0.6,0 -0.1,-0.2 -0.1,-0.5 0,-0.6 m -0.1,4.1 c 0.2,-0.2 0.4,-0.2 0.6,0 0.2,0.2 0.2,0.4 0,0.6 -0.2,0.2 -0.4,0.2 -0.6,0 -0.2,-0.2 -0.2,-0.4 0,-0.6 m -2,-2 c 0.2,-0.2 0.4,-0.2 0.6,0 0.2,0.2 0.2,0.4 0,0.6 -0.2,0.2 -0.4,0.2 -0.6,0 -0.2,-0.2 -0.2,-0.4 0,-0.6 m -2.1,-2.1 c 0.2,-0.2 0.4,-0.2 0.6,0 0.2,0.2 0.2,0.4 0,0.6 -0.2,0.2 -0.4,0.2 -0.6,0 -0.2,-0.2 -0.2,-0.5 0,-0.6 m -4.1,-3.5 c -0.2,-0.2 -0.2,-0.4 0,-0.6 0.2,-0.2 0.4,-0.2 0.6,0 0.2,0.2 0.2,0.4 0,0.6 -0.2,0.1 -0.5,0.1 -0.6,0 m 2,1.4 c 0.2,-0.2 0.4,-0.2 0.6,0 0.2,0.2 0.2,0.4 0,0.6 -0.2,0.2 -0.4,0.2 -0.6,0 -0.1,-0.1 -0.1,-0.4 0,-0.6 m 23.9,23.9 c -0.4,0.5 -1.2,0.5 -1.6,0 -0.5,-0.4 -0.5,-1.2 0,-1.6 0.4,-0.4 1.2,-0.4 1.6,0 0.5,0.4 0.5,1.1 0,1.6 M 95.8,209.9 c -0.5,0.5 -1.2,0.5 -1.6,0 -0.4,-0.4 -0.4,-1.2 0,-1.6 0.4,-0.4 1.2,-0.4 1.6,0 0.4,0.4 0.4,1.1 0,1.6 m 33.7,33.7 c 0.4,-0.4 1.1,-0.4 1.5,0 0.4,0.4 0.4,1 0,1.4 -0.4,0.4 -1.1,0.4 -1.5,0 -0.4,-0.3 -0.4,-1 0,-1.4 M 97.8,211.9 c -0.4,0.4 -1.1,0.4 -1.5,0 -0.4,-0.4 -0.4,-1.1 0,-1.5 0.4,-0.4 1.1,-0.4 1.5,0 0.4,0.4 0.4,1.1 0,1.5 m 2,2 c -0.4,0.4 -0.9,0.4 -1.3,0 -0.4,-0.4 -0.4,-1 0,-1.3 0.4,-0.4 1,-0.4 1.3,0 0.3,0.3 0.3,0.9 0,1.3 m 27.7,27.7 c 0.4,-0.4 0.9,-0.4 1.3,0 0.4,0.4 0.4,1 0,1.3 -0.4,0.4 -1,0.4 -1.3,0 -0.4,-0.4 -0.4,-1 0,-1.3 m -2,-2 c 0.3,-0.3 0.8,-0.3 1.1,0 0.3,0.3 0.3,0.8 0,1.1 -0.3,0.3 -0.8,0.3 -1.1,0 -0.3,-0.3 -0.3,-0.8 0,-1.1 m -23.7,-23.8 c -0.3,0.3 -0.8,0.3 -1.1,0 -0.3,-0.3 -0.3,-0.8 0,-1.1 0.3,-0.3 0.8,-0.3 1.1,0 0.3,0.3 0.3,0.8 0,1.1 m 1.9,2 c -0.2,0.2 -0.6,0.2 -0.8,0 -0.2,-0.2 -0.2,-0.6 0,-0.8 0.2,-0.2 0.6,-0.2 0.8,0 0.2,0.2 0.2,0.6 0,0.8 m 19.9,19.9 c 0.2,-0.2 0.6,-0.2 0.8,0 0.2,0.2 0.2,0.6 0,0.8 -0.2,0.2 -0.6,0.2 -0.8,0 -0.3,-0.2 -0.3,-0.6 0,-0.8 m -2.1,-2 c 0.2,-0.2 0.5,-0.2 0.6,0 0.2,0.2 0.2,0.4 0,0.6 -0.2,0.2 -0.5,0.2 -0.6,0 -0.1,-0.1 -0.1,-0.4 0,-0.6 m -2,-2.1 c 0.2,-0.2 0.4,-0.2 0.6,0 0.2,0.2 0.2,0.4 0,0.6 -0.2,0.2 -0.4,0.2 -0.6,0 -0.2,-0.1 -0.2,-0.4 0,-0.6 m -2,-2 c 0.2,-0.2 0.4,-0.2 0.6,0 0.2,0.2 0.2,0.4 0,0.6 -0.2,0.2 -0.4,0.2 -0.6,0 -0.2,-0.1 -0.2,-0.4 0,-0.6 m -2.2,-2.1 c 0.2,-0.2 0.4,-0.2 0.6,0 0.2,0.2 0.2,0.4 0,0.6 -0.2,0.2 -0.4,0.2 -0.6,0 -0.1,-0.2 -0.1,-0.4 0,-0.6 m -2,-2 c 0.2,-0.2 0.4,-0.2 0.6,0 0.2,0.2 0.2,0.4 0,0.6 -0.2,0.2 -0.4,0.2 -0.6,0 -0.2,-0.2 -0.2,-0.5 0,-0.6 m -2.1,-2.2 c 0.2,-0.2 0.4,-0.2 0.6,0 0.2,0.2 0.2,0.4 0,0.6 -0.2,0.2 -0.4,0.2 -0.6,0 -0.2,-0.1 -0.2,-0.4 0,-0.6 m -4.1,-3.5 c -0.2,-0.2 -0.2,-0.4 0,-0.6 0.2,-0.2 0.4,-0.2 0.6,0 0.2,0.2 0.2,0.4 0,0.6 -0.2,0.2 -0.5,0.2 -0.6,0 m 2,1.5 c 0.2,-0.2 0.4,-0.2 0.6,0 0.2,0.2 0.2,0.4 0,0.6 -0.2,0.2 -0.4,0.2 -0.6,0 -0.1,-0.2 -0.1,-0.4 0,-0.6 m 23.9,23.8 c -0.5,0.4 -1.2,0.4 -1.6,0 -0.5,-0.4 -0.5,-1.2 0,-1.6 0.5,-0.4 1.2,-0.4 1.6,0 0.5,0.5 0.5,1.2 0,1.6 M 93.6,212 c -0.4,0.5 -1.2,0.5 -1.6,0 -0.4,-0.4 -0.4,-1.2 0,-1.6 0.4,-0.4 1.2,-0.4 1.6,0 0.5,0.4 0.5,1.1 0,1.6 m 33.8,33.7 c 0.4,-0.4 1.1,-0.4 1.5,0 0.4,0.4 0.4,1.1 0,1.5 -0.4,0.4 -1.1,0.4 -1.5,0 -0.4,-0.5 -0.4,-1.1 0,-1.5 M 95.7,214 c -0.4,0.4 -1.1,0.4 -1.5,0 -0.4,-0.4 -0.4,-1.1 0,-1.5 0.4,-0.4 1.1,-0.4 1.5,0 0.4,0.4 0.4,1.1 0,1.5 m 2,2 c -0.4,0.4 -1,0.4 -1.3,0 -0.4,-0.4 -0.4,-1 0,-1.3 0.4,-0.4 1,-0.4 1.3,0 0.3,0.3 0.3,0.9 0,1.3 m 27.6,27.7 c 0.4,-0.4 1,-0.4 1.3,0 0.4,0.4 0.4,1 0,1.3 -0.4,0.4 -1,0.4 -1.3,0 -0.3,-0.4 -0.3,-1 0,-1.3 m -1.9,-2 c 0.3,-0.3 0.8,-0.3 1.1,0 0.3,0.3 0.3,0.8 0,1.1 -0.3,0.3 -0.8,0.3 -1.1,0 -0.3,-0.3 -0.3,-0.8 0,-1.1 M 99.6,218 c -0.3,0.3 -0.8,0.3 -1.1,0 -0.3,-0.3 -0.3,-0.8 0,-1.1 0.3,-0.3 0.8,-0.3 1.1,0 0.3,0.3 0.3,0.8 0,1.1 m 1.9,1.9 c -0.2,0.2 -0.6,0.2 -0.8,0 -0.2,-0.2 -0.2,-0.6 0,-0.8 0.2,-0.2 0.6,-0.2 0.8,0 0.3,0.2 0.3,0.6 0,0.8 m 20,19.9 c 0.2,-0.2 0.6,-0.2 0.8,0 0.2,0.2 0.2,0.6 0,0.8 -0.2,0.2 -0.6,0.2 -0.8,0 -0.3,-0.2 -0.3,-0.6 0,-0.8 m -2,-2 c 0.2,-0.2 0.5,-0.2 0.6,0 0.2,0.2 0.2,0.4 0,0.6 -0.2,0.2 -0.5,0.2 -0.6,0 -0.2,-0.1 -0.2,-0.4 0,-0.6 m -2.1,-2.1 c 0.2,-0.2 0.4,-0.2 0.6,0 0.2,0.2 0.2,0.4 0,0.6 -0.2,0.2 -0.4,0.2 -0.6,0 -0.2,-0.1 -0.2,-0.4 0,-0.6 m -2,-2 c 0.2,-0.2 0.4,-0.2 0.6,0 0.2,0.2 0.2,0.4 0,0.6 -0.2,0.2 -0.4,0.2 -0.6,0 -0.2,-0.2 -0.2,-0.4 0,-0.6 m -2.2,-2.1 c 0.2,-0.2 0.4,-0.2 0.6,0 0.2,0.2 0.2,0.5 0,0.6 -0.2,0.2 -0.4,0.2 -0.6,0 -0.1,-0.2 -0.1,-0.5 0,-0.6 m -2,-2 c 0.2,-0.2 0.4,-0.2 0.6,0 0.2,0.2 0.2,0.5 0,0.6 -0.2,0.2 -0.4,0.2 -0.6,0 -0.1,-0.2 -0.1,-0.5 0,-0.6 m -2.1,-2.2 c 0.2,-0.2 0.4,-0.2 0.6,0 0.2,0.2 0.2,0.4 0,0.6 -0.2,0.2 -0.4,0.2 -0.6,0 -0.2,-0.1 -0.2,-0.4 0,-0.6 m -4.1,-3.5 c -0.2,-0.2 -0.2,-0.4 0,-0.6 0.2,-0.2 0.4,-0.2 0.6,0 0.2,0.2 0.2,0.4 0,0.6 -0.2,0.2 -0.5,0.2 -0.6,0 m 2,1.5 c 0.2,-0.2 0.4,-0.2 0.6,0 0.2,0.2 0.2,0.4 0,0.6 -0.2,0.2 -0.4,0.2 -0.6,0 -0.1,-0.2 -0.1,-0.5 0,-0.6 m 23.9,23.9 c -0.5,0.5 -1.2,0.5 -1.6,0 -0.5,-0.4 -0.5,-1.2 0,-1.6 0.4,-0.4 1.2,-0.4 1.6,0 0.5,0.4 0.5,1.1 0,1.6 M 91.6,214.1 c -0.4,0.4 -1.2,0.4 -1.6,0 -0.5,-0.4 -0.5,-1.2 0,-1.6 0.4,-0.4 1.2,-0.4 1.6,0 0.4,0.4 0.4,1.1 0,1.6 m 33.7,33.7 c 0.4,-0.4 1.1,-0.4 1.5,0 0.4,0.4 0.4,1.1 0,1.5 -0.4,0.4 -1.1,0.4 -1.5,0 -0.4,-0.5 -0.4,-1.1 0,-1.5 M 93.6,216.1 c -0.4,0.4 -1.1,0.4 -1.5,0 -0.4,-0.4 -0.4,-1.1 0,-1.5 0.4,-0.4 1.1,-0.4 1.5,0 0.4,0.4 0.4,1.1 0,1.5 m 2,2 c -0.4,0.4 -1,0.4 -1.3,0 -0.4,-0.4 -0.4,-1 0,-1.3 0.4,-0.4 1,-0.4 1.3,0 0.3,0.3 0.3,0.9 0,1.3 m 27.7,27.7 c 0.4,-0.4 1,-0.4 1.3,0 0.4,0.4 0.4,1 0,1.3 -0.4,0.4 -1,0.4 -1.3,0 -0.4,-0.4 -0.4,-1 0,-1.3 m -2,-2 c 0.3,-0.3 0.8,-0.3 1.1,0 0.3,0.3 0.3,0.8 0,1.1 -0.3,0.3 -0.8,0.3 -1.1,0 -0.3,-0.3 -0.3,-0.8 0,-1.1 M 97.5,220.1 c -0.3,0.3 -0.8,0.3 -1.1,0 -0.3,-0.3 -0.3,-0.8 0,-1.1 0.3,-0.3 0.8,-0.3 1.1,0 0.4,0.3 0.4,0.8 0,1.1 m 2,1.9 c -0.2,0.2 -0.6,0.2 -0.8,0 -0.2,-0.2 -0.2,-0.6 0,-0.8 0.2,-0.2 0.6,-0.2 0.8,0 0.2,0.2 0.2,0.6 0,0.8 m 19.9,19.9 c 0.2,-0.2 0.6,-0.2 0.8,0 0.2,0.2 0.2,0.6 0,0.8 -0.2,0.2 -0.6,0.2 -0.8,0 -0.3,-0.2 -0.3,-0.6 0,-0.8 m -2,-2 c 0.2,-0.2 0.4,-0.2 0.6,0 0.2,0.2 0.2,0.5 0,0.6 -0.2,0.2 -0.5,0.2 -0.6,0 -0.2,-0.1 -0.2,-0.4 0,-0.6 m -2.1,-2.1 c 0.2,-0.2 0.4,-0.2 0.6,0 0.2,0.2 0.2,0.4 0,0.6 -0.2,0.2 -0.4,0.2 -0.6,0 -0.2,-0.1 -0.2,-0.4 0,-0.6 m -2,-2 c 0.2,-0.2 0.4,-0.2 0.6,0 0.2,0.2 0.2,0.4 0,0.6 -0.2,0.2 -0.4,0.2 -0.6,0 -0.2,-0.2 -0.2,-0.4 0,-0.6 m -2.1,-2.1 c 0.2,-0.2 0.4,-0.2 0.6,0 0.2,0.2 0.2,0.4 0,0.6 -0.2,0.2 -0.4,0.2 -0.6,0 -0.2,-0.2 -0.2,-0.5 0,-0.6 m -2.1,-2 c 0.2,-0.2 0.4,-0.2 0.6,0 0.2,0.2 0.2,0.4 0,0.6 -0.2,0.2 -0.4,0.2 -0.6,0 -0.1,-0.2 -0.1,-0.5 0,-0.6 m -2.1,-2.2 c 0.2,-0.2 0.4,-0.2 0.6,0 0.2,0.2 0.2,0.4 0,0.6 -0.2,0.2 -0.4,0.2 -0.6,0 -0.2,-0.1 -0.2,-0.4 0,-0.6 m -4.1,-3.5 c -0.2,-0.2 -0.2,-0.4 0,-0.6 0.2,-0.2 0.4,-0.2 0.6,0 0.2,0.2 0.2,0.4 0,0.6 -0.2,0.2 -0.4,0.2 -0.6,0 m 2.1,1.5 c 0.2,-0.2 0.4,-0.2 0.6,0 0.2,0.2 0.2,0.4 0,0.6 -0.2,0.2 -0.4,0.2 -0.6,0 -0.2,-0.2 -0.2,-0.5 0,-0.6 m 23.8,23.9 c -0.4,0.4 -1.2,0.4 -1.6,0 -0.5,-0.4 -0.5,-1.2 0,-1.6 0.4,-0.5 1.2,-0.5 1.6,0 0.5,0.4 0.5,1.1 0,1.6 M 89.5,216.2 c -0.5,0.4 -1.2,0.4 -1.6,0 -0.5,-0.4 -0.5,-1.2 0,-1.6 0.4,-0.5 1.2,-0.5 1.6,0 0.4,0.4 0.4,1.1 0,1.6 m 37.3,37.2 c -0.5,0.4 -1.2,0.4 -1.6,0 -0.5,-0.5 -0.5,-1.2 0,-1.6 0.4,-0.4 1.2,-0.4 1.6,0 0.4,0.5 0.4,1.2 0,1.6 M 91.5,218.2 c -0.4,0.4 -1.1,0.4 -1.5,0 -0.4,-0.4 -0.4,-1.1 0,-1.5 0.4,-0.4 1.1,-0.4 1.5,0 0.4,0.4 0.4,1.1 0,1.5 m 31.7,31.7 c 0.4,-0.4 1.1,-0.4 1.5,0 0.4,0.4 0.4,1.1 0,1.5 -0.4,0.4 -1.1,0.4 -1.5,0 -0.4,-0.5 -0.4,-1.1 0,-1.5 m -2,-2 c 0.4,-0.4 1,-0.4 1.3,0 0.4,0.4 0.4,0.9 0,1.3 -0.4,0.4 -1,0.4 -1.3,0 -0.4,-0.4 -0.4,-1 0,-1.3 m -2,-2 c 0.3,-0.3 0.8,-0.3 1.1,0 0.3,0.3 0.3,0.8 0,1.1 -0.3,0.3 -0.8,0.3 -1.1,0 -0.3,-0.3 -0.3,-0.8 0,-1.1 m -1.1,-1.9 c 0.2,0.2 0.2,0.6 0,0.8 -0.2,0.2 -0.6,0.2 -0.8,0 -0.2,-0.2 -0.2,-0.6 0,-0.8 0.2,-0.2 0.6,-0.2 0.8,0 m -9,-8.2 c 0.2,-0.2 0.4,-0.2 0.6,0 0.2,0.2 0.2,0.4 0,0.6 -0.2,0.2 -0.4,0.2 -0.6,0 -0.2,-0.2 -0.2,-0.5 0,-0.6 m -7.7,-7.7 c -0.2,0.2 -0.4,0.2 -0.6,0 -0.2,-0.2 -0.2,-0.4 0,-0.6 0.2,-0.2 0.4,-0.2 0.6,0 0.2,0.2 0.2,0.4 0,0.6 m 2.1,2.1 c -0.2,0.2 -0.4,0.2 -0.6,0 -0.2,-0.2 -0.2,-0.4 0,-0.6 0.2,-0.2 0.4,-0.2 0.6,0 0.1,0.1 0.1,0.4 0,0.6 m 4.2,3.6 c 0.2,0.2 0.2,0.4 0,0.6 -0.2,0.2 -0.4,0.2 -0.6,0 -0.2,-0.2 -0.2,-0.5 0,-0.6 0.1,-0.2 0.4,-0.2 0.6,0 m -2.2,-1.6 c -0.2,0.2 -0.4,0.2 -0.6,0 -0.2,-0.2 -0.2,-0.4 0,-0.6 0.2,-0.2 0.5,-0.2 0.6,0 0.2,0.2 0.2,0.5 0,0.6 m -9,-8.9 c 0.2,-0.2 0.6,-0.2 0.8,0 0.2,0.2 0.2,0.6 0,0.8 -0.2,0.2 -0.6,0.2 -0.8,0 -0.2,-0.2 -0.2,-0.6 0,-0.8 m -4.4,-3.1 c -0.4,-0.4 -0.4,-1 0,-1.3 0.4,-0.4 0.9,-0.4 1.3,0 0.4,0.4 0.4,1 0,1.3 -0.3,0.3 -0.9,0.3 -1.3,0 m 2.3,0.8 c 0.3,-0.3 0.8,-0.3 1.1,0 0.3,0.3 0.3,0.8 0,1.1 -0.3,0.3 -0.8,0.3 -1.1,0 -0.4,-0.3 -0.4,-0.7 0,-1.1 m 19.1,23.4 c -1.2,1.2 -3,1.2 -4.2,0 -1.2,-1.2 -1.2,-3 0,-4.2 1.2,-1.2 3,-1.2 4.2,0 1.2,1.2 1.2,3.1 0,4.2 m 7.6,7.6 c 0.4,-0.4 1.1,-0.4 1.4,0 0.4,0.4 0.4,1.1 0,1.5 -0.4,0.4 -1,0.4 -1.4,0 -0.4,-0.5 -0.4,-1.1 0,-1.5 m -2,-2 c 0.4,-0.4 1,-0.4 1.3,0 0.4,0.4 0.4,1 0,1.3 -0.4,0.4 -1,0.4 -1.3,0 -0.4,-0.4 -0.4,-1 0,-1.3 m -3.9,-3.1 c -0.2,-0.2 -0.2,-0.6 0,-0.8 0.2,-0.2 0.6,-0.2 0.8,0 0.2,0.2 0.2,0.6 0,0.8 -0.2,0.2 -0.6,0.2 -0.8,0 m 1.9,1.1 c 0.3,-0.3 0.8,-0.3 1.1,0 0.3,0.3 0.3,0.8 0,1.1 -0.3,0.3 -0.8,0.3 -1.1,0 -0.3,-0.3 -0.3,-0.8 0,-1.1 m 7.6,7.5 c -0.4,0.5 -1.2,0.5 -1.6,0 -0.5,-0.4 -0.5,-1.2 0,-1.6 0.4,-0.4 1.2,-0.4 1.6,0 0.4,0.4 0.4,1.2 0,1.6 m -2.1,2.1 c -0.4,0.4 -1.2,0.4 -1.6,0 -0.4,-0.4 -0.4,-1.2 0,-1.6 0.4,-0.5 1.2,-0.5 1.6,0 0.4,0.5 0.4,1.2 0,1.6 M 87.3,222.4 c -0.4,0.4 -1.1,0.4 -1.5,0 -0.4,-0.4 -0.4,-1.1 0,-1.5 0.4,-0.4 1.1,-0.4 1.5,0 0.4,0.4 0.4,1.1 0,1.5 m 2,1.9 c -0.4,0.4 -1,0.4 -1.3,0 -0.4,-0.4 -0.4,-1 0,-1.3 0.4,-0.4 1,-0.4 1.3,0 0.4,0.4 0.4,1 0,1.3 m 2,2.1 c -0.3,0.3 -0.8,0.3 -1.1,0 -0.3,-0.3 -0.3,-0.8 0,-1.1 0.3,-0.3 0.8,-0.3 1.1,0 0.3,0.3 0.3,0.8 0,1.1 m 1.9,1.9 c -0.2,0.2 -0.6,0.2 -0.8,0 -0.2,-0.2 -0.2,-0.6 0,-0.8 0.2,-0.2 0.6,-0.2 0.8,0 0.2,0.2 0.2,0.6 0,0.8 m 4,4 c -0.2,0.2 -0.5,0.2 -0.6,0 -0.2,-0.2 -0.2,-0.5 0,-0.6 0.2,-0.2 0.4,-0.2 0.6,0 0.2,0.2 0.2,0.4 0,0.6 m 2.1,2.1 c -0.2,0.2 -0.4,0.2 -0.6,0 -0.2,-0.2 -0.2,-0.5 0,-0.6 0.2,-0.2 0.5,-0.2 0.6,0 0.2,0.1 0.2,0.4 0,0.6 m 2,2 c -0.2,0.2 -0.5,0.2 -0.6,0 -0.2,-0.2 -0.2,-0.5 0,-0.6 0.2,-0.2 0.5,-0.2 0.6,0 0.2,0.2 0.2,0.5 0,0.6 m 2.1,2.1 c -0.2,0.2 -0.5,0.2 -0.6,0 -0.2,-0.2 -0.2,-0.4 0,-0.6 0.2,-0.2 0.5,-0.2 0.6,0 0.2,0.2 0.2,0.4 0,0.6 m 2.1,2.1 c -0.2,0.2 -0.5,0.2 -0.6,0 -0.2,-0.2 -0.2,-0.4 0,-0.6 0.2,-0.2 0.5,-0.2 0.6,0 0.2,0.1 0.2,0.4 0,0.6 m 8.4,8.4 c -0.2,0.2 -0.6,0.2 -0.8,0 -0.2,-0.2 -0.2,-0.6 0,-0.8 0.2,-0.2 0.6,-0.2 0.8,0 0.3,0.2 0.3,0.6 0,0.8 m 2.2,2.2 c -0.3,0.3 -0.8,0.3 -1.1,0 -0.3,-0.3 -0.3,-0.8 0,-1.1 0.3,-0.3 0.8,-0.3 1.1,0 0.3,0.3 0.3,0.8 0,1.1 m 4.3,2.9 c 0.4,0.4 0.4,1.1 0,1.5 -0.4,0.4 -1,0.4 -1.4,0 -0.4,-0.4 -0.4,-1.1 0,-1.5 0.4,-0.4 1,-0.4 1.4,0 m -2.1,-0.7 c -0.4,0.4 -1,0.4 -1.3,0 -0.4,-0.4 -0.4,-1 0,-1.3 0.4,-0.4 1,-0.4 1.3,0 0.4,0.3 0.4,0.9 0,1.3 M 83.7,218.7 c 0.4,-0.4 1.2,-0.4 1.6,0 0.5,0.5 0.5,1.2 0,1.6 -0.4,0.4 -1.2,0.4 -1.6,0 -0.5,-0.4 -0.5,-1.1 0,-1.6 m 5.7,1.6 c -0.4,0.4 -1.1,0.4 -1.5,0 -0.4,-0.4 -0.4,-1.1 0,-1.5 0.4,-0.4 1.1,-0.4 1.5,0 0.4,0.4 0.4,1.1 0,1.5 m 2,2 c -0.4,0.4 -1,0.4 -1.3,0 -0.4,-0.4 -0.4,-0.9 0,-1.3 0.4,-0.4 0.9,-0.4 1.3,0 0.4,0.3 0.4,0.9 0,1.3 m 2,1.9 c -0.3,0.3 -0.8,0.3 -1.1,0 -0.3,-0.3 -0.3,-0.8 0,-1.1 0.3,-0.3 0.8,-0.3 1.1,0 0.3,0.3 0.3,0.8 0,1.1 m 1.9,2 c -0.2,0.2 -0.6,0.2 -0.8,0 -0.2,-0.2 -0.2,-0.6 0,-0.8 0.2,-0.2 0.6,-0.2 0.8,0 0.2,0.2 0.2,0.5 0,0.8 m 4,4 c -0.2,0.2 -0.4,0.2 -0.6,0 -0.2,-0.2 -0.2,-0.4 0,-0.6 0.2,-0.2 0.4,-0.2 0.6,0 0.2,0.2 0.2,0.4 0,0.6 m 2.1,2.1 c -0.2,0.2 -0.4,0.2 -0.6,0 -0.2,-0.2 -0.2,-0.4 0,-0.6 0.2,-0.2 0.4,-0.2 0.6,0 0.2,0.1 0.2,0.4 0,0.6 m 2.1,2 c -0.2,0.2 -0.4,0.2 -0.6,0 -0.2,-0.2 -0.2,-0.4 0,-0.6 0.2,-0.2 0.4,-0.2 0.6,0 0.1,0.2 0.1,0.5 0,0.6 m 4.1,3.6 c 0.2,0.2 0.2,0.4 0,0.6 -0.2,0.2 -0.5,0.2 -0.6,0 -0.2,-0.2 -0.2,-0.4 0,-0.6 0.1,-0.2 0.4,-0.2 0.6,0 m -2,-1.4 c -0.2,0.2 -0.4,0.2 -0.6,0 -0.2,-0.2 -0.2,-0.4 0,-0.6 0.2,-0.2 0.4,-0.2 0.6,0 0.1,0.1 0.1,0.4 0,0.6 M 85.8,216.6 c 0.5,-0.5 1.2,-0.5 1.6,0 0.4,0.4 0.4,1.2 0,1.6 -0.4,0.5 -1.2,0.5 -1.6,0 -0.5,-0.4 -0.5,-1.1 0,-1.6 m -2.6,5.8 c -0.5,0.4 -1.2,0.4 -1.6,0 -0.4,-0.5 -0.4,-1.2 0,-1.6 0.5,-0.4 1.2,-0.4 1.6,0 0.5,0.4 0.5,1.2 0,1.6 m 33.7,33.7 c 0.4,-0.4 1.1,-0.4 1.5,0 0.4,0.4 0.4,1.1 0,1.4 -0.4,0.4 -1.1,0.4 -1.5,0 -0.4,-0.3 -0.4,-1 0,-1.4 M 85.2,224.4 c -0.4,0.4 -1.1,0.4 -1.5,0 -0.4,-0.4 -0.4,-1.1 0,-1.5 0.4,-0.4 1.1,-0.4 1.5,0 0.4,0.5 0.4,1.1 0,1.5 m 2,2 c -0.4,0.4 -1,0.4 -1.3,0 -0.4,-0.4 -0.4,-0.9 0,-1.3 0.4,-0.4 1,-0.4 1.3,0 0.4,0.4 0.4,0.9 0,1.3 m 27.7,27.7 c 0.4,-0.4 1,-0.4 1.3,0 0.4,0.4 0.4,1 0,1.3 -0.4,0.4 -1,0.4 -1.3,0 -0.3,-0.3 -0.3,-0.9 0,-1.3 m -1.9,-1.9 c 0.3,-0.3 0.8,-0.3 1.1,0 0.3,0.3 0.3,0.8 0,1.1 -0.3,0.3 -0.8,0.3 -1.1,0 -0.3,-0.3 -0.3,-0.8 0,-1.1 M 89.2,228.4 c -0.3,0.3 -0.8,0.3 -1.1,0 -0.3,-0.3 -0.3,-0.8 0,-1.1 0.3,-0.3 0.8,-0.3 1.1,0 0.3,0.3 0.3,0.8 0,1.1 m 1.9,1.9 c -0.2,0.2 -0.6,0.2 -0.8,0 -0.2,-0.2 -0.2,-0.6 0,-0.8 0.2,-0.2 0.6,-0.2 0.8,0 0.2,0.2 0.2,0.6 0,0.8 m 2.1,2.1 c -0.2,0.2 -0.6,0.2 -0.8,0 -0.2,-0.2 -0.2,-0.6 0,-0.8 0.2,-0.2 0.6,-0.2 0.8,0 0.2,0.2 0.2,0.6 0,0.8 m 2.1,2.1 c -0.2,0.2 -0.6,0.2 -0.8,0 -0.2,-0.2 -0.2,-0.6 0,-0.8 0.2,-0.2 0.6,-0.2 0.8,0 0.2,0.2 0.2,0.5 0,0.8 m 2,2 c -0.2,0.2 -0.6,0.2 -0.8,0 -0.2,-0.2 -0.2,-0.6 0,-0.8 0.2,-0.2 0.6,-0.2 0.8,0 0.3,0.2 0.3,0.6 0,0.8 m 2.1,2.1 c -0.2,0.2 -0.6,0.2 -0.8,0 -0.2,-0.2 -0.2,-0.6 0,-0.8 0.2,-0.2 0.6,-0.2 0.8,0 0.2,0.2 0.2,0.6 0,0.8 m 2.1,2.1 c -0.2,0.2 -0.6,0.2 -0.8,0 -0.2,-0.2 -0.2,-0.6 0,-0.8 0.2,-0.2 0.6,-0.2 0.8,0 0.2,0.2 0.2,0.6 0,0.8 m 2.1,2.1 c -0.2,0.2 -0.6,0.2 -0.8,0 -0.2,-0.2 -0.2,-0.6 0,-0.8 0.2,-0.2 0.6,-0.2 0.8,0 0.2,0.2 0.2,0.5 0,0.8 m 2,2 c -0.2,0.2 -0.6,0.2 -0.8,0 -0.2,-0.2 -0.2,-0.6 0,-0.8 0.2,-0.2 0.6,-0.2 0.8,0 0.3,0.2 0.3,0.6 0,0.8 m 2.1,2.1 c -0.2,0.2 -0.6,0.2 -0.8,0 -0.2,-0.2 -0.2,-0.6 0,-0.8 0.2,-0.2 0.6,-0.2 0.8,0 0.2,0.2 0.2,0.6 0,0.8 m 4.2,3.3 c 0.2,0.2 0.2,0.6 0,0.8 -0.2,0.2 -0.6,0.2 -0.8,0 -0.2,-0.2 -0.2,-0.6 0,-0.8 0.2,-0.2 0.5,-0.2 0.8,0 m -2.1,-1.2 c -0.2,0.2 -0.6,0.2 -0.8,0 -0.2,-0.2 -0.2,-0.6 0,-0.8 0.2,-0.2 0.6,-0.2 0.8,0 0.2,0.2 0.2,0.5 0,0.8 m 10.7,10.7 c -0.4,0.5 -1.2,0.5 -1.6,0 -0.4,-0.4 -0.4,-1.2 0,-1.6 0.4,-0.4 1.2,-0.4 1.6,0 0.4,0.4 0.4,1.2 0,1.6 M 81.1,224.5 c -0.4,0.4 -1.2,0.4 -1.6,0 -0.4,-0.4 -0.4,-1.2 0,-1.6 0.5,-0.4 1.2,-0.4 1.6,0 0.5,0.4 0.5,1.2 0,1.6 m 33.7,33.7 c 0.4,-0.4 1,-0.4 1.4,0 0.4,0.4 0.4,1.1 0,1.5 -0.4,0.4 -1.1,0.4 -1.4,0 -0.4,-0.4 -0.4,-1.1 0,-1.5 M 83.1,226.5 c -0.4,0.4 -1.1,0.4 -1.5,0 -0.4,-0.4 -0.4,-1.1 0,-1.5 0.4,-0.4 1.1,-0.4 1.5,0 0.4,0.5 0.4,1.1 0,1.5 m 2,2 c -0.4,0.4 -1,0.4 -1.3,0 -0.4,-0.4 -0.4,-0.9 0,-1.3 0.4,-0.4 1,-0.4 1.3,0 0.4,0.4 0.4,1 0,1.3 m 27.7,27.7 c 0.4,-0.4 1,-0.4 1.3,0 0.4,0.4 0.4,1 0,1.3 -0.4,0.4 -1,0.4 -1.3,0 -0.4,-0.3 -0.4,-0.9 0,-1.3 m -4,-4 c 0.3,-0.3 0.8,-0.3 1.1,0 0.3,0.3 0.3,0.8 0,1.1 -0.3,0.3 -0.8,0.3 -1.1,0 -0.3,-0.3 -0.3,-0.8 0,-1.1 m -2.1,-2.1 c 0.3,-0.3 0.8,-0.3 1.1,0 0.3,0.3 0.3,0.8 0,1.1 -0.3,0.3 -0.8,0.3 -1.1,0 -0.3,-0.3 -0.3,-0.8 0,-1.1 m -2.1,-2 c 0.3,-0.3 0.8,-0.3 1.1,0 0.3,0.3 0.3,0.8 0,1.1 -0.3,0.3 -0.8,0.3 -1.1,0 -0.3,-0.3 -0.3,-0.8 0,-1.1 m -2,-2.1 c 0.3,-0.3 0.8,-0.3 1.1,0 0.3,0.3 0.3,0.8 0,1.1 -0.3,0.3 -0.8,0.3 -1.1,0 -0.4,-0.3 -0.4,-0.8 0,-1.1 m -2.1,-2.1 c 0.3,-0.3 0.8,-0.3 1.1,0 0.3,0.3 0.3,0.8 0,1.1 -0.3,0.3 -0.8,0.3 -1.1,0 -0.3,-0.3 -0.3,-0.8 0,-1.1 m -2.1,-2 c 0.3,-0.3 0.8,-0.3 1.1,0 0.3,0.3 0.3,0.8 0,1.1 -0.3,0.3 -0.8,0.3 -1.1,0 -0.3,-0.3 -0.3,-0.8 0,-1.1 m -2.1,-2.1 c 0.3,-0.3 0.8,-0.3 1.1,0 0.3,0.3 0.3,0.8 0,1.1 -0.3,0.3 -0.8,0.3 -1.1,0 -0.3,-0.3 -0.3,-0.8 0,-1.1 m -4.1,-4.2 c 0.3,-0.3 0.8,-0.3 1.1,0 0.3,0.3 0.3,0.8 0,1.1 -0.3,0.3 -0.8,0.3 -1.1,0 -0.3,-0.3 -0.3,-0.8 0,-1.1 m -2.1,-2 c 0.3,-0.3 0.8,-0.3 1.1,0 0.3,0.3 0.3,0.8 0,1.1 -0.3,0.3 -0.8,0.3 -1.1,0 -0.3,-0.3 -0.3,-0.8 0,-1.1 m 5.3,4.1 c 0.3,0.3 0.3,0.8 0,1.1 -0.3,0.3 -0.8,0.3 -1.1,0 -0.3,-0.3 -0.3,-0.8 0,-1.1 0.3,-0.3 0.8,-0.3 1.1,0 m -7.3,-6.2 c 0.3,-0.3 0.8,-0.3 1.1,0 0.3,0.3 0.3,0.8 0,1.1 -0.3,0.3 -0.8,0.3 -1.1,0 -0.4,-0.3 -0.4,-0.8 0,-1.1 m 23.9,22.8 c 0.3,0.3 0.3,0.8 0,1.1 -0.3,0.3 -0.8,0.3 -1.1,0 -0.3,-0.3 -0.3,-0.8 0,-1.1 0.3,-0.3 0.8,-0.3 1.1,0 M 87.1,230.5 c -0.3,0.3 -0.8,0.3 -1.1,0 -0.3,-0.3 -0.3,-0.8 0,-1.1 0.3,-0.3 0.8,-0.3 1.1,0 0.3,0.3 0.3,0.8 0,1.1 m 31.3,31.3 c -0.4,0.4 -1.2,0.4 -1.6,0 -0.4,-0.4 -0.4,-1.2 0,-1.6 0.5,-0.4 1.2,-0.4 1.6,0 0.4,0.4 0.4,1.2 0,1.6 M 79,226.7 c -0.4,0.4 -1.2,0.4 -1.6,0 -0.4,-0.4 -0.4,-1.2 0,-1.6 0.4,-0.4 1.2,-0.4 1.6,0 0.4,0.4 0.4,1.1 0,1.6 m 33.7,33.7 c 0.4,-0.4 1,-0.4 1.5,0 0.4,0.4 0.4,1.1 0,1.5 -0.4,0.4 -1.1,0.4 -1.5,0 -0.4,-0.5 -0.4,-1.1 0,-1.5 M 81,228.7 c -0.4,0.4 -1.1,0.4 -1.5,0 -0.4,-0.4 -0.4,-1.1 0,-1.5 0.4,-0.4 1.1,-0.4 1.5,0 0.4,0.4 0.4,1.1 0,1.5 m 2,2 c -0.4,0.4 -1,0.4 -1.3,0 -0.4,-0.4 -0.4,-1 0,-1.3 0.4,-0.4 1,-0.4 1.3,0 0.3,0.3 0.3,0.9 0,1.3 m 2,2.1 c -0.4,0.4 -1,0.4 -1.3,0 -0.4,-0.4 -0.4,-1 0,-1.3 0.4,-0.4 1,-0.4 1.3,0 0.4,0.3 0.4,0.9 0,1.3 m 2.1,2 c -0.4,0.4 -0.9,0.4 -1.3,0 -0.4,-0.4 -0.4,-1 0,-1.3 0.4,-0.4 1,-0.4 1.3,0 0.4,0.4 0.4,1 0,1.3 m 2.1,2.1 c -0.4,0.4 -0.9,0.4 -1.3,0 -0.4,-0.4 -0.4,-0.9 0,-1.3 0.4,-0.4 1,-0.4 1.3,0 0.3,0.3 0.3,0.9 0,1.3 m 2,2.1 c -0.4,0.4 -1,0.4 -1.3,0 -0.4,-0.4 -0.4,-1 0,-1.3 0.4,-0.4 0.9,-0.4 1.3,0 0.4,0.3 0.4,0.9 0,1.3 m 2.1,2.1 c -0.4,0.4 -1,0.4 -1.3,0 -0.4,-0.4 -0.4,-1 0,-1.3 0.4,-0.4 1,-0.4 1.3,0 0.4,0.3 0.4,0.9 0,1.3 m 2.1,2 c -0.4,0.4 -1,0.4 -1.3,0 -0.4,-0.4 -0.4,-1 0,-1.3 0.4,-0.4 0.9,-0.4 1.3,0 0.4,0.4 0.4,1 0,1.3 m 2.1,2.1 c -0.4,0.4 -1,0.4 -1.3,0 -0.4,-0.4 -0.4,-1 0,-1.3 0.4,-0.4 1,-0.4 1.3,0 0.4,0.4 0.4,1 0,1.3 m 2.1,2.1 c -0.4,0.4 -0.9,0.4 -1.3,0 -0.4,-0.4 -0.4,-1 0,-1.3 0.4,-0.4 0.9,-0.4 1.3,0 0.3,0.3 0.3,0.9 0,1.3 m 2,2 c -0.4,0.4 -1,0.4 -1.3,0 -0.4,-0.4 -0.4,-1 0,-1.3 0.4,-0.4 1,-0.4 1.3,0 0.4,0.4 0.4,1 0,1.3 m 2.1,2.1 c -0.4,0.4 -1,0.4 -1.3,0 -0.4,-0.4 -0.4,-1 0,-1.3 0.4,-0.4 1,-0.4 1.3,0 0.4,0.4 0.4,1 0,1.3 m 2.1,2.1 c -0.4,0.4 -1,0.4 -1.3,0 -0.4,-0.4 -0.4,-1 0,-1.3 0.4,-0.4 1,-0.4 1.3,0 0.3,0.3 0.3,0.9 0,1.3 m 2,2.1 c -0.4,0.4 -1,0.4 -1.3,0 -0.4,-0.4 -0.4,-1 0,-1.3 0.4,-0.4 1,-0.4 1.3,0 0.4,0.3 0.4,0.9 0,1.3 m 4.2,2.8 c 0.4,0.4 0.4,1 0,1.3 -0.4,0.4 -1,0.4 -1.3,0 -0.4,-0.4 -0.4,-1 0,-1.3 0.3,-0.4 0.9,-0.4 1.3,0 m -2.1,-0.8 c -0.4,0.4 -1,0.4 -1.3,0 -0.4,-0.4 -0.4,-1 0,-1.3 0.4,-0.4 1,-0.4 1.3,0 0.4,0.4 0.4,1 0,1.3 m 6.4,6.4 c -0.4,0.4 -1.2,0.4 -1.6,0 -0.4,-0.5 -0.4,-1.2 0,-1.6 0.5,-0.4 1.2,-0.4 1.6,0 0.4,0.4 0.4,1.1 0,1.6 M 76.9,228.7 c -0.4,0.5 -1.2,0.5 -1.6,0 -0.5,-0.4 -0.5,-1.2 0,-1.6 0.5,-0.4 1.2,-0.4 1.6,0 0.5,0.4 0.5,1.2 0,1.6 m 33.7,33.8 c 0.4,-0.4 1.1,-0.4 1.5,0 0.4,0.4 0.4,1.1 0,1.5 -0.4,0.4 -1.1,0.4 -1.5,0 -0.4,-0.5 -0.4,-1.1 0,-1.5 m -2,-2.1 c 0.4,-0.4 1.1,-0.4 1.4,0 0.4,0.4 0.4,1.1 0,1.5 -0.4,0.4 -1,0.4 -1.4,0 -0.4,-0.5 -0.4,-1.1 0,-1.5 M 87.1,239 c -0.4,0.4 -1,0.4 -1.3,0 -0.4,-0.4 -0.4,-0.9 0,-1.3 0.4,-0.4 1,-0.4 1.3,0 0.4,0.3 0.4,0.9 0,1.3 m 2.1,2 c -0.4,0.4 -1,0.4 -1.3,0 -0.4,-0.4 -0.4,-1 0,-1.3 0.4,-0.4 0.9,-0.4 1.3,0 0.4,0.4 0.4,1 0,1.3 m 2.1,2.1 c -0.4,0.4 -1,0.4 -1.3,0 -0.4,-0.4 -0.4,-1 0,-1.3 0.4,-0.4 1,-0.4 1.3,0 0.4,0.4 0.4,0.9 0,1.3 m 2.1,2.1 c -0.4,0.4 -1,0.4 -1.3,0 -0.4,-0.4 -0.4,-1 0,-1.3 0.4,-0.4 1,-0.4 1.3,0 0.3,0.3 0.3,0.9 0,1.3 m 4.1,4.1 c -0.4,0.4 -1,0.4 -1.3,0 -0.4,-0.4 -0.4,-1 0,-1.3 0.4,-0.4 1,-0.4 1.3,0 0.4,0.4 0.4,1 0,1.3 m 2.1,2.1 c -0.4,0.4 -1,0.4 -1.3,0 -0.4,-0.4 -0.4,-1 0,-1.3 0.4,-0.4 1,-0.4 1.3,0 0.4,0.4 0.4,0.9 0,1.3 m 2.1,2.1 c -0.4,0.4 -1,0.4 -1.3,0 -0.4,-0.4 -0.4,-0.9 0,-1.3 0.4,-0.4 1,-0.4 1.3,0 0.3,0.3 0.3,0.9 0,1.3 m 2,2 c -0.4,0.4 -0.9,0.4 -1.3,0 -0.4,-0.4 -0.4,-1 0,-1.3 0.4,-0.4 1,-0.4 1.3,0 0.4,0.4 0.4,1 0,1.3 m -9.6,-8.3 c -0.4,-0.4 -0.4,-1 0,-1.3 0.4,-0.4 1,-0.4 1.3,0 0.4,0.4 0.4,1 0,1.3 -0.3,0.4 -0.9,0.4 -1.3,0 m 13.8,11.2 c 0.4,0.4 0.4,1 0,1.3 -0.4,0.4 -1,0.4 -1.3,0 -0.4,-0.4 -0.4,-0.9 0,-1.3 0.3,-0.4 0.9,-0.4 1.3,0 m -2.1,-0.8 c -0.4,0.4 -1,0.4 -1.3,0 -0.4,-0.4 -0.4,-1 0,-1.3 0.4,-0.4 1,-0.4 1.3,0 0.4,0.4 0.4,0.9 0,1.3 M 83.7,235.5 c 0.4,-0.4 1.1,-0.4 1.5,0 0.4,0.4 0.4,1.1 0,1.5 -0.4,0.4 -1.1,0.4 -1.5,0 -0.4,-0.4 -0.4,-1.1 0,-1.5 m -2.1,-2 c 0.4,-0.4 1.1,-0.4 1.5,0 0.4,0.4 0.4,1.1 0,1.5 -0.4,0.4 -1.1,0.4 -1.5,0 -0.4,-0.5 -0.4,-1.1 0,-1.5 m -4.1,-2.7 c -0.4,-0.4 -0.4,-1 0,-1.5 0.4,-0.4 1,-0.4 1.5,0 0.4,0.4 0.4,1.1 0,1.5 -0.5,0.4 -1.1,0.4 -1.5,0 m 2,0.6 c 0.4,-0.4 1.1,-0.4 1.5,0 0.4,0.4 0.4,1.1 0,1.5 -0.4,0.4 -1,0.4 -1.5,0 -0.4,-0.5 -0.4,-1.1 0,-1.5 m 34.7,34.6 c -0.5,0.5 -1.2,0.5 -1.6,0 -0.4,-0.4 -0.4,-1.2 0,-1.6 0.5,-0.4 1.2,-0.4 1.6,0 0.5,0.4 0.5,1.2 0,1.6 M 74.8,230.8 c -0.4,0.5 -1.2,0.5 -1.6,0 -0.4,-0.4 -0.4,-1.2 0,-1.6 0.4,-0.4 1.2,-0.4 1.6,0 0.5,0.5 0.5,1.2 0,1.6 m 2.1,2.1 c -0.4,0.4 -1.2,0.4 -1.6,0 -0.4,-0.4 -0.4,-1.2 0,-1.6 0.4,-0.5 1.2,-0.5 1.6,0 0.5,0.5 0.5,1.2 0,1.6 M 79,235 c -0.4,0.4 -1.2,0.4 -1.6,0 -0.5,-0.5 -0.5,-1.2 0,-1.6 0.4,-0.4 1.2,-0.4 1.6,0 0.4,0.4 0.4,1.2 0,1.6 m 2.1,2.1 c -0.5,0.5 -1.2,0.5 -1.6,0 -0.4,-0.4 -0.4,-1.2 0,-1.6 0.5,-0.4 1.2,-0.4 1.6,0 0.4,0.4 0.4,1.1 0,1.6 m 2,2 c -0.4,0.4 -1.2,0.4 -1.6,0 -0.4,-0.5 -0.4,-1.2 0,-1.6 0.4,-0.5 1.2,-0.5 1.6,0 0.5,0.5 0.5,1.2 0,1.6 m 2.1,2.1 c -0.4,0.5 -1.2,0.5 -1.6,0 -0.4,-0.4 -0.4,-1.2 0,-1.6 0.4,-0.4 1.2,-0.4 1.6,0 0.4,0.4 0.4,1.2 0,1.6 m 2.1,2.1 c -0.4,0.4 -1.2,0.4 -1.6,0 -0.4,-0.5 -0.4,-1.2 0,-1.6 0.5,-0.4 1.2,-0.4 1.6,0 0.4,0.4 0.4,1.1 0,1.6 m 2.1,2.1 c -0.4,0.4 -1.2,0.4 -1.6,0 -0.5,-0.5 -0.5,-1.2 0,-1.6 0.4,-0.5 1.2,-0.5 1.6,0 0.4,0.4 0.4,1.1 0,1.6 m 2,2 c -0.5,0.4 -1.2,0.4 -1.6,0 -0.4,-0.4 -0.4,-1.2 0,-1.6 0.5,-0.4 1.2,-0.4 1.6,0 0.5,0.5 0.5,1.2 0,1.6 m 2.1,2.1 c -0.4,0.4 -1.2,0.4 -1.6,0 -0.4,-0.4 -0.4,-1.2 0,-1.6 0.4,-0.5 1.2,-0.5 1.6,0 0.4,0.4 0.4,1.2 0,1.6 m 2.1,2.1 c -0.5,0.5 -1.2,0.5 -1.6,0 -0.5,-0.4 -0.5,-1.2 0,-1.6 0.4,-0.4 1.2,-0.4 1.6,0 0.4,0.4 0.4,1.1 0,1.6 m 2,2.1 c -0.5,0.5 -1.2,0.5 -1.6,0 -0.4,-0.4 -0.4,-1.2 0,-1.6 0.4,-0.5 1.2,-0.5 1.6,0 0.5,0.4 0.5,1.1 0,1.6 m 2.1,2 c -0.5,0.4 -1.2,0.4 -1.6,0 -0.4,-0.5 -0.4,-1.2 0,-1.6 0.4,-0.5 1.2,-0.5 1.6,0 0.5,0.4 0.5,1.2 0,1.6 m 2.1,2.1 c -0.4,0.4 -1.2,0.4 -1.6,0 -0.4,-0.5 -0.4,-1.2 0,-1.6 0.4,-0.4 1.2,-0.4 1.6,0 0.4,0.4 0.4,1.1 0,1.6 m 2,2.1 c -0.4,0.4 -1.2,0.4 -1.6,0 -0.4,-0.5 -0.4,-1.2 0,-1.6 0.4,-0.4 1.2,-0.4 1.6,0 0.5,0.4 0.5,1.1 0,1.6 m 2.1,2 c -0.5,0.5 -1.2,0.5 -1.6,0 -0.4,-0.4 -0.4,-1.2 0,-1.6 0.4,-0.4 1.2,-0.4 1.6,0 0.5,0.5 0.5,1.2 0,1.6 m 2.1,2.1 c -0.5,0.4 -1.2,0.4 -1.6,0 -0.5,-0.5 -0.5,-1.2 0,-1.6 0.4,-0.5 1.2,-0.5 1.6,0 0.4,0.4 0.4,1.1 0,1.6 m 2.1,2.1 c -0.4,0.4 -1.2,0.4 -1.6,0 -0.4,-0.5 -0.4,-1.2 0,-1.6 0.4,-0.4 1.2,-0.4 1.6,0 0.4,0.4 0.4,1.1 0,1.6 m 2,2 c -0.4,0.5 -1.2,0.5 -1.6,0 -0.4,-0.4 -0.4,-1.2 0,-1.6 0.4,-0.4 1.2,-0.4 1.6,0 0.5,0.5 0.5,1.2 0,1.6 m -37.2,-33 c -0.5,0.5 -1.3,0.5 -1.8,0 -0.5,-0.5 -0.5,-1.3 0,-1.8 0.5,-0.5 1.3,-0.5 1.8,0 0.5,0.5 0.5,1.3 0,1.8 m 2.1,2.1 c -0.5,0.5 -1.3,0.5 -1.8,0 -0.5,-0.5 -0.5,-1.3 0,-1.8 0.5,-0.5 1.3,-0.5 1.8,0 0.5,0.5 0.5,1.3 0,1.8 m 2.1,2 c -0.5,0.5 -1.3,0.5 -1.8,0 -0.5,-0.5 -0.5,-1.3 0,-1.8 0.5,-0.5 1.3,-0.5 1.8,0 0.5,0.5 0.5,1.3 0,1.8 m 2,2.1 c -0.5,0.5 -1.3,0.5 -1.8,0 -0.5,-0.5 -0.5,-1.3 0,-1.8 0.5,-0.5 1.3,-0.5 1.8,0 0.5,0.5 0.5,1.3 0,1.8 m 2.1,2.1 c -0.5,0.5 -1.3,0.5 -1.8,0 -0.5,-0.5 -0.5,-1.3 0,-1.8 0.5,-0.5 1.3,-0.5 1.8,0 0.5,0.5 0.5,1.3 0,1.8 m 2.1,2 c -0.5,0.5 -1.3,0.5 -1.8,0 -0.5,-0.5 -0.5,-1.3 0,-1.8 0.5,-0.5 1.3,-0.5 1.8,0 0.5,0.5 0.5,1.3 0,1.8 m 2.1,2.1 c -0.5,0.5 -1.3,0.5 -1.8,0 -0.5,-0.5 -0.5,-1.3 0,-1.8 0.5,-0.5 1.3,-0.5 1.8,0 0.4,0.5 0.4,1.3 0,1.8 m 2,2.1 c -0.5,0.5 -1.3,0.5 -1.8,0 -0.5,-0.5 -0.5,-1.3 0,-1.8 0.5,-0.5 1.3,-0.5 1.8,0 0.5,0.5 0.5,1.3 0,1.8 m 2.1,2.1 c -0.5,0.5 -1.3,0.5 -1.8,0 -0.5,-0.5 -0.5,-1.3 0,-1.8 0.5,-0.5 1.3,-0.5 1.8,0 0.5,0.5 0.5,1.3 0,1.8 m 2.1,2 c -0.5,0.5 -1.3,0.5 -1.8,0 -0.5,-0.5 -0.5,-1.3 0,-1.8 0.5,-0.5 1.3,-0.5 1.8,0 0.5,0.5 0.5,1.3 0,1.8 m 2,2.1 c -0.5,0.5 -1.3,0.5 -1.8,0 -0.5,-0.5 -0.5,-1.3 0,-1.8 0.5,-0.5 1.3,-0.5 1.8,0 0.5,0.5 0.5,1.3 0,1.8 m 2.1,2.1 c -0.5,0.5 -1.3,0.5 -1.8,0 -0.5,-0.5 -0.5,-1.3 0,-1.8 0.5,-0.5 1.3,-0.5 1.8,0 0.5,0.5 0.5,1.3 0,1.8 m 2.1,2.1 c -0.5,0.5 -1.3,0.5 -1.8,0 -0.5,-0.5 -0.5,-1.3 0,-1.8 0.5,-0.5 1.3,-0.5 1.8,0 0.5,0.4 0.5,1.2 0,1.8 m 2.1,2 c -0.5,0.5 -1.3,0.5 -1.8,0 -0.5,-0.5 -0.5,-1.3 0,-1.8 0.5,-0.5 1.3,-0.5 1.8,0 0.4,0.5 0.4,1.3 0,1.8 m 2,2.1 c -0.5,0.5 -1.3,0.5 -1.8,0 -0.5,-0.5 -0.5,-1.3 0,-1.8 0.5,-0.5 1.3,-0.5 1.8,0 0.5,0.5 0.5,1.3 0,1.8 m 2.1,2.1 c -0.5,0.5 -1.3,0.5 -1.8,0 -0.5,-0.5 -0.5,-1.3 0,-1.8 0.5,-0.5 1.3,-0.5 1.8,0 0.5,0.5 0.5,1.3 0,1.8 m 2.1,2 c -0.5,0.5 -1.3,0.5 -1.8,0 -0.5,-0.5 -0.5,-1.3 0,-1.8 0.5,-0.5 1.3,-0.5 1.8,0 0.5,0.5 0.5,1.3 0,1.8 m 2,2.1 c -0.5,0.5 -1.3,0.5 -1.8,0 -0.5,-0.5 -0.5,-1.3 0,-1.8 0.5,-0.5 1.3,-0.5 1.8,0 0.5,0.5 0.5,1.3 0,1.8 m 43.6,-39.5 c -0.5,0.2 -1.1,0.1 -1.5,-0.2 -0.5,-0.5 -0.5,-1.3 0,-1.8 0.4,-0.4 1,-0.5 1.5,-0.2 -0.2,-0.3 -0.3,-0.8 -0.3,-1.2 l -0.1,-0.1 c -0.4,0 -0.8,-0.1 -1.2,-0.3 0.2,0.5 0.2,1.1 -0.2,1.5 -0.5,0.5 -1.3,0.5 -1.8,0 -0.5,-0.5 -0.5,-1.3 0,-1.8 0.4,-0.4 1,-0.5 1.5,-0.2 -0.2,-0.4 -0.3,-0.8 -0.3,-1.2 l -0.1,-0.1 c -0.4,0 -0.8,-0.1 -1.2,-0.3 0.2,0.5 0.2,1.1 -0.2,1.5 -0.5,0.5 -1.3,0.5 -1.8,0 -0.5,-0.5 -0.5,-1.3 0,-1.8 0.4,-0.4 1,-0.5 1.5,-0.2 -0.2,-0.3 -0.3,-0.8 -0.3,-1.2 l -0.1,-0.1 c -0.4,0 -0.8,-0.1 -1.2,-0.3 0.2,0.5 0.2,1.1 -0.2,1.5 -0.5,0.5 -1.3,0.5 -1.8,0 -0.5,-0.5 -0.5,-1.3 0,-1.8 0.4,-0.4 1,-0.5 1.5,-0.2 -0.2,-0.4 -0.3,-0.8 -0.3,-1.2 L 147,221 c -0.4,0 -0.8,-0.1 -1.2,-0.3 0.2,0.5 0.2,1.1 -0.2,1.5 -0.5,0.5 -1.3,0.5 -1.8,0 -0.5,-0.5 -0.5,-1.3 0,-1.8 0.4,-0.4 1,-0.5 1.5,-0.2 -0.2,-0.3 -0.3,-0.8 -0.3,-1.2 l -0.1,-0.1 c -0.4,0 -0.8,-0.1 -1.2,-0.3 0.2,0.5 0.2,1.1 -0.2,1.5 -0.5,0.5 -1.3,0.5 -1.8,0 -0.5,-0.5 -0.5,-1.3 0,-1.8 0.4,-0.4 1,-0.5 1.5,-0.2 -0.2,-0.4 -0.3,-0.8 -0.3,-1.2 l -0.1,-0.1 c -0.4,0 -0.8,0 -1.2,-0.3 0.3,0.5 0.2,1.1 -0.2,1.5 -0.5,0.5 -1.3,0.5 -1.8,0 -0.5,-0.5 -0.5,-1.3 0,-1.8 0.4,-0.4 1,-0.5 1.5,-0.2 -0.2,-0.3 -0.3,-0.8 -0.3,-1.2 l -0.1,-0.1 c -0.4,0 -0.8,-0.1 -1.2,-0.3 0.2,0.5 0.2,1.1 -0.2,1.5 -0.5,0.5 -1.3,0.5 -1.8,0 -0.5,-0.5 -0.5,-1.3 0,-1.8 0.4,-0.4 1,-0.5 1.5,-0.2 -0.2,-0.4 -0.3,-0.8 -0.3,-1.2 l -0.1,-0.1 c -0.4,0 -0.8,-0.1 -1.2,-0.3 0.2,0.5 0.2,1.1 -0.2,1.5 -0.5,0.5 -1.3,0.5 -1.8,0 -0.5,-0.5 -0.5,-1.3 0,-1.8 0.4,-0.4 1,-0.5 1.5,-0.2 -0.2,-0.4 -0.3,-0.8 -0.3,-1.2 l -0.1,-0.1 c -0.4,0 -0.8,-0.1 -1.2,-0.3 0.2,0.5 0.2,1.1 -0.2,1.5 -0.5,0.5 -1.3,0.5 -1.8,0 -0.5,-0.5 -0.5,-1.3 0,-1.8 0.4,-0.4 1,-0.5 1.5,-0.2 -0.2,-0.3 -0.3,-0.8 -0.3,-1.1 l -0.1,-0.1 c -0.4,0 -0.8,0 -1.1,-0.3 0.2,0.5 0.2,1.1 -0.2,1.5 -0.5,0.5 -1.3,0.5 -1.8,0 -0.5,-0.5 -0.5,-1.3 0,-1.8 0.4,-0.4 1,-0.5 1.5,-0.2 -0.2,-0.4 -0.3,-0.8 -0.3,-1.2 l -0.1,-0.1 c -0.4,0 -0.8,-0.1 -1.2,-0.3 0.2,0.5 0.2,1.1 -0.2,1.5 -0.5,0.5 -1.3,0.5 -1.8,0 -0.5,-0.5 -0.5,-1.3 0,-1.8 0.4,-0.4 1,-0.5 1.5,-0.2 -0.2,-0.4 -0.3,-0.8 -0.3,-1.2 l -0.1,-0.1 c -0.4,0 -0.8,-0.1 -1.2,-0.3 0.2,0.5 0.2,1.1 -0.2,1.5 -0.5,0.5 -1.3,0.5 -1.8,0 -0.5,-0.5 -0.5,-1.3 0,-1.8 0.4,-0.4 1,-0.5 1.5,-0.2 -0.2,-0.4 -0.3,-0.8 -0.3,-1.2 l -0.1,-0.1 c -0.4,0 -0.8,-0.1 -1.2,-0.3 0.2,0.5 0.2,1.1 -0.2,1.5 -0.5,0.5 -1.3,0.5 -1.8,0 -0.5,-0.5 -0.5,-1.3 0,-1.8 0.4,-0.4 1,-0.5 1.5,-0.2 -0.2,-0.3 -0.3,-0.8 -0.3,-1.2 l -0.1,-0.1 c -0.4,0 -0.8,-0.1 -1.2,-0.3 0.2,0.5 0.2,1.1 -0.2,1.5 -0.5,0.5 -1.3,0.5 -1.8,0 -0.5,-0.5 -0.5,-1.3 0,-1.8 0.4,-0.4 1,-0.5 1.5,-0.2 -0.2,-0.3 -0.3,-0.8 -0.3,-1.2 L 124,198 c -0.4,0 -0.8,-0.1 -1.2,-0.3 0.3,0.5 0.2,1.1 -0.2,1.5 -0.5,0.5 -1.3,0.5 -1.8,0 -0.5,-0.5 -0.5,-1.3 0,-1.8 0.4,-0.4 1,-0.5 1.5,-0.2 -0.2,-0.3 -0.3,-0.8 -0.3,-1.2 v -0.1 c -0.4,0 -0.8,-0.1 -1.2,-0.3 0.2,0.5 0.2,1.1 -0.2,1.5 -0.5,0.5 -1.3,0.5 -1.8,0 -0.5,-0.5 -0.5,-1.3 0,-1.8 0.4,-0.4 1,-0.5 1.5,-0.2 -0.2,-0.3 -0.3,-0.7 -0.3,-1.1 l -0.1,-0.1 c -0.4,0 -0.8,-0.1 -1.2,-0.3 0.2,0.5 0.2,1.1 -0.2,1.5 -0.5,0.5 -1.3,0.5 -1.8,0 -0.5,-0.5 -0.5,-1.3 0,-1.8 0.4,-0.4 1,-0.5 1.5,-0.2 -0.2,-0.3 -0.3,-0.8 -0.3,-1.2 l -0.1,-0.1 c -0.4,0 -0.8,-0.1 -1.2,-0.3 0.2,0.5 0.2,1.1 -0.2,1.5 -0.5,0.5 -1.3,0.5 -1.8,0 -0.5,-0.5 -0.5,-1.3 0,-1.8 0.4,-0.4 1,-0.5 1.5,-0.2 -0.2,-0.4 -0.3,-0.8 -0.3,-1.2 l -0.1,-0.1 c -0.4,0 -0.8,0 -1.2,-0.2 0.2,0.5 0.1,1.1 -0.2,1.4 -0.5,0.5 -1.3,0.5 -1.8,0 -0.5,-0.5 -0.5,-1.3 0,-1.8 0.4,-0.4 1,-0.5 1.4,-0.2 -0.2,-0.4 -0.3,-0.8 -0.3,-1.2 l -0.1,-0.1 c -0.4,0 -0.8,0 -1.2,-0.3 0.2,0.5 0.2,1.1 -0.2,1.5 -0.5,0.5 -1.3,0.5 -1.8,0 -0.4,-0.4 -0.5,-1.1 -0.1,-1.6 -0.4,0.3 -0.8,0.4 -1.2,0.4 l -0.2,0.2 c 0,0.4 -0.1,0.9 -0.4,1.2 0.5,-0.3 1.2,-0.3 1.6,0.1 0.5,0.5 0.5,1.3 0,1.8 -0.5,0.5 -1.3,0.5 -1.8,0 -0.4,-0.4 -0.5,-1.1 -0.2,-1.6 -0.4,0.3 -0.8,0.4 -1.2,0.4 l -0.1,0.1 c 0,0.4 -0.1,0.9 -0.4,1.2 0.5,-0.3 1.2,-0.3 1.6,0.1 0.5,0.5 0.5,1.3 0,1.8 -0.5,0.5 -1.3,0.5 -1.8,0 -0.4,-0.4 -0.5,-1.1 -0.1,-1.6 -0.4,0.3 -0.8,0.4 -1.2,0.4 l -0.2,0.2 c 0,0.4 -0.1,0.9 -0.4,1.2 0.5,-0.4 1.2,-0.3 1.6,0.1 0.5,0.5 0.5,1.3 0,1.8 -0.5,0.5 -1.3,0.5 -1.8,0 -0.4,-0.4 -0.5,-1.1 -0.2,-1.6 -0.4,0.3 -0.8,0.4 -1.3,0.4 l -0.1,0.1 c 0,0.4 -0.1,0.9 -0.4,1.2 0.5,-0.4 1.2,-0.3 1.6,0.1 0.5,0.5 0.5,1.3 0,1.8 -0.5,0.5 -1.3,0.5 -1.8,0 -0.4,-0.4 -0.5,-1.1 -0.2,-1.6 -0.4,0.3 -0.8,0.4 -1.3,0.4 l -0.1,0.1 c 0,0.4 -0.1,0.9 -0.4,1.3 0.5,-0.3 1.2,-0.3 1.6,0.2 0.5,0.5 0.5,1.3 0,1.8 -0.5,0.5 -1.3,0.5 -1.8,0 -0.4,-0.4 -0.5,-1.1 -0.1,-1.6 -0.4,0.3 -0.8,0.4 -1.2,0.4 l -0.2,0.2 c 0,0.4 -0.1,0.9 -0.4,1.2 0.5,-0.3 1.2,-0.3 1.6,0.1 0.5,0.5 0.5,1.3 0,1.8 -0.5,0.5 -1.3,0.5 -1.8,0 -0.4,-0.4 -0.5,-1.1 -0.2,-1.6 -0.4,0.3 -0.8,0.4 -1.2,0.4 l -0.1,0.1 c 0,0.4 -0.1,0.9 -0.4,1.3 0.5,-0.3 1.2,-0.3 1.6,0.2 0.5,0.5 0.5,1.3 0,1.8 -0.5,0.5 -1.3,0.5 -1.8,0 -0.4,-0.4 -0.5,-1.1 -0.1,-1.6 -0.4,0.3 -0.8,0.4 -1.2,0.4 l -0.2,0.2 c 0,0.4 -0.1,0.9 -0.4,1.2 0.5,-0.3 1.2,-0.3 1.6,0.1 0.5,0.5 0.5,1.3 0,1.8 -0.5,0.5 -1.3,0.5 -1.8,0 -0.4,-0.4 -0.5,-1.1 -0.1,-1.6 -0.4,0.3 -0.8,0.4 -1.2,0.4 l -0.1,0.1 c 0,0.4 -0.1,0.9 -0.4,1.3 0.5,-0.3 1.2,-0.3 1.6,0.1 0.5,0.5 0.5,1.3 0,1.8 -0.5,0.5 -1.3,0.5 -1.8,0 -0.4,-0.4 -0.5,-1.1 -0.1,-1.6 -0.4,0.3 -0.8,0.4 -1.2,0.4 l -0.2,0.2 c 0,0.4 -0.1,0.9 -0.4,1.2 0.5,-0.3 1.2,-0.3 1.6,0.1 0.5,0.5 0.5,1.3 0,1.8 -0.5,0.5 -1.3,0.5 -1.8,0 -0.4,-0.4 -0.5,-1.1 -0.1,-1.6 -0.4,0.3 -0.8,0.4 -1.2,0.4 l -0.2,0.2 c 0,0.4 -0.1,0.9 -0.4,1.2 0.5,-0.3 1.2,-0.3 1.6,0.1 0.5,0.5 0.5,1.3 0,1.8 -0.5,0.5 -1.3,0.5 -1.8,0 -0.4,-0.4 -0.5,-1.1 -0.1,-1.6 -0.4,0.3 -0.8,0.4 -1.2,0.4 l -0.1,0.1 c 0,0.4 -0.1,0.9 -0.4,1.2 0.5,-0.3 1.2,-0.3 1.6,0.1 0.5,0.5 0.5,1.3 0,1.8 -0.5,0.5 -1.3,0.5 -1.8,0 -0.4,-0.4 -0.5,-1.1 -0.1,-1.6 -0.4,0.3 -0.8,0.4 -1.2,0.4 l -0.1,0.1 c 0,0.4 -0.1,0.9 -0.4,1.3 0.5,-0.3 1.2,-0.3 1.6,0.2 0.5,0.5 0.5,1.3 0,1.8 -0.5,0.5 -1.3,0.5 -1.8,0 -0.4,-0.4 -0.5,-1.1 -0.1,-1.6 -0.4,0.3 -0.8,0.4 -1.2,0.4 l -0.2,0.2 c 0,0.4 -0.1,0.9 -0.4,1.2 0.5,-0.3 1.2,-0.3 1.6,0.1 0.5,0.5 0.5,1.3 0,1.8 -0.5,0.5 -1.3,0.5 -1.8,0 -0.4,-0.4 -0.5,-1.1 -0.1,-1.6 -0.4,0.3 -0.8,0.4 -1.2,0.4 l -0.1,0.1 c 0,0.4 -0.1,0.9 -0.4,1.3 0.5,-0.3 1.2,-0.3 1.6,0.1 0.5,0.5 0.5,1.3 0,1.8 -0.5,0.5 -1.3,0.5 -1.8,0 -0.4,-0.4 -0.5,-1.1 -0.1,-1.6 -0.4,0.3 -0.8,0.4 -1.2,0.4 l -0.2,0.2 c 0,0.4 -0.1,0.9 -0.4,1.2 0.5,-0.3 1.2,-0.3 1.6,0.2 0.5,0.5 0.5,1.3 0,1.8 -0.5,0.5 -1.3,0.5 -1.8,0 -0.4,-0.4 -0.5,-1.1 -0.1,-1.6 -0.4,0.3 -0.8,0.4 -1.2,0.4 l -0.2,0.2 c 0,0.4 -0.1,0.9 -0.4,1.2 0.5,-0.4 1.2,-0.3 1.6,0.1 0.5,0.5 0.5,1.3 0,1.8 -0.5,0.5 -1.3,0.5 -1.8,0 -0.4,-0.4 -0.5,-1.1 -0.2,-1.6 -0.4,0.3 -0.8,0.4 -1.3,0.4 l -0.1,0.1 c 0,0.4 -0.1,0.9 -0.4,1.2 0.5,-0.3 1.2,-0.3 1.6,0.1 0.5,0.5 0.5,1.3 0,1.8 -0.5,0.5 -1.3,0.5 -1.8,0 -0.4,-0.4 -0.5,-1.1 -0.1,-1.6 -0.4,0.3 -0.8,0.4 -1.2,0.4 l -0.2,0.2 c 0,0.4 -0.1,0.9 -0.4,1.2 0.5,-0.3 1.2,-0.3 1.6,0.1 0.5,0.5 0.5,1.3 0,1.8 -0.5,0.5 -1.3,0.5 -1.8,0 -0.4,-0.4 -0.5,-1.1 -0.1,-1.6 -0.4,0.3 -0.8,0.4 -1.2,0.4 l -0.2,0.2 c 0,0.4 -0.1,0.9 -0.4,1.2 0.5,-0.3 1.2,-0.3 1.6,0.1 0.5,0.5 0.5,1.3 0,1.8 -0.4,0.4 -1.1,0.5 -1.6,0.2 0.3,0.4 0.4,0.8 0.3,1.2 l 0.1,0.1 c 0.4,-0.1 0.9,0.1 1.2,0.3 -0.3,-0.5 -0.2,-1.1 0.2,-1.5 0.5,-0.5 1.3,-0.5 1.8,0 0.5,0.5 0.5,1.3 0,1.8 -0.4,0.4 -1.1,0.5 -1.5,0.2 0.3,0.4 0.4,0.8 0.3,1.2 l 0.1,0.1 c 0.5,0 1,0.1 1.4,0.5 0.4,0.4 0.6,0.9 0.5,1.4 l 0.2,0.2 c 0.5,0 1,0.1 1.4,0.5 0.4,0.4 0.6,0.9 0.5,1.4 l 0.2,0.2 c 0.5,0 1,0.1 1.4,0.5 0.4,0.4 0.6,0.9 0.5,1.4 l 0.1,0.1 c 0.5,0 1,0.1 1.4,0.5 0.4,0.4 0.6,0.9 0.5,1.4 l 0.2,0.2 c 0.5,0 1,0.1 1.4,0.5 0.4,0.4 0.6,0.9 0.5,1.4 l 0.1,0.1 c 0.5,0 1,0.1 1.4,0.5 0.4,0.4 0.6,0.9 0.5,1.4 l 0.1,0.1 c 0.5,0 1,0.1 1.4,0.5 0.4,0.4 0.6,0.9 0.5,1.4 l 0.2,0.2 c 0.5,0 1,0.1 1.4,0.5 0.4,0.4 0.6,0.9 0.5,1.4 l 0.2,0.2 c 0.5,0 1,0.1 1.4,0.5 0.4,0.4 0.6,0.9 0.5,1.4 l 0.2,0.2 c 0.5,0 1,0.1 1.4,0.5 0.4,0.4 0.6,0.9 0.5,1.4 l 0.1,0.1 c 0.5,0 1,0.1 1.4,0.5 0.4,0.4 0.6,0.9 0.5,1.4 l 0.1,0.1 c 0.5,0 1,0.1 1.4,0.5 0.4,0.4 0.6,0.9 0.5,1.4 l 0.2,0.1 c 0.5,0 1,0.1 1.4,0.5 0.4,0.4 0.6,0.9 0.5,1.4 l 0.2,0.2 c 0.5,0 1,0.1 1.4,0.5 0.4,0.4 0.6,0.9 0.5,1.4 l 0.2,0.2 c 0.5,0 1,0.1 1.4,0.5 0.4,0.4 0.6,0.9 0.5,1.4 l 0.2,0.1 c 0.5,0 1,0.1 1.4,0.5 0.4,0.4 0.6,0.9 0.5,1.4 l 0.1,0.1 c 0.5,0 1,0.1 1.4,0.5 0.4,0.4 0.6,0.9 0.5,1.4 l 0.2,0.2 c 0.5,0 1,0.1 1.4,0.5 0.4,0.4 0.6,0.9 0.5,1.4 l 0.2,0.2 c 0.5,0 1,0.1 1.4,0.5 0.4,0.4 0.6,0.9 0.5,1.4 v 0 c 0.2,0 0.4,0 0.6,0 v 0 c -0.1,-0.4 0,-0.8 0.3,-1.2 -0.5,0.2 -1.1,0.2 -1.5,-0.2 -0.5,-0.5 -0.5,-1.3 0,-1.8 0.5,-0.5 1.3,-0.5 1.8,0 0.4,0.4 0.5,1 0.2,1.5 0.4,-0.2 0.8,-0.3 1.2,-0.3 l 0.1,-0.1 c -0.1,-0.4 0,-0.8 0.3,-1.2 -0.5,0.2 -1.1,0.2 -1.5,-0.2 -0.5,-0.5 -0.5,-1.3 0,-1.8 0.5,-0.5 1.3,-0.5 1.8,0 0.4,0.4 0.5,1 0.2,1.5 0.4,-0.2 0.8,-0.3 1.2,-0.3 l 0.1,-0.1 c -0.1,-0.4 0,-0.8 0.3,-1.2 -0.5,0.2 -1.1,0.2 -1.5,-0.2 -0.5,-0.5 -0.5,-1.3 0,-1.8 0.5,-0.5 1.3,-0.5 1.8,0 0.4,0.4 0.5,1 0.2,1.5 0.4,-0.2 0.8,-0.3 1.2,-0.3 v 0 c -0.1,-0.4 0,-0.9 0.3,-1.2 -0.5,0.2 -1.1,0.1 -1.5,-0.2 -0.5,-0.5 -0.5,-1.3 0,-1.8 0.5,-0.5 1.3,-0.5 1.8,0 0.4,0.4 0.5,1 0.2,1.5 0.4,-0.2 0.8,-0.3 1.2,-0.2 l 0.1,-0.1 c -0.1,-0.4 0,-0.8 0.3,-1.2 -0.5,0.2 -1.1,0.2 -1.5,-0.2 -0.5,-0.5 -0.5,-1.3 0,-1.8 0.5,-0.5 1.3,-0.5 1.8,0 0.4,0.4 0.5,1 0.2,1.5 0.4,-0.2 0.8,-0.3 1.2,-0.3 l 0.1,-0.1 c -0.1,-0.4 0,-0.8 0.3,-1.2 -0.5,0.2 -1.1,0.2 -1.5,-0.2 -0.5,-0.5 -0.5,-1.3 0,-1.8 0.5,-0.5 1.3,-0.5 1.8,0 0.4,0.4 0.5,1 0.2,1.5 0.4,-0.2 0.8,-0.3 1.2,-0.3 v 0 c -0.1,-0.4 0,-0.8 0.3,-1.2 -0.5,0.2 -1.1,0.2 -1.5,-0.2 -0.5,-0.5 -0.5,-1.3 0,-1.8 0.5,-0.5 1.3,-0.5 1.8,0 0.4,0.4 0.5,1 0.2,1.5 0.4,-0.2 0.8,-0.3 1.2,-0.3 l 0.1,-0.1 c -0.1,-0.4 0,-0.8 0.3,-1.2 -0.5,0.2 -1.1,0.2 -1.5,-0.2 -0.5,-0.5 -0.5,-1.3 0,-1.8 0.5,-0.5 1.3,-0.5 1.8,0 0.4,0.4 0.5,1 0.2,1.5 0.4,-0.2 0.8,-0.3 1.2,-0.3 v 0 c -0.1,-0.4 0,-0.8 0.3,-1.2 -0.5,0.2 -1.1,0.2 -1.5,-0.2 -0.5,-0.5 -0.5,-1.3 0,-1.8 0.5,-0.5 1.3,-0.5 1.8,0 0.4,0.4 0.5,1 0.2,1.5 0.4,-0.2 0.8,-0.3 1.2,-0.3 v -0.1 c -0.1,-0.4 0,-0.8 0.3,-1.2 -0.5,0.2 -1.1,0.2 -1.5,-0.2 -0.5,-0.5 -0.5,-1.3 0,-1.8 0.5,-0.5 1.3,-0.5 1.8,0 0.4,0.4 0.5,1 0.2,1.5 0.4,-0.2 0.8,-0.3 1.2,-0.3 l 0.1,-0.1 c -0.1,-0.4 0,-0.8 0.3,-1.2 -0.5,0.2 -1.1,0.2 -1.5,-0.2 -0.5,-0.5 -0.5,-1.3 0,-1.8 0.5,-0.5 1.3,-0.5 1.8,0 0.4,0.4 0.5,1 0.2,1.5 0.4,-0.2 0.8,-0.3 1.2,-0.3 l 0.1,-0.1 c -0.1,-0.4 0,-0.8 0.3,-1.2 -0.5,0.2 -1.1,0.2 -1.5,-0.2 -0.5,-0.5 -0.5,-1.3 0,-1.8 0.5,-0.5 1.3,-0.5 1.8,0 0.4,0.4 0.5,1 0.2,1.5 0.4,-0.2 0.8,-0.3 1.2,-0.3 v 0 c -0.1,-0.4 0,-0.8 0.3,-1.2 -0.5,0.2 -1.1,0.2 -1.5,-0.2 -0.5,-0.5 -0.5,-1.3 0,-1.8 0.5,-0.5 1.3,-0.5 1.8,0 0.4,0.4 0.5,1 0.2,1.5 0.4,-0.2 0.8,-0.3 1.2,-0.3 l 0.1,-0.1 c -0.1,-0.4 0,-0.8 0.3,-1.2 -0.5,0.2 -1.1,0.2 -1.5,-0.2 -0.5,-0.5 -0.5,-1.3 0,-1.8 0.5,-0.5 1.3,-0.5 1.8,0 0.4,0.4 0.5,1 0.2,1.5 0.4,-0.2 0.8,-0.3 1.2,-0.3 v 0 c -0.1,-0.4 0,-0.9 0.3,-1.2 -0.5,0.2 -1.1,0.2 -1.5,-0.2 -0.5,-0.5 -0.5,-1.3 0,-1.8 0.5,-0.5 1.3,-0.5 1.8,0 0.4,0.4 0.5,1 0.2,1.5 0.4,-0.2 0.8,-0.3 1.2,-0.3 l 0.1,-0.1 c -0.1,-0.4 0,-0.8 0.3,-1.2 -0.5,0.3 -1.1,0.2 -1.5,-0.2 -0.5,-0.5 -0.5,-1.3 0,-1.8 0.5,-0.5 1.3,-0.5 1.8,0 0.4,0.4 0.5,1 0.2,1.5 0.4,-0.2 0.8,-0.3 1.2,-0.3 v 0 c -0.1,-0.4 0,-0.9 0.3,-1.2 -0.5,0.2 -1.1,0.2 -1.5,-0.2 -0.5,-0.5 -0.5,-1.3 0,-1.8 0.5,-0.5 1.3,-0.5 1.8,0 0.4,0.4 0.5,1 0.2,1.5 0.4,-0.2 0.8,-0.3 1.2,-0.3 l 0.1,-0.1 c -0.1,-0.4 0,-0.9 0.3,-1.2 -0.5,0.2 -1.1,0.2 -1.5,-0.2 -0.5,-0.5 -0.5,-1.3 0,-1.8 0.5,-0.5 1.3,-0.5 1.8,0 0.4,0.4 0.5,1 0.2,1.5 0.4,-0.2 0.8,-0.3 1.2,-0.3 l 0.1,-0.1 c -0.1,-0.4 0,-0.9 0.3,-1.2 -0.5,0.2 -1.1,0.2 -1.5,-0.2 -0.5,-0.5 -0.5,-1.3 0,-1.8 0.5,-0.5 1.3,-0.5 1.8,0 0.4,0.4 0.5,1 0.2,1.5 0.4,-0.2 0.8,-0.3 1.2,-0.3 l 0.1,-0.1 c -0.1,-0.4 0,-0.9 0.3,-1.2 -0.5,0.2 -1.1,0.2 -1.5,-0.2 -0.5,-0.5 -0.5,-1.3 0,-1.8 0.5,-0.5 1.3,-0.5 1.8,0 0.4,0.4 0.5,1 0.2,1.5 0.4,-0.2 0.8,-0.3 1.2,-0.3 l 0.1,-0.1 c 1.3,-0.4 1.4,-0.8 1.6,-1.2" />&#10;	<path
   id="XMLID_387_"
   class="st1"
   d="m 154.3,229 c 0.2,0.4 0.2,0.8 0,1.2 0.4,-0.2 0.8,-0.3 1.2,-0.2 0,-0.2 0,-0.4 0,-0.6 v 0 c -0.5,0 -0.9,-0.1 -1.2,-0.4" />&#10;	<polyline
   id="XMLID_388_"
   class="st0"
   points="67.5,284.4 432.2,284.4 432.2,284 67.5,284  " />&#10;	<polygon
   id="XMLID_389_"
   class="st0"
   points="85.4,293.6 89.1,313.3 87,313.3 84.6,300.7 84.6,300.7 78.6,314 72.6,300.7 72.6,300.7 70.2,313.3 68.1,313.3 71.9,293.6 78.6,309.2 " />&#10;	<polygon
   id="XMLID_390_"
   class="st0"
   points="106.3,296.6 98.7,296.6 98.7,302.1 106.1,302.1 106.1,304.1 98.7,304.1 98.7,311.3 106.3,311.3 106.3,313.3 96.7,313.3 96.7,294.7 106.3,294.7 " />&#10;	<polygon
   id="XMLID_391_"
   class="st0"
   points="122.2,313.3 115,313.3 115,294.7 117.1,294.7 117.1,311.3 122.2,311.3 " />&#10;	<path
   id="XMLID_395_"
   class="st0"
   d="m 129.4,294.7 h 3.1 c 3.4,0 6.2,1.2 6.2,5 0,1.5 -0.6,2.8 -1.8,3.6 2.2,0.5 3.5,2.5 3.5,4.8 0,3.7 -3,5.2 -6.6,5.2 h -4.3 l -0.1,-18.6 m 2.1,8.2 h 0.8 c 2.3,0 4.3,-0.3 4.3,-3.1 0,-2.8 -1.8,-3.1 -4.3,-3.1 h -0.8 v 6.2 m 0,8.4 h 2.1 c 2.3,0 4.8,-0.6 4.8,-3.4 0,-2.9 -2.8,-3.3 -5,-3.3 h -1.8 v 6.7" />&#10;	<path
   id="XMLID_398_"
   class="st0"
   d="m 167,304 c 0,5.3 -4.4,9.6 -9.7,9.6 -5.3,0 -9.7,-4.2 -9.7,-9.6 0,-5.3 4.4,-9.6 9.7,-9.6 5.3,0 9.7,4.3 9.7,9.6 m -17.3,0 c 0,4.2 3.4,7.7 7.6,7.7 4.2,0 7.6,-3.5 7.6,-7.7 0,-4.2 -3.4,-7.7 -7.6,-7.7 -4.2,0 -7.6,3.5 -7.6,7.7" />&#10;	<path
   id="XMLID_399_"
   class="st0"
   d="m 177,305.8 c 0,1.4 -0.1,3 0.8,4.1 0.8,1.1 2.4,1.8 3.7,1.8 1.3,0 2.8,-0.6 3.6,-1.6 1,-1.2 0.9,-2.8 0.9,-4.3 v -11.1 h 2.1 v 11.6 c 0,2 -0.1,3.6 -1.6,5.1 -1.3,1.4 -3.1,2.1 -5,2.1 -1.7,0 -3.5,-0.7 -4.8,-1.9 -1.6,-1.6 -1.8,-3.2 -1.8,-5.4 v -11.6 h 2.1 v 11.2" />&#10;	<path
   id="XMLID_402_"
   class="st0"
   d="m 199,313.3 h -2 v -18.6 h 2.7 c 3.5,0 6.8,0.9 6.8,5.1 0,2.9 -1.8,4.9 -4.7,5.1 l 5.9,8.3 h -2.5 L 199.6,305 H 199 v 8.3 m 0,-10 h 0.6 c 2.3,0 4.7,-0.4 4.7,-3.3 0,-3.1 -2.2,-3.3 -4.7,-3.3 H 199 v 6.6" />&#10;	<polygon
   id="XMLID_403_"
   class="st0"
   points="230.1,294.7 232.2,294.7 232.2,314.1 217.7,299 217.7,313.3 215.6,313.3 215.6,293.9 230.1,309.1 " />&#10;	<polygon
   id="XMLID_404_"
   class="st0"
   points="250.8,296.6 243.3,296.6 243.3,302.1 250.6,302.1 250.6,304.1 243.3,304.1 243.3,311.3 250.8,311.3 250.8,313.3 241.2,313.3 241.2,294.7 250.8,294.7 " />&#10;	<path
   id="XMLID_407_"
   class="st0"
   d="m 274.6,308 -2.2,5.3 h -2.3 l 8.6,-19.5 8.3,19.5 h -2.3 l -2.2,-5.3 h -7.9 m 4,-9.4 -3.2,7.4 h 6.3 l -3.1,-7.4" />&#10;	<path
   id="XMLID_408_"
   class="st0"
   d="m 295.7,305.8 c 0,1.4 -0.1,3 0.8,4.1 0.8,1.1 2.4,1.8 3.7,1.8 1.3,0 2.8,-0.6 3.6,-1.6 1,-1.2 0.9,-2.8 0.9,-4.3 v -11.1 h 2.1 v 11.6 c 0,2 -0.1,3.6 -1.6,5.1 -1.3,1.4 -3.1,2.1 -5,2.1 -1.7,0 -3.5,-0.7 -4.8,-1.9 -1.6,-1.6 -1.8,-3.2 -1.8,-5.4 v -11.6 h 2.1 v 11.2" />&#10;	<path
   id="XMLID_409_"
   class="st0"
   d="m 324.1,298.3 c -0.7,-1.3 -1.6,-2 -3.2,-2 -1.7,0 -3.1,1.2 -3.1,2.9 0,1.6 1.6,2.3 2.9,2.9 l 1.2,0.5 c 2.4,1.1 4.5,2.3 4.5,5.2 0,3.2 -2.6,5.7 -5.8,5.7 -3,0 -5.2,-1.9 -5.8,-4.8 l 2,-0.6 c 0.3,1.9 1.7,3.4 3.7,3.4 2,0 3.8,-1.5 3.8,-3.6 0,-2.2 -1.7,-2.9 -3.4,-3.7 l -1.1,-0.5 c -2.2,-1 -4,-2.1 -4,-4.8 0,-2.9 2.4,-4.7 5.2,-4.7 2.1,0 3.8,1.1 4.8,2.9 l -1.7,1.2" />&#10;	<polygon
   id="XMLID_410_"
   class="st0"
   points="337.5,296.6 333,296.6 333,294.7 344.1,294.7 344.1,296.6 339.5,296.6 339.5,313.3 337.5,313.3 " />&#10;	<path
   id="XMLID_413_"
   class="st0"
   d="m 353.4,313.3 h -2.1 v -18.6 h 2.7 c 3.5,0 6.8,0.9 6.8,5.1 0,2.9 -1.8,4.9 -4.7,5.1 l 5.9,8.3 h -2.5 l -5.6,-8.2 h -0.5 v 8.3 m 0,-10 h 0.6 c 2.3,0 4.7,-0.4 4.7,-3.3 0,-3.1 -2.2,-3.3 -4.7,-3.3 h -0.6 z" />&#10;	<path
   id="XMLID_416_"
   class="st0"
   d="m 372.7,308 -2.2,5.3 h -2.3 l 8.6,-19.5 8.3,19.5 h -2.3 l -2.2,-5.3 h -7.9 m 4,-9.4 -3.2,7.4 h 6.3 l -3.1,-7.4" />&#10;	<polygon
   id="XMLID_417_"
   class="st0"
   points="399.4,313.3 392.3,313.3 392.3,294.7 394.3,294.7 394.3,311.3 399.4,311.3 " />&#10;	<rect
   id="XMLID_418_"
   x="406.70001"
   y="294.70001"
   class="st0"
   width="2.0999999"
   height="18.6" />&#10;	<path
   id="XMLID_421_"
   class="st0"
   d="m 419.5,308 -2.2,5.3 H 415 l 8.6,-19.5 8.3,19.5 h -2.3 l -2.2,-5.3 h -7.9 m 4,-9.4 -3.2,7.4 h 6.3 l -3.1,-7.4" />&#10;</g>&#10;</svg>
