<svg width="1638" height="655" viewBox="0 0 1638 655" fill="none" xmlns="http://www.w3.org/2000/svg">
<path d="M208.551 476.621C183.118 508.583 152.916 533.427 111.529 533.427C83.6917 533.427 58.8551 523.969 58.8551 490.801C58.8551 482.542 62.4184 463.593 66.5446 444.651L96.7065 305.042H50L54.1262 290.273H108.568C126.915 290.273 144.658 287.902 162.964 287.902L126.915 441.128C122.146 462.434 118.019 482.542 118.019 490.238C118.019 505.616 131.643 509.147 143.452 509.147C153.513 509.147 165.938 501.458 174.223 496.126C200.861 478.972 213.273 446.452 220.366 416.847L250.541 290.273H312.064L272.444 463.593C268.285 481.343 265.914 494.96 266.516 499.087C267.126 505.021 273.053 508.583 278.325 508.583C299.652 508.583 325.681 459.467 333.376 442.287L346.398 449.419C331.019 489.032 298.493 533.427 252.886 533.427C217.406 533.427 207.955 510.955 208.551 476.621Z" fill="#161413"/>
<path d="M365.078 278.021L386.193 122H405.863L397.266 182.455L397.69 182.879C406.076 174.508 412.864 171.587 422.408 171.587C443.668 171.587 458.199 190.615 458.199 217.989C458.199 245.189 443.244 279.604 392.028 279.604C382.318 279.604 370.98 278.921 365.078 278.021ZM394.776 201.239L385.928 263.748H396.584C423.316 263.748 438.469 244.978 438.469 217.565C438.469 198.993 430.104 188.343 416.527 188.343C410.162 188.343 396.107 192.642 394.776 201.239Z" fill="#161413"/>
<path d="M522.022 294.251V234.077H547.892V289.958C547.892 302.777 551.351 313.573 564.544 313.573C577.774 313.573 581.183 302.777 581.183 289.958V234.077H607.078V294.251C607.078 320.828 589.883 332.809 564.544 332.809C539.217 332.809 522.022 320.828 522.022 294.251Z" fill="#E3003A"/>
<path d="M698.84 331.083L664.91 264.801H664.693L665.476 331.083H641.69V234.079H674.682L707.432 299.99H707.756L707.359 234.079H730.963V331.083H698.84Z" fill="#E3003A"/>
<path d="M769.498 331.081V234.077H795.307V331.081H769.498Z" fill="#E3003A"/>
<path d="M854.57 331.082L822.049 234.078H849.569L871.053 310.193H871.366L893.03 234.078H919.599L886.536 331.082H854.57Z" fill="#E3003A"/>
<path d="M945.719 331.081V234.077H1014.11V252.437H971.576V272.462H1011.77V290.809H971.576V312.685H1015.69V331.081H945.719Z" fill="#E3003A"/>
<path d="M1102.67 331.082L1097.05 313.574C1091.82 296.917 1088.45 292.697 1078.85 292.697H1073.44V331.082H1047.63V234.078H1093.78C1110.96 234.078 1125.03 241.888 1125.03 258.532C1125.03 271.426 1118.85 280.112 1106.35 283.012V283.295C1114.7 285.516 1115.26 292.845 1120.1 304.653L1129.56 331.082H1102.67ZM1073.44 274.412H1080.24C1088.61 274.412 1099.16 274.079 1099.16 263.159C1099.16 254.066 1090.16 252.437 1080.24 252.437H1073.44V274.412Z" fill="#E3003A"/>
<path d="M1156.62 328.553L1158.91 307.171C1165.54 310.835 1174.84 313.575 1185.55 313.575C1193.75 313.575 1201.48 311.934 1201.48 304.136C1201.48 286.035 1155.69 297.473 1155.69 262.161C1155.69 238.854 1178.44 232.413 1197.89 232.413C1207.19 232.413 1216.33 233.857 1222.91 236.003L1221.27 256.028C1214.54 252.993 1207.04 251.574 1199.68 251.574C1193.2 251.574 1182.34 252.142 1182.34 260.655C1182.34 276.374 1228.14 265.8 1228.14 300.804C1228.14 325.938 1207.04 332.81 1185.55 332.81C1176.48 332.81 1165.22 331.403 1156.62 328.553Z" fill="#E3003A"/>
<path d="M1261.06 331.082V234.078H1286.93V331.082H1261.06Z" fill="#E3003A"/>
<path d="M1334.93 331.081V253.325H1311V234.077H1384.65V253.325H1360.71V331.081H1334.93Z" fill="#E3003A"/>
<path d="M1473.52 331.082L1466.34 310.391H1429.89L1422.23 331.082H1395.97L1432.81 234.078H1464.45L1501.9 331.082H1473.52ZM1435.86 292.069H1460.16L1448.66 254.067H1448.35L1435.86 292.069ZM1454.92 229.007V208.995H1474.93V229.007H1454.92ZM1423.19 229.007V208.995H1443.25V229.007H1423.19Z" fill="#E3003A"/>
<path d="M1537.48 331.081V253.325H1513.55V234.077H1587.25V253.325H1563.34V331.081H1537.48Z" fill="#E3003A"/>
<path d="M522.729 504.783V407.754H567.347C585.409 407.754 598.855 415.749 598.855 432.406C598.855 444.67 592.615 451.456 581.746 455.047V455.306C594.736 457.971 601.363 464.893 601.363 476.7C601.363 499.946 580.975 504.783 563.612 504.783H522.729ZM548.587 486.46H556.189C565.637 486.46 575.493 485.066 575.493 475.208C575.493 464.671 565.407 463.671 556.479 463.671H548.587V486.46ZM548.587 446.163H555.792C564.239 446.163 572.998 444.053 572.998 435.91C572.998 427.002 564.697 426.138 556.093 426.138H548.587V446.163Z" fill="#E3003A"/>
<path d="M630.521 504.781V407.753H698.924V426.137H656.39V446.162H696.479V464.521H656.39V486.459H700.406V504.781H630.521Z" fill="#E3003A"/>
<path d="M789.285 504.781L783.742 487.273C778.417 470.616 775.067 466.446 765.525 466.446H760.066V504.781H734.257V407.753H780.381C797.562 407.753 811.648 415.587 811.648 432.244C811.648 445.212 805.551 453.824 793.033 456.674V457.02C801.334 459.191 801.888 466.557 806.805 478.439L816.264 504.781H789.285ZM760.066 448.124H766.85C775.224 448.124 785.779 447.865 785.779 436.834C785.779 427.778 776.79 426.137 766.85 426.137H760.066V448.124Z" fill="#E3003A"/>
<path d="M902.086 504.781L868.144 438.5H867.939L868.795 504.781H845.021V407.753H877.915L910.69 473.664H911.016L910.594 407.753H934.209V504.781H902.086Z" fill="#E3003A"/>
</svg>
