<?xml version="1.0" encoding="UTF-8"?> <svg xmlns="http://www.w3.org/2000/svg" width="499" height="86"><g fill="#978E82" fill-rule="evenodd"><path d="M0 58.29V.529h9.553l15.163 21.825c2.016 2.98 3.506 5.171 4.82 7.453h.177a123.495 123.495 0 014.733-7.802L48.293.528h9.642v82.76H47.33V25.687c0-2.368 0-5.349.175-7.629h-.175c-.789 1.666-2.89 4.91-3.943 6.488L31.99 42.249h-4.822l-12.62-18.142c-1.23-1.754-2.804-3.77-3.943-5.96h-.175c.086 2.278.086 5.259.086 7.274v32.87H0z"></path><path fill-rule="nonzero" d="M61.86 49.37h24.28V25.528h10.606v57.76H86.14v-24.98H61.86z"></path><path d="M111.72 58.51V.75h10.518v57.76H111.72zm14.287-33.92h24.279V.75h10.606v57.76h-10.606V33.53h-24.279v-8.94z"></path><path fill-rule="nonzero" d="M183.007 85.394h3.804V76.24h6.152v9.153h3.802V64.65h-3.802v8.439h-6.152V64.65h-3.804z"></path><path d="M208.323 78.767c0 2.733-.804 4.366-3.001 4.366-1.427 0-2.35-.947-2.35-2.345 0-2.23 1.875-2.885 5.024-2.885h.327v.864zm-7.043-4.815c.712-.594 2.348-1.487 4.19-1.487 2.11 0 2.853 1.398 2.853 2.914v.564h-.743c-4.666 0-8.053 1.04-8.053 5.202 0 2.852 2.2 4.486 4.577 4.486 2.2 0 3.357-1.07 4.278-2.319h.06c0 .744.029 1.485.207 2.082h3.328a19.153 19.153 0 01-.207-2.705v-6.686c0-3.834-1.1-6.151-5.854-6.151-2.349 0-3.804.653-4.843 1.128l.207 2.972zM215.485 85.394h3.685v-8.918c0-1.958.685-3.593 2.615-3.593 1.516 0 2.112.98 2.112 3.327v9.184h3.685v-9.866c0-3.09-1.041-5.676-4.517-5.676-2.496 0-3.536 1.665-4.074 2.586h.032-.09c0-.773-.088-1.576-.119-2.347h-3.445c.086.682.116 1.574.116 2.524v12.779zM231.2 85.394h3.685v-8.918c0-1.958.682-3.593 2.615-3.593 1.516 0 2.11.98 2.11 3.327v9.184h3.683v-9.866c0-3.09-1.039-5.676-4.515-5.676-2.497 0-3.538 1.665-4.072 2.586h.029-.09c0-.773-.087-1.576-.119-2.347h-3.445c.089.682.12 1.574.12 2.524v12.779zM246.498 77.726c0 6.42 3.622 7.905 6.744 7.905 3.12 0 6.72-1.485 6.72-7.905 0-6.24-3.6-7.874-6.72-7.874-3.122 0-6.744 1.635-6.744 7.874zm3.804 0c0-2.555.56-5.26 2.94-5.26 2.378 0 2.915 2.705 2.915 5.26 0 2.556-.537 5.291-2.915 5.291-2.38 0-2.94-2.735-2.94-5.29z"></path><path fill-rule="nonzero" d="M266.463 85.394h4.338l4.697-15.303h-3.567l-3.152 11.796h-.06l-3.116-11.796h-3.808z"></path><path d="M280.606 76.418c0-2.02.801-4.07 2.736-4.07 1.664 0 2.557 1.365 2.557 4.07h-5.293zm7.908 5.32c-.684.505-1.755 1.188-4.013 1.188-2.853 0-3.895-1.572-3.895-4.19h8.86v-.71c0-6.243-2.824-8.174-6.124-8.174-3.89 0-6.3 3.534-6.3 8.112 0 4.13 2.137 7.667 7.072 7.667 2.2 0 3.804-.653 4.577-.982l-.177-2.912z"></path><path d="M292.733 85.394h3.686v-8.38c0-2.853 1.666-3.776 3.18-3.776.387 0 .714.063 1.039.148v-3.445c-.206-.03-.384-.09-.625-.09-2.284 0-3.447 1.843-3.892 3.032h-.062c0-.921-.084-1.871-.118-2.792h-3.326c.09.682.118 1.574.118 2.524v12.779zM328.619 85.394h3.447V64.65h-5.498l-4.369 15.483h-.059l-4.279-15.483h-5.675v20.743h3.447V68.098h.06l4.958 17.296h2.709l5.198-17.296h.06z" fill-rule="nonzero"></path><path d="M338.753 76.418c0-2.02.804-4.07 2.735-4.07 1.662 0 2.555 1.365 2.555 4.07h-5.29zm7.905 5.32c-.683.505-1.753 1.188-4.013 1.188-2.853 0-3.892-1.572-3.892-4.19h8.853v-.71c0-6.243-2.82-8.174-6.118-8.174-3.891 0-6.301 3.534-6.301 8.112 0 4.13 2.138 7.667 7.07 7.667 2.202 0 3.805-.653 4.58-.982l-.179-2.912zM353.73 77.606c0-3.06.714-5.05 2.768-5.05 2.02 0 2.851 2.17 2.851 5.142 0 2.88-.742 5.228-2.913 5.228-2.139 0-2.706-1.781-2.706-5.32zm5.62-14.5v9.182h-.063c-.534-1.19-1.75-2.436-3.954-2.436-3.294 0-5.285 2.91-5.285 7.903 0 4.252 1.575 7.876 5.376 7.876 2.378 0 3.48-1.309 4.075-2.614h.088c0 1.04.059 1.928.12 2.377h3.447c-.09-.566-.118-1.516-.118-2.614V63.105h-3.687zM367.01 67.206h3.808v-3.624h-3.808v3.624zm.06 18.188h3.685V70.09h-3.685v15.303z"></path><path d="M384.333 82.094c-.507.327-1.726.745-2.619.745-2.82 0-4.188-2.201-4.188-5.052 0-3.269 1.218-5.143 4.01-5.143 1.016 0 1.932.417 2.583.742l.214-2.911c-.687-.266-2.054-.623-3.211-.623-5.143 0-7.403 3.534-7.403 7.903 0 4.34 2.142 7.876 7.194 7.876 1.485 0 2.763-.298 3.63-.623l-.21-2.914z" fill-rule="nonzero"></path><path d="M395.082 78.767c0 2.733-.801 4.366-3 4.366-1.427 0-2.345-.947-2.345-2.345 0-2.23 1.87-2.885 5.017-2.885h.328v.864zm-7.043-4.815c.715-.594 2.35-1.487 4.19-1.487 2.11 0 2.853 1.398 2.853 2.914v.564h-.743c-4.664 0-8.05 1.04-8.05 5.202 0 2.852 2.197 4.486 4.575 4.486 2.199 0 3.358-1.07 4.277-2.319h.059c0 .744.032 1.485.214 2.082h3.322a19.201 19.201 0 01-.205-2.705v-6.686c0-3.834-1.101-6.151-5.855-6.151-2.346 0-3.803.653-4.845 1.128l.208 2.972z"></path><path fill-rule="nonzero" d="M402.603 63.105h3.685v22.288h-3.685zM418.338 84.769c1.043.625 2.647.92 4.725.92 3.955 0 6.956-2.018 6.956-6.238 0-2.914-1.16-4.222-3.598-5.588l-2.228-1.248c-1.158-.653-2.197-1.248-2.197-2.792 0-1.428.983-2.439 2.883-2.439 1.751 0 2.972.536 3.892.893l.178-3.181c-.592-.177-2.137-.743-4.338-.743-3.476 0-6.537 1.932-6.537 5.647 0 2.676 1.339 4.307 3.384 5.436l1.936 1.074c1.842 1.007 2.702 1.66 2.702 3.15 0 2.077-1.485 2.999-3.15 2.999-2.02 0-3.655-.802-4.394-1.277l-.214 3.387zM443.334 82.094c-.501.327-1.72.745-2.613.745-2.823 0-4.188-2.201-4.188-5.052 0-3.269 1.214-5.143 4.01-5.143 1.006 0 1.93.417 2.583.742l.208-2.911c-.685-.266-2.049-.623-3.206-.623-5.143 0-7.403 3.534-7.403 7.903 0 4.34 2.14 7.876 7.193 7.876 1.485 0 2.761-.298 3.627-.623l-.21-2.914zM446.093 85.394h3.686v-8.918c0-1.958.68-3.593 2.615-3.593 1.512 0 2.109.98 2.109 3.327v9.184h3.686v-9.866c0-3.09-1.042-5.676-4.52-5.676-2.283 0-3.147 1.246-3.799 2.197h-.091v-8.944h-3.686v22.289z"></path><path d="M461.39 77.726c0 6.42 3.626 7.905 6.746 7.905 3.12 0 6.72-1.485 6.72-7.905 0-6.24-3.6-7.874-6.72-7.874-3.12 0-6.746 1.635-6.746 7.874zm3.804 0c0-2.555.563-5.26 2.942-5.26 2.378 0 2.912 2.705 2.912 5.26 0 2.556-.534 5.291-2.912 5.291-2.38 0-2.942-2.735-2.942-5.29zM477.64 77.726c0 6.42 3.626 7.905 6.745 7.905 3.12 0 6.718-1.485 6.718-7.905 0-6.24-3.597-7.874-6.718-7.874-3.119 0-6.744 1.635-6.744 7.874zm3.805 0c0-2.555.564-5.26 2.94-5.26 2.378 0 2.914 2.705 2.914 5.26 0 2.556-.536 5.291-2.914 5.291-2.376 0-2.94-2.735-2.94-5.29z"></path><path fill-rule="nonzero" d="M494.666 63.105h3.683v22.288h-3.683z"></path></g></svg> 