<svg width="2000" height="500" viewBox="0 0 2000 500" fill="none" xmlns="http://www.w3.org/2000/svg">
<path fill-rule="evenodd" clip-rule="evenodd" d="M270.089 140.876C270.089 141.358 267.524 141.965 264.389 142.225C261.255 142.485 258.517 143.216 258.306 143.849C258.095 144.482 256.803 145 255.434 145C254.066 145 252.271 145.675 251.446 146.5C250.621 147.325 248.853 148 247.518 148C246.182 148 245.089 148.45 245.089 149C245.089 149.55 244.414 150 243.589 150C242.764 150 242.089 150.675 242.089 151.5C242.089 152.433 241.145 153 239.589 153C238.033 153 237.089 153.567 237.089 154.5C237.089 155.325 236.61 156 236.024 156C234.466 156 224.38 166.508 223.611 168.932C223.25 170.069 222.535 171 222.022 171C221.509 171 221.089 172.139 221.089 173.531C221.089 174.924 220.414 176.322 219.589 176.638C218.764 176.955 218.089 178.291 218.089 179.607C218.089 180.923 217.644 182 217.101 182C216.557 182 215.825 183.8 215.473 186C215.121 188.2 214.441 190 213.961 190C213.481 190 213.089 191.762 213.089 193.917C213.089 196.161 212.555 198.011 211.839 198.25C210.851 198.579 210.589 217.622 210.589 289C210.589 360.377 210.851 379.42 211.839 379.75C212.666 380.026 213.089 382.339 213.089 386.583C213.089 390.113 213.503 393 214.01 393C214.516 393 215.227 394.35 215.589 396C215.951 397.65 216.662 399 217.168 399C217.675 399 218.089 399.932 218.089 401.071C218.089 402.211 218.764 403.818 219.589 404.643C220.414 405.468 221.089 407.236 221.089 408.571C221.089 410.063 221.667 411 222.589 411C223.414 411 224.089 411.675 224.089 412.5C224.089 413.325 224.539 414 225.089 414C225.639 414 226.089 414.675 226.089 415.5C226.089 416.325 226.764 417 227.589 417C228.414 417 229.089 417.482 229.089 418.071C229.089 419.456 231.633 422 233.018 422C233.607 422 234.089 422.675 234.089 423.5C234.089 424.325 234.657 425 235.352 425C236.046 425 237.459 426.125 238.492 427.5C239.524 428.875 241.206 430 242.229 430C243.252 430 244.089 430.414 244.089 430.921C244.089 431.427 245.439 432.138 247.089 432.5C248.739 432.862 250.089 433.573 250.089 434.079C250.089 434.586 251.101 435.014 252.339 435.032C253.577 435.049 255.463 435.724 256.53 436.532C257.598 437.339 259.473 438 260.697 438C261.921 438 263.104 438.545 263.326 439.21C263.918 440.986 309.242 441.024 309.837 439.25C310.077 438.532 311.935 438 314.204 438C316.791 438 318.35 437.483 318.727 436.5C319.083 435.574 320.602 435 322.696 435C324.562 435 326.089 434.55 326.089 434C326.089 433.45 326.764 433 327.589 433C328.414 433 329.089 432.325 329.089 431.5C329.089 430.655 329.983 430 331.137 430C332.263 430 334.227 428.875 335.501 427.5C336.776 426.125 338.291 425 338.868 425C340.459 425 346.786 418.529 347.551 416.12C347.921 414.954 348.643 414 349.156 414C349.669 414 350.089 413.489 350.089 412.865C350.089 412.24 351.214 410.687 352.589 409.412C353.964 408.138 355.089 406.206 355.089 405.119C355.089 404.032 355.764 402.468 356.589 401.643C357.414 400.818 358.089 398.729 358.089 397C358.089 395.271 358.764 393.182 359.589 392.357C360.414 391.532 361.089 389.539 361.089 387.929C361.089 386.318 361.539 385 362.089 385C362.73 385 363.089 375.673 363.089 359.019V333.038L360.839 332.487C359.601 332.183 348.464 332.062 336.089 332.218L313.589 332.5L313.321 356.25C313.155 370.943 312.678 380 312.071 380C311.531 380 311.089 381.589 311.089 383.531C311.089 385.748 310.53 387.277 309.589 387.638C308.764 387.955 308.089 388.648 308.089 389.178C308.089 390.426 305.515 393 304.267 393C303.737 393 303.044 393.675 302.727 394.5C302.411 395.325 301.013 396 299.62 396C298.228 396 297.089 396.45 297.089 397C297.089 397.593 293.422 398 288.089 398C283.139 398 279.089 397.608 279.089 397.128C279.089 396.648 277.289 395.968 275.089 395.616C272.889 395.264 271.089 394.532 271.089 393.988C271.089 393.445 270.414 393 269.589 393C268.764 393 268.089 392.489 268.089 391.865C268.089 391.24 266.964 389.687 265.589 388.412C263.453 386.433 263.089 385.214 263.089 380.048C263.089 376.683 262.645 374 262.089 374C261.43 374 261.089 345.333 261.089 290C261.089 234.667 261.43 206 262.089 206C262.639 206 263.089 203.525 263.089 200.5C263.089 197.475 263.53 195 264.07 195C264.609 195 265.32 193.927 265.65 192.615C265.981 191.293 267.773 189.408 269.669 188.387C271.55 187.374 273.089 186.198 273.089 185.773C273.089 185.348 273.957 185 275.018 185C276.078 185 277.621 184.325 278.446 183.5C280.126 181.82 294.089 181.303 294.089 182.921C294.089 183.427 295.439 184.138 297.089 184.5C298.739 184.862 300.089 185.573 300.089 186.079C300.089 186.586 300.571 187 301.16 187C302.559 187 305.089 189.55 305.089 190.96C305.089 191.567 305.764 192.322 306.589 192.638C307.414 192.955 308.089 194.018 308.089 195C308.089 195.982 308.764 197.045 309.589 197.362C310.579 197.742 311.089 199.308 311.089 201.969C311.089 204.186 311.539 206 312.089 206C312.716 206 313.089 212.333 313.089 223V240H363.089V220C363.089 207.333 362.722 200 362.089 200C361.539 200 361.089 198.411 361.089 196.469C361.089 194.252 360.53 192.723 359.589 192.362C358.538 191.958 358.089 190.32 358.089 186.893C358.089 183.21 357.718 182 356.589 182C355.656 182 355.089 181.056 355.089 179.5C355.089 178.125 354.688 177 354.197 177C353.707 177 353.023 175.875 352.678 174.5C352.333 173.125 351.609 172 351.07 172C350.53 172 350.089 171.325 350.089 170.5C350.089 169.675 349.639 169 349.089 169C348.539 169 348.089 168.36 348.089 167.577C348.089 166.794 346.739 164.804 345.089 163.154C343.439 161.504 342.089 159.669 342.089 159.077C342.089 158.485 341.607 158 341.018 158C340.428 158 339.319 157.438 338.552 156.75C335.295 153.828 334.12 153 333.238 153C332.724 153 332.044 152.325 331.727 151.5C331.411 150.675 330.286 150 329.227 150C328.169 150 327.044 149.325 326.727 148.5C326.411 147.675 325.463 147 324.62 147C323.778 147 323.089 146.55 323.089 146C323.089 145.45 321.551 145 319.672 145C317.793 145 316.096 144.521 315.901 143.935C315.706 143.35 313.643 142.616 311.317 142.304C308.992 141.992 307.089 141.346 307.089 140.868C307.089 140.391 298.764 140 288.589 140C278.414 140 270.089 140.394 270.089 140.876ZM6.33935 144.496C5.65235 145.277 5.08935 146.347 5.08935 146.874C5.08935 147.402 5.65235 148.096 6.33935 148.417C7.33935 148.883 7.33935 149.117 6.33935 149.583C4.72935 150.335 4.48035 372 6.08935 372C6.66735 372 7.08935 375.177 7.08935 379.531C7.08935 385.303 7.43935 387.197 8.58935 387.638C9.64035 388.042 10.0893 389.68 10.0893 393.107C10.0893 395.798 10.4903 398 10.9813 398C11.4713 398 12.1554 399.125 12.5004 400.5C12.8454 401.875 13.5693 403 14.1083 403C14.6483 403 15.0893 404.35 15.0893 406C15.0893 408 15.5893 409 16.5893 409C17.4143 409 18.0893 409.482 18.0893 410.071C18.0893 410.661 18.6523 411.77 19.3393 412.537C21.9453 415.443 23.0893 416.932 23.0893 417.419C23.0893 418.438 31.9464 427 33.0004 427C33.5994 427 34.0893 427.441 34.0893 427.981C34.0893 428.52 35.2143 429.244 36.5893 429.589C37.9643 429.934 39.0893 430.569 39.0893 431C39.0893 431.431 40.2143 432.066 41.5893 432.411C42.9643 432.756 44.0893 433.48 44.0893 434.019C44.0893 434.559 45.8893 435 48.0893 435C50.9783 435 52.0893 435.417 52.0893 436.5C52.0893 437.578 53.1913 438 56.0063 438C58.2503 438 60.1003 438.534 60.3393 439.25C60.9423 441.06 106.236 441.06 106.839 439.25C107.075 438.542 108.906 438 111.065 438C113.529 438 115.078 437.47 115.451 436.5C115.767 435.675 117.165 435 118.558 435C119.95 435 121.089 434.599 121.089 434.108C121.089 433.618 122.214 432.934 123.589 432.589C124.964 432.244 126.089 431.52 126.089 430.981C126.089 430.441 127.214 430 128.589 430C130.145 430 131.089 429.433 131.089 428.5C131.089 427.665 131.978 427 133.094 427C134.197 427 137.234 424.76 139.844 422.021C146.341 415.202 147.089 414.262 147.089 412.907C147.089 412.259 148.214 410.687 149.589 409.412C150.964 408.138 152.089 406.206 152.089 405.119C152.089 404.032 152.764 402.468 153.589 401.643C154.414 400.818 155.089 399.211 155.089 398.071C155.089 396.932 155.482 396 155.962 396C156.442 396 157.06 393.657 157.335 390.792C157.61 387.928 158.342 385.416 158.962 385.209C159.79 384.933 160.089 352.712 160.089 263.917V143H136.589C121.589 143 113.089 143.362 113.089 144C113.089 144.55 112.414 145 111.589 145C110.264 145 110.089 158.722 110.089 262.5C110.089 336.449 109.735 380 109.134 380C108.609 380 107.865 381.676 107.481 383.725C106.766 387.535 105.069 390 103.16 390C102.571 390 102.089 390.675 102.089 391.5C102.089 392.325 101.414 393 100.589 393C99.7643 393 99.0893 393.441 99.0893 393.981C99.0893 394.52 97.9643 395.244 96.5893 395.589C95.2143 395.934 94.0893 396.618 94.0893 397.108C94.0893 397.599 89.3643 398 83.5893 398C77.2563 398 73.0893 397.603 73.0893 397C73.0893 396.45 71.9643 396 70.5893 396C69.0333 396 68.0893 395.433 68.0893 394.5C68.0893 393.675 67.6043 393 67.0123 393C64.8933 393 60.0893 387.155 60.0893 384.577C60.0893 382.953 59.5343 382 58.5893 382C57.4103 382 57.0893 380.611 57.0893 375.5C57.0893 371.833 56.6533 369 56.0893 369C55.4283 369 55.0893 331.333 55.0893 258C55.0893 184.667 55.4283 147 56.0893 147C56.6393 147 57.0893 146.55 57.0893 146C57.0893 145.45 56.4143 145 55.5893 145C54.7643 145 54.0893 144.55 54.0893 144C54.0893 143.361 45.6983 143.014 30.8393 143.038C12.0453 143.069 7.34935 143.348 6.33935 144.496Z" fill="#F7B229"/>
<path fill-rule="evenodd" clip-rule="evenodd" d="M413.089 246.418C413.089 350.048 413.362 435.548 413.696 436.418C414.232 437.815 418.036 438 446.196 438C475.237 438 478.245 437.844 479.839 436.25C481.479 434.61 481.573 429.849 481.333 360.649C481.192 320.031 480.835 285.831 480.54 284.649C480.011 282.531 480.21 282.498 494.175 282.35C503.978 282.246 508.577 281.829 509.09 280.999C510.086 279.387 514.089 282.769 514.089 285.222C514.089 286.2 514.539 287 515.089 287C515.639 287 516.103 288.688 516.121 290.75C516.138 292.813 516.813 295.374 517.621 296.441C518.428 297.509 519.089 299.646 519.089 301.191C519.089 302.736 519.48 304 519.959 304C520.437 304 521.068 306.123 521.361 308.717C521.653 311.312 522.387 313.599 522.991 313.801C523.595 314.002 524.089 315.892 524.089 318C524.089 320.108 524.583 321.998 525.187 322.199C525.791 322.401 526.525 324.688 526.817 327.283C527.11 329.877 527.741 332 528.219 332C528.698 332 529.089 333.814 529.089 336.031C529.089 338.692 529.599 340.258 530.589 340.638C531.567 341.014 532.089 342.569 532.089 345.107C532.089 347.248 532.497 349 532.995 349C533.494 349 534.211 351.25 534.589 354C534.967 356.75 535.684 359 536.183 359C536.681 359 537.089 360.589 537.089 362.531C537.089 364.748 537.648 366.277 538.589 366.638C539.64 367.042 540.089 368.68 540.089 372.107C540.089 374.798 540.534 377 541.077 377C541.621 377 542.353 378.8 542.705 381C543.057 383.2 543.737 385 544.217 385C544.697 385 545.089 386.762 545.089 388.917C545.089 391.071 545.583 392.998 546.187 393.199C546.791 393.401 547.525 395.688 547.817 398.283C548.11 400.877 548.681 403 549.087 403C549.493 403 550.081 404.903 550.393 407.228C550.705 409.554 551.439 411.617 552.024 411.812C552.61 412.007 553.089 413.892 553.089 416C553.089 418.108 553.583 419.998 554.187 420.199C554.791 420.401 555.525 422.688 555.817 425.283C556.11 427.877 556.741 430 557.219 430C557.698 430 558.089 431.088 558.089 432.418C558.089 438.284 556.3 438 593.196 438H627.089V434C627.089 431.8 626.688 430 626.197 430C625.707 430 625.023 428.875 624.678 427.5C624.333 426.125 623.609 425 623.07 425C622.53 425 622.089 423.238 622.089 421.083C622.089 418.929 621.595 417.002 620.991 416.801C620.387 416.599 619.653 414.312 619.361 411.717C619.068 409.123 618.477 407 618.047 407C617.617 407 616.961 405.2 616.589 403C616.217 400.8 615.503 399 615.001 399C614.499 399 614.089 397.736 614.089 396.191C614.089 394.646 613.428 392.509 612.621 391.441C611.813 390.374 611.138 388.038 611.121 386.25C611.103 384.462 610.639 383 610.089 383C609.539 383 609.089 381.682 609.089 380.071C609.089 378.461 608.414 376.468 607.589 375.643C606.764 374.818 606.089 372.536 606.089 370.571C606.089 368.607 605.644 367 605.101 367C604.557 367 603.825 365.2 603.473 363C603.121 360.8 602.441 359 601.961 359C601.481 359 601.089 357.2 601.089 355C601.089 352.111 600.672 351 599.589 351C598.456 351 598.089 349.778 598.089 346C598.089 343.25 597.644 341 597.101 341C596.557 341 595.825 339.2 595.473 337C595.121 334.8 594.441 333 593.961 333C593.481 333 593.089 331.682 593.089 330.071C593.089 328.461 592.414 326.468 591.589 325.643C590.764 324.818 590.089 322.986 590.089 321.571C590.089 320.157 589.681 319 589.183 319C588.684 319 587.967 316.75 587.589 314C587.211 311.25 586.494 309 585.995 309C585.497 309 585.089 307.248 585.089 305.107C585.089 302.569 584.567 301.014 583.589 300.638C582.648 300.277 582.089 298.748 582.089 296.531C582.089 294.589 581.697 293 581.217 293C580.737 293 580.057 291.2 579.705 289C579.353 286.8 578.621 285 578.077 285C577.534 285 577.089 283.2 577.089 281C577.089 278.8 576.659 277 576.134 277C575.609 277 574.869 275.312 574.49 273.25C574.111 271.188 573.303 269.128 572.695 268.674C571.904 268.083 571.945 267.703 572.839 267.341C573.527 267.062 574.089 266.196 574.089 265.417C574.089 264.637 574.764 264 575.589 264C576.414 264 577.089 263.599 577.089 263.108C577.089 262.618 578.214 261.934 579.589 261.589C580.964 261.244 582.089 260.52 582.089 259.981C582.089 259.441 582.764 259 583.589 259C584.414 259 585.089 258.325 585.089 257.5C585.089 256.675 585.558 256 586.131 256C587.187 256 589.196 254.554 591.387 252.218C592.048 251.513 593.826 249.635 595.339 248.045C596.852 246.455 598.089 244.669 598.089 244.077C598.089 243.485 598.764 243 599.589 243C600.522 243 601.089 242.056 601.089 240.5C601.089 239.125 601.539 238 602.089 238C602.639 238 603.089 237.325 603.089 236.5C603.089 235.675 603.764 235 604.589 235C605.533 235 606.089 234.048 606.089 232.429C606.089 231.014 606.764 229.182 607.589 228.357C608.414 227.532 609.089 225.764 609.089 224.429C609.089 223.093 609.539 222 610.089 222C610.639 222 611.089 220.248 611.089 218.107C611.089 215.569 611.611 214.014 612.589 213.638C613.69 213.216 614.089 211.479 614.089 207.115C614.089 203.245 614.526 201.021 615.339 200.75C616.304 200.428 616.589 193.178 616.589 169C616.589 144.822 616.304 137.572 615.339 137.25C614.526 136.979 614.089 134.755 614.089 130.885C614.089 126.521 613.69 124.784 612.589 124.362C611.611 123.986 611.089 122.431 611.089 119.893C611.089 117.752 610.697 116 610.217 116C609.737 116 609.057 114.2 608.705 112C608.353 109.8 607.621 108 607.077 108C606.534 108 606.089 106.875 606.089 105.5C606.089 103.944 605.522 103 604.589 103C603.656 103 603.089 102.056 603.089 100.5C603.089 99.125 602.639 98 602.089 98C601.539 98 601.089 97.325 601.089 96.5C601.089 95.675 600.414 95 599.589 95C598.656 95 598.089 94.056 598.089 92.5C598.089 90.944 597.522 90 596.589 90C595.764 90 595.089 89.518 595.089 88.929C595.089 87.544 592.545 85 591.16 85C590.571 85 590.089 84.325 590.089 83.5C590.089 82.675 589.414 82 588.589 82C587.764 82 587.089 81.325 587.089 80.5C587.089 79.675 586.607 79 586.018 79C585.428 79 584.319 78.438 583.552 77.75C580.243 74.782 579.112 74 578.131 74C577.558 74 577.089 73.599 577.089 73.108C577.089 72.618 575.964 71.934 574.589 71.589C573.214 71.244 572.089 70.52 572.089 69.981C572.089 69.441 570.932 69 569.518 69C568.103 69 566.271 68.325 565.446 67.5C564.621 66.675 562.821 66 561.446 66C560.071 66 558.271 65.325 557.446 64.5C556.621 63.675 554.628 63 553.018 63C551.407 63 550.089 62.604 550.089 62.12C550.089 61.636 547.302 61.039 543.896 60.792C540.42 60.541 537.532 59.83 537.313 59.172C537.02 58.293 521.46 58 475.006 58H413.089V246.418ZM663.5 61.624C663.126 63.618 663.034 75.281 663.297 87.544L663.773 109.838L666.854 112.919C668.549 114.614 670.42 116 671.012 116C671.604 116 672.089 116.675 672.089 117.5C672.089 118.583 673.2 119 676.089 119C678.289 119 680.089 119.45 680.089 120C680.089 120.55 681.889 121 684.089 121C686.289 121 688.089 120.55 688.089 120C688.089 119.45 690.339 119 693.089 119C696.867 119 698.089 118.633 698.089 117.5C698.089 116.675 698.574 116 699.166 116C699.758 116 701.558 114.685 703.166 113.077L706.089 110.154V58H698.089V83C698.089 104.556 697.882 108 696.589 108C695.764 108 695.089 108.675 695.089 109.5C695.089 110.433 694.145 111 692.589 111C691.214 111 690.089 111.45 690.089 112C690.089 112.55 687.839 113 685.089 113C682.339 113 680.089 112.55 680.089 112C680.089 111.45 679.189 111 678.089 111C676.989 111 675.189 110.1 674.089 109C672.198 107.109 672.089 105.667 672.089 82.5V58H668.134C664.381 58 664.145 58.184 663.5 61.624ZM735.089 59.448C735.089 60.301 734.639 61 734.089 61C733.525 61 733.089 63.833 733.089 67.5C733.089 71.167 733.525 74 734.089 74C734.639 74 735.089 74.675 735.089 75.5C735.089 76.325 734.639 77 734.089 77C733.454 77 733.089 84.667 733.089 98V119H741.089V95C741.089 79.667 741.45 71 742.089 71C742.639 71 743.089 71.675 743.089 72.5C743.089 73.325 743.49 74 743.981 74C744.471 74 745.155 75.125 745.5 76.5C745.845 77.875 746.569 79 747.108 79C747.648 79 748.089 79.675 748.089 80.5C748.089 81.325 748.764 82 749.589 82C750.522 82 751.089 82.944 751.089 84.5C751.089 85.875 751.503 87 752.01 87C752.516 87 753.227 88.35 753.589 90C753.951 91.65 754.662 93 755.168 93C755.675 93 756.089 93.675 756.089 94.5C756.089 95.325 756.53 96 757.07 96C757.609 96 758.333 97.125 758.678 98.5C759.023 99.875 759.658 101 760.089 101C760.52 101 761.155 102.125 761.5 103.5C761.845 104.875 762.569 106 763.108 106C763.648 106 764.089 106.961 764.089 108.135C764.089 109.31 765.214 111.313 766.589 112.588C767.964 113.862 769.089 115.826 769.089 116.952C769.089 118.713 769.721 119 773.589 119H778.089L778.075 90.75C778.068 75.212 777.784 61.464 777.445 60.197C776.924 58.251 776.269 57.942 773.209 58.197L769.589 58.5L769.319 79.25C769.153 91.946 768.668 100 768.069 100C767.53 100 767.089 98.875 767.089 97.5C767.089 95.944 766.522 95 765.589 95C764.656 95 764.089 94.056 764.089 92.5C764.089 91.125 763.688 90 763.197 90C762.707 90 762.023 88.875 761.678 87.5C761.333 86.125 760.609 85 760.07 85C759.53 85 759.089 84.325 759.089 83.5C759.089 82.675 758.675 82 758.168 82C757.662 82 756.951 80.65 756.589 79C756.227 77.35 755.516 76 755.01 76C754.503 76 754.089 75.1 754.089 74C754.089 72.889 753.422 72 752.589 72C751.674 72 751.089 71.067 751.089 69.607C751.089 68.291 750.414 66.955 749.589 66.638C748.764 66.322 748.089 65.374 748.089 64.531C748.089 63.689 747.67 63 747.159 63C746.647 63 746.084 61.987 745.909 60.75C745.63 58.79 744.913 58.461 740.339 58.198C736.131 57.955 735.089 58.203 735.089 59.448ZM806.089 119H814.089V58H806.089V119ZM835.756 58.667C834.536 59.886 835.067 63.054 836.589 63.638C837.567 64.014 838.089 65.569 838.089 68.107C838.089 70.248 838.497 72 838.995 72C839.494 72 840.211 74.25 840.589 77C840.967 79.75 841.684 82 842.183 82C842.681 82 843.089 83.157 843.089 84.571C843.089 85.986 843.764 87.818 844.589 88.643C845.414 89.468 846.089 91.911 846.089 94.071C846.089 96.232 846.481 98 846.961 98C847.441 98 848.121 99.8 848.473 102C848.825 104.2 849.557 106 850.101 106C850.644 106 851.089 107.8 851.089 110C851.089 112.2 851.49 114 851.981 114C852.471 114 853.155 115.125 853.5 116.5C854.037 118.643 854.696 119 858.108 119C861.688 119 862.089 118.748 862.089 116.5C862.089 115.125 862.534 114 863.077 114C863.621 114 864.353 112.2 864.705 110C865.057 107.8 865.737 106 866.217 106C866.697 106 867.089 104.237 867.089 102.083C867.089 99.929 867.583 98.002 868.187 97.801C868.791 97.599 869.525 95.312 869.817 92.717C870.11 90.123 870.741 88 871.219 88C871.698 88 872.089 86.682 872.089 85.071C872.089 83.461 872.764 81.468 873.589 80.643C874.414 79.818 875.089 77.536 875.089 75.571C875.089 73.607 875.534 72 876.077 72C876.621 72 877.353 70.2 877.705 68C878.057 65.8 878.737 64 879.217 64C879.697 64 880.089 62.65 880.089 61C880.089 58.167 879.867 58 876.089 58C873.2 58 872.089 58.417 872.089 59.5C872.089 60.325 871.681 61 871.183 61C870.684 61 869.967 63.25 869.589 66C869.211 68.75 868.494 71 867.995 71C867.497 71 867.089 72.752 867.089 74.893C867.089 77.431 866.567 78.986 865.589 79.362C864.648 79.723 864.089 81.252 864.089 83.469C864.089 85.411 863.639 87 863.089 87C862.539 87 862.086 88.237 862.083 89.75C862.079 91.263 861.404 93.789 860.583 95.364C859.761 96.94 859.089 99.302 859.089 100.614C859.089 103.755 857.476 103.678 856.678 100.5C856.333 99.125 855.609 98 855.07 98C854.53 98 854.089 96.286 854.089 94.191C854.089 92.096 853.428 89.509 852.621 88.441C851.813 87.374 851.138 85.038 851.121 83.25C851.103 81.462 850.698 80 850.221 80C849.743 80 849.097 78.097 848.785 75.772C848.473 73.446 847.739 71.383 847.154 71.188C846.568 70.993 846.089 69.071 846.089 66.917C846.089 64.762 845.648 63 845.108 63C844.569 63 843.845 61.875 843.5 60.5C842.993 58.48 842.253 58 839.647 58C837.874 58 836.122 58.3 835.756 58.667ZM900.339 58.662C899.378 59.05 899.089 66.086 899.089 89.083V119H939.222L938.589 113.5L924.339 113.223C915.964 113.059 910.089 112.544 910.089 111.973C910.089 111.438 909.414 111 908.589 111C907.367 111 907.089 109.333 907.089 102C907.089 96.667 907.496 93 908.089 93C908.639 93 909.089 92.325 909.089 91.5C909.089 90.276 910.79 89.997 918.339 89.985C923.426 89.976 928.264 89.533 929.089 89C930.089 88.354 930.172 88.026 929.339 88.015C928.652 88.007 928.089 87.1 928.089 86C928.089 84.147 927.422 84 919.018 84C907.665 84 907.089 83.526 907.089 74.178C907.089 68.75 907.438 67.08 908.671 66.607C909.541 66.273 915.873 66 922.742 66C936.325 66 938.089 65.376 938.089 60.571V58L919.839 58.079C909.801 58.122 901.027 58.385 900.339 58.662ZM960.91 59.321C959.673 60.559 959.293 81.004 959.937 111.75L960.089 119H970.089V93H983.089V96.5C983.089 98.425 983.49 100 983.981 100C984.471 100 985.155 101.125 985.5 102.5C985.845 103.875 986.569 105 987.108 105C987.648 105 988.089 105.868 988.089 106.929C988.089 107.989 988.764 109.532 989.589 110.357C990.414 111.182 991.089 112.821 991.089 114C991.089 117.254 993.508 119 998.018 119C1002.41 119 1003.35 117.406 1000.59 114.643C999.764 113.818 999.089 111.986 999.089 110.571C999.089 109.157 998.648 108 998.108 108C997.569 108 996.845 106.875 996.5 105.5C996.155 104.125 995.471 103 994.981 103C994.49 103 994.089 101.907 994.089 100.571C994.089 99.236 993.414 97.468 992.589 96.643C990.868 94.922 990.554 90 992.166 90C993.52 90 999.089 84.498 999.089 83.16C999.089 82.614 999.596 81.998 1000.22 81.791C1000.84 81.584 1001.56 79.154 1001.83 76.389C1002.19 72.62 1001.91 70.96 1000.7 69.753C999.813 68.867 999.089 67.311 999.089 66.294C999.089 63.976 995.709 61 993.078 61C991.977 61 991.089 60.33 991.089 59.5C991.089 58.236 988.819 58 976.66 58C966.035 58 961.884 58.348 960.91 59.321ZM1033.09 58.933C1033.09 59.446 1032.14 60.165 1030.99 60.531C1027.99 61.483 1025.09 64.664 1025.09 67C1025.09 68.1 1024.64 69 1024.09 69C1023.54 69 1023.09 70.8 1023.09 73C1023.09 75.2 1023.54 77 1024.09 77C1024.64 77 1025.09 78.125 1025.09 79.5C1025.09 81.056 1025.66 82 1026.59 82C1027.41 82 1028.09 82.675 1028.09 83.5C1028.09 84.325 1028.76 85 1029.59 85C1030.41 85 1031.09 85.45 1031.09 86C1031.09 86.55 1032 87 1033.12 87C1034.24 87 1035.41 87.675 1035.73 88.5C1036.1 89.478 1037.66 90 1040.2 90C1042.99 90 1044.09 90.424 1044.09 91.5C1044.09 92.433 1045.03 93 1046.59 93C1047.96 93 1049.09 93.401 1049.09 93.892C1049.09 94.382 1050.21 95.066 1051.59 95.411C1052.96 95.756 1054.09 96.48 1054.09 97.019C1054.09 97.559 1054.76 98 1055.59 98C1057.99 98 1057.61 106.483 1055.09 109C1053.99 110.1 1052.64 111 1052.09 111C1051.54 111 1051.09 111.45 1051.09 112C1051.09 112.556 1048.42 113 1045.09 113C1041.76 113 1039.09 112.556 1039.09 112C1039.09 111.45 1038.64 111 1038.09 111C1037.03 111 1033.09 107.397 1033.09 106.429C1033.09 105.483 1030.3 103 1029.24 103C1028.7 103 1027.99 102.438 1027.67 101.75C1027.21 100.75 1026.97 100.75 1026.51 101.75C1026.18 102.438 1025.28 103 1024.51 103C1023.66 103 1023.09 104.01 1023.09 105.5C1023.09 106.875 1023.54 108 1024.09 108C1024.64 108 1025.09 108.486 1025.09 109.079C1025.09 109.672 1027.08 112.147 1029.51 114.579C1033.09 118.16 1034.61 119 1037.51 119C1039.48 119 1041.09 119.45 1041.09 120C1041.09 120.55 1042.89 121 1045.09 121C1047.29 121 1049.09 120.55 1049.09 120C1049.09 119.45 1050.89 119 1053.09 119C1055.29 119 1057.09 118.559 1057.09 118.019C1057.09 117.48 1058.21 116.756 1059.59 116.411C1061.38 115.96 1062.09 115.109 1062.09 113.392C1062.09 111.932 1062.67 111 1063.59 111C1064.8 111 1065.09 109.444 1065.09 103C1065.09 96.556 1064.8 95 1063.59 95C1062.76 95 1062.09 94.518 1062.09 93.929C1062.09 92.544 1059.54 90 1058.16 90C1057.57 90 1057.09 89.325 1057.09 88.5C1057.09 87.567 1056.14 87 1054.59 87C1053.21 87 1052.09 86.555 1052.09 86.012C1052.09 85.468 1050.29 84.736 1048.09 84.384C1045.89 84.032 1044.09 83.352 1044.09 82.872C1044.09 82.392 1042.96 82 1041.59 82C1040.21 82 1039.09 81.536 1039.09 80.969C1039.09 80.401 1038.3 79.639 1037.34 79.275C1035.14 78.444 1033.09 76.451 1033.09 75.155C1033.09 74.611 1032.53 73.904 1031.84 73.583C1030.84 73.117 1030.84 72.883 1031.84 72.417C1032.53 72.096 1033.09 70.735 1033.09 69.392C1033.09 67.479 1033.74 66.82 1036.09 66.35C1037.74 66.02 1039.09 65.356 1039.09 64.875C1039.09 63.811 1045.79 63.694 1046.26 64.75C1046.44 65.163 1048.28 66.358 1050.34 67.407C1053.06 68.793 1054.09 69.956 1054.09 71.657C1054.09 73.724 1054.56 74 1058.09 74C1062.01 74 1062.09 73.929 1062.09 70.423C1062.09 67.803 1061.31 66.064 1059.17 63.923C1057.56 62.315 1055.95 61 1055.59 61C1055.24 61 1054.27 60.325 1053.45 59.5C1052.32 58.379 1049.56 58 1042.52 58C1037.33 58 1033.09 58.42 1033.09 58.933ZM1091.09 119H1099.09V58H1091.09V119ZM1120.09 66H1138.09V119H1141.97C1145.15 119 1145.96 118.594 1146.46 116.75C1146.79 115.513 1147.07 103.588 1147.07 90.25L1147.09 66H1154.66C1162.69 66 1165.09 64.89 1165.09 61.178C1165.09 60.098 1164.38 58.941 1163.51 58.607C1162.64 58.273 1152.51 58 1141.01 58H1120.09V66ZM1178.09 62C1178.09 64.889 1178.51 66 1179.59 66C1180.52 66 1181.09 66.944 1181.09 68.5C1181.09 69.875 1181.54 71 1182.09 71C1182.64 71 1183.09 71.689 1183.09 72.531C1183.09 73.374 1183.76 74.322 1184.59 74.638C1185.41 74.955 1186.09 76.291 1186.09 77.607C1186.09 78.923 1186.53 80 1187.07 80C1187.61 80 1188.33 81.125 1188.68 82.5C1189.02 83.875 1189.71 85 1190.2 85C1190.69 85 1191.09 85.914 1191.09 87.031C1191.09 88.149 1191.76 89.322 1192.59 89.638C1193.83 90.113 1194.09 92.736 1194.09 104.607V119H1202.09V106C1202.09 95.111 1202.33 93 1203.59 93C1204.52 93 1205.09 92.056 1205.09 90.5C1205.09 89.125 1205.43 87.995 1205.84 87.989C1206.25 87.982 1207.49 86.07 1208.58 83.739C1209.68 81.407 1211.14 78.905 1211.83 78.179C1212.52 77.452 1213.09 76.252 1213.09 75.512C1213.09 74.772 1213.43 74.017 1213.84 73.833C1214.9 73.363 1218.09 67.107 1218.09 65.502C1218.09 64.768 1218.53 64.017 1219.06 63.833C1219.59 63.65 1220.16 62.375 1220.31 61C1220.56 58.721 1220.21 58.473 1216.34 58.193C1213.03 57.953 1212.09 58.229 1212.09 59.443C1212.09 60.299 1211.64 61 1211.09 61C1210.54 61 1210.09 62.125 1210.09 63.5C1210.09 65.056 1209.52 66 1208.59 66C1207.66 66 1207.09 66.944 1207.09 68.5C1207.09 69.875 1206.67 71 1206.17 71C1205.66 71 1204.95 72.35 1204.59 74C1204.23 75.65 1203.52 77 1203.01 77C1202.5 77 1202.09 78.125 1202.09 79.5C1202.09 81.47 1201.58 82 1199.7 82C1197.98 82 1197.13 81.295 1196.68 79.5C1196.33 78.125 1195.61 77 1195.07 77C1194.53 77 1194.09 76.325 1194.09 75.5C1194.09 74.675 1193.69 74 1193.2 74C1192.71 74 1192.02 72.875 1191.68 71.5C1191.33 70.125 1190.61 69 1190.07 69C1189.53 69 1189.09 67.65 1189.09 66C1189.09 64.35 1188.65 63 1188.11 63C1187.57 63 1186.84 61.875 1186.5 60.5C1185.96 58.369 1185.3 58 1181.98 58C1178.11 58 1178.09 58.019 1178.09 62ZM1286.09 58.933C1286.09 59.446 1285.14 60.166 1283.98 60.534C1281.17 61.426 1278.09 64.139 1278.09 65.722C1278.09 66.425 1277.64 67 1277.09 67C1276.54 67 1276.07 67.788 1276.06 68.75C1276.04 69.712 1275.36 71.374 1274.56 72.441C1273.42 73.944 1273.09 77.711 1273.09 89.132C1273.09 97.245 1273.49 104.129 1273.98 104.432C1274.47 104.734 1275.16 106.168 1275.53 107.619C1276.23 110.425 1281.21 116 1283.01 116C1283.6 116 1284.09 116.675 1284.09 117.5C1284.09 118.583 1285.2 119 1288.09 119C1290.29 119 1292.09 119.45 1292.09 120C1292.09 120.55 1293.89 121 1296.09 121C1298.29 121 1300.09 120.55 1300.09 120C1300.09 119.45 1301.89 119 1304.09 119C1306.29 119 1308.09 118.559 1308.09 118.019C1308.09 117.48 1309.21 116.756 1310.59 116.411C1311.96 116.066 1313.09 115.157 1313.09 114.392C1313.09 113.626 1313.53 113 1314.07 113C1314.61 113 1315.33 111.875 1315.68 110.5C1316.02 109.125 1316.71 108 1317.2 108C1317.69 108 1318.09 106.463 1318.09 104.583C1318.09 102.704 1318.65 100.98 1319.34 100.751C1320.2 100.464 1320.69 97.094 1320.92 89.826C1321.2 81.247 1320.97 79.024 1319.67 77.729C1318.8 76.857 1318.09 74.536 1318.09 72.571C1318.09 70.607 1317.64 69 1317.09 69C1316.54 69 1316.09 68.325 1316.09 67.5C1316.09 66.675 1315.46 66 1314.7 66C1313.93 66 1313.02 64.875 1312.68 63.5C1312.27 61.869 1311.35 61 1310.04 61C1308.93 61 1307.77 60.325 1307.45 59.5C1306.99 58.3 1304.8 58 1296.48 58C1290.72 58 1286.09 58.416 1286.09 58.933ZM1342.09 119H1350.09V105.929C1350.09 95.933 1350.42 92.521 1351.52 91.429C1352.57 90.38 1355.62 90 1363.02 90C1372.97 90 1373.09 89.973 1373.09 87.607C1373.09 84.468 1371.58 84 1361.44 84C1350.61 84 1350.09 83.517 1350.09 73.571V66H1379.09V58H1342.09V119ZM1444.09 58.933C1444.09 59.446 1443.1 60.18 1441.89 60.565C1439.29 61.387 1437.73 62.832 1436.81 65.25C1436.45 66.212 1435.69 67 1435.12 67C1434.55 67 1434.09 68.575 1434.09 70.5C1434.09 73.014 1433.65 74 1432.52 74C1431.14 74 1430.99 75.959 1431.27 89.668C1431.5 101.079 1431.93 105.449 1432.84 105.751C1433.53 105.98 1434.09 107.064 1434.09 108.16C1434.09 110.254 1439.16 116 1441.01 116C1441.6 116 1442.09 116.675 1442.09 117.5C1442.09 118.633 1443.31 119 1447.09 119C1449.84 119 1452.09 119.45 1452.09 120C1452.09 120.55 1453.21 121 1454.59 121C1455.96 121 1457.09 120.55 1457.09 120C1457.09 119.45 1459.11 119 1461.59 119C1464.92 119 1466.09 118.611 1466.09 117.5C1466.09 116.675 1466.57 116 1467.16 116C1468.54 116 1471.09 113.456 1471.09 112.071C1471.09 111.482 1471.53 111 1472.07 111C1472.61 111 1473.33 109.875 1473.68 108.5C1474.02 107.125 1474.71 106 1475.2 106C1476.76 106 1476.15 101.238 1474.51 100.607C1471.08 99.291 1468.09 99.94 1468.09 102C1468.09 103.1 1467.64 104 1467.09 104C1466.54 104 1466.09 104.9 1466.09 106C1466.09 107.111 1465.42 108 1464.59 108C1463.76 108 1463.09 108.675 1463.09 109.5C1463.09 110.325 1462.41 111 1461.59 111C1460.76 111 1460.09 111.45 1460.09 112C1460.09 112.55 1457.84 113 1455.09 113C1452.34 113 1450.09 112.55 1450.09 112C1450.09 111.45 1448.96 111 1447.59 111C1446.03 111 1445.09 110.433 1445.09 109.5C1445.09 108.675 1444.41 108 1443.59 108C1442.67 108 1442.09 107.065 1442.09 105.583C1442.09 104.254 1441.53 102.979 1440.84 102.75C1439.92 102.443 1439.59 98.677 1439.59 88.499C1439.59 78.322 1439.92 74.556 1440.84 74.25C1441.53 74.021 1442.09 72.746 1442.09 71.417C1442.09 69.935 1442.67 69 1443.59 69C1444.41 69 1445.09 68.559 1445.09 68.019C1445.09 67.48 1446.21 66.756 1447.59 66.411C1448.96 66.066 1450.09 65.382 1450.09 64.892C1450.09 64.401 1451.66 64 1453.59 64C1455.51 64 1457.09 64.45 1457.09 65C1457.09 65.55 1457.92 66 1458.94 66C1461.89 66 1465.14 69.52 1465.77 73.409C1466.32 76.811 1466.55 77 1470.22 77C1474.05 77 1474.09 76.966 1474.09 73.071C1474.09 70.911 1473.41 68.468 1472.59 67.643C1471.76 66.818 1471.09 65.436 1471.09 64.571C1471.09 63.707 1470.41 63 1469.59 63C1468.76 63 1468.09 62.647 1468.09 62.216C1468.09 61.784 1466.78 60.659 1465.18 59.716C1463.01 58.433 1459.98 58 1453.18 58C1448.18 58 1444.09 58.42 1444.09 58.933ZM1508.09 62C1508.09 64.889 1507.67 66 1506.59 66C1505.51 66 1505.09 67.111 1505.09 70C1505.09 72.2 1504.7 74 1504.22 74C1503.74 74 1503.06 75.8 1502.7 78C1502.35 80.2 1501.62 82 1501.08 82C1500.53 82 1500.09 83.762 1500.09 85.917C1500.09 88.071 1499.59 89.998 1498.99 90.199C1498.39 90.401 1497.65 92.688 1497.36 95.283C1497.07 97.877 1496.44 100 1495.96 100C1495.48 100 1495.09 101.318 1495.09 102.929C1495.09 104.539 1494.41 106.532 1493.59 107.357C1492.76 108.182 1492.09 110.464 1492.09 112.429C1492.09 114.393 1491.64 116 1491.09 116C1490.54 116 1490.09 116.675 1490.09 117.5C1490.09 118.633 1491.31 119 1495.09 119H1500.09V115.429C1500.09 113.464 1500.76 111.182 1501.59 110.357C1502.41 109.532 1503.09 107.732 1503.09 106.357C1503.09 101.959 1505.15 101 1514.59 101C1524.03 101 1526.09 101.959 1526.09 106.357C1526.09 107.732 1526.76 109.532 1527.59 110.357C1528.41 111.182 1529.09 113.464 1529.09 115.429V119H1534.09C1536.84 119 1539.09 118.55 1539.09 118C1539.09 117.45 1538.64 117 1538.09 117C1537.54 117 1537.09 115.168 1537.09 112.929C1537.09 110.643 1536.43 108.199 1535.59 107.357C1534.76 106.532 1534.09 104.539 1534.09 102.929C1534.09 101.318 1533.64 100 1533.09 100C1532.54 100 1532.09 98.411 1532.09 96.469C1532.09 94.252 1531.53 92.723 1530.59 92.362C1529.54 91.958 1529.09 90.32 1529.09 86.893C1529.09 84.202 1528.64 82 1528.1 82C1527.56 82 1526.82 80.2 1526.47 78C1526.12 75.8 1525.44 74 1524.96 74C1524.48 74 1524.09 72.2 1524.09 70C1524.09 67.111 1523.67 66 1522.59 66C1521.51 66 1521.09 64.889 1521.09 62V58H1508.09V62ZM1558.09 119H1595.09V113H1582.09C1574.09 113 1569.09 112.615 1569.09 112C1569.09 111.45 1568.41 111 1567.59 111C1566.29 111 1566.09 107.389 1566.09 84.5V58H1558.09V119ZM1617.34 58.662C1616.38 59.05 1616.09 66.086 1616.09 89.083V119H1626.09V89.107C1626.09 62.771 1625.9 59.142 1624.51 58.607C1622.68 57.905 1619.15 57.932 1617.34 58.662ZM1653.09 119H1661.09V105.929C1661.09 95.933 1661.42 92.521 1662.52 91.429C1663.54 90.409 1666.47 89.996 1672.77 89.985C1677.62 89.976 1682.26 89.533 1683.09 89C1684.09 88.354 1684.17 88.026 1683.34 88.015C1682.65 88.007 1682.09 87.1 1682.09 86C1682.09 84.127 1681.42 84 1671.59 84H1661.09V66H1690.09V58H1653.09V119ZM1719.09 59.5C1719.09 60.325 1718.6 61 1718.01 61C1716.86 61 1711.09 66.413 1711.09 67.495C1711.09 67.851 1710.41 68.818 1709.59 69.643C1708.76 70.468 1708.09 72.911 1708.09 75.071C1708.09 77.232 1707.64 79 1707.09 79C1706.49 79 1706.09 83.167 1706.09 89.5C1706.09 95.833 1706.49 100 1707.09 100C1707.64 100 1708.09 101.8 1708.09 104C1708.09 106.889 1708.51 108 1709.59 108C1710.41 108 1711.09 108.675 1711.09 109.5C1711.09 110.325 1711.49 111 1711.98 111C1712.47 111 1713.14 112.075 1713.47 113.389C1713.83 114.837 1715.06 116.027 1716.58 116.408C1717.96 116.755 1719.09 117.48 1719.09 118.019C1719.09 118.559 1720.89 119 1723.09 119C1725.29 119 1727.09 119.45 1727.09 120C1727.09 120.55 1728.66 121 1730.59 121C1732.51 121 1734.09 120.55 1734.09 120C1734.09 119.45 1736.11 119 1738.59 119C1741.92 119 1743.09 118.611 1743.09 117.5C1743.09 116.675 1743.57 116 1744.16 116C1745.54 116 1748.09 113.456 1748.09 112.071C1748.09 111.482 1748.53 111 1749.07 111C1749.61 111 1750.33 109.875 1750.68 108.5C1751.02 107.125 1751.71 106 1752.2 106C1752.69 106 1753.09 104.032 1753.09 101.626C1753.09 99.22 1753.76 95.356 1754.57 93.04C1755.75 89.704 1755.83 87.964 1754.96 84.664C1754.36 82.374 1753.65 78.587 1753.38 76.25C1753.11 73.913 1752.52 72 1752.07 72C1751.62 72 1750.95 70.65 1750.59 69C1750.23 67.35 1749.52 66 1749.01 66C1748.5 66 1748.09 65.325 1748.09 64.5C1748.09 63.675 1747.41 63 1746.59 63C1745.76 63 1745.09 62.55 1745.09 62C1745.09 61.45 1744.61 61 1744.02 61C1743.43 61 1742.27 60.325 1741.45 59.5C1740.3 58.358 1737.45 58 1729.52 58C1720.91 58 1719.09 58.263 1719.09 59.5ZM1777.09 119H1785.09V93H1791.59C1797.86 93 1798.09 93.09 1798.09 95.5C1798.09 96.875 1798.53 98 1799.07 98C1799.61 98 1800.33 99.125 1800.68 100.5C1801.02 101.875 1801.71 103 1802.2 103C1802.69 103 1803.09 104.139 1803.09 105.531C1803.09 106.924 1803.76 108.322 1804.59 108.638C1805.41 108.955 1806.09 110.291 1806.09 111.607C1806.09 112.923 1806.54 114 1807.09 114C1807.64 114 1808.09 115.125 1808.09 116.5C1808.09 118.807 1808.45 119 1812.72 119H1817.35L1816.74 115.258C1816.41 113.2 1815.68 111.362 1815.11 111.175C1814.55 110.987 1814.09 109.746 1814.09 108.417C1814.09 107.088 1813.67 106 1813.17 106C1812.66 106 1811.95 104.65 1811.59 103C1811.23 101.35 1810.52 100 1810.01 100C1809.5 100 1809.09 99.086 1809.09 97.969C1809.09 96.851 1808.41 95.678 1807.59 95.362C1806.76 95.045 1806.09 93.709 1806.09 92.393C1806.09 90.933 1806.67 90 1807.59 90C1808.41 90 1809.09 89.559 1809.09 89.019C1809.09 88.48 1810.21 87.756 1811.59 87.411C1813.38 86.96 1814.09 86.109 1814.09 84.392C1814.09 82.932 1814.67 82 1815.59 82C1816.78 82 1817.09 80.563 1817.09 75.071C1817.09 70.246 1816.63 67.688 1815.59 66.643C1814.76 65.818 1814.09 64.854 1814.09 64.5C1814.09 63.213 1811.5 61.321 1808.83 60.65C1807.32 60.271 1806.09 59.52 1806.09 58.981C1806.09 58.385 1800.4 58 1791.59 58H1777.09V119ZM1843.09 119H1851.09V95C1851.09 79.667 1851.45 71 1852.09 71C1852.64 71 1853.09 71.675 1853.09 72.5C1853.09 73.325 1853.76 74 1854.59 74C1855.59 74 1856.09 75 1856.09 77C1856.09 78.65 1856.53 80 1857.07 80C1857.61 80 1858.33 81.125 1858.68 82.5C1859.02 83.875 1859.71 85 1860.2 85C1860.69 85 1861.09 85.689 1861.09 86.531C1861.09 87.374 1861.76 88.322 1862.59 88.638C1863.41 88.955 1864.09 90.066 1864.09 91.107C1864.09 92.148 1864.49 93 1864.98 93C1865.47 93 1866.15 94.125 1866.5 95.5C1866.84 96.875 1867.57 98 1868.11 98C1868.65 98 1869.09 99.125 1869.09 100.5C1869.09 102.056 1869.66 103 1870.59 103C1871.52 103 1872.09 103.944 1872.09 105.5C1872.09 106.875 1872.49 108 1872.98 108C1873.47 108 1874.15 109.125 1874.5 110.5C1874.84 111.875 1875.57 113 1876.11 113C1876.65 113 1877.09 113.707 1877.09 114.571C1877.09 117.255 1879.78 119 1883.91 119H1887.87L1887.94 90.778C1887.98 75.256 1887.76 61.531 1887.44 60.278C1886.99 58.486 1886.17 58 1883.59 58C1879.25 58 1879.15 58.538 1879.63 80.9C1879.84 91.02 1879.76 99.717 1879.45 100.225C1878.6 101.603 1875.09 97.406 1875.09 95.01C1875.09 93.87 1874.41 92.678 1873.59 92.362C1872.76 92.045 1872.09 90.709 1872.09 89.393C1872.09 88.077 1871.65 87 1871.11 87C1870.57 87 1869.84 85.875 1869.5 84.5C1869.15 83.125 1868.52 82 1868.09 82C1867.66 82 1867.02 80.875 1866.68 79.5C1866.33 78.125 1865.61 77 1865.07 77C1864.53 77 1864.09 76.325 1864.09 75.5C1864.09 74.675 1863.65 74 1863.11 74C1862.57 74 1861.84 72.875 1861.5 71.5C1861.15 70.125 1860.52 69 1860.09 69C1859.66 69 1859.02 67.875 1858.68 66.5C1858.33 65.125 1857.61 64 1857.07 64C1856.53 64 1856.09 62.923 1856.09 61.607C1856.09 58.72 1854.47 58 1848.01 58H1843.09V119ZM1915.34 58.662C1914.38 59.05 1914.09 66.086 1914.09 89.083V119H1924.09V89.107C1924.09 62.771 1923.9 59.142 1922.51 58.607C1920.68 57.905 1917.15 57.932 1915.34 58.662ZM1964.09 59.5C1964.09 60.325 1963.64 61 1963.1 61C1962.56 61 1961.82 62.8 1961.47 65C1961.12 67.2 1960.44 69 1959.96 69C1959.48 69 1959.09 70.768 1959.09 72.929C1959.09 75.089 1958.41 77.532 1957.59 78.357C1956.76 79.182 1956.09 81.464 1956.09 83.429C1956.09 85.393 1955.64 87 1955.1 87C1954.56 87 1953.82 88.8 1953.47 91C1953.12 93.2 1952.44 95 1951.96 95C1951.48 95 1951.09 96.8 1951.09 99C1951.09 101.2 1950.64 103 1950.1 103C1949.56 103 1948.82 104.8 1948.47 107C1948.12 109.2 1947.44 111 1946.96 111C1946.48 111 1946.09 112.8 1946.09 115V119H1950.09C1952.98 119 1954.09 118.583 1954.09 117.5C1954.09 116.675 1954.48 116 1954.96 116C1955.44 116 1956.07 113.877 1956.36 111.283C1956.65 108.688 1957.39 106.401 1957.99 106.199C1958.59 105.998 1959.09 104.746 1959.09 103.417C1959.09 101.015 1959.15 101 1969.59 101H1980.09V103.5C1980.09 104.875 1980.5 106 1980.99 106C1981.49 106 1982.21 108.25 1982.59 111C1982.97 113.75 1983.68 116 1984.18 116C1984.68 116 1985.09 116.675 1985.09 117.5C1985.09 118.583 1986.2 119 1989.09 119C1992.87 119 1993.09 118.833 1993.09 116C1993.09 114.35 1992.64 113 1992.09 113C1991.54 113 1991.09 111.457 1991.09 109.571C1991.09 107.686 1990.41 105.468 1989.59 104.643C1988.76 103.818 1988.07 101.648 1988.06 99.821C1988.04 97.995 1987.36 95.626 1986.56 94.559C1985.75 93.491 1985.09 91.354 1985.09 89.809C1985.09 88.264 1984.64 87 1984.09 87C1983.54 87 1983.09 85.411 1983.09 83.469C1983.09 81.252 1982.53 79.723 1981.59 79.362C1980.54 78.958 1980.09 77.32 1980.09 73.893C1980.09 71.202 1979.64 69 1979.1 69C1978.56 69 1977.82 67.2 1977.47 65C1977.12 62.8 1976.44 61 1975.96 61C1975.48 61 1975.09 60.325 1975.09 59.5C1975.09 58.348 1973.81 58 1969.59 58C1965.37 58 1964.09 58.348 1964.09 59.5ZM1299.09 65C1299.09 65.55 1300.05 66 1301.22 66C1304.32 66 1310.09 72.5 1310.09 75.988C1310.09 77.553 1310.65 79.021 1311.34 79.25C1312.21 79.541 1312.59 82.322 1312.59 88.5C1312.59 94.678 1312.21 97.459 1311.34 97.75C1310.65 97.979 1310.09 99.739 1310.09 101.66C1310.09 104.188 1309.28 105.962 1307.17 108.077C1305.56 109.685 1303.76 111 1303.17 111C1302.57 111 1302.09 111.45 1302.09 112C1302.09 112.55 1299.84 113 1297.09 113C1294.34 113 1292.09 112.55 1292.09 112C1292.09 111.45 1291.19 111 1290.09 111C1287.51 111 1284.09 107.576 1284.09 105C1284.09 103.889 1283.42 103 1282.59 103C1281.33 103 1281.09 100.841 1281.09 89.571C1281.09 78.968 1281.4 75.827 1282.59 74.643C1283.41 73.818 1284.09 72.867 1284.09 72.529C1284.09 71.935 1285.16 70.512 1287.91 67.465C1288.64 66.659 1290.32 66 1291.66 66C1293 66 1294.09 65.55 1294.09 65C1294.09 64.45 1295.21 64 1296.59 64C1297.96 64 1299.09 64.45 1299.09 65ZM1734.09 65C1734.09 65.55 1734.92 66 1735.94 66C1738.02 66 1742.09 69.175 1742.09 70.796C1742.09 71.38 1742.77 72.543 1743.61 73.382C1744.82 74.591 1745.16 77.741 1745.22 88.578C1745.27 96.441 1744.89 102.515 1744.33 102.874C1743.8 103.218 1743.04 104.513 1742.66 105.75C1742.27 106.987 1741.53 108 1741.02 108C1740.51 108 1740.09 108.675 1740.09 109.5C1740.09 110.433 1739.14 111 1737.59 111C1736.21 111 1735.09 111.45 1735.09 112C1735.09 112.55 1732.84 113 1730.09 113C1727.34 113 1725.09 112.55 1725.09 112C1725.09 111.45 1724.38 111 1723.52 111C1721.76 111 1719.09 108.677 1719.09 107.155C1719.09 106.611 1718.61 106.007 1718.02 105.812C1717.44 105.617 1716.7 103.554 1716.39 101.228C1716.08 98.903 1715.43 97 1714.96 97C1714.48 97 1714.09 93.625 1714.09 89.5C1714.09 85.167 1714.51 82 1715.09 82C1715.64 82 1716.09 80.232 1716.09 78.071C1716.09 75.911 1716.76 73.468 1717.59 72.643C1718.41 71.818 1719.09 70.891 1719.09 70.583C1719.09 68.992 1722.82 66 1724.81 66C1726.06 66 1727.09 65.55 1727.09 65C1727.09 64.45 1728.66 64 1730.59 64C1732.51 64 1734.09 64.45 1734.09 65ZM988.839 66.63C990.162 66.985 991.089 68.009 991.089 69.117C991.089 70.152 991.539 71 992.089 71C992.639 71 993.089 72.8 993.089 75C993.089 77.2 992.639 79 992.089 79C991.539 79 991.089 79.675 991.089 80.5C991.089 81.325 990.451 82 989.672 82C988.893 82 988.069 82.561 987.84 83.247C987.564 84.076 984.52 84.613 978.757 84.849L970.089 85.205V66L978.339 66.014C982.876 66.021 987.602 66.299 988.839 66.63ZM1516.02 71.75C1516.06 72.987 1516.54 74 1517.09 74C1517.64 74 1518.09 75.768 1518.09 77.929C1518.09 80.089 1518.76 82.532 1519.59 83.357C1520.43 84.199 1521.09 86.643 1521.09 88.929V93H1508.09V88.929C1508.09 86.643 1508.75 84.199 1509.59 83.357C1510.41 82.532 1511.09 80.089 1511.09 77.929C1511.09 75.768 1511.54 74 1512.09 74C1512.64 74 1513.09 72.5 1513.09 70.667C1513.09 68.833 1513.41 67.01 1513.81 66.615C1514.67 65.747 1515.92 68.642 1516.02 71.75ZM1805.94 67.867C1807.7 69.4 1808.09 70.834 1808.09 75.867C1808.09 81.244 1807.85 82 1806.17 82C1805.12 82 1804.07 82.563 1803.84 83.25C1803.56 84.093 1800.44 84.614 1794.26 84.849L1785.09 85.199V66H1794.44C1802.13 66 1804.16 66.331 1805.94 67.867ZM484.643 78C485.03 82.95 485.739 87 486.218 87C486.697 87 487.089 90.064 487.089 93.809C487.089 98.248 487.6 101.293 488.557 102.559C489.526 103.84 490.036 106.966 490.057 111.75C490.075 115.737 490.49 119 490.981 119C491.471 119 492.155 120.125 492.5 121.5C492.845 122.875 493.52 124 494 124C494.48 124 495.155 122.875 495.5 121.5C495.845 120.125 496.569 119 497.108 119C497.648 119 498.089 118.325 498.089 117.5C498.089 116.675 498.53 116 499.07 116C499.609 116 500.333 114.875 500.678 113.5C501.023 112.125 501.707 111 502.197 111C502.688 111 503.089 110.325 503.089 109.5C503.089 108.675 503.509 108 504.022 108C504.535 108 505.272 106.987 505.661 105.75C506.049 104.513 507.429 102.509 508.728 101.298C510.027 100.087 511.089 98.447 511.089 97.655C511.089 96.862 511.764 95.955 512.589 95.638C513.414 95.322 514.089 94.374 514.089 93.531C514.089 92.689 514.539 92 515.089 92C515.639 92 516.089 91.086 516.089 89.969C516.089 88.851 516.764 87.678 517.589 87.362C518.414 87.045 519.089 86.159 519.089 85.393C519.089 84.627 519.53 84 520.07 84C520.609 84 521.333 82.875 521.678 81.5C522.023 80.125 522.655 79 523.081 79C523.507 79 524.14 77.987 524.488 76.75C525.027 74.834 525.26 74.734 526.057 76.075C527.103 77.836 526.341 82 524.972 82C524.487 82 524.089 83.157 524.089 84.571C524.089 85.986 523.414 87.818 522.589 88.643C521.764 89.468 521.089 91.461 521.089 93.071C521.089 94.682 520.639 96 520.089 96C519.539 96 519.089 97.382 519.089 99.071C519.089 100.761 518.414 102.818 517.589 103.643C516.764 104.468 516.089 106.461 516.089 108.071C516.089 109.682 515.681 111 515.183 111C514.684 111 513.967 113.25 513.589 116C513.211 118.75 512.494 121 511.995 121C511.497 121 511.089 122.8 511.089 125C511.089 127.889 510.672 129 509.589 129C508.589 129 508.089 130 508.089 132C508.089 134.543 508.474 135 510.62 135C512.013 135 513.411 134.325 513.727 133.5C514.044 132.675 514.93 132 515.696 132C516.462 132 517.089 131.55 517.089 131C517.089 130.45 518.003 130 519.12 130C520.238 130 521.411 129.325 521.727 128.5C522.044 127.675 523.38 127 524.696 127C526.156 127 527.089 126.415 527.089 125.5C527.089 124.635 527.993 124 529.224 124C530.399 124 532.402 122.875 533.677 121.5C534.951 120.125 536.915 119 538.041 119C539.168 119 540.089 118.559 540.089 118.019C540.089 117.48 541.214 116.756 542.589 116.411C543.964 116.066 545.089 115.382 545.089 114.892C545.089 114.401 545.764 114 546.589 114C547.414 114 548.089 113.325 548.089 112.5C548.089 111.567 549.033 111 550.589 111C551.964 111 553.089 110.559 553.089 110.019C553.089 109.48 554.214 108.756 555.589 108.411C556.964 108.066 558.089 107.382 558.089 106.892C558.089 106.401 558.764 106 559.589 106C560.414 106 561.089 106.45 561.089 107C561.089 107.55 560.414 108 559.589 108C558.764 108 558.089 108.509 558.089 109.132C558.089 109.754 556.514 111.749 554.589 113.565C552.664 115.38 551.089 117.346 551.089 117.933C551.089 118.52 550.414 119 549.589 119C548.764 119 548.089 119.675 548.089 120.5C548.089 121.325 547.607 122 547.018 122C545.633 122 543.089 124.544 543.089 125.929C543.089 126.518 542.414 127 541.589 127C540.764 127 540.089 127.482 540.089 128.071C540.089 129.456 537.545 132 536.16 132C535.571 132 535.089 132.675 535.089 133.5C535.089 134.325 534.414 135 533.589 135C532.764 135 532.089 135.469 532.089 136.042C532.089 137.454 527.435 142.737 522.621 146.789C521.778 147.499 521.089 148.799 521.089 149.678C521.089 151.066 522.306 151.208 530.301 150.752C535.735 150.442 539.666 149.77 539.885 149.113C540.128 148.382 544.175 148 551.672 148C557.951 148 563.089 147.599 563.089 147.109C563.089 146.619 568.039 145.895 574.089 145.5C580.139 145.105 585.089 144.381 585.089 143.891C585.089 143.401 588.014 143 591.589 143C595.256 143 598.089 143.436 598.089 144C598.089 144.55 596.771 145 595.16 145C593.55 145 591.557 145.675 590.732 146.5C589.907 147.325 587.625 148 585.66 148C583.696 148 582.089 148.445 582.089 148.988C582.089 149.532 580.289 150.264 578.089 150.616C575.889 150.968 574.089 151.648 574.089 152.128C574.089 152.608 572.5 153 570.558 153C568.341 153 566.812 153.559 566.451 154.5C566.075 155.478 564.52 156 561.982 156C559.841 156 558.089 156.392 558.089 156.872C558.089 157.352 556.289 158.032 554.089 158.384C551.889 158.736 550.089 159.468 550.089 160.012C550.089 160.555 548.514 161 546.589 161C544.664 161 543.089 161.445 543.089 161.988C543.089 162.532 541.289 163.264 539.089 163.616C536.889 163.968 535.089 164.648 535.089 165.128C535.089 165.608 533.289 166 531.089 166C528.2 166 527.089 166.417 527.089 167.5C527.089 168.325 526.414 169 525.589 169C524.764 169 524.089 169.402 524.089 169.893C524.089 171.049 526.609 172 529.671 172C531.001 172 532.089 172.445 532.089 172.988C532.089 173.532 533.889 174.264 536.089 174.616C538.289 174.968 540.089 175.648 540.089 176.128C540.089 176.608 541.246 177 542.66 177C544.075 177 545.907 177.675 546.732 178.5C547.557 179.325 549.325 180 550.66 180C551.996 180 553.089 180.392 553.089 180.872C553.089 181.352 554.889 182.032 557.089 182.384C559.289 182.736 561.089 183.468 561.089 184.012C561.089 184.555 562.696 185 564.66 185C566.625 185 568.907 185.675 569.732 186.5C570.557 187.325 572.55 188 574.16 188C575.771 188 577.089 188.45 577.089 189C577.089 189.55 578.128 190 579.398 190C580.668 190 582.58 190.661 583.648 191.468C584.715 192.276 587.051 192.951 588.839 192.968C590.627 192.986 592.089 193.45 592.089 194C592.089 194.593 588.422 195 583.089 195C578.139 195 574.089 194.61 574.089 194.134C574.089 193.657 569.697 193.056 564.329 192.797C558.961 192.539 553.591 191.804 552.395 191.164C551.199 190.524 546.178 190 541.238 190C535.531 190 532.12 189.594 531.885 188.887C531.472 187.65 520.69 187.075 519.531 188.228C519.129 188.628 521.115 191.164 523.945 193.862C526.774 196.561 529.089 199.271 529.089 199.884C529.089 200.498 529.567 201 530.151 201C531.45 201 545.089 214.753 545.089 216.063C545.089 216.578 545.571 217 546.16 217C547.545 217 550.089 219.544 550.089 220.929C550.089 221.518 550.764 222 551.589 222C552.414 222 553.089 222.675 553.089 223.5C553.089 224.325 553.571 225 554.16 225C555.545 225 558.089 227.544 558.089 228.929C558.089 229.518 558.764 230 559.589 230C560.414 230 561.089 230.675 561.089 231.5C561.089 232.325 561.539 233 562.089 233C562.639 233 563.089 233.45 563.089 234C563.089 234.55 562.189 235 561.089 235C559.978 235 559.089 234.333 559.089 233.5C559.089 232.675 558.414 232 557.589 232C556.764 232 556.089 231.599 556.089 231.108C556.089 230.618 554.964 229.934 553.589 229.589C552.214 229.244 551.089 228.52 551.089 227.981C551.089 227.441 550.395 227 549.547 227C548.123 227 547.168 226.403 543.758 223.382C543.064 222.767 541.504 221.949 540.292 221.565C539.081 221.18 538.089 220.446 538.089 219.933C538.089 219.42 537.189 219 536.089 219C534.989 219 534.089 218.559 534.089 218.019C534.089 217.48 532.964 216.756 531.589 216.411C530.214 216.066 529.089 215.382 529.089 214.892C529.089 214.401 528.175 214 527.058 214C525.94 214 524.767 213.325 524.451 212.5C524.134 211.675 523.248 211 522.482 211C521.716 211 521.089 210.559 521.089 210.019C521.089 209.48 519.964 208.756 518.589 208.411C517.214 208.066 516.089 207.382 516.089 206.892C516.089 206.401 515.607 206 515.018 206C514.428 206 513.271 205.325 512.446 204.5C509.7 201.754 508.089 202.678 508.089 207C508.089 209.889 508.506 211 509.589 211C510.672 211 511.089 212.111 511.089 215C511.089 217.2 511.534 219 512.077 219C512.621 219 513.353 220.8 513.705 223C514.057 225.2 514.737 227 515.217 227C515.697 227 516.089 228.8 516.089 231C516.089 233.889 516.506 235 517.589 235C518.672 235 519.089 236.111 519.089 239C519.089 241.2 519.481 243 519.961 243C520.441 243 521.121 244.8 521.473 247C521.825 249.2 522.557 251 523.101 251C523.644 251 524.089 252.537 524.089 254.417C524.089 256.296 524.506 257.983 525.015 258.167C525.524 258.35 526.248 259.737 526.623 261.25C527.155 263.393 526.951 264 525.697 264C524.648 264 524.089 263.13 524.089 261.5C524.089 260.125 523.639 259 523.089 259C522.539 259 522.089 258.325 522.089 257.5C522.089 256.675 521.414 256 520.589 256C519.656 256 519.089 255.056 519.089 253.5C519.089 251.944 518.522 251 517.589 251C516.764 251 516.089 250.325 516.089 249.5C516.089 248.675 515.688 248 515.197 248C514.707 248 514.023 246.875 513.678 245.5C513.333 244.125 512.609 243 512.07 243C511.53 243 511.089 242.325 511.089 241.5C511.089 240.675 510.648 240 510.108 240C509.569 240 508.845 238.875 508.5 237.5C508.155 236.125 507.471 235 506.981 235C506.49 235 506.089 234.325 506.089 233.5C506.089 232.675 505.414 232 504.589 232C503.724 232 503.089 231.096 503.089 229.865C503.089 228.69 501.964 226.687 500.589 225.412C499.214 224.138 498.089 222.174 498.089 221.048C498.089 219.894 497.434 219 496.589 219C495.764 219 495.089 218.288 495.089 217.417C495.089 214.779 492.612 216.459 492.273 219.327C492.099 220.797 491.536 222 491.023 222C490.509 222 490.089 224.714 490.089 228.032C490.089 231.35 489.414 235.68 488.589 237.654C487.716 239.745 487.089 244.326 487.089 248.622C487.089 252.68 486.686 256 486.193 256C485.7 256 484.978 259.6 484.589 264C484.2 268.4 483.478 272 482.985 272C482.492 272 482.089 273.098 482.089 274.441C482.089 275.784 481.624 277.169 481.055 277.521C480.349 277.957 480.263 274.094 480.785 265.33C481.205 258.273 481.66 212 481.796 162.5C481.932 113 482.053 71.712 482.066 70.75C482.079 69.788 482.505 69 483.014 69C483.523 69 484.256 73.05 484.643 78ZM1972.09 73.917C1972.09 76.621 1972.57 78.993 1973.15 79.188C1973.74 79.383 1974.47 81.446 1974.78 83.772C1975.1 86.097 1975.74 88 1976.22 88C1976.7 88 1977.09 89.125 1977.09 90.5C1977.09 92.944 1976.92 93 1969.59 93C1962.26 93 1962.09 92.944 1962.09 90.5C1962.09 89.125 1962.54 88 1963.09 88C1963.64 88 1964.1 86.313 1964.12 84.25C1964.14 82.188 1964.81 79.626 1965.62 78.559C1966.43 77.491 1967.09 74.904 1967.09 72.809C1967.09 69.413 1967.36 69 1969.59 69C1971.92 69 1972.09 69.339 1972.09 73.917ZM1398.84 134.67C1396.23 134.912 1394.09 135.535 1394.09 136.055C1394.09 136.575 1392.32 137 1390.16 137C1388 137 1385.56 137.675 1384.73 138.5C1383.91 139.325 1381.62 140 1379.66 140C1377.7 140 1376.09 140.441 1376.09 140.981C1376.09 141.52 1374.96 142.244 1373.59 142.589C1372.21 142.934 1371.09 143.618 1371.09 144.108C1371.09 144.599 1370.41 145 1369.59 145C1368.76 145 1368.09 145.675 1368.09 146.5C1368.09 147.433 1367.14 148 1365.59 148C1364.03 148 1363.09 148.567 1363.09 149.5C1363.09 150.325 1362.6 151 1362.01 151C1360.88 151 1355.09 156.405 1355.09 157.465C1355.09 158.18 1353.71 159.887 1349.84 163.955C1348.3 165.575 1347.09 167.979 1347.09 169.423C1347.09 171.047 1346.53 172 1345.59 172C1344.54 172 1344.09 173.056 1344.09 175.5C1344.09 177.425 1343.7 179 1343.22 179C1342.74 179 1342.1 180.903 1341.78 183.228C1341.47 185.554 1340.74 187.617 1340.15 187.812C1339.45 188.046 1339.09 194.71 1339.09 207.469C1339.09 222.646 1339.41 227.384 1340.58 229.636C1341.4 231.211 1342.08 233.738 1342.08 235.25C1342.09 236.762 1342.54 238 1343.09 238C1343.64 238 1344.09 239.093 1344.09 240.429C1344.09 241.764 1344.76 243.532 1345.59 244.357C1346.41 245.182 1347.09 247.014 1347.09 248.429C1347.09 249.843 1347.49 251 1347.98 251C1348.47 251 1349.15 252.125 1349.5 253.5C1349.84 254.875 1350.57 256 1351.11 256C1351.65 256 1352.09 256.675 1352.09 257.5C1352.09 258.325 1352.51 259 1353.02 259C1353.53 259 1354.27 260.012 1354.66 261.25C1355.05 262.488 1356.43 264.491 1357.73 265.702C1359.03 266.913 1360.09 268.359 1360.09 268.914C1360.09 269.469 1361.89 271.705 1364.09 273.883C1366.29 276.061 1368.09 278.328 1368.09 278.922C1368.09 279.515 1368.76 280 1369.59 280C1370.41 280 1371.09 280.482 1371.09 281.071C1371.09 282.456 1373.63 285 1375.02 285C1375.61 285 1376.09 285.675 1376.09 286.5C1376.09 287.325 1376.57 288 1377.16 288C1378.54 288 1381.09 290.544 1381.09 291.929C1381.09 292.518 1381.76 293 1382.59 293C1383.41 293 1384.09 293.42 1384.09 293.933C1384.09 294.446 1385.03 295.166 1386.19 295.533C1387.35 295.9 1390.45 298.405 1393.09 301.1C1395.73 303.795 1398.38 306 1398.99 306C1399.59 306 1400.09 306.675 1400.09 307.5C1400.09 308.433 1401.03 309 1402.59 309C1403.96 309 1405.09 309.482 1405.09 310.071C1405.09 311.456 1407.63 314 1409.02 314C1409.61 314 1410.09 314.675 1410.09 315.5C1410.09 316.325 1410.58 317 1411.17 317C1412.53 317 1431.09 335.649 1431.09 337.008C1431.09 337.554 1431.76 338 1432.59 338C1433.52 338 1434.09 338.944 1434.09 340.5C1434.09 341.875 1434.49 343 1434.98 343C1435.47 343 1436.15 344.125 1436.5 345.5C1436.84 346.875 1437.57 348 1438.11 348C1438.65 348 1439.09 349.139 1439.09 350.531C1439.09 351.924 1439.76 353.322 1440.59 353.638C1441.81 354.109 1442.09 356.569 1442.09 367.107C1442.09 374.415 1441.68 380 1441.16 380C1440.64 380 1439.93 380.923 1439.57 382.051C1438.71 384.774 1433.92 389.603 1431.23 390.454C1430.05 390.829 1429.09 391.554 1429.09 392.067C1429.09 392.58 1428.11 393 1426.9 393C1425.7 393 1422.06 393.746 1418.81 394.659C1413.3 396.204 1412.7 396.204 1410.09 394.659C1408.54 393.746 1406.31 393 1405.12 393C1402.39 393 1392.09 382.858 1392.09 380.172C1392.09 379.095 1391.41 377.955 1390.59 377.638C1389.76 377.322 1389.09 375.924 1389.09 374.531C1389.09 373.139 1388.64 372 1388.09 372C1387.54 372 1387.09 370.232 1387.09 368.071C1387.09 365.911 1386.41 363.468 1385.59 362.643C1384.65 361.704 1384.09 359.246 1384.09 356.071V351H1375.09C1370.14 351 1366.09 351.397 1366.09 351.882C1366.09 352.367 1362.26 353.082 1357.59 353.471C1352.91 353.861 1349.09 354.589 1349.09 355.09C1349.09 355.59 1345.71 356 1341.59 356H1334.09V364C1334.09 368.667 1334.51 372 1335.09 372C1335.64 372 1336.09 374.264 1336.09 377.031C1336.09 380.581 1336.53 382.232 1337.59 382.638C1338.52 382.997 1339.09 384.521 1339.09 386.678C1339.09 388.584 1339.76 390.818 1340.59 391.643C1341.41 392.468 1342.09 394.236 1342.09 395.571C1342.09 396.907 1342.54 398 1343.09 398C1343.64 398 1344.09 398.868 1344.09 399.929C1344.09 400.989 1344.76 402.532 1345.59 403.357C1346.41 404.182 1347.09 405.339 1347.09 405.929C1347.09 406.518 1347.51 407 1348.02 407C1348.53 407 1349.27 408.012 1349.66 409.25C1350.05 410.488 1351.88 412.932 1353.73 414.683C1355.58 416.433 1357.09 418.346 1357.09 418.933C1357.09 419.52 1357.54 420 1358.09 420C1358.65 420 1361.3 422.25 1363.99 425C1366.79 427.857 1369.79 430 1370.99 430C1372.19 430 1373.09 430.643 1373.09 431.5C1373.09 432.325 1373.76 433 1374.59 433C1375.41 433 1376.09 433.445 1376.09 433.988C1376.09 434.532 1377.89 435.264 1380.09 435.616C1382.29 435.968 1384.09 436.648 1384.09 437.128C1384.09 437.608 1385.8 438 1387.9 438C1389.99 438 1392.58 438.661 1393.65 439.468C1396.18 441.385 1430.68 441.714 1431.31 439.828C1431.53 439.17 1434.42 438.459 1437.9 438.208C1441.3 437.961 1444.09 437.364 1444.09 436.88C1444.09 436.396 1444.96 436 1446.02 436C1447.08 436 1448.62 435.325 1449.45 434.5C1450.27 433.675 1451.83 433 1452.91 433C1453.99 433 1455.13 432.325 1455.45 431.5C1455.77 430.675 1456.94 430 1458.06 430C1459.17 430 1460.09 429.599 1460.09 429.108C1460.09 428.618 1461.21 427.934 1462.59 427.589C1463.96 427.244 1465.09 426.52 1465.09 425.981C1465.09 425.441 1465.54 425 1466.09 425C1467.39 425 1479.09 413.304 1479.09 412C1479.09 411.45 1479.53 411 1480.07 411C1480.61 411 1481.33 409.875 1481.68 408.5C1482.02 407.125 1482.71 406 1483.2 406C1483.69 406 1484.09 405.086 1484.09 403.969C1484.09 402.851 1484.76 401.678 1485.59 401.362C1486.41 401.045 1487.09 399.709 1487.09 398.393C1487.09 397.077 1487.48 396 1487.96 396C1488.44 396 1489.12 394.2 1489.47 392C1489.82 389.8 1490.56 388 1491.1 388C1491.69 388 1492.09 383.75 1492.09 377.5C1492.09 371.167 1492.49 367 1493.09 367C1493.64 367 1494.09 365.2 1494.09 363C1494.09 360.8 1493.64 359 1493.09 359C1492.5 359 1492.09 355.333 1492.09 350C1492.09 344.738 1491.68 341 1491.1 341C1490.56 341 1489.82 339.2 1489.47 337C1489.12 334.8 1488.44 333 1487.96 333C1487.48 333 1487.09 331.65 1487.09 330C1487.09 328 1486.59 327 1485.59 327C1484.66 327 1484.09 326.056 1484.09 324.5C1484.09 323.125 1483.69 322 1483.2 322C1482.71 322 1482.02 320.875 1481.68 319.5C1481.33 318.125 1480.61 317 1480.07 317C1479.53 317 1479.09 316.325 1479.09 315.5C1479.09 314.675 1478.65 314 1478.11 314C1477.57 314 1476.84 312.875 1476.5 311.5C1476.15 310.125 1475.47 309 1474.98 309C1474.49 309 1474.09 308.325 1474.09 307.5C1474.09 306.675 1473.41 306 1472.59 306C1471.76 306 1471.09 305.531 1471.09 304.958C1471.09 303.83 1470.09 302.514 1465.84 298.045C1464.33 296.455 1463.09 294.669 1463.09 294.077C1463.09 293.485 1462.41 293 1461.59 293C1460.76 293 1460.09 292.518 1460.09 291.929C1460.09 290.544 1457.54 288 1456.16 288C1455.57 288 1455.09 287.325 1455.09 286.5C1455.09 285.675 1454.61 285 1454.02 285C1452.68 285 1450.09 282.476 1450.09 281.18C1450.09 280.65 1448.96 279.934 1447.59 279.589C1446.21 279.244 1445.09 278.52 1445.09 277.981C1445.09 277.441 1444.41 277 1443.59 277C1442.76 277 1442.09 276.518 1442.09 275.929C1442.09 274.544 1439.54 272 1438.16 272C1437.57 272 1437.09 271.325 1437.09 270.5C1437.09 269.675 1436.58 269 1435.95 269C1435.33 269 1433.78 267.875 1432.5 266.5C1431.23 265.125 1429.71 264 1429.14 264C1428.56 264 1426.34 262.2 1424.2 260C1422.07 257.8 1419.82 256 1419.21 256C1418.59 256 1418.09 255.518 1418.09 254.929C1418.09 253.544 1415.54 251 1414.16 251C1413.57 251 1413.09 250.325 1413.09 249.5C1413.09 248.675 1412.61 248 1412.02 248C1410.63 248 1408.09 245.456 1408.09 244.071C1408.09 243.482 1407.41 243 1406.59 243C1405.76 243 1405.09 242.325 1405.09 241.5C1405.09 240.675 1404.41 240 1403.59 240C1402.76 240 1402.09 239.518 1402.09 238.929C1402.09 237.544 1399.54 235 1398.16 235C1397.57 235 1397.09 233.875 1397.09 232.5C1397.09 231.125 1396.69 230 1396.2 230C1395.71 230 1395.02 228.875 1394.68 227.5C1394.33 226.125 1393.61 225 1393.07 225C1392.53 225 1392.09 223.688 1392.09 222.083C1392.09 220.479 1391.53 218.979 1390.84 218.749C1389.94 218.449 1389.59 215.275 1389.59 207.498C1389.59 199.721 1389.94 196.548 1390.84 196.249C1391.53 196.021 1392.09 194.711 1392.09 193.34C1392.09 190.843 1396.94 185 1399.01 185C1399.6 185 1400.09 184.325 1400.09 183.5C1400.09 182.567 1401.03 182 1402.59 182C1403.96 182 1405.09 181.55 1405.09 181C1405.09 180.417 1408.42 180 1413.09 180C1417.76 180 1421.09 180.417 1421.09 181C1421.09 181.55 1421.97 182 1423.05 182C1425.12 182 1434.09 190.052 1434.09 191.911C1434.09 192.51 1434.5 193 1435.01 193C1435.52 193 1436.23 194.35 1436.59 196C1436.95 197.65 1437.66 199 1438.17 199C1438.67 199 1439.09 201.7 1439.09 205C1439.09 209.667 1439.42 211 1440.59 211C1441.41 211 1442.09 211.675 1442.09 212.5C1442.09 214.23 1443.74 214.534 1444.29 212.903C1444.51 212.247 1448.95 211.587 1455.37 211.26C1461.27 210.959 1466.09 210.327 1466.09 209.856C1466.09 209.385 1471.26 209 1477.59 209C1487.14 209 1489.09 208.746 1489.09 207.5C1489.09 206.675 1489.76 206 1490.59 206C1491.41 206 1492.09 205.55 1492.09 205C1492.09 204.45 1491.7 204 1491.23 204C1490.76 204 1490.1 201.42 1489.78 198.266C1489.45 195.112 1488.71 192.375 1488.14 192.183C1487.56 191.991 1487.09 189.814 1487.09 187.345C1487.09 184.689 1486.48 182.245 1485.59 181.357C1484.76 180.532 1484.09 178.764 1484.09 177.429C1484.09 176.093 1483.64 175 1483.09 175C1482.54 175 1482.09 174.132 1482.09 173.071C1482.09 172.011 1481.41 170.468 1480.59 169.643C1479.76 168.818 1479.09 167.661 1479.09 167.071C1479.09 166.482 1478.67 166 1478.16 166C1477.64 166 1476.91 164.988 1476.52 163.75C1476.13 162.512 1474.75 160.509 1473.45 159.298C1472.15 158.087 1471.09 156.817 1471.09 156.476C1471.09 155.457 1468.31 153 1467.16 153C1466.57 153 1466.09 152.325 1466.09 151.5C1466.09 150.675 1465.61 150 1465.02 150C1464.43 150 1462.5 148.456 1460.72 146.568C1458.94 144.681 1456.27 142.832 1454.78 142.46C1453.3 142.088 1452.09 141.382 1452.09 140.892C1452.09 140.401 1451.16 140 1450.02 140C1448.88 140 1447.27 139.325 1446.45 138.5C1445.62 137.675 1443.67 137 1442.1 137C1440.54 137 1439.08 136.483 1438.87 135.85C1438.47 134.659 1408.51 133.776 1398.84 134.67ZM663.719 139.25C662.92 142.231 662.932 429.415 663.731 434.25L664.351 438H688.708C710.311 438 713.294 437.805 715.078 436.278C717.076 434.567 717.089 433.597 717.089 287.349C717.089 154.859 716.932 139.986 715.518 138.571C714.173 137.227 710.357 137 689.134 137H664.322L663.719 139.25ZM751.089 144C751.089 147.85 751.475 151 751.947 151C752.418 151 753.098 153.813 753.456 157.25C753.815 160.688 754.554 163.65 755.099 163.833C755.643 164.017 756.089 167.017 756.089 170.5C756.089 174.454 756.529 176.98 757.261 177.224C757.919 177.443 758.63 180.331 758.881 183.807C759.128 187.213 759.668 190 760.082 190C760.496 190 761.06 192.343 761.335 195.208C761.61 198.072 762.342 200.584 762.962 200.791C763.64 201.017 764.089 203.691 764.089 207.5C764.089 210.983 764.535 213.983 765.079 214.167C765.624 214.35 766.363 217.313 766.722 220.75C767.08 224.187 767.706 227 768.111 227C768.517 227 769.05 229.787 769.297 233.193C769.548 236.669 770.259 239.557 770.917 239.776C771.651 240.021 772.089 242.566 772.089 246.583C772.089 250.113 772.487 253 772.974 253C773.46 253 774.168 255.475 774.546 258.5C774.924 261.525 775.651 264 776.161 264C776.671 264 777.089 266.925 777.089 270.5C777.089 275.611 777.41 277 778.589 277C779.768 277 780.089 278.389 780.089 283.5C780.089 287.075 780.481 290 780.96 290C781.439 290 782.141 293.15 782.52 297C782.9 300.85 783.633 304 784.15 304C784.666 304 785.103 306.137 785.121 308.75C785.138 311.363 785.813 314.374 786.621 315.441C787.439 316.523 788.089 319.511 788.089 322.191C788.089 324.836 788.474 327 788.944 327C789.415 327 790.083 330.035 790.43 333.745C790.776 337.455 791.516 340.642 792.074 340.828C792.632 341.014 793.089 343.553 793.089 346.469C793.089 349.385 793.761 353.06 794.583 354.636C795.404 356.211 796.079 359.637 796.083 362.25C796.086 364.863 796.539 367 797.089 367C797.639 367 798.089 369.264 798.089 372.031C798.089 375.581 798.531 377.232 799.589 377.638C800.703 378.066 801.089 379.838 801.089 384.524C801.089 388.459 801.53 390.98 802.261 391.224C802.919 391.443 803.63 394.331 803.881 397.807C804.128 401.213 804.671 404 805.089 404C805.507 404 806.05 406.787 806.297 410.193C806.548 413.669 807.259 416.557 807.917 416.776C808.621 417.011 809.089 419.33 809.089 422.583C809.089 425.563 809.539 428 810.089 428C810.639 428 811.089 429.475 811.089 431.278C811.089 437.75 812.149 438 839.581 438H864.051L864.678 435.5C865.023 434.125 865.707 433 866.197 433C866.688 433 867.089 430.113 867.089 426.583C867.089 422.713 867.536 420.018 868.216 419.791C868.836 419.584 869.568 417.072 869.843 414.208C870.118 411.343 870.682 409 871.096 409C871.51 409 872.05 406.213 872.297 402.807C872.548 399.331 873.259 396.443 873.917 396.224C874.649 395.98 875.089 393.454 875.089 389.5C875.089 385.546 875.529 383.02 876.261 382.776C876.919 382.557 877.63 379.669 877.881 376.193C878.128 372.787 878.725 370 879.209 370C879.693 370 880.089 367.557 880.089 364.571C880.089 361.079 880.624 358.608 881.589 357.643C882.521 356.71 883.089 354.255 883.089 351.155C883.089 348.411 883.535 346.017 884.079 345.833C884.624 345.65 885.363 342.688 885.722 339.25C886.08 335.813 886.76 333 887.231 333C887.703 333 888.089 330.611 888.089 327.691C888.089 324.571 888.694 321.582 889.557 320.441C890.365 319.374 891.04 316.363 891.057 313.75C891.075 311.137 891.475 309 891.947 309C892.418 309 893.098 306.188 893.456 302.75C893.815 299.313 894.554 296.35 895.099 296.167C895.643 295.983 896.089 292.983 896.089 289.5C896.089 285.546 896.529 283.02 897.261 282.776C897.919 282.557 898.63 279.669 898.881 276.193C899.128 272.787 899.667 270 900.08 270C900.493 270 901.141 266.85 901.52 263C901.9 259.15 902.633 256 903.15 256C903.666 256 904.089 253.563 904.089 250.583C904.089 247.604 904.572 245.006 905.163 244.809C905.754 244.612 906.492 241.649 906.802 238.225C907.113 234.801 907.691 232 908.088 232C908.485 232 909.071 229.461 909.392 226.358C909.712 223.254 910.45 220.239 911.031 219.658C911.613 219.076 912.089 216.253 912.089 213.383C912.089 210.514 912.572 208.006 913.163 207.809C913.754 207.612 914.492 204.649 914.802 201.225C915.113 197.801 915.754 195 916.228 195C916.701 195 917.105 192.637 917.124 189.75C917.144 186.863 917.803 183.375 918.589 182C919.375 180.625 920.034 177.137 920.054 174.25C920.073 171.363 920.507 169 921.017 169C921.527 169 922.254 166.525 922.632 163.5C923.01 160.475 923.718 158 924.204 158C924.691 158 925.089 155.075 925.089 151.5C925.089 147.925 925.491 145 925.982 145C927.371 145 928.151 142.094 927.48 139.421L926.872 137H875.367L874.802 143.225C874.492 146.649 873.754 149.612 873.163 149.809C872.546 150.014 872.089 152.898 872.089 156.583C872.089 160.113 871.697 163 871.218 163C870.739 163 870.037 166.15 869.658 170C869.278 173.85 868.545 177 868.028 177C867.512 177 867.089 180.407 867.089 184.571C867.089 189.968 866.658 192.574 865.589 193.643C864.624 194.608 864.089 197.079 864.089 200.571C864.089 203.557 863.704 206 863.233 206C862.763 206 862.115 209.479 861.793 213.73C861.472 217.982 860.732 221.619 860.149 221.813C859.551 222.013 859.089 224.929 859.089 228.5C859.089 232.071 858.627 234.987 858.029 235.187C857.446 235.381 856.706 239.018 856.385 243.27C856.063 247.521 855.481 251 855.09 251C854.699 251 854.106 254.257 853.772 258.237C853.439 262.218 852.698 265.63 852.127 265.821C851.545 266.015 851.089 269.165 851.089 273C851.089 276.758 850.643 279.983 850.099 280.167C849.554 280.35 848.815 283.313 848.456 286.75C848.098 290.188 847.418 293 846.947 293C846.475 293 846.073 296.038 846.054 299.75C846.033 303.705 845.426 307.535 844.589 309C843.79 310.398 843.144 314.218 843.124 317.667C843.105 321.058 842.642 323.983 842.097 324.167C841.551 324.35 840.81 327.988 840.45 332.25C839.795 340.012 838.089 343.082 838.089 336.5C838.089 334.575 837.697 333 837.218 333C836.739 333 836.037 329.85 835.658 326C835.278 322.15 834.545 319 834.028 319C833.512 319 833.089 315.662 833.089 311.583C833.089 306.631 832.683 304.031 831.867 303.759C831.095 303.502 830.503 300.531 830.258 295.676C830.045 291.454 829.497 288 829.04 288C828.584 288 827.9 284.85 827.52 281C827.141 277.15 826.439 274 825.96 274C825.481 274 825.073 271.188 825.054 267.75C825.034 264.229 824.394 260.408 823.589 259C822.803 257.625 822.144 253.912 822.124 250.75C822.105 247.588 821.704 245 821.234 245C820.764 245 820.106 241.743 819.772 237.763C819.439 233.782 818.698 230.37 818.127 230.179C817.545 229.985 817.089 226.835 817.089 223C817.089 218.552 816.668 216.026 815.882 215.764C815.143 215.518 814.518 212.579 814.269 208.181C814.046 204.231 813.529 201 813.12 201C812.712 201 812.115 197.521 811.793 193.27C811.472 189.018 810.732 185.381 810.149 185.187C809.549 184.987 809.089 182.047 809.089 178.417C809.089 174.887 808.697 172 808.218 172C807.739 172 807.037 168.85 806.658 165C806.278 161.15 805.594 158 805.138 158C804.681 158 804.133 154.546 803.92 150.324C803.675 145.469 803.083 142.498 802.311 142.241C801.639 142.017 801.089 140.746 801.089 139.417V137H751.089V144ZM960.839 137.689C959.182 138.122 959.089 146.079 959.089 287.073C959.089 418.786 959.262 436 960.589 436C961.414 436 962.089 436.45 962.089 437C962.089 437.657 986.383 438 1032.97 438H1103.86L1104.46 435.75C1105.25 432.803 1105.27 394.633 1104.48 392.582C1103.94 391.173 1099.1 390.999 1060.23 390.986C1036.23 390.979 1015.58 390.701 1014.34 390.37L1012.09 389.767V306H1045.09C1072.89 306 1078.09 305.777 1078.09 304.583C1078.09 303.804 1078.65 302.904 1079.34 302.583C1080.34 302.117 1080.34 301.883 1079.34 301.417C1078.41 300.981 1078.09 296.189 1078.09 282.5C1078.09 268.811 1078.41 264.019 1079.34 263.583C1080.34 263.117 1080.34 262.883 1079.34 262.417C1078.65 262.096 1078.09 261.196 1078.09 260.417C1078.09 259.223 1072.89 259 1045.09 259H1012.09V185H1054.16C1089.29 185 1096.47 184.764 1097.66 183.571C1098.81 182.418 1099.09 177.8 1099.09 159.571V137L1030.84 137.116C993.302 137.18 961.801 137.438 960.839 137.689ZM1143.85 285.721C1143.7 367.549 1143.75 435.288 1143.96 436.25C1144.29 437.859 1146.29 438 1168.69 438C1190.31 438 1193.29 437.805 1195.08 436.278C1197.05 434.588 1197.09 433.431 1197.09 374.885C1197.09 321.395 1197.25 315.151 1198.67 314.607C1200.73 313.818 1219.45 313.818 1221.51 314.607C1222.62 315.033 1223.09 316.524 1223.09 319.607C1223.09 322.023 1223.51 324 1224.03 324C1224.54 324 1225.27 326.025 1225.64 328.5C1226.01 330.975 1226.71 333 1227.2 333C1227.69 333 1228.09 334.589 1228.09 336.531C1228.09 338.748 1228.65 340.277 1229.59 340.638C1230.64 341.042 1231.09 342.68 1231.09 346.107C1231.09 348.798 1231.53 351 1232.08 351C1232.62 351 1233.35 352.8 1233.7 355C1234.06 357.2 1234.74 359 1235.22 359C1235.7 359 1236.09 360.714 1236.09 362.809C1236.09 364.904 1236.75 367.491 1237.56 368.559C1238.36 369.626 1239.04 371.962 1239.06 373.75C1239.07 375.538 1239.48 377 1239.96 377C1240.43 377 1241.08 378.903 1241.39 381.228C1241.7 383.554 1242.44 385.617 1243.02 385.812C1243.61 386.007 1244.09 387.653 1244.09 389.469C1244.09 391.285 1244.76 394.06 1245.58 395.636C1246.4 397.211 1247.08 399.738 1247.08 401.25C1247.09 402.762 1247.54 404 1248.09 404C1248.64 404 1249.09 405.8 1249.09 408C1249.09 410.889 1249.51 412 1250.59 412C1251.72 412 1252.09 413.222 1252.09 417C1252.09 419.75 1252.53 422 1253.08 422C1253.62 422 1254.35 423.8 1254.7 426C1255.06 428.2 1255.74 430 1256.22 430C1256.7 430 1257.09 431.088 1257.09 432.418C1257.09 438.209 1256.07 438 1284.2 438C1308.13 438 1310.1 437.868 1310.23 436.25C1310.51 432.87 1309.87 427.495 1309.13 427C1308.72 426.725 1308.07 424.813 1307.69 422.75C1307.31 420.687 1306.57 419 1306.04 419C1305.52 419 1305.07 417.538 1305.06 415.75C1305.04 413.962 1304.36 411.626 1303.56 410.559C1302.75 409.491 1302.09 407.579 1302.09 406.309C1302.09 405.039 1301.64 404 1301.09 404C1300.54 404 1300.09 402.2 1300.09 400C1300.09 397.239 1299.66 396 1298.69 396C1297.79 396 1297.1 394.474 1296.76 391.75C1296.04 385.892 1293.8 378 1292.86 378C1292.44 378 1292.09 376.682 1292.09 375.071C1292.09 373.461 1291.41 371.468 1290.59 370.643C1289.76 369.818 1289.09 367.536 1289.09 365.571C1289.09 363.607 1288.7 362 1288.22 362C1287.74 362 1287.06 360.2 1286.7 358C1286.35 355.8 1285.62 354 1285.08 354C1284.53 354 1284.09 352.248 1284.09 350.107C1284.09 347.569 1283.57 346.014 1282.59 345.638C1281.65 345.277 1281.09 343.748 1281.09 341.531C1281.09 339.589 1280.7 338 1280.22 338C1279.74 338 1279.06 336.2 1278.7 334C1278.35 331.8 1277.62 330 1277.08 330C1276.53 330 1276.09 328.232 1276.09 326.071C1276.09 323.911 1275.41 321.468 1274.59 320.643C1273.76 319.818 1273.09 317.986 1273.09 316.571C1273.09 315.157 1272.64 314 1272.09 314C1271.54 314 1271.09 312.411 1271.09 310.469C1271.09 308.252 1270.53 306.723 1269.59 306.362C1268.76 306.045 1268.09 304.709 1268.09 303.393C1268.09 301.507 1268.62 301 1270.59 301C1272.14 301 1273.09 300.433 1273.09 299.5C1273.09 298.675 1273.76 298 1274.59 298C1275.41 298 1276.09 297.55 1276.09 297C1276.09 296.45 1276.75 296 1277.55 296C1279.47 296 1289.09 286.121 1289.09 284.149C1289.09 283.635 1289.76 282.955 1290.59 282.638C1291.41 282.322 1292.09 281.374 1292.09 280.531C1292.09 279.689 1292.54 279 1293.09 279C1293.64 279 1294.09 278.086 1294.09 276.969C1294.09 275.851 1294.76 274.678 1295.59 274.362C1296.5 274.01 1297.09 272.496 1297.09 270.476C1297.09 268.656 1297.58 267.002 1298.19 266.801C1298.79 266.599 1299.52 264.312 1299.82 261.717C1300.11 259.123 1300.74 257 1301.22 257C1301.7 257 1302.09 254.061 1302.09 250.468C1302.09 246.875 1302.76 242.32 1303.59 240.346C1304.61 237.91 1305.09 233.299 1305.09 226.004C1305.09 219.002 1304.57 213.768 1303.59 211C1302.76 208.662 1302.09 203.655 1302.09 199.874C1302.09 195.958 1301.66 193 1301.09 193C1300.54 193 1300.09 191.682 1300.09 190.071C1300.09 188.461 1299.41 186.468 1298.59 185.643C1297.76 184.818 1297.09 182.536 1297.09 180.571C1297.09 178.063 1296.64 177 1295.59 177C1294.66 177 1294.09 176.056 1294.09 174.5C1294.09 173.125 1293.64 172 1293.09 172C1292.54 172 1292.09 171.325 1292.09 170.5C1292.09 169.675 1291.41 169 1290.59 169C1289.76 169 1289.09 168.111 1289.09 167C1289.09 165.262 1278.08 153 1276.52 153C1276.2 153 1275.32 152.438 1274.55 151.75C1270.93 148.506 1270 148 1267.63 148C1266.04 148 1265.09 147.44 1265.09 146.5C1265.09 145.567 1264.14 145 1262.59 145C1261.21 145 1260.09 144.592 1260.09 144.094C1260.09 143.595 1257.84 142.878 1255.09 142.5C1252.34 142.122 1250.09 141.405 1250.09 140.906C1250.09 140.408 1246.98 140 1243.17 140C1238.53 140 1236.12 139.589 1235.84 138.75C1235.52 137.78 1225.2 137.437 1189.76 137.221L1144.1 136.941L1143.85 285.721ZM1537.09 438H1562.09C1578.09 438 1587.09 437.64 1587.09 437C1587.09 436.45 1587.76 436 1588.59 436C1589.92 436 1590.09 418.897 1590.09 288.071C1590.09 154.924 1589.93 139.986 1588.52 138.571C1587.17 137.227 1583.35 137 1562.02 137H1537.09V438ZM1645.09 286.025C1645.09 413.927 1645.29 435.346 1646.52 436.571C1647.71 437.764 1654.89 438 1690.02 438C1713.38 438 1732.09 437.611 1732.09 437.125C1732.09 436.644 1736 436.045 1740.78 435.795C1746.16 435.512 1749.62 434.892 1749.87 434.169C1750.08 433.526 1751.48 433 1752.98 433C1754.48 433 1756.58 432.339 1757.65 431.532C1758.71 430.724 1760.6 430.049 1761.84 430.032C1763.08 430.014 1764.09 429.599 1764.09 429.108C1764.09 428.618 1765.21 427.934 1766.59 427.589C1767.96 427.244 1769.09 426.52 1769.09 425.981C1769.09 425.441 1770.21 425 1771.59 425C1773.14 425 1774.09 424.433 1774.09 423.5C1774.09 422.675 1774.58 422 1775.18 422C1777.1 422 1790.09 408.041 1790.09 405.979C1790.09 404.887 1790.76 404 1791.59 404C1792.52 404 1793.09 403.056 1793.09 401.5C1793.09 400.125 1793.5 399 1794.01 399C1794.52 399 1795.23 397.65 1795.59 396C1795.95 394.35 1796.66 393 1797.17 393C1797.67 393 1798.09 391.462 1798.09 389.583C1798.09 387.704 1798.58 386.002 1799.19 385.801C1799.79 385.599 1800.53 383.199 1800.83 380.467C1801.13 377.735 1801.87 375.179 1802.48 374.786C1804.18 373.688 1804.04 200.818 1802.34 200.25C1801.56 199.992 1801.09 197.961 1801.09 194.917C1801.09 191.213 1800.72 190 1799.59 190C1798.51 190 1798.09 188.889 1798.09 186C1798.09 183.8 1797.69 182 1797.2 182C1796.71 182 1796.02 180.875 1795.68 179.5C1795.33 178.125 1794.61 177 1794.07 177C1793.53 177 1793.09 175.65 1793.09 174C1793.09 172.35 1792.67 171 1792.16 171C1791.64 171 1790.91 170.013 1790.53 168.806C1789.73 166.309 1779.77 156 1778.15 156C1777.57 156 1777.09 155.325 1777.09 154.5C1777.09 153.675 1776.58 153 1775.95 153C1775.33 153 1773.78 151.875 1772.5 150.5C1771.23 149.125 1769.26 148 1768.14 148C1767.01 148 1766.09 147.559 1766.09 147.019C1766.09 146.48 1764.96 145.756 1763.59 145.411C1762.21 145.066 1761.09 144.439 1761.09 144.019C1761.09 143.599 1759.29 142.968 1757.09 142.616C1754.89 142.264 1753.09 141.532 1753.09 140.988C1753.09 140.44 1750.23 140 1746.67 140C1742.43 140 1740.11 139.577 1739.84 138.75C1739.52 137.779 1728.89 137.434 1692.26 137.204L1645.09 136.908V286.025ZM1853.76 137.667C1852.92 138.5 1852.86 434.249 1853.7 436.418C1854.24 437.84 1861.55 438 1926.08 438H1997.86L1998.46 435.75C1999.25 432.803 1999.27 394.633 1998.48 392.582C1997.94 391.172 1993.05 391 1953.56 391C1929.19 391 1908.54 390.727 1907.67 390.393C1906.26 389.853 1906.09 385.171 1906.09 347.893V306H1972.09V259.027L1906.59 258.5L1906.06 185L1947.83 184.968C1980.97 184.943 1989.95 184.662 1991.34 183.608C1992.91 182.413 1993.09 180.058 1993.09 160.247C1993.09 141.078 1992.88 138.135 1991.51 137.607C1989.34 136.775 1854.59 136.834 1853.76 137.667ZM1232.84 183.75C1233.07 184.438 1233.89 185 1234.67 185C1235.45 185 1236.09 185.401 1236.09 185.892C1236.09 186.382 1237.21 187.066 1238.59 187.411C1239.96 187.756 1241.09 188.48 1241.09 189.019C1241.09 189.559 1241.69 190 1242.43 190C1243.16 190 1244.6 192.475 1245.63 195.5C1246.66 198.525 1247.81 201 1248.18 201C1248.55 201 1249.05 203.787 1249.3 207.193C1249.55 210.669 1250.26 213.557 1250.92 213.776C1252.49 214.301 1252.56 236.675 1250.99 237.199C1250.39 237.4 1249.65 240.588 1249.35 244.283C1249.06 247.977 1248.43 251 1247.95 251C1247.48 251 1247.09 252.093 1247.09 253.429C1247.09 254.764 1246.41 256.532 1245.59 257.357C1244.76 258.182 1244.09 259.099 1244.09 259.394C1244.09 260.566 1238.25 265.814 1236.23 266.454C1235.05 266.829 1234.09 267.554 1234.09 268.067C1234.09 268.58 1232.4 269.014 1230.34 269.032C1228.28 269.049 1225.71 269.724 1224.65 270.532C1223.21 271.62 1219.8 272 1211.48 272C1205.3 272 1199.54 271.727 1198.67 271.393C1197.26 270.852 1197.09 265.942 1197.09 226.294V181.802L1214.76 182.151C1227.74 182.408 1232.53 182.831 1232.84 183.75ZM1731.84 183.75C1732.08 184.467 1733.93 185 1736.17 185C1738.43 185 1740.09 185.481 1740.09 186.135C1740.09 186.76 1741.1 188.222 1742.34 189.385C1745.93 192.763 1748.09 196.699 1748.09 199.881C1748.09 201.505 1748.65 203.021 1749.34 203.25C1750.33 203.579 1750.59 221.322 1750.59 287.5C1750.59 353.678 1750.33 371.421 1749.34 371.75C1748.65 371.979 1748.09 373.447 1748.09 375.012C1748.09 376.577 1747.41 378.532 1746.59 379.357C1745.76 380.182 1745.09 381.146 1745.09 381.5C1745.09 382.538 1742.33 385 1741.16 385C1740.57 385 1740.09 385.675 1740.09 386.5C1740.09 387.325 1739.41 388 1738.59 388C1737.76 388 1737.09 388.445 1737.09 388.988C1737.09 389.532 1735.29 390.264 1733.09 390.616C1730.89 390.968 1729.09 391.648 1729.09 392.128C1729.09 392.608 1722.11 393 1713.59 393H1698.09V181.865L1714.76 182.183C1726.97 182.415 1731.54 182.834 1731.84 183.75ZM595.089 197C595.089 197.55 594.639 198 594.089 198C593.539 198 593.089 197.55 593.089 197C593.089 196.45 593.539 196 594.089 196C594.639 196 595.089 196.45 595.089 197ZM566.089 236C566.089 236.55 565.639 237 565.089 237C564.539 237 564.089 236.55 564.089 236C564.089 235.45 564.539 235 565.089 235C565.639 235 566.089 235.45 566.089 236Z" fill="#3E629E"/>
</svg>
