<?xml version="1.0" encoding="UTF-8" standalone="no"?><!DOCTYPE svg PUBLIC "-//W3C//DTD SVG 1.1//EN" "http://www.w3.org/Graphics/SVG/1.1/DTD/svg11.dtd"><svg width="100%" height="100%" viewBox="0 0 375 375" version="1.1" xmlns="http://www.w3.org/2000/svg" xmlns:xlink="http://www.w3.org/1999/xlink" xml:space="preserve" xmlns:serif="http://www.serif.com/" style="fill-rule:evenodd;clip-rule:evenodd;stroke-linejoin:round;stroke-miterlimit:2;"><path d="M157.738,187.201l-151.64,151.64c-8.131,8.131 -8.131,21.333 -0,29.463c8.13,8.131 21.332,8.131 29.463,0l151.64,-151.64l151.64,151.64c8.131,8.131 21.333,8.131 29.463,0c8.131,-8.13 8.131,-21.332 0,-29.463l-151.64,-151.64l151.64,-151.64c8.131,-8.131 8.131,-21.333 0,-29.463c-8.13,-8.131 -21.332,-8.131 -29.463,-0l-151.64,151.64l-151.64,-151.64c-8.131,-8.131 -21.333,-8.131 -29.463,-0c-8.131,8.13 -8.131,21.332 -0,29.463l151.64,151.64Z" style="fill:#fff;"/></svg>